<?xml version="1.0" encoding="utf-8"?>
<!-- Generator: Adobe Illustrator 20.0.0, SVG Export Plug-In . SVG Version: 6.00 Build 0)  -->
<svg version="1.1" id="Layer_1" xmlns="http://www.w3.org/2000/svg" xmlns:xlink="http://www.w3.org/1999/xlink" x="0px" y="0px"
	 width="600px" height="300px" viewBox="0 0 600 256.677" style="enable-background:new 0 0 600 256.677;" xml:space="preserve"
	>
<style type="text/css">

</style>
<path class="st0" d="M566.458,123.685h-21.037V24.89c0-4.198,3.416-7.614,7.614-7.614c4.198,0,7.614,3.416,7.614,7.614v91.182
	c0,3.203,2.606,5.81,5.81,5.81V123.685z M547.224,121.882h14.319c-1.65-1.397-2.698-3.483-2.698-5.81V24.89
	c0-3.204-2.606-5.811-5.81-5.811c-3.204,0-5.811,2.606-5.811,5.811V121.882z"/>
<path class="st0" d="M566.27,123.685l0.123-0.002c0.022,0.001,0.044,0.002,0.066,0.002c0.093,0,0.186-0.002,0.279-0.005l0.434-0.004
	v-0.024c3.866-0.36,6.901-3.622,6.901-7.58V9.168h-88.493v9.01h1.803v-7.206h84.887v105.101c0,3.202-2.604,5.807-5.848,5.807
	c-0.001,0-0.004,0-0.005,0L566.27,123.685z"/>
<path class="st0" d="M547.224,140.151l-7.496-7.496l-6.739,6.738l-6.738-6.738l-6.738,6.738l-6.739-6.738l-6.738,6.738l-6.738-6.738
	l-6.739,6.738l-6.738-6.738l-6.738,6.738l-6.739-6.738l-7.352,7.352V24.89c0-4.198,3.416-7.614,7.614-7.614h80.43v1.803
	c-3.204,0-5.811,2.606-5.811,5.811V140.151z M526.251,130.105l6.738,6.738l6.739-6.738l5.693,5.693V24.89
	c0-2.326,1.049-4.413,2.699-5.811h-75.515c-3.204,0-5.81,2.606-5.81,5.811v110.763l5.549-5.548l6.739,6.738l6.738-6.738l6.738,6.738
	l6.739-6.738l6.738,6.738l6.738-6.738l6.739,6.738L526.251,130.105z"/>
<path class="st0" d="M142.402,122.148H11.188c-4.866,0-8.825-3.959-8.825-8.825V52.418c0-4.866,3.959-8.825,8.825-8.825h131.214
	c4.866,0,8.825,3.959,8.825,8.825v60.905C151.227,118.189,147.268,122.148,142.402,122.148z M11.188,45.397
	c-3.872,0-7.022,3.15-7.022,7.021v60.905c0,3.872,3.15,7.021,7.022,7.021h131.214c3.872,0,7.022-3.15,7.022-7.021V52.418
	c0-3.872-3.15-7.021-7.022-7.021H11.188z"/>
<path class="st0" d="M126.059,122.472c-0.498,0-0.902-0.403-0.902-0.902V44.819c0-0.498,0.404-0.902,0.902-0.902
	c0.498,0,0.902,0.403,0.902,0.902v76.751C126.961,122.069,126.557,122.472,126.059,122.472z"/>
<path class="st0" d="M21.568,122.148c-0.498,0-0.902-0.403-0.902-0.902V44.495c0-0.498,0.404-0.902,0.902-0.902
	s0.902,0.403,0.902,0.902v76.751C22.47,121.745,22.066,122.148,21.568,122.148z"/>
<path class="st0" d="M12.321,94.272h-1.71c-1.446,0-2.622-1.176-2.622-2.622V74.092c0-1.446,1.176-2.622,2.622-2.622h1.71
	c1.446,0,2.622,1.176,2.622,2.622V91.65C14.943,93.096,13.767,94.272,12.321,94.272z M10.611,73.273
	c-0.452,0-0.819,0.367-0.819,0.819V91.65c0,0.452,0.367,0.819,0.819,0.819h1.71c0.452,0,0.819-0.367,0.819-0.819V74.092
	c0-0.452-0.367-0.819-0.819-0.819H10.611z"/>
<path class="st0" d="M138.807,89.017c-3.633,0-6.588-2.955-6.588-6.587c0-3.633,2.955-6.588,6.588-6.588s6.588,2.955,6.588,6.588
	C145.395,86.062,142.44,89.017,138.807,89.017z M138.807,77.645c-2.638,0-4.784,2.147-4.784,4.785c0,2.638,2.146,4.784,4.784,4.784
	s4.784-2.146,4.784-4.784C143.592,79.792,141.445,77.645,138.807,77.645z"/>
<path class="st0" d="M48.319,116.342c-0.602,0-1.207-0.198-1.732-0.597c-1.136-0.866-1.46-2.349-0.788-3.608l5.473-10.253h-6.259
	c-2.001,0-3.628-1.627-3.628-3.628V69.822c0-2.001,1.628-3.628,3.628-3.628h47.203c2.001,0,3.628,1.627,3.628,3.628v28.433
	c0,2.001-1.628,3.628-3.628,3.628H64.654l-14.379,13.66C49.718,116.073,49.021,116.342,48.319,116.342z M45.014,67.998
	c-1.006,0-1.825,0.818-1.825,1.824v28.433c0,1.006,0.818,1.824,1.825,1.824h9.266l-6.889,12.905
	c-0.309,0.579-0.053,1.064,0.289,1.324c0.342,0.262,0.878,0.379,1.353-0.073l14.901-14.156h28.283c1.006,0,1.825-0.819,1.825-1.824
	V69.822c0-1.006-0.818-1.824-1.825-1.824H45.014z"/>
<path class="st0" d="M108.576,55.873H61.373c-2.001,0-3.628,1.627-3.628,3.628v7.595h1.803v-7.595c0-1.006,0.818-1.824,1.825-1.824
	h47.203c1.006,0,1.824,0.818,1.824,1.824v28.433c0,1.006-0.818,1.824-1.824,1.824H99.31l6.889,12.905
	c0.309,0.579,0.053,1.064-0.289,1.324c-0.342,0.263-0.878,0.378-1.353-0.073l-9.613-9.133v2.488l8.371,7.952
	c0.557,0.53,1.254,0.799,1.957,0.799c0.602,0,1.207-0.198,1.732-0.597c1.136-0.866,1.46-2.349,0.788-3.608l-5.473-10.253h6.259
	c2.001,0,3.628-1.627,3.628-3.628V59.501C112.204,57.5,110.576,55.873,108.576,55.873z"/>
<path class="st0" d="M78.892,98.183H58.339v-4.227c0-4.367,3.553-7.921,7.921-7.921h4.71c4.368,0,7.921,3.554,7.921,7.921V98.183z
	 M60.142,96.38h16.946v-2.423c0-3.373-2.745-6.118-6.118-6.118h-4.71c-3.373,0-6.118,2.745-6.118,6.118V96.38z"/>
<path class="st0" d="M68.615,86.218c-3.695,0-6.701-3.006-6.701-6.701c0-3.695,3.006-6.701,6.701-6.701
	c3.695,0,6.701,3.006,6.701,6.701C75.316,83.212,72.31,86.218,68.615,86.218z M68.615,74.619c-2.701,0-4.898,2.197-4.898,4.898
	s2.197,4.898,4.898,4.898s4.898-2.197,4.898-4.898S71.316,74.619,68.615,74.619z"/>
<path class="st0" d="M304.964,82.328c-0.13,0-0.261-0.028-0.382-0.085l-54.27-25.368c-0.317-0.149-0.52-0.467-0.52-0.817
	s0.203-0.668,0.52-0.817l54.27-25.368c0.242-0.113,0.521-0.113,0.763,0l54.27,25.368c0.317,0.149,0.52,0.467,0.52,0.817
	s-0.203,0.668-0.52,0.817l-54.27,25.368C305.225,82.3,305.095,82.328,304.964,82.328z M252.824,56.059l52.141,24.373l52.14-24.373
	l-52.14-24.373L252.824,56.059z"/>
<path class="st0" d="M304.964,144.309l-0.382-0.178l-54.27-25.369c-0.451-0.211-0.646-0.748-0.435-1.199
	c0.21-0.451,0.748-0.645,1.198-0.435l53.888,25.191l53.888-25.191c0.45-0.206,0.988-0.015,1.198,0.435
	c0.211,0.452,0.016,0.988-0.435,1.199L304.964,144.309z"/>
<path class="st0" d="M250.974,57.204L231.02,27.105l55.922-26.14l19.953,30.1L250.974,57.204z M233.68,27.853l17.939,27.06
	l52.618-24.597L286.298,3.256L233.68,27.853z"/>
<path class="st0" d="M323.588,111.153l-19.953-30.1l55.921-26.14l19.953,30.099L323.588,111.153z M306.294,81.801l17.939,27.061
	l52.618-24.597l-17.939-27.061L306.294,81.801z"/>
<path class="st0" d="M251.296,118.847c-0.498,0-0.902-0.403-0.902-0.902V56.059c0-0.498,0.404-0.902,0.902-0.902
	s0.902,0.403,0.902,0.902v61.887C252.198,118.444,251.794,118.847,251.296,118.847z"/>
<path class="st0" d="M304.964,144.216c-0.498,0-0.902-0.403-0.902-0.902V81.427c0-0.498,0.404-0.902,0.902-0.902
	s0.902,0.403,0.902,0.902v61.887C305.866,143.813,305.462,144.216,304.964,144.216z"/>
<path class="st0" d="M359.234,118.847c-0.498,0-0.902-0.403-0.902-0.902V93.47c0-0.498,0.404-0.902,0.902-0.902
	s0.902,0.403,0.902,0.902v24.475C360.136,118.444,359.732,118.847,359.234,118.847z"/>
<path class="st0" d="M278.076,124.236c-0.498,0-0.902-0.403-0.902-0.902V76.236c0-0.498,0.404-0.902,0.902-0.902
	c0.498,0,0.902,0.403,0.902,0.902v47.098C278.977,123.832,278.574,124.236,278.076,124.236z"/>
<path class="st0" d="M305.566,74.462c-0.498,0-0.902-0.403-0.902-0.902V30.69c0-0.498,0.404-0.902,0.902-0.902
	c0.498,0,0.902,0.403,0.902,0.902v42.87C306.468,74.058,306.064,74.462,305.566,74.462z"/>
<path class="st0" d="M507.689,51.11h-8.449c-0.498,0-0.902-0.403-0.902-0.902s0.404-0.902,0.902-0.902h8.449
	c1.958,0,3.551-1.593,3.551-3.551c0-1.957-1.593-3.55-3.551-3.55h-3.857c-2.952,0-5.354-2.402-5.354-5.355s2.402-5.354,5.354-5.354
	h7.398c0.498,0,0.902,0.403,0.902,0.902c0,0.498-0.404,0.902-0.902,0.902h-7.398c-1.958,0-3.551,1.593-3.551,3.55
	c0,1.958,1.593,3.551,3.551,3.551h3.857c2.952,0,5.354,2.401,5.354,5.354S510.642,51.11,507.689,51.11z"/>
<path class="st0" d="M505.691,54.388c-0.498,0-0.902-0.403-0.902-0.902V29.804c0-0.498,0.404-0.902,0.902-0.902
	s0.902,0.403,0.902,0.902v23.683C506.593,53.985,506.189,54.388,505.691,54.388z"/>
<g>
	<path class="st0" d="M540.938,87.06h-71.411V60.586h71.411V87.06z M471.331,85.257h67.804V62.39h-67.804V85.257z"/>
</g>
<g>
	<path class="st0" d="M540.037,82.948h-69.608c-0.498,0-0.902-0.403-0.902-0.902s0.404-0.902,0.902-0.902h69.608
		c0.498,0,0.902,0.403,0.902,0.902S540.535,82.948,540.037,82.948z"/>
</g>
<g>
	<path class="st0" d="M540.037,78.836h-69.608c-0.498,0-0.902-0.403-0.902-0.902s0.404-0.902,0.902-0.902h69.608
		c0.498,0,0.902,0.403,0.902,0.902S540.535,78.836,540.037,78.836z"/>
</g>
<g>
	<path class="st0" d="M540.037,74.725h-69.608c-0.498,0-0.902-0.403-0.902-0.902s0.404-0.902,0.902-0.902h69.608
		c0.498,0,0.902,0.403,0.902,0.902S540.535,74.725,540.037,74.725z"/>
</g>
<g>
	<path class="st0" d="M540.037,70.613h-69.608c-0.498,0-0.902-0.403-0.902-0.902s0.404-0.902,0.902-0.902h69.608
		c0.498,0,0.902,0.403,0.902,0.902S540.535,70.613,540.037,70.613z"/>
</g>
<g>
	<path class="st0" d="M540.037,66.501h-69.608c-0.498,0-0.902-0.403-0.902-0.902s0.404-0.902,0.902-0.902h69.608
		c0.498,0,0.902,0.403,0.902,0.902S540.535,66.501,540.037,66.501z"/>
</g>
<g>
	<path class="st0" d="M522.635,87.06c-0.498,0-0.902-0.403-0.902-0.902V61.488c0-0.498,0.404-0.902,0.902-0.902
		s0.902,0.403,0.902,0.902v24.671C523.537,86.657,523.133,87.06,522.635,87.06z"/>
</g>
<g>
	<path class="st0" d="M505.233,87.06c-0.498,0-0.902-0.403-0.902-0.902V61.488c0-0.498,0.404-0.902,0.902-0.902
		c0.498,0,0.902,0.403,0.902,0.902v24.671C506.135,86.657,505.731,87.06,505.233,87.06z"/>
</g>
<path class="st0" d="M540.037,93.335h-69.608c-0.498,0-0.902-0.403-0.902-0.902s0.404-0.902,0.902-0.902h69.608
	c0.498,0,0.902,0.403,0.902,0.902S540.535,93.335,540.037,93.335z"/>
<path class="st0" d="M540.037,99.353h-69.608c-0.498,0-0.902-0.403-0.902-0.902s0.404-0.902,0.902-0.902h69.608
	c0.498,0,0.902,0.403,0.902,0.902S540.535,99.353,540.037,99.353z"/>
<path class="st0" d="M540.037,104.49h-34.346c-0.498,0-0.902-0.403-0.902-0.902s0.404-0.902,0.902-0.902h34.346
	c0.498,0,0.902,0.403,0.902,0.902S540.535,104.49,540.037,104.49z"/>
<path class="st0" d="M540.037,110.384h-19.533c-0.498,0-0.902-0.403-0.902-0.902s0.404-0.902,0.902-0.902h19.533
	c0.498,0,0.902,0.403,0.902,0.902S540.535,110.384,540.037,110.384z"/>
<circle class="st2" cx="37.677" cy="63.858" r="37.73"/>
<circle class="st2" cx="271.069" cy="63.858" r="37.73"/>
<circle class="st2" cx="492.017" cy="63.858" r="37.73"/>
<g>
	<path class="st0" d="M207.335,71.498c-0.835-0.837-2.293-0.839-3.132,0c-0.861,0.865-0.86,2.271,0.001,3.134l4.573,4.572h-23.75
		c-1.221,0-2.213,0.993-2.213,2.213c0,1.221,0.993,2.214,2.213,2.214h23.75l-4.573,4.571c-0.42,0.419-0.651,0.977-0.65,1.571
		c0.001,0.592,0.232,1.147,0.649,1.561c0.419,0.42,0.975,0.651,1.566,0.651c0.595,0,1.151-0.232,1.564-0.651l8.356-8.353
		c0.412-0.412,0.649-0.983,0.649-1.564c0-0.58-0.236-1.151-0.649-1.568L207.335,71.498z"/>
	<path class="st0" d="M419.483,71.498c-0.835-0.837-2.293-0.839-3.132,0c-0.861,0.865-0.86,2.271,0.001,3.134l4.573,4.572h-23.75
		c-1.221,0-2.213,0.993-2.213,2.213c0,1.221,0.993,2.214,2.213,2.214h23.75l-4.573,4.571c-0.42,0.419-0.651,0.977-0.65,1.571
		c0.001,0.592,0.232,1.147,0.649,1.561c0.419,0.42,0.975,0.651,1.566,0.651c0.595,0,1.151-0.232,1.564-0.651l8.356-8.353
		c0.412-0.412,0.649-0.983,0.649-1.564c0-0.58-0.236-1.151-0.649-1.568L419.483,71.498z"/>
	<path class="st0" d="M36.363,202.037c1.548,0.953,3.809,1.745,6.19,1.745c3.531,0,5.594-1.865,5.594-4.563
		c0-2.499-1.428-3.927-5.039-5.317c-4.364-1.548-7.063-3.809-7.063-7.578c0-4.167,3.452-7.263,8.65-7.263
		c2.738,0,4.722,0.636,5.912,1.31l-0.952,2.818c-0.873-0.477-2.658-1.27-5.079-1.27c-3.651,0-5.039,2.182-5.039,4.006
		c0,2.501,1.627,3.73,5.317,5.158c4.523,1.747,6.825,3.929,6.825,7.856c0,4.128-3.055,7.699-9.364,7.699
		c-2.579,0-5.396-0.755-6.825-1.706L36.363,202.037z"/>
	<path class="st0" d="M59.969,181.522v5.516h5v2.659h-5v10.355c0,2.381,0.675,3.73,2.619,3.73c0.912,0,1.587-0.118,2.023-0.238
		l0.158,2.619c-0.674,0.278-1.746,0.477-3.095,0.477c-1.627,0-2.936-0.516-3.77-1.469c-0.992-1.032-1.349-2.738-1.349-5v-10.475
		h-2.976v-2.659h2.976v-4.603L59.969,181.522z"/>
	<path class="st0" d="M79.133,206.243l-0.278-2.42h-0.119c-1.071,1.507-3.134,2.856-5.872,2.856c-3.888,0-5.873-2.738-5.873-5.516
		c0-4.642,4.127-7.182,11.547-7.141v-0.398c0-1.587-0.437-4.443-4.365-4.443c-1.786,0-3.65,0.555-5,1.428l-0.793-2.302
		c1.587-1.032,3.888-1.706,6.309-1.706c5.872,0,7.301,4.008,7.301,7.856v7.183c0,1.666,0.079,3.293,0.317,4.602H79.133z
		 M78.617,196.442c-3.809-0.079-8.134,0.595-8.134,4.325c0,2.261,1.508,3.334,3.294,3.334c2.5,0,4.087-1.588,4.642-3.214
		c0.119-0.357,0.199-0.756,0.199-1.111V196.442z"/>
	<path class="st0" d="M87.224,193.029c0-2.261-0.04-4.205-0.159-5.991h3.055l0.119,3.77h0.159c0.873-2.58,2.976-4.207,5.317-4.207
		c0.397,0,0.674,0.041,0.992,0.12v3.293c-0.357-0.079-0.714-0.12-1.19-0.12c-2.46,0-4.206,1.865-4.682,4.484
		c-0.08,0.477-0.159,1.032-0.159,1.627v10.237h-3.452V193.029z"/>
	<path class="st0" d="M104.958,181.522v5.516h5v2.659h-5v10.355c0,2.381,0.674,3.73,2.619,3.73c0.913,0,1.587-0.118,2.023-0.238
		l0.159,2.619c-0.675,0.278-1.746,0.477-3.095,0.477c-1.627,0-2.937-0.516-3.77-1.469c-0.992-1.032-1.349-2.738-1.349-5v-10.475
		H98.57v-2.659h2.976v-4.603L104.958,181.522z"/>
	<path class="st0" d="M132.135,206.243l-0.278-2.42h-0.119c-1.071,1.507-3.134,2.856-5.872,2.856c-3.888,0-5.873-2.738-5.873-5.516
		c0-4.642,4.127-7.182,11.547-7.141v-0.398c0-1.587-0.437-4.443-4.365-4.443c-1.786,0-3.65,0.555-5,1.428l-0.793-2.302
		c1.587-1.032,3.888-1.706,6.309-1.706c5.872,0,7.301,4.008,7.301,7.856v7.183c0,1.666,0.079,3.293,0.317,4.602H132.135z
		 M131.619,196.442c-3.809-0.079-8.134,0.595-8.134,4.325c0,2.261,1.508,3.334,3.294,3.334c2.5,0,4.087-1.588,4.642-3.214
		c0.119-0.357,0.199-0.756,0.199-1.111V196.442z"/>
	<path class="st0" d="M5.458,224.908l3.77,10.794c0.635,1.745,1.151,3.332,1.548,4.919h0.119c0.436-1.587,0.992-3.173,1.627-4.919
		l3.73-10.794h3.651l-7.539,19.204H9.029l-7.301-19.204H5.458z"/>
	<path class="st0" d="M26.683,219.512c0.04,1.19-0.833,2.143-2.222,2.143c-1.23,0-2.103-0.953-2.103-2.143
		c0-1.231,0.913-2.182,2.182-2.182C25.85,217.33,26.683,218.281,26.683,219.512z M22.795,244.113v-19.204h3.492v19.204H22.795z"/>
	<path class="st0" d="M48.267,215.941v23.213c0,1.706,0.04,3.651,0.159,4.959h-3.135l-0.158-3.332h-0.08
		c-1.071,2.141-3.413,3.769-6.547,3.769c-4.643,0-8.214-3.929-8.214-9.762c-0.04-6.387,3.928-10.316,8.61-10.316
		c2.936,0,4.92,1.389,5.793,2.937h0.079v-11.468H48.267z M44.775,232.725c0-0.437-0.04-1.032-0.158-1.469
		c-0.516-2.222-2.421-4.047-5.039-4.047c-3.611,0-5.753,3.173-5.753,7.419c0,3.888,1.905,7.102,5.674,7.102
		c2.341,0,4.484-1.546,5.119-4.165c0.119-0.477,0.158-0.953,0.158-1.509V232.725z"/>
	<path class="st0" d="M55.605,235.145c0.08,4.721,3.095,6.666,6.587,6.666c2.5,0,4.008-0.435,5.317-0.991l0.595,2.501
		c-1.23,0.555-3.333,1.19-6.389,1.19c-5.912,0-9.443-3.89-9.443-9.682c0-5.794,3.413-10.357,9.007-10.357
		c6.269,0,7.936,5.516,7.936,9.047c0,0.715-0.079,1.27-0.119,1.627H55.605z M65.842,232.646c0.04-2.222-0.913-5.674-4.841-5.674
		c-3.531,0-5.079,3.253-5.357,5.674H65.842z"/>
	<path class="st0" d="M90.519,234.353c0,7.102-4.92,10.197-9.563,10.197c-5.198,0-9.206-3.809-9.206-9.88
		c0-6.428,4.206-10.198,9.523-10.198C86.789,224.471,90.519,228.48,90.519,234.353z M75.282,234.55c0,4.207,2.421,7.381,5.833,7.381
		c3.333,0,5.833-3.135,5.833-7.46c0-3.253-1.627-7.381-5.754-7.381C77.068,227.09,75.282,230.899,75.282,234.55z"/>
	<path class="st0" d="M116.226,243.399c-0.913,0.475-2.936,1.111-5.515,1.111c-5.793,0-9.563-3.929-9.563-9.802
		c0-5.912,4.047-10.197,10.316-10.197c2.064,0,3.888,0.516,4.841,0.991l-0.794,2.698c-0.833-0.475-2.143-0.912-4.047-0.912
		c-4.404,0-6.785,3.254-6.785,7.261c0,4.445,2.857,7.182,6.666,7.182c1.984,0,3.293-0.516,4.285-0.951L116.226,243.399z"/>
	<path class="st0" d="M119.914,215.941h3.492v11.982h0.079c0.556-0.991,1.429-1.863,2.5-2.458c1.032-0.595,2.262-0.993,3.571-0.993
		c2.579,0,6.706,1.588,6.706,8.214v11.428h-3.492v-11.03c0-3.096-1.151-5.715-4.444-5.715c-2.262,0-4.047,1.587-4.682,3.492
		c-0.199,0.475-0.238,0.991-0.238,1.666v11.586h-3.492V215.941z"/>
	<path class="st0" d="M152.17,244.113l-0.278-2.42h-0.119c-1.071,1.507-3.135,2.856-5.872,2.856c-3.888,0-5.873-2.738-5.873-5.516
		c0-4.642,4.127-7.182,11.547-7.141v-0.398c0-1.587-0.437-4.443-4.365-4.443c-1.786,0-3.651,0.555-5,1.428l-0.793-2.302
		c1.587-1.032,3.888-1.706,6.309-1.706c5.872,0,7.301,4.008,7.301,7.856v7.183c0,1.666,0.079,3.293,0.317,4.602H152.17z
		 M151.654,234.312c-3.809-0.079-8.134,0.595-8.134,4.325c0,2.261,1.508,3.334,3.294,3.334c2.5,0,4.087-1.588,4.642-3.214
		c0.119-0.357,0.199-0.755,0.199-1.111V234.312z"/>
	<path class="st0" d="M164.309,219.392v5.516h5v2.659h-5v10.355c0,2.381,0.674,3.73,2.619,3.73c0.913,0,1.587-0.118,2.023-0.238
		l0.159,2.619c-0.675,0.278-1.746,0.477-3.095,0.477c-1.627,0-2.937-0.516-3.77-1.469c-0.992-1.032-1.349-2.738-1.349-5v-10.475
		h-2.976v-2.659h2.976v-4.603L164.309,219.392z"/>
	<path class="st0" d="M236.716,202.037c1.548,0.953,3.809,1.745,6.19,1.745c3.531,0,5.594-1.865,5.594-4.563
		c0-2.499-1.428-3.927-5.039-5.317c-4.364-1.548-7.063-3.809-7.063-7.578c0-4.167,3.452-7.263,8.65-7.263
		c2.738,0,4.722,0.636,5.912,1.31l-0.952,2.818c-0.873-0.477-2.658-1.27-5.079-1.27c-3.651,0-5.039,2.182-5.039,4.006
		c0,2.501,1.627,3.73,5.317,5.158c4.523,1.747,6.825,3.929,6.825,7.856c0,4.128-3.055,7.699-9.364,7.699
		c-2.579,0-5.396-0.755-6.825-1.706L236.716,202.037z"/>
	<path class="st0" d="M256.236,178.071h3.492v11.982h0.079c0.556-0.991,1.429-1.863,2.5-2.458c1.032-0.595,2.262-0.993,3.571-0.993
		c2.579,0,6.706,1.588,6.706,8.214v11.428h-3.492v-11.03c0-3.096-1.151-5.715-4.444-5.715c-2.262,0-4.047,1.587-4.682,3.492
		c-0.199,0.475-0.238,0.991-0.238,1.666v11.586h-3.492V178.071z"/>
	<path class="st0" d="M295.237,196.483c0,7.102-4.92,10.197-9.563,10.197c-5.198,0-9.206-3.809-9.206-9.88
		c0-6.428,4.206-10.198,9.523-10.198C291.507,186.601,295.237,190.609,295.237,196.483z M280,196.68
		c0,4.207,2.421,7.381,5.833,7.381c3.333,0,5.833-3.135,5.833-7.46c0-3.253-1.627-7.381-5.754-7.381
		C281.786,189.22,280,193.029,280,196.68z"/>
	<path class="st0" d="M300.353,187.038l2.539,9.762c0.555,2.141,1.071,4.126,1.428,6.111h0.119c0.437-1.944,1.072-4.008,1.706-6.072
		l3.135-9.8h2.936l2.976,9.603c0.714,2.3,1.27,4.325,1.706,6.269h0.119c0.317-1.944,0.833-3.969,1.468-6.231l2.738-9.642h3.452
		l-6.19,19.204h-3.174l-2.937-9.165c-0.674-2.143-1.23-4.049-1.706-6.31h-0.079c-0.476,2.302-1.072,4.285-1.746,6.349l-3.095,9.126
		h-3.174l-5.793-19.204H300.353z"/>
	<path class="st0" d="M351.85,201.005c0,1.985,0.04,3.73,0.158,5.237h-3.095l-0.198-3.135h-0.079
		c-0.913,1.548-2.937,3.571-6.349,3.571c-3.016,0-6.626-1.666-6.626-8.413v-11.229h3.492v10.633c0,3.651,1.111,6.111,4.285,6.111
		c2.341,0,3.968-1.625,4.603-3.173c0.198-0.516,0.317-1.152,0.317-1.786v-11.785h3.492V201.005z"/>
	<path class="st0" d="M356.767,202.671c1.032,0.674,2.857,1.389,4.603,1.389c2.539,0,3.73-1.27,3.73-2.856
		c0-1.668-0.992-2.58-3.571-3.533c-3.452-1.229-5.079-3.133-5.079-5.435c0-3.096,2.499-5.635,6.626-5.635
		c1.944,0,3.65,0.557,4.721,1.19l-0.873,2.539c-0.754-0.475-2.143-1.111-3.928-1.111c-2.063,0-3.214,1.19-3.214,2.619
		c0,1.588,1.151,2.302,3.651,3.254c3.333,1.27,5.039,2.936,5.039,5.794c0,3.372-2.619,5.753-7.182,5.753
		c-2.103,0-4.047-0.516-5.396-1.31L356.767,202.671z"/>
	<path class="st0" d="M224.993,224.908l4.206,11.348c0.437,1.27,0.913,2.777,1.23,3.929h0.08c0.357-1.152,0.754-2.619,1.23-4.008
		l3.809-11.269h3.69L234,238.597c-2.499,6.588-4.206,9.961-6.586,12.023c-1.706,1.509-3.413,2.104-4.286,2.263l-0.873-2.937
		c0.873-0.276,2.023-0.833,3.055-1.706c0.952-0.754,2.143-2.103,2.936-3.888c0.159-0.356,0.278-0.634,0.278-0.833
		c0-0.197-0.079-0.475-0.238-0.912l-7.102-17.697H224.993z"/>
	<path class="st0" d="M258.995,234.353c0,7.102-4.92,10.197-9.563,10.197c-5.198,0-9.206-3.809-9.206-9.88
		c0-6.428,4.206-10.198,9.523-10.198C255.265,224.471,258.995,228.48,258.995,234.353z M243.759,234.55
		c0,4.207,2.42,7.381,5.833,7.381c3.333,0,5.833-3.135,5.833-7.46c0-3.253-1.627-7.381-5.753-7.381
		C245.544,227.09,243.759,230.899,243.759,234.55z"/>
	<path class="st0" d="M279.07,238.875c0,1.985,0.04,3.73,0.158,5.237h-3.095l-0.199-3.135h-0.079
		c-0.913,1.548-2.937,3.571-6.349,3.571c-3.016,0-6.626-1.666-6.626-8.413v-11.229h3.492v10.633c0,3.651,1.111,6.111,4.285,6.111
		c2.341,0,3.968-1.625,4.603-3.173c0.198-0.516,0.317-1.152,0.317-1.786v-11.785h3.492V238.875z"/>
	<path class="st0" d="M284.463,230.899c0-2.261-0.04-4.205-0.158-5.991h3.055l0.119,3.77h0.158c0.873-2.58,2.976-4.207,5.317-4.207
		c0.397,0,0.674,0.04,0.992,0.12v3.293c-0.357-0.079-0.714-0.12-1.19-0.12c-2.46,0-4.206,1.865-4.682,4.484
		c-0.08,0.477-0.159,1.032-0.159,1.627v10.237h-3.452V230.899z"/>
	<path class="st0" d="M308.941,219.512c0.04,1.19-0.833,2.143-2.222,2.143c-1.23,0-2.103-0.953-2.103-2.143
		c0-1.231,0.913-2.182,2.182-2.182C308.108,217.33,308.941,218.281,308.941,219.512z M305.052,244.113v-19.204h3.492v19.204H305.052
		z"/>
	<path class="st0" d="M318.145,219.392v5.516h5v2.659h-5v10.355c0,2.381,0.674,3.73,2.619,3.73c0.913,0,1.587-0.118,2.023-0.238
		l0.159,2.619c-0.675,0.278-1.746,0.477-3.095,0.477c-1.627,0-2.937-0.516-3.77-1.469c-0.992-1.032-1.349-2.738-1.349-5v-10.475
		h-2.976v-2.659h2.976v-4.603L318.145,219.392z"/>
	<path class="st0" d="M328.38,235.145c0.079,4.721,3.095,6.666,6.587,6.666c2.5,0,4.008-0.435,5.317-0.991l0.595,2.501
		c-1.23,0.555-3.333,1.19-6.388,1.19c-5.912,0-9.444-3.89-9.444-9.682c0-5.794,3.412-10.357,9.007-10.357
		c6.269,0,7.936,5.516,7.936,9.047c0,0.715-0.079,1.27-0.119,1.627H328.38z M338.617,232.646c0.04-2.222-0.912-5.674-4.841-5.674
		c-3.531,0-5.079,3.253-5.357,5.674H338.617z"/>
	<path class="st0" d="M345.915,230.107c0-1.985-0.04-3.612-0.158-5.199h3.055l0.159,3.096h0.119
		c1.072-1.826,2.857-3.533,6.031-3.533c2.619,0,4.603,1.588,5.436,3.85h0.079c0.595-1.072,1.349-1.905,2.143-2.501
		c1.151-0.872,2.421-1.349,4.246-1.349c2.539,0,6.309,1.668,6.309,8.333v11.308h-3.412v-10.871c0-3.691-1.349-5.912-4.166-5.912
		c-1.984,0-3.531,1.467-4.127,3.173c-0.159,0.475-0.278,1.111-0.278,1.745v11.864h-3.413v-11.507c0-3.055-1.349-5.276-4.008-5.276
		c-2.182,0-3.769,1.745-4.325,3.49c-0.199,0.516-0.278,1.111-0.278,1.706v11.586h-3.413V230.107z"/>
	<path class="st0" d="M378.13,240.541c1.032,0.674,2.857,1.389,4.603,1.389c2.539,0,3.73-1.27,3.73-2.856
		c0-1.668-0.992-2.58-3.571-3.533c-3.452-1.229-5.079-3.133-5.079-5.435c0-3.096,2.5-5.635,6.626-5.635
		c1.945,0,3.651,0.556,4.722,1.19l-0.873,2.539c-0.754-0.475-2.143-1.111-3.929-1.111c-2.063,0-3.214,1.19-3.214,2.619
		c0,1.588,1.151,2.302,3.651,3.254c3.333,1.27,5.039,2.936,5.039,5.794c0,3.372-2.619,5.753-7.182,5.753
		c-2.103,0-4.047-0.516-5.396-1.31L378.13,240.541z"/>
	<path class="st0" d="M450.534,222.693c-1.548,0.555-4.603,1.467-8.214,1.467c-4.047,0-7.38-1.03-9.999-3.531
		c-2.301-2.222-3.729-5.792-3.729-9.959c0.04-7.976,5.515-13.809,14.483-13.809c3.095,0,5.515,0.674,6.666,1.229l-0.833,2.818
		c-1.429-0.634-3.214-1.15-5.912-1.15c-6.508,0-10.753,4.047-10.753,10.753c0,6.785,4.087,10.792,10.317,10.792
		c2.262,0,3.809-0.317,4.603-0.713v-7.976h-5.436v-2.777h8.809V222.693z"/>
	<path class="st0" d="M457.433,214.916c0.08,4.721,3.095,6.666,6.587,6.666c2.5,0,4.008-0.437,5.317-0.991l0.595,2.499
		c-1.23,0.557-3.333,1.19-6.389,1.19c-5.912,0-9.443-3.888-9.443-9.682c0-5.792,3.413-10.355,9.007-10.355
		c6.269,0,7.936,5.516,7.936,9.047c0,0.713-0.079,1.27-0.119,1.627H457.433z M467.671,212.415c0.04-2.222-0.913-5.674-4.841-5.674
		c-3.531,0-5.079,3.254-5.357,5.674H467.671z"/>
	<path class="st0" d="M479.174,199.163v5.516h5v2.657h-5v10.357c0,2.381,0.674,3.73,2.619,3.73c0.913,0,1.587-0.12,2.023-0.238
		l0.159,2.619c-0.675,0.276-1.746,0.475-3.095,0.475c-1.627,0-2.937-0.516-3.77-1.469c-0.992-1.03-1.349-2.737-1.349-5v-10.475
		h-2.976v-2.657h2.976v-4.603L479.174,199.163z"/>
	<path class="st0" d="M506.351,223.883l-0.278-2.421h-0.119c-1.071,1.509-3.135,2.858-5.872,2.858c-3.888,0-5.873-2.738-5.873-5.516
		c0-4.642,4.127-7.182,11.547-7.143v-0.396c0-1.587-0.437-4.445-4.365-4.445c-1.786,0-3.651,0.557-5,1.428l-0.793-2.3
		c1.587-1.032,3.888-1.706,6.309-1.706c5.872,0,7.301,4.006,7.301,7.856v7.182c0,1.666,0.079,3.293,0.317,4.603H506.351z
		 M505.835,214.083c-3.809-0.081-8.134,0.595-8.134,4.323c0,2.263,1.508,3.334,3.294,3.334c2.5,0,4.087-1.587,4.642-3.214
		c0.119-0.357,0.199-0.754,0.199-1.111V214.083z"/>
	<path class="st0" d="M522.456,210.948c0-2.46-0.079-4.445-0.159-6.269h3.134l0.159,3.293h0.079c1.429-2.342,3.69-3.73,6.825-3.73
		c4.642,0,8.134,3.927,8.134,9.76c0,6.905-4.206,10.318-8.729,10.318c-2.539,0-4.761-1.111-5.912-3.017h-0.079v10.436h-3.452
		V210.948z M525.908,216.066c0,0.516,0.079,0.991,0.159,1.428c0.635,2.421,2.738,4.087,5.238,4.087c3.69,0,5.833-3.015,5.833-7.419
		c0-3.85-2.023-7.143-5.714-7.143c-2.38,0-4.603,1.706-5.277,4.325c-0.119,0.437-0.238,0.953-0.238,1.428V216.066z"/>
	<path class="st0" d="M544.632,210.67c0-2.261-0.04-4.205-0.159-5.991h3.055l0.119,3.769h0.159c0.873-2.578,2.976-4.205,5.317-4.205
		c0.397,0,0.674,0.039,0.992,0.118v3.293c-0.357-0.079-0.714-0.118-1.19-0.118c-2.46,0-4.206,1.865-4.682,4.484
		c-0.08,0.475-0.159,1.032-0.159,1.627v10.237h-3.452V210.67z"/>
	<path class="st0" d="M561.255,199.281c0.04,1.19-0.833,2.143-2.222,2.143c-1.23,0-2.103-0.953-2.103-2.143
		c0-1.229,0.913-2.182,2.182-2.182C560.422,197.099,561.255,198.052,561.255,199.281z M557.367,223.883v-19.204h3.492v19.204
		H557.367z"/>
	<path class="st0" d="M579.943,223.168c-0.913,0.477-2.936,1.111-5.515,1.111c-5.793,0-9.563-3.929-9.563-9.8
		c0-5.912,4.047-10.198,10.316-10.198c2.064,0,3.888,0.516,4.841,0.993l-0.794,2.698c-0.833-0.477-2.143-0.912-4.047-0.912
		c-4.404,0-6.785,3.253-6.785,7.261c0,4.443,2.857,7.182,6.666,7.182c1.984,0,3.293-0.516,4.285-0.953L579.943,223.168z"/>
	<path class="st0" d="M585.337,214.916c0.079,4.721,3.095,6.666,6.587,6.666c2.5,0,4.008-0.437,5.317-0.991l0.595,2.499
		c-1.23,0.557-3.333,1.19-6.388,1.19c-5.912,0-9.444-3.888-9.444-9.682c0-5.792,3.412-10.355,9.007-10.355
		c6.269,0,7.936,5.516,7.936,9.047c0,0.713-0.079,1.27-0.119,1.627H585.337z M595.574,212.415c0.04-2.222-0.912-5.674-4.841-5.674
		c-3.531,0-5.079,3.254-5.357,5.674H595.574z"/>
</g>
</svg>
