<?xml version="1.0" encoding="utf-8"?>
<!-- Generator: Adobe Illustrator 20.0.0, SVG Export Plug-In . SVG Version: 6.00 Build 0)  -->
<svg version="1.1" id="Layer_1" xmlns="http://www.w3.org/2000/svg" xmlns:xlink="http://www.w3.org/1999/xlink" x="0px" y="0px"
	 width="1205px" height="200px" viewBox="0 0 1205 200" style="enable-background:new 0 0 1205 200;" xml:space="preserve">
<style type="text/css">
	
</style>
<g id="g1">
	<path d="M369.95,88.893c-1.187-1.189-3.257-1.192-4.449,0c-1.223,1.229-1.222,3.227,0.002,4.453L372,99.842h-24.775
		c-1.734,0-3.145,1.411-3.145,3.144c0,1.735,1.411,3.146,3.145,3.146H372l-6.497,6.494c-0.597,0.595-0.924,1.388-0.923,2.231
		c0.001,0.841,0.33,1.63,0.922,2.218c0.595,0.596,1.385,0.925,2.225,0.925c0.846,0,1.636-0.33,2.222-0.924l11.872-11.868
		c0.586-0.586,0.922-1.396,0.922-2.222c0-0.824-0.336-1.635-0.922-2.227L369.95,88.893z"/>
	<path d="M828.95,88.893c-1.187-1.189-3.257-1.192-4.45,0c-1.223,1.229-1.222,3.227,0.002,4.453L831,99.842h-24.775
		c-1.734,0-3.145,1.411-3.145,3.144c0,1.735,1.411,3.146,3.145,3.146H831l-6.497,6.494c-0.597,0.595-0.924,1.388-0.923,2.231
		c0.001,0.841,0.33,1.63,0.922,2.218c0.595,0.596,1.385,0.925,2.225,0.925c0.846,0,1.636-0.33,2.222-0.924l11.872-11.868
		c0.586-0.586,0.922-1.396,0.922-2.222c0-0.824-0.336-1.635-0.922-2.227L828.95,88.893z"/>
	<path d="M-536.576,173.157c1.189-1.187,1.192-3.257,0-4.449c-1.229-1.223-3.227-1.222-4.453,0.002l-6.495,6.498v-24.775
		c0-1.734-1.411-3.145-3.144-3.145c-1.735,0-3.146,1.411-3.146,3.145v24.775l-6.494-6.497c-0.595-0.597-1.388-0.924-2.231-0.923
		c-0.841,0.001-1.63,0.33-2.218,0.922c-0.596,0.595-0.925,1.385-0.925,2.225c0,0.846,0.33,1.636,0.924,2.222l11.868,11.872
		c0.586,0.586,1.396,0.922,2.222,0.922c0.824,0,1.635-0.336,2.227-0.922L-536.576,173.157z"/>
	<path d="M148.176,92.592c1.552,0.956,3.821,1.75,6.209,1.75c3.542,0,5.611-1.871,5.611-4.577c0-2.506-1.432-3.939-5.054-5.333
		c-4.377-1.553-7.084-3.821-7.084-7.6c0-4.179,3.462-7.284,8.676-7.284c2.746,0,4.736,0.638,5.93,1.314l-0.955,2.826
		c-0.876-0.479-2.666-1.274-5.094-1.274c-3.662,0-5.054,2.188-5.054,4.018c0,2.508,1.632,3.741,5.333,5.174
		c4.537,1.752,6.845,3.941,6.845,7.88c0,4.14-3.064,7.722-9.392,7.722c-2.587,0-5.412-0.758-6.845-1.712L148.176,92.592z"/>
	<path d="M171.853,72.016v5.532h5.015v2.667h-5.015v10.386c0,2.388,0.677,3.741,2.627,3.741c0.915,0,1.592-0.118,2.03-0.238
		l0.159,2.627c-0.676,0.279-1.751,0.479-3.104,0.479c-1.632,0-2.945-0.518-3.781-1.473c-0.995-1.035-1.353-2.747-1.353-5.015V80.215
		h-2.985v-2.667h2.985v-4.617L171.853,72.016z"/>
	<path d="M191.073,96.81l-0.279-2.427h-0.12c-1.074,1.512-3.144,2.865-5.89,2.865c-3.9,0-5.89-2.747-5.89-5.532
		c0-4.656,4.139-7.203,11.581-7.162v-0.399c0-1.591-0.438-4.456-4.378-4.456c-1.791,0-3.661,0.556-5.015,1.432l-0.796-2.309
		c1.592-1.035,3.9-1.712,6.328-1.712c5.89,0,7.323,4.02,7.323,7.88v7.205c0,1.671,0.079,3.303,0.318,4.615H191.073z M190.555,86.98
		c-3.821-0.079-8.159,0.597-8.159,4.338c0,2.268,1.512,3.344,3.303,3.344c2.507,0,4.099-1.593,4.656-3.224
		c0.12-0.359,0.199-0.758,0.199-1.115V86.98z"/>
	<path d="M199.189,83.557c0-2.268-0.04-4.218-0.159-6.009h3.064l0.12,3.782h0.159c0.876-2.588,2.985-4.22,5.333-4.22
		c0.398,0,0.676,0.041,0.995,0.12v3.303c-0.358-0.079-0.716-0.12-1.194-0.12c-2.468,0-4.218,1.871-4.696,4.497
		c-0.08,0.479-0.159,1.035-0.159,1.632V96.81h-3.462V83.557z"/>
	<path d="M216.976,72.016v5.532h5.015v2.667h-5.015v10.386c0,2.388,0.677,3.741,2.627,3.741c0.915,0,1.592-0.118,2.03-0.238
		l0.159,2.627c-0.677,0.279-1.751,0.479-3.104,0.479c-1.632,0-2.945-0.518-3.781-1.473c-0.995-1.035-1.353-2.747-1.353-5.015V80.215
		h-2.985v-2.667h2.985v-4.617L216.976,72.016z"/>
	<path d="M244.233,96.81l-0.279-2.427h-0.12c-1.074,1.512-3.144,2.865-5.89,2.865c-3.9,0-5.89-2.747-5.89-5.532
		c0-4.656,4.139-7.203,11.581-7.162v-0.399c0-1.591-0.438-4.456-4.378-4.456c-1.791,0-3.661,0.556-5.015,1.432l-0.796-2.309
		c1.592-1.035,3.9-1.712,6.328-1.712c5.89,0,7.323,4.02,7.323,7.88v7.205c0,1.671,0.079,3.303,0.318,4.615H244.233z M243.716,86.98
		c-3.821-0.079-8.159,0.597-8.159,4.338c0,2.268,1.512,3.344,3.303,3.344c2.507,0,4.099-1.593,4.656-3.224
		c0.12-0.359,0.199-0.758,0.199-1.115V86.98z"/>
	<path d="M150.178,115.531l3.781,10.826c0.637,1.75,1.154,3.342,1.552,4.933h0.12c0.438-1.591,0.995-3.183,1.632-4.933l3.741-10.826
		h3.662l-7.562,19.262h-3.343l-7.323-19.262H150.178z"/>
	<path d="M171.467,110.119c0.04,1.194-0.835,2.15-2.229,2.15c-1.233,0-2.109-0.956-2.109-2.15c0-1.235,0.915-2.188,2.189-2.188
		C170.632,107.931,171.467,108.885,171.467,110.119z M167.567,134.793v-19.262h3.502v19.262H167.567z"/>
	<path d="M193.116,106.537v23.282c0,1.712,0.04,3.662,0.159,4.974h-3.144l-0.159-3.342h-0.08c-1.074,2.148-3.423,3.78-6.566,3.78
		c-4.656,0-8.238-3.941-8.238-9.791c-0.04-6.406,3.94-10.347,8.636-10.347c2.945,0,4.935,1.394,5.81,2.946h0.079v-11.502H193.116z
		 M189.613,123.372c0-0.438-0.04-1.035-0.159-1.473c-0.518-2.229-2.428-4.059-5.054-4.059c-3.621,0-5.771,3.183-5.771,7.442
		c0,3.9,1.91,7.124,5.691,7.124c2.348,0,4.497-1.551,5.134-4.177c0.119-0.479,0.159-0.956,0.159-1.514V123.372z"/>
	<path d="M200.475,125.799c0.08,4.736,3.104,6.686,6.606,6.686c2.507,0,4.02-0.436,5.333-0.994l0.597,2.508
		c-1.234,0.556-3.343,1.194-6.408,1.194c-5.93,0-9.471-3.902-9.471-9.711c0-5.811,3.423-10.388,9.034-10.388
		c6.288,0,7.959,5.532,7.959,9.074c0,0.717-0.079,1.274-0.119,1.632H200.475z M210.743,123.292c0.04-2.229-0.915-5.691-4.856-5.691
		c-3.542,0-5.094,3.262-5.373,5.691H210.743z"/>
	<path d="M235.494,125.004c0,7.124-4.935,10.227-9.591,10.227c-5.214,0-9.233-3.821-9.233-9.909c0-6.447,4.218-10.229,9.551-10.229
		C231.753,115.093,235.494,119.113,235.494,125.004z M220.211,125.202c0,4.22,2.428,7.403,5.85,7.403
		c3.343,0,5.851-3.144,5.851-7.482c0-3.262-1.632-7.403-5.771-7.403C222.002,117.72,220.211,121.54,220.211,125.202z"/>
	<path d="M261.277,134.078c-0.915,0.477-2.945,1.115-5.532,1.115c-5.81,0-9.591-3.941-9.591-9.831
		c0-5.93,4.059-10.227,10.347-10.227c2.07,0,3.9,0.518,4.856,0.994l-0.796,2.706c-0.836-0.477-2.149-0.915-4.059-0.915
		c-4.418,0-6.805,3.264-6.805,7.283c0,4.458,2.865,7.203,6.686,7.203c1.99,0,3.303-0.518,4.298-0.954L261.277,134.078z"/>
	<path d="M264.976,106.537h3.502v12.018h0.079c0.557-0.994,1.433-1.869,2.507-2.466c1.035-0.597,2.268-0.996,3.582-0.996
		c2.587,0,6.726,1.593,6.726,8.238v11.462h-3.502v-11.062c0-3.105-1.154-5.732-4.457-5.732c-2.269,0-4.059,1.591-4.696,3.503
		c-0.199,0.477-0.239,0.994-0.239,1.671v11.621h-3.502V106.537z"/>
	<path d="M297.328,134.793l-0.279-2.427h-0.12c-1.074,1.512-3.144,2.865-5.89,2.865c-3.9,0-5.89-2.747-5.89-5.532
		c0-4.656,4.139-7.203,11.581-7.162v-0.399c0-1.591-0.438-4.456-4.378-4.456c-1.791,0-3.662,0.556-5.015,1.432l-0.796-2.309
		c1.592-1.035,3.9-1.712,6.328-1.712c5.89,0,7.323,4.02,7.323,7.88v7.205c0,1.671,0.079,3.303,0.318,4.615H297.328z
		 M296.811,124.963c-3.821-0.079-8.159,0.597-8.159,4.338c0,2.268,1.512,3.344,3.303,3.344c2.507,0,4.099-1.593,4.656-3.224
		c0.12-0.359,0.199-0.758,0.199-1.115V124.963z"/>
	<path d="M309.503,109.999v5.532h5.015v2.667h-5.015v10.386c0,2.388,0.677,3.741,2.627,3.741c0.915,0,1.592-0.118,2.03-0.238
		l0.159,2.627c-0.677,0.279-1.751,0.479-3.104,0.479c-1.632,0-2.945-0.518-3.781-1.473c-0.995-1.035-1.353-2.747-1.353-5.015
		v-10.506h-2.985v-2.667h2.985v-4.617L309.503,109.999z"/>
	<path d="M604.032,86.159c1.552,0.956,3.821,1.75,6.209,1.75c3.542,0,5.611-1.871,5.611-4.577c0-2.506-1.432-3.939-5.054-5.333
		c-4.377-1.553-7.084-3.821-7.084-7.6c0-4.179,3.462-7.284,8.676-7.284c2.746,0,4.736,0.638,5.93,1.314l-0.955,2.826
		c-0.876-0.479-2.666-1.274-5.094-1.274c-3.662,0-5.054,2.188-5.054,4.018c0,2.508,1.632,3.741,5.333,5.174
		c4.537,1.752,6.845,3.941,6.845,7.88c0,4.14-3.064,7.722-9.392,7.722c-2.587,0-5.412-0.758-6.845-1.712L604.032,86.159z"/>
	<path d="M623.609,62.121h3.502v12.018h0.079c0.557-0.994,1.433-1.869,2.507-2.466c1.035-0.597,2.268-0.996,3.582-0.996
		c2.587,0,6.726,1.593,6.726,8.238v11.462h-3.502V79.314c0-3.105-1.154-5.732-4.457-5.732c-2.269,0-4.059,1.591-4.696,3.503
		c-0.199,0.477-0.239,0.994-0.239,1.671v11.621h-3.502V62.121z"/>
	<path d="M662.726,80.588c0,7.124-4.935,10.227-9.591,10.227c-5.214,0-9.233-3.821-9.233-9.909c0-6.447,4.218-10.229,9.551-10.229
		C658.985,70.677,662.726,74.697,662.726,80.588z M647.444,80.786c0,4.22,2.428,7.403,5.85,7.403c3.343,0,5.851-3.144,5.851-7.482
		c0-3.262-1.632-7.403-5.771-7.403C649.235,73.303,647.444,77.124,647.444,80.786z"/>
	<path d="M667.858,71.115l2.547,9.791c0.557,2.148,1.074,4.138,1.432,6.129h0.119c0.438-1.95,1.075-4.02,1.712-6.09l3.144-9.83
		h2.945l2.985,9.632c0.716,2.307,1.273,4.338,1.712,6.288h0.119c0.318-1.95,0.836-3.981,1.473-6.249l2.746-9.671h3.462
		l-6.208,19.262h-3.184l-2.945-9.192c-0.677-2.15-1.233-4.061-1.711-6.329h-0.079c-0.478,2.309-1.075,4.297-1.751,6.368
		l-3.104,9.153h-3.184l-5.81-19.262H667.858z"/>
	<path d="M719.508,85.124c0,1.991,0.04,3.741,0.159,5.253h-3.104l-0.199-3.144h-0.079c-0.915,1.553-2.945,3.582-6.368,3.582
		c-3.025,0-6.646-1.671-6.646-8.438V71.115h3.502V81.78c0,3.662,1.114,6.129,4.298,6.129c2.348,0,3.98-1.63,4.617-3.183
		c0.199-0.518,0.318-1.155,0.318-1.791v-11.82h3.502V85.124z"/>
	<path d="M724.44,86.795c1.035,0.676,2.865,1.394,4.616,1.394c2.547,0,3.741-1.274,3.741-2.865c0-1.673-0.995-2.588-3.582-3.543
		c-3.462-1.233-5.094-3.142-5.094-5.451c0-3.105,2.507-5.652,6.646-5.652c1.95,0,3.661,0.558,4.735,1.194l-0.875,2.547
		c-0.756-0.477-2.149-1.115-3.94-1.115c-2.069,0-3.224,1.194-3.224,2.627c0,1.593,1.154,2.309,3.662,3.264
		c3.343,1.274,5.054,2.944,5.054,5.811c0,3.382-2.627,5.771-7.203,5.771c-2.109,0-4.059-0.518-5.412-1.314L724.44,86.795z"/>
	<path d="M606.273,109.098l4.218,11.382c0.438,1.274,0.915,2.785,1.234,3.941h0.08c0.358-1.155,0.756-2.627,1.233-4.02l3.821-11.303
		h3.701l-5.253,13.73c-2.507,6.608-4.218,9.99-6.606,12.059c-1.712,1.514-3.423,2.111-4.298,2.27l-0.875-2.946
		c0.875-0.277,2.029-0.835,3.064-1.712c0.955-0.756,2.149-2.109,2.945-3.9c0.159-0.357,0.279-0.636,0.279-0.835
		c0-0.198-0.079-0.477-0.239-0.915l-7.124-17.75H606.273z"/>
	<path d="M640.377,118.571c0,7.124-4.935,10.227-9.591,10.227c-5.214,0-9.233-3.821-9.233-9.909c0-6.447,4.218-10.229,9.551-10.229
		C636.636,108.66,640.377,112.68,640.377,118.571z M625.095,118.769c0,4.22,2.427,7.403,5.85,7.403c3.343,0,5.85-3.144,5.85-7.482
		c0-3.262-1.632-7.403-5.771-7.403C626.885,111.286,625.095,115.107,625.095,118.769z"/>
	<path d="M660.511,123.107c0,1.991,0.04,3.741,0.159,5.253h-3.104l-0.199-3.144h-0.08c-0.915,1.553-2.945,3.582-6.368,3.582
		c-3.025,0-6.646-1.671-6.646-8.438v-11.262h3.502v10.665c0,3.662,1.114,6.129,4.298,6.129c2.348,0,3.98-1.63,4.617-3.183
		c0.199-0.518,0.318-1.155,0.318-1.791v-11.82h3.502V123.107z"/>
	<path d="M665.92,115.107c0-2.268-0.04-4.218-0.159-6.009h3.064l0.12,3.782h0.159c0.876-2.588,2.985-4.22,5.333-4.22
		c0.398,0,0.677,0.041,0.995,0.12v3.303c-0.358-0.079-0.716-0.12-1.194-0.12c-2.468,0-4.218,1.871-4.696,4.497
		c-0.08,0.479-0.159,1.035-0.159,1.632v10.268h-3.462V115.107z"/>
	<path d="M690.471,103.686c0.04,1.194-0.835,2.15-2.229,2.15c-1.233,0-2.109-0.956-2.109-2.15c0-1.235,0.915-2.188,2.189-2.188
		C689.636,101.497,690.471,102.451,690.471,103.686z M686.571,128.36v-19.262h3.502v19.262H686.571z"/>
	<path d="M699.703,103.566v5.532h5.015v2.667h-5.015v10.386c0,2.388,0.677,3.741,2.627,3.741c0.915,0,1.592-0.118,2.029-0.238
		l0.159,2.627c-0.677,0.279-1.751,0.479-3.104,0.479c-1.632,0-2.945-0.518-3.781-1.473c-0.995-1.035-1.353-2.747-1.353-5.015
		v-10.506h-2.985v-2.667h2.985v-4.617L699.703,103.566z"/>
	<path d="M709.969,119.366c0.079,4.736,3.104,6.686,6.607,6.686c2.507,0,4.02-0.436,5.333-0.994l0.597,2.508
		c-1.234,0.556-3.343,1.194-6.407,1.194c-5.93,0-9.472-3.902-9.472-9.711c0-5.811,3.422-10.388,9.034-10.388
		c6.288,0,7.959,5.532,7.959,9.074c0,0.717-0.079,1.274-0.119,1.632H709.969z M720.236,116.859c0.04-2.229-0.915-5.691-4.855-5.691
		c-3.542,0-5.094,3.262-5.373,5.691H720.236z"/>
	<path d="M727.556,114.312c0-1.991-0.04-3.623-0.159-5.214h3.064l0.159,3.105h0.119c1.075-1.832,2.865-3.543,6.049-3.543
		c2.627,0,4.617,1.593,5.452,3.861h0.079c0.597-1.076,1.353-1.911,2.149-2.508c1.154-0.874,2.428-1.353,4.259-1.353
		c2.547,0,6.327,1.673,6.327,8.358v11.342h-3.422v-10.904c0-3.702-1.353-5.93-4.179-5.93c-1.99,0-3.542,1.471-4.139,3.183
		c-0.159,0.477-0.279,1.115-0.279,1.75v11.9h-3.423v-11.541c0-3.065-1.353-5.292-4.02-5.292c-2.189,0-3.78,1.75-4.338,3.501
		c-0.199,0.518-0.279,1.115-0.279,1.712v11.621h-3.423V114.312z"/>
	<path d="M759.867,124.778c1.035,0.676,2.865,1.394,4.616,1.394c2.547,0,3.741-1.274,3.741-2.865c0-1.673-0.995-2.588-3.582-3.543
		c-3.462-1.233-5.094-3.142-5.094-5.451c0-3.105,2.507-5.652,6.646-5.652c1.95,0,3.662,0.558,4.736,1.194l-0.875,2.547
		c-0.756-0.477-2.149-1.115-3.94-1.115c-2.069,0-3.224,1.194-3.224,2.627c0,1.593,1.154,2.309,3.662,3.264
		c3.343,1.274,5.054,2.944,5.054,5.811c0,3.383-2.627,5.771-7.203,5.771c-2.109,0-4.059-0.518-5.412-1.314L759.867,124.778z"/>
	<path d="M1045.631,106.387c0,0.197-0.118,0.372-0.304,0.436c-1.628,0.56-4.536,1.365-7.934,1.365
		c-4.059,0-7.402-1.034-10.029-3.541c-2.308-2.229-3.741-5.81-3.741-9.989c0.04-7.999,5.532-13.85,14.526-13.85
		c2.804,0,5.055,0.552,6.316,1.069c0.215,0.088,0.321,0.331,0.255,0.554l-0.574,1.94c-0.078,0.265-0.367,0.397-0.623,0.295
		c-1.353-0.541-3.039-0.953-5.454-0.953c-6.527,0-10.785,4.059-10.785,10.785c0,6.806,4.099,10.825,10.348,10.825
		c2.032,0,3.489-0.256,4.343-0.595c0.171-0.068,0.273-0.241,0.273-0.425v-7.234c0-0.255-0.207-0.463-0.463-0.463h-4.527
		c-0.255,0-0.463-0.207-0.463-0.463v-1.86c0-0.255,0.207-0.463,0.463-0.463h7.91c0.255,0,0.463,0.207,0.463,0.463V106.387z"/>
	<path d="M1053.039,98.915c-0.265,0-0.485,0.228-0.468,0.493c0.275,4.378,3.209,6.193,6.587,6.193c2.205,0,3.641-0.338,4.848-0.799
		c0.259-0.099,0.544,0.056,0.609,0.326l0.382,1.606c0.052,0.219-0.058,0.448-0.266,0.533c-1.267,0.515-3.264,1.041-6.051,1.041
		c-5.93,0-9.471-3.901-9.471-9.711s3.423-10.387,9.034-10.387c6.288,0,7.959,5.532,7.959,9.074c0,0.486-0.036,0.899-0.073,1.226
		c-0.026,0.234-0.224,0.406-0.46,0.406H1053.039z M1062.35,96.408c0.258,0,0.475-0.211,0.463-0.469
		c-0.097-2.214-1.176-5.222-4.849-5.222c-3.289,0-4.862,2.814-5.293,5.16c-0.051,0.278,0.175,0.531,0.458,0.531H1062.35z"/>
	<path d="M1074.357,83.718v4.467c0,0.255,0.207,0.463,0.463,0.463h4.089c0.255,0,0.463,0.207,0.463,0.463v1.741
		c0,0.255-0.207,0.463-0.463,0.463h-4.089c-0.255,0-0.463,0.207-0.463,0.463v9.924c0,2.388,0.677,3.741,2.627,3.741
		c0.615,0,1.123-0.054,1.522-0.125c0.274-0.049,0.523,0.148,0.54,0.426l0.106,1.741c0.012,0.206-0.107,0.402-0.303,0.465
		c-0.675,0.215-1.626,0.36-2.78,0.36c-1.632,0-2.945-0.518-3.781-1.473c-0.995-1.034-1.353-2.746-1.353-5.015V91.776
		c0-0.255-0.207-0.463-0.463-0.463h-2.06c-0.255,0-0.463-0.207-0.463-0.463V89.11c0-0.255,0.207-0.463,0.463-0.463h2.06
		c0.255,0,0.463-0.207,0.463-0.463v-3.799c0-0.209,0.141-0.393,0.343-0.447l2.497-0.668
		C1074.069,83.193,1074.357,83.414,1074.357,83.718z"/>
	<path d="M1102.027,107.909c-0.235,0-0.433-0.176-0.46-0.41l-0.232-2.018h-0.12c-1.074,1.513-3.144,2.866-5.89,2.866
		c-3.9,0-5.89-2.747-5.89-5.532c0-4.656,4.139-7.203,11.581-7.163v-0.398c0-1.591-0.438-4.457-4.378-4.457
		c-1.585,0-3.233,0.437-4.528,1.144c-0.257,0.14-0.575,0.03-0.671-0.246l-0.489-1.417c-0.071-0.207,0.005-0.441,0.194-0.552
		c1.573-0.924,3.74-1.516,6.011-1.516c5.89,0,7.323,4.019,7.323,7.88v7.204c0,1.453,0.06,2.876,0.233,4.086
		c0.04,0.281-0.171,0.53-0.455,0.53H1102.027z M1101.097,98.539c0-0.254-0.204-0.464-0.458-0.465
		c-3.701-0.016-7.701,0.752-7.701,4.343c0,2.269,1.512,3.344,3.303,3.344c2.507,0,4.099-1.592,4.656-3.224
		c0.12-0.359,0.199-0.757,0.199-1.115V98.539z"/>
	<path d="M1117.767,94.936c0-2.254-0.066-4.109-0.138-5.809c-0.011-0.263,0.199-0.48,0.462-0.48h2.22c0.247,0,0.45,0.194,0.462,0.44
		l0.138,2.863h0.079c1.433-2.348,3.701-3.741,6.845-3.741c4.656,0,8.158,3.94,8.158,9.79c0,6.925-4.218,10.348-8.755,10.348
		c-2.547,0-4.776-1.115-5.93-3.025h-0.08v10.004c0,0.255-0.207,0.463-0.463,0.463h-2.537c-0.255,0-0.463-0.207-0.463-0.463V94.936z
		 M1121.23,100.069c0,0.517,0.08,0.994,0.159,1.432c0.637,2.428,2.746,4.099,5.253,4.099c3.701,0,5.85-3.024,5.85-7.442
		c0-3.86-2.03-7.164-5.731-7.164c-2.388,0-4.616,1.712-5.293,4.338c-0.12,0.438-0.239,0.956-0.239,1.432V100.069z"/>
	<path d="M1140.01,94.657c0-2.065-0.033-3.867-0.129-5.525c-0.015-0.265,0.194-0.484,0.46-0.484h2.126
		c0.25,0,0.454,0.198,0.462,0.448l0.105,3.333h0.159c0.876-2.587,2.985-4.219,5.333-4.219c0.398,0,0.677,0.04,0.995,0.119v3.303
		c-0.358-0.079-0.716-0.119-1.194-0.119c-2.468,0-4.219,1.871-4.696,4.497c-0.08,0.478-0.159,1.035-0.159,1.632v9.805
		c0,0.255-0.207,0.463-0.463,0.463h-2.537c-0.255,0-0.463-0.207-0.463-0.463V94.657z"/>
	<path d="M1156.683,83.235c0.04,1.194-0.835,2.15-2.229,2.15c-1.234,0-2.109-0.956-2.109-2.15c0-1.234,0.915-2.188,2.189-2.188
		C1155.848,81.046,1156.683,82.001,1156.683,83.235z M1152.783,107.447V89.11c0-0.255,0.207-0.463,0.463-0.463h2.577
		c0.255,0,0.463,0.207,0.463,0.463v18.337c0,0.255-0.207,0.463-0.463,0.463h-2.577
		C1152.99,107.909,1152.783,107.702,1152.783,107.447z"/>
	<path d="M1175.344,106.831c0.05,0.22-0.065,0.44-0.272,0.53c-1.029,0.446-2.884,0.947-5.177,0.947c-5.81,0-9.591-3.941-9.591-9.83
		c0-5.93,4.059-10.228,10.347-10.228c1.817,0,3.449,0.399,4.468,0.82c0.222,0.092,0.342,0.331,0.274,0.562l-0.527,1.79
		c-0.079,0.268-0.37,0.406-0.625,0.292c-0.831-0.376-2.005-0.677-3.591-0.677c-4.418,0-6.805,3.263-6.805,7.283
		c0,4.457,2.865,7.203,6.686,7.203c1.676,0,2.872-0.367,3.802-0.744c0.263-0.107,0.555,0.051,0.618,0.327L1175.344,106.831z"/>
	<path d="M1181.324,98.915c-0.265,0-0.485,0.228-0.468,0.493c0.275,4.378,3.209,6.193,6.587,6.193c2.205,0,3.641-0.338,4.848-0.799
		c0.259-0.099,0.544,0.056,0.609,0.326l0.382,1.606c0.052,0.219-0.057,0.448-0.266,0.533c-1.267,0.515-3.264,1.041-6.05,1.041
		c-5.93,0-9.472-3.901-9.472-9.711s3.422-10.387,9.034-10.387c6.288,0,7.959,5.532,7.959,9.074c0,0.486-0.037,0.899-0.073,1.226
		c-0.026,0.234-0.224,0.406-0.46,0.406H1181.324z M1190.634,96.408c0.258,0,0.475-0.211,0.463-0.469
		c-0.097-2.214-1.176-5.222-4.849-5.222c-3.289,0-4.862,2.814-5.293,5.16c-0.051,0.278,0.175,0.531,0.458,0.531H1190.634z"/>
</g>
<g id="g2">
	<path d="M980.861,158.14c-2.772,0-5.509-0.718-7.984-2.126l-92.325-52.529c-3.761-2.139-6.462-5.615-7.609-9.787
		c-1.146-4.172-0.599-8.54,1.54-12.3l14.449-25.395c4.416-7.762,14.324-10.484,22.087-6.068l92.325,52.529
		c7.762,4.417,10.484,14.325,6.068,22.087l-14.449,25.395c-2.139,3.761-5.615,6.462-9.787,7.609
		C983.751,157.946,982.301,158.14,980.861,158.14z M974.259,153.584c6.424,3.654,14.621,1.401,18.275-5.021l14.449-25.395
		c3.654-6.423,1.402-14.621-5.02-18.275l-92.325-52.529c-6.423-3.654-14.621-1.403-18.275,5.02L876.914,82.78
		c-1.77,3.111-2.223,6.725-1.275,10.177c0.948,3.452,3.184,6.328,6.295,8.098L974.259,153.584z"/>
	<g>
		<path d="M24.057,117.453c-2.737,0-5.318-1.074-7.269-3.025c-1.951-1.951-3.025-4.532-3.025-7.269V68.508
			c0-2.737,1.074-5.318,3.025-7.269c1.951-1.951,4.532-3.025,7.269-3.025h47.78c2.737,0,5.318,1.074,7.269,3.025
			s3.025,4.532,3.025,7.269v27.901c-3.518-3.297-8.099-5.11-12.974-5.11c-5.085,0-9.853,1.967-13.426,5.54
			c-3.572,3.572-5.54,8.34-5.54,13.425c0,2.509,0.481,4.94,1.395,7.189H24.057z M152.326,166.581L84.769,99.024V68.508
			c0-3.441-1.349-6.685-3.797-9.134c-2.449-2.449-5.693-3.797-9.134-3.797h-47.78c-3.441,0-6.685,1.349-9.134,3.797
			c-2.449,2.449-3.797,5.693-3.797,9.134v38.651c0,3.441,1.349,6.685,3.797,9.134c2.449,2.449,5.693,3.797,9.134,3.797h28.854
			c0.783,1.295,1.726,2.504,2.821,3.599l42.917,42.917l3.743,0.013l-44.794-44.794c-3.074-3.074-4.767-7.18-4.767-11.561
			s1.693-8.487,4.767-11.561c3.074-3.074,7.18-4.767,11.561-4.767c4.381,0,8.486,1.693,11.561,4.767l67.841,67.841L152.326,166.581z
			"/>
	</g>
	<g>
		<path d="M907.52,75.071c-1.138,1.415-3.129,2.094-5.198,1.773c-0.41-0.064-0.814-0.168-1.208-0.306l-1.133,1.992
			c-0.343,0.603-1.109,0.813-1.712,0.47c-0.602-0.343-0.813-1.109-0.47-1.712l1.111-1.953c-1.495-1.149-2.582-2.791-2.795-4.486
			c-0.086-0.688,0.402-1.316,1.09-1.402c0.688-0.087,1.315,0.401,1.402,1.089c0.218,1.732,2.136,3.52,4.102,3.826
			c1.166,0.182,2.286-0.158,2.855-0.865c0.578-0.72,0.416-1.603,0.178-2.216c-0.297-0.763-1.126-1.74-1.928-2.685
			c-1.056-1.243-2.147-2.528-2.54-3.866c-0.366-1.24-0.101-2.561,0.727-3.623c0.933-1.196,2.455-1.87,4.07-1.805
			c0.615,0.025,1.21,0.143,1.772,0.334l0.871-1.531c0.343-0.603,1.109-0.813,1.712-0.47c0.603,0.343,0.814,1.11,0.471,1.712
			l-0.88,1.547c1.117,0.984,1.869,2.339,1.992,3.837c0.056,0.691-0.457,1.298-1.148,1.355c-0.692,0.057-1.298-0.457-1.355-1.148
			c-0.134-1.622-1.754-3.054-3.536-3.126c-0.808-0.033-1.55,0.281-1.987,0.84c-0.19,0.244-0.482,0.747-0.298,1.369
			c0.243,0.828,1.159,1.906,2.045,2.949c0.935,1.103,1.904,2.243,2.355,3.4C908.748,72.086,908.543,73.799,907.52,75.071z"/>
	</g>
	<g>
		<g>
			<path d="M68.64,131.31l-9.861-9.861c-2.869-2.869-4.449-6.698-4.449-10.781s1.58-7.913,4.449-10.781
				c2.869-2.869,6.698-4.449,10.781-4.449s7.913,1.58,10.781,4.449l9.861,9.861L68.64,131.31z M69.561,98.074
				c-3.379,0-6.546,1.306-8.917,3.677c-2.371,2.371-3.677,5.538-3.677,8.917s1.306,6.546,3.677,8.917l7.996,7.996l17.833-17.833
				l-7.996-7.996C76.107,99.38,72.94,98.074,69.561,98.074z"/>
		</g>
	</g>
	<g>
		<g>
			<path d="M68.64,131.31l-1.508-1.508l0.247-0.767c1.558-4.84,4.183-9.128,7.802-12.747c3.619-3.619,7.908-6.244,12.747-7.802
				l0.767-0.247l1.508,1.508L68.64,131.31z M82.163,114.058c-1.835,1.156-3.544,2.523-5.116,4.095
				c-1.572,1.572-2.939,3.281-4.095,5.116L82.163,114.058z"/>
		</g>
	</g>
	<g>
		<g>
			<g>
				<path d="M102.293,124.281c-0.315,0-0.619,0.113-0.849,0.343l-17.928,17.928c-0.489,0.489-0.45,1.321,0.087,1.858
					c0.285,0.285,0.653,0.43,1.009,0.43c0.315,0,0.619-0.113,0.849-0.343l17.928-17.928c0.489-0.489,0.45-1.321-0.087-1.858
					C103.017,124.426,102.649,124.281,102.293,124.281L102.293,124.281z"/>
			</g>
		</g>
	</g>
	<g>
		<g>
			<g>
				<path d="M106.063,128.05c-0.315,0-0.619,0.113-0.849,0.343l-17.928,17.928c-0.489,0.489-0.45,1.321,0.087,1.858
					c0.285,0.285,0.653,0.43,1.009,0.43c0.315,0,0.619-0.113,0.849-0.343l17.928-17.928c0.489-0.489,0.45-1.321-0.087-1.858
					C106.787,128.195,106.419,128.05,106.063,128.05L106.063,128.05z"/>
			</g>
		</g>
	</g>
	<g>
		<g>
			<g>
				<path d="M109.832,131.82c-0.315,0-0.619,0.113-0.849,0.343L91.056,150.09c-0.489,0.489-0.45,1.321,0.087,1.858
					c0.285,0.285,0.653,0.43,1.009,0.43c0.315,0,0.619-0.113,0.849-0.343l17.928-17.928c0.489-0.489,0.45-1.321-0.087-1.858
					C110.556,131.965,110.188,131.82,109.832,131.82L109.832,131.82z"/>
			</g>
		</g>
	</g>
	<g>
		<g>
			<path d="M37.266,105.031c-0.892,0-1.783-0.235-2.596-0.704c-1.625-0.938-2.596-2.619-2.596-4.496V75.835
				c0-1.877,0.97-3.557,2.596-4.496c1.625-0.938,3.566-0.938,5.191,0l20.782,11.998c1.625,0.938,2.596,2.619,2.596,4.496
				c0,1.877-0.97,3.557-2.596,4.496l-20.782,11.998C39.049,104.797,38.158,105.031,37.266,105.031z M37.266,73.277
				c-0.439,0-0.877,0.115-1.277,0.346c-0.8,0.462-1.277,1.289-1.277,2.212v23.997c0,0.923,0.477,1.75,1.277,2.212
				c0.8,0.462,1.754,0.462,2.554,0l20.782-11.998c0.8-0.462,1.277-1.289,1.277-2.212c0-0.923-0.477-1.75-1.277-2.212L38.543,73.623
				C38.143,73.392,37.705,73.277,37.266,73.277z"/>
		</g>
	</g>
	<g>
		<g>
			<path d="M83.45,99.571"/>
		</g>
	</g>
	<g>
		<rect x="456.167" y="80.331" class="st0" width="2.796" height="26.895"/>
	</g>
	<g>
		<path class="st0" d="M467.767,108.624h-20.402c-0.772,0-1.398-0.626-1.398-1.398s0.626-1.398,1.398-1.398h20.402
			c0.772,0,1.398,0.626,1.398,1.398S468.539,108.624,467.767,108.624z"/>
	</g>
	<g>
		<path class="st0" d="M443.467,153.927h-7.3v-35.725h7.3V153.927z M438.963,151.131h1.708v-30.133h-1.708V151.131z"/>
	</g>
	<g>
		<path class="st0" d="M455.243,154.27l-9.037-34.563l7.063-1.847l9.037,34.563L455.243,154.27z M449.618,121.704l7.623,29.154
			l1.653-0.432l-7.623-29.154L449.618,121.704z"/>
	</g>
	<g>
		<g>
			<path class="st0" d="M497.717,155.828c-0.048,0-0.097-0.002-0.146-0.007c-0.768-0.08-1.326-0.767-1.246-1.535l5.538-53.394
				c0.08-0.768,0.766-1.325,1.535-1.246c0.768,0.08,1.326,0.767,1.246,1.535l-5.538,53.394
				C499.032,155.293,498.425,155.828,497.717,155.828z"/>
		</g>
		<g>
			<path class="st0" d="M545.164,155.828c-0.713,0-1.322-0.543-1.39-1.268l-4.983-53.394c-0.071-0.769,0.493-1.45,1.262-1.522
				c0.762-0.074,1.45,0.493,1.522,1.262l4.983,53.394c0.071,0.769-0.493,1.45-1.262,1.522
				C545.251,155.826,545.207,155.828,545.164,155.828z"/>
		</g>
	</g>
	<g>
		<path d="M998.992,112.115c-0.234,0-0.472-0.059-0.69-0.183l-29.377-16.714c-0.671-0.382-0.906-1.235-0.524-1.906
			c0.382-0.671,1.236-0.906,1.906-0.524l29.377,16.714c0.671,0.382,0.906,1.235,0.524,1.906
			C999.951,111.861,999.478,112.115,998.992,112.115z"/>
	</g>
	<g>
		<path d="M977.425,150.02c-0.234,0-0.472-0.059-0.69-0.183l-16.32-9.286c-0.671-0.382-0.906-1.235-0.524-1.906
			c0.382-0.671,1.236-0.906,1.906-0.524l16.32,9.286c0.671,0.382,0.906,1.235,0.524,1.906
			C978.384,149.766,977.912,150.02,977.425,150.02z"/>
	</g>
	<g>
		<path d="M899.516,105.693c-0.234,0-0.472-0.059-0.69-0.183l-16.32-9.286c-0.671-0.382-0.906-1.235-0.524-1.906
			c0.382-0.671,1.236-0.905,1.906-0.524l16.32,9.286c0.671,0.382,0.906,1.235,0.524,1.906
			C900.475,105.439,900.002,105.693,899.516,105.693z"/>
	</g>
	<g>
		<path d="M995.753,117.808c-0.234,0-0.472-0.059-0.69-0.183l-29.377-16.714c-0.671-0.382-0.906-1.235-0.524-1.906
			c0.382-0.671,1.236-0.905,1.906-0.524l29.377,16.714c0.671,0.382,0.906,1.235,0.524,1.906
			C996.712,117.554,996.239,117.808,995.753,117.808z"/>
	</g>
	<g>
		<path d="M986.606,139.581c-0.234,0-0.472-0.059-0.69-0.183l-97.741-55.61c-0.671-0.382-0.906-1.235-0.524-1.906
			c0.382-0.671,1.236-0.905,1.906-0.524l97.741,55.61c0.671,0.382,0.906,1.235,0.524,1.906
			C987.564,139.326,987.092,139.581,986.606,139.581z"/>
	</g>
	<g>
		<path d="M949.625,124.98l0.416-0.731c0.06-0.105,0.15-0.154,0.284-0.078c0.134,0.076,0.138,0.179,0.078,0.284l-0.519,0.912
			c-0.074,0.131-0.19,0.132-0.284,0.078l-1.427-0.812c-0.094-0.053-0.152-0.153-0.077-0.284c0.074-0.13,0.189-0.132,0.284-0.078
			l0.532,0.303l1.191-2.093l-0.532-0.303c-0.094-0.053-0.152-0.153-0.077-0.284c0.074-0.13,0.189-0.132,0.284-0.078l0.895,0.509
			l-1.397,2.455L949.625,124.98z"/>
		<path d="M951.167,125.858l1.246,0.709c0.094,0.053,0.152,0.154,0.078,0.284c-0.074,0.131-0.19,0.132-0.284,0.078l-1.608-0.915
			l0.672-1.18c0.155-0.272,0.371-0.331,0.642-0.177l1.018,0.579l0.492-0.866l-1.246-0.709c-0.094-0.053-0.152-0.153-0.077-0.284
			c0.074-0.13,0.19-0.132,0.284-0.078l1.203,0.684c0.119,0.068,0.193,0.133,0.236,0.268c0.048,0.152,0.003,0.256-0.071,0.386
			l-0.422,0.742c-0.074,0.131-0.141,0.222-0.295,0.258c-0.138,0.031-0.232,0.002-0.351-0.066l-1.022-0.581L951.167,125.858z"/>
		<path d="M954.784,125.145c-0.094-0.053-0.152-0.153-0.077-0.284c0.074-0.13,0.189-0.132,0.284-0.078l1.246,0.709
			c0.207,0.118,0.273,0.362,0.156,0.568l-0.395,0.695c-0.082,0.145-0.171,0.233-0.341,0.271c0.055,0.166,0.024,0.287-0.059,0.432
			l-0.395,0.695c-0.117,0.206-0.362,0.273-0.568,0.156l-1.246-0.709c-0.094-0.053-0.152-0.153-0.077-0.284
			c0.074-0.13,0.189-0.132,0.284-0.078l1.246,0.709l0.342-0.601c0.115-0.203,0.07-0.309-0.031-0.368l-0.71-0.404
			c-0.094-0.053-0.152-0.154-0.078-0.284c0.074-0.131,0.19-0.132,0.284-0.078l0.71,0.404c0.102,0.058,0.216,0.042,0.332-0.161
			l0.342-0.601L954.784,125.145z"/>
		<path d="M958.057,128.105c0.148,0.084,0.184,0.182,0.091,0.344c-0.093,0.163-0.194,0.182-0.343,0.097l-0.847-0.482
			c-0.148-0.084-0.185-0.182-0.092-0.344s0.195-0.182,0.343-0.097L958.057,128.105z"/>
		<path d="M960.054,130.914l0.416-0.732c0.06-0.105,0.15-0.154,0.284-0.078c0.134,0.076,0.138,0.179,0.078,0.284l-0.519,0.913
			c-0.074,0.13-0.19,0.132-0.284,0.078l-1.427-0.812c-0.094-0.054-0.152-0.154-0.077-0.284c0.074-0.131,0.189-0.132,0.283-0.078
			l0.532,0.303l1.191-2.093l-0.532-0.303c-0.094-0.054-0.152-0.154-0.077-0.284c0.074-0.13,0.189-0.132,0.284-0.078l0.895,0.509
			l-1.397,2.456L960.054,130.914z"/>
		<path d="M961.596,131.791l1.246,0.709c0.094,0.053,0.152,0.154,0.078,0.284c-0.074,0.131-0.19,0.132-0.284,0.078l-1.608-0.915
			l0.672-1.18c0.155-0.272,0.37-0.331,0.642-0.177l1.018,0.579l0.492-0.866l-1.246-0.709c-0.094-0.053-0.152-0.153-0.077-0.283
			c0.074-0.131,0.189-0.132,0.283-0.078l1.202,0.684c0.12,0.068,0.192,0.133,0.236,0.268c0.048,0.152,0.003,0.256-0.071,0.386
			l-0.422,0.742c-0.074,0.131-0.141,0.222-0.296,0.258c-0.138,0.031-0.232,0.003-0.351-0.066l-1.021-0.581L961.596,131.791z"/>
		<path d="M965.213,131.078c-0.094-0.053-0.152-0.153-0.077-0.283c0.074-0.131,0.189-0.132,0.284-0.078l1.246,0.709
			c0.207,0.118,0.273,0.362,0.156,0.568l-0.395,0.695c-0.082,0.145-0.171,0.233-0.341,0.271c0.055,0.166,0.024,0.287-0.059,0.432
			l-0.396,0.695c-0.117,0.206-0.362,0.273-0.568,0.156l-1.246-0.709c-0.094-0.053-0.152-0.153-0.077-0.284
			c0.074-0.13,0.189-0.132,0.284-0.078l1.246,0.709l0.342-0.601c0.115-0.203,0.07-0.309-0.031-0.368l-0.709-0.404
			c-0.094-0.053-0.152-0.154-0.078-0.284c0.074-0.131,0.19-0.132,0.284-0.078l0.709,0.404c0.102,0.058,0.216,0.042,0.332-0.161
			l0.342-0.601L965.213,131.078z"/>
		<path d="M968.217,134.341l0.596-1.047c0.051-0.091,0.146-0.156,0.284-0.078c0.137,0.078,0.13,0.193,0.078,0.284l-0.596,1.047
			c0.094,0.054,0.152,0.154,0.078,0.284c-0.074,0.131-0.19,0.132-0.284,0.078l-0.42,0.739c-0.066,0.116-0.154,0.152-0.284,0.078
			c-0.13-0.074-0.144-0.168-0.078-0.284l0.42-0.739l-1.065-0.606l0.977-1.716c0.051-0.091,0.146-0.157,0.284-0.078
			c0.137,0.078,0.13,0.194,0.078,0.284l-0.771,1.355L968.217,134.341z"/>
		<path d="M970.475,135.218l0.666,0.379c0.116,0.066,0.193,0.133,0.233,0.266c0.048,0.152,0.009,0.245-0.063,0.372l-0.441,0.775
			c-0.064,0.112-0.12,0.186-0.248,0.233c-0.152,0.057-0.255,0.018-0.385-0.056l-0.804-0.457c-0.094-0.054-0.134-0.11-0.202-0.201
			l-0.102-0.14c-0.074-0.1-0.163-0.194-0.091-0.321c0.054-0.094,0.183-0.136,0.277-0.082c0.043,0.025,0.07,0.054,0.099,0.095
			l0.082,0.109c0.039,0.051,0.093,0.149,0.151,0.182l0.836,0.476l0.492-0.866l-1.068-0.608l0.905-1.59l1.249,0.711
			c0.094,0.053,0.152,0.154,0.078,0.284c-0.074,0.13-0.19,0.132-0.284,0.078l-0.887-0.505L970.475,135.218z"/>
		<path d="M972.548,136.805l1.21,0.688c0.181,0.103,0.174,0.2,0.08,0.367l-0.461,0.811c-0.097,0.17-0.202,0.187-0.365,0.094
			l-1.318-0.75c-0.171-0.097-0.2-0.196-0.105-0.362l1.37-2.408c0.047-0.083,0.132-0.165,0.258-0.092l0.218,0.124
			c0.094,0.053,0.121,0.183,0.067,0.278c-0.062,0.109-0.179,0.138-0.284,0.078L972.548,136.805z M972.342,137.167l-0.317,0.557
			l1.065,0.606l0.317-0.558L972.342,137.167z"/>
		<path d="M975.823,137.115c-0.045,0.08-0.168,0.144-0.284,0.078c-0.116-0.066-0.123-0.204-0.078-0.284l0.103-0.181
			c0.045-0.08,0.168-0.144,0.284-0.078l1.608,0.915l-0.597,1.05c-0.072,0.126-0.077,0.143-0.227,0.172l-0.756,0.15
			c-0.142,0.03-0.153,0.033-0.226,0.159l-0.4,0.703c-0.066,0.116-0.154,0.152-0.284,0.078c-0.131-0.074-0.144-0.168-0.078-0.284
			l0.496-0.873c0.068-0.12,0.078-0.128,0.214-0.157l0.744-0.147c0.18-0.037,0.17-0.038,0.261-0.197l0.284-0.5L975.823,137.115z"/>
		<path d="M978.915,139.972c0.148,0.085,0.184,0.182,0.091,0.344c-0.093,0.163-0.194,0.182-0.343,0.097l-0.848-0.482
			c-0.148-0.085-0.184-0.182-0.091-0.344c0.093-0.163,0.194-0.182,0.343-0.097L978.915,139.972z"/>
		<path d="M980.911,142.781l0.416-0.731c0.06-0.105,0.15-0.154,0.284-0.078c0.134,0.076,0.138,0.179,0.079,0.284l-0.519,0.912
			c-0.074,0.131-0.191,0.132-0.285,0.078l-1.427-0.812c-0.094-0.053-0.152-0.153-0.078-0.284c0.074-0.13,0.19-0.132,0.284-0.078
			l0.532,0.303l1.191-2.093l-0.532-0.303c-0.094-0.053-0.152-0.153-0.078-0.284c0.074-0.13,0.19-0.132,0.284-0.078l0.895,0.509
			l-1.397,2.455L980.911,142.781z"/>
		<path d="M982.454,143.659l1.246,0.709c0.094,0.053,0.152,0.154,0.078,0.284c-0.074,0.131-0.19,0.132-0.284,0.078l-1.608-0.915
			l0.672-1.18c0.155-0.272,0.37-0.331,0.642-0.177l1.018,0.579l0.492-0.866l-1.246-0.709c-0.094-0.053-0.152-0.153-0.077-0.284
			c0.074-0.13,0.189-0.132,0.283-0.078l1.202,0.684c0.12,0.068,0.192,0.133,0.236,0.268c0.048,0.152,0.003,0.256-0.071,0.386
			l-0.422,0.742c-0.074,0.131-0.141,0.222-0.296,0.258c-0.138,0.031-0.231,0.003-0.351-0.066l-1.021-0.581L982.454,143.659z"/>
	</g>
	<path class="st0" d="M531.534,93.049h-20.187c-3.337,0-6.212-2.562-7.154-6.376l-9.151-37.046c-0.759-3.073-0.12-6.302,1.709-8.638
		c1.418-1.811,3.352-2.808,5.445-2.808h38.49c2.094,0,4.028,0.997,5.446,2.808c1.829,2.336,2.468,5.564,1.709,8.638l-9.151,37.046
		C537.746,90.486,534.871,93.049,531.534,93.049z M502.196,40.976c-1.215,0-2.367,0.617-3.244,1.736
		c-1.284,1.64-1.742,4.032-1.196,6.243l9.151,37.046c0.618,2.503,2.444,4.251,4.44,4.251h20.187c1.996,0,3.822-1.748,4.44-4.251
		l9.151-37.046c0.546-2.211,0.088-4.603-1.196-6.243c-0.876-1.119-2.029-1.736-3.244-1.736H502.196z"/>
	<path class="st0" d="M545.917,102.434h-48.952c-2.948,0-5.347-2.399-5.347-5.347V95.6c0-2.948,2.399-5.347,5.347-5.347h48.952
		c2.948,0,5.347,2.399,5.347,5.347v1.488C551.264,100.036,548.865,102.434,545.917,102.434z M496.965,93.049
		c-1.407,0-2.551,1.144-2.551,2.551v1.488c0,1.407,1.144,2.551,2.551,2.551h48.952c1.407,0,2.551-1.144,2.551-2.551V95.6
		c0-1.407-1.145-2.551-2.551-2.551H496.965z"/>
	<g>
		<line class="st1" x1="506.208" y1="46.363" x2="536.264" y2="46.363"/>
		<path class="st0" d="M536.264,47.76h-30.056c-0.772,0-1.398-0.626-1.398-1.398s0.626-1.398,1.398-1.398h30.056
			c0.772,0,1.398,0.626,1.398,1.398S537.037,47.76,536.264,47.76z"/>
	</g>
	<g>
		<line class="st1" x1="506.208" y1="52.187" x2="536.264" y2="52.187"/>
		<path class="st0" d="M536.264,53.585h-30.056c-0.772,0-1.398-0.626-1.398-1.398s0.626-1.398,1.398-1.398h30.056
			c0.772,0,1.398,0.626,1.398,1.398S537.037,53.585,536.264,53.585z"/>
	</g>
	<g>
		<path class="st0" d="M469.775,81.729h-24.419c-1.68,0-3.217-0.775-4.216-2.126c-0.999-1.351-1.29-3.047-0.798-4.654l5.806-18.965
			c0.679-2.219,2.694-3.71,5.015-3.71h12.807c2.32,0,4.335,1.491,5.015,3.71l5.806,18.965c0.492,1.607,0.201,3.303-0.798,4.654
			C472.992,80.954,471.455,81.729,469.775,81.729z M451.162,55.071c-1.083,0-2.024,0.696-2.342,1.732l-5.806,18.965
			c-0.229,0.75-0.093,1.542,0.373,2.173c0.466,0.631,1.184,0.992,1.968,0.992h24.419c0.785,0,1.502-0.362,1.969-0.992
			s0.603-1.423,0.373-2.173l-5.806-18.965c-0.318-1.036-1.258-1.732-2.342-1.732H451.162z"/>
	</g>
	<path class="st0" d="M478.137,155.828h-41.143c-6.984,0-12.667-5.682-12.667-12.667v-23.412c0-6.984,5.682-12.666,12.667-12.666
		h41.143c6.984,0,12.667,5.682,12.667,12.666v23.412C490.804,150.146,485.122,155.828,478.137,155.828z M436.994,109.879
		c-5.443,0-9.871,4.428-9.871,9.87v23.412c0,5.443,4.428,9.871,9.871,9.871h41.143c5.443,0,9.871-4.428,9.871-9.871v-23.412
		c0-5.443-4.428-9.87-9.871-9.87H436.994z"/>
	<linearGradient id="SVGID_1_" gradientUnits="userSpaceOnUse" x1="924.3876" y1="73.8355" x2="993.7427" y2="193.9621">
		<stop  offset="0" style="stop-color:#000000"/>
		<stop  offset="1" style="stop-color:#000000;stop-opacity:0"/>
	</linearGradient>
	<path class="st2" d="M1010.074,110.869l-1.904-0.143c1.945,4.582,1.823,9.979-0.828,14.639l-12.736,22.384
		c-4.515,7.935-14.608,10.708-22.543,6.193l-89.314-50.816c-1.018-0.579-1.947-1.252-2.791-1.999l-2.515-0.189l36.718,66.562
		h125.414L1010.074,110.869z"/>
	<linearGradient id="SVGID_2_" gradientUnits="userSpaceOnUse" x1="454.3791" y1="126.8686" x2="486.2917" y2="182.1431">
		<stop  offset="0" style="stop-color:#000000"/>
		<stop  offset="1" style="stop-color:#000000;stop-opacity:0"/>
	</linearGradient>
	<path class="st3" d="M485.256,109.042l-1.862,1.357c3.604,2.241,6.012,6.225,6.012,10.781v20.55c0,7.014-5.686,12.7-12.7,12.7
		h-38.282c-3.797,0-7.195-1.675-9.522-4.316l-1.02,0.743l7.935,15.17h78.388L485.256,109.042z"/>
	<linearGradient id="SVGID_3_" gradientUnits="userSpaceOnUse" x1="512.9115" y1="62.5868" x2="582.4081" y2="182.9586">
		<stop  offset="0" style="stop-color:#000000"/>
		<stop  offset="1" style="stop-color:#000000;stop-opacity:0"/>
	</linearGradient>
	<path class="st4" d="M547.124,42.834l-0.9,1.206c0.57,1.579,0.711,3.418,0.258,5.251l-9.151,37.046
		c-0.78,3.158-3.132,5.314-5.797,5.314h-20.187c-0.199,0-0.392-0.035-0.587-0.059l-0.044,0.059h34.457
		c2.581,0,4.693,2.112,4.693,4.693v0c0,2.581-2.112,4.692-4.693,4.692h-47.465c-1.535,0-2.892-0.757-3.749-1.905l-0.948,0.334
		l34.005,66.562h84.719L547.124,42.834z"/>
	<linearGradient id="SVGID_4_" gradientUnits="userSpaceOnUse" x1="449.2716" y1="63.6091" x2="512.2982" y2="172.7744">
		<stop  offset="0" style="stop-color:#000000"/>
		<stop  offset="1" style="stop-color:#000000;stop-opacity:0"/>
	</linearGradient>
	<path class="st5" d="M466.633,53.585l-1.038,2.108c0.326,0.291,0.581,0.666,0.716,1.109l5.806,18.965
		c0.229,0.75,0.093,1.542-0.373,2.173c-0.466,0.631-1.184,0.993-1.969,0.993h-24.419c-0.784,0-1.502-0.362-1.968-0.993
		c-0.222-0.3-0.364-0.639-0.432-0.99l-2.458,0.821l15.587,30.709h20.622c7.014,0,12.7,5.686,12.7,12.699v20.55
		c0,6.134-4.349,11.251-10.131,12.439l6.309,12.43h37.41L466.633,53.585z"/>
	<g>
		<linearGradient id="SVGID_5_" gradientUnits="userSpaceOnUse" x1="78.0749" y1="63.9951" x2="141.0486" y2="173.0689">
			<stop  offset="0" style="stop-color:#000000"/>
			<stop  offset="1" style="stop-color:#000000;stop-opacity:0"/>
		</linearGradient>
		<polygon class="st6" points="83.11,98.592 84.352,100.767 150.405,166.563 149.361,166.558 149.361,166.594 152.263,166.594 
			82.997,61.153 81.229,62.492 83.45,67.449 		"/>
		<linearGradient id="SVGID_6_" gradientUnits="userSpaceOnUse" x1="34.3311" y1="101.5701" x2="78.7404" y2="178.4893">
			<stop  offset="0" style="stop-color:#000000"/>
			<stop  offset="1" style="stop-color:#000000;stop-opacity:0"/>
		</linearGradient>
		<polygon class="st7" points="99.344,165.861 99.859,165.861 78.485,142.714 68.353,134.007 60.043,125.464 54.33,119.775 
			52.355,117.931 47.947,118.664 30.221,118.664 20.901,118.386 14.923,114.058 14.516,113.01 13.132,114.058 49.39,166.594 
			99.344,166.594 		"/>
	</g>
</g>
</svg>
