<?xml version="1.0" encoding="utf-8"?>
<!-- Generator: Adobe Illustrator 20.0.0, SVG Export Plug-In . SVG Version: 6.00 Build 0)  -->
<svg version="1.1" id="Layer_1" xmlns="http://www.w3.org/2000/svg" xmlns:xlink="http://www.w3.org/1999/xlink" x="0px" y="0px"
	 width="1205px" height="200px" viewBox="0 0 1205 200" style="enable-background:new 0 0 1205 200;" xml:space="preserve">
<style type="text/css">
	.st0{fill:#EAC452;}
	.st1{fill:#70D0F6;}
	.st2{fill:#DC594C;}
	.st3{fill:#2B2B2B;}
	.st4{opacity:0.3;}
	.st5{fill:#231F20;}
	.st6{fill:#FFFFFF;}
	.st7{fill:#E2EAED;}
	.st8{fill:#3E516A;}
	.st9{fill:#2B3D51;}
	.st10{fill:#BCBEC0;}
	.st11{fill:#0A2847;}
	.st12{fill:#A0A4A7;}
	.st13{fill:#797D82;}
	.st14{fill:#E0DADB;}
	.st15{opacity:0.2;}
	.st16{fill:#F15D4E;}
	.st17{fill:#2F4955;}
	.st18{fill:#021A36;}
	.st19{fill:#F04836;}
	.st20{fill:#011F3A;}
	.st21{fill:#939598;}
	.st22{fill:#6D6E71;}
	.st23{fill:#58595B;}
	.st24{clip-path:url(#SVGID_2_);fill:#FFFFFF;}
	.st25{clip-path:url(#SVGID_2_);fill:#FEFEFE;}
	.st26{clip-path:url(#SVGID_2_);fill:#FDFDFD;}
	.st27{clip-path:url(#SVGID_2_);fill:#FCFCFC;}
	.st28{clip-path:url(#SVGID_2_);fill:#FBFBFB;}
	.st29{clip-path:url(#SVGID_2_);fill:#FAFAFA;}
	.st30{clip-path:url(#SVGID_2_);fill:#F9F9F9;}
	.st31{clip-path:url(#SVGID_2_);fill:#F8F8F8;}
	.st32{clip-path:url(#SVGID_2_);fill:#F7F7F7;}
	.st33{clip-path:url(#SVGID_2_);fill:#F6F6F6;}
	.st34{clip-path:url(#SVGID_2_);fill:#F5F5F5;}
	.st35{clip-path:url(#SVGID_2_);fill:#F4F4F4;}
	.st36{clip-path:url(#SVGID_2_);fill:#F3F3F3;}
	.st37{clip-path:url(#SVGID_2_);fill:#F2F2F2;}
	.st38{clip-path:url(#SVGID_2_);fill:#F1F1F1;}
	.st39{clip-path:url(#SVGID_2_);fill:#F0F0F0;}
	.st40{clip-path:url(#SVGID_2_);fill:#EFEFEF;}
	.st41{clip-path:url(#SVGID_2_);fill:#EEEEEE;}
	.st42{clip-path:url(#SVGID_2_);fill:#EDEDED;}
	.st43{clip-path:url(#SVGID_2_);fill:#ECECEC;}
	.st44{clip-path:url(#SVGID_2_);fill:#EBEBEB;}
	.st45{clip-path:url(#SVGID_2_);fill:#EAEAEA;}
	.st46{clip-path:url(#SVGID_2_);fill:#E9E9E9;}
	.st47{clip-path:url(#SVGID_2_);fill:#E8E8E8;}
	.st48{clip-path:url(#SVGID_2_);fill:#E7E7E7;}
	.st49{clip-path:url(#SVGID_2_);fill:#E6E6E6;}
	.st50{clip-path:url(#SVGID_2_);fill:#E5E5E5;}
	.st51{clip-path:url(#SVGID_2_);fill:#E4E4E4;}
	.st52{clip-path:url(#SVGID_2_);fill:#E3E3E3;}
	.st53{clip-path:url(#SVGID_2_);fill:#E2E2E2;}
	.st54{clip-path:url(#SVGID_2_);fill:#E1E1E1;}
	.st55{clip-path:url(#SVGID_2_);fill:#E0E0E0;}
	.st56{clip-path:url(#SVGID_2_);fill:#DFDFDF;}
	.st57{clip-path:url(#SVGID_2_);fill:#DEDEDE;}
	.st58{clip-path:url(#SVGID_2_);fill:#DDDDDD;}
	.st59{clip-path:url(#SVGID_2_);fill:#DCDCDC;}
	.st60{clip-path:url(#SVGID_2_);fill:#DBDBDB;}
	.st61{clip-path:url(#SVGID_2_);fill:#DADADA;}
	.st62{clip-path:url(#SVGID_2_);fill:#D9D9D9;}
	.st63{clip-path:url(#SVGID_2_);fill:#D8D8D9;}
	.st64{clip-path:url(#SVGID_2_);fill:#D7D7D8;}
	.st65{clip-path:url(#SVGID_2_);fill:#D6D6D7;}
	.st66{clip-path:url(#SVGID_2_);fill:#D5D5D6;}
	.st67{clip-path:url(#SVGID_2_);fill:#D4D4D5;}
	.st68{clip-path:url(#SVGID_2_);fill:#D3D3D4;}
	.st69{clip-path:url(#SVGID_2_);fill:#D2D2D3;}
	.st70{clip-path:url(#SVGID_2_);fill:#D1D1D2;}
	.st71{clip-path:url(#SVGID_2_);fill:#D0D0D1;}
	.st72{clip-path:url(#SVGID_2_);fill:#CFCFD0;}
	.st73{clip-path:url(#SVGID_2_);fill:#CECECF;}
	.st74{clip-path:url(#SVGID_2_);fill:#CDCDCE;}
	.st75{clip-path:url(#SVGID_2_);fill:#CCCCCD;}
	.st76{clip-path:url(#SVGID_2_);fill:#CBCBCC;}
	.st77{clip-path:url(#SVGID_2_);fill:#CACACB;}
	.st78{clip-path:url(#SVGID_2_);fill:#C9C9CA;}
	.st79{clip-path:url(#SVGID_2_);fill:#C8C8C9;}
	.st80{clip-path:url(#SVGID_2_);fill:#C7C7C8;}
	.st81{clip-path:url(#SVGID_2_);fill:#C6C6C7;}
	.st82{clip-path:url(#SVGID_2_);fill:#C5C5C6;}
	.st83{clip-path:url(#SVGID_2_);fill:#C4C4C5;}
	.st84{clip-path:url(#SVGID_2_);fill:#C3C3C4;}
	.st85{clip-path:url(#SVGID_2_);fill:#C2C2C3;}
	.st86{clip-path:url(#SVGID_2_);fill:#C1C1C2;}
	.st87{clip-path:url(#SVGID_2_);fill:#C0C0C1;}
	.st88{clip-path:url(#SVGID_2_);fill:#BFBFC0;}
	.st89{clip-path:url(#SVGID_2_);fill:#BEBEBF;}
	.st90{clip-path:url(#SVGID_2_);fill:#BDBDBE;}
	.st91{clip-path:url(#SVGID_2_);fill:#BCBCBD;}
	.st92{clip-path:url(#SVGID_2_);fill:#BBBBBC;}
	.st93{clip-path:url(#SVGID_2_);fill:#BABABB;}
	.st94{clip-path:url(#SVGID_2_);fill:#B9B9BA;}
	.st95{clip-path:url(#SVGID_2_);fill:#B8B8B9;}
	.st96{clip-path:url(#SVGID_2_);fill:#B7B7B8;}
	.st97{clip-path:url(#SVGID_2_);fill:#B6B6B7;}
	.st98{clip-path:url(#SVGID_2_);fill:#B5B5B6;}
	.st99{clip-path:url(#SVGID_2_);fill:#B4B4B5;}
	.st100{clip-path:url(#SVGID_2_);fill:#B3B3B4;}
	.st101{clip-path:url(#SVGID_2_);fill:#B2B2B3;}
	.st102{clip-path:url(#SVGID_2_);fill:#B0B1B2;}
	.st103{clip-path:url(#SVGID_2_);fill:#AFB0B1;}
	.st104{clip-path:url(#SVGID_2_);fill:#AEAFB0;}
	.st105{clip-path:url(#SVGID_2_);fill:#ADAEAF;}
	.st106{clip-path:url(#SVGID_2_);fill:#ACADAE;}
	.st107{clip-path:url(#SVGID_2_);fill:#ABACAD;}
	.st108{clip-path:url(#SVGID_2_);fill:#AAABAC;}
	.st109{clip-path:url(#SVGID_2_);fill:#A9AAAB;}
	.st110{clip-path:url(#SVGID_2_);fill:#A8A9AA;}
	.st111{clip-path:url(#SVGID_2_);fill:#A7A8A9;}
	.st112{clip-path:url(#SVGID_2_);fill:#A6A7A8;}
	.st113{clip-path:url(#SVGID_2_);fill:#A5A6A7;}
	.st114{clip-path:url(#SVGID_2_);fill:#A4A5A6;}
	.st115{clip-path:url(#SVGID_2_);fill:#A3A4A5;}
	.st116{clip-path:url(#SVGID_2_);fill:#A2A3A4;}
	.st117{clip-path:url(#SVGID_2_);fill:#A1A2A3;}
	.st118{clip-path:url(#SVGID_2_);fill:#A0A1A2;}
	.st119{clip-path:url(#SVGID_2_);fill:#9FA0A1;}
	.st120{clip-path:url(#SVGID_2_);fill:#9E9FA0;}
	.st121{clip-path:url(#SVGID_2_);fill:#9D9E9F;}
	.st122{clip-path:url(#SVGID_2_);fill:#9C9D9E;}
	.st123{clip-path:url(#SVGID_2_);fill:#9B9C9D;}
	.st124{clip-path:url(#SVGID_2_);fill:#9A9B9C;}
	.st125{clip-path:url(#SVGID_2_);fill:#999A9B;}
	.st126{clip-path:url(#SVGID_2_);fill:#98999A;}
	.st127{clip-path:url(#SVGID_2_);fill:#979899;}
	.st128{clip-path:url(#SVGID_2_);fill:#969798;}
	.st129{clip-path:url(#SVGID_2_);fill:#959697;}
	.st130{clip-path:url(#SVGID_2_);fill:#949596;}
	.st131{clip-path:url(#SVGID_2_);fill:#939495;}
	.st132{clip-path:url(#SVGID_2_);fill:#929394;}
	.st133{clip-path:url(#SVGID_2_);fill:#919293;}
	.st134{clip-path:url(#SVGID_2_);fill:#909192;}
	.st135{clip-path:url(#SVGID_2_);fill:#8F9091;}
	.st136{clip-path:url(#SVGID_2_);fill:#8E8F90;}
	.st137{clip-path:url(#SVGID_2_);fill:#8D8E8F;}
	.st138{clip-path:url(#SVGID_2_);fill:#8C8D8E;}
	.st139{clip-path:url(#SVGID_2_);fill:#8B8C8D;}
	.st140{clip-path:url(#SVGID_2_);fill:#8A8B8C;}
	.st141{clip-path:url(#SVGID_2_);fill:#898A8C;}
	.st142{clip-path:url(#SVGID_2_);fill:#88898B;}
	.st143{clip-path:url(#SVGID_2_);fill:#87888A;}
	.st144{clip-path:url(#SVGID_2_);fill:#868789;}
	.st145{clip-path:url(#SVGID_2_);fill:#858688;}
	.st146{clip-path:url(#SVGID_2_);fill:#848587;}
	.st147{clip-path:url(#SVGID_2_);fill:#838486;}
	.st148{clip-path:url(#SVGID_2_);fill:#828385;}
	.st149{clip-path:url(#SVGID_2_);fill:#818284;}
	.st150{clip-path:url(#SVGID_2_);fill:#808183;}
	.st151{clip-path:url(#SVGID_2_);fill:#7F8082;}
	.st152{clip-path:url(#SVGID_2_);fill:#7E7F81;}
	.st153{clip-path:url(#SVGID_2_);fill:#7D7E80;}
	.st154{clip-path:url(#SVGID_2_);fill:#7C7D7F;}
	.st155{clip-path:url(#SVGID_2_);fill:#7B7C7E;}
	.st156{clip-path:url(#SVGID_2_);fill:#7A7B7D;}
	.st157{clip-path:url(#SVGID_2_);fill:#797A7C;}
	.st158{clip-path:url(#SVGID_2_);fill:#78797B;}
	.st159{clip-path:url(#SVGID_2_);fill:#77787A;}
	.st160{clip-path:url(#SVGID_2_);fill:#767779;}
	.st161{clip-path:url(#SVGID_2_);fill:#757678;}
	.st162{clip-path:url(#SVGID_2_);fill:#747577;}
	.st163{clip-path:url(#SVGID_2_);fill:#737476;}
	.st164{clip-path:url(#SVGID_2_);fill:#727375;}
	.st165{clip-path:url(#SVGID_2_);fill:#717274;}
	.st166{clip-path:url(#SVGID_2_);fill:#707173;}
	.st167{clip-path:url(#SVGID_2_);fill:#6F7072;}
	.st168{clip-path:url(#SVGID_2_);fill:#6E6F71;}
	.st169{clip-path:url(#SVGID_2_);fill:#6D6E70;}
	.st170{clip-path:url(#SVGID_2_);fill:#6C6D6F;}
	.st171{clip-path:url(#SVGID_2_);fill:#6B6C6E;}
	.st172{clip-path:url(#SVGID_2_);fill:#6A6B6D;}
	.st173{clip-path:url(#SVGID_2_);fill:#696A6C;}
	.st174{clip-path:url(#SVGID_2_);fill:#68696B;}
	.st175{clip-path:url(#SVGID_2_);fill:#67686A;}
	.st176{clip-path:url(#SVGID_2_);fill:#666769;}
	.st177{clip-path:url(#SVGID_2_);fill:#656668;}
	.st178{clip-path:url(#SVGID_2_);fill:#646567;}
	.st179{clip-path:url(#SVGID_2_);fill:#636466;}
	.st180{clip-path:url(#SVGID_4_);}
	.st181{fill:#0A1820;}
	.st182{opacity:0.5;}
	.st183{fill:#E2E2E2;}
</style>
<g>
	<g>
		<rect x="420.688" y="19.77" class="st0" width="154.46" height="154.46"/>
	</g>
	<g>
		<rect x="838.905" y="22.863" class="st1" width="154.46" height="154.46"/>
	</g>
	<g>
		<rect x="4.374" y="23.227" class="st2" width="154.46" height="154.46"/>
	</g>
</g>
<g>
	<path class="st3" d="M170.374,86.474c1.631,0.938,4.078,1.753,6.648,1.753c3.222,0,5.016-1.509,5.016-3.751
		c0-2.081-1.387-3.303-4.894-4.568c-4.527-1.632-7.422-4.038-7.422-7.994c0-4.486,3.751-7.912,9.706-7.912
		c2.978,0,5.18,0.653,6.608,1.387l-1.224,4.038c-0.979-0.53-2.896-1.305-5.466-1.305c-3.181,0-4.568,1.712-4.568,3.303
		c0,2.121,1.591,3.099,5.261,4.527c4.772,1.794,7.097,4.2,7.097,8.156c0,4.405-3.344,8.239-10.441,8.239
		c-2.895,0-5.914-0.816-7.422-1.713L170.374,86.474z"/>
	<path class="st3" d="M196.637,66.408v5.669h4.771v3.751h-4.771v8.769c0,2.406,0.653,3.67,2.569,3.67
		c0.856,0,1.509-0.122,1.958-0.244l0.081,3.834c-0.734,0.285-2.039,0.49-3.63,0.49c-1.835,0-3.385-0.612-4.323-1.632
		c-1.061-1.142-1.55-2.936-1.55-5.546v-9.34h-2.855v-3.751h2.855V67.59L196.637,66.408z"/>
	<path class="st3" d="M215.966,91.938l-0.326-2.202h-0.123c-1.224,1.549-3.303,2.651-5.873,2.651c-3.997,0-6.24-2.896-6.24-5.914
		c0-5.017,4.446-7.546,11.787-7.505v-0.326c0-1.305-0.53-3.467-4.037-3.467c-1.958,0-3.997,0.612-5.343,1.469l-0.978-3.263
		c1.468-0.898,4.037-1.754,7.178-1.754c6.363,0,8.198,4.037,8.198,8.361v7.178c0,1.794,0.081,3.548,0.285,4.771L215.966,91.938
		L215.966,91.938z M215.313,82.232c-3.548-0.081-6.934,0.693-6.934,3.712c0,1.958,1.264,2.855,2.855,2.855
		c1.998,0,3.466-1.305,3.915-2.732c0.122-0.367,0.163-0.775,0.163-1.101v-2.734H215.313z"/>
	<path class="st3" d="M225.098,78.479c0-2.692-0.041-4.609-0.163-6.402h4.364l0.163,3.792h0.163
		c0.979-2.814,3.303-4.241,5.425-4.241c0.489,0,0.775,0.041,1.182,0.122v4.731c-0.407-0.081-0.856-0.163-1.468-0.163
		c-2.406,0-4.037,1.549-4.486,3.793c-0.081,0.449-0.163,0.978-0.163,1.549v10.278h-5.017L225.098,78.479L225.098,78.479z"/>
	<path class="st3" d="M245.896,66.408v5.669h4.772v3.751h-4.772v8.769c0,2.406,0.653,3.67,2.569,3.67
		c0.856,0,1.509-0.122,1.958-0.244l0.081,3.834c-0.734,0.285-2.039,0.49-3.629,0.49c-1.835,0-3.385-0.612-4.323-1.632
		c-1.061-1.142-1.549-2.936-1.549-5.546v-9.34h-2.855v-3.751h2.855V67.59L245.896,66.408z"/>
	<path class="st3" d="M273.258,91.938l-0.327-2.202h-0.122c-1.224,1.549-3.303,2.651-5.873,2.651c-3.997,0-6.24-2.896-6.24-5.914
		c0-5.017,4.446-7.546,11.787-7.505v-0.326c0-1.305-0.529-3.467-4.037-3.467c-1.958,0-3.997,0.612-5.343,1.469l-0.979-3.263
		c1.469-0.898,4.038-1.754,7.178-1.754c6.363,0,8.198,4.037,8.198,8.361v7.178c0,1.794,0.081,3.548,0.285,4.771L273.258,91.938
		L273.258,91.938z M272.606,82.232c-3.549-0.081-6.934,0.693-6.934,3.712c0,1.958,1.264,2.855,2.855,2.855
		c1.998,0,3.467-1.305,3.915-2.732c0.122-0.367,0.164-0.775,0.164-1.101L272.606,82.232L272.606,82.232z"/>
	<path class="st3" d="M172.689,111.002l3.222,10.073c0.571,1.754,0.978,3.344,1.346,4.976h0.122
		c0.367-1.632,0.815-3.181,1.346-4.976l3.141-10.073h5.302l-7.586,19.862h-4.934l-7.383-19.862H172.689z"/>
	<path class="st3" d="M195.158,105.455c0,1.509-1.101,2.692-2.855,2.692c-1.672,0-2.773-1.183-2.773-2.692
		c0-1.549,1.142-2.732,2.814-2.732C194.057,102.722,195.117,103.905,195.158,105.455z M189.815,130.863v-19.862h5.057v19.862
		H189.815z"/>
	<path class="st3" d="M218.159,101.907v23.369c0,2.04,0.081,4.242,0.163,5.588h-4.486l-0.204-3.141h-0.081
		c-1.183,2.203-3.589,3.589-6.485,3.589c-4.731,0-8.483-4.038-8.483-10.156c-0.041-6.648,4.119-10.604,8.891-10.604
		c2.732,0,4.69,1.142,5.587,2.61h0.081v-11.256L218.159,101.907L218.159,101.907z M213.142,119.28c0-0.407-0.041-0.897-0.122-1.305
		c-0.449-1.958-2.039-3.548-4.323-3.548c-3.221,0-5.016,2.855-5.016,6.566c0,3.629,1.795,6.28,4.975,6.28
		c2.04,0,3.834-1.387,4.323-3.548c0.122-0.449,0.163-0.938,0.163-1.468V119.28z"/>
	<path class="st3" d="M226.679,122.34c0.122,3.589,2.936,5.139,6.117,5.139c2.325,0,3.997-0.327,5.506-0.898l0.734,3.467
		c-1.713,0.693-4.078,1.224-6.934,1.224c-6.444,0-10.237-3.956-10.237-10.034c0-5.505,3.345-10.685,9.707-10.685
		c6.444,0,8.565,5.302,8.565,9.666c0,0.938-0.081,1.672-0.163,2.121H226.679z M235.406,118.832c0.041-1.835-0.775-4.854-4.119-4.854
		c-3.1,0-4.405,2.814-4.609,4.854H235.406z"/>
	<path class="st3" d="M262.647,120.748c0,7.301-5.139,10.564-10.196,10.564c-5.629,0-9.952-3.875-9.952-10.237
		c0-6.526,4.283-10.522,10.278-10.522C258.691,110.553,262.647,114.713,262.647,120.748z M247.679,120.953
		c0,3.834,1.876,6.729,4.935,6.729c2.855,0,4.853-2.814,4.853-6.811c0-3.1-1.387-6.649-4.812-6.649
		C249.107,114.223,247.679,117.649,247.679,120.953z"/>
	<path class="st3" d="M288.989,130.252c-1.061,0.49-3.141,1.02-5.629,1.02c-6.199,0-10.237-3.956-10.237-10.115
		c0-5.954,4.079-10.604,11.053-10.604c1.835,0,3.712,0.408,4.854,0.938l-0.898,3.752c-0.815-0.367-1.998-0.775-3.792-0.775
		c-3.834,0-6.118,2.814-6.077,6.444c0,4.078,2.651,6.403,6.077,6.403c1.753,0,2.977-0.367,3.956-0.776L288.989,130.252z"/>
	<path class="st3" d="M292.289,101.907h5.057v11.827h0.081c0.612-0.939,1.427-1.713,2.488-2.284
		c0.979-0.571,2.161-0.897,3.426-0.897c3.386,0,6.934,2.243,6.934,8.605v11.705h-5.017v-11.134c0-2.896-1.06-5.057-3.834-5.057
		c-1.958,0-3.344,1.305-3.875,2.815c-0.163,0.407-0.204,0.938-0.204,1.509v11.868h-5.057v-28.957H292.289z"/>
	<path class="st3" d="M326.381,130.863l-0.327-2.202h-0.122c-1.224,1.549-3.303,2.651-5.873,2.651c-3.997,0-6.24-2.896-6.24-5.914
		c0-5.017,4.446-7.546,11.787-7.505v-0.326c0-1.305-0.529-3.467-4.037-3.467c-1.958,0-3.997,0.612-5.343,1.469l-0.979-3.263
		c1.469-0.898,4.038-1.754,7.178-1.754c6.363,0,8.198,4.037,8.198,8.361v7.178c0,1.794,0.081,3.548,0.285,4.771L326.381,130.863
		L326.381,130.863z M325.729,121.157c-3.549-0.081-6.934,0.693-6.934,3.712c0,1.958,1.264,2.855,2.855,2.855
		c1.998,0,3.467-1.305,3.915-2.732c0.122-0.367,0.164-0.775,0.164-1.101L325.729,121.157L325.729,121.157z"/>
	<path class="st3" d="M341.02,105.332v5.669h4.771v3.751h-4.771v8.769c0,2.406,0.653,3.67,2.569,3.67
		c0.856,0,1.509-0.122,1.958-0.244l0.081,3.834c-0.734,0.285-2.039,0.49-3.63,0.49c-1.835,0-3.385-0.612-4.323-1.632
		c-1.061-1.142-1.55-2.936-1.55-5.546v-9.34h-2.855v-3.751h2.855v-4.486L341.02,105.332z"/>
	<path class="st3" d="M586.109,85.884c1.631,0.938,4.078,1.753,6.648,1.753c3.222,0,5.017-1.509,5.017-3.751
		c0-2.081-1.387-3.303-4.895-4.568c-4.527-1.632-7.422-4.038-7.422-7.994c0-4.486,3.752-7.912,9.707-7.912
		c2.977,0,5.18,0.653,6.607,1.387l-1.224,4.038c-0.978-0.53-2.895-1.305-5.465-1.305c-3.181,0-4.568,1.712-4.568,3.303
		c0,2.121,1.59,3.099,5.261,4.527c4.771,1.794,7.097,4.2,7.097,8.156c0,4.405-3.344,8.239-10.441,8.239
		c-2.896,0-5.914-0.816-7.423-1.713L586.109,85.884z"/>
	<path class="st3" d="M606.661,62.392h5.057v11.827h0.081c0.612-0.939,1.427-1.713,2.488-2.284c0.979-0.571,2.161-0.897,3.426-0.897
		c3.385,0,6.934,2.243,6.934,8.605v11.705h-5.017V80.215c0-2.896-1.06-5.057-3.834-5.057c-1.958,0-3.344,1.305-3.875,2.815
		c-0.163,0.407-0.204,0.938-0.204,1.509V91.35h-5.057L606.661,62.392L606.661,62.392z"/>
	<path class="st3" d="M648.462,81.234c0,7.301-5.139,10.564-10.195,10.564c-5.629,0-9.952-3.875-9.952-10.237
		c0-6.526,4.283-10.522,10.278-10.522C644.506,71.038,648.462,75.198,648.462,81.234z M633.494,81.438
		c0,3.834,1.876,6.729,4.935,6.729c2.855,0,4.853-2.814,4.853-6.811c0-3.1-1.387-6.649-4.812-6.649
		C634.922,74.708,633.494,78.135,633.494,81.438z"/>
	<path class="st3" d="M654.862,71.487l2.08,9.013c0.449,2.121,0.898,4.283,1.264,6.444h0.081c0.408-2.161,1.061-4.363,1.632-6.403
		l2.569-9.053h4.078l2.488,8.809c0.612,2.325,1.141,4.486,1.59,6.648h0.081c0.327-2.161,0.775-4.323,1.305-6.648l2.203-8.809h4.934
		l-6.24,19.862h-4.649l-2.366-8.075c-0.612-2.081-1.061-3.956-1.509-6.363h-0.082c-0.407,2.447-0.938,4.405-1.509,6.363
		l-2.529,8.075h-4.69l-5.873-19.862L654.862,71.487L654.862,71.487z"/>
	<path class="st3" d="M707.794,85.394c0,2.365,0.081,4.323,0.163,5.954h-4.405l-0.244-3.018h-0.081
		c-0.857,1.428-2.815,3.467-6.363,3.467c-3.63,0-6.934-2.162-6.934-8.647V71.487h5.017v10.807c0,3.303,1.061,5.424,3.712,5.424
		c1.998,0,3.303-1.427,3.833-2.692c0.164-0.448,0.286-0.978,0.286-1.549v-11.99h5.017v13.907H707.794z"/>
	<path class="st3" d="M712.562,86.74c1.142,0.693,3.304,1.427,5.098,1.427c2.202,0,3.181-0.897,3.181-2.202
		c0-1.346-0.816-2.039-3.263-2.896c-3.875-1.346-5.506-3.466-5.466-5.791c0-3.507,2.896-6.24,7.505-6.24
		c2.202,0,4.119,0.571,5.261,1.183l-0.979,3.548c-0.856-0.49-2.446-1.142-4.2-1.142c-1.795,0-2.773,0.857-2.773,2.081
		c0,1.264,0.938,1.875,3.466,2.773c3.589,1.305,5.261,3.141,5.302,6.077c0,3.589-2.814,6.2-8.075,6.2
		c-2.407,0-4.568-0.571-6.037-1.387L712.562,86.74z"/>
	<path class="st3" d="M591.836,110.412l3.589,10.644c0.408,1.224,0.815,2.732,1.102,3.875h0.122c0.327-1.142,0.693-2.61,1.061-3.915
		l3.099-10.604h5.384l-4.976,13.54c-2.732,7.423-4.568,10.727-6.934,12.766c-1.958,1.754-3.997,2.407-5.261,2.569l-1.141-4.242
		c0.856-0.204,1.917-0.653,2.936-1.387c0.939-0.612,2.039-1.795,2.732-3.141c0.205-0.367,0.327-0.653,0.327-0.897
		c0-0.204-0.041-0.49-0.286-0.978l-7.26-18.231h5.506V110.412z"/>
	<path class="st3" d="M627.03,120.159c0,7.301-5.139,10.564-10.196,10.564c-5.629,0-9.952-3.875-9.952-10.237
		c0-6.526,4.283-10.522,10.278-10.522C623.074,109.963,627.03,114.123,627.03,120.159z M612.062,120.363
		c0,3.834,1.876,6.729,4.935,6.729c2.855,0,4.853-2.814,4.853-6.811c0-3.1-1.387-6.649-4.812-6.649
		C613.49,113.633,612.062,117.06,612.062,120.363z"/>
	<path class="st3" d="M648.52,124.319c0,2.365,0.081,4.323,0.163,5.954h-4.404l-0.245-3.018h-0.081
		c-0.856,1.428-2.814,3.467-6.363,3.467c-3.629,0-6.933-2.162-6.933-8.647v-11.664h5.016v10.807c0,3.303,1.061,5.424,3.712,5.424
		c1.998,0,3.303-1.427,3.834-2.692c0.163-0.448,0.285-0.978,0.285-1.549v-11.99h5.017v13.908H648.52z"/>
	<path class="st3" d="M653.533,116.814c0-2.692-0.041-4.609-0.163-6.402h4.363l0.164,3.792h0.163
		c0.978-2.814,3.303-4.241,5.424-4.241c0.49,0,0.775,0.041,1.183,0.122v4.731c-0.408-0.081-0.856-0.163-1.468-0.163
		c-2.407,0-4.038,1.549-4.486,3.793c-0.081,0.449-0.163,0.978-0.163,1.549v10.278h-5.017L653.533,116.814L653.533,116.814z"/>
	<path class="st3" d="M681.017,104.865c0,1.509-1.101,2.692-2.855,2.692c-1.673,0-2.774-1.183-2.774-2.692
		c0-1.549,1.142-2.732,2.815-2.732C679.916,102.132,680.976,103.315,681.017,104.865z M675.674,130.274v-19.862h5.057v19.862
		H675.674z"/>
	<path class="st3" d="M691.456,104.743v5.669h4.772v3.751h-4.772v8.769c0,2.406,0.653,3.67,2.57,3.67
		c0.856,0,1.509-0.122,1.958-0.244l0.081,3.834c-0.734,0.285-2.039,0.49-3.629,0.49c-1.835,0-3.386-0.612-4.323-1.632
		c-1.061-1.142-1.549-2.936-1.549-5.546v-9.34h-2.855v-3.751h2.855v-4.486L691.456,104.743z"/>
	<path class="st3" d="M702.915,121.75c0.122,3.589,2.936,5.139,6.117,5.139c2.325,0,3.997-0.327,5.506-0.898l0.734,3.467
		c-1.713,0.693-4.079,1.224-6.934,1.224c-6.444,0-10.237-3.956-10.237-10.034c0-5.506,3.345-10.685,9.707-10.685
		c6.444,0,8.565,5.302,8.565,9.666c0,0.938-0.081,1.672-0.163,2.121H702.915z M711.643,118.243c0.041-1.835-0.775-4.854-4.119-4.854
		c-3.1,0-4.405,2.814-4.609,4.854H711.643z"/>
	<path class="st3" d="M720,116.326c0-2.284-0.041-4.201-0.163-5.914h4.323l0.204,2.936h0.122c0.979-1.549,2.773-3.385,6.118-3.385
		c2.61,0,4.649,1.468,5.505,3.67h0.081c0.693-1.101,1.509-1.916,2.447-2.487c1.102-0.775,2.366-1.183,3.997-1.183
		c3.303,0,6.648,2.243,6.648,8.605v11.705h-4.894v-10.971c0-3.303-1.142-5.261-3.549-5.261c-1.712,0-2.977,1.224-3.507,2.651
		c-0.122,0.49-0.244,1.101-0.244,1.673v11.909h-4.895v-11.502c0-2.773-1.101-4.731-3.426-4.731c-1.876,0-3.141,1.468-3.589,2.855
		c-0.204,0.489-0.285,1.06-0.285,1.631v11.746H720V116.326z"/>
	<path class="st3" d="M753.927,125.665c1.142,0.693,3.304,1.427,5.098,1.427c2.203,0,3.181-0.897,3.181-2.202
		c0-1.346-0.815-2.039-3.263-2.896c-3.875-1.346-5.505-3.466-5.465-5.791c0-3.507,2.895-6.24,7.504-6.24
		c2.203,0,4.12,0.571,5.261,1.183l-0.978,3.548c-0.856-0.49-2.447-1.142-4.201-1.142c-1.794,0-2.773,0.857-2.773,2.081
		c0,1.264,0.939,1.875,3.466,2.773c3.589,1.305,5.262,3.141,5.303,6.077c0,3.589-2.815,6.2-8.076,6.2
		c-2.406,0-4.568-0.571-6.036-1.387L753.927,125.665z"/>
	<path class="st3" d="M1028.486,110.054c-1.754,0.653-5.18,1.549-8.851,1.549c-4.649,0-8.156-1.182-10.767-3.67
		c-2.447-2.325-3.875-5.954-3.834-10.115c0-8.687,6.199-14.275,15.294-14.275c3.386,0,6.037,0.693,7.301,1.305l-1.101,4.038
		c-1.509-0.653-3.344-1.183-6.24-1.183c-5.873,0-9.992,3.466-9.992,9.87c0,6.24,3.834,9.951,9.544,9.951
		c1.794,0,3.14-0.244,3.792-0.571v-6.851h-4.853v-3.956h9.707L1028.486,110.054L1028.486,110.054z"/>
	<path class="st3" d="M1036.801,102.795c0.122,3.589,2.937,5.139,6.118,5.139c2.324,0,3.997-0.327,5.505-0.898l0.734,3.467
		c-1.712,0.693-4.078,1.224-6.933,1.224c-6.444,0-10.237-3.956-10.237-10.034c0-5.506,3.344-10.685,9.707-10.685
		c6.444,0,8.565,5.302,8.565,9.666c0,0.938-0.082,1.672-0.163,2.121H1036.801z M1045.529,99.288c0.041-1.835-0.776-4.854-4.12-4.854
		c-3.099,0-4.404,2.814-4.609,4.854C1036.8,99.288,1045.529,99.288,1045.529,99.288z"/>
	<path class="st3" d="M1059.637,85.788v5.669h4.771v3.751h-4.771v8.769c0,2.406,0.653,3.67,2.569,3.67
		c0.856,0,1.509-0.122,1.958-0.244l0.081,3.834c-0.734,0.285-2.039,0.49-3.63,0.49c-1.835,0-3.385-0.612-4.323-1.632
		c-1.061-1.142-1.55-2.936-1.55-5.546v-9.34h-2.855v-3.751h2.855v-4.486L1059.637,85.788z"/>
	<path class="st3" d="M1086.999,111.319l-0.326-2.202h-0.122c-1.224,1.549-3.303,2.651-5.873,2.651c-3.997,0-6.24-2.896-6.24-5.914
		c0-5.017,4.446-7.546,11.787-7.505v-0.326c0-1.305-0.53-3.467-4.037-3.467c-1.958,0-3.997,0.612-5.343,1.469l-0.979-3.263
		c1.469-0.898,4.038-1.754,7.178-1.754c6.363,0,8.198,4.037,8.198,8.361v7.178c0,1.794,0.081,3.548,0.285,4.771L1086.999,111.319
		L1086.999,111.319z M1086.347,101.612c-3.548-0.081-6.933,0.693-6.933,3.712c0,1.958,1.264,2.855,2.855,2.855
		c1.998,0,3.467-1.305,3.915-2.732c0.122-0.367,0.163-0.775,0.163-1.101V101.612z"/>
	<path class="st3" d="M1104.165,98.064c0-2.61-0.081-4.732-0.163-6.607h4.404l0.245,3.058h0.081
		c1.468-2.243,3.793-3.507,6.811-3.507c4.568,0,8.361,3.915,8.361,10.114c0,7.178-4.527,10.645-9.054,10.645
		c-2.488,0-4.568-1.061-5.587-2.651h-0.081v10.277h-5.017L1104.165,98.064L1104.165,98.064z M1109.182,102.999
		c0,0.49,0.041,0.939,0.163,1.387c0.49,2.039,2.284,3.508,4.405,3.508c3.18,0,5.057-2.651,5.057-6.566
		c0-3.508-1.712-6.363-4.934-6.363c-2.08,0-3.997,1.509-4.486,3.712c-0.122,0.407-0.204,0.856-0.204,1.264v3.058H1109.182z"/>
	<path class="st3" d="M1127.612,97.86c0-2.692-0.041-4.609-0.163-6.402h4.363l0.164,3.792h0.163
		c0.978-2.814,3.303-4.241,5.424-4.241c0.49,0,0.775,0.041,1.183,0.122v4.731c-0.408-0.081-0.856-0.163-1.468-0.163
		c-2.406,0-4.038,1.549-4.486,3.793c-0.081,0.449-0.163,0.978-0.163,1.549v10.278h-5.017V97.86z"/>
	<path class="st3" d="M1147.064,85.91c0,1.509-1.102,2.692-2.855,2.692c-1.673,0-2.774-1.183-2.774-2.692
		c0-1.549,1.142-2.732,2.815-2.732C1145.962,83.178,1147.023,84.361,1147.064,85.91z M1141.721,111.319V91.457h5.057v19.862
		H1141.721z"/>
	<path class="st3" d="M1166.353,110.707c-1.061,0.49-3.141,1.02-5.629,1.02c-6.199,0-10.237-3.956-10.237-10.115
		c0-5.954,4.079-10.604,11.053-10.604c1.835,0,3.712,0.408,4.854,0.938l-0.898,3.752c-0.816-0.367-1.998-0.775-3.792-0.775
		c-3.834,0-6.118,2.814-6.078,6.444c0,4.078,2.651,6.403,6.078,6.403c1.753,0,2.977-0.367,3.956-0.776L1166.353,110.707z"/>
	<path class="st3" d="M1172.835,102.795c0.122,3.589,2.937,5.139,6.118,5.139c2.324,0,3.997-0.327,5.505-0.898l0.734,3.467
		c-1.712,0.693-4.078,1.224-6.933,1.224c-6.444,0-10.237-3.956-10.237-10.034c0-5.506,3.344-10.685,9.707-10.685
		c6.444,0,8.565,5.302,8.565,9.666c0,0.938-0.082,1.672-0.163,2.121H1172.835z M1181.564,99.288c0.041-1.835-0.776-4.854-4.12-4.854
		c-3.099,0-4.404,2.814-4.609,4.854C1172.835,99.288,1181.564,99.288,1181.564,99.288z"/>
	<path class="st3" d="M394.446,115.133l10.953-10.948c0.54-0.54,1.943-2.05,1.943-2.05s-1.402-1.509-1.943-2.055l-10.952-10.947
		l-4.103,4.109l5.994,5.992h-22.856v5.803h22.856l-5.994,5.991L394.446,115.133z"/>
	<path class="st3" d="M810.446,115.133l10.953-10.948c0.54-0.54,1.943-2.05,1.943-2.05s-1.402-1.509-1.943-2.055l-10.952-10.947
		l-4.103,4.109l5.994,5.992h-22.856v5.803h22.856l-5.994,5.991L810.446,115.133z"/>
</g>
<g>
	<g class="st4">
		<polygon class="st5" points="575.148,101.803 544.513,71.168 453.032,138.044 489.219,174.231 575.148,174.231 		"/>
	</g>
	<g>
		<polygon class="st6" points="540.782,138.044 528.82,138.044 527.483,136.259 499.163,136.259 497.714,138.044 453.032,138.044 
			453.032,76.606 496.908,48.862 540.782,76.606 		"/>
	</g>
	<g>
		<rect x="500.261" y="86.714" class="st7" width="27.034" height="26.126"/>
	</g>
	<g>
		<g>
			<rect x="463.709" y="85.302" class="st7" width="24.974" height="24.974"/>
			<path class="st8" d="M489.668,111.262h-26.946V84.316h26.946V111.262z M464.694,109.29h23.002V86.288h-23.002V109.29z"/>
		</g>
		<g>
			<line class="st7" x1="463.709" y1="97.789" x2="488.683" y2="97.789"/>
			<rect x="463.709" y="96.803" class="st8" width="24.974" height="1.972"/>
		</g>
		<g>
			<line class="st7" x1="476.197" y1="85.302" x2="476.197" y2="110.276"/>
			<rect x="475.211" y="85.302" class="st8" width="1.972" height="24.974"/>
		</g>
	</g>
	<g>
		<rect x="461.479" y="110.276" class="st9" width="29.545" height="2.564"/>
	</g>
	<g>
		<rect x="519.798" y="43.715" class="st8" width="11.149" height="18.585"/>
	</g>
	<g>
		<rect x="517.792" y="42.043" class="st9" width="15.162" height="5.351"/>
	</g>
	<g>
		<path class="st8" d="M499.163,85.302v50.958h28.319V85.302H499.163z M512.431,109.889H501.84V88.312h10.591V109.889z
			 M524.806,109.889h-10.591V88.312h10.591V109.889z"/>
		<path class="st8" d="M528.468,137.245h-30.291v-52.93h30.291V137.245z M500.149,135.273h26.348V86.288h-26.348V135.273z
			 M525.792,110.875h-24.938V87.326h24.938V110.875z M515.201,108.903h8.619V89.298h-8.619V108.903z M502.826,108.903h8.619V89.298
			h-8.619V108.903z"/>
	</g>
	<g>
		<polygon class="st10" points="491.688,46.873 453.032,71.318 453.032,81.522 500.261,51.654 		"/>
	</g>
	<g>
		<rect x="540.782" y="77.986" class="st10" width="2.198" height="60.058"/>
	</g>
	<g>
		<polygon class="st8" points="545.544,70.794 496.908,40.036 448.323,70.761 448.323,80.964 496.908,50.239 545.544,80.997 		"/>
	</g>
	<g>
		<polygon class="st10" points="497.937,138.044 499.275,137.257 499.275,85.45 527.332,85.45 527.262,137.202 528.597,137.747 
			528.673,84.112 497.937,84.112 		"/>
	</g>
	<g>
		<circle class="st6" cx="503.326" cy="114.364" r="1.933"/>
	</g>
	<g class="st4">
		<polygon class="st5" points="993.365,104.146 951.081,61.862 880.313,146.212 911.424,177.323 993.365,177.323 		"/>
	</g>
	<g>
		<rect x="881.847" y="63.176" class="st6" width="67.261" height="81.721"/>
		<path class="st11" d="M950.751,146.541h-70.548V61.533h70.548V146.541z M883.49,143.255h63.975V64.819H883.49V143.255z"/>
	</g>
	<g>
		<path class="st12" d="M933.444,56.493h-9.241c0.025-0.253,0.038-0.508,0.038-0.767c0-4.295-3.481-7.778-7.777-7.778
			c-4.296,0-7.778,3.482-7.778,7.778c0,0.259,0.014,0.514,0.039,0.767h-9.24c-1.815,0-3.286,1.675-3.286,3.74v6.981
			c0,2.065,1.471,3.74,3.286,3.74h33.96c1.815,0,3.286-1.675,3.286-3.74v-6.981C936.73,58.168,935.259,56.493,933.444,56.493z"/>
	</g>
	<g>
		<path class="st13" d="M896.198,66.791v0.423c0,2.065,1.471,3.74,3.286,3.74h33.96c1.815,0,3.286-1.675,3.286-3.74v-0.423H896.198z
			"/>
	</g>
	<g>
		<path class="st14" d="M936.73,60.547v-0.314c0-2.065-1.471-3.74-3.286-3.74h-9.241c0.025-0.253,0.038-0.508,0.038-0.767
			c0-4.295-3.481-7.778-7.777-7.778c-4.296,0-7.778,3.482-7.778,7.778c0,0.259,0.014,0.514,0.039,0.767h-9.24
			c-1.815,0-3.286,1.675-3.286,3.74v0.314H936.73z"/>
	</g>
	<g class="st15">
		<path class="st5" d="M989.964,130.106l-0.274-5.367l-0.861,0.044l-0.001-0.019c0,0-16.81-3.057-22.457-2.878
			c-6.703,0.215-19.621,4.95-26.314,5.37c-0.049,0.005-1.042,0.008-1.094,0.012c-4.523-0.117-14.133-1.944-14.133-1.944l0.059,1.142
			l-6.514,3.311l0.015,0.286l-2.206,1.121l2.309,0.892l0.015,0.288l6.817,2.627l0.059,1.142c0,0,9.373-2.797,13.861-3.373
			c0.053-0.003,1.04-0.098,1.09-0.101c6.699-0.261,20.033,3.128,26.724,2.659c5.636-0.397,22.046-5.151,22.046-5.151l-0.002-0.019
			L989.964,130.106z"/>
	</g>
	<g>
		<polygon class="st16" points="919.52,129.683 917.689,127.852 916.184,131.185 		"/>
	</g>
	<g>
		<polygon class="st16" points="919.52,129.683 917.689,127.852 916.184,131.185 		"/>
	</g>
	<g>
		<polygon class="st16" points="919.52,129.683 917.689,127.852 916.184,131.185 		"/>
	</g>
	<g>
		<polygon class="st17" points="927.07,126.574 920.797,120.301 917.151,128.389 918.983,130.22 		"/>
	</g>
	<g>
		
			<rect x="976.703" y="67.473" transform="matrix(0.7071 -0.7072 0.7072 0.7071 236.659 711.6009)" class="st17" width="1.016" height="5.374"/>
	</g>
	<g>
		
			<rect x="976.703" y="67.473" transform="matrix(0.7071 -0.7072 0.7072 0.7071 236.659 711.6009)" class="st17" width="1.016" height="5.374"/>
	</g>
	<g>
		
			<rect x="976.703" y="67.473" transform="matrix(0.7071 -0.7072 0.7072 0.7071 236.659 711.6009)" class="st17" width="1.016" height="5.374"/>
	</g>
	<g>
		
			<rect x="976.703" y="67.473" transform="matrix(0.7071 -0.7072 0.7072 0.7071 236.659 711.6009)" class="st18" width="1.016" height="5.374"/>
	</g>
	<g>
		<path class="st19" d="M963.06,93.822c4.626-4.779,15.705-21.389,15.705-21.389l-1.914-1.915l-40.782,40.783l1.914,1.915
			c0.042-0.044,0.087-0.091,0.13-0.131C943.75,107.559,957.569,99.493,963.06,93.822z"/>
	</g>
	<g>
		<polygon class="st20" points="923.932,123.437 918.066,129.303 918.983,130.22 927.07,126.574 		"/>
	</g>
	<g>
		<path class="st16" d="M934.155,109.388l3.828,3.828c0.042-0.044,0.087-0.091,0.13-0.131c5.638-5.525,19.456-13.591,24.947-19.263
			c4.626-4.779,15.705-21.389,15.705-21.389l-3.828-3.827c0,0-16.61,11.079-21.39,15.704c-5.672,5.492-13.737,19.309-19.262,24.948
			C934.246,109.3,934.199,109.345,934.155,109.388z"/>
	</g>
	<g>
		<path class="st16" d="M933.345,110.136c-4.001,3.51-13.549,9.785-13.549,9.785l7.654,7.654c0,0,6.275-9.549,9.785-13.549
			L933.345,110.136z"/>
	</g>
	<g>
		<path class="st19" d="M923.622,123.748l3.828,3.827c0,0,6.275-9.549,9.785-13.549l-1.945-1.945L923.622,123.748z"/>
	</g>
	<g>
		<path class="st19" d="M963.06,93.822c4.626-4.779,15.705-21.389,15.705-21.389l-1.914-1.915l-40.782,40.783l1.914,1.915
			c0.042-0.044,0.087-0.091,0.13-0.131C943.75,107.559,957.569,99.493,963.06,93.822z"/>
	</g>
	<g>
		<circle class="st1" cx="916.464" cy="55.617" r="4.272"/>
		<path class="st10" d="M916.464,60.547c-2.719,0-4.93-2.211-4.93-4.93s2.212-4.93,4.93-4.93c2.718,0,4.929,2.211,4.929,4.93
			S919.182,60.547,916.464,60.547z M916.464,52.002c-1.994,0-3.616,1.622-3.616,3.615c0,1.993,1.622,3.615,3.616,3.615
			c1.993,0,3.614-1.622,3.614-3.615C920.079,53.624,918.457,52.002,916.464,52.002z"/>
	</g>
	<g>
		<path class="st1" d="M919.485,52.596c1.668,1.668,1.668,4.374,0,6.042c-1.668,1.668-4.374,1.668-6.043,0.001"/>
		<path class="st21" d="M916.464,60.546c-1.317,0.001-2.555-0.512-3.486-1.443l0.929-0.929c0.683,0.682,1.591,1.058,2.557,1.058
			s1.874-0.375,2.556-1.058c1.41-1.41,1.41-3.703,0-5.113l0.929-0.929c1.922,1.922,1.922,5.05,0,6.971
			C919.019,60.033,917.781,60.546,916.464,60.546z"/>
	</g>
	<g>
		<path class="st11" d="M937.474,81.541h-45.658c-0.545,0-0.986-0.442-0.986-0.986c0-0.544,0.441-0.986,0.986-0.986h45.658
			c0.545,0,0.986,0.442,0.986,0.986C938.46,81.099,938.018,81.541,937.474,81.541z"/>
	</g>
	<g>
		<path class="st11" d="M937.474,95.383h-45.658c-0.545,0-0.986-0.442-0.986-0.986c0-0.544,0.441-0.986,0.986-0.986h45.658
			c0.545,0,0.986,0.442,0.986,0.986C938.46,94.941,938.018,95.383,937.474,95.383z"/>
	</g>
	<g>
		<path class="st11" d="M920.128,109.186h-28.312c-0.545,0-0.986-0.442-0.986-0.986c0-0.544,0.441-0.986,0.986-0.986h28.312
			c0.545,0,0.986,0.442,0.986,0.986C921.114,108.744,920.673,109.186,920.128,109.186z"/>
	</g>
	<g>
		<path class="st11" d="M899.802,133.465c-4.566,0-5.827-2.676-5.878-2.79c-0.224-0.496-0.004-1.08,0.493-1.304
			c0.496-0.223,1.08-0.003,1.304,0.493c0.025,0.049,0.862,1.63,4.081,1.63c2.353,0,3.548-0.971,3.549-2.884
			c0.001-1.329-1.649-2.078-4.166-3.068c-2.554-1.004-5.449-2.142-5.449-4.942c0-1.632,0.763-4.371,5.869-4.371
			c3.895,0,4.859,2.546,4.898,2.654c0.185,0.512-0.08,1.078-0.592,1.263c-0.506,0.182-1.064-0.074-1.255-0.574
			c-0.037-0.086-0.629-1.37-3.05-1.37c-3.897,0-3.897,1.743-3.897,2.399c0,1.355,1.662,2.11,4.199,3.107
			c2.54,0.999,5.419,2.13,5.417,4.904C905.322,129.749,904.922,133.465,899.802,133.465z"/>
	</g>
	<g>
		<path class="st11" d="M899.579,135.123c-0.545,0-0.986-0.442-0.986-0.986V115.51c0-0.544,0.441-0.986,0.986-0.986
			c0.545,0,0.986,0.442,0.986,0.986v18.628C900.565,134.682,900.123,135.123,899.579,135.123z"/>
	</g>
	<g class="st4">
		<path class="st5" d="M158.834,91.328c-11.142-11.079-21.776-21.6-21.776-21.6L21.141,130.595l47.093,47.093h90.6V91.328z"/>
	</g>
	<g>
		<path class="st22" d="M133.39,68.647c2.937,0,5.317,2.088,5.317,4.663v54.295c0,2.575-2.381,4.663-5.317,4.663H25.221
			c-2.937,0-5.318-2.087-5.318-4.663V73.31c0-2.575,2.381-4.663,5.318-4.663H133.39z"/>
	</g>
	<g>
		<path class="st23" d="M19.903,73.31v6.191c0-2.575,2.381-4.663,5.318-4.663h108.17c2.937,0,5.317,2.088,5.317,4.663V73.31
			c0-2.575-2.381-4.663-5.317-4.663H25.221C22.283,68.647,19.903,70.735,19.903,73.31z"/>
	</g>
	<g>
		<path class="st6" d="M113.572,71.537c3.159,0,5.717,2.209,5.717,4.935v47.971c0,2.725-2.558,4.935-5.717,4.935H34.959
			c-3.158,0-5.717-2.21-5.717-4.935V76.472c0-2.725,2.559-4.935,5.717-4.935H113.572z"/>
	</g>
	<g>
		<g>
			<defs>
				<circle id="SVGID_1_" cx="128.852" cy="100.457" r="6.191"/>
			</defs>
			<clipPath id="SVGID_2_">
				<use xlink:href="#SVGID_1_"  style="overflow:visible;"/>
			</clipPath>
			<path class="st24" d="M122.661,106.648h12.383H122.661z"/>
			<rect x="122.661" y="106.573" class="st24" width="12.383" height="0.076"/>
			<rect x="122.661" y="106.497" class="st25" width="12.383" height="0.076"/>
			<rect x="122.661" y="106.421" class="st26" width="12.383" height="0.076"/>
			<rect x="122.661" y="106.345" class="st27" width="12.383" height="0.076"/>
			<rect x="122.661" y="106.269" class="st28" width="12.383" height="0.076"/>
			<rect x="122.661" y="106.193" class="st29" width="12.383" height="0.076"/>
			<rect x="122.661" y="106.117" class="st30" width="12.383" height="0.076"/>
			<rect x="122.661" y="106.041" class="st31" width="12.383" height="0.076"/>
			<rect x="122.661" y="105.965" class="st32" width="12.383" height="0.076"/>
			<rect x="122.661" y="105.889" class="st33" width="12.383" height="0.076"/>
			<rect x="122.661" y="105.813" class="st34" width="12.383" height="0.076"/>
			<rect x="122.661" y="105.737" class="st35" width="12.383" height="0.076"/>
			<rect x="122.661" y="105.661" class="st36" width="12.383" height="0.076"/>
			<rect x="122.661" y="105.585" class="st37" width="12.383" height="0.076"/>
			<rect x="122.661" y="105.509" class="st38" width="12.383" height="0.076"/>
			<rect x="122.661" y="105.433" class="st39" width="12.383" height="0.076"/>
			<rect x="122.661" y="105.357" class="st40" width="12.383" height="0.076"/>
			<rect x="122.661" y="105.281" class="st41" width="12.383" height="0.076"/>
			<rect x="122.661" y="105.205" class="st42" width="12.383" height="0.076"/>
			<rect x="122.661" y="105.129" class="st43" width="12.383" height="0.076"/>
			<rect x="122.661" y="105.053" class="st44" width="12.383" height="0.076"/>
			<rect x="122.661" y="104.977" class="st45" width="12.383" height="0.076"/>
			<rect x="122.661" y="104.901" class="st46" width="12.383" height="0.076"/>
			<rect x="122.661" y="104.825" class="st47" width="12.383" height="0.076"/>
			<rect x="122.661" y="104.749" class="st48" width="12.383" height="0.076"/>
			<rect x="122.661" y="104.673" class="st49" width="12.383" height="0.076"/>
			<rect x="122.661" y="104.597" class="st50" width="12.383" height="0.076"/>
			<rect x="122.661" y="104.521" class="st51" width="12.383" height="0.076"/>
			<rect x="122.661" y="104.445" class="st52" width="12.383" height="0.076"/>
			<rect x="122.661" y="104.369" class="st53" width="12.383" height="0.076"/>
			<rect x="122.661" y="104.293" class="st54" width="12.383" height="0.076"/>
			<rect x="122.661" y="104.217" class="st55" width="12.383" height="0.076"/>
			<rect x="122.661" y="104.141" class="st56" width="12.383" height="0.076"/>
			<rect x="122.661" y="104.065" class="st57" width="12.383" height="0.076"/>
			<rect x="122.661" y="103.989" class="st58" width="12.383" height="0.076"/>
			<rect x="122.661" y="103.913" class="st59" width="12.383" height="0.076"/>
			<rect x="122.661" y="103.837" class="st60" width="12.383" height="0.076"/>
			<rect x="122.661" y="103.761" class="st61" width="12.383" height="0.076"/>
			<rect x="122.661" y="103.685" class="st62" width="12.383" height="0.076"/>
			<rect x="122.661" y="103.609" class="st63" width="12.383" height="0.076"/>
			<rect x="122.661" y="103.533" class="st64" width="12.383" height="0.076"/>
			<rect x="122.661" y="103.457" class="st65" width="12.383" height="0.076"/>
			<rect x="122.661" y="103.381" class="st66" width="12.383" height="0.076"/>
			<rect x="122.661" y="103.305" class="st67" width="12.383" height="0.076"/>
			<rect x="122.661" y="103.229" class="st68" width="12.383" height="0.076"/>
			<rect x="122.661" y="103.153" class="st69" width="12.383" height="0.076"/>
			<rect x="122.661" y="103.077" class="st70" width="12.383" height="0.076"/>
			<rect x="122.661" y="103.001" class="st71" width="12.383" height="0.076"/>
			<rect x="122.661" y="102.925" class="st72" width="12.383" height="0.076"/>
			<rect x="122.661" y="102.849" class="st73" width="12.383" height="0.076"/>
			<rect x="122.661" y="102.773" class="st74" width="12.383" height="0.076"/>
			<rect x="122.661" y="102.697" class="st75" width="12.383" height="0.076"/>
			<rect x="122.661" y="102.621" class="st76" width="12.383" height="0.076"/>
			<rect x="122.661" y="102.545" class="st77" width="12.383" height="0.076"/>
			<rect x="122.661" y="102.469" class="st78" width="12.383" height="0.076"/>
			<rect x="122.661" y="102.393" class="st79" width="12.383" height="0.076"/>
			<rect x="122.661" y="102.317" class="st80" width="12.383" height="0.076"/>
			<rect x="122.661" y="102.241" class="st81" width="12.383" height="0.076"/>
			<rect x="122.661" y="102.165" class="st82" width="12.383" height="0.076"/>
			<rect x="122.661" y="102.089" class="st83" width="12.383" height="0.076"/>
			<rect x="122.661" y="102.013" class="st84" width="12.383" height="0.076"/>
			<rect x="122.661" y="101.937" class="st85" width="12.383" height="0.076"/>
			<rect x="122.661" y="101.861" class="st86" width="12.383" height="0.076"/>
			<rect x="122.661" y="101.785" class="st87" width="12.383" height="0.076"/>
			<rect x="122.661" y="101.71" class="st88" width="12.383" height="0.076"/>
			<rect x="122.661" y="101.634" class="st89" width="12.383" height="0.076"/>
			<rect x="122.661" y="101.558" class="st90" width="12.383" height="0.076"/>
			<rect x="122.661" y="101.482" class="st91" width="12.383" height="0.076"/>
			<rect x="122.661" y="101.406" class="st92" width="12.383" height="0.076"/>
			<rect x="122.661" y="101.33" class="st93" width="12.383" height="0.076"/>
			<rect x="122.661" y="101.254" class="st94" width="12.383" height="0.076"/>
			<rect x="122.661" y="101.178" class="st95" width="12.383" height="0.076"/>
			<rect x="122.661" y="101.102" class="st96" width="12.383" height="0.076"/>
			<rect x="122.661" y="101.026" class="st97" width="12.383" height="0.076"/>
			<rect x="122.661" y="100.95" class="st98" width="12.383" height="0.076"/>
			<rect x="122.661" y="100.874" class="st99" width="12.383" height="0.076"/>
			<rect x="122.661" y="100.798" class="st100" width="12.383" height="0.076"/>
			<rect x="122.661" y="100.722" class="st101" width="12.383" height="0.076"/>
			<rect x="122.661" y="100.646" class="st102" width="12.383" height="0.076"/>
			<rect x="122.661" y="100.57" class="st103" width="12.383" height="0.076"/>
			<rect x="122.661" y="100.494" class="st104" width="12.383" height="0.076"/>
			<rect x="122.661" y="100.418" class="st105" width="12.383" height="0.076"/>
			<rect x="122.661" y="100.342" class="st106" width="12.383" height="0.076"/>
			<rect x="122.661" y="100.266" class="st107" width="12.383" height="0.076"/>
			<rect x="122.661" y="100.19" class="st108" width="12.383" height="0.076"/>
			<rect x="122.661" y="100.114" class="st109" width="12.383" height="0.076"/>
			<rect x="122.661" y="100.038" class="st110" width="12.383" height="0.076"/>
			<rect x="122.661" y="99.962" class="st111" width="12.383" height="0.076"/>
			<rect x="122.661" y="99.886" class="st112" width="12.383" height="0.076"/>
			<rect x="122.661" y="99.81" class="st113" width="12.383" height="0.076"/>
			<rect x="122.661" y="99.734" class="st114" width="12.383" height="0.076"/>
			<rect x="122.661" y="99.658" class="st115" width="12.383" height="0.076"/>
			<rect x="122.661" y="99.582" class="st116" width="12.383" height="0.076"/>
			<rect x="122.661" y="99.506" class="st117" width="12.383" height="0.076"/>
			<rect x="122.661" y="99.43" class="st118" width="12.383" height="0.076"/>
			<rect x="122.661" y="99.354" class="st119" width="12.383" height="0.076"/>
			<rect x="122.661" y="99.278" class="st120" width="12.383" height="0.076"/>
			<rect x="122.661" y="99.202" class="st121" width="12.383" height="0.076"/>
			<rect x="122.661" y="99.126" class="st122" width="12.383" height="0.076"/>
			<rect x="122.661" y="99.05" class="st123" width="12.383" height="0.076"/>
			<rect x="122.661" y="98.974" class="st124" width="12.383" height="0.076"/>
			<rect x="122.661" y="98.898" class="st125" width="12.383" height="0.076"/>
			<rect x="122.661" y="98.822" class="st126" width="12.383" height="0.076"/>
			<rect x="122.661" y="98.746" class="st127" width="12.383" height="0.076"/>
			<rect x="122.661" y="98.67" class="st128" width="12.383" height="0.076"/>
			<rect x="122.661" y="98.594" class="st129" width="12.383" height="0.076"/>
			<rect x="122.661" y="98.518" class="st130" width="12.383" height="0.076"/>
			<rect x="122.661" y="98.442" class="st131" width="12.383" height="0.076"/>
			<rect x="122.661" y="98.366" class="st132" width="12.383" height="0.076"/>
			<rect x="122.661" y="98.29" class="st133" width="12.383" height="0.076"/>
			<rect x="122.661" y="98.214" class="st134" width="12.383" height="0.076"/>
			<rect x="122.661" y="98.138" class="st135" width="12.383" height="0.076"/>
			<rect x="122.661" y="98.062" class="st136" width="12.383" height="0.076"/>
			<rect x="122.661" y="97.986" class="st137" width="12.383" height="0.076"/>
			<rect x="122.661" y="97.91" class="st138" width="12.383" height="0.076"/>
			<rect x="122.661" y="97.834" class="st139" width="12.383" height="0.076"/>
			<rect x="122.661" y="97.758" class="st140" width="12.383" height="0.076"/>
			<rect x="122.661" y="97.682" class="st141" width="12.383" height="0.076"/>
			<rect x="122.661" y="97.606" class="st142" width="12.383" height="0.076"/>
			<rect x="122.661" y="97.53" class="st143" width="12.383" height="0.076"/>
			<rect x="122.661" y="97.454" class="st144" width="12.383" height="0.076"/>
			<rect x="122.661" y="97.378" class="st145" width="12.383" height="0.076"/>
			<rect x="122.661" y="97.302" class="st146" width="12.383" height="0.076"/>
			<rect x="122.661" y="97.226" class="st147" width="12.383" height="0.076"/>
			<rect x="122.661" y="97.15" class="st148" width="12.383" height="0.076"/>
			<rect x="122.661" y="97.074" class="st149" width="12.383" height="0.076"/>
			<rect x="122.661" y="96.998" class="st150" width="12.383" height="0.076"/>
			<rect x="122.661" y="96.923" class="st151" width="12.383" height="0.076"/>
			<rect x="122.661" y="96.847" class="st152" width="12.383" height="0.076"/>
			<rect x="122.661" y="96.771" class="st153" width="12.383" height="0.076"/>
			<rect x="122.661" y="96.695" class="st154" width="12.383" height="0.076"/>
			<rect x="122.661" y="96.619" class="st155" width="12.383" height="0.076"/>
			<rect x="122.661" y="96.543" class="st156" width="12.383" height="0.076"/>
			<rect x="122.661" y="96.467" class="st157" width="12.383" height="0.076"/>
			<rect x="122.661" y="96.391" class="st158" width="12.383" height="0.076"/>
			<rect x="122.661" y="96.315" class="st159" width="12.383" height="0.076"/>
			<rect x="122.661" y="96.239" class="st160" width="12.383" height="0.076"/>
			<rect x="122.661" y="96.163" class="st161" width="12.383" height="0.076"/>
			<rect x="122.661" y="96.087" class="st162" width="12.383" height="0.076"/>
			<rect x="122.661" y="96.011" class="st163" width="12.383" height="0.076"/>
			<rect x="122.661" y="95.935" class="st164" width="12.383" height="0.076"/>
			<rect x="122.661" y="95.859" class="st165" width="12.383" height="0.076"/>
			<rect x="122.661" y="95.783" class="st166" width="12.383" height="0.076"/>
			<rect x="122.661" y="95.707" class="st167" width="12.383" height="0.076"/>
			<rect x="122.661" y="95.631" class="st168" width="12.383" height="0.076"/>
			<rect x="122.661" y="95.555" class="st169" width="12.383" height="0.076"/>
			<rect x="122.661" y="95.479" class="st170" width="12.383" height="0.076"/>
			<rect x="122.661" y="95.403" class="st171" width="12.383" height="0.076"/>
			<rect x="122.661" y="95.327" class="st172" width="12.383" height="0.076"/>
			<rect x="122.661" y="95.251" class="st173" width="12.383" height="0.076"/>
			<rect x="122.661" y="95.175" class="st174" width="12.383" height="0.076"/>
			<rect x="122.661" y="95.099" class="st175" width="12.383" height="0.076"/>
			<rect x="122.661" y="95.023" class="st176" width="12.383" height="0.076"/>
			<rect x="122.661" y="94.947" class="st177" width="12.383" height="0.076"/>
			<rect x="122.661" y="94.871" class="st178" width="12.383" height="0.076"/>
			<rect x="122.661" y="94.795" class="st179" width="12.383" height="0.076"/>
			<rect x="122.661" y="94.266" class="st179" width="12.383" height="0.529"/>
		</g>
	</g>
	<g>
		<circle class="st6" cx="24.75" cy="125.188" r="2.383"/>
	</g>
	<g>
		<defs>
			<rect id="SVGID_3_" x="53.507" y="83.019" width="45.656" height="32.712"/>
		</defs>
		<clipPath id="SVGID_4_">
			<use xlink:href="#SVGID_3_"  style="overflow:visible;"/>
		</clipPath>
		<g class="st180">
			<path class="st181" d="M72.016,89.175c0.155,0,0.289,0.022,0.401,0.067c0.113,0.044,0.205,0.104,0.279,0.178
				c0.073,0.072,0.128,0.155,0.163,0.248c0.037,0.092,0.054,0.184,0.054,0.277h-0.445c0-0.102-0.039-0.186-0.119-0.253
				c-0.08-0.069-0.191-0.101-0.332-0.101c-0.058,0-0.116,0.006-0.171,0.017c-0.055,0.012-0.105,0.028-0.146,0.051
				c-0.044,0.022-0.077,0.051-0.102,0.085c-0.024,0.033-0.037,0.073-0.037,0.118c0,0.081,0.041,0.141,0.123,0.18
				c0.082,0.039,0.214,0.077,0.394,0.112c0.139,0.027,0.265,0.058,0.376,0.093c0.111,0.035,0.206,0.079,0.285,0.133
				c0.079,0.054,0.14,0.121,0.182,0.202c0.042,0.082,0.064,0.182,0.064,0.301c0,0.112-0.022,0.214-0.068,0.306
				c-0.045,0.091-0.109,0.168-0.193,0.233c-0.085,0.064-0.187,0.113-0.306,0.147c-0.119,0.033-0.253,0.049-0.401,0.049
				c-0.115,0-0.23-0.015-0.344-0.049c-0.115-0.032-0.218-0.081-0.309-0.148c-0.092-0.067-0.166-0.152-0.221-0.254
				c-0.056-0.103-0.084-0.225-0.084-0.367h0.445c0,0.07,0.015,0.13,0.047,0.18c0.031,0.051,0.072,0.093,0.122,0.126
				c0.049,0.034,0.104,0.06,0.165,0.076c0.061,0.017,0.121,0.026,0.179,0.026c0.063,0,0.126-0.006,0.189-0.017
				c0.062-0.011,0.119-0.03,0.168-0.055c0.049-0.026,0.09-0.058,0.121-0.099c0.03-0.038,0.045-0.086,0.045-0.143
				c0-0.036-0.008-0.071-0.025-0.101c-0.017-0.031-0.048-0.06-0.09-0.087c-0.043-0.025-0.1-0.05-0.171-0.072
				c-0.071-0.022-0.16-0.044-0.268-0.064c-0.107-0.02-0.214-0.045-0.318-0.076c-0.105-0.03-0.198-0.072-0.279-0.125
				c-0.08-0.053-0.146-0.12-0.197-0.203c-0.051-0.082-0.076-0.186-0.076-0.312c0-0.101,0.021-0.193,0.064-0.277
				c0.043-0.083,0.103-0.155,0.182-0.214c0.079-0.059,0.174-0.107,0.284-0.141C71.754,89.192,71.878,89.175,72.016,89.175"/>
		</g>
		<g class="st180">
			<path class="st181" d="M81.282,90.89c0,0.105-0.017,0.201-0.051,0.285c-0.033,0.085-0.083,0.157-0.146,0.216
				c-0.064,0.06-0.142,0.107-0.233,0.139c-0.091,0.032-0.193,0.049-0.306,0.049h-1.14v-2.342h1.08c0.237,0,0.413,0.056,0.53,0.168
				c0.117,0.113,0.175,0.268,0.175,0.467c0,0.098-0.019,0.187-0.06,0.264c-0.04,0.078-0.098,0.143-0.169,0.193
				c0.101,0.053,0.181,0.124,0.237,0.219C81.255,90.641,81.282,90.755,81.282,90.89 M79.851,89.641v0.516h0.635
				c0.076,0,0.141-0.023,0.194-0.07c0.052-0.047,0.079-0.11,0.079-0.189c0-0.078-0.025-0.141-0.072-0.187
				c-0.049-0.046-0.116-0.069-0.201-0.069H79.851z M80.826,90.873c0-0.099-0.029-0.175-0.089-0.228
				c-0.06-0.053-0.148-0.08-0.263-0.08h-0.624v0.605h0.635c0.043,0,0.084-0.005,0.125-0.014c0.04-0.009,0.077-0.024,0.109-0.048
				c0.033-0.024,0.059-0.055,0.078-0.091C80.818,90.979,80.826,90.932,80.826,90.873"/>
		</g>
		<g class="st180">
			<rect x="72.932" y="95.851" class="st181" width="6.443" height="0.932"/>
		</g>
		<g class="st180">
			<polygon class="st181" points="67.763,97.444 67.763,84.067 81.631,84.067 81.631,83.019 66.715,83.019 66.715,97.444 			"/>
		</g>
		<g class="st180">
			<polygon class="st181" points="84.511,87.568 84.511,100.815 70.932,100.815 70.932,101.864 85.559,101.864 85.559,87.568 			"/>
		</g>
		<g class="st180">
			<path class="st181" d="M63.356,113.468h-1.187v-0.443c-0.15,0.176-0.329,0.313-0.537,0.41c-0.207,0.097-0.44,0.146-0.696,0.146
				c-0.289,0-0.551-0.051-0.787-0.155c-0.235-0.104-0.436-0.248-0.602-0.433c-0.167-0.186-0.295-0.408-0.386-0.668
				c-0.091-0.261-0.137-0.551-0.137-0.871v-2.834h1.243v2.834c0,0.069,0.01,0.157,0.028,0.263c0.019,0.107,0.06,0.212,0.122,0.316
				c0.063,0.103,0.154,0.191,0.273,0.263c0.119,0.072,0.28,0.108,0.48,0.108c0.282,0,0.51-0.091,0.683-0.273
				c0.172-0.182,0.259-0.408,0.259-0.678v-2.834h1.243V113.468z"/>
		</g>
		<g class="st180">
			<path class="st181" d="M67.517,109.729c-0.251-0.031-0.477-0.026-0.678,0.015c-0.2,0.04-0.373,0.136-0.517,0.287
				c-0.132,0.138-0.217,0.3-0.254,0.485c-0.038,0.185-0.057,0.375-0.057,0.569v2.382h-1.243v-4.849h1.186v0.48
				c0.201-0.245,0.438-0.415,0.711-0.508c0.273-0.094,0.558-0.117,0.852-0.066V109.729z"/>
		</g>
		<g class="st180">
			<polygon class="st181" points="71.284,113.468 69.947,113.468 68.111,108.619 69.41,108.619 70.616,112.235 71.83,108.619 
				73.11,108.619 			"/>
		</g>
		<g class="st180">
			<path class="st181" d="M74.946,111.528c0.081,0.302,0.23,0.537,0.447,0.707c0.216,0.169,0.472,0.254,0.767,0.254
				c0.207,0,0.403-0.046,0.589-0.137c0.185-0.091,0.331-0.234,0.438-0.428h1.327c-0.144,0.496-0.418,0.895-0.824,1.2
				c-0.405,0.304-0.911,0.457-1.521,0.457c-0.339,0-0.659-0.066-0.96-0.198c-0.301-0.132-0.565-0.313-0.791-0.542
				c-0.226-0.229-0.405-0.497-0.536-0.805c-0.132-0.307-0.198-0.637-0.198-0.988c0-0.351,0.066-0.683,0.198-0.993
				c0.131-0.311,0.31-0.581,0.536-0.81c0.227-0.229,0.49-0.411,0.791-0.546c0.302-0.135,0.621-0.202,0.96-0.202
				c0.357,0,0.695,0.067,1.012,0.202c0.316,0.135,0.589,0.333,0.815,0.594c0.226,0.261,0.395,0.578,0.508,0.956
				c0.113,0.376,0.147,0.803,0.103,1.28H74.946z M77.375,110.511c-0.075-0.282-0.221-0.506-0.438-0.673
				c-0.216-0.166-0.475-0.25-0.777-0.25c-0.282,0-0.531,0.083-0.743,0.25c-0.214,0.167-0.365,0.391-0.453,0.673H77.375z"/>
		</g>
		<g class="st180">
			<path class="st181" d="M82.046,114.353c-0.119,0.314-0.254,0.565-0.405,0.754c-0.15,0.188-0.318,0.331-0.503,0.428
				c-0.185,0.097-0.39,0.157-0.612,0.178c-0.223,0.022-0.46,0.024-0.711,0.005v-1.13c0.157,0.012,0.293,0.01,0.41-0.01
				c0.116-0.019,0.218-0.053,0.306-0.104c0.087-0.05,0.164-0.12,0.23-0.211c0.066-0.091,0.124-0.206,0.174-0.344l0.142-0.368
				l-1.874-4.933h1.318l1.187,3.502l1.158-3.502h1.328L82.046,114.353z"/>
		</g>
		<g class="st180">
			<path class="st181" d="M93.316,108.496c0.338,0,0.656,0.064,0.951,0.193c0.295,0.128,0.554,0.307,0.777,0.537
				c0.222,0.229,0.398,0.499,0.527,0.809c0.129,0.311,0.193,0.648,0.193,1.012c0,0.365-0.064,0.7-0.193,1.008
				c-0.129,0.307-0.305,0.574-0.527,0.8c-0.223,0.227-0.483,0.404-0.777,0.532c-0.295,0.129-0.612,0.193-0.951,0.193
				c-0.339,0-0.656-0.064-0.951-0.193c-0.295-0.128-0.553-0.306-0.772-0.532c-0.22-0.226-0.393-0.492-0.522-0.8
				c-0.128-0.308-0.193-0.643-0.193-1.008c0-0.364,0.065-0.701,0.193-1.012c0.129-0.311,0.303-0.58,0.522-0.809
				c0.22-0.23,0.477-0.408,0.772-0.537C92.66,108.561,92.977,108.496,93.316,108.496 M93.321,112.441
				c0.164,0,0.318-0.032,0.463-0.098c0.145-0.066,0.272-0.16,0.382-0.282c0.11-0.122,0.198-0.268,0.261-0.438
				c0.063-0.169,0.094-0.358,0.094-0.565c0-0.207-0.031-0.399-0.094-0.574c-0.063-0.175-0.15-0.327-0.261-0.452
				c-0.11-0.126-0.237-0.223-0.382-0.292c-0.145-0.069-0.299-0.103-0.463-0.103c-0.164,0-0.32,0.035-0.467,0.103
				c-0.148,0.069-0.277,0.166-0.383,0.292c-0.107,0.125-0.193,0.277-0.255,0.452c-0.063,0.176-0.094,0.367-0.094,0.574
				c0,0.207,0.031,0.395,0.094,0.565c0.063,0.169,0.148,0.316,0.255,0.438c0.107,0.123,0.235,0.216,0.383,0.282
				C93.001,112.409,93.156,112.441,93.321,112.441"/>
		</g>
		<g class="st180">
			<path class="st181" d="M99.163,113.459c-0.358,0.037-0.672,0.015-0.942-0.066c-0.27-0.081-0.496-0.214-0.678-0.395
				c-0.182-0.182-0.32-0.407-0.414-0.673c-0.094-0.267-0.141-0.567-0.141-0.9v-1.704h-0.583v-1.101h0.583v-1.234h1.243v1.234h0.876
				v1.101H98.23v1.714c0,0.338,0.077,0.578,0.231,0.715c0.153,0.138,0.388,0.198,0.702,0.179V113.459z"/>
		</g>
		<g class="st180">
			<path class="st181" d="M57.768,111.288c-0.104-0.172-0.247-0.314-0.429-0.424c-0.182-0.11-0.4-0.197-0.655-0.263
				c-0.254-0.066-0.531-0.125-0.833-0.175c-0.302-0.05-0.537-0.103-0.707-0.16c-0.169-0.057-0.254-0.148-0.254-0.273
				c0-0.088,0.063-0.175,0.189-0.259c0.125-0.085,0.332-0.127,0.621-0.127c0.232,0,0.416,0.039,0.551,0.118
				c0.135,0.079,0.221,0.174,0.259,0.288h1.29c-0.038-0.226-0.116-0.434-0.236-0.622c-0.119-0.188-0.272-0.349-0.456-0.48
				c-0.185-0.132-0.397-0.234-0.636-0.306c-0.237-0.072-0.496-0.109-0.772-0.109c-0.245,0-0.467,0.023-0.668,0.067v1.021h-1.316
				c-0.058,0.155-0.088,0.31-0.088,0.465c0,0.27,0.064,0.492,0.194,0.664c0.129,0.173,0.293,0.313,0.496,0.419
				c0.201,0.107,0.42,0.187,0.657,0.24c0.236,0.054,0.464,0.096,0.684,0.127c0.214,0.031,0.388,0.064,0.52,0.099
				c0.132,0.035,0.236,0.071,0.312,0.109c0.075,0.037,0.125,0.082,0.15,0.132c0.026,0.051,0.038,0.11,0.038,0.18
				c0,0.144-0.083,0.252-0.25,0.324c-0.166,0.072-0.375,0.108-0.626,0.108c-0.094,0-0.193-0.01-0.297-0.028
				c-0.103-0.019-0.202-0.052-0.296-0.099c-0.094-0.048-0.18-0.106-0.259-0.175c-0.079-0.069-0.14-0.156-0.184-0.263h-1.262
				c0.037,0.263,0.121,0.499,0.25,0.706c0.128,0.207,0.293,0.384,0.494,0.532c0.2,0.148,0.433,0.26,0.696,0.339
				c0.264,0.078,0.549,0.117,0.857,0.117c0.307,0,0.591-0.04,0.851-0.122c0.26-0.082,0.483-0.194,0.669-0.34
				c0.187-0.144,0.334-0.317,0.44-0.518c0.107-0.2,0.159-0.42,0.159-0.659C57.923,111.678,57.871,111.461,57.768,111.288"/>
		</g>
		<g class="st180">
			<path class="st181" d="M89.846,110.039c-0.123-0.311-0.287-0.58-0.494-0.806c-0.207-0.227-0.451-0.404-0.73-0.533
				c-0.279-0.129-0.579-0.194-0.899-0.194c-0.283,0-0.545,0.049-0.786,0.147c-0.242,0.099-0.454,0.239-0.636,0.423l-0.006-1.714
				h-1.247v4.604h1.236v1.027c0.178,0.178,0.381,0.319,0.612,0.418c0.252,0.107,0.526,0.162,0.821,0.162
				c0.321,0,0.621-0.065,0.902-0.194c0.28-0.128,0.524-0.306,0.732-0.533c0.207-0.226,0.372-0.493,0.496-0.802
				c0.123-0.307,0.184-0.641,0.184-0.999C90.031,110.685,89.969,110.35,89.846,110.039 M88.688,111.592
				c-0.066,0.166-0.155,0.309-0.269,0.432c-0.114,0.121-0.246,0.218-0.397,0.286c-0.151,0.069-0.312,0.104-0.482,0.104
				c-0.17,0-0.331-0.037-0.482-0.109c-0.151-0.072-0.284-0.169-0.397-0.291c-0.113-0.122-0.203-0.266-0.269-0.431
				c-0.066-0.167-0.099-0.343-0.099-0.53c0-0.194,0.033-0.376,0.099-0.544c0.066-0.169,0.156-0.316,0.269-0.441
				c0.114-0.125,0.246-0.224,0.397-0.295c0.152-0.073,0.312-0.108,0.482-0.108c0.17,0,0.331,0.036,0.482,0.108
				c0.152,0.071,0.284,0.168,0.397,0.29c0.114,0.122,0.203,0.269,0.269,0.441c0.066,0.172,0.1,0.356,0.1,0.549
				C88.787,111.247,88.754,111.427,88.688,111.592"/>
		</g>
	</g>
	<g class="st182">
		<path class="st183" d="M117.505,128.019c1.097-0.899,1.784-2.167,1.784-3.576V76.472c0-2.725-2.558-4.935-5.717-4.935H34.959
			c-1.365,0-2.616,0.414-3.599,1.103L117.505,128.019z"/>
	</g>
</g>
</svg>
