<?xml version="1.0" encoding="utf-8"?>
<!-- Generator: Adobe Illustrator 20.0.0, SVG Export Plug-In . SVG Version: 6.00 Build 0)  -->
<svg version="1.1" id="Layer_1" xmlns="http://www.w3.org/2000/svg" xmlns:xlink="http://www.w3.org/1999/xlink" x="0px" y="0px"
	 width="172.362px" height="915.549px" viewBox="0 0 172.362 915.549" style="enable-background:new 0 0 172.362 915.549;"
	 xml:space="preserve">
<style type="text/css">
	.st0{fill:#EAC452;}
	.st1{fill:#70D0F6;}
	.st2{fill:#DC594C;}
	.st3{fill:#2B2B2B;}
	.st4{fill-rule:evenodd;clip-rule:evenodd;fill:#2B2B2B;}
	.st5{opacity:0.25;fill:#3B3B3B;}
	.st6{opacity:0.3;}
	.st7{fill:#231F20;}
	.st8{fill:#FFFFFF;}
	.st9{fill:#E2EAED;}
	.st10{fill:#3E516A;}
	.st11{fill:#2B3D51;}
	.st12{fill:#BCBEC0;}
	.st13{fill:#0A2847;}
	.st14{fill:#A0A4A7;}
	.st15{fill:#797D82;}
	.st16{fill:#E0DADB;}
	.st17{opacity:0.2;}
	.st18{fill:#F15D4E;}
	.st19{fill:#2F4955;}
	.st20{fill:#021A36;}
	.st21{fill:#F04836;}
	.st22{fill:#011F3A;}
	.st23{fill:#939598;}
	.st24{fill:#6D6E71;}
	.st25{fill:#58595B;}
	.st26{clip-path:url(#SVGID_2_);fill:#FFFFFF;}
	.st27{clip-path:url(#SVGID_2_);fill:#FEFEFE;}
	.st28{clip-path:url(#SVGID_2_);fill:#FDFDFD;}
	.st29{clip-path:url(#SVGID_2_);fill:#FCFCFC;}
	.st30{clip-path:url(#SVGID_2_);fill:#FBFBFB;}
	.st31{clip-path:url(#SVGID_2_);fill:#FAFAFA;}
	.st32{clip-path:url(#SVGID_2_);fill:#F9F9F9;}
	.st33{clip-path:url(#SVGID_2_);fill:#F8F8F8;}
	.st34{clip-path:url(#SVGID_2_);fill:#F7F7F7;}
	.st35{clip-path:url(#SVGID_2_);fill:#F6F6F6;}
	.st36{clip-path:url(#SVGID_2_);fill:#F5F5F5;}
	.st37{clip-path:url(#SVGID_2_);fill:#F4F4F4;}
	.st38{clip-path:url(#SVGID_2_);fill:#F3F3F3;}
	.st39{clip-path:url(#SVGID_2_);fill:#F2F2F2;}
	.st40{clip-path:url(#SVGID_2_);fill:#F1F1F1;}
	.st41{clip-path:url(#SVGID_2_);fill:#F0F0F0;}
	.st42{clip-path:url(#SVGID_2_);fill:#EFEFEF;}
	.st43{clip-path:url(#SVGID_2_);fill:#EEEEEE;}
	.st44{clip-path:url(#SVGID_2_);fill:#EDEDED;}
	.st45{clip-path:url(#SVGID_2_);fill:#ECECEC;}
	.st46{clip-path:url(#SVGID_2_);fill:#EBEBEB;}
	.st47{clip-path:url(#SVGID_2_);fill:#EAEAEA;}
	.st48{clip-path:url(#SVGID_2_);fill:#E9E9E9;}
	.st49{clip-path:url(#SVGID_2_);fill:#E8E8E8;}
	.st50{clip-path:url(#SVGID_2_);fill:#E7E7E7;}
	.st51{clip-path:url(#SVGID_2_);fill:#E6E6E6;}
	.st52{clip-path:url(#SVGID_2_);fill:#E5E5E5;}
	.st53{clip-path:url(#SVGID_2_);fill:#E4E4E4;}
	.st54{clip-path:url(#SVGID_2_);fill:#E3E3E3;}
	.st55{clip-path:url(#SVGID_2_);fill:#E2E2E2;}
	.st56{clip-path:url(#SVGID_2_);fill:#E1E1E1;}
	.st57{clip-path:url(#SVGID_2_);fill:#E0E0E0;}
	.st58{clip-path:url(#SVGID_2_);fill:#DFDFDF;}
	.st59{clip-path:url(#SVGID_2_);fill:#DEDEDE;}
	.st60{clip-path:url(#SVGID_2_);fill:#DDDDDD;}
	.st61{clip-path:url(#SVGID_2_);fill:#DCDCDC;}
	.st62{clip-path:url(#SVGID_2_);fill:#DBDBDB;}
	.st63{clip-path:url(#SVGID_2_);fill:#DADADA;}
	.st64{clip-path:url(#SVGID_2_);fill:#D9D9D9;}
	.st65{clip-path:url(#SVGID_2_);fill:#D8D8D9;}
	.st66{clip-path:url(#SVGID_2_);fill:#D7D7D8;}
	.st67{clip-path:url(#SVGID_2_);fill:#D6D6D7;}
	.st68{clip-path:url(#SVGID_2_);fill:#D5D5D6;}
	.st69{clip-path:url(#SVGID_2_);fill:#D4D4D5;}
	.st70{clip-path:url(#SVGID_2_);fill:#D3D3D4;}
	.st71{clip-path:url(#SVGID_2_);fill:#D2D2D3;}
	.st72{clip-path:url(#SVGID_2_);fill:#D1D1D2;}
	.st73{clip-path:url(#SVGID_2_);fill:#D0D0D1;}
	.st74{clip-path:url(#SVGID_2_);fill:#CFCFD0;}
	.st75{clip-path:url(#SVGID_2_);fill:#CECECF;}
	.st76{clip-path:url(#SVGID_2_);fill:#CDCDCE;}
	.st77{clip-path:url(#SVGID_2_);fill:#CCCCCD;}
	.st78{clip-path:url(#SVGID_2_);fill:#CBCBCC;}
	.st79{clip-path:url(#SVGID_2_);fill:#CACACB;}
	.st80{clip-path:url(#SVGID_2_);fill:#C9C9CA;}
	.st81{clip-path:url(#SVGID_2_);fill:#C8C8C9;}
	.st82{clip-path:url(#SVGID_2_);fill:#C7C7C8;}
	.st83{clip-path:url(#SVGID_2_);fill:#C6C6C7;}
	.st84{clip-path:url(#SVGID_2_);fill:#C5C5C6;}
	.st85{clip-path:url(#SVGID_2_);fill:#C4C4C5;}
	.st86{clip-path:url(#SVGID_2_);fill:#C3C3C4;}
	.st87{clip-path:url(#SVGID_2_);fill:#C2C2C3;}
	.st88{clip-path:url(#SVGID_2_);fill:#C1C1C2;}
	.st89{clip-path:url(#SVGID_2_);fill:#C0C0C1;}
	.st90{clip-path:url(#SVGID_2_);fill:#BFBFC0;}
	.st91{clip-path:url(#SVGID_2_);fill:#BEBEBF;}
	.st92{clip-path:url(#SVGID_2_);fill:#BDBDBE;}
	.st93{clip-path:url(#SVGID_2_);fill:#BCBCBD;}
	.st94{clip-path:url(#SVGID_2_);fill:#BBBBBC;}
	.st95{clip-path:url(#SVGID_2_);fill:#BABABB;}
	.st96{clip-path:url(#SVGID_2_);fill:#B9B9BA;}
	.st97{clip-path:url(#SVGID_2_);fill:#B8B8B9;}
	.st98{clip-path:url(#SVGID_2_);fill:#B7B7B8;}
	.st99{clip-path:url(#SVGID_2_);fill:#B6B6B7;}
	.st100{clip-path:url(#SVGID_2_);fill:#B5B5B6;}
	.st101{clip-path:url(#SVGID_2_);fill:#B4B4B5;}
	.st102{clip-path:url(#SVGID_2_);fill:#B3B3B4;}
	.st103{clip-path:url(#SVGID_2_);fill:#B2B2B3;}
	.st104{clip-path:url(#SVGID_2_);fill:#B0B1B2;}
	.st105{clip-path:url(#SVGID_2_);fill:#AFB0B1;}
	.st106{clip-path:url(#SVGID_2_);fill:#AEAFB0;}
	.st107{clip-path:url(#SVGID_2_);fill:#ADAEAF;}
	.st108{clip-path:url(#SVGID_2_);fill:#ACADAE;}
	.st109{clip-path:url(#SVGID_2_);fill:#ABACAD;}
	.st110{clip-path:url(#SVGID_2_);fill:#AAABAC;}
	.st111{clip-path:url(#SVGID_2_);fill:#A9AAAB;}
	.st112{clip-path:url(#SVGID_2_);fill:#A8A9AA;}
	.st113{clip-path:url(#SVGID_2_);fill:#A7A8A9;}
	.st114{clip-path:url(#SVGID_2_);fill:#A6A7A8;}
	.st115{clip-path:url(#SVGID_2_);fill:#A5A6A7;}
	.st116{clip-path:url(#SVGID_2_);fill:#A4A5A6;}
	.st117{clip-path:url(#SVGID_2_);fill:#A3A4A5;}
	.st118{clip-path:url(#SVGID_2_);fill:#A2A3A4;}
	.st119{clip-path:url(#SVGID_2_);fill:#A1A2A3;}
	.st120{clip-path:url(#SVGID_2_);fill:#A0A1A2;}
	.st121{clip-path:url(#SVGID_2_);fill:#9FA0A1;}
	.st122{clip-path:url(#SVGID_2_);fill:#9E9FA0;}
	.st123{clip-path:url(#SVGID_2_);fill:#9D9E9F;}
	.st124{clip-path:url(#SVGID_2_);fill:#9C9D9E;}
	.st125{clip-path:url(#SVGID_2_);fill:#9B9C9D;}
	.st126{clip-path:url(#SVGID_2_);fill:#9A9B9C;}
	.st127{clip-path:url(#SVGID_2_);fill:#999A9B;}
	.st128{clip-path:url(#SVGID_2_);fill:#98999A;}
	.st129{clip-path:url(#SVGID_2_);fill:#979899;}
	.st130{clip-path:url(#SVGID_2_);fill:#969798;}
	.st131{clip-path:url(#SVGID_2_);fill:#959697;}
	.st132{clip-path:url(#SVGID_2_);fill:#949596;}
	.st133{clip-path:url(#SVGID_2_);fill:#939495;}
	.st134{clip-path:url(#SVGID_2_);fill:#929394;}
	.st135{clip-path:url(#SVGID_2_);fill:#919293;}
	.st136{clip-path:url(#SVGID_2_);fill:#909192;}
	.st137{clip-path:url(#SVGID_2_);fill:#8F9091;}
	.st138{clip-path:url(#SVGID_2_);fill:#8E8F90;}
	.st139{clip-path:url(#SVGID_2_);fill:#8D8E8F;}
	.st140{clip-path:url(#SVGID_2_);fill:#8C8D8E;}
	.st141{clip-path:url(#SVGID_2_);fill:#8B8C8D;}
	.st142{clip-path:url(#SVGID_2_);fill:#8A8B8C;}
	.st143{clip-path:url(#SVGID_2_);fill:#898A8C;}
	.st144{clip-path:url(#SVGID_2_);fill:#88898B;}
	.st145{clip-path:url(#SVGID_2_);fill:#87888A;}
	.st146{clip-path:url(#SVGID_2_);fill:#868789;}
	.st147{clip-path:url(#SVGID_2_);fill:#858688;}
	.st148{clip-path:url(#SVGID_2_);fill:#848587;}
	.st149{clip-path:url(#SVGID_2_);fill:#838486;}
	.st150{clip-path:url(#SVGID_2_);fill:#828385;}
	.st151{clip-path:url(#SVGID_2_);fill:#818284;}
	.st152{clip-path:url(#SVGID_2_);fill:#808183;}
	.st153{clip-path:url(#SVGID_2_);fill:#7F8082;}
	.st154{clip-path:url(#SVGID_2_);fill:#7E7F81;}
	.st155{clip-path:url(#SVGID_2_);fill:#7D7E80;}
	.st156{clip-path:url(#SVGID_2_);fill:#7C7D7F;}
	.st157{clip-path:url(#SVGID_2_);fill:#7B7C7E;}
	.st158{clip-path:url(#SVGID_2_);fill:#7A7B7D;}
	.st159{clip-path:url(#SVGID_2_);fill:#797A7C;}
	.st160{clip-path:url(#SVGID_2_);fill:#78797B;}
	.st161{clip-path:url(#SVGID_2_);fill:#77787A;}
	.st162{clip-path:url(#SVGID_2_);fill:#767779;}
	.st163{clip-path:url(#SVGID_2_);fill:#757678;}
	.st164{clip-path:url(#SVGID_2_);fill:#747577;}
	.st165{clip-path:url(#SVGID_2_);fill:#737476;}
	.st166{clip-path:url(#SVGID_2_);fill:#727375;}
	.st167{clip-path:url(#SVGID_2_);fill:#717274;}
	.st168{clip-path:url(#SVGID_2_);fill:#707173;}
	.st169{clip-path:url(#SVGID_2_);fill:#6F7072;}
	.st170{clip-path:url(#SVGID_2_);fill:#6E6F71;}
	.st171{clip-path:url(#SVGID_2_);fill:#6D6E70;}
	.st172{clip-path:url(#SVGID_2_);fill:#6C6D6F;}
	.st173{clip-path:url(#SVGID_2_);fill:#6B6C6E;}
	.st174{clip-path:url(#SVGID_2_);fill:#6A6B6D;}
	.st175{clip-path:url(#SVGID_2_);fill:#696A6C;}
	.st176{clip-path:url(#SVGID_2_);fill:#68696B;}
	.st177{clip-path:url(#SVGID_2_);fill:#67686A;}
	.st178{clip-path:url(#SVGID_2_);fill:#666769;}
	.st179{clip-path:url(#SVGID_2_);fill:#656668;}
	.st180{clip-path:url(#SVGID_2_);fill:#646567;}
	.st181{clip-path:url(#SVGID_2_);fill:#636466;}
	.st182{clip-path:url(#SVGID_4_);}
	.st183{fill:#0A1820;}
	.st184{opacity:0.5;}
	.st185{fill:#E2E2E2;}
	.st186{fill:#010101;}
	.st187{opacity:0.37;fill:url(#SVGID_5_);}
	.st188{opacity:0.37;fill:url(#SVGID_6_);}
	.st189{opacity:0.37;fill:url(#SVGID_7_);}
	.st190{opacity:0.37;fill:url(#SVGID_8_);}
	.st191{opacity:0.37;fill:url(#SVGID_9_);}
	.st192{opacity:0.37;fill:url(#SVGID_10_);}
	.st193{fill:#DDEFF8;}
	.st194{fill:#37414B;}
	.st195{opacity:0.2;fill:#231F20;}
	.st196{fill:#EFEFEF;}
	.st197{fill:#1D396A;}
	.st198{fill:#D5DBDB;}
	.st199{fill:#DDEFF8;stroke:#1D396A;stroke-width:2;stroke-miterlimit:10;}
	.st200{fill:#44C5E1;stroke:#1D396A;stroke-width:2;stroke-miterlimit:10;}
	.st201{fill:#44C5E1;stroke:#1D396A;stroke-width:2;stroke-linecap:round;stroke-miterlimit:10;}
	.st202{fill:url(#SVGID_11_);}
	.st203{fill:#44C5E1;}
	.st204{fill:#FFFFFF;stroke:#1D396A;stroke-width:2;stroke-linecap:round;stroke-miterlimit:10;}
	.st205{fill:#D2D8D6;}
	.st206{fill:#EBF0F3;}
	.st207{fill:#F1F2F2;stroke:#1D396A;stroke-width:2;stroke-miterlimit:10;}
	.st208{fill:#F1F2F2;}
	.st209{fill:#FFFFFD;}
	.st210{fill:#D1D3D4;stroke:#1D396A;stroke-width:2;stroke-miterlimit:10;}
	.st211{fill:#D3CE24;stroke:#1D396A;stroke-width:2;stroke-miterlimit:10;}
	.st212{fill:#79B3D5;}
	.st213{fill:#26B898;}
	.st214{clip-path:url(#SVGID_13_);fill:#FFFFFF;}
	.st215{clip-path:url(#SVGID_13_);fill:#FEFEFE;}
	.st216{clip-path:url(#SVGID_13_);fill:#FCFCFC;}
	.st217{clip-path:url(#SVGID_13_);fill:#FBFBFB;}
	.st218{clip-path:url(#SVGID_13_);fill:#FAFAFA;}
	.st219{clip-path:url(#SVGID_13_);fill:#F9F9F9;}
	.st220{clip-path:url(#SVGID_13_);fill:#F8F8F8;}
	.st221{clip-path:url(#SVGID_13_);fill:#F7F7F7;}
	.st222{clip-path:url(#SVGID_13_);fill:#F6F6F6;}
	.st223{clip-path:url(#SVGID_13_);fill:#F5F5F5;}
	.st224{clip-path:url(#SVGID_13_);fill:#F4F4F4;}
	.st225{clip-path:url(#SVGID_13_);fill:#F3F3F3;}
	.st226{clip-path:url(#SVGID_13_);fill:#F2F2F2;}
	.st227{clip-path:url(#SVGID_13_);fill:#F1F1F1;}
	.st228{clip-path:url(#SVGID_13_);fill:#F0F0F0;}
	.st229{clip-path:url(#SVGID_13_);fill:#EFEFEF;}
	.st230{clip-path:url(#SVGID_13_);fill:#EEEEEE;}
	.st231{clip-path:url(#SVGID_13_);fill:#EDEDED;}
	.st232{clip-path:url(#SVGID_13_);fill:#ECECEC;}
	.st233{clip-path:url(#SVGID_13_);fill:#EBEBEB;}
	.st234{clip-path:url(#SVGID_13_);fill:#EAEAEA;}
	.st235{clip-path:url(#SVGID_13_);fill:#E9E9E9;}
	.st236{clip-path:url(#SVGID_13_);fill:#E8E8E8;}
	.st237{clip-path:url(#SVGID_13_);fill:#E7E7E7;}
	.st238{clip-path:url(#SVGID_13_);fill:#E6E6E6;}
	.st239{clip-path:url(#SVGID_13_);fill:#E5E5E5;}
	.st240{clip-path:url(#SVGID_13_);fill:#E4E4E4;}
	.st241{clip-path:url(#SVGID_13_);fill:#E3E3E3;}
	.st242{clip-path:url(#SVGID_13_);fill:#E2E2E2;}
	.st243{clip-path:url(#SVGID_13_);fill:#E1E1E1;}
	.st244{clip-path:url(#SVGID_13_);fill:#E0E0E0;}
	.st245{clip-path:url(#SVGID_13_);fill:#DFDFDF;}
	.st246{clip-path:url(#SVGID_13_);fill:#DEDEDE;}
	.st247{clip-path:url(#SVGID_13_);fill:#DDDDDD;}
	.st248{clip-path:url(#SVGID_13_);fill:#DCDCDC;}
	.st249{clip-path:url(#SVGID_13_);fill:#DBDBDB;}
	.st250{clip-path:url(#SVGID_13_);fill:#DADADA;}
	.st251{clip-path:url(#SVGID_13_);fill:#D9D9D9;}
	.st252{clip-path:url(#SVGID_13_);fill:#D8D8D8;}
	.st253{clip-path:url(#SVGID_13_);fill:#D7D7D7;}
	.st254{clip-path:url(#SVGID_13_);fill:#D6D6D6;}
	.st255{clip-path:url(#SVGID_13_);fill:#D5D5D5;}
	.st256{clip-path:url(#SVGID_13_);fill:#D4D4D5;}
	.st257{clip-path:url(#SVGID_13_);fill:#D3D3D4;}
	.st258{clip-path:url(#SVGID_13_);fill:#D2D2D3;}
	.st259{clip-path:url(#SVGID_13_);fill:#D1D1D2;}
	.st260{clip-path:url(#SVGID_13_);fill:#D0D0D1;}
	.st261{clip-path:url(#SVGID_13_);fill:#CFCFD0;}
	.st262{clip-path:url(#SVGID_13_);fill:#CECECF;}
	.st263{clip-path:url(#SVGID_13_);fill:#CDCDCE;}
	.st264{clip-path:url(#SVGID_13_);fill:#CCCCCD;}
	.st265{clip-path:url(#SVGID_13_);fill:#CBCBCC;}
	.st266{clip-path:url(#SVGID_13_);fill:#CACACB;}
	.st267{clip-path:url(#SVGID_13_);fill:#C9C9CA;}
	.st268{clip-path:url(#SVGID_13_);fill:#C8C8C9;}
	.st269{clip-path:url(#SVGID_13_);fill:#C7C7C8;}
	.st270{clip-path:url(#SVGID_13_);fill:#C6C6C7;}
	.st271{clip-path:url(#SVGID_13_);fill:#C5C5C6;}
	.st272{clip-path:url(#SVGID_13_);fill:#C4C4C5;}
	.st273{clip-path:url(#SVGID_13_);fill:#C3C3C4;}
	.st274{clip-path:url(#SVGID_13_);fill:#C2C2C3;}
	.st275{clip-path:url(#SVGID_13_);fill:#C1C1C2;}
	.st276{clip-path:url(#SVGID_13_);fill:#C0C0C1;}
	.st277{clip-path:url(#SVGID_13_);fill:#BFBFC0;}
	.st278{clip-path:url(#SVGID_13_);fill:#BEBEBF;}
	.st279{clip-path:url(#SVGID_13_);fill:#BDBDBE;}
	.st280{clip-path:url(#SVGID_13_);fill:#BCBCBD;}
	.st281{clip-path:url(#SVGID_13_);fill:#BBBBBC;}
	.st282{clip-path:url(#SVGID_13_);fill:#BABABB;}
	.st283{clip-path:url(#SVGID_13_);fill:#B9B9BA;}
	.st284{clip-path:url(#SVGID_13_);fill:#B8B8B9;}
	.st285{clip-path:url(#SVGID_13_);fill:#B7B7B8;}
	.st286{clip-path:url(#SVGID_13_);fill:#B6B6B7;}
	.st287{clip-path:url(#SVGID_13_);fill:#B5B5B6;}
	.st288{clip-path:url(#SVGID_13_);fill:#B4B4B5;}
	.st289{clip-path:url(#SVGID_13_);fill:#B3B3B4;}
	.st290{clip-path:url(#SVGID_13_);fill:#B2B2B3;}
	.st291{clip-path:url(#SVGID_13_);fill:#B1B1B2;}
	.st292{clip-path:url(#SVGID_13_);fill:#B0B0B1;}
	.st293{clip-path:url(#SVGID_13_);fill:#AFAFB0;}
	.st294{clip-path:url(#SVGID_13_);fill:#ADAEAF;}
	.st295{clip-path:url(#SVGID_13_);fill:#ACADAE;}
	.st296{clip-path:url(#SVGID_13_);fill:#ABACAD;}
	.st297{clip-path:url(#SVGID_13_);fill:#AAABAC;}
	.st298{clip-path:url(#SVGID_13_);fill:#A9AAAB;}
	.st299{clip-path:url(#SVGID_13_);fill:#A8A9AA;}
	.st300{clip-path:url(#SVGID_13_);fill:#A7A8A9;}
	.st301{clip-path:url(#SVGID_13_);fill:#A6A7A8;}
	.st302{clip-path:url(#SVGID_13_);fill:#A5A6A7;}
	.st303{clip-path:url(#SVGID_13_);fill:#A4A5A6;}
	.st304{clip-path:url(#SVGID_13_);fill:#A3A4A5;}
	.st305{clip-path:url(#SVGID_13_);fill:#A2A3A4;}
	.st306{clip-path:url(#SVGID_13_);fill:#A1A2A3;}
	.st307{clip-path:url(#SVGID_13_);fill:#A0A1A2;}
	.st308{clip-path:url(#SVGID_13_);fill:#9FA0A1;}
	.st309{clip-path:url(#SVGID_13_);fill:#9E9FA0;}
	.st310{clip-path:url(#SVGID_13_);fill:#9D9E9F;}
	.st311{clip-path:url(#SVGID_13_);fill:#9C9D9E;}
	.st312{clip-path:url(#SVGID_13_);fill:#9B9C9D;}
	.st313{clip-path:url(#SVGID_13_);fill:#9A9B9C;}
	.st314{clip-path:url(#SVGID_13_);fill:#999A9B;}
	.st315{clip-path:url(#SVGID_13_);fill:#98999A;}
	.st316{clip-path:url(#SVGID_13_);fill:#979899;}
	.st317{clip-path:url(#SVGID_13_);fill:#969798;}
	.st318{clip-path:url(#SVGID_13_);fill:#959697;}
	.st319{clip-path:url(#SVGID_13_);fill:#949596;}
	.st320{clip-path:url(#SVGID_13_);fill:#939495;}
	.st321{clip-path:url(#SVGID_13_);fill:#929394;}
	.st322{clip-path:url(#SVGID_13_);fill:#919293;}
	.st323{clip-path:url(#SVGID_13_);fill:#909192;}
	.st324{clip-path:url(#SVGID_13_);fill:#8F9091;}
	.st325{clip-path:url(#SVGID_13_);fill:#8E8F90;}
	.st326{clip-path:url(#SVGID_13_);fill:#8D8E8F;}
	.st327{clip-path:url(#SVGID_13_);fill:#8C8D8E;}
	.st328{clip-path:url(#SVGID_13_);fill:#8B8C8D;}
	.st329{clip-path:url(#SVGID_13_);fill:#8A8B8C;}
	.st330{clip-path:url(#SVGID_13_);fill:#898A8B;}
	.st331{clip-path:url(#SVGID_13_);fill:#88898B;}
	.st332{clip-path:url(#SVGID_13_);fill:#87888A;}
	.st333{clip-path:url(#SVGID_13_);fill:#868789;}
	.st334{clip-path:url(#SVGID_13_);fill:#858688;}
	.st335{clip-path:url(#SVGID_13_);fill:#848587;}
	.st336{clip-path:url(#SVGID_13_);fill:#838486;}
	.st337{clip-path:url(#SVGID_13_);fill:#828385;}
	.st338{clip-path:url(#SVGID_13_);fill:#818284;}
	.st339{clip-path:url(#SVGID_13_);fill:#808183;}
	.st340{clip-path:url(#SVGID_13_);fill:#7F8082;}
	.st341{clip-path:url(#SVGID_13_);fill:#7E7F81;}
	.st342{clip-path:url(#SVGID_13_);fill:#7D7E80;}
	.st343{clip-path:url(#SVGID_13_);fill:#7C7D7F;}
	.st344{clip-path:url(#SVGID_13_);fill:#7B7C7E;}
	.st345{clip-path:url(#SVGID_13_);fill:#7A7B7D;}
	.st346{clip-path:url(#SVGID_13_);fill:#797A7C;}
	.st347{clip-path:url(#SVGID_13_);fill:#78797B;}
	.st348{clip-path:url(#SVGID_13_);fill:#77787A;}
	.st349{clip-path:url(#SVGID_13_);fill:#767779;}
	.st350{clip-path:url(#SVGID_13_);fill:#757678;}
	.st351{clip-path:url(#SVGID_13_);fill:#747577;}
	.st352{clip-path:url(#SVGID_13_);fill:#737476;}
	.st353{clip-path:url(#SVGID_13_);fill:#727375;}
	.st354{clip-path:url(#SVGID_13_);fill:#717274;}
	.st355{clip-path:url(#SVGID_13_);fill:#707173;}
	.st356{clip-path:url(#SVGID_13_);fill:#6F7072;}
	.st357{clip-path:url(#SVGID_13_);fill:#6E6F71;}
	.st358{clip-path:url(#SVGID_13_);fill:#6D6E70;}
	.st359{clip-path:url(#SVGID_13_);fill:#6C6D6F;}
	.st360{clip-path:url(#SVGID_13_);fill:#6B6C6E;}
	.st361{clip-path:url(#SVGID_13_);fill:#6A6B6D;}
	.st362{clip-path:url(#SVGID_13_);fill:#696A6C;}
	.st363{clip-path:url(#SVGID_13_);fill:#68696B;}
	.st364{clip-path:url(#SVGID_13_);fill:#67686A;}
	.st365{clip-path:url(#SVGID_13_);fill:#666769;}
	.st366{clip-path:url(#SVGID_13_);fill:#656668;}
	.st367{clip-path:url(#SVGID_13_);fill:#646567;}
	.st368{clip-path:url(#SVGID_13_);fill:#636466;}
	.st369{clip-path:url(#SVGID_15_);}
	.st370{fill:#FEFEFE;}
	.st371{fill:#FCFCFC;}
	.st372{fill:#FBFBFB;}
	.st373{fill:#FAFAFA;}
	.st374{fill:#F9F9F9;}
	.st375{fill:#F8F8F8;}
	.st376{fill:#F7F7F7;}
	.st377{fill:#F6F6F6;}
	.st378{fill:#F5F5F5;}
	.st379{fill:#F4F4F4;}
	.st380{fill:#F3F3F3;}
	.st381{fill:#F2F2F2;}
	.st382{fill:#F1F1F1;}
	.st383{fill:#F0F0F0;}
	.st384{fill:#EEEEEE;}
	.st385{fill:#EDEDED;}
	.st386{fill:#ECECEC;}
	.st387{fill:#EBEBEB;}
	.st388{fill:#EAEAEA;}
	.st389{fill:#E9E9E9;}
	.st390{fill:#E8E8E8;}
	.st391{fill:#E7E7E7;}
	.st392{fill:#E6E6E6;}
	.st393{fill:#E5E5E5;}
	.st394{fill:#E4E4E4;}
	.st395{fill:#E3E3E3;}
	.st396{fill:#E1E1E1;}
	.st397{fill:#E0E0E0;}
	.st398{fill:#DFDFDF;}
	.st399{fill:#DEDEDE;}
	.st400{fill:#DDDDDD;}
	.st401{fill:#DCDCDC;}
	.st402{fill:#DBDBDB;}
	.st403{fill:#DADADA;}
	.st404{fill:#D9D9D9;}
	.st405{fill:#D8D8D8;}
	.st406{fill:#D7D7D7;}
	.st407{fill:#D6D6D6;}
	.st408{fill:#D5D5D5;}
	.st409{fill:#D4D4D5;}
	.st410{fill:#D3D3D4;}
	.st411{fill:#D2D2D3;}
	.st412{fill:#D1D1D2;}
	.st413{fill:#D0D0D1;}
	.st414{fill:#CFCFD0;}
	.st415{fill:#CECECF;}
	.st416{fill:#CDCDCE;}
	.st417{fill:#CCCCCD;}
	.st418{fill:#CBCBCC;}
	.st419{fill:#CACACB;}
	.st420{fill:#C9C9CA;}
	.st421{fill:#C8C8C9;}
	.st422{fill:#C7C7C8;}
	.st423{fill:#C6C6C7;}
	.st424{fill:#C5C5C6;}
	.st425{fill:#C4C4C5;}
	.st426{fill:#C3C3C4;}
	.st427{fill:#C2C2C3;}
	.st428{fill:#C1C1C2;}
	.st429{fill:#C0C0C1;}
	.st430{fill:#BFBFC0;}
	.st431{fill:#BEBEBF;}
	.st432{fill:#BDBDBE;}
	.st433{fill:#BCBCBD;}
	.st434{fill:#BBBBBC;}
	.st435{fill:#BABABB;}
	.st436{fill:#B9B9BA;}
	.st437{fill:#B8B8B9;}
	.st438{fill:#B7B7B8;}
	.st439{fill:#B6B6B7;}
	.st440{fill:#B5B5B6;}
	.st441{fill:#B4B4B5;}
	.st442{fill:#B3B3B4;}
	.st443{fill:#B2B2B3;}
	.st444{fill:#B1B1B2;}
	.st445{fill:#B0B0B1;}
	.st446{fill:#AFAFB0;}
	.st447{fill:#ADAEAF;}
	.st448{fill:#ACADAE;}
	.st449{fill:#ABACAD;}
	.st450{fill:#AAABAC;}
	.st451{fill:#A9AAAB;}
	.st452{fill:#A8A9AA;}
	.st453{fill:#A7A8A9;}
	.st454{fill:#A6A7A8;}
	.st455{fill:#A5A6A7;}
	.st456{fill:#A4A5A6;}
	.st457{fill:#A3A4A5;}
	.st458{fill:#A2A3A4;}
	.st459{fill:#A1A2A3;}
	.st460{fill:#A0A1A2;}
	.st461{fill:#9FA0A1;}
	.st462{fill:#9E9FA0;}
	.st463{fill:#9D9E9F;}
	.st464{fill:#9C9D9E;}
	.st465{fill:#9B9C9D;}
	.st466{fill:#9A9B9C;}
	.st467{fill:#999A9B;}
	.st468{fill:#98999A;}
	.st469{fill:#979899;}
	.st470{fill:#969798;}
	.st471{fill:#959697;}
	.st472{fill:#949596;}
	.st473{fill:#939495;}
	.st474{fill:#929394;}
	.st475{fill:#919293;}
	.st476{fill:#909192;}
	.st477{fill:#8F9091;}
	.st478{fill:#8E8F90;}
	.st479{fill:#8D8E8F;}
	.st480{fill:#8C8D8E;}
	.st481{fill:#8B8C8D;}
	.st482{fill:#8A8B8C;}
	.st483{fill:#898A8B;}
	.st484{fill:#88898B;}
	.st485{fill:#87888A;}
	.st486{fill:#868789;}
	.st487{fill:#858688;}
	.st488{fill:#848587;}
	.st489{fill:#838486;}
	.st490{fill:#828385;}
	.st491{fill:#818284;}
	.st492{fill:#808183;}
	.st493{fill:#7F8082;}
	.st494{fill:#7E7F81;}
	.st495{fill:#7D7E80;}
	.st496{fill:#7C7D7F;}
	.st497{fill:#7B7C7E;}
	.st498{fill:#7A7B7D;}
	.st499{fill:#797A7C;}
	.st500{fill:#78797B;}
	.st501{fill:#77787A;}
	.st502{fill:#767779;}
	.st503{fill:#757678;}
	.st504{fill:#747577;}
	.st505{fill:#737476;}
	.st506{fill:#727375;}
	.st507{fill:#717274;}
	.st508{fill:#707173;}
	.st509{fill:#6F7072;}
	.st510{fill:#6E6F71;}
	.st511{fill:#6D6E70;}
	.st512{fill:#6C6D6F;}
	.st513{fill:#6B6C6E;}
	.st514{fill:#6A6B6D;}
	.st515{fill:#696A6C;}
	.st516{fill:#68696B;}
	.st517{fill:#67686A;}
	.st518{fill:#666769;}
	.st519{fill:#656668;}
	.st520{fill:#646567;}
	.st521{fill:#636466;}
	.st522{opacity:0.6;}
	.st523{opacity:0.4;}
	.st524{fill:#FECE8C;}
	.st525{fill:#DD8D24;}
	.st526{fill:#F4EDED;}
	.st527{fill:#A05F10;}
	.st528{fill:#FFCE43;}
	.st529{fill:#FF9900;}
	.st530{fill:#FFC306;}
	.st531{fill:#7A471F;}
	.st532{fill:#DD9F76;}
	.st533{fill:#E6E7E8;}
	.st534{fill:#D1D3D4;}
	.st535{clip-path:url(#SVGID_17_);}
	.st536{fill:#FDFDFD;}
	.st537{fill:#D4D4D4;}
	.st538{fill:#D3D3D3;}
	.st539{fill:#D2D2D2;}
	.st540{fill:#D1D1D1;}
	.st541{fill:#D0D0D0;}
	.st542{fill:#CFCFCF;}
	.st543{fill:#CECECE;}
	.st544{fill:#CDCDCD;}
	.st545{fill:#CCCCCC;}
	.st546{fill:#CBCBCB;}
	.st547{fill:#CACACA;}
	.st548{fill:#CAC9C9;}
	.st549{fill:#C9C7C7;}
	.st550{fill:#C8C6C6;}
	.st551{fill:#C7C5C5;}
	.st552{fill:#C6C4C4;}
	.st553{fill:#C5C3C3;}
	.st554{fill:#C4C2C2;}
	.st555{fill:#C3C1C1;}
	.st556{fill:#C2C0C0;}
	.st557{fill:#C1BFBF;}
	.st558{fill:#C0BEBE;}
	.st559{fill:#BFBDBD;}
	.st560{fill:#BEBCBC;}
	.st561{fill:#BDBBBB;}
	.st562{fill:#BCBABA;}
	.st563{fill:#BBB9B9;}
	.st564{fill:#BAB8B8;}
	.st565{fill:#B9B7B7;}
	.st566{fill:#B8B6B6;}
	.st567{fill:#B7B5B5;}
	.st568{fill:#B6B4B4;}
	.st569{fill:#B5B3B3;}
	.st570{fill:#B4B2B2;}
	.st571{fill:#B3B1B1;}
	.st572{fill:#B2B0B0;}
	.st573{fill:#B1AFAF;}
	.st574{fill:#B0AEAE;}
	.st575{fill:#AFADAD;}
	.st576{fill:#AEACAC;}
	.st577{fill:#ADABAB;}
	.st578{fill:#ACAAAA;}
	.st579{fill:#ABA9A9;}
	.st580{fill:#AAA8A8;}
	.st581{fill:#A9A7A7;}
	.st582{fill:#A8A6A6;}
	.st583{fill:#A7A5A5;}
	.st584{fill:#A6A4A4;}
	.st585{fill:#A5A3A3;}
	.st586{fill:#A4A2A2;}
	.st587{fill:#A3A1A1;}
	.st588{fill:#A2A0A0;}
	.st589{fill:#A19F9F;}
	.st590{fill:#A09E9E;}
	.st591{fill:#9F9D9D;}
	.st592{fill:#9E9C9C;}
	.st593{fill:#9D9B9B;}
	.st594{fill:#9C9A9A;}
	.st595{fill:#9B9999;}
	.st596{fill:#9A9898;}
	.st597{fill:#999797;}
	.st598{fill:#989696;}
	.st599{fill:#979595;}
	.st600{fill:#969494;}
	.st601{fill:#959393;}
	.st602{fill:#949292;}
	.st603{fill:#5E5E5E;}
	.st604{clip-path:url(#SVGID_19_);}
	.st605{fill:#C9C9C9;}
	.st606{fill:#C8C8C8;}
	.st607{fill:#C7C7C7;}
	.st608{fill:#C6C6C6;}
	.st609{fill:#C5C5C5;}
	.st610{fill:#939191;}
	.st611{fill:#929090;}
	.st612{fill:#918F8F;}
	.st613{fill:#908E8E;}
	.st614{fill:#8F8D8D;}
	.st615{fill:#8E8C8C;}
	.st616{fill:#8D8B8B;}
	.st617{fill:#8C8A8A;}
	.st618{fill:#8B8989;}
	.st619{clip-path:url(#SVGID_21_);}
	.st620{clip-path:url(#SVGID_23_);}
	.st621{clip-path:url(#SVGID_25_);}
	.st622{clip-path:url(#SVGID_27_);}
	.st623{fill:#A4A3A3;}
	.st624{fill:#A3A2A2;}
	.st625{fill:#A2A1A1;}
	.st626{fill:#A1A0A0;}
	.st627{fill:#A09F9F;}
	.st628{fill:#9F9E9E;}
	.st629{fill:#9E9D9D;}
	.st630{fill:#9D9C9C;}
	.st631{fill:#9C9B9B;}
	.st632{fill:#9B9A9A;}
	.st633{fill:#9A9999;}
	.st634{fill:#999898;}
	.st635{fill:#989797;}
	.st636{fill:#979697;}
	.st637{fill:#969596;}
	.st638{fill:#959495;}
	.st639{fill:#949394;}
	.st640{fill:#939293;}
	.st641{fill:#929192;}
	.st642{fill:#919091;}
	.st643{fill:#908F90;}
	.st644{fill:#8F8E8F;}
	.st645{fill:#8E8D8E;}
	.st646{fill:#8D8C8D;}
	.st647{fill:#8C8B8C;}
	.st648{fill:#8B8A8B;}
	.st649{fill:#8A898A;}
	.st650{fill:#898889;}
	.st651{fill:#888788;}
	.st652{fill:#878687;}
	.st653{fill:#868586;}
	.st654{fill:#858485;}
	.st655{fill:#848384;}
	.st656{fill:#838283;}
	.st657{fill:#828182;}
	.st658{fill:#818081;}
	.st659{fill:#807F80;}
	.st660{fill:#7F7E7F;}
	.st661{fill:#7D7E7F;}
	.st662{fill:#7C7D7E;}
	.st663{fill:#7B7C7D;}
	.st664{fill:#7A7B7C;}
	.st665{fill:#797A7B;}
	.st666{fill:#78797A;}
	.st667{fill:#777879;}
	.st668{fill:#767778;}
	.st669{fill:#757677;}
	.st670{fill:#747576;}
	.st671{fill:#737475;}
	.st672{fill:#727374;}
	.st673{fill:#717273;}
	.st674{fill:#707172;}
	.st675{fill:#6F7071;}
	.st676{fill:#6E6F70;}
	.st677{fill:#6D6E6F;}
	.st678{fill:#6C6D6E;}
	.st679{fill:#6B6C6D;}
	.st680{fill:#6A6B6C;}
	.st681{fill:#696A6B;}
	.st682{fill:#68696A;}
	.st683{fill:#676869;}
	.st684{fill:#666768;}
	.st685{fill:#656667;}
	.st686{fill:#626365;}
	.st687{fill:#616264;}
	.st688{fill:#606163;}
	.st689{fill:#5F6062;}
	.st690{fill:#5E5F61;}
	.st691{fill:#5D5E60;}
	.st692{fill:#5C5D5F;}
	.st693{fill:#5B5C5E;}
	.st694{fill:#5A5B5D;}
	.st695{fill:#595A5C;}
	.st696{clip-path:url(#SVGID_29_);fill:#A4A3A3;}
	.st697{clip-path:url(#SVGID_29_);fill:#A3A2A2;}
	.st698{clip-path:url(#SVGID_29_);fill:#A2A1A1;}
	.st699{clip-path:url(#SVGID_29_);fill:#A1A0A0;}
	.st700{clip-path:url(#SVGID_29_);fill:#A09F9F;}
	.st701{clip-path:url(#SVGID_29_);fill:#9F9E9E;}
	.st702{clip-path:url(#SVGID_29_);fill:#9E9D9D;}
	.st703{clip-path:url(#SVGID_29_);fill:#9D9C9C;}
	.st704{clip-path:url(#SVGID_29_);fill:#9C9B9B;}
	.st705{clip-path:url(#SVGID_29_);fill:#9B9A9A;}
	.st706{clip-path:url(#SVGID_29_);fill:#9A9999;}
	.st707{clip-path:url(#SVGID_29_);fill:#999898;}
	.st708{clip-path:url(#SVGID_29_);fill:#989797;}
	.st709{clip-path:url(#SVGID_29_);fill:#979697;}
	.st710{clip-path:url(#SVGID_29_);fill:#969596;}
	.st711{clip-path:url(#SVGID_29_);fill:#959495;}
	.st712{clip-path:url(#SVGID_29_);fill:#949394;}
	.st713{clip-path:url(#SVGID_29_);fill:#939293;}
	.st714{clip-path:url(#SVGID_29_);fill:#929192;}
	.st715{clip-path:url(#SVGID_29_);fill:#919091;}
	.st716{clip-path:url(#SVGID_29_);fill:#908F90;}
	.st717{clip-path:url(#SVGID_29_);fill:#8F8E8F;}
	.st718{clip-path:url(#SVGID_29_);fill:#8E8D8E;}
	.st719{clip-path:url(#SVGID_29_);fill:#8D8C8D;}
	.st720{clip-path:url(#SVGID_29_);fill:#8C8B8C;}
	.st721{clip-path:url(#SVGID_29_);fill:#8B8A8B;}
	.st722{clip-path:url(#SVGID_29_);fill:#8A898A;}
	.st723{clip-path:url(#SVGID_29_);fill:#898889;}
	.st724{clip-path:url(#SVGID_29_);fill:#888788;}
	.st725{clip-path:url(#SVGID_29_);fill:#878687;}
	.st726{clip-path:url(#SVGID_29_);fill:#868586;}
	.st727{clip-path:url(#SVGID_29_);fill:#858485;}
	.st728{clip-path:url(#SVGID_29_);fill:#848384;}
	.st729{clip-path:url(#SVGID_29_);fill:#838283;}
	.st730{clip-path:url(#SVGID_29_);fill:#828182;}
	.st731{clip-path:url(#SVGID_29_);fill:#818081;}
	.st732{clip-path:url(#SVGID_29_);fill:#807F80;}
	.st733{clip-path:url(#SVGID_29_);fill:#7F7E7F;}
	.st734{clip-path:url(#SVGID_29_);fill:#7D7E7F;}
	.st735{clip-path:url(#SVGID_29_);fill:#7C7D7E;}
	.st736{clip-path:url(#SVGID_29_);fill:#7B7C7D;}
	.st737{clip-path:url(#SVGID_29_);fill:#7A7B7C;}
	.st738{clip-path:url(#SVGID_29_);fill:#797A7B;}
	.st739{clip-path:url(#SVGID_29_);fill:#78797A;}
	.st740{clip-path:url(#SVGID_29_);fill:#777879;}
	.st741{clip-path:url(#SVGID_29_);fill:#767778;}
	.st742{clip-path:url(#SVGID_29_);fill:#757677;}
	.st743{clip-path:url(#SVGID_29_);fill:#747576;}
	.st744{clip-path:url(#SVGID_29_);fill:#737475;}
	.st745{clip-path:url(#SVGID_29_);fill:#727374;}
	.st746{clip-path:url(#SVGID_29_);fill:#717273;}
	.st747{clip-path:url(#SVGID_29_);fill:#707172;}
	.st748{clip-path:url(#SVGID_29_);fill:#6F7071;}
	.st749{clip-path:url(#SVGID_29_);fill:#6E6F70;}
	.st750{clip-path:url(#SVGID_29_);fill:#6D6E6F;}
	.st751{clip-path:url(#SVGID_29_);fill:#6C6D6E;}
	.st752{clip-path:url(#SVGID_29_);fill:#6B6C6D;}
	.st753{clip-path:url(#SVGID_29_);fill:#6A6B6C;}
	.st754{clip-path:url(#SVGID_29_);fill:#696A6B;}
	.st755{clip-path:url(#SVGID_29_);fill:#68696A;}
	.st756{clip-path:url(#SVGID_29_);fill:#676869;}
	.st757{clip-path:url(#SVGID_29_);fill:#666768;}
	.st758{clip-path:url(#SVGID_29_);fill:#656667;}
	.st759{clip-path:url(#SVGID_29_);fill:#646567;}
	.st760{clip-path:url(#SVGID_29_);fill:#636466;}
	.st761{clip-path:url(#SVGID_29_);fill:#626365;}
	.st762{clip-path:url(#SVGID_29_);fill:#616264;}
	.st763{clip-path:url(#SVGID_29_);fill:#606163;}
	.st764{clip-path:url(#SVGID_29_);fill:#5F6062;}
	.st765{clip-path:url(#SVGID_29_);fill:#5E5F61;}
	.st766{clip-path:url(#SVGID_29_);fill:#5D5E60;}
	.st767{clip-path:url(#SVGID_29_);fill:#5C5D5F;}
	.st768{clip-path:url(#SVGID_29_);fill:#5B5C5E;}
	.st769{clip-path:url(#SVGID_29_);fill:#5A5B5D;}
	.st770{clip-path:url(#SVGID_29_);fill:#595A5C;}
	.st771{clip-path:url(#SVGID_29_);fill:#58595B;}
	.st772{clip-path:url(#SVGID_31_);}
	.st773{clip-path:url(#SVGID_33_);}
	.st774{clip-path:url(#SVGID_35_);}
	.st775{clip-path:url(#SVGID_37_);}
	.st776{clip-path:url(#SVGID_39_);}
</style>
<g>
	<path class="st3" d="M57.994,720.085H46.02c-4.75,0-8.614,3.864-8.614,8.614v117.531l8.352-8.352l6.739,6.737l6.738-6.737
		l6.738,6.737l6.739-6.737l6.738,6.737l6.738-6.737l6.739,6.737l6.738-6.737l6.738,6.737l6.739-6.737l8.497,8.496v-17.881H138.6
		l-0.001,0.009l1.274-0.009h0.999v-0.024l0.713-0.02v-0.126c3.993-0.796,6.901-4.278,6.901-8.442V711.978H57.994V720.085z
		 M144.684,715.781v104.101c0,2.648-2.171,4.802-4.846,4.806c-2.636-0.02-4.775-2.166-4.775-4.806v-91.183
		c0-4.411-3.334-8.053-7.613-8.551v-0.063H61.798v-4.304H144.684z M118.747,724.865c-0.041,0.082-0.081,0.164-0.12,0.248
		c-0.157,0.34-0.298,0.689-0.41,1.051c-0.004,0.013-0.006,0.026-0.01,0.039c-0.105,0.347-0.183,0.706-0.244,1.07
		c-0.015,0.092-0.03,0.183-0.042,0.275c-0.051,0.378-0.086,0.76-0.086,1.151v99.795v8.699l-4.693-4.693l-6.739,6.738l-6.738-6.738
		l-6.738,6.738l-6.739-6.738l-6.738,6.738l-6.738-6.738l-6.739,6.738l-6.738-6.738l-6.738,6.738l-6.739-6.738l-4.549,4.549v-108.35
		c0-2.652,2.158-4.811,4.811-4.811h73.287c-0.006,0.009-0.01,0.018-0.015,0.027C119.088,724.218,118.911,724.538,118.747,724.865z
		 M121.639,728.699c0-2.652,2.158-4.811,4.811-4.811c2.652,0,4.81,2.158,4.81,4.811v91.183c0,1.733,0.521,3.402,1.471,4.81h-11.091
		V728.699z"/>
	<path class="st3" d="M143.225,97.641c5.417,0,9.825-4.407,9.825-9.824V26.911c0-5.417-4.408-9.824-9.825-9.824H12.012
		c-5.417,0-9.825,4.407-9.825,9.824v60.905c0,5.417,4.408,9.824,9.825,9.824H143.225z M143.225,20.89
		c3.32,0,6.022,2.701,6.022,6.021v60.905c0,3.32-2.702,6.021-6.022,6.021h-15.44V20.89H143.225z M125.982,93.838H23.294V20.89
		h102.687V93.838z M21.491,93.838h-9.479c-3.32,0-6.022-2.701-6.022-6.021V26.911c0-3.32,2.702-6.021,6.022-6.021h9.479V93.838z"/>
	<path class="st3" d="M8.813,48.585v17.558c0,1.446,1.176,2.622,2.622,2.622h1.71c1.446,0,2.622-1.176,2.622-2.622V48.585
		c0-1.446-1.176-2.622-2.622-2.622h-1.71C9.989,45.963,8.813,47.139,8.813,48.585z M13.964,48.585v17.558
		c0,0.452-0.367,0.819-0.819,0.819h-1.71c-0.452,0-0.819-0.367-0.819-0.819V48.585c0-0.452,0.367-0.819,0.819-0.819h1.71
		C13.597,47.766,13.964,48.133,13.964,48.585z"/>
	<path class="st3" d="M139.631,63.51c3.633,0,6.588-2.955,6.588-6.587c0-3.633-2.955-6.588-6.588-6.588s-6.588,2.955-6.588,6.588
		C133.043,60.555,135.999,63.51,139.631,63.51z M139.631,52.138c2.638,0,4.784,2.147,4.784,4.785c0,2.638-2.146,4.784-4.784,4.784
		s-4.784-2.146-4.784-4.784C134.847,54.285,136.993,52.138,139.631,52.138z"/>
	<path class="st3" d="M45.837,76.376h6.259l-5.473,10.253c-0.672,1.259-0.348,2.743,0.788,3.609c0.524,0.399,1.13,0.597,1.732,0.597
		c0.702,0,1.399-0.269,1.957-0.799l14.379-13.66h27.563c2.001,0,3.628-1.627,3.628-3.628v-0.13l7.469,7.095
		c0.557,0.53,1.254,0.799,1.957,0.799c0.602,0,1.207-0.198,1.732-0.597c1.136-0.865,1.46-2.349,0.788-3.608l-5.473-10.253h6.259
		c2.001,0,3.628-1.627,3.628-3.628V33.994c0-2.001-1.627-3.628-3.628-3.628H62.196c-2.001,0-3.628,1.627-3.628,3.628v6.694H45.837
		c-2.001,0-3.628,1.627-3.628,3.628v28.433C42.209,74.749,43.837,76.376,45.837,76.376z M60.372,33.994
		c0-1.006,0.818-1.824,1.825-1.824H109.4c1.006,0,1.824,0.818,1.824,1.824v28.433c0,1.005-0.818,1.824-1.824,1.824h-9.266
		l6.889,12.905c0.309,0.579,0.053,1.064-0.289,1.324c-0.342,0.263-0.878,0.378-1.353-0.073l-8.712-8.276V44.315
		c0-2.001-1.628-3.628-3.628-3.628H60.372V33.994z M44.013,44.315c0-1.006,0.818-1.824,1.825-1.824h47.203
		c1.006,0,1.825,0.818,1.825,1.824v28.433c0,1.006-0.818,1.824-1.825,1.824H64.758L49.857,88.729
		c-0.475,0.452-1.011,0.335-1.353,0.073c-0.343-0.261-0.598-0.745-0.289-1.324l6.889-12.905h-9.266
		c-1.006,0-1.825-0.819-1.825-1.824V44.315z"/>
	<path class="st3" d="M79.716,68.45c0-4.367-3.553-7.921-7.921-7.921h-0.828c2.96-0.694,5.174-3.35,5.174-6.519
		c0-3.695-3.006-6.701-6.701-6.701s-6.701,3.006-6.701,6.701c0,3.169,2.214,5.825,5.174,6.519h-0.829
		c-4.368,0-7.921,3.554-7.921,7.921v4.227h20.553V68.45z M64.542,54.01c0-2.7,2.197-4.897,4.898-4.897
		c2.701,0,4.898,2.197,4.898,4.897c0,2.701-2.197,4.898-4.898,4.898C66.739,58.908,64.542,56.711,64.542,54.01z M77.912,70.873
		H60.966V68.45c0-3.373,2.745-6.118,6.118-6.118h4.71c3.373,0,6.118,2.745,6.118,6.118V70.873z"/>
	<path class="st3" d="M84.514,483.367l0.74,0.346l55.073-25.744c0.049-0.023,0.091-0.055,0.138-0.082
		c0.049-0.028,0.098-0.053,0.144-0.085c0.063-0.044,0.12-0.095,0.177-0.146c0.033-0.029,0.067-0.056,0.098-0.088
		c0.054-0.055,0.1-0.116,0.147-0.178c0.029-0.038,0.059-0.073,0.084-0.113c0.036-0.057,0.066-0.117,0.097-0.178
		c0.027-0.053,0.055-0.105,0.076-0.16c0.006-0.016,0.016-0.029,0.022-0.045c0.016-0.044,0.022-0.09,0.034-0.135
		c0.017-0.059,0.034-0.117,0.045-0.178c0.013-0.073,0.018-0.146,0.022-0.219c0.002-0.039,0.012-0.077,0.012-0.116v-23.24
		l19.849-9.278l-21.07-31.785l-0.679,0.317l-52.111-24.359l-19.824-29.906L9.834,364.99l19.287,29.094
		c-0.014,0.092-0.04,0.18-0.04,0.274c0,0.529,0.229,1.022,0.602,1.376v59.127c-0.171,0.16-0.318,0.353-0.422,0.578
		c-0.215,0.461-0.238,0.977-0.065,1.454c0.173,0.479,0.522,0.859,0.982,1.075l54.334,25.397
		C84.512,483.366,84.513,483.367,84.514,483.367z M66.229,342.826l16.68,25.161l-50.787,23.74l-16.679-25.16L66.229,342.826z
		 M122.282,400.319l-37.032,17.309l-49.477-23.129l48.179-22.519v39.881c0,1.049,0.853,1.901,1.901,1.901
		c1.049,0,1.902-0.853,1.902-1.901v-39.601l47.276,22.099L122.282,400.319z M33.486,397.629l49.865,23.309v57.689l-49.865-23.31
		V397.629z M87.154,478.627v-52.591l16.365,24.688l34.102-15.94v20.252L87.154,478.627z M138.937,429.97
		c-0.167,0.055-0.327,0.124-0.471,0.22l-33.588,15.702l-16.821-25.376l2.498-1.168l48.288-22.572l16.82,25.375L138.937,429.97z"/>
	<path class="st3" d="M58.364,413.635c-0.498,0-0.902,0.403-0.902,0.902v47.098c0,0.498,0.404,0.902,0.902,0.902
		s0.902-0.403,0.902-0.902v-47.098C59.266,414.038,58.862,413.635,58.364,413.635z"/>
	<path class="st3" d="M72.655,753.116c-0.498,0-0.902,0.403-0.902,0.902s0.404,0.902,0.902,0.902h5.549v2.377
		c0,0.498,0.404,0.902,0.902,0.902c0.498,0,0.902-0.403,0.902-0.902v-2.377h1.097c2.952,0,5.354-2.402,5.354-5.354
		c0-2.952-2.402-5.354-5.354-5.354h-1.097v-7.102h4.638c0.498,0,0.902-0.403,0.902-0.902s-0.404-0.902-0.902-0.902h-4.638v-1.693
		c0-0.499-0.404-0.902-0.902-0.902c-0.498,0-0.902,0.403-0.902,0.902v1.693h-0.957c-2.952,0-5.354,2.401-5.354,5.354
		s2.402,5.354,5.354,5.354h0.957v7.102H72.655z M77.248,744.211c-1.958,0-3.551-1.593-3.551-3.551c0-1.958,1.593-3.55,3.551-3.55
		h0.957v7.102H77.248z M80.008,746.014h1.097c1.958,0,3.551,1.593,3.551,3.55c0,1.958-1.593,3.551-3.551,3.551h-1.097V746.014z"/>
	<path class="st3" d="M42.943,764.396v26.474h71.411v-26.474H42.943z M79.55,784.954v-2.309h15.599v2.309H79.55z M95.149,786.758
		v2.309H79.55v-2.309H95.149z M79.55,778.534h15.599v2.308H79.55V778.534z M77.747,780.842H44.746v-2.308h33.001V780.842z
		 M96.952,778.534h15.598v2.308H96.952V778.534z M96.952,776.731v-2.309h15.598v2.309H96.952z M95.149,776.731H79.55v-2.309h15.599
		V776.731z M77.747,776.731H44.746v-2.309h33.001V776.731z M44.746,772.619v-2.309h33.001v2.309H44.746z M44.746,782.645h33.001
		v2.309H44.746V782.645z M96.952,782.645h15.598v2.309H96.952V782.645z M112.55,772.619H96.952v-2.309h15.598V772.619z
		 M95.149,772.619H79.55v-2.309h15.599V772.619z M79.55,768.507v-2.308h15.599v2.308H79.55z M77.747,766.199v2.308H44.746v-2.308
		H77.747z M44.746,786.758h33.001v2.309H44.746V786.758z M96.952,789.066v-2.309h15.598v2.309H96.952z M112.55,768.507H96.952
		v-2.308h15.598V768.507z"/>
	<path class="st3" d="M113.452,795.341H43.844c-0.498,0-0.902,0.403-0.902,0.902c0,0.498,0.404,0.902,0.902,0.902h69.608
		c0.498,0,0.902-0.403,0.902-0.902C114.353,795.744,113.95,795.341,113.452,795.341z"/>
	<path class="st3" d="M113.452,801.359H43.844c-0.498,0-0.902,0.403-0.902,0.902c0,0.498,0.404,0.901,0.902,0.901h69.608
		c0.498,0,0.902-0.403,0.902-0.901C114.353,801.762,113.95,801.359,113.452,801.359z"/>
	<path class="st3" d="M113.452,806.496H79.106c-0.498,0-0.902,0.403-0.902,0.902c0,0.498,0.404,0.902,0.902,0.902h34.346
		c0.498,0,0.902-0.403,0.902-0.902C114.353,806.899,113.95,806.496,113.452,806.496z"/>
	<path class="st3" d="M113.452,812.39H93.918c-0.498,0-0.902,0.403-0.902,0.902c0,0.498,0.404,0.902,0.902,0.902h19.533
		c0.498,0,0.902-0.403,0.902-0.902C114.353,812.793,113.95,812.39,113.452,812.39z"/>
</g>
<g>
	<circle class="st5" cx="38.501" cy="38.351" r="37.73"/>
	<circle class="st5" cx="51.357" cy="402.159" r="37.73"/>
	<circle class="st5" cx="65.432" cy="767.667" r="37.73"/>
</g>
<g>
	<g>
		<path class="st3" d="M95.16,292.109c0.837-0.835,0.839-2.293,0-3.132c-0.865-0.861-2.271-0.86-3.134,0.001l-4.572,4.573v-23.75
			c0-1.221-0.993-2.213-2.213-2.213c-1.221,0-2.214,0.993-2.214,2.213v23.75l-4.571-4.573c-0.419-0.42-0.977-0.651-1.571-0.65
			c-0.592,0.001-1.147,0.232-1.561,0.649c-0.42,0.419-0.651,0.975-0.651,1.566c0,0.595,0.232,1.151,0.651,1.564l8.353,8.356
			c0.412,0.412,0.983,0.649,1.564,0.649c0.58,0,1.151-0.236,1.568-0.649L95.16,292.109z"/>
	</g>
	<g>
		<path class="st3" d="M95.16,654.257c0.837-0.835,0.839-2.293,0-3.132c-0.865-0.861-2.271-0.86-3.134,0.001l-4.572,4.573v-23.75
			c0-1.221-0.993-2.213-2.213-2.213c-1.221,0-2.214,0.993-2.214,2.213v23.75l-4.571-4.573c-0.419-0.42-0.977-0.651-1.571-0.65
			c-0.592,0.001-1.147,0.232-1.561,0.649c-0.42,0.419-0.651,0.975-0.651,1.566c0,0.595,0.232,1.151,0.651,1.564l8.353,8.356
			c0.412,0.412,0.983,0.649,1.564,0.649c0.58,0,1.151-0.236,1.568-0.649L95.16,654.257z"/>
	</g>
	<g>
		<path class="st3" d="M37.187,176.53c1.548,0.953,3.809,1.745,6.19,1.745c3.531,0,5.594-1.865,5.594-4.563
			c0-2.499-1.428-3.927-5.039-5.317c-4.364-1.548-7.063-3.809-7.063-7.578c0-4.167,3.452-7.263,8.65-7.263
			c2.738,0,4.722,0.636,5.912,1.31l-0.952,2.818c-0.873-0.477-2.658-1.27-5.079-1.27c-3.651,0-5.039,2.182-5.039,4.006
			c0,2.501,1.627,3.73,5.317,5.158c4.523,1.747,6.825,3.929,6.825,7.856c0,4.128-3.055,7.699-9.364,7.699
			c-2.579,0-5.396-0.755-6.825-1.706L37.187,176.53z"/>
	</g>
	<g>
		<path class="st3" d="M60.793,156.016v5.516h5v2.659h-5v10.355c0,2.381,0.675,3.73,2.619,3.73c0.912,0,1.587-0.118,2.023-0.238
			l0.158,2.619c-0.674,0.278-1.746,0.477-3.095,0.477c-1.627,0-2.936-0.516-3.77-1.469c-0.992-1.032-1.349-2.738-1.349-5V164.19
			h-2.976v-2.659h2.976v-4.603L60.793,156.016z"/>
	</g>
	<g>
		<path class="st3" d="M79.956,180.736l-0.278-2.42h-0.119c-1.071,1.507-3.134,2.856-5.872,2.856c-3.888,0-5.873-2.738-5.873-5.516
			c0-4.642,4.127-7.182,11.547-7.141v-0.398c0-1.587-0.437-4.443-4.365-4.443c-1.786,0-3.65,0.555-5,1.428l-0.793-2.302
			c1.587-1.032,3.888-1.706,6.309-1.706c5.872,0,7.301,4.008,7.301,7.856v7.183c0,1.666,0.079,3.293,0.317,4.602H79.956z
			 M79.44,170.935c-3.809-0.079-8.134,0.595-8.134,4.325c0,2.261,1.508,3.334,3.294,3.334c2.5,0,4.087-1.588,4.642-3.214
			c0.119-0.357,0.199-0.755,0.199-1.111V170.935z"/>
	</g>
	<g>
		<path class="st3" d="M88.048,167.522c0-2.261-0.04-4.205-0.159-5.991h3.055l0.119,3.77h0.158c0.873-2.58,2.976-4.207,5.317-4.207
			c0.397,0,0.674,0.041,0.992,0.12v3.293c-0.357-0.079-0.714-0.12-1.19-0.12c-2.46,0-4.206,1.865-4.682,4.484
			c-0.08,0.477-0.159,1.032-0.159,1.627v10.237h-3.452V167.522z"/>
	</g>
	<g>
		<path class="st3" d="M105.782,156.016v5.516h5v2.659h-5v10.355c0,2.381,0.674,3.73,2.619,3.73c0.913,0,1.587-0.118,2.023-0.238
			l0.159,2.619c-0.675,0.278-1.746,0.477-3.095,0.477c-1.627,0-2.937-0.516-3.77-1.469c-0.992-1.032-1.349-2.738-1.349-5V164.19
			h-2.976v-2.659h2.976v-4.603L105.782,156.016z"/>
	</g>
	<g>
		<path class="st3" d="M132.958,180.736l-0.278-2.42h-0.119c-1.071,1.507-3.134,2.856-5.872,2.856c-3.888,0-5.873-2.738-5.873-5.516
			c0-4.642,4.127-7.182,11.547-7.141v-0.398c0-1.587-0.437-4.443-4.365-4.443c-1.786,0-3.65,0.555-5,1.428l-0.793-2.302
			c1.587-1.032,3.888-1.706,6.309-1.706c5.872,0,7.301,4.008,7.301,7.856v7.183c0,1.666,0.079,3.293,0.317,4.602H132.958z
			 M132.442,170.935c-3.809-0.079-8.134,0.595-8.134,4.325c0,2.261,1.508,3.334,3.294,3.334c2.5,0,4.087-1.588,4.642-3.214
			c0.119-0.357,0.199-0.755,0.199-1.111V170.935z"/>
	</g>
	<g>
		<path class="st3" d="M6.282,199.401l3.77,10.794c0.635,1.745,1.151,3.332,1.548,4.919h0.119c0.436-1.587,0.992-3.173,1.627-4.919
			l3.73-10.794h3.651l-7.539,19.204H9.853l-7.301-19.204H6.282z"/>
	</g>
	<g>
		<path class="st3" d="M27.507,194.005c0.04,1.19-0.833,2.143-2.222,2.143c-1.23,0-2.103-0.953-2.103-2.143
			c0-1.231,0.913-2.182,2.182-2.182C26.674,191.823,27.507,192.774,27.507,194.005z M23.619,218.606v-19.204h3.492v19.204H23.619z"
			/>
	</g>
	<g>
		<path class="st3" d="M49.091,190.434v23.213c0,1.706,0.04,3.651,0.159,4.959h-3.135l-0.158-3.332h-0.08
			c-1.071,2.141-3.413,3.769-6.547,3.769c-4.643,0-8.214-3.929-8.214-9.762c-0.04-6.387,3.928-10.316,8.61-10.316
			c2.936,0,4.92,1.389,5.793,2.937h0.079v-11.468H49.091z M45.599,207.219c0-0.437-0.04-1.032-0.158-1.469
			c-0.516-2.222-2.421-4.047-5.039-4.047c-3.611,0-5.753,3.173-5.753,7.419c0,3.888,1.905,7.102,5.674,7.102
			c2.341,0,4.484-1.546,5.119-4.165c0.119-0.477,0.158-0.953,0.158-1.509V207.219z"/>
	</g>
	<g>
		<path class="st3" d="M56.429,209.638c0.08,4.721,3.095,6.666,6.587,6.666c2.5,0,4.008-0.435,5.317-0.991l0.595,2.501
			c-1.23,0.555-3.333,1.19-6.389,1.19c-5.912,0-9.443-3.89-9.443-9.682c0-5.794,3.413-10.357,9.007-10.357
			c6.269,0,7.936,5.516,7.936,9.047c0,0.715-0.079,1.27-0.119,1.627H56.429z M66.666,207.139c0.04-2.222-0.913-5.674-4.841-5.674
			c-3.531,0-5.079,3.253-5.357,5.674H66.666z"/>
	</g>
	<g>
		<path class="st3" d="M91.343,208.846c0,7.102-4.92,10.197-9.563,10.197c-5.198,0-9.206-3.809-9.206-9.88
			c0-6.428,4.206-10.198,9.523-10.198C87.613,198.965,91.343,202.973,91.343,208.846z M76.106,209.043
			c0,4.207,2.421,7.381,5.833,7.381c3.333,0,5.833-3.135,5.833-7.46c0-3.253-1.627-7.381-5.754-7.381
			C77.892,201.583,76.106,205.392,76.106,209.043z"/>
	</g>
	<g>
		<path class="st3" d="M117.05,217.892c-0.913,0.475-2.936,1.111-5.515,1.111c-5.793,0-9.563-3.929-9.563-9.802
			c0-5.912,4.047-10.197,10.316-10.197c2.064,0,3.888,0.516,4.841,0.991l-0.794,2.698c-0.833-0.475-2.143-0.912-4.047-0.912
			c-4.404,0-6.785,3.254-6.785,7.261c0,4.445,2.857,7.182,6.666,7.182c1.984,0,3.293-0.516,4.285-0.951L117.05,217.892z"/>
	</g>
	<g>
		<path class="st3" d="M120.738,190.434h3.492v11.982h0.079c0.556-0.991,1.429-1.863,2.5-2.458c1.032-0.595,2.262-0.993,3.571-0.993
			c2.579,0,6.706,1.588,6.706,8.214v11.428h-3.492v-11.03c0-3.096-1.151-5.715-4.444-5.715c-2.262,0-4.047,1.587-4.682,3.492
			c-0.199,0.475-0.238,0.991-0.238,1.666v11.586h-3.492V190.434z"/>
	</g>
	<g>
		<path class="st3" d="M152.994,218.606l-0.278-2.42h-0.119c-1.071,1.507-3.135,2.856-5.872,2.856c-3.888,0-5.873-2.738-5.873-5.516
			c0-4.642,4.127-7.182,11.547-7.141v-0.398c0-1.587-0.437-4.443-4.365-4.443c-1.786,0-3.651,0.555-5,1.428l-0.793-2.302
			c1.587-1.032,3.888-1.706,6.309-1.706c5.872,0,7.301,4.008,7.301,7.856v7.183c0,1.666,0.079,3.293,0.317,4.602H152.994z
			 M152.478,208.805c-3.809-0.079-8.134,0.595-8.134,4.325c0,2.261,1.508,3.334,3.294,3.334c2.5,0,4.087-1.588,4.642-3.214
			c0.119-0.357,0.199-0.755,0.199-1.111V208.805z"/>
	</g>
	<g>
		<path class="st3" d="M165.133,193.886v5.516h5v2.659h-5v10.355c0,2.381,0.674,3.73,2.619,3.73c0.913,0,1.587-0.118,2.023-0.238
			l0.159,2.619c-0.675,0.278-1.746,0.477-3.095,0.477c-1.627,0-2.937-0.516-3.77-1.469c-0.992-1.032-1.349-2.738-1.349-5V202.06
			h-2.976v-2.659h2.976v-4.603L165.133,193.886z"/>
	</g>
	<g>
		<path class="st3" d="M17.005,540.337c1.548,0.953,3.809,1.745,6.19,1.745c3.531,0,5.594-1.865,5.594-4.563
			c0-2.499-1.428-3.927-5.039-5.317c-4.364-1.548-7.063-3.809-7.063-7.578c0-4.167,3.452-7.263,8.65-7.263
			c2.738,0,4.722,0.636,5.912,1.31l-0.952,2.818c-0.873-0.477-2.658-1.27-5.079-1.27c-3.651,0-5.039,2.182-5.039,4.006
			c0,2.501,1.627,3.73,5.317,5.158c4.523,1.747,6.825,3.929,6.825,7.856c0,4.128-3.055,7.699-9.364,7.699
			c-2.579,0-5.396-0.755-6.825-1.706L17.005,540.337z"/>
	</g>
	<g>
		<path class="st3" d="M36.524,516.371h3.492v11.982h0.079c0.556-0.991,1.429-1.863,2.5-2.458c1.032-0.595,2.262-0.993,3.571-0.993
			c2.579,0,6.706,1.589,6.706,8.214v11.428H49.38v-11.03c0-3.096-1.151-5.715-4.444-5.715c-2.262,0-4.047,1.587-4.682,3.492
			c-0.199,0.475-0.238,0.991-0.238,1.666v11.586h-3.492V516.371z"/>
	</g>
	<g>
		<path class="st3" d="M75.525,534.783c0,7.102-4.92,10.197-9.563,10.197c-5.198,0-9.206-3.809-9.206-9.88
			c0-6.428,4.206-10.198,9.523-10.198C71.795,524.902,75.525,528.91,75.525,534.783z M60.288,534.98
			c0,4.207,2.421,7.381,5.833,7.381c3.333,0,5.833-3.135,5.833-7.46c0-3.253-1.627-7.381-5.754-7.381
			C62.074,527.52,60.288,531.33,60.288,534.98z"/>
	</g>
	<g>
		<path class="st3" d="M80.641,525.339l2.539,9.762c0.555,2.141,1.071,4.126,1.428,6.111h0.119c0.437-1.944,1.072-4.008,1.706-6.072
			l3.135-9.8h2.936l2.976,9.603c0.714,2.3,1.27,4.325,1.706,6.269h0.119c0.317-1.944,0.833-3.969,1.468-6.231l2.738-9.642h3.452
			l-6.19,19.204H95.6l-2.937-9.165c-0.674-2.143-1.23-4.049-1.706-6.31h-0.079c-0.476,2.302-1.072,4.285-1.746,6.349l-3.095,9.126
			h-3.174l-5.793-19.204H80.641z"/>
	</g>
	<g>
		<path class="st3" d="M132.138,539.305c0,1.985,0.04,3.73,0.158,5.237h-3.095l-0.198-3.135h-0.079
			c-0.913,1.548-2.937,3.571-6.349,3.571c-3.016,0-6.626-1.666-6.626-8.413v-11.229h3.492v10.633c0,3.651,1.111,6.111,4.285,6.111
			c2.341,0,3.968-1.625,4.603-3.173c0.198-0.516,0.317-1.152,0.317-1.786v-11.785h3.492V539.305z"/>
	</g>
	<g>
		<path class="st3" d="M137.055,540.971c1.032,0.674,2.857,1.389,4.603,1.389c2.539,0,3.73-1.27,3.73-2.856
			c0-1.668-0.992-2.58-3.571-3.533c-3.452-1.229-5.079-3.133-5.079-5.435c0-3.096,2.499-5.635,6.626-5.635
			c1.944,0,3.65,0.557,4.721,1.19l-0.873,2.539c-0.754-0.475-2.143-1.111-3.929-1.111c-2.063,0-3.214,1.19-3.214,2.619
			c0,1.588,1.151,2.302,3.651,3.254c3.333,1.27,5.039,2.936,5.039,5.794c0,3.372-2.619,5.753-7.182,5.753
			c-2.103,0-4.047-0.516-5.396-1.31L137.055,540.971z"/>
	</g>
	<g>
		<path class="st3" d="M5.281,563.208l4.206,11.348c0.437,1.27,0.913,2.777,1.23,3.929h0.08c0.357-1.152,0.754-2.619,1.23-4.008
			l3.809-11.269h3.69l-5.238,13.689c-2.499,6.588-4.206,9.961-6.586,12.023c-1.706,1.509-3.413,2.104-4.286,2.263l-0.873-2.937
			c0.873-0.276,2.023-0.833,3.055-1.706c0.952-0.754,2.143-2.103,2.936-3.888c0.159-0.356,0.278-0.634,0.278-0.833
			c0-0.197-0.079-0.475-0.238-0.912l-7.102-17.697H5.281z"/>
	</g>
	<g>
		<path class="st3" d="M39.284,572.653c0,7.102-4.92,10.197-9.563,10.197c-5.198,0-9.206-3.809-9.206-9.88
			c0-6.428,4.206-10.198,9.523-10.198C35.554,562.772,39.284,566.78,39.284,572.653z M24.047,572.85c0,4.207,2.42,7.381,5.833,7.381
			c3.333,0,5.833-3.135,5.833-7.46c0-3.253-1.627-7.381-5.753-7.381C25.832,565.39,24.047,569.2,24.047,572.85z"/>
	</g>
	<g>
		<path class="st3" d="M59.358,577.176c0,1.985,0.04,3.73,0.158,5.237h-3.095l-0.199-3.135h-0.079
			c-0.913,1.548-2.937,3.571-6.349,3.571c-3.016,0-6.626-1.666-6.626-8.413v-11.229h3.492v10.633c0,3.651,1.111,6.111,4.285,6.111
			c2.341,0,3.968-1.625,4.603-3.173c0.198-0.516,0.317-1.152,0.317-1.786v-11.785h3.492V577.176z"/>
	</g>
	<g>
		<path class="st3" d="M64.751,569.2c0-2.261-0.04-4.205-0.158-5.991h3.055l0.119,3.77h0.159c0.873-2.58,2.976-4.207,5.317-4.207
			c0.397,0,0.674,0.041,0.992,0.12v3.293c-0.357-0.079-0.714-0.12-1.19-0.12c-2.46,0-4.206,1.865-4.682,4.484
			c-0.08,0.477-0.159,1.032-0.159,1.627v10.237h-3.452V569.2z"/>
	</g>
	<g>
		<path class="st3" d="M89.229,557.813c0.04,1.19-0.833,2.143-2.222,2.143c-1.23,0-2.103-0.953-2.103-2.143
			c0-1.231,0.913-2.182,2.182-2.182C88.396,555.631,89.229,556.582,89.229,557.813z M85.34,582.413v-19.204h3.492v19.204H85.34z"/>
	</g>
	<g>
		<path class="st3" d="M98.433,557.693v5.516h5v2.659h-5v10.355c0,2.381,0.674,3.73,2.619,3.73c0.913,0,1.587-0.118,2.023-0.238
			l0.159,2.619c-0.675,0.278-1.746,0.477-3.095,0.477c-1.627,0-2.937-0.516-3.77-1.469c-0.992-1.032-1.349-2.738-1.349-5v-10.475
			h-2.976v-2.659h2.976v-4.603L98.433,557.693z"/>
	</g>
	<g>
		<path class="st3" d="M108.668,573.446c0.079,4.721,3.095,6.666,6.587,6.666c2.5,0,4.008-0.435,5.317-0.991l0.595,2.501
			c-1.23,0.555-3.333,1.19-6.388,1.19c-5.912,0-9.444-3.89-9.444-9.682c0-5.794,3.412-10.357,9.007-10.357
			c6.269,0,7.936,5.516,7.936,9.047c0,0.715-0.079,1.27-0.119,1.627H108.668z M118.906,570.947c0.04-2.222-0.912-5.674-4.841-5.674
			c-3.531,0-5.079,3.253-5.357,5.674H118.906z"/>
	</g>
	<g>
		<path class="st3" d="M126.203,568.407c0-1.985-0.04-3.612-0.159-5.199h3.055l0.159,3.096h0.119
			c1.072-1.826,2.857-3.533,6.031-3.533c2.619,0,4.603,1.589,5.436,3.85h0.079c0.595-1.073,1.349-1.906,2.143-2.501
			c1.151-0.872,2.421-1.349,4.246-1.349c2.539,0,6.309,1.668,6.309,8.333v11.308h-3.412v-10.871c0-3.691-1.349-5.912-4.166-5.912
			c-1.984,0-3.531,1.467-4.127,3.173c-0.159,0.475-0.278,1.111-0.278,1.745v11.864h-3.413v-11.507c0-3.055-1.349-5.276-4.008-5.276
			c-2.182,0-3.769,1.745-4.325,3.49c-0.199,0.516-0.278,1.111-0.278,1.706v11.586h-3.413V568.407z"/>
	</g>
	<g>
		<path class="st3" d="M158.418,578.841c1.032,0.674,2.857,1.389,4.603,1.389c2.539,0,3.73-1.27,3.73-2.856
			c0-1.668-0.992-2.58-3.571-3.533c-3.452-1.229-5.079-3.133-5.079-5.435c0-3.096,2.5-5.635,6.626-5.635
			c1.945,0,3.651,0.557,4.722,1.19l-0.873,2.539c-0.754-0.476-2.143-1.111-3.929-1.111c-2.063,0-3.214,1.19-3.214,2.619
			c0,1.589,1.151,2.302,3.651,3.254c3.333,1.27,5.039,2.936,5.039,5.794c0,3.372-2.619,5.753-7.182,5.753
			c-2.103,0-4.047-0.516-5.396-1.31L158.418,578.841z"/>
	</g>
	<path class="st3" d="M23.949,906.502c-1.548,0.555-4.603,1.467-8.214,1.467c-4.047,0-7.38-1.03-9.999-3.531
		c-2.301-2.222-3.73-5.792-3.73-9.959c0.04-7.976,5.515-13.809,14.483-13.809c3.095,0,5.515,0.674,6.666,1.229l-0.833,2.818
		c-1.429-0.634-3.214-1.15-5.912-1.15c-6.508,0-10.753,4.047-10.753,10.753c0,6.785,4.087,10.792,10.317,10.792
		c2.262,0,3.809-0.317,4.603-0.713v-7.976H15.14v-2.777h8.809V906.502z"/>
	<path class="st3" d="M30.848,898.725c0.08,4.721,3.095,6.666,6.587,6.666c2.5,0,4.008-0.437,5.317-0.992l0.595,2.499
		c-1.23,0.557-3.333,1.19-6.389,1.19c-5.912,0-9.443-3.888-9.443-9.682c0-5.792,3.413-10.355,9.007-10.355
		c6.269,0,7.936,5.516,7.936,9.047c0,0.713-0.079,1.27-0.119,1.627H30.848z M41.086,896.224c0.04-2.222-0.913-5.674-4.841-5.674
		c-3.531,0-5.079,3.254-5.357,5.674H41.086z"/>
	<path class="st3" d="M52.589,882.972v5.516h5v2.657h-5v10.357c0,2.381,0.674,3.73,2.619,3.73c0.913,0,1.587-0.12,2.023-0.238
		l0.159,2.619c-0.675,0.276-1.746,0.476-3.095,0.476c-1.627,0-2.937-0.516-3.77-1.469c-0.992-1.03-1.349-2.737-1.349-5v-10.475
		h-2.976v-2.657h2.976v-4.603L52.589,882.972z"/>
	<path class="st3" d="M79.766,907.692l-0.278-2.421h-0.119c-1.071,1.509-3.135,2.858-5.872,2.858c-3.888,0-5.873-2.738-5.873-5.516
		c0-4.642,4.127-7.182,11.547-7.143v-0.396c0-1.587-0.437-4.445-4.365-4.445c-1.786,0-3.651,0.556-5,1.428l-0.793-2.3
		c1.587-1.032,3.888-1.706,6.309-1.706c5.872,0,7.301,4.006,7.301,7.856v7.182c0,1.666,0.079,3.293,0.317,4.603H79.766z
		 M79.25,897.892c-3.809-0.081-8.134,0.595-8.134,4.323c0,2.263,1.508,3.334,3.294,3.334c2.5,0,4.087-1.587,4.642-3.214
		c0.119-0.357,0.199-0.754,0.199-1.111V897.892z"/>
	<path class="st3" d="M95.871,894.757c0-2.46-0.079-4.445-0.158-6.269h3.134l0.159,3.293h0.079c1.429-2.342,3.69-3.73,6.825-3.73
		c4.642,0,8.134,3.927,8.134,9.76c0,6.905-4.206,10.318-8.729,10.318c-2.539,0-4.761-1.111-5.912-3.017h-0.079v10.436h-3.452
		V894.757z M99.323,899.875c0,0.516,0.079,0.991,0.158,1.428c0.635,2.421,2.738,4.087,5.238,4.087c3.69,0,5.833-3.015,5.833-7.419
		c0-3.85-2.023-7.143-5.714-7.143c-2.381,0-4.603,1.706-5.277,4.325c-0.119,0.437-0.238,0.953-0.238,1.428V899.875z"/>
	<path class="st3" d="M118.047,894.479c0-2.261-0.04-4.205-0.158-5.991h3.055l0.119,3.769h0.159
		c0.873-2.578,2.976-4.205,5.317-4.205c0.397,0,0.674,0.039,0.992,0.118v3.293c-0.357-0.079-0.714-0.118-1.19-0.118
		c-2.46,0-4.206,1.865-4.682,4.484c-0.08,0.475-0.159,1.032-0.159,1.627v10.237h-3.452V894.479z"/>
	<path class="st3" d="M134.67,883.09c0.04,1.19-0.833,2.143-2.222,2.143c-1.23,0-2.103-0.953-2.103-2.143
		c0-1.229,0.913-2.182,2.182-2.182C133.837,880.908,134.67,881.861,134.67,883.09z M130.782,907.692v-19.204h3.492v19.204H130.782z"
		/>
	<path class="st3" d="M153.358,906.977c-0.913,0.477-2.936,1.111-5.515,1.111c-5.793,0-9.563-3.929-9.563-9.8
		c0-5.912,4.047-10.198,10.316-10.198c2.064,0,3.888,0.516,4.841,0.993l-0.794,2.698c-0.833-0.477-2.143-0.912-4.047-0.912
		c-4.404,0-6.785,3.253-6.785,7.261c0,4.443,2.857,7.182,6.666,7.182c1.984,0,3.293-0.516,4.285-0.953L153.358,906.977z"/>
	<path class="st3" d="M158.752,898.725c0.079,4.721,3.095,6.666,6.587,6.666c2.5,0,4.008-0.437,5.317-0.992l0.595,2.499
		c-1.23,0.557-3.333,1.19-6.388,1.19c-5.912,0-9.444-3.888-9.444-9.682c0-5.792,3.412-10.355,9.007-10.355
		c6.269,0,7.936,5.516,7.936,9.047c0,0.713-0.079,1.27-0.119,1.627H158.752z M168.989,896.224c0.04-2.222-0.912-5.674-4.841-5.674
		c-3.531,0-5.079,3.254-5.357,5.674H168.989z"/>
</g>
</svg>
