<?xml version="1.0" encoding="utf-8"?>
<!-- Generator: Adobe Illustrator 20.0.0, SVG Export Plug-In . SVG Version: 6.00 Build 0)  -->
<svg version="1.1" id="Layer_1" xmlns="http://www.w3.org/2000/svg" xmlns:xlink="http://www.w3.org/1999/xlink" x="0px" y="0px"
	 width="172.527px" height="829.221px" viewBox="0 0 172.527 829.221" style="enable-background:new 0 0 172.527 829.221;"
	 xml:space="preserve">
<style type="text/css">
	.st0{fill:#EAC452;}
	.st1{fill:#70D0F6;}
	.st2{fill:#DC594C;}
	.st3{fill:#2B2B2B;}
	.st4{fill-rule:evenodd;clip-rule:evenodd;fill:#2B2B2B;}
	.st5{opacity:0.25;fill:#3B3B3B;}
	.st6{opacity:0.3;}
	.st7{fill:#231F20;}
	.st8{fill:#FFFFFF;}
	.st9{fill:#E2EAED;}
	.st10{fill:#3E516A;}
	.st11{fill:#2B3D51;}
	.st12{fill:#BCBEC0;}
	.st13{fill:#0A2847;}
	.st14{fill:#A0A4A7;}
	.st15{fill:#797D82;}
	.st16{fill:#E0DADB;}
	.st17{opacity:0.2;}
	.st18{fill:#F15D4E;}
	.st19{fill:#2F4955;}
	.st20{fill:#021A36;}
	.st21{fill:#F04836;}
	.st22{fill:#011F3A;}
	.st23{fill:#939598;}
	.st24{fill:#6D6E71;}
	.st25{fill:#58595B;}
	.st26{clip-path:url(#SVGID_2_);fill:#FFFFFF;}
	.st27{clip-path:url(#SVGID_2_);fill:#FEFEFE;}
	.st28{clip-path:url(#SVGID_2_);fill:#FDFDFD;}
	.st29{clip-path:url(#SVGID_2_);fill:#FCFCFC;}
	.st30{clip-path:url(#SVGID_2_);fill:#FBFBFB;}
	.st31{clip-path:url(#SVGID_2_);fill:#FAFAFA;}
	.st32{clip-path:url(#SVGID_2_);fill:#F9F9F9;}
	.st33{clip-path:url(#SVGID_2_);fill:#F8F8F8;}
	.st34{clip-path:url(#SVGID_2_);fill:#F7F7F7;}
	.st35{clip-path:url(#SVGID_2_);fill:#F6F6F6;}
	.st36{clip-path:url(#SVGID_2_);fill:#F5F5F5;}
	.st37{clip-path:url(#SVGID_2_);fill:#F4F4F4;}
	.st38{clip-path:url(#SVGID_2_);fill:#F3F3F3;}
	.st39{clip-path:url(#SVGID_2_);fill:#F2F2F2;}
	.st40{clip-path:url(#SVGID_2_);fill:#F1F1F1;}
	.st41{clip-path:url(#SVGID_2_);fill:#F0F0F0;}
	.st42{clip-path:url(#SVGID_2_);fill:#EFEFEF;}
	.st43{clip-path:url(#SVGID_2_);fill:#EEEEEE;}
	.st44{clip-path:url(#SVGID_2_);fill:#EDEDED;}
	.st45{clip-path:url(#SVGID_2_);fill:#ECECEC;}
	.st46{clip-path:url(#SVGID_2_);fill:#EBEBEB;}
	.st47{clip-path:url(#SVGID_2_);fill:#EAEAEA;}
	.st48{clip-path:url(#SVGID_2_);fill:#E9E9E9;}
	.st49{clip-path:url(#SVGID_2_);fill:#E8E8E8;}
	.st50{clip-path:url(#SVGID_2_);fill:#E7E7E7;}
	.st51{clip-path:url(#SVGID_2_);fill:#E6E6E6;}
	.st52{clip-path:url(#SVGID_2_);fill:#E5E5E5;}
	.st53{clip-path:url(#SVGID_2_);fill:#E4E4E4;}
	.st54{clip-path:url(#SVGID_2_);fill:#E3E3E3;}
	.st55{clip-path:url(#SVGID_2_);fill:#E2E2E2;}
	.st56{clip-path:url(#SVGID_2_);fill:#E1E1E1;}
	.st57{clip-path:url(#SVGID_2_);fill:#E0E0E0;}
	.st58{clip-path:url(#SVGID_2_);fill:#DFDFDF;}
	.st59{clip-path:url(#SVGID_2_);fill:#DEDEDE;}
	.st60{clip-path:url(#SVGID_2_);fill:#DDDDDD;}
	.st61{clip-path:url(#SVGID_2_);fill:#DCDCDC;}
	.st62{clip-path:url(#SVGID_2_);fill:#DBDBDB;}
	.st63{clip-path:url(#SVGID_2_);fill:#DADADA;}
	.st64{clip-path:url(#SVGID_2_);fill:#D9D9D9;}
	.st65{clip-path:url(#SVGID_2_);fill:#D8D8D9;}
	.st66{clip-path:url(#SVGID_2_);fill:#D7D7D8;}
	.st67{clip-path:url(#SVGID_2_);fill:#D6D6D7;}
	.st68{clip-path:url(#SVGID_2_);fill:#D5D5D6;}
	.st69{clip-path:url(#SVGID_2_);fill:#D4D4D5;}
	.st70{clip-path:url(#SVGID_2_);fill:#D3D3D4;}
	.st71{clip-path:url(#SVGID_2_);fill:#D2D2D3;}
	.st72{clip-path:url(#SVGID_2_);fill:#D1D1D2;}
	.st73{clip-path:url(#SVGID_2_);fill:#D0D0D1;}
	.st74{clip-path:url(#SVGID_2_);fill:#CFCFD0;}
	.st75{clip-path:url(#SVGID_2_);fill:#CECECF;}
	.st76{clip-path:url(#SVGID_2_);fill:#CDCDCE;}
	.st77{clip-path:url(#SVGID_2_);fill:#CCCCCD;}
	.st78{clip-path:url(#SVGID_2_);fill:#CBCBCC;}
	.st79{clip-path:url(#SVGID_2_);fill:#CACACB;}
	.st80{clip-path:url(#SVGID_2_);fill:#C9C9CA;}
	.st81{clip-path:url(#SVGID_2_);fill:#C8C8C9;}
	.st82{clip-path:url(#SVGID_2_);fill:#C7C7C8;}
	.st83{clip-path:url(#SVGID_2_);fill:#C6C6C7;}
	.st84{clip-path:url(#SVGID_2_);fill:#C5C5C6;}
	.st85{clip-path:url(#SVGID_2_);fill:#C4C4C5;}
	.st86{clip-path:url(#SVGID_2_);fill:#C3C3C4;}
	.st87{clip-path:url(#SVGID_2_);fill:#C2C2C3;}
	.st88{clip-path:url(#SVGID_2_);fill:#C1C1C2;}
	.st89{clip-path:url(#SVGID_2_);fill:#C0C0C1;}
	.st90{clip-path:url(#SVGID_2_);fill:#BFBFC0;}
	.st91{clip-path:url(#SVGID_2_);fill:#BEBEBF;}
	.st92{clip-path:url(#SVGID_2_);fill:#BDBDBE;}
	.st93{clip-path:url(#SVGID_2_);fill:#BCBCBD;}
	.st94{clip-path:url(#SVGID_2_);fill:#BBBBBC;}
	.st95{clip-path:url(#SVGID_2_);fill:#BABABB;}
	.st96{clip-path:url(#SVGID_2_);fill:#B9B9BA;}
	.st97{clip-path:url(#SVGID_2_);fill:#B8B8B9;}
	.st98{clip-path:url(#SVGID_2_);fill:#B7B7B8;}
	.st99{clip-path:url(#SVGID_2_);fill:#B6B6B7;}
	.st100{clip-path:url(#SVGID_2_);fill:#B5B5B6;}
	.st101{clip-path:url(#SVGID_2_);fill:#B4B4B5;}
	.st102{clip-path:url(#SVGID_2_);fill:#B3B3B4;}
	.st103{clip-path:url(#SVGID_2_);fill:#B2B2B3;}
	.st104{clip-path:url(#SVGID_2_);fill:#B0B1B2;}
	.st105{clip-path:url(#SVGID_2_);fill:#AFB0B1;}
	.st106{clip-path:url(#SVGID_2_);fill:#AEAFB0;}
	.st107{clip-path:url(#SVGID_2_);fill:#ADAEAF;}
	.st108{clip-path:url(#SVGID_2_);fill:#ACADAE;}
	.st109{clip-path:url(#SVGID_2_);fill:#ABACAD;}
	.st110{clip-path:url(#SVGID_2_);fill:#AAABAC;}
	.st111{clip-path:url(#SVGID_2_);fill:#A9AAAB;}
	.st112{clip-path:url(#SVGID_2_);fill:#A8A9AA;}
	.st113{clip-path:url(#SVGID_2_);fill:#A7A8A9;}
	.st114{clip-path:url(#SVGID_2_);fill:#A6A7A8;}
	.st115{clip-path:url(#SVGID_2_);fill:#A5A6A7;}
	.st116{clip-path:url(#SVGID_2_);fill:#A4A5A6;}
	.st117{clip-path:url(#SVGID_2_);fill:#A3A4A5;}
	.st118{clip-path:url(#SVGID_2_);fill:#A2A3A4;}
	.st119{clip-path:url(#SVGID_2_);fill:#A1A2A3;}
	.st120{clip-path:url(#SVGID_2_);fill:#A0A1A2;}
	.st121{clip-path:url(#SVGID_2_);fill:#9FA0A1;}
	.st122{clip-path:url(#SVGID_2_);fill:#9E9FA0;}
	.st123{clip-path:url(#SVGID_2_);fill:#9D9E9F;}
	.st124{clip-path:url(#SVGID_2_);fill:#9C9D9E;}
	.st125{clip-path:url(#SVGID_2_);fill:#9B9C9D;}
	.st126{clip-path:url(#SVGID_2_);fill:#9A9B9C;}
	.st127{clip-path:url(#SVGID_2_);fill:#999A9B;}
	.st128{clip-path:url(#SVGID_2_);fill:#98999A;}
	.st129{clip-path:url(#SVGID_2_);fill:#979899;}
	.st130{clip-path:url(#SVGID_2_);fill:#969798;}
	.st131{clip-path:url(#SVGID_2_);fill:#959697;}
	.st132{clip-path:url(#SVGID_2_);fill:#949596;}
	.st133{clip-path:url(#SVGID_2_);fill:#939495;}
	.st134{clip-path:url(#SVGID_2_);fill:#929394;}
	.st135{clip-path:url(#SVGID_2_);fill:#919293;}
	.st136{clip-path:url(#SVGID_2_);fill:#909192;}
	.st137{clip-path:url(#SVGID_2_);fill:#8F9091;}
	.st138{clip-path:url(#SVGID_2_);fill:#8E8F90;}
	.st139{clip-path:url(#SVGID_2_);fill:#8D8E8F;}
	.st140{clip-path:url(#SVGID_2_);fill:#8C8D8E;}
	.st141{clip-path:url(#SVGID_2_);fill:#8B8C8D;}
	.st142{clip-path:url(#SVGID_2_);fill:#8A8B8C;}
	.st143{clip-path:url(#SVGID_2_);fill:#898A8C;}
	.st144{clip-path:url(#SVGID_2_);fill:#88898B;}
	.st145{clip-path:url(#SVGID_2_);fill:#87888A;}
	.st146{clip-path:url(#SVGID_2_);fill:#868789;}
	.st147{clip-path:url(#SVGID_2_);fill:#858688;}
	.st148{clip-path:url(#SVGID_2_);fill:#848587;}
	.st149{clip-path:url(#SVGID_2_);fill:#838486;}
	.st150{clip-path:url(#SVGID_2_);fill:#828385;}
	.st151{clip-path:url(#SVGID_2_);fill:#818284;}
	.st152{clip-path:url(#SVGID_2_);fill:#808183;}
	.st153{clip-path:url(#SVGID_2_);fill:#7F8082;}
	.st154{clip-path:url(#SVGID_2_);fill:#7E7F81;}
	.st155{clip-path:url(#SVGID_2_);fill:#7D7E80;}
	.st156{clip-path:url(#SVGID_2_);fill:#7C7D7F;}
	.st157{clip-path:url(#SVGID_2_);fill:#7B7C7E;}
	.st158{clip-path:url(#SVGID_2_);fill:#7A7B7D;}
	.st159{clip-path:url(#SVGID_2_);fill:#797A7C;}
	.st160{clip-path:url(#SVGID_2_);fill:#78797B;}
	.st161{clip-path:url(#SVGID_2_);fill:#77787A;}
	.st162{clip-path:url(#SVGID_2_);fill:#767779;}
	.st163{clip-path:url(#SVGID_2_);fill:#757678;}
	.st164{clip-path:url(#SVGID_2_);fill:#747577;}
	.st165{clip-path:url(#SVGID_2_);fill:#737476;}
	.st166{clip-path:url(#SVGID_2_);fill:#727375;}
	.st167{clip-path:url(#SVGID_2_);fill:#717274;}
	.st168{clip-path:url(#SVGID_2_);fill:#707173;}
	.st169{clip-path:url(#SVGID_2_);fill:#6F7072;}
	.st170{clip-path:url(#SVGID_2_);fill:#6E6F71;}
	.st171{clip-path:url(#SVGID_2_);fill:#6D6E70;}
	.st172{clip-path:url(#SVGID_2_);fill:#6C6D6F;}
	.st173{clip-path:url(#SVGID_2_);fill:#6B6C6E;}
	.st174{clip-path:url(#SVGID_2_);fill:#6A6B6D;}
	.st175{clip-path:url(#SVGID_2_);fill:#696A6C;}
	.st176{clip-path:url(#SVGID_2_);fill:#68696B;}
	.st177{clip-path:url(#SVGID_2_);fill:#67686A;}
	.st178{clip-path:url(#SVGID_2_);fill:#666769;}
	.st179{clip-path:url(#SVGID_2_);fill:#656668;}
	.st180{clip-path:url(#SVGID_2_);fill:#646567;}
	.st181{clip-path:url(#SVGID_2_);fill:#636466;}
	.st182{clip-path:url(#SVGID_4_);}
	.st183{fill:#0A1820;}
	.st184{opacity:0.5;}
	.st185{fill:#E2E2E2;}
	.st186{fill:#010101;}
	.st187{opacity:0.37;fill:url(#SVGID_5_);}
	.st188{opacity:0.37;fill:url(#SVGID_6_);}
	.st189{opacity:0.37;fill:url(#SVGID_7_);}
	.st190{opacity:0.37;fill:url(#SVGID_8_);}
	.st191{opacity:0.37;fill:url(#SVGID_9_);}
	.st192{opacity:0.37;fill:url(#SVGID_10_);}
	.st193{fill:#DDEFF8;}
	.st194{fill:#37414B;}
	.st195{opacity:0.2;fill:#231F20;}
	.st196{fill:#EFEFEF;}
	.st197{fill:#1D396A;}
	.st198{fill:#D5DBDB;}
	.st199{fill:#DDEFF8;stroke:#1D396A;stroke-width:2;stroke-miterlimit:10;}
	.st200{fill:#44C5E1;stroke:#1D396A;stroke-width:2;stroke-miterlimit:10;}
	.st201{fill:#44C5E1;stroke:#1D396A;stroke-width:2;stroke-linecap:round;stroke-miterlimit:10;}
	.st202{fill:url(#SVGID_11_);}
	.st203{fill:#44C5E1;}
	.st204{fill:#FFFFFF;stroke:#1D396A;stroke-width:2;stroke-linecap:round;stroke-miterlimit:10;}
	.st205{fill:#D2D8D6;}
	.st206{fill:#EBF0F3;}
	.st207{fill:#F1F2F2;stroke:#1D396A;stroke-width:2;stroke-miterlimit:10;}
	.st208{fill:#F1F2F2;}
	.st209{fill:#FFFFFD;}
	.st210{fill:#D1D3D4;stroke:#1D396A;stroke-width:2;stroke-miterlimit:10;}
	.st211{fill:#D3CE24;stroke:#1D396A;stroke-width:2;stroke-miterlimit:10;}
	.st212{fill:#79B3D5;}
	.st213{fill:#26B898;}
	.st214{clip-path:url(#SVGID_13_);fill:#FFFFFF;}
	.st215{clip-path:url(#SVGID_13_);fill:#FEFEFE;}
	.st216{clip-path:url(#SVGID_13_);fill:#FCFCFC;}
	.st217{clip-path:url(#SVGID_13_);fill:#FBFBFB;}
	.st218{clip-path:url(#SVGID_13_);fill:#FAFAFA;}
	.st219{clip-path:url(#SVGID_13_);fill:#F9F9F9;}
	.st220{clip-path:url(#SVGID_13_);fill:#F8F8F8;}
	.st221{clip-path:url(#SVGID_13_);fill:#F7F7F7;}
	.st222{clip-path:url(#SVGID_13_);fill:#F6F6F6;}
	.st223{clip-path:url(#SVGID_13_);fill:#F5F5F5;}
	.st224{clip-path:url(#SVGID_13_);fill:#F4F4F4;}
	.st225{clip-path:url(#SVGID_13_);fill:#F3F3F3;}
	.st226{clip-path:url(#SVGID_13_);fill:#F2F2F2;}
	.st227{clip-path:url(#SVGID_13_);fill:#F1F1F1;}
	.st228{clip-path:url(#SVGID_13_);fill:#F0F0F0;}
	.st229{clip-path:url(#SVGID_13_);fill:#EFEFEF;}
	.st230{clip-path:url(#SVGID_13_);fill:#EEEEEE;}
	.st231{clip-path:url(#SVGID_13_);fill:#EDEDED;}
	.st232{clip-path:url(#SVGID_13_);fill:#ECECEC;}
	.st233{clip-path:url(#SVGID_13_);fill:#EBEBEB;}
	.st234{clip-path:url(#SVGID_13_);fill:#EAEAEA;}
	.st235{clip-path:url(#SVGID_13_);fill:#E9E9E9;}
	.st236{clip-path:url(#SVGID_13_);fill:#E8E8E8;}
	.st237{clip-path:url(#SVGID_13_);fill:#E7E7E7;}
	.st238{clip-path:url(#SVGID_13_);fill:#E6E6E6;}
	.st239{clip-path:url(#SVGID_13_);fill:#E5E5E5;}
	.st240{clip-path:url(#SVGID_13_);fill:#E4E4E4;}
	.st241{clip-path:url(#SVGID_13_);fill:#E3E3E3;}
	.st242{clip-path:url(#SVGID_13_);fill:#E2E2E2;}
	.st243{clip-path:url(#SVGID_13_);fill:#E1E1E1;}
	.st244{clip-path:url(#SVGID_13_);fill:#E0E0E0;}
	.st245{clip-path:url(#SVGID_13_);fill:#DFDFDF;}
	.st246{clip-path:url(#SVGID_13_);fill:#DEDEDE;}
	.st247{clip-path:url(#SVGID_13_);fill:#DDDDDD;}
	.st248{clip-path:url(#SVGID_13_);fill:#DCDCDC;}
	.st249{clip-path:url(#SVGID_13_);fill:#DBDBDB;}
	.st250{clip-path:url(#SVGID_13_);fill:#DADADA;}
	.st251{clip-path:url(#SVGID_13_);fill:#D9D9D9;}
	.st252{clip-path:url(#SVGID_13_);fill:#D8D8D8;}
	.st253{clip-path:url(#SVGID_13_);fill:#D7D7D7;}
	.st254{clip-path:url(#SVGID_13_);fill:#D6D6D6;}
	.st255{clip-path:url(#SVGID_13_);fill:#D5D5D5;}
	.st256{clip-path:url(#SVGID_13_);fill:#D4D4D5;}
	.st257{clip-path:url(#SVGID_13_);fill:#D3D3D4;}
	.st258{clip-path:url(#SVGID_13_);fill:#D2D2D3;}
	.st259{clip-path:url(#SVGID_13_);fill:#D1D1D2;}
	.st260{clip-path:url(#SVGID_13_);fill:#D0D0D1;}
	.st261{clip-path:url(#SVGID_13_);fill:#CFCFD0;}
	.st262{clip-path:url(#SVGID_13_);fill:#CECECF;}
	.st263{clip-path:url(#SVGID_13_);fill:#CDCDCE;}
	.st264{clip-path:url(#SVGID_13_);fill:#CCCCCD;}
	.st265{clip-path:url(#SVGID_13_);fill:#CBCBCC;}
	.st266{clip-path:url(#SVGID_13_);fill:#CACACB;}
	.st267{clip-path:url(#SVGID_13_);fill:#C9C9CA;}
	.st268{clip-path:url(#SVGID_13_);fill:#C8C8C9;}
	.st269{clip-path:url(#SVGID_13_);fill:#C7C7C8;}
	.st270{clip-path:url(#SVGID_13_);fill:#C6C6C7;}
	.st271{clip-path:url(#SVGID_13_);fill:#C5C5C6;}
	.st272{clip-path:url(#SVGID_13_);fill:#C4C4C5;}
	.st273{clip-path:url(#SVGID_13_);fill:#C3C3C4;}
	.st274{clip-path:url(#SVGID_13_);fill:#C2C2C3;}
	.st275{clip-path:url(#SVGID_13_);fill:#C1C1C2;}
	.st276{clip-path:url(#SVGID_13_);fill:#C0C0C1;}
	.st277{clip-path:url(#SVGID_13_);fill:#BFBFC0;}
	.st278{clip-path:url(#SVGID_13_);fill:#BEBEBF;}
	.st279{clip-path:url(#SVGID_13_);fill:#BDBDBE;}
	.st280{clip-path:url(#SVGID_13_);fill:#BCBCBD;}
	.st281{clip-path:url(#SVGID_13_);fill:#BBBBBC;}
	.st282{clip-path:url(#SVGID_13_);fill:#BABABB;}
	.st283{clip-path:url(#SVGID_13_);fill:#B9B9BA;}
	.st284{clip-path:url(#SVGID_13_);fill:#B8B8B9;}
	.st285{clip-path:url(#SVGID_13_);fill:#B7B7B8;}
	.st286{clip-path:url(#SVGID_13_);fill:#B6B6B7;}
	.st287{clip-path:url(#SVGID_13_);fill:#B5B5B6;}
	.st288{clip-path:url(#SVGID_13_);fill:#B4B4B5;}
	.st289{clip-path:url(#SVGID_13_);fill:#B3B3B4;}
	.st290{clip-path:url(#SVGID_13_);fill:#B2B2B3;}
	.st291{clip-path:url(#SVGID_13_);fill:#B1B1B2;}
	.st292{clip-path:url(#SVGID_13_);fill:#B0B0B1;}
	.st293{clip-path:url(#SVGID_13_);fill:#AFAFB0;}
	.st294{clip-path:url(#SVGID_13_);fill:#ADAEAF;}
	.st295{clip-path:url(#SVGID_13_);fill:#ACADAE;}
	.st296{clip-path:url(#SVGID_13_);fill:#ABACAD;}
	.st297{clip-path:url(#SVGID_13_);fill:#AAABAC;}
	.st298{clip-path:url(#SVGID_13_);fill:#A9AAAB;}
	.st299{clip-path:url(#SVGID_13_);fill:#A8A9AA;}
	.st300{clip-path:url(#SVGID_13_);fill:#A7A8A9;}
	.st301{clip-path:url(#SVGID_13_);fill:#A6A7A8;}
	.st302{clip-path:url(#SVGID_13_);fill:#A5A6A7;}
	.st303{clip-path:url(#SVGID_13_);fill:#A4A5A6;}
	.st304{clip-path:url(#SVGID_13_);fill:#A3A4A5;}
	.st305{clip-path:url(#SVGID_13_);fill:#A2A3A4;}
	.st306{clip-path:url(#SVGID_13_);fill:#A1A2A3;}
	.st307{clip-path:url(#SVGID_13_);fill:#A0A1A2;}
	.st308{clip-path:url(#SVGID_13_);fill:#9FA0A1;}
	.st309{clip-path:url(#SVGID_13_);fill:#9E9FA0;}
	.st310{clip-path:url(#SVGID_13_);fill:#9D9E9F;}
	.st311{clip-path:url(#SVGID_13_);fill:#9C9D9E;}
	.st312{clip-path:url(#SVGID_13_);fill:#9B9C9D;}
	.st313{clip-path:url(#SVGID_13_);fill:#9A9B9C;}
	.st314{clip-path:url(#SVGID_13_);fill:#999A9B;}
	.st315{clip-path:url(#SVGID_13_);fill:#98999A;}
	.st316{clip-path:url(#SVGID_13_);fill:#979899;}
	.st317{clip-path:url(#SVGID_13_);fill:#969798;}
	.st318{clip-path:url(#SVGID_13_);fill:#959697;}
	.st319{clip-path:url(#SVGID_13_);fill:#949596;}
	.st320{clip-path:url(#SVGID_13_);fill:#939495;}
	.st321{clip-path:url(#SVGID_13_);fill:#929394;}
	.st322{clip-path:url(#SVGID_13_);fill:#919293;}
	.st323{clip-path:url(#SVGID_13_);fill:#909192;}
	.st324{clip-path:url(#SVGID_13_);fill:#8F9091;}
	.st325{clip-path:url(#SVGID_13_);fill:#8E8F90;}
	.st326{clip-path:url(#SVGID_13_);fill:#8D8E8F;}
	.st327{clip-path:url(#SVGID_13_);fill:#8C8D8E;}
	.st328{clip-path:url(#SVGID_13_);fill:#8B8C8D;}
	.st329{clip-path:url(#SVGID_13_);fill:#8A8B8C;}
	.st330{clip-path:url(#SVGID_13_);fill:#898A8B;}
	.st331{clip-path:url(#SVGID_13_);fill:#88898B;}
	.st332{clip-path:url(#SVGID_13_);fill:#87888A;}
	.st333{clip-path:url(#SVGID_13_);fill:#868789;}
	.st334{clip-path:url(#SVGID_13_);fill:#858688;}
	.st335{clip-path:url(#SVGID_13_);fill:#848587;}
	.st336{clip-path:url(#SVGID_13_);fill:#838486;}
	.st337{clip-path:url(#SVGID_13_);fill:#828385;}
	.st338{clip-path:url(#SVGID_13_);fill:#818284;}
	.st339{clip-path:url(#SVGID_13_);fill:#808183;}
	.st340{clip-path:url(#SVGID_13_);fill:#7F8082;}
	.st341{clip-path:url(#SVGID_13_);fill:#7E7F81;}
	.st342{clip-path:url(#SVGID_13_);fill:#7D7E80;}
	.st343{clip-path:url(#SVGID_13_);fill:#7C7D7F;}
	.st344{clip-path:url(#SVGID_13_);fill:#7B7C7E;}
	.st345{clip-path:url(#SVGID_13_);fill:#7A7B7D;}
	.st346{clip-path:url(#SVGID_13_);fill:#797A7C;}
	.st347{clip-path:url(#SVGID_13_);fill:#78797B;}
	.st348{clip-path:url(#SVGID_13_);fill:#77787A;}
	.st349{clip-path:url(#SVGID_13_);fill:#767779;}
	.st350{clip-path:url(#SVGID_13_);fill:#757678;}
	.st351{clip-path:url(#SVGID_13_);fill:#747577;}
	.st352{clip-path:url(#SVGID_13_);fill:#737476;}
	.st353{clip-path:url(#SVGID_13_);fill:#727375;}
	.st354{clip-path:url(#SVGID_13_);fill:#717274;}
	.st355{clip-path:url(#SVGID_13_);fill:#707173;}
	.st356{clip-path:url(#SVGID_13_);fill:#6F7072;}
	.st357{clip-path:url(#SVGID_13_);fill:#6E6F71;}
	.st358{clip-path:url(#SVGID_13_);fill:#6D6E70;}
	.st359{clip-path:url(#SVGID_13_);fill:#6C6D6F;}
	.st360{clip-path:url(#SVGID_13_);fill:#6B6C6E;}
	.st361{clip-path:url(#SVGID_13_);fill:#6A6B6D;}
	.st362{clip-path:url(#SVGID_13_);fill:#696A6C;}
	.st363{clip-path:url(#SVGID_13_);fill:#68696B;}
	.st364{clip-path:url(#SVGID_13_);fill:#67686A;}
	.st365{clip-path:url(#SVGID_13_);fill:#666769;}
	.st366{clip-path:url(#SVGID_13_);fill:#656668;}
	.st367{clip-path:url(#SVGID_13_);fill:#646567;}
	.st368{clip-path:url(#SVGID_13_);fill:#636466;}
	.st369{clip-path:url(#SVGID_15_);}
	.st370{fill:#FEFEFE;}
	.st371{fill:#FCFCFC;}
	.st372{fill:#FBFBFB;}
	.st373{fill:#FAFAFA;}
	.st374{fill:#F9F9F9;}
	.st375{fill:#F8F8F8;}
	.st376{fill:#F7F7F7;}
	.st377{fill:#F6F6F6;}
	.st378{fill:#F5F5F5;}
	.st379{fill:#F4F4F4;}
	.st380{fill:#F3F3F3;}
	.st381{fill:#F2F2F2;}
	.st382{fill:#F1F1F1;}
	.st383{fill:#F0F0F0;}
	.st384{fill:#EEEEEE;}
	.st385{fill:#EDEDED;}
	.st386{fill:#ECECEC;}
	.st387{fill:#EBEBEB;}
	.st388{fill:#EAEAEA;}
	.st389{fill:#E9E9E9;}
	.st390{fill:#E8E8E8;}
	.st391{fill:#E7E7E7;}
	.st392{fill:#E6E6E6;}
	.st393{fill:#E5E5E5;}
	.st394{fill:#E4E4E4;}
	.st395{fill:#E3E3E3;}
	.st396{fill:#E1E1E1;}
	.st397{fill:#E0E0E0;}
	.st398{fill:#DFDFDF;}
	.st399{fill:#DEDEDE;}
	.st400{fill:#DDDDDD;}
	.st401{fill:#DCDCDC;}
	.st402{fill:#DBDBDB;}
	.st403{fill:#DADADA;}
	.st404{fill:#D9D9D9;}
	.st405{fill:#D8D8D8;}
	.st406{fill:#D7D7D7;}
	.st407{fill:#D6D6D6;}
	.st408{fill:#D5D5D5;}
	.st409{fill:#D4D4D5;}
	.st410{fill:#D3D3D4;}
	.st411{fill:#D2D2D3;}
	.st412{fill:#D1D1D2;}
	.st413{fill:#D0D0D1;}
	.st414{fill:#CFCFD0;}
	.st415{fill:#CECECF;}
	.st416{fill:#CDCDCE;}
	.st417{fill:#CCCCCD;}
	.st418{fill:#CBCBCC;}
	.st419{fill:#CACACB;}
	.st420{fill:#C9C9CA;}
	.st421{fill:#C8C8C9;}
	.st422{fill:#C7C7C8;}
	.st423{fill:#C6C6C7;}
	.st424{fill:#C5C5C6;}
	.st425{fill:#C4C4C5;}
	.st426{fill:#C3C3C4;}
	.st427{fill:#C2C2C3;}
	.st428{fill:#C1C1C2;}
	.st429{fill:#C0C0C1;}
	.st430{fill:#BFBFC0;}
	.st431{fill:#BEBEBF;}
	.st432{fill:#BDBDBE;}
	.st433{fill:#BCBCBD;}
	.st434{fill:#BBBBBC;}
	.st435{fill:#BABABB;}
	.st436{fill:#B9B9BA;}
	.st437{fill:#B8B8B9;}
	.st438{fill:#B7B7B8;}
	.st439{fill:#B6B6B7;}
	.st440{fill:#B5B5B6;}
	.st441{fill:#B4B4B5;}
	.st442{fill:#B3B3B4;}
	.st443{fill:#B2B2B3;}
	.st444{fill:#B1B1B2;}
	.st445{fill:#B0B0B1;}
	.st446{fill:#AFAFB0;}
	.st447{fill:#ADAEAF;}
	.st448{fill:#ACADAE;}
	.st449{fill:#ABACAD;}
	.st450{fill:#AAABAC;}
	.st451{fill:#A9AAAB;}
	.st452{fill:#A8A9AA;}
	.st453{fill:#A7A8A9;}
	.st454{fill:#A6A7A8;}
	.st455{fill:#A5A6A7;}
	.st456{fill:#A4A5A6;}
	.st457{fill:#A3A4A5;}
	.st458{fill:#A2A3A4;}
	.st459{fill:#A1A2A3;}
	.st460{fill:#A0A1A2;}
	.st461{fill:#9FA0A1;}
	.st462{fill:#9E9FA0;}
	.st463{fill:#9D9E9F;}
	.st464{fill:#9C9D9E;}
	.st465{fill:#9B9C9D;}
	.st466{fill:#9A9B9C;}
	.st467{fill:#999A9B;}
	.st468{fill:#98999A;}
	.st469{fill:#979899;}
	.st470{fill:#969798;}
	.st471{fill:#959697;}
	.st472{fill:#949596;}
	.st473{fill:#939495;}
	.st474{fill:#929394;}
	.st475{fill:#919293;}
	.st476{fill:#909192;}
	.st477{fill:#8F9091;}
	.st478{fill:#8E8F90;}
	.st479{fill:#8D8E8F;}
	.st480{fill:#8C8D8E;}
	.st481{fill:#8B8C8D;}
	.st482{fill:#8A8B8C;}
	.st483{fill:#898A8B;}
	.st484{fill:#88898B;}
	.st485{fill:#87888A;}
	.st486{fill:#868789;}
	.st487{fill:#858688;}
	.st488{fill:#848587;}
	.st489{fill:#838486;}
	.st490{fill:#828385;}
	.st491{fill:#818284;}
	.st492{fill:#808183;}
	.st493{fill:#7F8082;}
	.st494{fill:#7E7F81;}
	.st495{fill:#7D7E80;}
	.st496{fill:#7C7D7F;}
	.st497{fill:#7B7C7E;}
	.st498{fill:#7A7B7D;}
	.st499{fill:#797A7C;}
	.st500{fill:#78797B;}
	.st501{fill:#77787A;}
	.st502{fill:#767779;}
	.st503{fill:#757678;}
	.st504{fill:#747577;}
	.st505{fill:#737476;}
	.st506{fill:#727375;}
	.st507{fill:#717274;}
	.st508{fill:#707173;}
	.st509{fill:#6F7072;}
	.st510{fill:#6E6F71;}
	.st511{fill:#6D6E70;}
	.st512{fill:#6C6D6F;}
	.st513{fill:#6B6C6E;}
	.st514{fill:#6A6B6D;}
	.st515{fill:#696A6C;}
	.st516{fill:#68696B;}
	.st517{fill:#67686A;}
	.st518{fill:#666769;}
	.st519{fill:#656668;}
	.st520{fill:#646567;}
	.st521{fill:#636466;}
	.st522{opacity:0.6;}
	.st523{opacity:0.4;}
	.st524{fill:#FECE8C;}
	.st525{fill:#DD8D24;}
	.st526{fill:#F4EDED;}
	.st527{fill:#A05F10;}
	.st528{fill:#FFCE43;}
	.st529{fill:#FF9900;}
	.st530{fill:#FFC306;}
	.st531{fill:#7A471F;}
	.st532{fill:#DD9F76;}
	.st533{fill:#E6E7E8;}
	.st534{fill:#D1D3D4;}
	.st535{clip-path:url(#SVGID_17_);}
	.st536{fill:#FDFDFD;}
	.st537{fill:#D4D4D4;}
	.st538{fill:#D3D3D3;}
	.st539{fill:#D2D2D2;}
	.st540{fill:#D1D1D1;}
	.st541{fill:#D0D0D0;}
	.st542{fill:#CFCFCF;}
	.st543{fill:#CECECE;}
	.st544{fill:#CDCDCD;}
	.st545{fill:#CCCCCC;}
	.st546{fill:#CBCBCB;}
	.st547{fill:#CACACA;}
	.st548{fill:#CAC9C9;}
	.st549{fill:#C9C7C7;}
	.st550{fill:#C8C6C6;}
	.st551{fill:#C7C5C5;}
	.st552{fill:#C6C4C4;}
	.st553{fill:#C5C3C3;}
	.st554{fill:#C4C2C2;}
	.st555{fill:#C3C1C1;}
	.st556{fill:#C2C0C0;}
	.st557{fill:#C1BFBF;}
	.st558{fill:#C0BEBE;}
	.st559{fill:#BFBDBD;}
	.st560{fill:#BEBCBC;}
	.st561{fill:#BDBBBB;}
	.st562{fill:#BCBABA;}
	.st563{fill:#BBB9B9;}
	.st564{fill:#BAB8B8;}
	.st565{fill:#B9B7B7;}
	.st566{fill:#B8B6B6;}
	.st567{fill:#B7B5B5;}
	.st568{fill:#B6B4B4;}
	.st569{fill:#B5B3B3;}
	.st570{fill:#B4B2B2;}
	.st571{fill:#B3B1B1;}
	.st572{fill:#B2B0B0;}
	.st573{fill:#B1AFAF;}
	.st574{fill:#B0AEAE;}
	.st575{fill:#AFADAD;}
	.st576{fill:#AEACAC;}
	.st577{fill:#ADABAB;}
	.st578{fill:#ACAAAA;}
	.st579{fill:#ABA9A9;}
	.st580{fill:#AAA8A8;}
	.st581{fill:#A9A7A7;}
	.st582{fill:#A8A6A6;}
	.st583{fill:#A7A5A5;}
	.st584{fill:#A6A4A4;}
	.st585{fill:#A5A3A3;}
	.st586{fill:#A4A2A2;}
	.st587{fill:#A3A1A1;}
	.st588{fill:#A2A0A0;}
	.st589{fill:#A19F9F;}
	.st590{fill:#A09E9E;}
	.st591{fill:#9F9D9D;}
	.st592{fill:#9E9C9C;}
	.st593{fill:#9D9B9B;}
	.st594{fill:#9C9A9A;}
	.st595{fill:#9B9999;}
	.st596{fill:#9A9898;}
	.st597{fill:#999797;}
	.st598{fill:#989696;}
	.st599{fill:#979595;}
	.st600{fill:#969494;}
	.st601{fill:#959393;}
	.st602{fill:#949292;}
	.st603{fill:#5E5E5E;}
	.st604{clip-path:url(#SVGID_19_);}
	.st605{fill:#C9C9C9;}
	.st606{fill:#C8C8C8;}
	.st607{fill:#C7C7C7;}
	.st608{fill:#C6C6C6;}
	.st609{fill:#C5C5C5;}
	.st610{fill:#939191;}
	.st611{fill:#929090;}
	.st612{fill:#918F8F;}
	.st613{fill:#908E8E;}
	.st614{fill:#8F8D8D;}
	.st615{fill:#8E8C8C;}
	.st616{fill:#8D8B8B;}
	.st617{fill:#8C8A8A;}
	.st618{fill:#8B8989;}
	.st619{clip-path:url(#SVGID_21_);}
	.st620{clip-path:url(#SVGID_23_);}
	.st621{clip-path:url(#SVGID_25_);}
	.st622{clip-path:url(#SVGID_27_);}
	.st623{fill:#A4A3A3;}
	.st624{fill:#A3A2A2;}
	.st625{fill:#A2A1A1;}
	.st626{fill:#A1A0A0;}
	.st627{fill:#A09F9F;}
	.st628{fill:#9F9E9E;}
	.st629{fill:#9E9D9D;}
	.st630{fill:#9D9C9C;}
	.st631{fill:#9C9B9B;}
	.st632{fill:#9B9A9A;}
	.st633{fill:#9A9999;}
	.st634{fill:#999898;}
	.st635{fill:#989797;}
	.st636{fill:#979697;}
	.st637{fill:#969596;}
	.st638{fill:#959495;}
	.st639{fill:#949394;}
	.st640{fill:#939293;}
	.st641{fill:#929192;}
	.st642{fill:#919091;}
	.st643{fill:#908F90;}
	.st644{fill:#8F8E8F;}
	.st645{fill:#8E8D8E;}
	.st646{fill:#8D8C8D;}
	.st647{fill:#8C8B8C;}
	.st648{fill:#8B8A8B;}
	.st649{fill:#8A898A;}
	.st650{fill:#898889;}
	.st651{fill:#888788;}
	.st652{fill:#878687;}
	.st653{fill:#868586;}
	.st654{fill:#858485;}
	.st655{fill:#848384;}
	.st656{fill:#838283;}
	.st657{fill:#828182;}
	.st658{fill:#818081;}
	.st659{fill:#807F80;}
	.st660{fill:#7F7E7F;}
	.st661{fill:#7D7E7F;}
	.st662{fill:#7C7D7E;}
	.st663{fill:#7B7C7D;}
	.st664{fill:#7A7B7C;}
	.st665{fill:#797A7B;}
	.st666{fill:#78797A;}
	.st667{fill:#777879;}
	.st668{fill:#767778;}
	.st669{fill:#757677;}
	.st670{fill:#747576;}
	.st671{fill:#737475;}
	.st672{fill:#727374;}
	.st673{fill:#717273;}
	.st674{fill:#707172;}
	.st675{fill:#6F7071;}
	.st676{fill:#6E6F70;}
	.st677{fill:#6D6E6F;}
	.st678{fill:#6C6D6E;}
	.st679{fill:#6B6C6D;}
	.st680{fill:#6A6B6C;}
	.st681{fill:#696A6B;}
	.st682{fill:#68696A;}
	.st683{fill:#676869;}
	.st684{fill:#666768;}
	.st685{fill:#656667;}
	.st686{fill:#626365;}
	.st687{fill:#616264;}
	.st688{fill:#606163;}
	.st689{fill:#5F6062;}
	.st690{fill:#5E5F61;}
	.st691{fill:#5D5E60;}
	.st692{fill:#5C5D5F;}
	.st693{fill:#5B5C5E;}
	.st694{fill:#5A5B5D;}
	.st695{fill:#595A5C;}
	.st696{clip-path:url(#SVGID_29_);fill:#A4A3A3;}
	.st697{clip-path:url(#SVGID_29_);fill:#A3A2A2;}
	.st698{clip-path:url(#SVGID_29_);fill:#A2A1A1;}
	.st699{clip-path:url(#SVGID_29_);fill:#A1A0A0;}
	.st700{clip-path:url(#SVGID_29_);fill:#A09F9F;}
	.st701{clip-path:url(#SVGID_29_);fill:#9F9E9E;}
	.st702{clip-path:url(#SVGID_29_);fill:#9E9D9D;}
	.st703{clip-path:url(#SVGID_29_);fill:#9D9C9C;}
	.st704{clip-path:url(#SVGID_29_);fill:#9C9B9B;}
	.st705{clip-path:url(#SVGID_29_);fill:#9B9A9A;}
	.st706{clip-path:url(#SVGID_29_);fill:#9A9999;}
	.st707{clip-path:url(#SVGID_29_);fill:#999898;}
	.st708{clip-path:url(#SVGID_29_);fill:#989797;}
	.st709{clip-path:url(#SVGID_29_);fill:#979697;}
	.st710{clip-path:url(#SVGID_29_);fill:#969596;}
	.st711{clip-path:url(#SVGID_29_);fill:#959495;}
	.st712{clip-path:url(#SVGID_29_);fill:#949394;}
	.st713{clip-path:url(#SVGID_29_);fill:#939293;}
	.st714{clip-path:url(#SVGID_29_);fill:#929192;}
	.st715{clip-path:url(#SVGID_29_);fill:#919091;}
	.st716{clip-path:url(#SVGID_29_);fill:#908F90;}
	.st717{clip-path:url(#SVGID_29_);fill:#8F8E8F;}
	.st718{clip-path:url(#SVGID_29_);fill:#8E8D8E;}
	.st719{clip-path:url(#SVGID_29_);fill:#8D8C8D;}
	.st720{clip-path:url(#SVGID_29_);fill:#8C8B8C;}
	.st721{clip-path:url(#SVGID_29_);fill:#8B8A8B;}
	.st722{clip-path:url(#SVGID_29_);fill:#8A898A;}
	.st723{clip-path:url(#SVGID_29_);fill:#898889;}
	.st724{clip-path:url(#SVGID_29_);fill:#888788;}
	.st725{clip-path:url(#SVGID_29_);fill:#878687;}
	.st726{clip-path:url(#SVGID_29_);fill:#868586;}
	.st727{clip-path:url(#SVGID_29_);fill:#858485;}
	.st728{clip-path:url(#SVGID_29_);fill:#848384;}
	.st729{clip-path:url(#SVGID_29_);fill:#838283;}
	.st730{clip-path:url(#SVGID_29_);fill:#828182;}
	.st731{clip-path:url(#SVGID_29_);fill:#818081;}
	.st732{clip-path:url(#SVGID_29_);fill:#807F80;}
	.st733{clip-path:url(#SVGID_29_);fill:#7F7E7F;}
	.st734{clip-path:url(#SVGID_29_);fill:#7D7E7F;}
	.st735{clip-path:url(#SVGID_29_);fill:#7C7D7E;}
	.st736{clip-path:url(#SVGID_29_);fill:#7B7C7D;}
	.st737{clip-path:url(#SVGID_29_);fill:#7A7B7C;}
	.st738{clip-path:url(#SVGID_29_);fill:#797A7B;}
	.st739{clip-path:url(#SVGID_29_);fill:#78797A;}
	.st740{clip-path:url(#SVGID_29_);fill:#777879;}
	.st741{clip-path:url(#SVGID_29_);fill:#767778;}
	.st742{clip-path:url(#SVGID_29_);fill:#757677;}
	.st743{clip-path:url(#SVGID_29_);fill:#747576;}
	.st744{clip-path:url(#SVGID_29_);fill:#737475;}
	.st745{clip-path:url(#SVGID_29_);fill:#727374;}
	.st746{clip-path:url(#SVGID_29_);fill:#717273;}
	.st747{clip-path:url(#SVGID_29_);fill:#707172;}
	.st748{clip-path:url(#SVGID_29_);fill:#6F7071;}
	.st749{clip-path:url(#SVGID_29_);fill:#6E6F70;}
	.st750{clip-path:url(#SVGID_29_);fill:#6D6E6F;}
	.st751{clip-path:url(#SVGID_29_);fill:#6C6D6E;}
	.st752{clip-path:url(#SVGID_29_);fill:#6B6C6D;}
	.st753{clip-path:url(#SVGID_29_);fill:#6A6B6C;}
	.st754{clip-path:url(#SVGID_29_);fill:#696A6B;}
	.st755{clip-path:url(#SVGID_29_);fill:#68696A;}
	.st756{clip-path:url(#SVGID_29_);fill:#676869;}
	.st757{clip-path:url(#SVGID_29_);fill:#666768;}
	.st758{clip-path:url(#SVGID_29_);fill:#656667;}
	.st759{clip-path:url(#SVGID_29_);fill:#646567;}
	.st760{clip-path:url(#SVGID_29_);fill:#636466;}
	.st761{clip-path:url(#SVGID_29_);fill:#626365;}
	.st762{clip-path:url(#SVGID_29_);fill:#616264;}
	.st763{clip-path:url(#SVGID_29_);fill:#606163;}
	.st764{clip-path:url(#SVGID_29_);fill:#5F6062;}
	.st765{clip-path:url(#SVGID_29_);fill:#5E5F61;}
	.st766{clip-path:url(#SVGID_29_);fill:#5D5E60;}
	.st767{clip-path:url(#SVGID_29_);fill:#5C5D5F;}
	.st768{clip-path:url(#SVGID_29_);fill:#5B5C5E;}
	.st769{clip-path:url(#SVGID_29_);fill:#5A5B5D;}
	.st770{clip-path:url(#SVGID_29_);fill:#595A5C;}
	.st771{clip-path:url(#SVGID_29_);fill:#58595B;}
	.st772{clip-path:url(#SVGID_31_);}
	.st773{clip-path:url(#SVGID_33_);}
	.st774{clip-path:url(#SVGID_35_);}
	.st775{clip-path:url(#SVGID_37_);}
	.st776{clip-path:url(#SVGID_39_);}
</style>
<g>
	<path d="M95.453,266.416c1.189-1.187,1.192-3.257,0-4.449c-1.229-1.223-3.227-1.222-4.453,0.002l-6.495,6.498v-24.775
		c0-1.734-1.411-3.145-3.144-3.145c-1.735,0-3.146,1.411-3.146,3.145v24.775l-6.494-6.497c-0.595-0.597-1.388-0.924-2.231-0.923
		c-0.841,0.001-1.63,0.33-2.218,0.922c-0.596,0.595-0.925,1.385-0.925,2.225c0,0.846,0.33,1.636,0.924,2.222l11.868,11.872
		c0.586,0.586,1.396,0.922,2.222,0.922c0.824,0,1.635-0.336,2.227-0.922L95.453,266.416z"/>
	<path d="M95.453,610.299c1.189-1.187,1.192-3.257,0-4.45c-1.229-1.223-3.227-1.222-4.453,0.002l-6.495,6.498v-24.775
		c0-1.734-1.411-3.145-3.144-3.145c-1.735,0-3.146,1.411-3.146,3.145v24.775l-6.494-6.497c-0.595-0.597-1.388-0.924-2.231-0.923
		c-0.841,0.001-1.63,0.33-2.218,0.922c-0.596,0.595-0.925,1.385-0.925,2.225c0,0.846,0.33,1.636,0.924,2.222l11.868,11.872
		c0.586,0.586,1.396,0.922,2.222,0.922c0.824,0,1.635-0.336,2.227-0.922L95.453,610.299z"/>
	<path d="M37.624,154.603c1.552,0.956,3.821,1.75,6.209,1.75c3.542,0,5.611-1.871,5.611-4.577c0-2.506-1.432-3.939-5.054-5.333
		c-4.377-1.553-7.084-3.821-7.084-7.6c0-4.179,3.462-7.284,8.676-7.284c2.746,0,4.736,0.638,5.93,1.314l-0.955,2.826
		c-0.876-0.479-2.666-1.274-5.094-1.274c-3.662,0-5.054,2.188-5.054,4.018c0,2.508,1.632,3.741,5.333,5.174
		c4.537,1.752,6.845,3.941,6.845,7.88c0,4.14-3.064,7.722-9.392,7.722c-2.587,0-5.412-0.758-6.845-1.712L37.624,154.603z"/>
	<path d="M61.301,134.027v5.532h5.015v2.667h-5.015v10.386c0,2.388,0.677,3.741,2.627,3.741c0.915,0,1.592-0.118,2.03-0.238
		l0.159,2.627c-0.677,0.279-1.751,0.479-3.104,0.479c-1.632,0-2.945-0.518-3.781-1.473c-0.995-1.035-1.353-2.747-1.353-5.015
		v-10.506h-2.985v-2.667h2.985v-4.617L61.301,134.027z"/>
	<path d="M80.521,158.821l-0.279-2.427h-0.12c-1.074,1.512-3.144,2.865-5.89,2.865c-3.9,0-5.89-2.747-5.89-5.532
		c0-4.656,4.139-7.203,11.581-7.162v-0.399c0-1.591-0.438-4.456-4.378-4.456c-1.791,0-3.661,0.556-5.015,1.432l-0.796-2.309
		c1.592-1.035,3.9-1.712,6.328-1.712c5.89,0,7.323,4.02,7.323,7.88v7.205c0,1.671,0.079,3.303,0.318,4.615H80.521z M80.004,148.991
		c-3.821-0.079-8.159,0.597-8.159,4.338c0,2.268,1.512,3.344,3.303,3.344c2.507,0,4.099-1.593,4.656-3.224
		c0.12-0.359,0.199-0.758,0.199-1.115V148.991z"/>
	<path d="M88.637,145.568c0-2.268-0.04-4.218-0.159-6.009h3.064l0.12,3.782h0.159c0.876-2.588,2.985-4.22,5.333-4.22
		c0.398,0,0.676,0.041,0.995,0.12v3.303c-0.358-0.079-0.716-0.12-1.194-0.12c-2.468,0-4.218,1.871-4.696,4.497
		c-0.08,0.479-0.159,1.035-0.159,1.632v10.268h-3.462V145.568z"/>
	<path d="M106.424,134.027v5.532h5.015v2.667h-5.015v10.386c0,2.388,0.677,3.741,2.627,3.741c0.915,0,1.592-0.118,2.03-0.238
		l0.159,2.627c-0.677,0.279-1.751,0.479-3.104,0.479c-1.632,0-2.945-0.518-3.781-1.473c-0.995-1.035-1.353-2.747-1.353-5.015
		v-10.506h-2.985v-2.667h2.985v-4.617L106.424,134.027z"/>
	<path d="M133.681,158.821l-0.279-2.427h-0.12c-1.074,1.512-3.144,2.865-5.89,2.865c-3.9,0-5.89-2.747-5.89-5.532
		c0-4.656,4.139-7.203,11.581-7.162v-0.399c0-1.591-0.438-4.456-4.378-4.456c-1.791,0-3.661,0.556-5.015,1.432l-0.796-2.309
		c1.592-1.035,3.9-1.712,6.328-1.712c5.89,0,7.323,4.02,7.323,7.88v7.205c0,1.671,0.079,3.303,0.318,4.615H133.681z
		 M133.164,148.991c-3.821-0.079-8.159,0.597-8.159,4.338c0,2.268,1.512,3.344,3.303,3.344c2.507,0,4.099-1.593,4.656-3.224
		c0.12-0.359,0.199-0.758,0.199-1.115V148.991z"/>
	<path d="M6.627,177.542l3.781,10.826c0.637,1.75,1.154,3.342,1.552,4.933h0.12c0.438-1.591,0.995-3.183,1.632-4.933l3.741-10.826
		h3.662l-7.562,19.262h-3.343l-7.323-19.262H6.627z"/>
	<path d="M27.915,172.13c0.04,1.194-0.835,2.15-2.229,2.15c-1.233,0-2.109-0.956-2.109-2.15c0-1.235,0.915-2.188,2.189-2.188
		C27.08,169.942,27.915,170.895,27.915,172.13z M24.015,196.804v-19.262h3.502v19.262H24.015z"/>
	<path d="M49.564,168.548v23.282c0,1.712,0.04,3.662,0.159,4.974h-3.144l-0.159-3.342h-0.08c-1.074,2.148-3.423,3.78-6.566,3.78
		c-4.656,0-8.238-3.941-8.238-9.791c-0.04-6.406,3.94-10.347,8.636-10.347c2.945,0,4.935,1.394,5.81,2.946h0.079v-11.502H49.564z
		 M46.062,185.383c0-0.438-0.04-1.035-0.159-1.473c-0.518-2.229-2.428-4.059-5.054-4.059c-3.621,0-5.771,3.183-5.771,7.442
		c0,3.9,1.91,7.124,5.691,7.124c2.348,0,4.497-1.551,5.134-4.177c0.119-0.479,0.159-0.956,0.159-1.514V185.383z"/>
	<path d="M56.923,187.81c0.08,4.736,3.104,6.686,6.606,6.686c2.507,0,4.02-0.436,5.333-0.994l0.597,2.508
		c-1.234,0.556-3.343,1.194-6.408,1.194c-5.93,0-9.471-3.902-9.471-9.711c0-5.811,3.423-10.388,9.034-10.388
		c6.288,0,7.959,5.532,7.959,9.074c0,0.717-0.079,1.274-0.119,1.632H56.923z M67.191,185.303c0.04-2.229-0.915-5.691-4.856-5.691
		c-3.542,0-5.094,3.262-5.373,5.691H67.191z"/>
	<path d="M91.942,187.015c0,7.124-4.935,10.227-9.591,10.227c-5.214,0-9.233-3.821-9.233-9.909c0-6.447,4.218-10.229,9.551-10.229
		C88.201,177.104,91.942,181.124,91.942,187.015z M76.66,187.213c0,4.22,2.428,7.403,5.85,7.403c3.343,0,5.851-3.144,5.851-7.482
		c0-3.262-1.632-7.403-5.771-7.403C78.451,179.731,76.66,183.551,76.66,187.213z"/>
	<path d="M117.725,196.088c-0.915,0.477-2.945,1.115-5.532,1.115c-5.81,0-9.591-3.941-9.591-9.831
		c0-5.93,4.059-10.227,10.347-10.227c2.07,0,3.9,0.518,4.856,0.994l-0.796,2.706c-0.836-0.477-2.149-0.915-4.059-0.915
		c-4.418,0-6.805,3.264-6.805,7.283c0,4.458,2.865,7.203,6.686,7.203c1.99,0,3.303-0.518,4.298-0.954L117.725,196.088z"/>
	<path d="M121.424,168.548h3.502v12.018h0.079c0.557-0.994,1.433-1.869,2.507-2.466c1.035-0.597,2.268-0.996,3.582-0.996
		c2.587,0,6.726,1.593,6.726,8.238v11.462h-3.502v-11.062c0-3.105-1.154-5.732-4.457-5.732c-2.269,0-4.059,1.591-4.696,3.503
		c-0.199,0.477-0.239,0.994-0.239,1.671v11.621h-3.502V168.548z"/>
	<path d="M153.776,196.804l-0.279-2.427h-0.12c-1.074,1.512-3.144,2.865-5.89,2.865c-3.9,0-5.89-2.747-5.89-5.532
		c0-4.656,4.139-7.203,11.581-7.162v-0.399c0-1.591-0.438-4.456-4.378-4.456c-1.791,0-3.662,0.556-5.015,1.432l-0.796-2.309
		c1.592-1.035,3.9-1.712,6.328-1.712c5.89,0,7.323,4.02,7.323,7.88v7.205c0,1.671,0.079,3.303,0.318,4.615H153.776z
		 M153.259,186.974c-3.821-0.079-8.159,0.597-8.159,4.338c0,2.268,1.512,3.344,3.303,3.344c2.507,0,4.099-1.593,4.656-3.224
		c0.12-0.359,0.199-0.758,0.199-1.115V186.974z"/>
	<path d="M165.952,172.01v5.532h5.015v2.667h-5.015v10.386c0,2.388,0.676,3.741,2.627,3.741c0.915,0,1.592-0.118,2.029-0.238
		l0.159,2.627c-0.677,0.279-1.751,0.479-3.104,0.479c-1.632,0-2.945-0.518-3.781-1.473c-0.995-1.035-1.353-2.747-1.353-5.015
		v-10.506h-2.985v-2.667h2.985v-4.617L165.952,172.01z"/>
	<path d="M17.315,489.863c1.552,0.956,3.821,1.75,6.209,1.75c3.542,0,5.611-1.871,5.611-4.577c0-2.506-1.432-3.939-5.054-5.333
		c-4.377-1.553-7.084-3.821-7.084-7.6c0-4.179,3.462-7.284,8.676-7.284c2.746,0,4.736,0.638,5.93,1.314l-0.955,2.826
		c-0.876-0.479-2.666-1.274-5.094-1.274c-3.662,0-5.054,2.188-5.054,4.018c0,2.508,1.632,3.741,5.333,5.174
		c4.537,1.752,6.845,3.941,6.845,7.88c0,4.14-3.064,7.722-9.392,7.722c-2.587,0-5.412-0.758-6.845-1.712L17.315,489.863z"/>
	<path d="M36.893,465.825h3.502v12.018h0.079c0.557-0.994,1.433-1.869,2.507-2.466c1.035-0.597,2.268-0.996,3.582-0.996
		c2.587,0,6.726,1.593,6.726,8.238v11.462h-3.502v-11.062c0-3.105-1.154-5.732-4.457-5.732c-2.269,0-4.059,1.591-4.696,3.503
		c-0.199,0.477-0.239,0.994-0.239,1.671v11.621h-3.502V465.825z"/>
	<path d="M76.01,484.292c0,7.124-4.935,10.227-9.591,10.227c-5.214,0-9.233-3.821-9.233-9.909c0-6.447,4.218-10.229,9.551-10.229
		C72.269,474.381,76.01,478.401,76.01,484.292z M60.728,484.49c0,4.22,2.428,7.403,5.85,7.403c3.343,0,5.851-3.144,5.851-7.482
		c0-3.262-1.632-7.403-5.771-7.403C62.519,477.008,60.728,480.828,60.728,484.49z"/>
	<path d="M81.142,474.819l2.547,9.791c0.557,2.148,1.074,4.139,1.432,6.129h0.119c0.438-1.95,1.075-4.02,1.712-6.09l3.144-9.83
		h2.945l2.985,9.632c0.716,2.307,1.274,4.338,1.712,6.288h0.119c0.318-1.95,0.836-3.981,1.473-6.249l2.746-9.671h3.462
		l-6.208,19.262h-3.184l-2.945-9.192c-0.677-2.15-1.233-4.061-1.711-6.329h-0.079c-0.478,2.309-1.075,4.297-1.751,6.368
		l-3.104,9.153H83.37l-5.81-19.262H81.142z"/>
	<path d="M132.792,488.828c0,1.991,0.04,3.741,0.159,5.253h-3.104l-0.199-3.144h-0.079c-0.915,1.553-2.945,3.582-6.368,3.582
		c-3.025,0-6.646-1.671-6.646-8.438v-11.262h3.502v10.665c0,3.662,1.114,6.129,4.298,6.129c2.348,0,3.98-1.63,4.617-3.183
		c0.199-0.518,0.318-1.155,0.318-1.791v-11.82h3.502V488.828z"/>
	<path d="M137.724,490.499c1.035,0.677,2.865,1.394,4.616,1.394c2.547,0,3.741-1.274,3.741-2.865c0-1.673-0.995-2.588-3.582-3.543
		c-3.462-1.233-5.094-3.142-5.094-5.451c0-3.105,2.507-5.652,6.646-5.652c1.95,0,3.661,0.558,4.736,1.194l-0.875,2.547
		c-0.756-0.477-2.149-1.115-3.94-1.115c-2.069,0-3.224,1.194-3.224,2.627c0,1.593,1.154,2.309,3.662,3.264
		c3.343,1.273,5.054,2.944,5.054,5.811c0,3.383-2.627,5.771-7.203,5.771c-2.109,0-4.059-0.518-5.412-1.314L137.724,490.499z"/>
	<path d="M5.557,512.802l4.218,11.382c0.438,1.273,0.915,2.785,1.234,3.941h0.08c0.358-1.155,0.756-2.627,1.233-4.02l3.821-11.303
		h3.701l-5.253,13.73c-2.507,6.608-4.218,9.99-6.606,12.059c-1.712,1.514-3.423,2.111-4.298,2.27l-0.875-2.946
		c0.875-0.277,2.03-0.835,3.064-1.712c0.955-0.756,2.149-2.109,2.945-3.9c0.159-0.357,0.279-0.636,0.279-0.836
		c0-0.198-0.079-0.477-0.239-0.915l-7.124-17.75H5.557z"/>
	<path d="M39.661,522.275c0,7.124-4.935,10.227-9.591,10.227c-5.214,0-9.233-3.821-9.233-9.909c0-6.447,4.218-10.229,9.551-10.229
		C35.92,512.364,39.661,516.384,39.661,522.275z M24.379,522.473c0,4.22,2.427,7.403,5.85,7.403c3.343,0,5.851-3.144,5.851-7.482
		c0-3.262-1.632-7.403-5.771-7.403C26.169,514.991,24.379,518.811,24.379,522.473z"/>
	<path d="M59.795,526.811c0,1.991,0.04,3.741,0.159,5.253H56.85l-0.199-3.144h-0.079c-0.915,1.553-2.945,3.582-6.368,3.582
		c-3.025,0-6.646-1.671-6.646-8.438v-11.262h3.502v10.665c0,3.662,1.114,6.129,4.298,6.129c2.348,0,3.98-1.63,4.617-3.183
		c0.199-0.518,0.318-1.155,0.318-1.791v-11.82h3.502V526.811z"/>
	<path d="M65.204,518.811c0-2.268-0.04-4.218-0.159-6.009h3.064l0.12,3.782h0.159c0.876-2.588,2.985-4.22,5.333-4.22
		c0.398,0,0.676,0.041,0.995,0.12v3.303c-0.358-0.079-0.716-0.12-1.194-0.12c-2.468,0-4.218,1.871-4.696,4.497
		c-0.08,0.479-0.159,1.035-0.159,1.632v10.268h-3.462V518.811z"/>
	<path d="M89.755,507.39c0.04,1.194-0.835,2.15-2.229,2.15c-1.233,0-2.109-0.956-2.109-2.15c0-1.235,0.915-2.188,2.189-2.188
		C88.92,505.202,89.755,506.155,89.755,507.39z M85.855,532.064v-19.262h3.502v19.262H85.855z"/>
	<path d="M98.987,507.27v5.532h5.015v2.667h-5.015v10.386c0,2.388,0.676,3.741,2.627,3.741c0.915,0,1.592-0.118,2.03-0.238
		l0.159,2.626c-0.677,0.279-1.751,0.479-3.104,0.479c-1.632,0-2.945-0.518-3.781-1.473c-0.995-1.035-1.353-2.747-1.353-5.015
		v-10.506h-2.985v-2.667h2.985v-4.617L98.987,507.27z"/>
	<path d="M109.253,523.07c0.079,4.736,3.104,6.686,6.606,6.686c2.507,0,4.02-0.436,5.333-0.994l0.597,2.508
		c-1.234,0.556-3.343,1.194-6.407,1.194c-5.93,0-9.472-3.902-9.472-9.711c0-5.811,3.422-10.388,9.034-10.388
		c6.288,0,7.959,5.532,7.959,9.074c0,0.717-0.079,1.273-0.119,1.632H109.253z M119.52,520.563c0.04-2.229-0.915-5.691-4.855-5.691
		c-3.542,0-5.094,3.262-5.373,5.691H119.52z"/>
	<path d="M126.84,518.016c0-1.991-0.04-3.623-0.159-5.214h3.064l0.159,3.105h0.119c1.075-1.832,2.865-3.543,6.049-3.543
		c2.627,0,4.617,1.593,5.452,3.861h0.079c0.597-1.076,1.353-1.911,2.149-2.508c1.154-0.874,2.428-1.353,4.259-1.353
		c2.547,0,6.327,1.673,6.327,8.358v11.342h-3.422V521.16c0-3.702-1.353-5.93-4.179-5.93c-1.99,0-3.542,1.471-4.139,3.183
		c-0.159,0.477-0.279,1.115-0.279,1.75v11.9h-3.423v-11.541c0-3.065-1.353-5.292-4.02-5.292c-2.189,0-3.78,1.75-4.338,3.501
		c-0.199,0.518-0.279,1.115-0.279,1.712v11.621h-3.423V518.016z"/>
	<path d="M159.151,528.482c1.035,0.676,2.865,1.394,4.616,1.394c2.547,0,3.741-1.274,3.741-2.865c0-1.673-0.995-2.588-3.582-3.543
		c-3.462-1.233-5.094-3.142-5.094-5.451c0-3.105,2.507-5.652,6.646-5.652c1.95,0,3.662,0.558,4.736,1.194l-0.875,2.547
		c-0.756-0.477-2.149-1.115-3.94-1.115c-2.069,0-3.224,1.194-3.224,2.627c0,1.593,1.154,2.309,3.662,3.264
		c3.343,1.274,5.054,2.944,5.054,5.811c0,3.383-2.627,5.771-7.204,5.771c-2.109,0-4.059-0.518-5.412-1.314L159.151,528.482z"/>
	<path d="M22.008,820.255c-1.552,0.557-4.617,1.472-8.238,1.472c-4.059,0-7.402-1.034-10.029-3.542
		C1.432,815.956,0,812.375,0,808.196c0.04-7.999,5.532-13.85,14.526-13.85c3.104,0,5.532,0.677,6.686,1.234l-0.835,2.826
		c-1.433-0.637-3.224-1.154-5.93-1.154c-6.527,0-10.785,4.059-10.785,10.785c0,6.806,4.099,10.825,10.348,10.825
		c2.268,0,3.821-0.319,4.616-0.716v-8h-5.452v-2.785h8.835V820.255z"/>
	<path d="M28.928,812.455c0.08,4.736,3.104,6.686,6.606,6.686c2.507,0,4.02-0.437,5.333-0.994l0.597,2.507
		c-1.234,0.557-3.343,1.194-6.408,1.194c-5.93,0-9.471-3.901-9.471-9.711c0-5.81,3.423-10.387,9.034-10.387
		c6.288,0,7.959,5.532,7.959,9.074c0,0.716-0.079,1.273-0.119,1.632H28.928z M39.196,809.947c0.04-2.229-0.915-5.691-4.856-5.691
		c-3.542,0-5.094,3.263-5.373,5.691H39.196z"/>
	<path d="M50.734,796.655v5.532h5.015v2.666h-5.015v10.387c0,2.388,0.677,3.741,2.627,3.741c0.915,0,1.592-0.119,2.03-0.238
		l0.159,2.627c-0.677,0.278-1.751,0.478-3.104,0.478c-1.632,0-2.945-0.518-3.781-1.473c-0.995-1.034-1.353-2.746-1.353-5.015
		v-10.506h-2.985v-2.666h2.985v-4.617L50.734,796.655z"/>
	<path d="M77.992,821.449l-0.279-2.428h-0.12c-1.074,1.513-3.144,2.866-5.89,2.866c-3.9,0-5.89-2.747-5.89-5.532
		c0-4.656,4.139-7.203,11.581-7.163v-0.398c0-1.591-0.438-4.457-4.378-4.457c-1.791,0-3.662,0.557-5.015,1.432l-0.796-2.308
		c1.592-1.035,3.9-1.712,6.328-1.712c5.89,0,7.323,4.019,7.323,7.88v7.204c0,1.671,0.079,3.303,0.318,4.616H77.992z M77.474,811.619
		c-3.821-0.08-8.159,0.597-8.159,4.337c0,2.269,1.512,3.344,3.303,3.344c2.507,0,4.099-1.592,4.656-3.224
		c0.12-0.359,0.199-0.757,0.199-1.115V811.619z"/>
	<path d="M94.145,808.475c0-2.468-0.079-4.457-0.159-6.288h3.144l0.159,3.303h0.079c1.433-2.348,3.701-3.741,6.845-3.741
		c4.656,0,8.158,3.94,8.158,9.79c0,6.925-4.218,10.348-8.755,10.348c-2.547,0-4.776-1.115-5.93-3.025h-0.079v10.466h-3.462V808.475z
		 M97.607,813.609c0,0.517,0.079,0.994,0.159,1.432c0.637,2.428,2.746,4.099,5.253,4.099c3.701,0,5.85-3.024,5.85-7.442
		c0-3.86-2.03-7.164-5.731-7.164c-2.388,0-4.616,1.712-5.293,4.338c-0.12,0.438-0.239,0.956-0.239,1.432V813.609z"/>
	<path d="M116.387,808.196c0-2.268-0.04-4.218-0.159-6.009h3.064l0.12,3.781h0.159c0.876-2.587,2.985-4.219,5.333-4.219
		c0.398,0,0.676,0.04,0.995,0.119v3.303c-0.358-0.079-0.716-0.119-1.194-0.119c-2.468,0-4.218,1.871-4.696,4.497
		c-0.08,0.478-0.159,1.035-0.159,1.632v10.268h-3.462V808.196z"/>
	<path d="M133.06,796.774c0.04,1.194-0.835,2.15-2.229,2.15c-1.234,0-2.109-0.956-2.109-2.15c0-1.234,0.915-2.188,2.189-2.188
		C132.225,794.586,133.06,795.54,133.06,796.774z M129.16,821.449v-19.262h3.502v19.262H129.16z"/>
	<path d="M151.803,820.732c-0.915,0.478-2.945,1.115-5.532,1.115c-5.81,0-9.591-3.941-9.591-9.83c0-5.93,4.059-10.228,10.347-10.228
		c2.07,0,3.9,0.518,4.856,0.995l-0.796,2.706c-0.836-0.478-2.149-0.915-4.059-0.915c-4.418,0-6.805,3.263-6.805,7.283
		c0,4.457,2.865,7.203,6.686,7.203c1.99,0,3.303-0.518,4.298-0.955L151.803,820.732z"/>
	<path d="M157.213,812.455c0.079,4.736,3.104,6.686,6.606,6.686c2.507,0,4.02-0.437,5.333-0.994l0.597,2.507
		c-1.234,0.557-3.343,1.194-6.407,1.194c-5.93,0-9.472-3.901-9.472-9.711c0-5.81,3.422-10.387,9.034-10.387
		c6.288,0,7.959,5.532,7.959,9.074c0,0.716-0.079,1.273-0.119,1.632H157.213z M167.481,809.947c0.04-2.229-0.915-5.691-4.855-5.691
		c-3.542,0-5.094,3.263-5.373,5.691H167.481z"/>
</g>
<g>
	<path d="M120.414,768.525c-2.772,0-5.509-0.718-7.984-2.126L20.105,713.87c-3.761-2.139-6.462-5.615-7.609-9.787
		c-1.146-4.172-0.599-8.54,1.54-12.3l14.449-25.395c4.416-7.762,14.324-10.484,22.087-6.068l92.325,52.529
		c7.762,4.417,10.484,14.325,6.068,22.087l-14.449,25.395c-2.139,3.761-5.615,6.462-9.787,7.609
		C123.304,768.331,121.854,768.525,120.414,768.525z M113.812,763.969c6.424,3.654,14.621,1.401,18.275-5.021l14.449-25.395
		c3.654-6.423,1.402-14.621-5.02-18.275L49.19,662.749c-6.423-3.654-14.621-1.402-18.275,5.02l-14.449,25.395
		c-1.77,3.111-2.223,6.725-1.275,10.177c0.948,3.452,3.184,6.328,6.295,8.098L113.812,763.969z"/>
	<g>
		<path d="M28.585,64.335c-2.737,0-5.318-1.074-7.269-3.025c-1.951-1.951-3.025-4.532-3.025-7.269V15.389
			c0-2.737,1.074-5.318,3.025-7.269c1.951-1.951,4.532-3.025,7.269-3.025h47.78c2.737,0,5.318,1.074,7.269,3.025
			s3.025,4.532,3.025,7.269V43.29c-3.518-3.297-8.099-5.11-12.974-5.11c-5.085,0-9.853,1.967-13.426,5.54
			c-3.572,3.572-5.54,8.34-5.54,13.425c0,2.509,0.481,4.94,1.395,7.189H28.585z M156.854,113.463L89.297,45.906V15.389
			c0-3.441-1.349-6.685-3.797-9.134s-5.693-3.797-9.134-3.797h-47.78c-3.441,0-6.685,1.349-9.134,3.797s-3.797,5.693-3.797,9.134
			V54.04c0,3.441,1.349,6.685,3.797,9.134c2.449,2.449,5.693,3.797,9.134,3.797h28.854c0.783,1.295,1.726,2.504,2.821,3.599
			l42.917,42.917l3.743,0.013L62.125,68.706c-3.074-3.074-4.767-7.18-4.767-11.561s1.693-8.487,4.767-11.561
			c3.074-3.074,7.18-4.767,11.561-4.767c4.381,0,8.486,1.693,11.561,4.767l67.841,67.841L156.854,113.463z"/>
	</g>
	<g>
		<path d="M47.073,685.455c-1.138,1.415-3.129,2.094-5.198,1.773c-0.41-0.064-0.814-0.169-1.208-0.306l-1.133,1.992
			c-0.343,0.603-1.109,0.813-1.712,0.47c-0.602-0.343-0.813-1.109-0.47-1.712l1.111-1.953c-1.495-1.149-2.582-2.791-2.795-4.486
			c-0.086-0.688,0.402-1.316,1.09-1.402c0.688-0.087,1.315,0.401,1.402,1.089c0.218,1.732,2.136,3.52,4.102,3.826
			c1.166,0.182,2.286-0.158,2.855-0.865c0.578-0.72,0.416-1.603,0.178-2.216c-0.297-0.763-1.126-1.74-1.928-2.685
			c-1.056-1.243-2.147-2.528-2.54-3.866c-0.366-1.24-0.101-2.561,0.727-3.623c0.933-1.196,2.455-1.87,4.07-1.805
			c0.615,0.026,1.21,0.143,1.772,0.334l0.871-1.531c0.343-0.603,1.109-0.813,1.712-0.47c0.603,0.343,0.814,1.11,0.471,1.712
			l-0.88,1.547c1.117,0.984,1.869,2.339,1.992,3.837c0.056,0.691-0.457,1.298-1.148,1.355c-0.692,0.057-1.298-0.457-1.355-1.148
			c-0.134-1.622-1.754-3.054-3.536-3.126c-0.808-0.033-1.55,0.281-1.987,0.84c-0.19,0.244-0.482,0.747-0.298,1.369
			c0.243,0.828,1.159,1.906,2.045,2.949c0.935,1.103,1.904,2.243,2.355,3.4C48.301,682.471,48.096,684.183,47.073,685.455z"/>
	</g>
	<g>
		<g>
			<path d="M73.169,78.191l-9.861-9.861c-2.869-2.869-4.449-6.698-4.449-10.781s1.58-7.913,4.449-10.781
				c2.869-2.869,6.698-4.449,10.781-4.449s7.913,1.58,10.781,4.449l9.861,9.861L73.169,78.191z M74.089,44.955
				c-3.379,0-6.546,1.306-8.917,3.677c-2.371,2.371-3.677,5.538-3.677,8.917s1.306,6.546,3.677,8.917l7.996,7.996l17.833-17.833
				l-7.996-7.996C80.635,46.261,77.468,44.955,74.089,44.955z"/>
		</g>
	</g>
	<g>
		<g>
			<path d="M73.169,78.191l-1.508-1.508l0.247-0.767c1.558-4.84,4.183-9.128,7.802-12.747c3.619-3.619,7.908-6.244,12.747-7.802
				l0.767-0.247l1.508,1.508L73.169,78.191z M86.691,60.94c-1.835,1.156-3.544,2.523-5.116,4.095
				c-1.572,1.572-2.939,3.281-4.095,5.116L86.691,60.94z"/>
		</g>
	</g>
	<g>
		<g>
			<g>
				<path d="M106.822,71.162c-0.315,0-0.619,0.113-0.849,0.343L88.045,89.432c-0.489,0.489-0.45,1.321,0.087,1.858
					c0.285,0.285,0.653,0.43,1.009,0.43c0.315,0,0.619-0.113,0.849-0.343l17.928-17.928c0.489-0.489,0.45-1.321-0.087-1.858
					C107.546,71.307,107.178,71.162,106.822,71.162L106.822,71.162z"/>
			</g>
		</g>
	</g>
	<g>
		<g>
			<g>
				<path d="M110.591,74.932c-0.315,0-0.619,0.113-0.849,0.343L91.815,93.202c-0.489,0.489-0.45,1.321,0.087,1.858
					c0.285,0.285,0.653,0.43,1.009,0.43c0.315,0,0.619-0.113,0.849-0.343l17.928-17.928c0.489-0.489,0.45-1.321-0.087-1.858
					C111.315,75.077,110.947,74.932,110.591,74.932L110.591,74.932z"/>
			</g>
		</g>
	</g>
	<g>
		<g>
			<g>
				<path d="M114.361,78.701c-0.315,0-0.619,0.113-0.849,0.343L95.584,96.971c-0.489,0.489-0.45,1.321,0.087,1.858
					c0.285,0.285,0.653,0.43,1.009,0.43c0.315,0,0.619-0.113,0.849-0.343l17.928-17.928c0.489-0.489,0.45-1.321-0.087-1.858
					C115.085,78.846,114.716,78.701,114.361,78.701L114.361,78.701z"/>
			</g>
		</g>
	</g>
	<g>
		<g>
			<path d="M41.795,51.912c-0.892,0-1.783-0.235-2.596-0.704c-1.625-0.938-2.596-2.619-2.596-4.496V22.716
				c0-1.877,0.97-3.557,2.596-4.496c1.625-0.938,3.566-0.938,5.191,0l20.782,11.998c1.625,0.938,2.596,2.619,2.596,4.496
				c0,1.877-0.97,3.557-2.596,4.496L44.39,51.209C43.578,51.678,42.686,51.912,41.795,51.912z M41.795,20.158
				c-0.439,0-0.877,0.115-1.277,0.346c-0.8,0.462-1.277,1.289-1.277,2.212v23.997c0,0.923,0.477,1.75,1.277,2.212
				c0.8,0.462,1.754,0.462,2.554,0l20.782-11.998c0.8-0.462,1.277-1.289,1.277-2.212c0-0.923-0.477-1.75-1.277-2.212L43.072,20.505
				C42.672,20.274,42.233,20.158,41.795,20.158z"/>
		</g>
	</g>
	<g>
		<rect x="32.118" y="362.978" class="st186" width="2.796" height="26.895"/>
	</g>
	<g>
		<path class="st186" d="M43.717,391.271H23.316c-0.772,0-1.398-0.626-1.398-1.398s0.626-1.398,1.398-1.398h20.402
			c0.772,0,1.398,0.626,1.398,1.398S44.49,391.271,43.717,391.271z"/>
	</g>
	<g>
		<path class="st186" d="M19.418,436.574h-7.3v-35.725h7.3V436.574z M14.914,433.778h1.708v-30.133h-1.708V433.778z"/>
	</g>
	<g>
		<path class="st186" d="M31.194,436.917l-9.037-34.563l7.063-1.847l9.037,34.563L31.194,436.917z M25.569,404.351l7.623,29.154
			l1.653-0.432l-7.623-29.154L25.569,404.351z"/>
	</g>
	<g>
		<g>
			<path class="st186" d="M73.668,438.475c-0.048,0-0.097-0.002-0.146-0.007c-0.768-0.08-1.326-0.767-1.246-1.535l5.538-53.394
				c0.08-0.768,0.766-1.325,1.535-1.246c0.768,0.08,1.326,0.767,1.246,1.535l-5.538,53.394
				C74.982,437.941,74.375,438.475,73.668,438.475z"/>
		</g>
		<g>
			<path class="st186" d="M121.114,438.475c-0.713,0-1.322-0.543-1.39-1.268l-4.983-53.394c-0.071-0.769,0.493-1.45,1.262-1.522
				c0.762-0.074,1.45,0.493,1.522,1.262l4.983,53.394c0.071,0.769-0.493,1.45-1.262,1.522
				C121.202,438.473,121.158,438.475,121.114,438.475z"/>
		</g>
	</g>
	<g>
		<path d="M138.545,722.5c-0.234,0-0.472-0.059-0.69-0.183l-29.377-16.714c-0.671-0.382-0.906-1.235-0.524-1.906
			c0.382-0.671,1.236-0.906,1.906-0.524l29.377,16.714c0.671,0.382,0.906,1.235,0.524,1.906
			C139.503,722.245,139.031,722.5,138.545,722.5z"/>
	</g>
	<g>
		<path d="M116.978,760.405c-0.234,0-0.472-0.059-0.69-0.183l-16.32-9.286c-0.671-0.382-0.906-1.236-0.524-1.906
			c0.382-0.671,1.236-0.906,1.906-0.524l16.32,9.286c0.671,0.382,0.906,1.236,0.524,1.906
			C117.937,760.15,117.464,760.405,116.978,760.405z"/>
	</g>
	<g>
		<path d="M39.068,716.077c-0.234,0-0.472-0.059-0.69-0.183l-16.32-9.286c-0.671-0.382-0.906-1.235-0.524-1.906
			c0.382-0.671,1.236-0.905,1.906-0.524l16.32,9.286c0.671,0.382,0.906,1.235,0.524,1.906
			C40.027,715.823,39.555,716.077,39.068,716.077z"/>
	</g>
	<g>
		<path d="M135.305,728.193c-0.234,0-0.472-0.059-0.69-0.183l-29.377-16.714c-0.671-0.382-0.906-1.235-0.524-1.906
			s1.236-0.905,1.906-0.524l29.377,16.714c0.671,0.382,0.906,1.235,0.524,1.906C136.264,727.938,135.792,728.193,135.305,728.193z"
			/>
	</g>
	<g>
		<path d="M126.158,749.965c-0.234,0-0.472-0.059-0.69-0.183l-97.741-55.61c-0.671-0.382-0.906-1.236-0.524-1.906
			c0.382-0.671,1.236-0.905,1.906-0.524l97.741,55.61c0.671,0.382,0.906,1.236,0.524,1.906
			C127.117,749.711,126.645,749.965,126.158,749.965z"/>
	</g>
	<g>
		<path d="M89.177,735.364l0.416-0.731c0.06-0.105,0.15-0.154,0.284-0.078c0.134,0.076,0.138,0.179,0.078,0.284l-0.519,0.912
			c-0.074,0.131-0.19,0.132-0.284,0.078l-1.427-0.812c-0.094-0.053-0.152-0.153-0.077-0.284c0.074-0.13,0.189-0.132,0.284-0.078
			l0.532,0.303l1.191-2.093l-0.532-0.303c-0.094-0.053-0.152-0.153-0.077-0.284c0.074-0.13,0.189-0.132,0.284-0.078l0.895,0.509
			l-1.397,2.455L89.177,735.364z"/>
		<path d="M90.719,736.242l1.246,0.709c0.094,0.053,0.152,0.154,0.078,0.284c-0.074,0.131-0.19,0.132-0.284,0.078l-1.608-0.915
			l0.672-1.18c0.155-0.272,0.371-0.331,0.642-0.177l1.018,0.579l0.492-0.866l-1.246-0.709c-0.094-0.053-0.152-0.153-0.077-0.284
			c0.074-0.13,0.19-0.131,0.284-0.078l1.203,0.684c0.119,0.068,0.192,0.133,0.236,0.268c0.048,0.152,0.003,0.256-0.071,0.386
			l-0.422,0.742c-0.074,0.131-0.141,0.222-0.295,0.258c-0.138,0.031-0.232,0.002-0.351-0.065l-1.022-0.581L90.719,736.242z"/>
		<path d="M94.337,735.529c-0.094-0.053-0.152-0.153-0.077-0.284c0.074-0.13,0.189-0.132,0.284-0.078l1.246,0.709
			c0.207,0.118,0.273,0.362,0.156,0.568l-0.395,0.695c-0.082,0.145-0.171,0.233-0.341,0.271c0.055,0.166,0.024,0.287-0.059,0.432
			l-0.395,0.695c-0.117,0.206-0.362,0.273-0.568,0.156l-1.246-0.709c-0.094-0.053-0.152-0.153-0.077-0.284
			c0.074-0.13,0.189-0.131,0.284-0.078l1.246,0.709l0.342-0.601c0.115-0.203,0.071-0.309-0.031-0.368l-0.71-0.404
			c-0.094-0.053-0.152-0.154-0.078-0.284c0.074-0.131,0.19-0.132,0.284-0.078l0.71,0.404c0.101,0.058,0.216,0.042,0.332-0.161
			l0.342-0.601L94.337,735.529z"/>
		<path d="M97.609,738.489c0.148,0.084,0.184,0.182,0.091,0.344s-0.194,0.182-0.343,0.097l-0.847-0.482
			c-0.148-0.084-0.185-0.182-0.092-0.344c0.093-0.163,0.195-0.182,0.343-0.097L97.609,738.489z"/>
		<path d="M99.606,741.298l0.416-0.732c0.06-0.105,0.15-0.154,0.284-0.078c0.134,0.076,0.138,0.179,0.078,0.284l-0.519,0.913
			c-0.074,0.13-0.19,0.132-0.284,0.078l-1.427-0.812c-0.094-0.054-0.152-0.154-0.077-0.284c0.074-0.131,0.189-0.132,0.284-0.078
			l0.532,0.303l1.191-2.093l-0.532-0.303c-0.094-0.054-0.152-0.154-0.077-0.284c0.074-0.13,0.189-0.131,0.284-0.078l0.895,0.509
			l-1.397,2.456L99.606,741.298z"/>
		<path d="M101.148,742.176l1.246,0.709c0.094,0.053,0.152,0.154,0.078,0.284c-0.074,0.131-0.19,0.132-0.284,0.078l-1.608-0.915
			l0.672-1.18c0.155-0.272,0.37-0.331,0.642-0.177l1.018,0.579l0.492-0.866l-1.246-0.709c-0.094-0.053-0.152-0.153-0.077-0.284
			c0.074-0.131,0.189-0.132,0.284-0.078l1.202,0.684c0.12,0.068,0.192,0.133,0.236,0.268c0.048,0.151,0.003,0.256-0.071,0.386
			l-0.422,0.742c-0.074,0.131-0.141,0.222-0.296,0.258c-0.138,0.031-0.232,0.003-0.351-0.066l-1.021-0.581L101.148,742.176z"/>
		<path d="M104.765,741.463c-0.094-0.053-0.152-0.153-0.077-0.284c0.074-0.131,0.189-0.132,0.284-0.078l1.246,0.709
			c0.207,0.118,0.273,0.362,0.156,0.568l-0.395,0.695c-0.082,0.145-0.171,0.233-0.341,0.271c0.055,0.166,0.024,0.287-0.059,0.432
			l-0.396,0.695c-0.117,0.206-0.362,0.273-0.568,0.156l-1.246-0.709c-0.094-0.053-0.152-0.153-0.077-0.284
			c0.074-0.13,0.189-0.132,0.284-0.078l1.246,0.709l0.342-0.601c0.115-0.203,0.071-0.309-0.031-0.368l-0.709-0.404
			c-0.094-0.053-0.152-0.154-0.078-0.284c0.074-0.131,0.19-0.131,0.284-0.078l0.709,0.404c0.101,0.058,0.216,0.042,0.332-0.161
			l0.342-0.601L104.765,741.463z"/>
		<path d="M107.77,744.725l0.596-1.047c0.051-0.091,0.146-0.156,0.284-0.078c0.137,0.078,0.13,0.193,0.078,0.284l-0.596,1.047
			c0.094,0.054,0.152,0.154,0.078,0.284c-0.074,0.131-0.19,0.132-0.284,0.078l-0.42,0.739c-0.066,0.116-0.154,0.152-0.284,0.078
			c-0.13-0.074-0.144-0.168-0.078-0.284l0.42-0.739l-1.065-0.606l0.977-1.716c0.051-0.091,0.146-0.157,0.284-0.078
			c0.137,0.078,0.13,0.194,0.078,0.284l-0.771,1.355L107.77,744.725z"/>
		<path d="M110.028,745.602l0.666,0.379c0.116,0.066,0.192,0.133,0.233,0.266c0.048,0.152,0.009,0.245-0.063,0.372l-0.441,0.775
			c-0.064,0.112-0.12,0.186-0.248,0.233c-0.152,0.057-0.255,0.018-0.385-0.056l-0.804-0.457c-0.094-0.054-0.134-0.11-0.202-0.201
			l-0.102-0.14c-0.074-0.1-0.163-0.194-0.091-0.321c0.054-0.094,0.183-0.136,0.277-0.082c0.043,0.025,0.07,0.054,0.099,0.095
			l0.082,0.109c0.039,0.051,0.093,0.149,0.151,0.182l0.836,0.476l0.492-0.866l-1.068-0.608l0.905-1.59l1.249,0.711
			c0.094,0.053,0.152,0.154,0.078,0.284c-0.074,0.13-0.19,0.132-0.284,0.078l-0.887-0.505L110.028,745.602z"/>
		<path d="M112.101,747.19l1.21,0.688c0.181,0.103,0.174,0.2,0.08,0.367l-0.461,0.811c-0.097,0.17-0.202,0.187-0.365,0.094
			l-1.318-0.75c-0.171-0.097-0.2-0.196-0.105-0.362l1.37-2.408c0.047-0.083,0.132-0.165,0.258-0.092l0.218,0.124
			c0.094,0.053,0.121,0.183,0.067,0.278c-0.062,0.109-0.179,0.138-0.284,0.078L112.101,747.19z M111.895,747.552l-0.317,0.557
			l1.065,0.606l0.317-0.558L111.895,747.552z"/>
		<path d="M115.376,747.5c-0.045,0.08-0.168,0.144-0.284,0.078c-0.116-0.066-0.123-0.204-0.078-0.284l0.103-0.181
			c0.045-0.08,0.168-0.144,0.284-0.078l1.608,0.915l-0.597,1.05c-0.072,0.127-0.077,0.143-0.227,0.172l-0.756,0.15
			c-0.142,0.03-0.153,0.033-0.226,0.159l-0.4,0.703c-0.066,0.116-0.154,0.152-0.284,0.078c-0.131-0.074-0.144-0.168-0.078-0.284
			l0.496-0.873c0.068-0.12,0.078-0.128,0.214-0.157l0.744-0.147c0.18-0.037,0.17-0.038,0.261-0.197l0.284-0.5L115.376,747.5z"/>
		<path d="M118.468,750.356c0.148,0.085,0.184,0.182,0.091,0.344c-0.093,0.163-0.194,0.182-0.343,0.097l-0.848-0.482
			c-0.148-0.085-0.184-0.182-0.091-0.344c0.093-0.163,0.194-0.182,0.343-0.097L118.468,750.356z"/>
		<path d="M120.464,753.165l0.416-0.731c0.06-0.105,0.15-0.154,0.284-0.078c0.134,0.076,0.138,0.179,0.079,0.284l-0.519,0.912
			c-0.074,0.131-0.191,0.131-0.285,0.078l-1.427-0.812c-0.094-0.053-0.152-0.153-0.078-0.284c0.074-0.13,0.19-0.131,0.284-0.078
			l0.532,0.303l1.191-2.093l-0.532-0.303c-0.094-0.053-0.152-0.153-0.078-0.284c0.074-0.13,0.19-0.132,0.284-0.078l0.895,0.509
			l-1.397,2.455L120.464,753.165z"/>
		<path d="M122.007,754.043l1.246,0.709c0.094,0.053,0.152,0.154,0.078,0.284c-0.074,0.131-0.19,0.132-0.284,0.078l-1.608-0.915
			l0.672-1.18c0.155-0.272,0.37-0.331,0.642-0.177l1.018,0.579l0.492-0.866l-1.246-0.709c-0.094-0.053-0.152-0.153-0.077-0.284
			c0.074-0.13,0.189-0.132,0.284-0.078l1.202,0.684c0.12,0.068,0.192,0.133,0.236,0.268c0.048,0.151,0.003,0.256-0.071,0.386
			l-0.422,0.742c-0.074,0.131-0.141,0.222-0.296,0.258c-0.138,0.031-0.231,0.003-0.351-0.066l-1.021-0.581L122.007,754.043z"/>
	</g>
	<path class="st186" d="M107.485,375.696H87.298c-3.337,0-6.212-2.562-7.154-6.376l-9.151-37.046
		c-0.759-3.073-0.12-6.302,1.709-8.638c1.418-1.811,3.352-2.808,5.445-2.808h38.49c2.094,0,4.028,0.997,5.446,2.808
		c1.829,2.336,2.468,5.565,1.709,8.638l-9.151,37.046C113.697,373.133,110.822,375.696,107.485,375.696z M78.147,323.624
		c-1.215,0-2.367,0.617-3.244,1.736c-1.284,1.64-1.742,4.032-1.196,6.243l9.151,37.046c0.618,2.503,2.444,4.251,4.44,4.251h20.187
		c1.996,0,3.822-1.748,4.44-4.251l9.151-37.046c0.546-2.211,0.088-4.603-1.196-6.243c-0.876-1.119-2.029-1.736-3.244-1.736H78.147z"
		/>
	<path class="st186" d="M121.868,385.081H72.916c-2.948,0-5.347-2.399-5.347-5.347v-1.488c0-2.948,2.399-5.347,5.347-5.347h48.952
		c2.948,0,5.347,2.399,5.347,5.347v1.488C127.215,382.683,124.816,385.081,121.868,385.081z M72.916,375.696
		c-1.407,0-2.551,1.144-2.551,2.551v1.488c0,1.407,1.144,2.551,2.551,2.551h48.952c1.407,0,2.551-1.144,2.551-2.551v-1.488
		c0-1.407-1.144-2.551-2.551-2.551H72.916z"/>
	<g>
		<path class="st186" d="M112.215,330.408H82.159c-0.772,0-1.398-0.626-1.398-1.398s0.626-1.398,1.398-1.398h30.056
			c0.772,0,1.398,0.626,1.398,1.398S112.987,330.408,112.215,330.408z"/>
	</g>
	<g>
		<path class="st186" d="M112.215,336.232H82.159c-0.772,0-1.398-0.626-1.398-1.398s0.626-1.398,1.398-1.398h30.056
			c0.772,0,1.398,0.626,1.398,1.398S112.987,336.232,112.215,336.232z"/>
	</g>
	<g>
		<path class="st186" d="M45.726,364.376H21.307c-1.68,0-3.217-0.775-4.216-2.126c-0.999-1.351-1.29-3.047-0.798-4.654l5.806-18.965
			c0.679-2.219,2.694-3.71,5.015-3.71H39.92c2.32,0,4.335,1.491,5.015,3.71l5.806,18.965c0.492,1.607,0.201,3.303-0.798,4.654
			C48.943,363.601,47.406,364.376,45.726,364.376z M27.113,337.718c-1.084,0-2.024,0.696-2.342,1.732l-5.806,18.965
			c-0.229,0.75-0.093,1.542,0.373,2.173c0.466,0.631,1.184,0.992,1.968,0.992h24.419c0.785,0,1.502-0.362,1.969-0.992
			c0.466-0.631,0.603-1.423,0.373-2.173l-5.806-18.965c-0.318-1.036-1.258-1.732-2.342-1.732H27.113z"/>
	</g>
	<path class="st186" d="M54.088,438.475H12.945c-6.984,0-12.667-5.682-12.667-12.667v-23.412c0-6.984,5.682-12.666,12.667-12.666
		h41.144c6.984,0,12.667,5.682,12.667,12.666v23.412C66.755,432.793,61.073,438.475,54.088,438.475z M12.945,392.526
		c-5.443,0-9.871,4.428-9.871,9.87v23.412c0,5.443,4.428,9.871,9.871,9.871h41.144c5.443,0,9.871-4.428,9.871-9.871v-23.412
		c0-5.443-4.428-9.87-9.871-9.87H12.945z"/>
	<linearGradient id="SVGID_2_" gradientUnits="userSpaceOnUse" x1="63.9402" y1="684.22" x2="133.2954" y2="804.3466">
		<stop  offset="0" style="stop-color:#000000"/>
		<stop  offset="1" style="stop-color:#000000;stop-opacity:0"/>
	</linearGradient>
	<path style="opacity:0.37;fill:url(#SVGID_2_);" d="M149.626,721.254l-1.904-0.143c1.945,4.582,1.823,9.979-0.828,14.639
		l-12.736,22.384c-4.515,7.935-14.608,10.708-22.543,6.193l-89.314-50.816c-1.018-0.579-1.947-1.252-2.791-1.999l-2.515-0.189
		l36.718,66.562h125.415L149.626,721.254z"/>
	<linearGradient id="SVGID_4_" gradientUnits="userSpaceOnUse" x1="30.33" y1="409.5158" x2="62.2427" y2="464.7902">
		<stop  offset="0" style="stop-color:#000000"/>
		<stop  offset="1" style="stop-color:#000000;stop-opacity:0"/>
	</linearGradient>
	<path style="opacity:0.37;fill:url(#SVGID_4_);" d="M61.207,391.689l-1.862,1.357c3.604,2.241,6.012,6.225,6.012,10.781v20.55
		c0,7.014-5.686,12.7-12.7,12.7H14.376c-3.797,0-7.195-1.675-9.522-4.316l-1.02,0.743l7.935,15.17h78.388L61.207,391.689z"/>
	<linearGradient id="SVGID_5_" gradientUnits="userSpaceOnUse" x1="88.8624" y1="345.234" x2="158.3591" y2="465.6057">
		<stop  offset="0" style="stop-color:#000000"/>
		<stop  offset="1" style="stop-color:#000000;stop-opacity:0"/>
	</linearGradient>
	<path class="st187" d="M123.075,325.481l-0.899,1.206c0.57,1.579,0.711,3.418,0.258,5.251l-9.151,37.046
		c-0.78,3.158-3.132,5.314-5.797,5.314H87.298c-0.199,0-0.392-0.035-0.587-0.059l-0.044,0.059h34.457
		c2.581,0,4.693,2.112,4.693,4.693v0c0,2.581-2.112,4.692-4.693,4.692H73.659c-1.535,0-2.892-0.757-3.749-1.905l-0.948,0.334
		l34.005,66.562h84.719L123.075,325.481z"/>
	<linearGradient id="SVGID_6_" gradientUnits="userSpaceOnUse" x1="25.2225" y1="346.2562" x2="88.2491" y2="455.4215">
		<stop  offset="0" style="stop-color:#000000"/>
		<stop  offset="1" style="stop-color:#000000;stop-opacity:0"/>
	</linearGradient>
	<path class="st188" d="M42.584,336.233l-1.038,2.108c0.326,0.291,0.581,0.666,0.716,1.109l5.806,18.965
		c0.229,0.75,0.093,1.542-0.373,2.173c-0.466,0.631-1.184,0.993-1.969,0.993H21.307c-0.784,0-1.502-0.362-1.968-0.993
		c-0.222-0.3-0.364-0.639-0.432-0.99l-2.458,0.821l15.587,30.709h20.622c7.014,0,12.7,5.686,12.7,12.699v20.55
		c0,6.134-4.349,11.251-10.131,12.439l6.309,12.43h37.409L42.584,336.233z"/>
	<g>
		<linearGradient id="SVGID_7_" gradientUnits="userSpaceOnUse" x1="82.6033" y1="10.8765" x2="145.5771" y2="119.9502">
			<stop  offset="0" style="stop-color:#000000"/>
			<stop  offset="1" style="stop-color:#000000;stop-opacity:0"/>
		</linearGradient>
		<polygon class="st189" points="87.638,45.474 88.881,47.648 154.933,113.444 153.889,113.44 153.889,113.475 156.792,113.475 
			87.525,8.035 85.757,9.374 87.979,14.33 		"/>
		<linearGradient id="SVGID_8_" gradientUnits="userSpaceOnUse" x1="38.8595" y1="48.4514" x2="83.2689" y2="125.3707">
			<stop  offset="0" style="stop-color:#000000"/>
			<stop  offset="1" style="stop-color:#000000;stop-opacity:0"/>
		</linearGradient>
		<polygon class="st190" points="103.872,112.743 104.387,112.743 83.014,89.595 72.882,80.888 64.572,72.346 58.859,66.656 
			56.883,64.812 52.475,65.545 34.749,65.545 25.429,65.268 19.451,60.94 19.044,59.892 17.661,60.94 53.918,113.475 
			103.872,113.475 		"/>
	</g>
</g>
</svg>
