<?xml version="1.0" encoding="utf-8"?>
<!-- Generator: Adobe Illustrator 20.0.0, SVG Export Plug-In . SVG Version: 6.00 Build 0)  -->
<svg version="1.1" id="Layer_4" xmlns="http://www.w3.org/2000/svg" xmlns:xlink="http://www.w3.org/1999/xlink" x="0px" y="0px"
	 width="400px" height="600px" viewBox="0 0 400 600" style="enable-background:new 0 0 400 600;" xml:space="preserve">
<style type="text/css">

</style>
<g id="g1">
	<g>
		<path class="st0" d="M62.42,77.188c-1.284,0-2.019,0.104-2.401,0.174v6.454h2.089c2.634,0,4.199-1.319,4.199-3.365
			C66.307,78.299,64.846,77.224,62.42,77.188z"/>
		<path class="st0" d="M82.529,2.445c-35.4,0-64.099,28.699-64.099,64.101s28.699,64.101,64.099,64.101
			c35.406,0,64.099-28.699,64.099-64.101S117.935,2.445,82.529,2.445z M67.033,96.833c-0.385-0.658-0.937-2.568-1.631-5.449
			c-0.625-2.915-1.631-3.714-3.78-3.749h-1.602v9.197h-5.237V73.75c1.697-0.276,4.233-0.485,7.041-0.485
			c3.473,0,5.902,0.52,7.571,1.84c1.385,1.11,2.151,2.742,2.151,4.894c0,2.984-2.12,5.033-4.13,5.761v0.104
			c1.631,0.659,2.533,2.22,3.123,4.374c0.729,2.638,1.461,5.693,1.909,6.594h-5.416V96.833z M90.293,96.833H75.368V73.438h14.439
			v4.341h-9.13v4.86h8.61v4.304h-8.61v5.551h9.615V96.833z M82.869,57.516c-7.323,0-13.253-5.933-13.253-13.255
			c0-7.318,5.931-13.253,13.253-13.253c7.319,0,13.253,5.935,13.253,13.253C96.123,51.582,90.189,57.516,82.869,57.516z
			 M105.884,92.807c1.594,0,3.363-0.347,4.404-0.764l0.799,4.132c-0.969,0.485-3.158,1.006-6.004,1.006
			c-8.086,0-12.253-5.034-12.253-11.695c0-7.985,5.691-12.427,12.771-12.427c2.744,0,4.827,0.554,5.764,1.04l-1.076,4.199
			c-1.076-0.451-2.568-0.867-4.442-0.867c-4.202,0-7.464,2.533-7.464,7.739C98.382,89.856,101.161,92.807,105.884,92.807z"/>
	</g>
	<path class="st0" d="M84.862,462.906c-35.403,0-64.099,28.699-64.099,64.101s28.696,64.101,64.099,64.101
		c35.406,0,64.102-28.699,64.102-64.101C148.964,491.605,120.269,462.906,84.862,462.906z M105.411,542.05
		c-0.975,6.04-5.674,11.347-12.271,13.853c-1.304,0.495-2.663,0.862-4.046,1.117v7.721c0,2.336-1.894,4.229-4.232,4.229
		c-2.334,0-4.229-1.893-4.229-4.229v-7.57c-6.294-0.873-12.213-3.872-15.659-8.479c-1.401-1.87-1.017-4.522,0.854-5.922
		c1.869-1.4,4.52-1.017,5.922,0.853c3.523,4.71,12.123,6.749,18.388,4.369c3.718-1.411,6.432-4.272,6.92-7.289
		c0.493-3.074-1.453-5.387-3.171-6.786c-2.144-1.741-6.197-3.22-10.121-4.649c-5.164-1.88-10.5-3.825-13.88-7.09
		c-3.139-3.023-4.565-7.333-3.909-11.821c0.739-5.058,4.073-9.569,8.909-12.068c1.846-0.951,3.784-1.597,5.747-1.975v-5.936
		c0-2.336,1.894-4.229,4.229-4.229c2.337,0,4.232,1.893,4.232,4.229v5.996c4.91,1.02,9.37,3.736,12.228,7.918
		c1.315,1.93,0.823,4.563-1.104,5.882c-1.932,1.32-4.562,0.824-5.882-1.103c-3.096-4.528-10.226-6.021-15.566-3.263
		c-2.423,1.25-4.071,3.407-4.42,5.772c-0.147,1.032-0.165,2.99,1.407,4.507c2.092,2.02,6.573,3.651,10.906,5.229
		c4.576,1.671,9.315,3.395,12.563,6.035C104.034,531.263,106.287,536.62,105.411,542.05z"/>
	<g>
		<path class="st0" d="M84.659,235.595c-35.403,0-64.099,28.699-64.099,64.101s28.696,64.101,64.099,64.101
			c35.406,0,64.099-28.699,64.099-64.101S120.065,235.595,84.659,235.595z M84.148,261.724c13.585,0,25.213,7.356,29.86,17.702
			c-1.294,0.46-2.492,1.181-3.527,2.139c-7.326,6.781-16.336,16.419-18.702,20.844H76.515c-2.366-4.425-11.373-14.062-18.705-20.844
			c-1.032-0.958-2.234-1.679-3.521-2.14C58.935,269.078,70.567,261.724,84.148,261.724z M62.039,335.819h-4.152l-0.817-6.446h5.782
			L62.039,335.819z M110.412,335.819h-4.152l-0.814-6.446h5.779L110.412,335.819z M122.381,300.057
			c-1.953,2.441-3.997,5.869-5.802,9.946v10.984c0,2.723-2.211,4.936-4.934,4.936H56.653c-2.723,0-4.937-2.213-4.937-4.936v-11.101
			c0-0.154,0.032-0.299,0.047-0.45c-0.053,0.063-0.11,0.12-0.16,0.185c-1.786-4.052-3.808-7.459-5.745-9.874
			c-1.464-1.83-5.751-8.2,0.537-13.354c2.019-1.654,4.14-2.493,6.297-2.493c2.061,0,4.117,0.814,5.647,2.231
			c7.565,6.997,12.118,13.586,14.869,18.82h21.51c2.829-5.27,7.426-11.823,14.941-18.775c1.562-1.445,3.66-2.274,5.757-2.274
			c2.206,0,4.363,0.856,6.42,2.542C128.252,291.697,123.877,298.191,122.381,300.057z"/>
		<circle class="st0" cx="52.136" cy="292.555" r="4.179"/>
		<circle class="st0" cx="116.207" cy="292.555" r="4.18"/>
	</g>
</g>
<g id="g2">
	<g>
		<path class="st0" d="M99.445,187.976c1.246-1.244,1.249-3.414-0.001-4.664c-1.288-1.282-3.382-1.281-4.667,0.002l-6.807,6.81
			v-25.966c0-1.818-1.478-3.296-3.295-3.296c-1.819,0-3.297,1.478-3.297,3.296v25.966l-6.806-6.809
			c-0.624-0.626-1.454-0.969-2.339-0.968c-0.882,0.001-1.709,0.346-2.325,0.967c-0.625,0.624-0.969,1.452-0.969,2.332
			c0,0.886,0.346,1.714,0.969,2.328l12.439,12.444c0.614,0.614,1.463,0.967,2.328,0.967c0.864,0,1.713-0.352,2.334-0.967
			L99.445,187.976z"/>
	</g>
	<g>
		<path class="st0" d="M99.445,424.384c1.246-1.243,1.249-3.414-0.001-4.664c-1.288-1.282-3.382-1.281-4.667,0.002l-6.807,6.81
			v-25.966c0-1.818-1.478-3.296-3.295-3.296c-1.819,0-3.297,1.478-3.297,3.296v25.966l-6.806-6.809
			c-0.624-0.626-1.454-0.969-2.339-0.968c-0.882,0.001-1.709,0.346-2.325,0.967c-0.625,0.624-0.969,1.452-0.969,2.332
			c0,0.886,0.346,1.714,0.969,2.328l12.439,12.444c0.614,0.614,1.463,0.967,2.328,0.967c0.864,0,1.713-0.352,2.334-0.967
			L99.445,424.384z"/>
	</g>
	<path class="st0" d="M166.638,54.489c1.611,0.926,4.028,1.732,6.567,1.732c3.183,0,4.956-1.49,4.956-3.706
		c0-2.056-1.37-3.263-4.835-4.513c-4.472-1.612-7.332-3.99-7.332-7.897c0-4.432,3.706-7.816,9.588-7.816
		c2.941,0,5.117,0.645,6.527,1.37l-1.209,3.99c-0.967-0.524-2.86-1.289-5.398-1.289c-3.143,0-4.513,1.691-4.513,3.263
		c0,2.094,1.571,3.061,5.197,4.472c4.714,1.772,7.01,4.149,7.01,8.058c0,4.351-3.303,8.139-10.313,8.139
		c-2.86,0-5.841-0.806-7.332-1.692L166.638,54.489z"/>
	<path class="st0" d="M192.581,34.668v5.601h4.714v3.706h-4.714v8.663c0,2.377,0.645,3.625,2.538,3.625
		c0.846,0,1.49-0.121,1.934-0.242l0.08,3.788c-0.725,0.281-2.014,0.483-3.585,0.483c-1.813,0-3.345-0.604-4.27-1.612
		c-1.048-1.128-1.531-2.9-1.531-5.479v-9.227h-2.821v-3.706h2.821v-4.433L192.581,34.668z"/>
	<path class="st0" d="M211.676,59.888l-0.322-2.176h-0.121c-1.209,1.531-3.263,2.619-5.802,2.619c-3.948,0-6.164-2.861-6.164-5.841
		c0-4.956,4.392-7.454,11.643-7.414v-0.322c0-1.289-0.524-3.425-3.989-3.425c-1.934,0-3.948,0.604-5.278,1.451l-0.967-3.223
		c1.45-0.887,3.989-1.733,7.091-1.733c6.285,0,8.098,3.989,8.098,8.26v7.091c0,1.772,0.08,3.504,0.281,4.714L211.676,59.888
		L211.676,59.888z M211.031,50.299c-3.504-0.08-6.849,0.685-6.849,3.667c0,1.934,1.249,2.82,2.821,2.82
		c1.975,0,3.425-1.289,3.868-2.699c0.121-0.363,0.161-0.765,0.161-1.088L211.031,50.299L211.031,50.299z"/>
	<path class="st0" d="M220.697,46.592c0-2.659-0.041-4.552-0.161-6.325h4.311l0.161,3.746h0.161c0.967-2.78,3.263-4.19,5.359-4.19
		c0.483,0,0.765,0.041,1.168,0.121v4.673c-0.403-0.08-0.846-0.161-1.45-0.161c-2.377,0-3.989,1.531-4.432,3.747
		c-0.08,0.444-0.161,0.967-0.161,1.531v10.153h-4.956L220.697,46.592L220.697,46.592z"/>
	<path class="st0" d="M241.241,34.668v5.601h4.714v3.706h-4.714v8.663c0,2.377,0.645,3.625,2.538,3.625
		c0.846,0,1.49-0.121,1.934-0.242l0.08,3.788c-0.725,0.281-2.014,0.483-3.585,0.483c-1.813,0-3.344-0.604-4.27-1.612
		c-1.048-1.128-1.531-2.9-1.531-5.479v-9.227h-2.821v-3.706h2.821v-4.433L241.241,34.668z"/>
	<path class="st0" d="M268.271,59.888l-0.323-2.176h-0.121c-1.209,1.531-3.263,2.619-5.802,2.619c-3.948,0-6.164-2.861-6.164-5.841
		c0-4.956,4.392-7.454,11.643-7.414v-0.322c0-1.289-0.523-3.425-3.989-3.425c-1.934,0-3.949,0.604-5.278,1.451l-0.967-3.223
		c1.45-0.887,3.989-1.733,7.091-1.733c6.285,0,8.098,3.989,8.098,8.26v7.091c0,1.772,0.081,3.504,0.282,4.714L268.271,59.888
		L268.271,59.888z M267.626,50.299c-3.505-0.08-6.849,0.685-6.849,3.667c0,1.934,1.249,2.82,2.821,2.82
		c1.974,0,3.425-1.289,3.868-2.699c0.121-0.363,0.161-0.765,0.161-1.088L267.626,50.299L267.626,50.299z"/>
	<path class="st0" d="M171.136,78.719l3.183,9.951c0.564,1.733,0.967,3.303,1.33,4.916h0.121c0.363-1.612,0.806-3.143,1.33-4.916
		l3.102-9.951h5.237l-7.494,19.62h-4.874l-7.293-19.62C165.778,78.719,171.136,78.719,171.136,78.719z"/>
	<path class="st0" d="M193.333,73.239c0,1.49-1.088,2.659-2.821,2.659c-1.652,0-2.739-1.168-2.739-2.659
		c0-1.531,1.128-2.699,2.78-2.699C192.244,70.54,193.292,71.709,193.333,73.239z M188.054,98.339v-19.62h4.996v19.62H188.054z"/>
	<path class="st0" d="M216.053,69.735V92.82c0,2.015,0.081,4.191,0.161,5.52h-4.432l-0.201-3.102h-0.08
		c-1.168,2.177-3.546,3.546-6.406,3.546c-4.673,0-8.38-3.99-8.38-10.032c-0.041-6.567,4.069-10.475,8.783-10.475
		c2.699,0,4.633,1.128,5.519,2.579h0.08V69.737h4.955V69.735z M211.098,86.897c0-0.402-0.041-0.886-0.121-1.289
		c-0.444-1.934-2.015-3.504-4.271-3.504c-3.182,0-4.956,2.82-4.956,6.486c0,3.585,1.773,6.204,4.915,6.204
		c2.015,0,3.788-1.37,4.27-3.504c0.121-0.444,0.161-0.926,0.161-1.45L211.098,86.897L211.098,86.897z"/>
	<path class="st0" d="M224.47,89.919c0.121,3.545,2.901,5.076,6.043,5.076c2.297,0,3.948-0.323,5.439-0.887l0.725,3.425
		c-1.692,0.685-4.028,1.209-6.849,1.209c-6.365,0-10.112-3.907-10.112-9.911c0-5.438,3.304-10.555,9.589-10.555
		c6.365,0,8.461,5.237,8.461,9.549c0,0.926-0.08,1.652-0.161,2.094H224.47z M233.092,86.455c0.041-1.813-0.766-4.795-4.069-4.795
		c-3.061,0-4.351,2.78-4.552,4.795H233.092z"/>
	<path class="st0" d="M260.001,88.347c0,7.212-5.076,10.435-10.072,10.435c-5.56,0-9.831-3.827-9.831-10.112
		c0-6.446,4.23-10.395,10.153-10.395C256.093,78.276,260.001,82.385,260.001,88.347z M245.214,88.549
		c0,3.788,1.854,6.648,4.874,6.648c2.821,0,4.794-2.78,4.794-6.728c0-3.062-1.37-6.568-4.754-6.568
		C246.625,81.901,245.214,85.286,245.214,88.549z"/>
	<path class="st0" d="M286.022,97.735c-1.047,0.483-3.102,1.008-5.56,1.008c-6.124,0-10.112-3.907-10.112-9.992
		c0-5.882,4.029-10.475,10.918-10.475c1.813,0,3.667,0.403,4.794,0.926l-0.887,3.706c-0.805-0.362-1.974-0.765-3.747-0.765
		c-3.788,0-6.043,2.78-6.003,6.365c0,4.028,2.618,6.326,6.003,6.326c1.732,0,2.941-0.363,3.908-0.766L286.022,97.735z"/>
	<path class="st0" d="M289.282,69.735h4.996v11.684h0.08c0.604-0.927,1.41-1.692,2.458-2.257c0.967-0.564,2.135-0.886,3.384-0.886
		c3.345,0,6.849,2.215,6.849,8.5v11.563h-4.956V87.34c0-2.861-1.047-4.996-3.788-4.996c-1.934,0-3.303,1.289-3.827,2.781
		c-0.16,0.402-0.201,0.926-0.201,1.49v11.723h-4.996V69.735z"/>
	<path class="st0" d="M322.96,98.339l-0.323-2.176h-0.121c-1.209,1.531-3.263,2.618-5.802,2.618c-3.948,0-6.164-2.861-6.164-5.841
		c0-4.956,4.392-7.454,11.643-7.414v-0.322c0-1.289-0.523-3.425-3.989-3.425c-1.934,0-3.949,0.604-5.278,1.451l-0.967-3.223
		c1.45-0.887,3.989-1.733,7.091-1.733c6.285,0,8.098,3.989,8.098,8.26v7.091c0,1.772,0.081,3.504,0.282,4.714L322.96,98.339
		L322.96,98.339z M322.315,88.75c-3.505-0.08-6.849,0.685-6.849,3.667c0,1.934,1.249,2.82,2.821,2.82
		c1.975,0,3.425-1.289,3.868-2.699c0.121-0.363,0.161-0.765,0.161-1.088L322.315,88.75L322.315,88.75z"/>
	<path class="st0" d="M337.42,73.118v5.601h4.714v3.706h-4.714v8.663c0,2.377,0.645,3.625,2.538,3.625
		c0.846,0,1.49-0.121,1.934-0.242l0.08,3.788c-0.725,0.281-2.014,0.483-3.585,0.483c-1.813,0-3.345-0.604-4.27-1.612
		c-1.048-1.128-1.531-2.9-1.531-5.479v-9.227h-2.821v-3.706h2.821v-4.432L337.42,73.118z"/>
	<path class="st0" d="M170.921,281.961c1.611,0.926,4.028,1.732,6.567,1.732c3.183,0,4.956-1.49,4.956-3.706
		c0-2.056-1.37-3.263-4.835-4.513c-4.472-1.612-7.332-3.99-7.332-7.897c0-4.432,3.706-7.816,9.588-7.816
		c2.941,0,5.117,0.645,6.527,1.37l-1.209,3.99c-0.967-0.524-2.86-1.289-5.398-1.289c-3.143,0-4.513,1.691-4.513,3.263
		c0,2.094,1.571,3.061,5.197,4.472c4.714,1.772,7.01,4.149,7.01,8.058c0,4.351-3.303,8.139-10.314,8.139
		c-2.86,0-5.841-0.806-7.332-1.692L170.921,281.961z"/>
	<path class="st0" d="M191.223,258.754h4.996v11.684h0.08c0.604-0.927,1.41-1.692,2.458-2.257c0.967-0.564,2.135-0.886,3.384-0.886
		c3.344,0,6.849,2.215,6.849,8.5v11.563h-4.956v-10.998c0-2.861-1.047-4.996-3.788-4.996c-1.934,0-3.303,1.289-3.827,2.781
		c-0.161,0.402-0.201,0.926-0.201,1.49v11.723h-4.996V258.754z"/>
	<path class="st0" d="M232.515,277.367c0,7.212-5.076,10.435-10.072,10.435c-5.56,0-9.831-3.827-9.831-10.112
		c0-6.446,4.23-10.395,10.153-10.395C228.607,267.296,232.515,271.405,232.515,277.367z M217.729,277.569
		c0,3.788,1.854,6.648,4.875,6.648c2.821,0,4.794-2.78,4.794-6.728c0-3.062-1.37-6.568-4.754-6.568
		C219.14,270.922,217.729,274.306,217.729,277.569z"/>
	<path class="st0" d="M238.837,267.739l2.055,8.903c0.443,2.095,0.887,4.23,1.249,6.365h0.08c0.403-2.135,1.047-4.311,1.612-6.326
		l2.538-8.943h4.028l2.458,8.702c0.604,2.297,1.127,4.432,1.571,6.567h0.08c0.322-2.135,0.765-4.27,1.289-6.567l2.176-8.702h4.875
		l-6.164,19.62h-4.593l-2.337-7.976c-0.604-2.056-1.047-3.907-1.49-6.285h-0.081c-0.403,2.417-0.926,4.351-1.49,6.285l-2.498,7.976
		h-4.633l-5.802-19.62L238.837,267.739L238.837,267.739z"/>
	<path class="st0" d="M291.125,281.477c0,2.336,0.08,4.271,0.161,5.882h-4.351l-0.242-2.982h-0.08
		c-0.846,1.411-2.78,3.425-6.285,3.425c-3.585,0-6.849-2.136-6.849-8.542v-11.52h4.956v10.676c0,3.263,1.048,5.358,3.667,5.358
		c1.974,0,3.263-1.41,3.787-2.659c0.161-0.443,0.282-0.967,0.282-1.531v-11.844h4.956V281.477z"/>
	<path class="st0" d="M295.834,282.806c1.128,0.685,3.263,1.41,5.036,1.41c2.176,0,3.143-0.886,3.143-2.176
		c0-1.33-0.805-2.014-3.223-2.861c-3.827-1.33-5.439-3.424-5.398-5.721c0-3.465,2.86-6.163,7.413-6.163
		c2.176,0,4.069,0.564,5.197,1.168l-0.967,3.504c-0.846-0.483-2.417-1.128-4.15-1.128c-1.772,0-2.739,0.847-2.739,2.056
		c0,1.249,0.926,1.853,3.424,2.739c3.546,1.289,5.197,3.102,5.238,6.003c0,3.546-2.78,6.125-7.977,6.125
		c-2.377,0-4.513-0.564-5.962-1.37L295.834,282.806z"/>
	<path class="st0" d="M176.201,306.191l3.546,10.515c0.403,1.209,0.805,2.699,1.088,3.827h0.121
		c0.322-1.128,0.685-2.579,1.047-3.868l3.061-10.475h5.318l-4.915,13.375c-2.7,7.333-4.513,10.597-6.849,12.611
		c-1.934,1.733-3.948,2.378-5.197,2.538l-1.127-4.191c0.846-0.201,1.893-0.645,2.901-1.37c0.926-0.604,2.014-1.773,2.699-3.102
		c0.201-0.362,0.322-0.645,0.322-0.886c0-0.201-0.041-0.483-0.282-0.967l-7.171-18.009h5.439V306.191z"/>
	<path class="st0" d="M210.968,315.819c0,7.212-5.076,10.435-10.072,10.435c-5.56,0-9.831-3.827-9.831-10.112
		c0-6.446,4.23-10.395,10.153-10.395C207.06,305.747,210.968,309.857,210.968,315.819z M196.181,316.021
		c0,3.788,1.854,6.648,4.875,6.648c2.821,0,4.794-2.78,4.794-6.728c0-3.062-1.37-6.568-4.754-6.568
		C197.592,309.372,196.181,312.758,196.181,316.021z"/>
	<path class="st0" d="M232.196,319.929c0,2.336,0.08,4.271,0.161,5.882h-4.351l-0.242-2.982h-0.08
		c-0.846,1.411-2.78,3.425-6.285,3.425c-3.585,0-6.849-2.136-6.849-8.542v-11.522h4.956v10.676c0,3.263,1.048,5.358,3.667,5.358
		c1.975,0,3.263-1.41,3.787-2.659c0.161-0.443,0.282-0.967,0.282-1.531v-11.844h4.956V319.929z"/>
	<path class="st0" d="M237.148,312.515c0-2.659-0.041-4.552-0.161-6.325h4.311l0.161,3.746h0.161c0.967-2.78,3.263-4.19,5.359-4.19
		c0.483,0,0.766,0.041,1.168,0.121v4.673c-0.403-0.08-0.846-0.161-1.45-0.161c-2.377,0-3.989,1.531-4.432,3.747
		c-0.08,0.444-0.161,0.967-0.161,1.531v10.153h-4.956L237.148,312.515L237.148,312.515z"/>
	<path class="st0" d="M264.298,300.711c0,1.49-1.088,2.659-2.821,2.659c-1.652,0-2.739-1.168-2.739-2.659
		c0-1.531,1.128-2.699,2.78-2.699C263.21,298.012,264.258,299.181,264.298,300.711z M259.02,325.811v-19.62h4.996v19.62H259.02z"/>
	<path class="st0" d="M274.61,300.591v5.601h4.714v3.706h-4.714v8.663c0,2.377,0.645,3.625,2.538,3.625
		c0.846,0,1.49-0.121,1.934-0.242l0.08,3.788c-0.725,0.281-2.014,0.483-3.585,0.483c-1.813,0-3.344-0.604-4.27-1.612
		c-1.048-1.128-1.531-2.9-1.531-5.479v-9.227h-2.821v-3.706h2.821v-4.432L274.61,300.591z"/>
	<path class="st0" d="M285.93,317.39c0.121,3.545,2.901,5.076,6.043,5.076c2.297,0,3.948-0.323,5.439-0.887l0.725,3.425
		c-1.692,0.685-4.029,1.209-6.849,1.209c-6.365,0-10.112-3.907-10.112-9.911c0-5.438,3.304-10.555,9.589-10.555
		c6.365,0,8.461,5.237,8.461,9.549c0,0.926-0.08,1.652-0.161,2.094H285.93z M294.551,313.926c0.041-1.813-0.766-4.795-4.069-4.795
		c-3.061,0-4.351,2.78-4.552,4.795H294.551z"/>
	<path class="st0" d="M302.806,312.032c0-2.257-0.041-4.15-0.161-5.841h4.27l0.201,2.9h0.121c0.967-1.531,2.739-3.344,6.043-3.344
		c2.579,0,4.593,1.45,5.439,3.625h0.08c0.685-1.087,1.491-1.892,2.417-2.457c1.088-0.765,2.337-1.168,3.949-1.168
		c3.263,0,6.567,2.215,6.567,8.5v11.563h-4.835v-10.838c0-3.263-1.128-5.197-3.505-5.197c-1.692,0-2.941,1.209-3.465,2.618
		c-0.121,0.483-0.242,1.088-0.242,1.653v11.764h-4.835v-11.362c0-2.739-1.088-4.673-3.384-4.673c-1.854,0-3.102,1.45-3.546,2.821
		c-0.201,0.483-0.282,1.047-0.282,1.611v11.603h-4.835L302.806,312.032L302.806,312.032z"/>
	<path class="st0" d="M336.322,321.258c1.127,0.685,3.263,1.41,5.036,1.41c2.176,0,3.143-0.886,3.143-2.176
		c0-1.33-0.806-2.014-3.223-2.861c-3.827-1.33-5.439-3.424-5.398-5.721c0-3.465,2.86-6.163,7.413-6.163
		c2.176,0,4.069,0.564,5.197,1.168l-0.967,3.504c-0.846-0.483-2.417-1.128-4.15-1.128c-1.772,0-2.739,0.847-2.739,2.056
		c0,1.249,0.926,1.853,3.425,2.739c3.545,1.289,5.197,3.102,5.237,6.003c0,3.546-2.78,6.125-7.977,6.125
		c-2.377,0-4.513-0.564-5.963-1.37L336.322,321.258z"/>
	<path class="st0" d="M192.289,536.22c-1.733,0.645-5.116,1.531-8.742,1.531c-4.593,0-8.058-1.168-10.636-3.625
		c-2.417-2.297-3.827-5.882-3.787-9.992c0-8.581,6.124-14.101,15.108-14.101c3.344,0,5.963,0.685,7.212,1.289l-1.088,3.99
		c-1.49-0.645-3.304-1.168-6.164-1.168c-5.802,0-9.871,3.424-9.871,9.75c0,6.163,3.787,9.83,9.428,9.83
		c1.772,0,3.102-0.242,3.747-0.564v-6.768h-4.794v-3.909h9.588V536.22z"/>
	<path class="st0" d="M200.504,529.049c0.121,3.545,2.901,5.077,6.043,5.077c2.297,0,3.948-0.323,5.439-0.887l0.725,3.425
		c-1.692,0.685-4.028,1.209-6.849,1.209c-6.365,0-10.112-3.907-10.112-9.911c0-5.438,3.304-10.555,9.589-10.555
		c6.365,0,8.461,5.237,8.461,9.549c0,0.926-0.08,1.652-0.161,2.094H200.504z M209.125,525.585c0.041-1.813-0.766-4.795-4.069-4.795
		c-3.061,0-4.351,2.78-4.552,4.795H209.125z"/>
	<path class="st0" d="M223.062,512.249v5.601h4.714v3.706h-4.714v8.663c0,2.377,0.645,3.625,2.538,3.625
		c0.846,0,1.49-0.121,1.934-0.242l0.08,3.788c-0.725,0.281-2.014,0.483-3.585,0.483c-1.813,0-3.344-0.604-4.27-1.612
		c-1.048-1.128-1.531-2.9-1.531-5.479v-9.227h-2.821v-3.706h2.821v-4.432L223.062,512.249z"/>
	<path class="st0" d="M250.091,537.469l-0.322-2.176h-0.121c-1.209,1.531-3.263,2.619-5.802,2.619c-3.948,0-6.164-2.861-6.164-5.841
		c0-4.956,4.392-7.454,11.643-7.414v-0.322c0-1.289-0.524-3.425-3.989-3.425c-1.934,0-3.948,0.604-5.278,1.451l-0.967-3.223
		c1.45-0.887,3.989-1.733,7.091-1.733c6.285,0,8.098,3.989,8.098,8.26v7.091c0,1.772,0.08,3.504,0.281,4.714L250.091,537.469
		L250.091,537.469z M249.447,527.88c-3.505-0.08-6.849,0.685-6.849,3.667c0,1.934,1.249,2.82,2.821,2.82
		c1.975,0,3.425-1.289,3.868-2.699c0.121-0.363,0.161-0.765,0.161-1.088L249.447,527.88L249.447,527.88z"/>
	<path class="st0" d="M267.047,524.376c0-2.579-0.08-4.674-0.161-6.527h4.351l0.242,3.021h0.08c1.45-2.215,3.747-3.465,6.728-3.465
		c4.513,0,8.26,3.868,8.26,9.992c0,7.091-4.472,10.516-8.944,10.516c-2.458,0-4.513-1.048-5.519-2.619h-0.08v10.152h-4.956
		L267.047,524.376L267.047,524.376z M272.003,529.25c0,0.483,0.041,0.927,0.161,1.37c0.483,2.014,2.256,3.466,4.351,3.466
		c3.143,0,4.995-2.619,4.995-6.486c0-3.466-1.692-6.285-4.875-6.285c-2.055,0-3.948,1.49-4.432,3.667
		c-0.121,0.402-0.201,0.846-0.201,1.249V529.25z"/>
	<path class="st0" d="M290.21,524.174c0-2.659-0.041-4.552-0.161-6.325h4.311l0.161,3.746h0.161c0.967-2.78,3.263-4.19,5.359-4.19
		c0.483,0,0.766,0.041,1.168,0.121v4.673c-0.403-0.08-0.846-0.161-1.45-0.161c-2.377,0-3.989,1.531-4.432,3.747
		c-0.08,0.444-0.161,0.967-0.161,1.531v10.153h-4.956v-13.296H290.21z"/>
	<path class="st0" d="M309.425,512.369c0,1.49-1.088,2.659-2.821,2.659c-1.652,0-2.739-1.168-2.739-2.659
		c0-1.531,1.128-2.699,2.78-2.699C308.337,509.67,309.385,510.839,309.425,512.369z M304.147,537.469v-19.62h4.996v19.62H304.147z"
		/>
	<path class="st0" d="M328.48,536.864c-1.047,0.483-3.102,1.008-5.56,1.008c-6.124,0-10.112-3.907-10.112-9.991
		c0-5.882,4.029-10.475,10.918-10.475c1.813,0,3.667,0.403,4.794,0.926l-0.887,3.706c-0.805-0.362-1.974-0.765-3.747-0.765
		c-3.788,0-6.043,2.78-6.003,6.365c0,4.028,2.618,6.326,6.003,6.326c1.732,0,2.941-0.363,3.908-0.766L328.48,536.864z"/>
	<path class="st0" d="M334.884,529.049c0.121,3.545,2.901,5.077,6.043,5.077c2.297,0,3.948-0.323,5.439-0.887l0.725,3.425
		c-1.692,0.685-4.028,1.209-6.849,1.209c-6.365,0-10.112-3.907-10.112-9.911c0-5.438,3.304-10.555,9.589-10.555
		c6.365,0,8.461,5.237,8.461,9.549c0,0.926-0.08,1.652-0.161,2.094H334.884z M343.505,525.585c0.041-1.813-0.766-4.795-4.069-4.795
		c-3.061,0-4.351,2.78-4.552,4.795H343.505z"/>
</g>
</svg>
