<?xml version="1.0" encoding="utf-8"?>
<!-- Generator: Adobe Illustrator 20.0.0, SVG Export Plug-In . SVG Version: 6.00 Build 0)  -->
<svg version="1.1" id="Layer_1" xmlns="http://www.w3.org/2000/svg" xmlns:xlink="http://www.w3.org/1999/xlink" x="0px" y="0px"
	 width="600px" height="300px" viewBox="0 0 600 247.407" style="enable-background:new 0 0 600 247.407;" xml:space="preserve"
	>
<style type="text/css">
	
</style>
<g id="g1">
	<polygon class="st0" points="565.871,76.917 563.299,76.917 563.299,24.013 465.465,24.013 465.465,76.917 462.891,76.917 
		462.891,21.439 565.871,21.439 	"/>
	<rect x="453.696" y="76.409" class="st0" width="121.372" height="61.183"/>
	<rect x="501.476" y="35.09" class="st0" width="50.688" height="2.574"/>
	<rect x="501.476" y="49.105" class="st0" width="50.688" height="2.572"/>
	<rect x="501.476" y="63.117" class="st0" width="50.688" height="2.574"/>
	<path class="st0" d="M119.256,35.773H79.793c-7.137,0-12.943,5.808-12.943,12.946v1.921l-10.345-7.31
		c-0.995-0.712-2.127-1.089-3.274-1.089c-1.355,0-2.61,0.526-3.528,1.48c-0.899,0.936-1.393,2.216-1.393,3.602v23.703H31.57
		c-7.136,0-12.941,5.808-12.941,12.943v39.461c0,7.138,5.805,12.946,12.941,12.946h39.464c7.137,0,12.943-5.808,12.943-12.946
		v-1.921l10.344,7.31c0.996,0.712,2.128,1.089,3.274,1.089c1.356,0,2.609-0.526,3.528-1.48c0.899-0.934,1.394-2.216,1.394-3.602
		v-23.703h16.739c7.136,0,12.942-5.808,12.942-12.943V48.719C132.198,41.58,126.392,35.773,119.256,35.773z M95.687,121.418
		l-13.155-9.298c-1.041-0.736-2.407-0.832-3.542-0.244c-1.134,0.587-1.845,1.757-1.845,3.033v8.52c0,3.371-2.742,6.115-6.112,6.115
		H31.57c-3.369,0-6.111-2.744-6.111-6.115V83.968c0-3.369,2.741-6.112,6.111-6.112h39.464c3.369,0,6.112,2.742,6.112,6.112v8.246
		c0,1.277,0.712,2.449,1.848,3.036c1.135,0.587,2.503,0.492,3.544-0.249l13.15-9.329V121.418z"/>
	<path class="st0" d="M261.863,124.347h-23.21v9.284h23.21V124.347L261.863,124.347z M250.838,130.631
		c-1.068,0-1.934-0.866-1.934-1.933c0-1.069,0.867-1.934,1.934-1.934c1.067,0,1.934,0.866,1.934,1.934
		C252.773,129.765,251.905,130.631,250.838,130.631z"/>
	<path class="st0" d="M292.81,124.347H269.6v9.284h23.21V124.347L292.81,124.347z M281.785,130.631
		c-1.069,0-1.934-0.866-1.934-1.933c0-1.069,0.866-1.934,1.934-1.934c1.067,0,1.934,0.866,1.934,1.934
		C283.719,129.765,282.852,130.631,281.785,130.631z"/>
	<path class="st0" d="M292.81,107.326h-54.157v9.283h54.157V107.326L292.81,107.326z M264.765,113.611
		c-1.069,0-1.934-0.866-1.934-1.934c0-1.067,0.866-1.934,1.934-1.934c1.067,0,1.934,0.867,1.934,1.934
		C266.698,112.745,265.832,113.611,264.765,113.611z"/>
	<path class="st0" d="M300.546,144.461v-4.642v-4.641v-34.042h-69.63v34.042v4.641v4.644h4.642v-4.644h27.852v4.644h4.642v-4.644
		h27.852v4.644h4.642V144.461z M263.41,135.178h-26.305V122.8h26.305V135.178L263.41,135.178z M294.357,135.178h-26.305V122.8
		h26.305V135.178L294.357,135.178z M294.357,118.157h-57.252v-12.38h57.252V118.157L294.357,118.157z"/>
	<polygon class="st0" points="300.546,99.589 303.641,96.495 227.822,96.495 230.916,99.589 	"/>
	<polygon class="st0" points="257.221,87.211 257.221,91.853 247.937,91.853 247.937,94.947 283.526,94.947 283.526,91.853 
		274.241,91.853 274.241,87.211 	"/>
	<path class="st0" d="M294.357,56.264h-57.252v29.4h57.252V56.264L294.357,56.264z M289.715,81.022h-47.967V60.906h47.967V81.022z"
		/>
	<g>
		<path class="st0" d="M305.594,141.131c0,1.609,0.9,2.951,2.095,3.261c0.175,0.036,0.349,0.07,0.531,0.07h21.014
			c0.183,0,0.355-0.034,0.531-0.07c1.196-0.31,2.096-1.653,2.096-3.261c0-1.837-1.177-3.329-2.627-3.329h-7.005h-1.751h-3.502
			h-1.751h-7.004C306.769,137.802,305.594,139.294,305.594,141.131z"/>
		<polygon class="st0" points="332.98,2.348 330.301,2.348 329.67,2.348 328.457,2.348 308.996,2.348 307.782,2.348 307.151,2.348 
			304.471,2.348 298.051,39.474 339.402,39.474 		"/>
		<path class="st0" d="M323.104,58.344c0.484,0,0.876-0.498,0.876-1.11v-2.221v-2.219v-2.22c0-0.613-0.392-1.11-0.876-1.11
			c-0.483,0-0.875,0.498-0.875,1.11v2.22h-1.751v-11.1h-3.502v93.887h3.502V55.015h1.751v2.219
			C322.229,57.846,322.621,58.344,323.104,58.344z"/>
	</g>
	<polygon class="st0" points="360.97,123.007 351.917,123.007 350.393,123.007 339.005,123.007 340.422,132.202 359.552,132.202 	
		"/>
	<polygon class="st0" points="362.387,113.812 358.842,113.812 357.102,113.812 355.701,113.812 354.872,113.812 354.165,113.812 
		353.205,113.812 352.33,113.812 352.323,113.812 351.419,113.812 348.779,113.812 347.988,113.812 346.418,113.812 
		345.254,113.812 343.718,113.812 337.587,113.812 338.768,121.475 349.407,121.475 352.609,121.475 361.206,121.475 	"/>
	<polygon class="st0" points="357.664,144.462 359.316,133.734 340.658,133.734 342.311,144.462 	"/>
	<path class="st0" d="M332.864,103.085l2.362,9.195h1.18h3.068h1.73h2.402h1.63h0.99h0.791h0.858h0.905h1.055h1.493h1.004h0.045
		h1.494h0.246h0.144h0.539h1.445h0.778h0.127h1.669h5.928l2.362-9.195h-7.849c0.469-4.353,1.384-8.906,3.076-12.795
		c0,0-0.852,1.091-1.872,3.669c0.434-4.636,0.111-7.505-0.049-8.526c1.059-3.829,2.446-7.557,4.267-10.819
		c0,0-6.622,6.678-9.509,28.47h-0.392c0.067-1.869,0.186-3.833,0.371-5.839c0.536-2.954,1.322-5.872,2.462-8.49
		c0,0-0.867,1.115-1.898,3.739c0.706-4.815,1.864-9.669,3.717-13.928c0,0-5.058,6.398-6.646,24.519h-1.529
		c-0.013-0.329-0.025-0.669-0.036-1.018c0.246-7.836,1.34-17.385,4.668-25.035c0,0-2.222,2.818-4.184,9.994
		c0.616-5.989,1.85-12.29,4.184-17.655c0,0-6.73,8.512-7.101,33.714h-0.861c-0.094-0.557-0.185-1.13-0.274-1.715
		c0.194-7.985,1.248-17.95,4.694-25.87c0,0-3.603,4.562-5.682,16.88c-0.408-6.173-0.247-12.883,1.212-18.937
		c0,0-4.285,8.363-2.32,28.394c-0.029,0.408-0.055,0.829-0.08,1.249h-0.799c-0.368-1.787-0.759-3.448-1.159-5.006
		c1.711-14.67,0.001-20.689,0.001-20.689c0.438,4.978,0.132,10.52-0.479,15.739c0.548-18.393-3.753-25.758-3.753-25.758
		c2.163,7.359,2.378,15.885,1.926,23.191c-3.414-9.371-6.871-12.421-6.871-12.421c3.048,4.8,5.121,10.796,6.533,16.609
		c-0.325,3.274-0.744,6.141-1.115,8.334H332.864L332.864,103.085z M360.324,85.777c-0.103,5.635-1.264,11.336-2.815,16.511
		C357.947,97.394,358.775,91.489,360.324,85.777z"/>
	<path class="st0" d="M490.156,51.031c-1.192-0.97-2.916-1.662-4.656-2.302v-8.636c1.356,0.297,2.577,1.037,3.34,2.153l2.124-1.453
		c-1.235-1.806-3.265-2.949-5.463-3.293v-4.548h-2.574v4.514c-0.975,0.128-1.934,0.414-2.83,0.878
		c-1.96,1.012-3.308,2.833-3.606,4.87c-0.261,1.785,0.303,3.498,1.545,4.696c1.188,1.145,3.015,1.918,4.891,2.617v10.07
		c-1.997-0.237-3.884-1.134-4.924-2.526l-2.061,1.541c1.516,2.027,4.191,3.301,6.985,3.563v3.517h2.574v-3.568
		c0.735-0.101,1.456-0.279,2.143-0.539c2.703-1.027,4.627-3.188,5.022-5.638C493.021,54.738,492.13,52.636,490.156,51.031z
		 M479.822,46.057c-0.639-0.615-0.925-1.517-0.785-2.471c0.177-1.219,1.015-2.323,2.24-2.957c0.526-0.271,1.083-0.456,1.65-0.565
		v7.705C481.649,47.263,480.502,46.713,479.822,46.057z M490.124,56.536c-0.249,1.545-1.55,2.94-3.395,3.641
		c-0.396,0.151-0.808,0.262-1.23,0.341v-9.04c1.209,0.469,2.32,0.97,3.033,1.55C489.78,54.043,490.331,55.256,490.124,56.536z"/>
	<polygon class="st0" points="564.88,73.542 575.069,73.542 569.35,62.581 564.88,62.581 	"/>
	<polygon class="st0" points="464.423,62.581 459.414,62.581 453.696,73.542 464.423,73.542 	"/>
</g>
<g id="g2">
	<path class="st0" d="M207.581,76.17l-12.165-12.16c-0.83-0.831-2.007-1.308-3.228-1.309c0,0-0.001,0-0.001,0
		c-1.221,0-2.399,0.477-3.233,1.312c-1.773,1.781-1.772,4.679,0.005,6.459l4.365,4.365h-22.146c-2.517,0-4.566,2.048-4.566,4.565
		c0,2.518,2.048,4.566,4.566,4.566h22.145l-4.363,4.361c-0.866,0.864-1.342,2.014-1.341,3.24c0.001,1.221,0.478,2.366,1.337,3.219
		c0.864,0.865,2.011,1.342,3.231,1.342c1.228,0,2.376-0.479,3.226-1.341l12.167-12.161c0.85-0.851,1.338-2.027,1.338-3.226
		C208.919,78.206,208.433,77.03,207.581,76.17z"/>
	<path class="st0" d="M429.521,76.17L417.357,64.01c-0.83-0.832-2.007-1.309-3.228-1.309c0,0-0.001,0-0.001,0
		c-1.222,0-2.4,0.477-3.233,1.312c-1.773,1.781-1.772,4.679,0.004,6.459l4.365,4.365h-22.146c-2.517,0-4.565,2.048-4.565,4.565
		c0,2.518,2.048,4.566,4.565,4.566h22.145l-4.363,4.361c-0.866,0.864-1.342,2.014-1.341,3.24c0.002,1.222,0.479,2.367,1.338,3.219
		c0.864,0.865,2.011,1.342,3.23,1.342c1.228,0,2.376-0.479,3.226-1.341l12.167-12.161c0.85-0.851,1.338-2.027,1.338-3.226
		C430.859,78.205,430.373,77.029,429.521,76.17z"/>
	<g>
		<path class="st0" d="M35.876,195.829c1.575,0.906,3.939,1.693,6.42,1.693c3.112,0,4.845-1.457,4.845-3.623
			c0-2.01-1.339-3.191-4.727-4.412c-4.372-1.576-7.169-3.9-7.169-7.721c0-4.333,3.624-7.642,9.375-7.642
			c2.875,0,5.003,0.63,6.382,1.339l-1.182,3.9c-0.945-0.512-2.797-1.26-5.278-1.26c-3.073,0-4.412,1.654-4.412,3.191
			c0,2.048,1.536,2.993,5.081,4.372c4.609,1.733,6.854,4.057,6.854,7.878c0,4.254-3.23,7.957-10.084,7.957
			c-2.797,0-5.712-0.788-7.169-1.655L35.876,195.829z"/>
	</g>
	<g>
		<path class="st0" d="M61.24,176.449v5.476h4.608v3.623H61.24v8.469c0,2.323,0.63,3.545,2.482,3.545
			c0.827,0,1.457-0.118,1.891-0.236l0.079,3.703c-0.709,0.275-1.969,0.473-3.506,0.473c-1.773,0-3.27-0.591-4.175-1.576
			c-1.024-1.103-1.497-2.836-1.497-5.357v-9.021h-2.757v-3.623h2.757v-4.333L61.24,176.449z"/>
	</g>
	<g>
		<path class="st0" d="M79.909,201.107l-0.315-2.127h-0.118c-1.182,1.497-3.191,2.56-5.672,2.56c-3.86,0-6.027-2.797-6.027-5.712
			c0-4.845,4.294-7.288,11.384-7.248v-0.315c0-1.26-0.512-3.349-3.899-3.349c-1.891,0-3.86,0.591-5.16,1.419l-0.945-3.151
			c1.418-0.867,3.9-1.694,6.933-1.694c6.145,0,7.918,3.9,7.918,8.075v6.933c0,1.733,0.079,3.427,0.275,4.608H79.909z
			 M79.279,191.732c-3.427-0.079-6.696,0.67-6.696,3.585c0,1.891,1.221,2.757,2.757,2.757c1.93,0,3.348-1.26,3.781-2.639
			c0.118-0.355,0.157-0.748,0.157-1.064V191.732z"/>
	</g>
	<g>
		<path class="st0" d="M88.729,188.108c0-2.6-0.039-4.451-0.157-6.184h4.215l0.158,3.663h0.157c0.945-2.718,3.191-4.096,5.239-4.096
			c0.472,0,0.748,0.039,1.142,0.118v4.569c-0.394-0.079-0.827-0.157-1.418-0.157c-2.324,0-3.9,1.497-4.333,3.663
			c-0.079,0.434-0.157,0.945-0.157,1.497v9.927h-4.845V188.108z"/>
	</g>
	<g>
		<path class="st0" d="M108.816,176.449v5.476h4.609v3.623h-4.609v8.469c0,2.323,0.63,3.545,2.482,3.545
			c0.827,0,1.457-0.118,1.891-0.236l0.079,3.703c-0.709,0.275-1.969,0.473-3.506,0.473c-1.773,0-3.269-0.591-4.175-1.576
			c-1.024-1.103-1.497-2.836-1.497-5.357v-9.021h-2.757v-3.623h2.757v-4.333L108.816,176.449z"/>
	</g>
	<g>
		<path class="st0" d="M135.243,201.107l-0.316-2.127h-0.118c-1.182,1.497-3.191,2.56-5.672,2.56c-3.86,0-6.027-2.797-6.027-5.712
			c0-4.845,4.294-7.288,11.384-7.248v-0.315c0-1.26-0.512-3.349-3.9-3.349c-1.891,0-3.861,0.591-5.16,1.419l-0.945-3.151
			c1.418-0.867,3.9-1.694,6.933-1.694c6.145,0,7.917,3.9,7.917,8.075v6.933c0,1.733,0.079,3.427,0.276,4.608H135.243z
			 M134.613,191.732c-3.427-0.079-6.697,0.67-6.697,3.585c0,1.891,1.221,2.757,2.757,2.757c1.93,0,3.348-1.26,3.781-2.639
			c0.118-0.355,0.158-0.748,0.158-1.064V191.732z"/>
	</g>
	<g>
		<path class="st0" d="M6.239,219.519l3.112,9.729c0.552,1.694,0.945,3.23,1.3,4.806h0.118c0.355-1.576,0.788-3.073,1.3-4.806
			l3.033-9.729h5.121l-7.327,19.183H8.13L1,219.519H6.239z"/>
	</g>
	<g>
		<path class="st0" d="M27.94,214.162c0,1.457-1.064,2.6-2.757,2.6c-1.615,0-2.679-1.143-2.679-2.6c0-1.497,1.103-2.639,2.718-2.639
			C26.876,211.523,27.901,212.665,27.94,214.162z M22.78,238.702v-19.183h4.885v19.183H22.78z"/>
	</g>
	<g>
		<path class="st0" d="M50.155,210.735v22.57c0,1.97,0.079,4.097,0.158,5.397h-4.333l-0.197-3.033h-0.079
			c-1.142,2.128-3.466,3.467-6.263,3.467c-4.569,0-8.193-3.9-8.193-9.809c-0.039-6.42,3.979-10.241,8.587-10.241
			c2.639,0,4.53,1.103,5.396,2.521h0.079v-10.872H50.155z M45.31,227.515c0-0.393-0.039-0.866-0.118-1.26
			c-0.434-1.891-1.97-3.427-4.176-3.427c-3.111,0-4.845,2.757-4.845,6.342c0,3.505,1.733,6.066,4.806,6.066
			c1.97,0,3.703-1.339,4.175-3.427c0.118-0.434,0.158-0.906,0.158-1.418V227.515z"/>
	</g>
	<g>
		<path class="st0" d="M58.384,230.469c0.118,3.466,2.836,4.963,5.909,4.963c2.245,0,3.86-0.316,5.318-0.867l0.709,3.349
			c-1.654,0.67-3.939,1.182-6.696,1.182c-6.224,0-9.887-3.821-9.887-9.691c0-5.317,3.23-10.32,9.375-10.32
			c6.224,0,8.272,5.121,8.272,9.336c0,0.906-0.079,1.615-0.157,2.048H58.384z M66.813,227.082c0.039-1.773-0.749-4.688-3.979-4.688
			c-2.993,0-4.254,2.718-4.451,4.688H66.813z"/>
	</g>
	<g>
		<path class="st0" d="M93.123,228.933c0,7.052-4.963,10.203-9.848,10.203c-5.436,0-9.611-3.742-9.611-9.887
			c0-6.302,4.136-10.163,9.927-10.163C89.302,219.085,93.123,223.103,93.123,228.933z M78.666,229.13
			c0,3.703,1.812,6.499,4.766,6.499c2.757,0,4.688-2.718,4.688-6.578c0-2.994-1.339-6.421-4.648-6.421
			C80.045,222.63,78.666,225.94,78.666,229.13z"/>
	</g>
	<g>
		<path class="st0" d="M118.564,238.111c-1.024,0.473-3.033,0.985-5.436,0.985c-5.987,0-9.887-3.821-9.887-9.769
			c0-5.751,3.939-10.241,10.675-10.241c1.773,0,3.585,0.394,4.688,0.906l-0.867,3.624c-0.788-0.354-1.93-0.748-3.663-0.748
			c-3.703,0-5.909,2.718-5.869,6.224c0,3.939,2.56,6.184,5.869,6.184c1.694,0,2.875-0.355,3.821-0.749L118.564,238.111z"/>
	</g>
	<g>
		<path class="st0" d="M121.751,210.735h4.885v11.423h0.079c0.591-0.906,1.379-1.655,2.403-2.206
			c0.945-0.552,2.087-0.866,3.309-0.866c3.27,0,6.696,2.166,6.696,8.311v11.305h-4.845v-10.754c0-2.797-1.024-4.885-3.703-4.885
			c-1.891,0-3.23,1.26-3.742,2.719c-0.157,0.393-0.197,0.906-0.197,1.457v11.462h-4.885V210.735z"/>
	</g>
	<g>
		<path class="st0" d="M154.679,238.702l-0.316-2.127h-0.118c-1.182,1.497-3.191,2.56-5.672,2.56c-3.86,0-6.027-2.797-6.027-5.712
			c0-4.845,4.294-7.288,11.384-7.248v-0.315c0-1.26-0.512-3.349-3.899-3.349c-1.891,0-3.861,0.591-5.16,1.419l-0.945-3.151
			c1.418-0.867,3.9-1.694,6.933-1.694c6.145,0,7.917,3.899,7.917,8.075v6.933c0,1.733,0.079,3.427,0.276,4.608H154.679z
			 M154.048,229.327c-3.427-0.079-6.697,0.67-6.697,3.585c0,1.891,1.221,2.757,2.757,2.757c1.93,0,3.348-1.26,3.781-2.639
			c0.118-0.355,0.158-0.748,0.158-1.064V229.327z"/>
	</g>
	<g>
		<path class="st0" d="M168.817,214.044v5.476h4.608v3.623h-4.608v8.469c0,2.323,0.63,3.545,2.482,3.545
			c0.827,0,1.457-0.118,1.891-0.236l0.079,3.703c-0.709,0.275-1.969,0.473-3.506,0.473c-1.773,0-3.27-0.591-4.175-1.576
			c-1.024-1.103-1.497-2.836-1.497-5.357v-9.021h-2.757v-3.623h2.757v-4.333L168.817,214.044z"/>
	</g>
	<g>
		<path class="st0" d="M235.638,195.829c1.575,0.906,3.939,1.693,6.42,1.693c3.112,0,4.845-1.457,4.845-3.623
			c0-2.01-1.339-3.191-4.727-4.412c-4.372-1.576-7.169-3.9-7.169-7.721c0-4.333,3.624-7.642,9.375-7.642
			c2.875,0,5.003,0.63,6.382,1.339l-1.182,3.9c-0.945-0.512-2.797-1.26-5.278-1.26c-3.073,0-4.412,1.654-4.412,3.191
			c0,2.048,1.536,2.993,5.081,4.372c4.609,1.733,6.854,4.057,6.854,7.878c0,4.254-3.23,7.957-10.084,7.957
			c-2.797,0-5.712-0.788-7.169-1.655L235.638,195.829z"/>
	</g>
	<g>
		<path class="st0" d="M255.489,173.14h4.885v11.423h0.079c0.591-0.906,1.379-1.655,2.403-2.206
			c0.945-0.552,2.087-0.866,3.309-0.866c3.27,0,6.696,2.166,6.696,8.311v11.305h-4.845v-10.754c0-2.797-1.024-4.885-3.703-4.885
			c-1.891,0-3.23,1.26-3.742,2.719c-0.157,0.393-0.197,0.906-0.197,1.457v11.462h-4.885V173.14z"/>
	</g>
	<g>
		<path class="st0" d="M295.86,191.338c0,7.052-4.963,10.203-9.848,10.203c-5.436,0-9.612-3.742-9.612-9.887
			c0-6.302,4.136-10.163,9.927-10.163C292.039,181.491,295.86,185.508,295.86,191.338z M281.404,191.536
			c0,3.703,1.812,6.499,4.766,6.499c2.757,0,4.688-2.718,4.688-6.578c0-2.994-1.339-6.421-4.648-6.421
			C282.782,185.035,281.404,188.345,281.404,191.536z"/>
	</g>
	<g>
		<path class="st0" d="M302.042,181.924l2.009,8.705c0.433,2.049,0.867,4.136,1.221,6.224h0.079
			c0.394-2.087,1.024-4.214,1.576-6.184l2.482-8.744h3.939l2.403,8.508c0.591,2.246,1.103,4.333,1.536,6.42h0.079
			c0.315-2.087,0.748-4.175,1.26-6.42l2.127-8.508h4.766l-6.027,19.183h-4.49l-2.285-7.799c-0.59-2.01-1.024-3.821-1.457-6.145
			h-0.079c-0.394,2.364-0.906,4.254-1.457,6.145l-2.442,7.799h-4.53l-5.672-19.183H302.042z"/>
	</g>
	<g>
		<path class="st0" d="M353.164,195.356c0,2.284,0.079,4.176,0.157,5.751h-4.254l-0.236-2.915h-0.079
			c-0.827,1.379-2.718,3.349-6.145,3.349c-3.506,0-6.696-2.088-6.696-8.351v-11.265h4.845v10.438c0,3.191,1.024,5.239,3.585,5.239
			c1.93,0,3.191-1.379,3.702-2.6c0.158-0.433,0.276-0.945,0.276-1.497v-11.58h4.845V195.356z"/>
	</g>
	<g>
		<path class="st0" d="M357.768,196.656c1.103,0.67,3.191,1.379,4.924,1.379c2.127,0,3.073-0.866,3.073-2.127
			c0-1.3-0.788-1.969-3.151-2.797c-3.742-1.3-5.318-3.348-5.278-5.594c0-3.387,2.797-6.026,7.248-6.026
			c2.127,0,3.979,0.552,5.081,1.142l-0.945,3.427c-0.827-0.473-2.363-1.103-4.057-1.103c-1.733,0-2.678,0.828-2.678,2.01
			c0,1.221,0.906,1.811,3.348,2.678c3.467,1.26,5.082,3.033,5.121,5.869c0,3.467-2.718,5.988-7.799,5.988
			c-2.324,0-4.412-0.552-5.83-1.34L357.768,196.656z"/>
	</g>
	<g>
		<path class="st0" d="M223.784,219.519l3.466,10.281c0.394,1.182,0.788,2.639,1.063,3.742h0.118
			c0.315-1.103,0.67-2.521,1.024-3.781l2.993-10.241h5.2l-4.806,13.077c-2.639,7.17-4.412,10.36-6.697,12.33
			c-1.891,1.694-3.86,2.324-5.081,2.482l-1.103-4.097c0.827-0.197,1.851-0.63,2.836-1.339c0.906-0.591,1.969-1.733,2.639-3.033
			c0.197-0.354,0.315-0.63,0.315-0.866c0-0.197-0.039-0.473-0.276-0.945l-7.011-17.608H223.784z"/>
	</g>
	<g>
		<path class="st0" d="M257.776,228.933c0,7.052-4.963,10.203-9.848,10.203c-5.436,0-9.611-3.742-9.611-9.887
			c0-6.302,4.136-10.163,9.927-10.163C253.955,219.085,257.776,223.103,257.776,228.933z M243.319,229.13
			c0,3.703,1.812,6.499,4.766,6.499c2.757,0,4.688-2.718,4.688-6.578c0-2.994-1.339-6.421-4.648-6.421
			C244.698,222.63,243.319,225.94,243.319,229.13z"/>
	</g>
	<g>
		<path class="st0" d="M278.532,232.951c0,2.284,0.079,4.176,0.157,5.751h-4.254l-0.236-2.915h-0.079
			c-0.827,1.379-2.718,3.349-6.145,3.349c-3.506,0-6.696-2.088-6.696-8.351v-11.265h4.845v10.438c0,3.191,1.024,5.239,3.585,5.239
			c1.93,0,3.191-1.378,3.702-2.6c0.158-0.433,0.276-0.945,0.276-1.497v-11.58h4.845V232.951z"/>
	</g>
	<g>
		<path class="st0" d="M283.372,225.703c0-2.6-0.039-4.451-0.157-6.184h4.215l0.158,3.663h0.157
			c0.945-2.718,3.191-4.096,5.239-4.096c0.472,0,0.748,0.039,1.142,0.118v4.569c-0.394-0.079-0.827-0.157-1.418-0.157
			c-2.324,0-3.9,1.497-4.333,3.663c-0.079,0.434-0.157,0.945-0.157,1.497v9.927h-4.845V225.703z"/>
	</g>
	<g>
		<path class="st0" d="M309.918,214.162c0,1.457-1.064,2.6-2.757,2.6c-1.615,0-2.679-1.143-2.679-2.6
			c0-1.497,1.103-2.639,2.718-2.639C308.854,211.523,309.878,212.665,309.918,214.162z M304.757,238.702v-19.183h4.885v19.183
			H304.757z"/>
	</g>
	<g>
		<path class="st0" d="M320,214.044v5.476h4.608v3.623H320v8.469c0,2.323,0.63,3.545,2.482,3.545c0.827,0,1.457-0.118,1.891-0.236
			l0.079,3.703c-0.709,0.275-1.969,0.473-3.506,0.473c-1.773,0-3.27-0.591-4.175-1.576c-1.024-1.103-1.497-2.836-1.497-5.357v-9.021
			h-2.757v-3.623h2.757v-4.333L320,214.044z"/>
	</g>
	<g>
		<path class="st0" d="M331.067,230.469c0.118,3.466,2.836,4.963,5.909,4.963c2.245,0,3.86-0.316,5.318-0.867l0.709,3.349
			c-1.654,0.67-3.939,1.182-6.696,1.182c-6.224,0-9.887-3.821-9.887-9.691c0-5.317,3.23-10.32,9.375-10.32
			c6.224,0,8.272,5.121,8.272,9.336c0,0.906-0.079,1.615-0.157,2.048H331.067z M339.496,227.082
			c0.039-1.773-0.748-4.688-3.979-4.688c-2.993,0-4.254,2.718-4.451,4.688H339.496z"/>
	</g>
	<g>
		<path class="st0" d="M347.568,225.231c0-2.206-0.039-4.058-0.157-5.712h4.175l0.197,2.836h0.118
			c0.945-1.497,2.679-3.269,5.909-3.269c2.521,0,4.49,1.418,5.318,3.545h0.079c0.67-1.063,1.458-1.851,2.363-2.402
			c1.064-0.748,2.285-1.142,3.861-1.142c3.191,0,6.42,2.166,6.42,8.311v11.305h-4.727v-10.596c0-3.191-1.103-5.081-3.427-5.081
			c-1.654,0-2.875,1.182-3.388,2.56c-0.118,0.473-0.236,1.064-0.236,1.615v11.502h-4.727v-11.108c0-2.678-1.064-4.569-3.309-4.569
			c-1.812,0-3.033,1.418-3.466,2.758c-0.197,0.472-0.276,1.024-0.276,1.575v11.344h-4.727V225.231z"/>
	</g>
	<g>
		<path class="st0" d="M380.336,234.251c1.103,0.67,3.191,1.379,4.924,1.379c2.127,0,3.073-0.866,3.073-2.127
			c0-1.3-0.788-1.969-3.151-2.797c-3.742-1.3-5.318-3.348-5.278-5.594c0-3.387,2.797-6.026,7.248-6.026
			c2.127,0,3.979,0.552,5.081,1.142l-0.945,3.427c-0.827-0.473-2.363-1.103-4.057-1.103c-1.733,0-2.678,0.828-2.678,2.01
			c0,1.221,0.906,1.811,3.348,2.678c3.466,1.26,5.081,3.033,5.121,5.869c0,3.467-2.718,5.988-7.799,5.988
			c-2.324,0-4.412-0.552-5.83-1.34L380.336,234.251z"/>
	</g>
	<g>
		<path class="st0" d="M447.585,217.398c-1.694,0.63-5.002,1.497-8.548,1.497c-4.49,0-7.878-1.142-10.399-3.545
			c-2.363-2.246-3.742-5.751-3.702-9.769c0-8.39,5.987-13.787,14.771-13.787c3.27,0,5.83,0.67,7.051,1.26l-1.064,3.9
			c-1.457-0.63-3.23-1.142-6.027-1.142c-5.672,0-9.65,3.348-9.65,9.532c0,6.026,3.702,9.611,9.217,9.611
			c1.733,0,3.033-0.236,3.663-0.552v-6.617h-4.687v-3.821h9.375V217.398z"/>
	</g>
	<g>
		<path class="st0" d="M455.616,210.386c0.118,3.466,2.836,4.963,5.909,4.963c2.245,0,3.86-0.316,5.318-0.867l0.709,3.349
			c-1.654,0.67-3.939,1.182-6.696,1.182c-6.224,0-9.887-3.821-9.887-9.691c0-5.317,3.23-10.32,9.375-10.32
			c6.224,0,8.272,5.121,8.272,9.336c0,0.906-0.079,1.615-0.157,2.048H455.616z M464.046,206.999
			c0.039-1.773-0.749-4.688-3.979-4.688c-2.993,0-4.254,2.718-4.451,4.688H464.046z"/>
	</g>
	<g>
		<path class="st0" d="M477.672,193.96v5.476h4.609v3.623h-4.609v8.469c0,2.323,0.63,3.545,2.482,3.545
			c0.827,0,1.457-0.118,1.891-0.236l0.079,3.703c-0.709,0.275-1.969,0.473-3.506,0.473c-1.773,0-3.269-0.591-4.175-1.576
			c-1.025-1.103-1.497-2.836-1.497-5.357v-9.021h-2.757v-3.623h2.757v-4.333L477.672,193.96z"/>
	</g>
	<g>
		<path class="st0" d="M504.099,218.619l-0.315-2.127h-0.118c-1.182,1.497-3.191,2.56-5.672,2.56c-3.86,0-6.027-2.797-6.027-5.712
			c0-4.845,4.294-7.288,11.384-7.248v-0.315c0-1.26-0.512-3.349-3.9-3.349c-1.891,0-3.86,0.591-5.16,1.419l-0.945-3.151
			c1.418-0.867,3.9-1.694,6.933-1.694c6.145,0,7.918,3.899,7.918,8.075v6.933c0,1.733,0.079,3.427,0.275,4.608H504.099z
			 M503.468,209.244c-3.427-0.079-6.696,0.67-6.696,3.585c0,1.891,1.221,2.757,2.757,2.757c1.93,0,3.348-1.26,3.781-2.639
			c0.118-0.355,0.157-0.748,0.157-1.064V209.244z"/>
	</g>
	<g>
		<path class="st0" d="M520.677,205.817c0-2.521-0.079-4.57-0.157-6.381h4.254l0.236,2.954h0.079
			c1.418-2.166,3.663-3.387,6.578-3.387c4.412,0,8.075,3.781,8.075,9.768c0,6.933-4.372,10.282-8.745,10.282
			c-2.403,0-4.412-1.024-5.396-2.56h-0.079v9.926h-4.845V205.817z M525.522,210.583c0,0.473,0.039,0.906,0.157,1.339
			c0.473,1.969,2.206,3.388,4.254,3.388c3.072,0,4.884-2.56,4.884-6.342c0-3.388-1.654-6.145-4.766-6.145
			c-2.009,0-3.86,1.457-4.333,3.585c-0.118,0.393-0.197,0.827-0.197,1.221V210.583z"/>
	</g>
	<g>
		<path class="st0" d="M543.323,205.62c0-2.6-0.039-4.451-0.157-6.184h4.215l0.158,3.663h0.157c0.945-2.718,3.191-4.096,5.239-4.096
			c0.472,0,0.748,0.039,1.142,0.118v4.569c-0.394-0.079-0.827-0.157-1.418-0.157c-2.324,0-3.9,1.497-4.333,3.663
			c-0.079,0.434-0.157,0.945-0.157,1.497v9.927h-4.845V205.62z"/>
	</g>
	<g>
		<path class="st0" d="M562.11,194.078c0,1.457-1.064,2.6-2.757,2.6c-1.615,0-2.679-1.142-2.679-2.6
			c0-1.497,1.103-2.639,2.718-2.639C561.047,191.439,562.071,192.582,562.11,194.078z M556.95,218.619v-19.183h4.885v19.183H556.95z
			"/>
	</g>
	<g>
		<path class="st0" d="M580.74,218.028c-1.024,0.473-3.033,0.985-5.436,0.985c-5.987,0-9.887-3.821-9.887-9.769
			c0-5.751,3.939-10.241,10.675-10.241c1.773,0,3.585,0.394,4.688,0.906l-0.867,3.624c-0.788-0.354-1.93-0.748-3.663-0.748
			c-3.703,0-5.909,2.718-5.869,6.224c0,3.939,2.56,6.184,5.869,6.184c1.694,0,2.875-0.355,3.821-0.749L580.74,218.028z"/>
	</g>
	<g>
		<path class="st0" d="M587.001,210.386c0.118,3.466,2.836,4.963,5.909,4.963c2.245,0,3.86-0.316,5.318-0.867l0.709,3.349
			c-1.654,0.67-3.939,1.182-6.696,1.182c-6.224,0-9.887-3.821-9.887-9.691c0-5.317,3.23-10.32,9.375-10.32
			c6.224,0,8.272,5.121,8.272,9.336c0,0.906-0.079,1.615-0.157,2.048H587.001z M595.431,206.999
			c0.039-1.773-0.749-4.688-3.979-4.688c-2.993,0-4.254,2.718-4.451,4.688H595.431z"/>
	</g>
</g>
</svg>
