<?xml version="1.0" encoding="utf-8"?>
<!-- Generator: Adobe Illustrator 20.0.0, SVG Export Plug-In . SVG Version: 6.00 Build 0)  -->
<svg version="1.1" id="Layer_1" xmlns="http://www.w3.org/2000/svg" xmlns:xlink="http://www.w3.org/1999/xlink" x="0px" y="0px"
	 width="1205px" height="200px" viewBox="0 0 1205 200" style="enable-background:new 0 0 1205 200;" xml:space="preserve">
<style type="text/css">
	.st0{fill:#2B2B2B;}
</style>
<g id="1">
	<g>
		<polygon class="st0" points="985.641,96.184 983.069,96.184 983.069,43.28 885.234,43.28 885.234,96.184 882.661,96.184 
			882.661,40.706 985.641,40.706 		"/>
	</g>
	<g>
		<rect x="873.466" y="95.676" class="st0" width="121.372" height="61.183"/>
	</g>
	<g>
		<line class="st0" x1="921.245" y1="55.645" x2="971.934" y2="55.645"/>
		<rect x="921.245" y="54.357" class="st0" width="50.688" height="2.574"/>
	</g>
	<g>
		<line class="st0" x1="921.245" y1="69.658" x2="971.934" y2="69.658"/>
		<rect x="921.245" y="68.372" class="st0" width="50.688" height="2.572"/>
	</g>
	<g>
		<line class="st0" x1="921.245" y1="83.671" x2="971.934" y2="83.671"/>
		<rect x="921.245" y="82.384" class="st0" width="50.688" height="2.574"/>
	</g>
	<path class="st0" d="M112.628,58.699H73.165c-7.137,0-12.943,5.808-12.943,12.946v1.921l-10.345-7.31
		c-0.995-0.712-2.127-1.089-3.274-1.089c-1.355,0-2.61,0.526-3.528,1.48c-0.899,0.936-1.393,2.216-1.393,3.602v23.703h-16.74
		C17.805,93.951,12,99.759,12,106.894v39.461c0,7.138,5.805,12.946,12.941,12.946h39.464c7.137,0,12.943-5.808,12.943-12.946v-1.921
		l10.344,7.31c0.996,0.712,2.128,1.089,3.274,1.089c1.356,0,2.609-0.526,3.528-1.48c0.899-0.934,1.394-2.216,1.394-3.602v-23.703
		h16.739c7.136,0,12.942-5.808,12.942-12.943V71.645C125.57,64.507,119.764,58.699,112.628,58.699z M89.059,144.345l-13.155-9.298
		c-1.041-0.736-2.407-0.832-3.542-0.244c-1.134,0.587-1.845,1.757-1.845,3.033v8.52c0,3.371-2.742,6.115-6.112,6.115H24.941
		c-3.369,0-6.111-2.744-6.111-6.115v-39.461c0-3.369,2.741-6.112,6.111-6.112h39.464c3.369,0,6.112,2.742,6.112,6.112v8.246
		c0,1.277,0.712,2.449,1.848,3.036c1.135,0.587,2.503,0.492,3.544-0.249l13.15-9.329V144.345z"/>
	<g>
		<path class="st0" d="M461.093,138.724h-23.21v9.284h23.21V138.724L461.093,138.724z M450.068,145.009
			c-1.068,0-1.934-0.866-1.934-1.933c0-1.069,0.867-1.934,1.934-1.934c1.067,0,1.934,0.866,1.934,1.934
			C452.002,144.143,451.135,145.009,450.068,145.009z"/>
		<path class="st0" d="M492.04,138.724h-23.21v9.284h23.21V138.724L492.04,138.724z M481.015,145.009
			c-1.069,0-1.934-0.866-1.934-1.933c0-1.069,0.866-1.934,1.934-1.934c1.067,0,1.934,0.866,1.934,1.934
			C482.948,144.143,482.082,145.009,481.015,145.009z"/>
		<path class="st0" d="M492.04,121.704h-54.157v9.283h54.157V121.704L492.04,121.704z M463.994,127.988
			c-1.069,0-1.934-0.866-1.934-1.934c0-1.067,0.866-1.934,1.934-1.934c1.067,0,1.934,0.867,1.934,1.934
			C465.928,127.122,465.061,127.988,463.994,127.988z"/>
		<path class="st0" d="M499.776,158.838v-4.642v-4.641v-34.042h-69.63v34.042v4.641v4.644h4.642v-4.644h27.852v4.644h4.642v-4.644
			h27.852v4.644h4.642V158.838z M462.64,149.555h-26.305v-12.378h26.305V149.555L462.64,149.555z M493.587,149.555h-26.305v-12.378
			h26.305V149.555L493.587,149.555z M493.587,132.535h-57.252v-12.38h57.252V132.535L493.587,132.535z"/>
		<polygon class="st0" points="499.776,113.966 502.87,110.873 427.052,110.873 430.146,113.966 		"/>
		<polygon class="st0" points="456.451,101.588 456.451,106.23 447.166,106.23 447.166,109.324 482.755,109.324 482.755,106.23 
			473.471,106.23 473.471,101.588 		"/>
		<path class="st0" d="M493.587,70.641h-57.252v29.4h57.252V70.641L493.587,70.641z M488.944,95.399h-47.967V75.284h47.967V95.399z"
			/>
	</g>
	<g>
		<g>
			<path class="st0" d="M504.823,155.509c0,1.609,0.9,2.951,2.095,3.261c0.175,0.036,0.349,0.07,0.531,0.07h21.014
				c0.182,0,0.355-0.034,0.531-0.07c1.196-0.31,2.096-1.653,2.096-3.261c0-1.837-1.177-3.329-2.627-3.329h-7.005h-1.751h-3.502
				h-1.751h-7.004C505.999,152.18,504.823,153.672,504.823,155.509z"/>
			<polygon class="st0" points="532.21,16.726 529.53,16.726 528.9,16.726 527.687,16.726 508.225,16.726 507.012,16.726 
				506.38,16.726 503.701,16.726 497.281,53.852 538.631,53.852 			"/>
			<path class="st0" d="M522.334,72.722c0.484,0,0.876-0.498,0.876-1.11v-2.221v-2.219v-2.22c0-0.613-0.392-1.11-0.876-1.11
				c-0.483,0-0.875,0.498-0.875,1.11v2.22h-1.751v-11.1h-3.502v93.887h3.502V69.393h1.751v2.219
				C521.458,72.224,521.85,72.722,522.334,72.722z"/>
		</g>
	</g>
	<polygon class="st0" points="560.199,137.384 551.147,137.384 549.623,137.384 538.234,137.384 539.651,146.579 558.782,146.579 	
		"/>
	<polygon class="st0" points="561.616,128.19 558.071,128.19 556.332,128.19 554.93,128.19 554.102,128.19 553.395,128.19 
		552.434,128.19 551.559,128.19 551.553,128.19 550.648,128.19 548.008,128.19 547.217,128.19 545.648,128.19 544.484,128.19 
		542.947,128.19 536.817,128.19 537.998,135.852 548.637,135.852 551.838,135.852 560.435,135.852 	"/>
	<polygon class="st0" points="556.893,158.84 558.546,148.111 539.888,148.111 541.54,158.84 	"/>
	<path class="st0" d="M532.094,117.463l2.362,9.195h1.18h3.068h1.73h2.402h1.63h0.99h0.791h0.858h0.905h1.055h1.493h1.004h0.045
		h1.494h0.246h0.144h0.539h1.445h0.778h0.127h1.669h5.928l2.362-9.195h-7.849c0.469-4.353,1.384-8.906,3.076-12.795
		c0,0-0.852,1.091-1.872,3.669c0.434-4.636,0.111-7.505-0.049-8.526c1.059-3.829,2.446-7.557,4.267-10.819
		c0,0-6.622,6.678-9.509,28.47h-0.392c0.067-1.869,0.186-3.833,0.371-5.839c0.536-2.954,1.322-5.872,2.462-8.49
		c0,0-0.867,1.115-1.898,3.739c0.706-4.815,1.863-9.669,3.717-13.928c0,0-5.058,6.398-6.646,24.519h-1.529
		c-0.013-0.329-0.025-0.669-0.036-1.018c0.246-7.836,1.34-17.385,4.668-25.035c0,0-2.222,2.818-4.184,9.994
		c0.616-5.989,1.85-12.29,4.184-17.655c0,0-6.73,8.512-7.101,33.714h-0.861c-0.094-0.557-0.185-1.13-0.274-1.715
		c0.194-7.985,1.248-17.95,4.694-25.87c0,0-3.603,4.562-5.682,16.88c-0.408-6.173-0.247-12.883,1.212-18.937
		c0,0-4.285,8.363-2.32,28.394c-0.029,0.408-0.055,0.829-0.08,1.249h-0.799c-0.368-1.787-0.759-3.448-1.159-5.006
		c1.711-14.67,0.001-20.689,0.001-20.689c0.438,4.978,0.132,10.52-0.479,15.739c0.548-18.393-3.753-25.758-3.753-25.758
		c2.163,7.359,2.378,15.885,1.926,23.191c-3.414-9.371-6.871-12.421-6.871-12.421c3.048,4.8,5.121,10.796,6.533,16.609
		c-0.325,3.274-0.744,6.141-1.115,8.334H532.094L532.094,117.463z M559.553,100.155c-0.103,5.635-1.264,11.336-2.815,16.511
		C557.176,111.771,558.004,105.867,559.553,100.155z"/>
	<g>
		<line class="st0" x1="903.982" y1="52.219" x2="903.982" y2="85.958"/>
		<path class="st0" d="M909.925,70.298c-1.192-0.97-2.917-1.662-4.656-2.302V59.36c1.356,0.297,2.577,1.037,3.34,2.153l2.124-1.453
			c-1.235-1.806-3.265-2.949-5.463-3.293v-4.548h-2.574v4.514c-0.975,0.128-1.934,0.414-2.83,0.878
			c-1.96,1.012-3.308,2.833-3.606,4.87c-0.261,1.785,0.303,3.498,1.545,4.696c1.188,1.145,3.015,1.918,4.891,2.617v10.07
			c-1.997-0.237-3.884-1.134-4.924-2.526l-2.061,1.541c1.516,2.027,4.191,3.301,6.985,3.563v3.517h2.574V82.39
			c0.735-0.101,1.456-0.279,2.143-0.539c2.703-1.027,4.627-3.188,5.022-5.638C912.791,74.005,911.9,71.903,909.925,70.298z
			 M899.592,65.324c-0.639-0.615-0.925-1.517-0.785-2.471c0.177-1.219,1.015-2.323,2.24-2.957c0.526-0.271,1.083-0.456,1.65-0.565
			v7.705C901.419,66.53,900.271,65.98,899.592,65.324z M909.894,75.803c-0.249,1.545-1.55,2.94-3.395,3.641
			c-0.396,0.151-0.808,0.262-1.23,0.341v-9.04c1.209,0.469,2.32,0.97,3.033,1.55C909.55,73.31,910.101,74.523,909.894,75.803z"/>
	</g>
	<g>
		<polygon class="st0" points="984.65,92.809 994.838,92.809 989.119,81.848 984.65,81.848 		"/>
		<polygon class="st0" points="884.193,81.848 879.184,81.848 873.466,92.809 884.193,92.809 		"/>
	</g>
</g>
<g id="2">
	<path class="st0" d="M394.412,91.737l-12.164-12.159c-0.83-0.832-2.007-1.309-3.228-1.309h-0.001c-1.222,0-2.4,0.477-3.233,1.312
		c-1.773,1.781-1.772,4.679,0.004,6.459l4.365,4.365H358.01c-2.517,0-4.565,2.048-4.565,4.565c0,2.518,2.048,4.566,4.565,4.566
		h22.145l-4.363,4.361c-0.866,0.864-1.342,2.014-1.341,3.24c0.002,1.222,0.479,2.367,1.338,3.219
		c0.864,0.865,2.011,1.342,3.23,1.342c1.228,0,2.376-0.479,3.226-1.341l12.167-12.161c0.85-0.851,1.338-2.027,1.338-3.226
		C395.75,93.772,395.264,92.596,394.412,91.737z"/>
	<path class="st0" d="M835.412,91.737l-12.164-12.159c-0.83-0.832-2.007-1.309-3.228-1.309h-0.001c-1.222,0-2.399,0.477-3.233,1.312
		c-1.773,1.781-1.772,4.679,0.004,6.459l4.365,4.365H799.01c-2.517,0-4.565,2.048-4.565,4.565c0,2.518,2.048,4.566,4.565,4.566
		h22.145l-4.363,4.361c-0.866,0.864-1.342,2.014-1.341,3.24c0.002,1.222,0.479,2.367,1.338,3.219
		c0.864,0.865,2.011,1.342,3.23,1.342c1.228,0,2.376-0.479,3.226-1.341l12.167-12.161c0.85-0.851,1.338-2.027,1.338-3.226
		C836.75,93.772,836.264,92.596,835.412,91.737z"/>
	<g>
		<g>
			<path class="st0" d="M154.199,89.982c1.575,0.906,3.939,1.693,6.42,1.693c3.112,0,4.845-1.457,4.845-3.623
				c0-2.01-1.339-3.191-4.727-4.412c-4.372-1.576-7.169-3.9-7.169-7.721c0-4.333,3.624-7.642,9.375-7.642
				c2.875,0,5.003,0.63,6.382,1.339l-1.182,3.9c-0.945-0.512-2.797-1.26-5.278-1.26c-3.073,0-4.412,1.654-4.412,3.191
				c0,2.048,1.536,2.993,5.081,4.372c4.609,1.733,6.854,4.057,6.854,7.878c0,4.254-3.23,7.957-10.084,7.957
				c-2.797,0-5.712-0.788-7.169-1.655L154.199,89.982z"/>
		</g>
		<g>
			<path class="st0" d="M179.564,70.602v5.476h4.608V79.7h-4.608v8.469c0,2.323,0.63,3.545,2.482,3.545
				c0.827,0,1.457-0.118,1.891-0.236l0.079,3.703c-0.709,0.275-1.969,0.473-3.506,0.473c-1.773,0-3.27-0.591-4.175-1.576
				c-1.024-1.103-1.497-2.836-1.497-5.357V79.7h-2.757v-3.623h2.757v-4.333L179.564,70.602z"/>
		</g>
		<g>
			<path class="st0" d="M198.233,95.26l-0.315-2.127h-0.118c-1.182,1.497-3.191,2.56-5.672,2.56c-3.86,0-6.027-2.797-6.027-5.712
				c0-4.845,4.294-7.288,11.384-7.248v-0.315c0-1.26-0.512-3.349-3.9-3.349c-1.891,0-3.86,0.591-5.16,1.419l-0.945-3.151
				c1.418-0.867,3.9-1.694,6.933-1.694c6.145,0,7.918,3.899,7.918,8.075v6.933c0,1.733,0.079,3.427,0.275,4.608H198.233z
				 M197.602,85.885c-3.427-0.079-6.696,0.67-6.696,3.585c0,1.891,1.221,2.757,2.757,2.757c1.93,0,3.348-1.26,3.781-2.639
				c0.118-0.355,0.157-0.748,0.157-1.064V85.885z"/>
		</g>
		<g>
			<path class="st0" d="M207.053,82.261c0-2.6-0.039-4.451-0.157-6.184h4.215l0.158,3.663h0.157
				c0.945-2.718,3.191-4.096,5.239-4.096c0.472,0,0.748,0.039,1.142,0.118v4.569c-0.394-0.079-0.827-0.157-1.418-0.157
				c-2.324,0-3.9,1.497-4.333,3.663c-0.079,0.434-0.157,0.945-0.157,1.497v9.927h-4.845V82.261z"/>
		</g>
		<g>
			<path class="st0" d="M227.14,70.602v5.476h4.609V79.7h-4.609v8.469c0,2.323,0.63,3.545,2.482,3.545
				c0.827,0,1.457-0.118,1.891-0.236l0.079,3.703c-0.709,0.275-1.969,0.473-3.506,0.473c-1.773,0-3.269-0.591-4.175-1.576
				c-1.024-1.103-1.497-2.836-1.497-5.357V79.7h-2.757v-3.623h2.757v-4.333L227.14,70.602z"/>
		</g>
		<g>
			<path class="st0" d="M253.567,95.26l-0.316-2.127h-0.118c-1.182,1.497-3.191,2.56-5.672,2.56c-3.86,0-6.027-2.797-6.027-5.712
				c0-4.845,4.294-7.288,11.384-7.248v-0.315c0-1.26-0.512-3.349-3.899-3.349c-1.891,0-3.861,0.591-5.16,1.419l-0.945-3.151
				c1.418-0.867,3.9-1.694,6.933-1.694c6.145,0,7.917,3.899,7.917,8.075v6.933c0,1.733,0.079,3.427,0.276,4.608H253.567z
				 M252.936,85.885c-3.427-0.079-6.697,0.67-6.697,3.585c0,1.891,1.221,2.757,2.757,2.757c1.93,0,3.348-1.26,3.781-2.639
				c0.118-0.355,0.158-0.748,0.158-1.064V85.885z"/>
		</g>
		<g>
			<path class="st0" d="M158.563,113.672l3.112,9.729c0.552,1.694,0.945,3.23,1.3,4.806h0.118c0.355-1.576,0.788-3.073,1.3-4.806
				l3.033-9.729h5.121l-7.327,19.183h-4.766l-7.13-19.183H158.563z"/>
		</g>
		<g>
			<path class="st0" d="M180.264,108.314c0,1.457-1.064,2.6-2.757,2.6c-1.615,0-2.679-1.142-2.679-2.6
				c0-1.497,1.103-2.639,2.718-2.639C179.2,105.675,180.224,106.818,180.264,108.314z M175.103,132.855v-19.183h4.885v19.183
				H175.103z"/>
		</g>
		<g>
			<path class="st0" d="M202.478,104.888v22.57c0,1.97,0.079,4.097,0.158,5.397h-4.333l-0.197-3.033h-0.079
				c-1.142,2.128-3.466,3.467-6.263,3.467c-4.569,0-8.193-3.9-8.193-9.809c-0.039-6.42,3.979-10.241,8.587-10.241
				c2.639,0,4.53,1.103,5.396,2.521h0.079v-10.872H202.478z M197.633,121.667c0-0.393-0.039-0.866-0.118-1.26
				c-0.434-1.891-1.97-3.427-4.176-3.427c-3.111,0-4.845,2.757-4.845,6.342c0,3.505,1.733,6.066,4.806,6.066
				c1.97,0,3.703-1.339,4.175-3.427c0.118-0.434,0.158-0.906,0.158-1.418V121.667z"/>
		</g>
		<g>
			<path class="st0" d="M210.707,124.622c0.118,3.466,2.836,4.963,5.909,4.963c2.245,0,3.86-0.316,5.318-0.867l0.709,3.349
				c-1.654,0.67-3.939,1.182-6.696,1.182c-6.224,0-9.887-3.821-9.887-9.691c0-5.317,3.23-10.32,9.375-10.32
				c6.224,0,8.272,5.121,8.272,9.336c0,0.906-0.079,1.615-0.157,2.048H210.707z M219.137,121.235
				c0.039-1.773-0.749-4.688-3.979-4.688c-2.993,0-4.254,2.718-4.451,4.688H219.137z"/>
		</g>
		<g>
			<path class="st0" d="M245.446,123.085c0,7.052-4.963,10.203-9.848,10.203c-5.436,0-9.612-3.742-9.612-9.887
				c0-6.302,4.136-10.163,9.927-10.163C241.626,113.238,245.446,117.256,245.446,123.085z M230.99,123.283
				c0,3.703,1.812,6.499,4.766,6.499c2.757,0,4.688-2.718,4.688-6.578c0-2.994-1.339-6.421-4.648-6.421
				C232.369,116.783,230.99,120.092,230.99,123.283z"/>
		</g>
		<g>
			<path class="st0" d="M270.887,132.264c-1.024,0.473-3.033,0.985-5.436,0.985c-5.987,0-9.887-3.821-9.887-9.769
				c0-5.751,3.939-10.241,10.675-10.241c1.773,0,3.585,0.394,4.688,0.906l-0.867,3.624c-0.788-0.354-1.93-0.748-3.663-0.748
				c-3.703,0-5.909,2.718-5.869,6.224c0,3.939,2.56,6.184,5.869,6.184c1.694,0,2.875-0.355,3.821-0.749L270.887,132.264z"/>
		</g>
		<g>
			<path class="st0" d="M274.075,104.888h4.885v11.423h0.079c0.591-0.906,1.379-1.655,2.403-2.206
				c0.945-0.552,2.087-0.866,3.309-0.866c3.27,0,6.696,2.166,6.696,8.311v11.305h-4.845v-10.754c0-2.797-1.024-4.885-3.703-4.885
				c-1.891,0-3.23,1.26-3.742,2.719c-0.157,0.393-0.197,0.906-0.197,1.457v11.462h-4.885V104.888z"/>
		</g>
		<g>
			<path class="st0" d="M307.002,132.855l-0.316-2.127h-0.118c-1.182,1.497-3.191,2.56-5.672,2.56c-3.86,0-6.027-2.797-6.027-5.712
				c0-4.845,4.294-7.288,11.384-7.248v-0.315c0-1.26-0.512-3.349-3.899-3.349c-1.891,0-3.861,0.591-5.16,1.419l-0.945-3.151
				c1.418-0.867,3.9-1.694,6.933-1.694c6.145,0,7.917,3.899,7.917,8.075v6.933c0,1.733,0.079,3.427,0.276,4.608H307.002z
				 M306.372,123.479c-3.427-0.079-6.697,0.67-6.697,3.585c0,1.891,1.221,2.757,2.757,2.757c1.93,0,3.348-1.26,3.781-2.639
				c0.118-0.355,0.158-0.748,0.158-1.064V123.479z"/>
		</g>
		<g>
			<path class="st0" d="M321.14,108.196v5.476h4.608v3.623h-4.608v8.469c0,2.323,0.63,3.545,2.482,3.545
				c0.827,0,1.457-0.118,1.891-0.236l0.079,3.703c-0.709,0.275-1.969,0.473-3.506,0.473c-1.773,0-3.27-0.591-4.175-1.576
				c-1.024-1.103-1.497-2.836-1.497-5.357v-9.021h-2.757v-3.623h2.757v-4.333L321.14,108.196z"/>
		</g>
	</g>
	<g>
		<g>
			<path class="st0" d="M594.894,90.065c1.575,0.906,3.939,1.693,6.42,1.693c3.112,0,4.845-1.457,4.845-3.623
				c0-2.01-1.339-3.191-4.727-4.412c-4.372-1.576-7.169-3.9-7.169-7.721c0-4.333,3.624-7.642,9.375-7.642
				c2.875,0,5.003,0.63,6.382,1.339l-1.182,3.9c-0.945-0.512-2.797-1.26-5.278-1.26c-3.073,0-4.412,1.654-4.412,3.191
				c0,2.048,1.536,2.993,5.081,4.372c4.609,1.733,6.854,4.057,6.854,7.878c0,4.254-3.23,7.957-10.084,7.957
				c-2.797,0-5.712-0.788-7.169-1.655L594.894,90.065z"/>
		</g>
		<g>
			<path class="st0" d="M614.744,67.376h4.885v11.423h0.079c0.591-0.906,1.379-1.655,2.403-2.206
				c0.945-0.552,2.087-0.866,3.309-0.866c3.27,0,6.696,2.166,6.696,8.311v11.305h-4.845V84.59c0-2.797-1.024-4.885-3.703-4.885
				c-1.891,0-3.23,1.26-3.742,2.719c-0.157,0.393-0.197,0.906-0.197,1.457v11.462h-4.885V67.376z"/>
		</g>
		<g>
			<path class="st0" d="M655.115,85.574c0,7.052-4.963,10.203-9.847,10.203c-5.436,0-9.612-3.742-9.612-9.887
				c0-6.302,4.136-10.163,9.927-10.163C651.295,75.727,655.115,79.744,655.115,85.574z M640.659,85.771
				c0,3.703,1.812,6.499,4.766,6.499c2.757,0,4.688-2.718,4.688-6.578c0-2.994-1.339-6.421-4.648-6.421
				C642.038,79.271,640.659,82.581,640.659,85.771z"/>
		</g>
		<g>
			<path class="st0" d="M661.297,76.16l2.009,8.705c0.433,2.049,0.867,4.136,1.221,6.224h0.079c0.394-2.087,1.024-4.214,1.576-6.184
				l2.482-8.744h3.939l2.403,8.508c0.591,2.246,1.103,4.333,1.536,6.42h0.079c0.315-2.087,0.748-4.175,1.26-6.42l2.127-8.508h4.766
				l-6.027,19.183h-4.49l-2.285-7.799c-0.591-2.01-1.024-3.821-1.457-6.145h-0.079c-0.394,2.364-0.906,4.254-1.457,6.145
				l-2.442,7.799h-4.53l-5.672-19.183H661.297z"/>
		</g>
		<g>
			<path class="st0" d="M712.42,89.592c0,2.284,0.079,4.176,0.157,5.751h-4.254l-0.236-2.915h-0.079
				c-0.827,1.379-2.718,3.349-6.145,3.349c-3.506,0-6.696-2.088-6.696-8.351V76.16h4.845v10.438c0,3.191,1.024,5.239,3.585,5.239
				c1.93,0,3.191-1.379,3.702-2.6c0.158-0.433,0.276-0.945,0.276-1.497V76.16h4.845V89.592z"/>
		</g>
		<g>
			<path class="st0" d="M717.024,90.892c1.103,0.67,3.191,1.379,4.924,1.379c2.127,0,3.073-0.866,3.073-2.127
				c0-1.3-0.788-1.969-3.151-2.797c-3.742-1.3-5.318-3.348-5.278-5.594c0-3.387,2.797-6.026,7.248-6.026
				c2.127,0,3.979,0.552,5.081,1.142l-0.945,3.427c-0.827-0.473-2.363-1.103-4.057-1.103c-1.733,0-2.678,0.828-2.678,2.01
				c0,1.221,0.906,1.811,3.348,2.678c3.467,1.26,5.082,3.033,5.121,5.869c0,3.467-2.718,5.988-7.799,5.988
				c-2.324,0-4.412-0.552-5.83-1.34L717.024,90.892z"/>
		</g>
		<g>
			<path class="st0" d="M597.039,113.755l3.466,10.281c0.394,1.182,0.788,2.639,1.063,3.742h0.118
				c0.315-1.103,0.67-2.521,1.024-3.781l2.993-10.241h5.2l-4.806,13.077c-2.639,7.17-4.412,10.36-6.697,12.33
				c-1.891,1.694-3.86,2.324-5.081,2.482l-1.103-4.097c0.827-0.197,1.851-0.63,2.836-1.339c0.906-0.591,1.969-1.733,2.639-3.033
				c0.197-0.354,0.315-0.63,0.315-0.866c0-0.197-0.039-0.473-0.276-0.945l-7.011-17.608H597.039z"/>
		</g>
		<g>
			<path class="st0" d="M631.031,123.168c0,7.052-4.963,10.203-9.847,10.203c-5.436,0-9.612-3.742-9.612-9.887
				c0-6.302,4.136-10.163,9.927-10.163C627.211,113.321,631.031,117.339,631.031,123.168z M616.575,123.366
				c0,3.703,1.812,6.499,4.766,6.499c2.757,0,4.688-2.718,4.688-6.578c0-2.994-1.339-6.421-4.648-6.421
				C617.954,116.866,616.575,120.175,616.575,123.366z"/>
		</g>
		<g>
			<path class="st0" d="M651.787,127.187c0,2.284,0.079,4.176,0.157,5.751h-4.254l-0.236-2.915h-0.079
				c-0.827,1.379-2.718,3.349-6.145,3.349c-3.506,0-6.696-2.088-6.696-8.351v-11.265h4.845v10.438c0,3.191,1.024,5.239,3.585,5.239
				c1.93,0,3.191-1.378,3.702-2.6c0.158-0.433,0.276-0.945,0.276-1.497v-11.58h4.845V127.187z"/>
		</g>
		<g>
			<path class="st0" d="M656.628,119.938c0-2.6-0.039-4.451-0.157-6.184h4.215l0.158,3.663H661c0.945-2.718,3.191-4.096,5.239-4.096
				c0.472,0,0.748,0.039,1.142,0.118v4.569c-0.394-0.079-0.827-0.157-1.418-0.157c-2.324,0-3.9,1.497-4.333,3.663
				c-0.079,0.434-0.157,0.945-0.157,1.497v9.927h-4.845V119.938z"/>
		</g>
		<g>
			<path class="st0" d="M683.173,108.397c0,1.457-1.064,2.6-2.757,2.6c-1.615,0-2.679-1.142-2.679-2.6
				c0-1.497,1.103-2.639,2.718-2.639C682.109,105.758,683.134,106.901,683.173,108.397z M678.013,132.938v-19.183h4.885v19.183
				H678.013z"/>
		</g>
		<g>
			<path class="st0" d="M693.255,108.279v5.476h4.608v3.623h-4.608v8.469c0,2.323,0.63,3.545,2.482,3.545
				c0.827,0,1.457-0.118,1.891-0.236l0.079,3.703c-0.709,0.275-1.969,0.473-3.506,0.473c-1.773,0-3.27-0.591-4.175-1.576
				c-1.024-1.103-1.497-2.836-1.497-5.357v-9.021h-2.757v-3.623h2.757v-4.333L693.255,108.279z"/>
		</g>
		<g>
			<path class="st0" d="M704.322,124.705c0.118,3.466,2.836,4.963,5.909,4.963c2.245,0,3.86-0.316,5.318-0.867l0.709,3.349
				c-1.654,0.67-3.939,1.182-6.696,1.182c-6.224,0-9.887-3.821-9.887-9.691c0-5.317,3.23-10.32,9.375-10.32
				c6.224,0,8.272,5.121,8.272,9.336c0,0.906-0.079,1.615-0.157,2.048H704.322z M712.752,121.318
				c0.039-1.773-0.748-4.688-3.979-4.688c-2.993,0-4.254,2.718-4.451,4.688H712.752z"/>
		</g>
		<g>
			<path class="st0" d="M720.823,119.466c0-2.206-0.039-4.058-0.157-5.712h4.175l0.197,2.836h0.118
				c0.945-1.497,2.679-3.269,5.909-3.269c2.521,0,4.49,1.418,5.318,3.545h0.079c0.67-1.063,1.458-1.851,2.363-2.402
				c1.064-0.748,2.285-1.142,3.861-1.142c3.191,0,6.42,2.166,6.42,8.311v11.305h-4.727v-10.596c0-3.191-1.103-5.081-3.427-5.081
				c-1.654,0-2.875,1.182-3.388,2.56c-0.118,0.473-0.236,1.064-0.236,1.615v11.502h-4.727v-11.108c0-2.678-1.064-4.569-3.309-4.569
				c-1.812,0-3.033,1.418-3.466,2.758c-0.197,0.472-0.276,1.024-0.276,1.575v11.344h-4.727V119.466z"/>
		</g>
		<g>
			<path class="st0" d="M753.591,128.487c1.103,0.67,3.191,1.379,4.924,1.379c2.127,0,3.073-0.866,3.073-2.127
				c0-1.3-0.788-1.969-3.151-2.797c-3.742-1.3-5.318-3.348-5.278-5.594c0-3.387,2.797-6.026,7.248-6.026
				c2.127,0,3.979,0.552,5.081,1.142l-0.945,3.427c-0.827-0.473-2.363-1.103-4.057-1.103c-1.733,0-2.678,0.828-2.678,2.01
				c0,1.221,0.906,1.811,3.348,2.678c3.466,1.26,5.081,3.033,5.121,5.869c0,3.467-2.718,5.988-7.799,5.988
				c-2.324,0-4.412-0.552-5.83-1.34L753.591,128.487z"/>
		</g>
	</g>
	<g>
		<g>
			<path class="st0" d="M1044.258,118.767c-1.694,0.63-5.002,1.497-8.548,1.497c-4.49,0-7.878-1.142-10.399-3.545
				c-2.363-2.246-3.742-5.751-3.702-9.769c0-8.39,5.987-13.787,14.771-13.787c3.27,0,5.83,0.67,7.051,1.26l-1.064,3.9
				c-1.457-0.63-3.23-1.142-6.027-1.142c-5.672,0-9.65,3.348-9.65,9.532c0,6.026,3.702,9.611,9.217,9.611
				c1.733,0,3.033-0.236,3.663-0.552v-6.617h-4.687v-3.821h9.375V118.767z"/>
		</g>
		<g>
			<path class="st0" d="M1052.289,111.756c0.118,3.466,2.836,4.963,5.909,4.963c2.245,0,3.86-0.316,5.318-0.867l0.709,3.349
				c-1.654,0.67-3.939,1.182-6.696,1.182c-6.224,0-9.887-3.821-9.887-9.691c0-5.317,3.23-10.32,9.375-10.32
				c6.224,0,8.272,5.121,8.272,9.336c0,0.906-0.079,1.615-0.157,2.048H1052.289z M1060.719,108.368
				c0.039-1.773-0.749-4.688-3.979-4.688c-2.994,0-4.254,2.718-4.451,4.688H1060.719z"/>
		</g>
		<g>
			<path class="st0" d="M1074.345,95.33v5.476h4.609v3.623h-4.609v8.469c0,2.323,0.63,3.545,2.482,3.545
				c0.827,0,1.457-0.118,1.891-0.236l0.079,3.703c-0.709,0.275-1.969,0.473-3.506,0.473c-1.773,0-3.269-0.591-4.175-1.576
				c-1.025-1.103-1.497-2.836-1.497-5.357v-9.021h-2.757v-3.623h2.757v-4.333L1074.345,95.33z"/>
		</g>
		<g>
			<path class="st0" d="M1100.772,119.988l-0.315-2.127h-0.118c-1.182,1.497-3.191,2.56-5.672,2.56c-3.86,0-6.027-2.797-6.027-5.712
				c0-4.845,4.294-7.288,11.384-7.248v-0.315c0-1.26-0.512-3.349-3.9-3.349c-1.891,0-3.86,0.591-5.16,1.419l-0.945-3.151
				c1.418-0.867,3.9-1.694,6.933-1.694c6.145,0,7.918,3.899,7.918,8.075v6.933c0,1.733,0.079,3.427,0.275,4.608H1100.772z
				 M1100.142,110.613c-3.427-0.079-6.696,0.67-6.696,3.585c0,1.891,1.221,2.757,2.757,2.757c1.93,0,3.348-1.26,3.781-2.639
				c0.118-0.355,0.157-0.748,0.157-1.064V110.613z"/>
		</g>
		<g>
			<path class="st0" d="M1117.351,107.187c0-2.521-0.079-4.57-0.157-6.381h4.254l0.236,2.954h0.079
				c1.418-2.166,3.663-3.387,6.578-3.387c4.412,0,8.075,3.781,8.075,9.768c0,6.933-4.372,10.282-8.745,10.282
				c-2.403,0-4.412-1.024-5.396-2.56h-0.079v9.926h-4.845V107.187z M1122.196,111.952c0,0.473,0.039,0.906,0.157,1.339
				c0.473,1.969,2.206,3.388,4.254,3.388c3.072,0,4.884-2.56,4.884-6.342c0-3.388-1.654-6.145-4.766-6.145
				c-2.009,0-3.86,1.457-4.333,3.585c-0.118,0.393-0.197,0.827-0.197,1.221V111.952z"/>
		</g>
		<g>
			<path class="st0" d="M1139.997,106.989c0-2.6-0.039-4.451-0.157-6.184h4.215l0.158,3.663h0.157
				c0.945-2.718,3.191-4.096,5.239-4.096c0.473,0,0.748,0.039,1.142,0.118v4.569c-0.394-0.079-0.827-0.157-1.418-0.157
				c-2.324,0-3.9,1.497-4.333,3.663c-0.079,0.434-0.157,0.945-0.157,1.497v9.927h-4.845V106.989z"/>
		</g>
		<g>
			<path class="st0" d="M1158.784,95.448c0,1.457-1.064,2.6-2.757,2.6c-1.615,0-2.679-1.142-2.679-2.6
				c0-1.497,1.103-2.639,2.718-2.639C1157.72,92.809,1158.745,93.951,1158.784,95.448z M1153.624,119.988v-19.183h4.885v19.183
				H1153.624z"/>
		</g>
		<g>
			<path class="st0" d="M1177.414,119.397c-1.024,0.473-3.033,0.985-5.436,0.985c-5.987,0-9.887-3.821-9.887-9.769
				c0-5.751,3.939-10.241,10.675-10.241c1.773,0,3.585,0.394,4.688,0.906l-0.867,3.624c-0.788-0.354-1.93-0.748-3.663-0.748
				c-3.703,0-5.909,2.718-5.869,6.224c0,3.939,2.56,6.184,5.869,6.184c1.694,0,2.875-0.355,3.821-0.749L1177.414,119.397z"/>
		</g>
		<g>
			<path class="st0" d="M1183.675,111.756c0.118,3.466,2.836,4.963,5.909,4.963c2.245,0,3.86-0.316,5.318-0.867l0.709,3.349
				c-1.654,0.67-3.939,1.182-6.696,1.182c-6.224,0-9.887-3.821-9.887-9.691c0-5.317,3.23-10.32,9.375-10.32
				c6.224,0,8.272,5.121,8.272,9.336c0,0.906-0.079,1.615-0.157,2.048H1183.675z M1192.104,108.368
				c0.039-1.773-0.749-4.688-3.979-4.688c-2.994,0-4.254,2.718-4.451,4.688H1192.104z"/>
		</g>
	</g>
</g>
</svg>
