<?xml version="1.0" encoding="utf-8"?>
<!-- Generator: Adobe Illustrator 20.0.0, SVG Export Plug-In . SVG Version: 6.00 Build 0)  -->
<svg version="1.1" id="Layer_1" xmlns="http://www.w3.org/2000/svg" xmlns:xlink="http://www.w3.org/1999/xlink" x="0px" y="0px"
	 width="1205px" height="200px" viewBox="0 0 1205 200" style="enable-background:new 0 0 1205 200;" xml:space="preserve">
<style type="text/css">
	.st0{fill:#2B2B2B;}
</style>
<g>
	<path class="st0" d="M122.102,54.692H45.667c-1.113,0-2.016,0.902-2.016,2.018v11.894h44.044c3.561,0,6.457,2.896,6.457,6.455
		v35.652l19.795,14.874c3.457,2.599,5.077,1.4,3.599-2.666l-6.696-18.414h11.252c1.115,0,2.017-0.902,2.017-2.016V56.709
		C124.12,55.594,123.217,54.692,122.102,54.692z"/>
	<path class="st0" d="M87.696,73.042H11.26c-1.113,0-2.017,0.904-2.017,2.016v45.779c0,1.113,0.904,2.018,2.017,2.018h11.25
		l-6.694,18.413c-0.949,2.61-0.621,4.04,0.653,4.04c0.708,0,1.708-0.443,2.946-1.373l28.054-21.079h40.227
		c1.113,0,2.016-0.905,2.016-2.018V75.058C89.711,73.946,88.809,73.042,87.696,73.042z M50.314,79.619
		c4.544,0,8.227,3.683,8.227,8.227s-3.683,8.227-8.227,8.227s-8.227-3.683-8.227-8.227S45.77,79.619,50.314,79.619z M66.594,115.204
		H34.818v-12.797c0-2.452,3.205-4.591,7.963-5.734c2.117,1.54,4.715,2.459,7.532,2.459c2.902,0,5.569-0.973,7.72-2.596
		c5.086,1.103,8.561,3.316,8.561,5.871V115.204z"/>
	<g>
		<path class="st0" d="M471.531,41.165l9.949,1.213h42.469v9.95h-45.017v-7.766l-30.334-4.49v114.427l30.334-8.859V54.755h7.522
			v10.193c-1.455,0.485-2.546,1.941-2.546,3.519v47.567c0,2.063,1.698,3.76,3.76,3.76c2.064,0,3.762-1.698,3.762-3.76V68.588
			c0-1.578-1.091-3.034-2.547-3.519V54.877h9.949V65.07c-1.456,0.484-2.549,1.941-2.549,3.519v54.968
			c0,2.063,1.699,3.762,3.762,3.762c2.064,0,3.762-1.699,3.762-3.762V68.588c0-1.578-1.091-3.034-2.549-3.519V54.877h9.951V65.07
			c-1.455,0.484-2.548,1.941-2.548,3.519v54.968c0,2.063,1.698,3.762,3.762,3.762c2.063,0,3.762-1.699,3.762-3.762V68.588
			c0-1.578-1.093-3.034-2.549-3.519V54.877h9.951v92.464h-42.471l-9.951,2.669v14.805h7.524v-7.523h45.018v7.523h7.525v-7.523
			h45.018v7.523h7.523V34.733H471.531V41.165z M531.475,42.256h42.471v104.963h-42.471V42.256z"/>
		<path class="st0" d="M534.022,144.792h37.496V44.804h-37.496V144.792z M541.183,88.731c1.699,0,3.155,1.456,3.155,3.155
			c0,1.699-1.456,3.155-3.155,3.155s-3.155-1.456-3.155-3.155C538.027,90.066,539.483,88.731,541.183,88.731z"/>
		<polygon class="st0" points="471.531,32.307 584.017,32.307 588.992,27.331 466.435,27.331 		"/>
	</g>
	<path class="st0" d="M978.275,36.491h-57.906c-7.57,0-13.764,6.821-13.764,15.158v80.475c0,8.337,6.193,15.158,13.764,15.158
		h57.906c7.57,0,13.765-6.821,13.765-15.158V51.648C992.04,43.312,985.846,36.491,978.275,36.491z M947.498,68.24
		c-3.582-1.327-6.026-3.171-6.026-6.747c0-3.245,2.077-5.789,5.66-6.563v-3.502h3.28v3.245c2.243,0.111,3.749,0.626,4.855,1.216
		l-0.971,4.166c-0.87-0.406-2.411-1.254-4.822-1.254c-2.175,0-2.877,1.033-2.877,2.065c0,1.217,1.172,1.992,4.017,3.17
		c3.984,1.549,5.591,3.577,5.591,6.894c0,3.282-2.108,6.084-5.959,6.821v3.76h-3.28v-3.503c-2.246-0.109-4.421-0.774-5.692-1.584
		l1.005-4.313c1.406,0.848,3.381,1.622,5.556,1.622c1.909,0,3.214-0.812,3.214-2.287C951.048,70.047,949.977,69.162,947.498,68.24z
		 M980.048,129.98h-61.451v-5.117h61.451V129.98z M980.048,112.787h-61.451v-5.117h61.451V112.787z M980.048,95.912h-61.451v-5.117
		h61.451V95.912z"/>
</g>
<g>
	<path class="st0" d="M406.859,91.966l-12.165-12.16c-0.746-0.747-1.807-1.177-2.911-1.177h-0.001c-1.104,0-2.166,0.429-2.916,1.18
		c-1.601,1.608-1.599,4.222,0.004,5.827l5.13,5.129h-23.227c-2.271,0-4.118,1.847-4.118,4.117c0,2.271,1.847,4.119,4.118,4.119H394
		l-5.128,5.126c-0.781,0.779-1.211,1.816-1.209,2.922c0.002,1.101,0.431,2.134,1.207,2.903c0.779,0.781,1.814,1.211,2.914,1.211
		c1.108,0,2.143-0.431,2.91-1.21l12.167-12.161c0.767-0.767,1.207-1.829,1.207-2.91C408.066,93.802,407.628,92.74,406.859,91.966z"
		/>
	<g>
		<g>
			<path class="st0" d="M153.566,85.272c1.575,0.906,3.939,1.693,6.42,1.693c3.112,0,4.845-1.457,4.845-3.623
				c0-2.01-1.339-3.191-4.727-4.412c-4.372-1.576-7.169-3.9-7.169-7.721c0-4.333,3.624-7.642,9.375-7.642
				c2.875,0,5.003,0.63,6.382,1.339l-1.182,3.9c-0.945-0.512-2.797-1.26-5.278-1.26c-3.073,0-4.412,1.654-4.412,3.191
				c0,2.048,1.536,2.993,5.081,4.372c4.609,1.733,6.854,4.057,6.854,7.878c0,4.254-3.23,7.957-10.084,7.957
				c-2.797,0-5.712-0.788-7.169-1.655L153.566,85.272z"/>
		</g>
		<g>
			<path class="st0" d="M178.931,65.892v5.476h4.608v3.623h-4.608v8.469c0,2.323,0.63,3.545,2.482,3.545
				c0.827,0,1.457-0.118,1.891-0.236l0.079,3.703c-0.709,0.275-1.969,0.473-3.506,0.473c-1.773,0-3.27-0.591-4.175-1.576
				c-1.024-1.103-1.497-2.836-1.497-5.357V74.99h-2.757v-3.623h2.757v-4.333L178.931,65.892z"/>
		</g>
		<g>
			<path class="st0" d="M197.599,90.55l-0.315-2.127h-0.118c-1.182,1.497-3.191,2.56-5.672,2.56c-3.86,0-6.027-2.797-6.027-5.712
				c0-4.845,4.294-7.288,11.384-7.248v-0.315c0-1.26-0.512-3.349-3.899-3.349c-1.891,0-3.86,0.591-5.16,1.419l-0.945-3.151
				c1.418-0.867,3.9-1.694,6.933-1.694c6.145,0,7.918,3.899,7.918,8.075v6.933c0,1.733,0.079,3.427,0.275,4.608H197.599z
				 M196.969,81.175c-3.427-0.079-6.696,0.67-6.696,3.585c0,1.891,1.221,2.757,2.757,2.757c1.93,0,3.348-1.26,3.781-2.639
				c0.118-0.355,0.157-0.748,0.157-1.064V81.175z"/>
		</g>
		<g>
			<path class="st0" d="M206.42,77.551c0-2.6-0.039-4.451-0.157-6.184h4.215l0.158,3.663h0.157c0.945-2.718,3.191-4.096,5.239-4.096
				c0.472,0,0.748,0.039,1.142,0.118v4.569c-0.394-0.079-0.827-0.157-1.418-0.157c-2.324,0-3.9,1.497-4.333,3.663
				c-0.079,0.434-0.157,0.945-0.157,1.497v9.927h-4.845V77.551z"/>
		</g>
		<g>
			<path class="st0" d="M226.506,65.892v5.476h4.609v3.623h-4.609v8.469c0,2.323,0.63,3.545,2.482,3.545
				c0.827,0,1.457-0.118,1.891-0.236l0.079,3.703c-0.709,0.275-1.969,0.473-3.506,0.473c-1.773,0-3.269-0.591-4.175-1.576
				c-1.024-1.103-1.497-2.836-1.497-5.357V74.99h-2.757v-3.623h2.757v-4.333L226.506,65.892z"/>
		</g>
		<g>
			<path class="st0" d="M252.934,90.55l-0.316-2.127H252.5c-1.182,1.497-3.191,2.56-5.672,2.56c-3.86,0-6.027-2.797-6.027-5.712
				c0-4.845,4.294-7.288,11.384-7.248v-0.315c0-1.26-0.512-3.349-3.899-3.349c-1.891,0-3.861,0.591-5.16,1.419l-0.945-3.151
				c1.418-0.867,3.9-1.694,6.933-1.694c6.145,0,7.917,3.899,7.917,8.075v6.933c0,1.733,0.079,3.427,0.276,4.608H252.934z
				 M252.303,81.175c-3.427-0.079-6.697,0.67-6.697,3.585c0,1.891,1.221,2.757,2.757,2.757c1.93,0,3.348-1.26,3.781-2.639
				c0.118-0.355,0.158-0.748,0.158-1.064V81.175z"/>
		</g>
		<g>
			<path class="st0" d="M155.929,108.962l3.112,9.729c0.552,1.694,0.945,3.23,1.3,4.806h0.118c0.355-1.576,0.788-3.073,1.3-4.806
				l3.033-9.729h5.121l-7.327,19.183h-4.766l-7.13-19.183H155.929z"/>
		</g>
		<g>
			<path class="st0" d="M177.631,103.604c0,1.457-1.064,2.6-2.757,2.6c-1.615,0-2.679-1.142-2.679-2.6
				c0-1.497,1.103-2.639,2.718-2.639C176.567,100.965,177.591,102.108,177.631,103.604z M172.47,128.145v-19.183h4.885v19.183
				H172.47z"/>
		</g>
		<g>
			<path class="st0" d="M199.845,100.178v22.57c0,1.97,0.079,4.097,0.158,5.397h-4.333l-0.197-3.033h-0.079
				c-1.142,2.128-3.466,3.467-6.263,3.467c-4.569,0-8.193-3.9-8.193-9.809c-0.039-6.42,3.979-10.241,8.587-10.241
				c2.639,0,4.53,1.103,5.396,2.521H195v-10.872H199.845z M195,116.957c0-0.393-0.039-0.866-0.118-1.26
				c-0.434-1.891-1.97-3.427-4.176-3.427c-3.111,0-4.845,2.757-4.845,6.342c0,3.505,1.733,6.066,4.806,6.066
				c1.97,0,3.703-1.339,4.175-3.427c0.118-0.434,0.158-0.906,0.158-1.418V116.957z"/>
		</g>
		<g>
			<path class="st0" d="M208.074,119.912c0.118,3.466,2.836,4.963,5.909,4.963c2.245,0,3.86-0.316,5.318-0.867l0.709,3.349
				c-1.654,0.67-3.939,1.182-6.696,1.182c-6.224,0-9.887-3.821-9.887-9.691c0-5.317,3.23-10.32,9.375-10.32
				c6.224,0,8.272,5.121,8.272,9.336c0,0.906-0.079,1.615-0.157,2.048H208.074z M216.504,116.525
				c0.039-1.773-0.749-4.688-3.979-4.688c-2.993,0-4.254,2.718-4.451,4.688H216.504z"/>
		</g>
		<g>
			<path class="st0" d="M242.813,118.375c0,7.052-4.963,10.203-9.848,10.203c-5.436,0-9.611-3.742-9.611-9.887
				c0-6.302,4.136-10.163,9.927-10.163C238.992,108.528,242.813,112.546,242.813,118.375z M228.357,118.573
				c0,3.703,1.812,6.499,4.766,6.499c2.757,0,4.688-2.718,4.688-6.578c0-2.994-1.339-6.421-4.648-6.421
				C229.736,112.073,228.357,115.382,228.357,118.573z"/>
		</g>
		<g>
			<path class="st0" d="M268.254,127.554c-1.024,0.473-3.033,0.985-5.436,0.985c-5.987,0-9.887-3.821-9.887-9.769
				c0-5.751,3.939-10.241,10.675-10.241c1.773,0,3.585,0.394,4.688,0.906l-0.867,3.624c-0.788-0.354-1.93-0.748-3.663-0.748
				c-3.703,0-5.909,2.718-5.869,6.224c0,3.939,2.56,6.184,5.869,6.184c1.694,0,2.875-0.355,3.821-0.749L268.254,127.554z"/>
		</g>
		<g>
			<path class="st0" d="M271.442,100.178h4.885v11.423h0.079c0.591-0.906,1.379-1.655,2.403-2.206
				c0.945-0.552,2.087-0.866,3.309-0.866c3.27,0,6.696,2.166,6.696,8.311v11.305h-4.845v-10.754c0-2.797-1.024-4.885-3.703-4.885
				c-1.891,0-3.23,1.26-3.742,2.719c-0.157,0.393-0.197,0.906-0.197,1.457v11.462h-4.885V100.178z"/>
		</g>
		<g>
			<path class="st0" d="M304.369,128.145l-0.316-2.127h-0.118c-1.182,1.497-3.191,2.56-5.672,2.56c-3.86,0-6.027-2.797-6.027-5.712
				c0-4.845,4.294-7.288,11.384-7.248v-0.315c0-1.26-0.512-3.349-3.899-3.349c-1.891,0-3.861,0.591-5.16,1.419l-0.945-3.151
				c1.418-0.867,3.9-1.694,6.933-1.694c6.145,0,7.917,3.899,7.917,8.075v6.933c0,1.733,0.079,3.427,0.276,4.608H304.369z
				 M303.739,118.77c-3.427-0.079-6.697,0.67-6.697,3.585c0,1.891,1.221,2.757,2.757,2.757c1.93,0,3.348-1.26,3.781-2.639
				c0.118-0.355,0.158-0.748,0.158-1.064V118.77z"/>
		</g>
		<g>
			<path class="st0" d="M318.507,103.486v5.476h4.608v3.623h-4.608v8.469c0,2.323,0.63,3.545,2.482,3.545
				c0.827,0,1.457-0.118,1.891-0.236l0.079,3.703c-0.709,0.275-1.969,0.473-3.506,0.473c-1.773,0-3.27-0.591-4.175-1.576
				c-1.024-1.103-1.497-2.836-1.497-5.357v-9.021h-2.757v-3.623h2.757v-4.333L318.507,103.486z"/>
		</g>
	</g>
	<g>
		<g>
			<path class="st0" d="M609.968,80.597c1.575,0.906,3.939,1.693,6.42,1.693c3.112,0,4.845-1.457,4.845-3.623
				c0-2.01-1.339-3.191-4.727-4.412c-4.372-1.576-7.169-3.9-7.169-7.721c0-4.333,3.624-7.642,9.375-7.642
				c2.875,0,5.003,0.63,6.382,1.339l-1.182,3.9c-0.945-0.512-2.797-1.26-5.278-1.26c-3.073,0-4.412,1.654-4.412,3.191
				c0,2.048,1.536,2.993,5.081,4.372c4.609,1.733,6.854,4.057,6.854,7.878c0,4.254-3.23,7.957-10.084,7.957
				c-2.797,0-5.712-0.788-7.169-1.655L609.968,80.597z"/>
		</g>
		<g>
			<path class="st0" d="M629.818,57.908h4.885v11.423h0.079c0.591-0.906,1.379-1.655,2.403-2.206
				c0.945-0.552,2.087-0.866,3.309-0.866c3.27,0,6.696,2.166,6.696,8.311v11.305h-4.845V75.121c0-2.797-1.024-4.885-3.703-4.885
				c-1.891,0-3.23,1.26-3.742,2.719c-0.157,0.393-0.197,0.906-0.197,1.457v11.462h-4.885V57.908z"/>
		</g>
		<g>
			<path class="st0" d="M670.19,76.105c0,7.052-4.963,10.203-9.848,10.203c-5.436,0-9.611-3.742-9.611-9.887
				c0-6.302,4.136-10.163,9.927-10.163C666.369,66.258,670.19,70.276,670.19,76.105z M655.733,76.303
				c0,3.703,1.812,6.499,4.766,6.499c2.757,0,4.688-2.718,4.688-6.578c0-2.994-1.339-6.421-4.648-6.421
				C657.112,69.803,655.733,73.112,655.733,76.303z"/>
		</g>
		<g>
			<path class="st0" d="M676.372,66.692l2.009,8.705c0.433,2.049,0.867,4.136,1.221,6.224h0.079
				c0.394-2.087,1.024-4.214,1.576-6.184l2.482-8.744h3.939l2.403,8.508c0.591,2.246,1.103,4.333,1.536,6.42h0.079
				c0.315-2.087,0.748-4.175,1.26-6.42l2.127-8.508h4.766l-6.027,19.183h-4.49l-2.285-7.799c-0.591-2.01-1.024-3.821-1.457-6.145
				h-0.079c-0.394,2.364-0.906,4.254-1.457,6.145l-2.442,7.799h-4.53l-5.672-19.183H676.372z"/>
		</g>
		<g>
			<path class="st0" d="M727.494,80.124c0,2.284,0.079,4.176,0.157,5.751h-4.254l-0.236-2.915h-0.079
				c-0.827,1.379-2.718,3.349-6.145,3.349c-3.506,0-6.696-2.088-6.696-8.351V66.692h4.845V77.13c0,3.191,1.025,5.239,3.585,5.239
				c1.93,0,3.191-1.379,3.702-2.6c0.158-0.433,0.276-0.945,0.276-1.497v-11.58h4.845V80.124z"/>
		</g>
		<g>
			<path class="st0" d="M732.098,81.424c1.103,0.67,3.191,1.379,4.924,1.379c2.127,0,3.073-0.866,3.073-2.127
				c0-1.3-0.788-1.969-3.151-2.797c-3.742-1.3-5.318-3.348-5.278-5.594c0-3.387,2.797-6.026,7.248-6.026
				c2.127,0,3.979,0.552,5.081,1.142l-0.945,3.427c-0.827-0.473-2.363-1.103-4.057-1.103c-1.733,0-2.678,0.828-2.678,2.01
				c0,1.221,0.906,1.811,3.348,2.678c3.467,1.26,5.082,3.033,5.121,5.869c0,3.467-2.718,5.988-7.799,5.988
				c-2.324,0-4.412-0.552-5.83-1.34L732.098,81.424z"/>
		</g>
		<g>
			<path class="st0" d="M615.114,104.286l3.466,10.281c0.394,1.182,0.788,2.639,1.063,3.742h0.118
				c0.315-1.103,0.67-2.521,1.024-3.781l2.993-10.241h5.2l-4.806,13.077c-2.639,7.17-4.412,10.36-6.697,12.33
				c-1.891,1.694-3.86,2.324-5.081,2.482l-1.103-4.097c0.827-0.197,1.851-0.63,2.836-1.339c0.906-0.591,1.969-1.733,2.639-3.033
				c0.197-0.354,0.315-0.63,0.315-0.866c0-0.197-0.039-0.473-0.276-0.945l-7.011-17.608H615.114z"/>
		</g>
		<g>
			<path class="st0" d="M649.106,113.7c0,7.052-4.963,10.203-9.848,10.203c-5.436,0-9.611-3.742-9.611-9.887
				c0-6.302,4.136-10.163,9.927-10.163C645.285,103.853,649.106,107.87,649.106,113.7z M634.649,113.897
				c0,3.703,1.812,6.499,4.766,6.499c2.757,0,4.688-2.718,4.688-6.578c0-2.994-1.339-6.421-4.648-6.421
				C636.028,107.397,634.649,110.707,634.649,113.897z"/>
		</g>
		<g>
			<path class="st0" d="M669.861,117.718c0,2.284,0.079,4.176,0.157,5.751h-4.254l-0.236-2.915h-0.079
				c-0.827,1.379-2.718,3.349-6.145,3.349c-3.506,0-6.696-2.088-6.696-8.351v-11.265h4.845v10.438c0,3.191,1.024,5.239,3.585,5.239
				c1.93,0,3.191-1.379,3.702-2.6c0.158-0.433,0.276-0.945,0.276-1.497v-11.58h4.845V117.718z"/>
		</g>
		<g>
			<path class="st0" d="M674.702,110.47c0-2.6-0.039-4.451-0.157-6.184h4.215l0.158,3.663h0.157
				c0.945-2.718,3.191-4.096,5.239-4.096c0.472,0,0.748,0.039,1.142,0.118v4.569c-0.394-0.079-0.827-0.157-1.418-0.157
				c-2.324,0-3.9,1.497-4.333,3.663c-0.079,0.434-0.157,0.945-0.157,1.497v9.927h-4.845V110.47z"/>
		</g>
		<g>
			<path class="st0" d="M701.248,98.929c0,1.457-1.064,2.6-2.757,2.6c-1.615,0-2.679-1.142-2.679-2.6
				c0-1.497,1.103-2.639,2.718-2.639C700.184,96.29,701.208,97.432,701.248,98.929z M696.087,123.469v-19.183h4.885v19.183H696.087z
				"/>
		</g>
		<g>
			<path class="st0" d="M711.33,98.811v5.476h4.608v3.623h-4.608v8.469c0,2.323,0.63,3.545,2.482,3.545
				c0.827,0,1.457-0.118,1.891-0.236l0.079,3.703c-0.709,0.275-1.969,0.473-3.506,0.473c-1.773,0-3.27-0.591-4.175-1.576
				c-1.024-1.103-1.497-2.836-1.497-5.357v-9.021h-2.757v-3.623h2.757v-4.333L711.33,98.811z"/>
		</g>
		<g>
			<path class="st0" d="M722.397,115.237c0.118,3.466,2.836,4.963,5.909,4.963c2.245,0,3.86-0.316,5.318-0.867l0.709,3.349
				c-1.654,0.67-3.939,1.182-6.696,1.182c-6.224,0-9.887-3.821-9.887-9.691c0-5.317,3.23-10.32,9.375-10.32
				c6.224,0,8.272,5.121,8.272,9.336c0,0.906-0.079,1.615-0.157,2.048H722.397z M730.826,111.849
				c0.039-1.773-0.748-4.688-3.979-4.688c-2.993,0-4.254,2.718-4.451,4.688H730.826z"/>
		</g>
		<g>
			<path class="st0" d="M738.898,109.998c0-2.206-0.039-4.058-0.157-5.712h4.175l0.197,2.836h0.118
				c0.945-1.497,2.679-3.269,5.909-3.269c2.521,0,4.49,1.418,5.318,3.545h0.079c0.67-1.063,1.458-1.851,2.363-2.402
				c1.064-0.748,2.285-1.142,3.861-1.142c3.191,0,6.42,2.166,6.42,8.311v11.305h-4.727v-10.596c0-3.191-1.103-5.081-3.427-5.081
				c-1.654,0-2.875,1.182-3.388,2.56c-0.118,0.473-0.236,1.064-0.236,1.615v11.502h-4.727v-11.108c0-2.678-1.064-4.569-3.309-4.569
				c-1.812,0-3.033,1.418-3.466,2.758c-0.197,0.472-0.276,1.024-0.276,1.575v11.344h-4.727V109.998z"/>
		</g>
		<g>
			<path class="st0" d="M771.666,119.018c1.103,0.67,3.191,1.379,4.924,1.379c2.127,0,3.073-0.866,3.073-2.127
				c0-1.3-0.788-1.969-3.151-2.797c-3.742-1.3-5.318-3.348-5.278-5.594c0-3.387,2.797-6.026,7.248-6.026
				c2.127,0,3.979,0.552,5.081,1.142l-0.945,3.427c-0.827-0.473-2.363-1.103-4.057-1.103c-1.733,0-2.678,0.828-2.678,2.01
				c0,1.221,0.906,1.811,3.348,2.678c3.466,1.26,5.081,3.033,5.121,5.869c0,3.467-2.718,5.988-7.799,5.988
				c-2.324,0-4.412-0.552-5.83-1.34L771.666,119.018z"/>
		</g>
	</g>
	<g>
		<g>
			<path class="st0" d="M1042.647,101.823c-1.694,0.63-5.002,1.497-8.548,1.497c-4.49,0-7.878-1.142-10.399-3.545
				c-2.363-2.246-3.742-5.751-3.702-9.769c0-8.39,5.987-13.787,14.771-13.787c3.27,0,5.83,0.67,7.051,1.26l-1.064,3.9
				c-1.457-0.63-3.23-1.142-6.027-1.142c-5.672,0-9.65,3.348-9.65,9.532c0,6.026,3.702,9.611,9.217,9.611
				c1.733,0,3.033-0.236,3.663-0.552v-6.617h-4.687v-3.821h9.375V101.823z"/>
		</g>
		<g>
			<path class="st0" d="M1050.678,94.811c0.118,3.466,2.836,4.963,5.909,4.963c2.245,0,3.86-0.316,5.318-0.867l0.709,3.349
				c-1.654,0.67-3.939,1.182-6.696,1.182c-6.224,0-9.887-3.821-9.887-9.691c0-5.317,3.23-10.32,9.375-10.32
				c6.224,0,8.272,5.121,8.272,9.336c0,0.906-0.079,1.615-0.157,2.048H1050.678z M1059.108,91.424
				c0.039-1.773-0.749-4.688-3.979-4.688c-2.994,0-4.254,2.718-4.451,4.688H1059.108z"/>
		</g>
		<g>
			<path class="st0" d="M1072.734,78.385v5.476h4.609v3.623h-4.609v8.469c0,2.323,0.63,3.545,2.482,3.545
				c0.827,0,1.457-0.118,1.891-0.236l0.079,3.703c-0.709,0.275-1.969,0.473-3.506,0.473c-1.773,0-3.269-0.591-4.175-1.576
				c-1.025-1.103-1.497-2.836-1.497-5.357v-9.021h-2.757v-3.623h2.757v-4.333L1072.734,78.385z"/>
		</g>
		<g>
			<path class="st0" d="M1099.161,103.044l-0.315-2.127h-0.119c-1.182,1.497-3.191,2.56-5.672,2.56c-3.86,0-6.027-2.797-6.027-5.712
				c0-4.845,4.294-7.288,11.384-7.248v-0.315c0-1.26-0.512-3.349-3.9-3.349c-1.891,0-3.86,0.591-5.16,1.419l-0.945-3.151
				c1.418-0.867,3.9-1.694,6.933-1.694c6.145,0,7.918,3.899,7.918,8.075v6.933c0,1.733,0.079,3.427,0.275,4.608H1099.161z
				 M1098.53,93.669c-3.427-0.079-6.696,0.67-6.696,3.585c0,1.891,1.221,2.757,2.757,2.757c1.93,0,3.348-1.26,3.781-2.639
				c0.118-0.355,0.157-0.748,0.157-1.064V93.669z"/>
		</g>
		<g>
			<path class="st0" d="M1115.739,90.242c0-2.521-0.079-4.57-0.157-6.381h4.254l0.237,2.954h0.079
				c1.418-2.166,3.663-3.387,6.578-3.387c4.412,0,8.075,3.781,8.075,9.768c0,6.933-4.372,10.282-8.745,10.282
				c-2.403,0-4.412-1.024-5.396-2.56h-0.079v9.926h-4.845V90.242z M1120.584,95.008c0,0.473,0.039,0.906,0.157,1.339
				c0.473,1.969,2.206,3.388,4.254,3.388c3.072,0,4.884-2.56,4.884-6.342c0-3.388-1.654-6.145-4.766-6.145
				c-2.009,0-3.86,1.457-4.333,3.585c-0.118,0.393-0.197,0.827-0.197,1.221V95.008z"/>
		</g>
		<g>
			<path class="st0" d="M1138.385,90.045c0-2.6-0.039-4.451-0.157-6.184h4.215l0.158,3.663h0.157
				c0.945-2.718,3.191-4.096,5.239-4.096c0.473,0,0.748,0.039,1.142,0.118v4.569c-0.394-0.079-0.827-0.157-1.418-0.157
				c-2.324,0-3.9,1.497-4.333,3.663c-0.079,0.434-0.157,0.945-0.157,1.497v9.927h-4.845V90.045z"/>
		</g>
		<g>
			<path class="st0" d="M1157.172,78.503c0,1.457-1.064,2.6-2.757,2.6c-1.615,0-2.679-1.142-2.679-2.6
				c0-1.497,1.103-2.639,2.718-2.639C1156.109,75.864,1157.133,77.007,1157.172,78.503z M1152.012,103.044V83.861h4.885v19.183
				H1152.012z"/>
		</g>
		<g>
			<path class="st0" d="M1175.802,102.453c-1.024,0.473-3.033,0.985-5.436,0.985c-5.987,0-9.887-3.821-9.887-9.769
				c0-5.751,3.939-10.241,10.675-10.241c1.773,0,3.585,0.394,4.688,0.906l-0.867,3.624c-0.788-0.354-1.93-0.748-3.663-0.748
				c-3.703,0-5.909,2.718-5.869,6.224c0,3.939,2.56,6.184,5.869,6.184c1.694,0,2.875-0.355,3.821-0.749L1175.802,102.453z"/>
		</g>
		<g>
			<path class="st0" d="M1182.063,94.811c0.118,3.466,2.836,4.963,5.909,4.963c2.245,0,3.86-0.316,5.318-0.867l0.709,3.349
				c-1.654,0.67-3.939,1.182-6.696,1.182c-6.224,0-9.887-3.821-9.887-9.691c0-5.317,3.23-10.32,9.375-10.32
				c6.224,0,8.272,5.121,8.272,9.336c0,0.906-0.079,1.615-0.157,2.048H1182.063z M1190.493,91.424
				c0.039-1.773-0.749-4.688-3.979-4.688c-2.993,0-4.254,2.718-4.451,4.688H1190.493z"/>
		</g>
	</g>
</g>
<path class="st0" d="M861.186,91.966l-12.165-12.16c-0.746-0.747-1.807-1.177-2.911-1.177h-0.001c-1.104,0-2.166,0.429-2.916,1.18
	c-1.601,1.608-1.599,4.222,0.004,5.827l5.13,5.129h-23.227c-2.271,0-4.118,1.847-4.118,4.117c0,2.271,1.847,4.119,4.118,4.119
	h23.226l-5.128,5.126c-0.781,0.779-1.211,1.816-1.209,2.922c0.002,1.101,0.431,2.134,1.207,2.903
	c0.779,0.781,1.814,1.211,2.914,1.211c1.108,0,2.143-0.431,2.91-1.21l12.167-12.161c0.767-0.767,1.207-1.829,1.207-2.91
	C862.393,93.802,861.954,92.74,861.186,91.966z"/>
</svg>
