<?xml version="1.0" encoding="utf-8"?>
<!-- Generator: Adobe Illustrator 20.0.0, SVG Export Plug-In . SVG Version: 6.00 Build 0)  -->
<svg version="1.1" id="Layer_1" xmlns="http://www.w3.org/2000/svg" xmlns:xlink="http://www.w3.org/1999/xlink" x="0px" y="0px"
	 width="169.767px" height="872.956px" viewBox="0 0 169.767 872.956" style="enable-background:new 0 0 169.767 872.956;"
	 xml:space="preserve">
<style type="text/css">
	.st0{fill:#EAC452;}
	.st1{fill:#70D0F6;}
	.st2{fill:#DC594C;}
	.st3{fill:#2B2B2B;}
	.st4{fill-rule:evenodd;clip-rule:evenodd;fill:#2B2B2B;}
	.st5{opacity:0.25;fill:#3B3B3B;}
	.st6{opacity:0.3;}
	.st7{fill:#231F20;}
	.st8{fill:#FFFFFF;}
	.st9{fill:#E2EAED;}
	.st10{fill:#3E516A;}
	.st11{fill:#2B3D51;}
	.st12{fill:#BCBEC0;}
	.st13{fill:#0A2847;}
	.st14{fill:#A0A4A7;}
	.st15{fill:#797D82;}
	.st16{fill:#E0DADB;}
	.st17{opacity:0.2;}
	.st18{fill:#F15D4E;}
	.st19{fill:#2F4955;}
	.st20{fill:#021A36;}
	.st21{fill:#F04836;}
	.st22{fill:#011F3A;}
	.st23{fill:#939598;}
	.st24{fill:#6D6E71;}
	.st25{fill:#58595B;}
	.st26{clip-path:url(#SVGID_2_);fill:#FFFFFF;}
	.st27{clip-path:url(#SVGID_2_);fill:#FEFEFE;}
	.st28{clip-path:url(#SVGID_2_);fill:#FDFDFD;}
	.st29{clip-path:url(#SVGID_2_);fill:#FCFCFC;}
	.st30{clip-path:url(#SVGID_2_);fill:#FBFBFB;}
	.st31{clip-path:url(#SVGID_2_);fill:#FAFAFA;}
	.st32{clip-path:url(#SVGID_2_);fill:#F9F9F9;}
	.st33{clip-path:url(#SVGID_2_);fill:#F8F8F8;}
	.st34{clip-path:url(#SVGID_2_);fill:#F7F7F7;}
	.st35{clip-path:url(#SVGID_2_);fill:#F6F6F6;}
	.st36{clip-path:url(#SVGID_2_);fill:#F5F5F5;}
	.st37{clip-path:url(#SVGID_2_);fill:#F4F4F4;}
	.st38{clip-path:url(#SVGID_2_);fill:#F3F3F3;}
	.st39{clip-path:url(#SVGID_2_);fill:#F2F2F2;}
	.st40{clip-path:url(#SVGID_2_);fill:#F1F1F1;}
	.st41{clip-path:url(#SVGID_2_);fill:#F0F0F0;}
	.st42{clip-path:url(#SVGID_2_);fill:#EFEFEF;}
	.st43{clip-path:url(#SVGID_2_);fill:#EEEEEE;}
	.st44{clip-path:url(#SVGID_2_);fill:#EDEDED;}
	.st45{clip-path:url(#SVGID_2_);fill:#ECECEC;}
	.st46{clip-path:url(#SVGID_2_);fill:#EBEBEB;}
	.st47{clip-path:url(#SVGID_2_);fill:#EAEAEA;}
	.st48{clip-path:url(#SVGID_2_);fill:#E9E9E9;}
	.st49{clip-path:url(#SVGID_2_);fill:#E8E8E8;}
	.st50{clip-path:url(#SVGID_2_);fill:#E7E7E7;}
	.st51{clip-path:url(#SVGID_2_);fill:#E6E6E6;}
	.st52{clip-path:url(#SVGID_2_);fill:#E5E5E5;}
	.st53{clip-path:url(#SVGID_2_);fill:#E4E4E4;}
	.st54{clip-path:url(#SVGID_2_);fill:#E3E3E3;}
	.st55{clip-path:url(#SVGID_2_);fill:#E2E2E2;}
	.st56{clip-path:url(#SVGID_2_);fill:#E1E1E1;}
	.st57{clip-path:url(#SVGID_2_);fill:#E0E0E0;}
	.st58{clip-path:url(#SVGID_2_);fill:#DFDFDF;}
	.st59{clip-path:url(#SVGID_2_);fill:#DEDEDE;}
	.st60{clip-path:url(#SVGID_2_);fill:#DDDDDD;}
	.st61{clip-path:url(#SVGID_2_);fill:#DCDCDC;}
	.st62{clip-path:url(#SVGID_2_);fill:#DBDBDB;}
	.st63{clip-path:url(#SVGID_2_);fill:#DADADA;}
	.st64{clip-path:url(#SVGID_2_);fill:#D9D9D9;}
	.st65{clip-path:url(#SVGID_2_);fill:#D8D8D9;}
	.st66{clip-path:url(#SVGID_2_);fill:#D7D7D8;}
	.st67{clip-path:url(#SVGID_2_);fill:#D6D6D7;}
	.st68{clip-path:url(#SVGID_2_);fill:#D5D5D6;}
	.st69{clip-path:url(#SVGID_2_);fill:#D4D4D5;}
	.st70{clip-path:url(#SVGID_2_);fill:#D3D3D4;}
	.st71{clip-path:url(#SVGID_2_);fill:#D2D2D3;}
	.st72{clip-path:url(#SVGID_2_);fill:#D1D1D2;}
	.st73{clip-path:url(#SVGID_2_);fill:#D0D0D1;}
	.st74{clip-path:url(#SVGID_2_);fill:#CFCFD0;}
	.st75{clip-path:url(#SVGID_2_);fill:#CECECF;}
	.st76{clip-path:url(#SVGID_2_);fill:#CDCDCE;}
	.st77{clip-path:url(#SVGID_2_);fill:#CCCCCD;}
	.st78{clip-path:url(#SVGID_2_);fill:#CBCBCC;}
	.st79{clip-path:url(#SVGID_2_);fill:#CACACB;}
	.st80{clip-path:url(#SVGID_2_);fill:#C9C9CA;}
	.st81{clip-path:url(#SVGID_2_);fill:#C8C8C9;}
	.st82{clip-path:url(#SVGID_2_);fill:#C7C7C8;}
	.st83{clip-path:url(#SVGID_2_);fill:#C6C6C7;}
	.st84{clip-path:url(#SVGID_2_);fill:#C5C5C6;}
	.st85{clip-path:url(#SVGID_2_);fill:#C4C4C5;}
	.st86{clip-path:url(#SVGID_2_);fill:#C3C3C4;}
	.st87{clip-path:url(#SVGID_2_);fill:#C2C2C3;}
	.st88{clip-path:url(#SVGID_2_);fill:#C1C1C2;}
	.st89{clip-path:url(#SVGID_2_);fill:#C0C0C1;}
	.st90{clip-path:url(#SVGID_2_);fill:#BFBFC0;}
	.st91{clip-path:url(#SVGID_2_);fill:#BEBEBF;}
	.st92{clip-path:url(#SVGID_2_);fill:#BDBDBE;}
	.st93{clip-path:url(#SVGID_2_);fill:#BCBCBD;}
	.st94{clip-path:url(#SVGID_2_);fill:#BBBBBC;}
	.st95{clip-path:url(#SVGID_2_);fill:#BABABB;}
	.st96{clip-path:url(#SVGID_2_);fill:#B9B9BA;}
	.st97{clip-path:url(#SVGID_2_);fill:#B8B8B9;}
	.st98{clip-path:url(#SVGID_2_);fill:#B7B7B8;}
	.st99{clip-path:url(#SVGID_2_);fill:#B6B6B7;}
	.st100{clip-path:url(#SVGID_2_);fill:#B5B5B6;}
	.st101{clip-path:url(#SVGID_2_);fill:#B4B4B5;}
	.st102{clip-path:url(#SVGID_2_);fill:#B3B3B4;}
	.st103{clip-path:url(#SVGID_2_);fill:#B2B2B3;}
	.st104{clip-path:url(#SVGID_2_);fill:#B0B1B2;}
	.st105{clip-path:url(#SVGID_2_);fill:#AFB0B1;}
	.st106{clip-path:url(#SVGID_2_);fill:#AEAFB0;}
	.st107{clip-path:url(#SVGID_2_);fill:#ADAEAF;}
	.st108{clip-path:url(#SVGID_2_);fill:#ACADAE;}
	.st109{clip-path:url(#SVGID_2_);fill:#ABACAD;}
	.st110{clip-path:url(#SVGID_2_);fill:#AAABAC;}
	.st111{clip-path:url(#SVGID_2_);fill:#A9AAAB;}
	.st112{clip-path:url(#SVGID_2_);fill:#A8A9AA;}
	.st113{clip-path:url(#SVGID_2_);fill:#A7A8A9;}
	.st114{clip-path:url(#SVGID_2_);fill:#A6A7A8;}
	.st115{clip-path:url(#SVGID_2_);fill:#A5A6A7;}
	.st116{clip-path:url(#SVGID_2_);fill:#A4A5A6;}
	.st117{clip-path:url(#SVGID_2_);fill:#A3A4A5;}
	.st118{clip-path:url(#SVGID_2_);fill:#A2A3A4;}
	.st119{clip-path:url(#SVGID_2_);fill:#A1A2A3;}
	.st120{clip-path:url(#SVGID_2_);fill:#A0A1A2;}
	.st121{clip-path:url(#SVGID_2_);fill:#9FA0A1;}
	.st122{clip-path:url(#SVGID_2_);fill:#9E9FA0;}
	.st123{clip-path:url(#SVGID_2_);fill:#9D9E9F;}
	.st124{clip-path:url(#SVGID_2_);fill:#9C9D9E;}
	.st125{clip-path:url(#SVGID_2_);fill:#9B9C9D;}
	.st126{clip-path:url(#SVGID_2_);fill:#9A9B9C;}
	.st127{clip-path:url(#SVGID_2_);fill:#999A9B;}
	.st128{clip-path:url(#SVGID_2_);fill:#98999A;}
	.st129{clip-path:url(#SVGID_2_);fill:#979899;}
	.st130{clip-path:url(#SVGID_2_);fill:#969798;}
	.st131{clip-path:url(#SVGID_2_);fill:#959697;}
	.st132{clip-path:url(#SVGID_2_);fill:#949596;}
	.st133{clip-path:url(#SVGID_2_);fill:#939495;}
	.st134{clip-path:url(#SVGID_2_);fill:#929394;}
	.st135{clip-path:url(#SVGID_2_);fill:#919293;}
	.st136{clip-path:url(#SVGID_2_);fill:#909192;}
	.st137{clip-path:url(#SVGID_2_);fill:#8F9091;}
	.st138{clip-path:url(#SVGID_2_);fill:#8E8F90;}
	.st139{clip-path:url(#SVGID_2_);fill:#8D8E8F;}
	.st140{clip-path:url(#SVGID_2_);fill:#8C8D8E;}
	.st141{clip-path:url(#SVGID_2_);fill:#8B8C8D;}
	.st142{clip-path:url(#SVGID_2_);fill:#8A8B8C;}
	.st143{clip-path:url(#SVGID_2_);fill:#898A8C;}
	.st144{clip-path:url(#SVGID_2_);fill:#88898B;}
	.st145{clip-path:url(#SVGID_2_);fill:#87888A;}
	.st146{clip-path:url(#SVGID_2_);fill:#868789;}
	.st147{clip-path:url(#SVGID_2_);fill:#858688;}
	.st148{clip-path:url(#SVGID_2_);fill:#848587;}
	.st149{clip-path:url(#SVGID_2_);fill:#838486;}
	.st150{clip-path:url(#SVGID_2_);fill:#828385;}
	.st151{clip-path:url(#SVGID_2_);fill:#818284;}
	.st152{clip-path:url(#SVGID_2_);fill:#808183;}
	.st153{clip-path:url(#SVGID_2_);fill:#7F8082;}
	.st154{clip-path:url(#SVGID_2_);fill:#7E7F81;}
	.st155{clip-path:url(#SVGID_2_);fill:#7D7E80;}
	.st156{clip-path:url(#SVGID_2_);fill:#7C7D7F;}
	.st157{clip-path:url(#SVGID_2_);fill:#7B7C7E;}
	.st158{clip-path:url(#SVGID_2_);fill:#7A7B7D;}
	.st159{clip-path:url(#SVGID_2_);fill:#797A7C;}
	.st160{clip-path:url(#SVGID_2_);fill:#78797B;}
	.st161{clip-path:url(#SVGID_2_);fill:#77787A;}
	.st162{clip-path:url(#SVGID_2_);fill:#767779;}
	.st163{clip-path:url(#SVGID_2_);fill:#757678;}
	.st164{clip-path:url(#SVGID_2_);fill:#747577;}
	.st165{clip-path:url(#SVGID_2_);fill:#737476;}
	.st166{clip-path:url(#SVGID_2_);fill:#727375;}
	.st167{clip-path:url(#SVGID_2_);fill:#717274;}
	.st168{clip-path:url(#SVGID_2_);fill:#707173;}
	.st169{clip-path:url(#SVGID_2_);fill:#6F7072;}
	.st170{clip-path:url(#SVGID_2_);fill:#6E6F71;}
	.st171{clip-path:url(#SVGID_2_);fill:#6D6E70;}
	.st172{clip-path:url(#SVGID_2_);fill:#6C6D6F;}
	.st173{clip-path:url(#SVGID_2_);fill:#6B6C6E;}
	.st174{clip-path:url(#SVGID_2_);fill:#6A6B6D;}
	.st175{clip-path:url(#SVGID_2_);fill:#696A6C;}
	.st176{clip-path:url(#SVGID_2_);fill:#68696B;}
	.st177{clip-path:url(#SVGID_2_);fill:#67686A;}
	.st178{clip-path:url(#SVGID_2_);fill:#666769;}
	.st179{clip-path:url(#SVGID_2_);fill:#656668;}
	.st180{clip-path:url(#SVGID_2_);fill:#646567;}
	.st181{clip-path:url(#SVGID_2_);fill:#636466;}
	.st182{clip-path:url(#SVGID_4_);}
	.st183{fill:#0A1820;}
	.st184{opacity:0.5;}
	.st185{fill:#E2E2E2;}
	.st186{fill:#010101;}
	.st187{opacity:0.37;fill:url(#SVGID_5_);}
	.st188{opacity:0.37;fill:url(#SVGID_6_);}
	.st189{opacity:0.37;fill:url(#SVGID_7_);}
	.st190{opacity:0.37;fill:url(#SVGID_8_);}
	.st191{opacity:0.37;fill:url(#SVGID_9_);}
	.st192{opacity:0.37;fill:url(#SVGID_10_);}
	.st193{fill:#DDEFF8;}
	.st194{fill:#37414B;}
	.st195{opacity:0.2;fill:#231F20;}
	.st196{fill:#EFEFEF;}
	.st197{fill:#1D396A;}
	.st198{fill:#D5DBDB;}
	.st199{fill:#DDEFF8;stroke:#1D396A;stroke-width:2;stroke-miterlimit:10;}
	.st200{fill:#44C5E1;stroke:#1D396A;stroke-width:2;stroke-miterlimit:10;}
	.st201{fill:#44C5E1;stroke:#1D396A;stroke-width:2;stroke-linecap:round;stroke-miterlimit:10;}
	.st202{fill:url(#SVGID_11_);}
	.st203{fill:#44C5E1;}
	.st204{fill:#FFFFFF;stroke:#1D396A;stroke-width:2;stroke-linecap:round;stroke-miterlimit:10;}
	.st205{fill:#D2D8D6;}
	.st206{fill:#EBF0F3;}
	.st207{fill:#F1F2F2;stroke:#1D396A;stroke-width:2;stroke-miterlimit:10;}
	.st208{fill:#F1F2F2;}
	.st209{fill:#FFFFFD;}
	.st210{fill:#D1D3D4;stroke:#1D396A;stroke-width:2;stroke-miterlimit:10;}
	.st211{fill:#D3CE24;stroke:#1D396A;stroke-width:2;stroke-miterlimit:10;}
	.st212{fill:#79B3D5;}
	.st213{fill:#26B898;}
	.st214{clip-path:url(#SVGID_13_);fill:#FFFFFF;}
	.st215{clip-path:url(#SVGID_13_);fill:#FEFEFE;}
	.st216{clip-path:url(#SVGID_13_);fill:#FCFCFC;}
	.st217{clip-path:url(#SVGID_13_);fill:#FBFBFB;}
	.st218{clip-path:url(#SVGID_13_);fill:#FAFAFA;}
	.st219{clip-path:url(#SVGID_13_);fill:#F9F9F9;}
	.st220{clip-path:url(#SVGID_13_);fill:#F8F8F8;}
	.st221{clip-path:url(#SVGID_13_);fill:#F7F7F7;}
	.st222{clip-path:url(#SVGID_13_);fill:#F6F6F6;}
	.st223{clip-path:url(#SVGID_13_);fill:#F5F5F5;}
	.st224{clip-path:url(#SVGID_13_);fill:#F4F4F4;}
	.st225{clip-path:url(#SVGID_13_);fill:#F3F3F3;}
	.st226{clip-path:url(#SVGID_13_);fill:#F2F2F2;}
	.st227{clip-path:url(#SVGID_13_);fill:#F1F1F1;}
	.st228{clip-path:url(#SVGID_13_);fill:#F0F0F0;}
	.st229{clip-path:url(#SVGID_13_);fill:#EFEFEF;}
	.st230{clip-path:url(#SVGID_13_);fill:#EEEEEE;}
	.st231{clip-path:url(#SVGID_13_);fill:#EDEDED;}
	.st232{clip-path:url(#SVGID_13_);fill:#ECECEC;}
	.st233{clip-path:url(#SVGID_13_);fill:#EBEBEB;}
	.st234{clip-path:url(#SVGID_13_);fill:#EAEAEA;}
	.st235{clip-path:url(#SVGID_13_);fill:#E9E9E9;}
	.st236{clip-path:url(#SVGID_13_);fill:#E8E8E8;}
	.st237{clip-path:url(#SVGID_13_);fill:#E7E7E7;}
	.st238{clip-path:url(#SVGID_13_);fill:#E6E6E6;}
	.st239{clip-path:url(#SVGID_13_);fill:#E5E5E5;}
	.st240{clip-path:url(#SVGID_13_);fill:#E4E4E4;}
	.st241{clip-path:url(#SVGID_13_);fill:#E3E3E3;}
	.st242{clip-path:url(#SVGID_13_);fill:#E2E2E2;}
	.st243{clip-path:url(#SVGID_13_);fill:#E1E1E1;}
	.st244{clip-path:url(#SVGID_13_);fill:#E0E0E0;}
	.st245{clip-path:url(#SVGID_13_);fill:#DFDFDF;}
	.st246{clip-path:url(#SVGID_13_);fill:#DEDEDE;}
	.st247{clip-path:url(#SVGID_13_);fill:#DDDDDD;}
	.st248{clip-path:url(#SVGID_13_);fill:#DCDCDC;}
	.st249{clip-path:url(#SVGID_13_);fill:#DBDBDB;}
	.st250{clip-path:url(#SVGID_13_);fill:#DADADA;}
	.st251{clip-path:url(#SVGID_13_);fill:#D9D9D9;}
	.st252{clip-path:url(#SVGID_13_);fill:#D8D8D8;}
	.st253{clip-path:url(#SVGID_13_);fill:#D7D7D7;}
	.st254{clip-path:url(#SVGID_13_);fill:#D6D6D6;}
	.st255{clip-path:url(#SVGID_13_);fill:#D5D5D5;}
	.st256{clip-path:url(#SVGID_13_);fill:#D4D4D5;}
	.st257{clip-path:url(#SVGID_13_);fill:#D3D3D4;}
	.st258{clip-path:url(#SVGID_13_);fill:#D2D2D3;}
	.st259{clip-path:url(#SVGID_13_);fill:#D1D1D2;}
	.st260{clip-path:url(#SVGID_13_);fill:#D0D0D1;}
	.st261{clip-path:url(#SVGID_13_);fill:#CFCFD0;}
	.st262{clip-path:url(#SVGID_13_);fill:#CECECF;}
	.st263{clip-path:url(#SVGID_13_);fill:#CDCDCE;}
	.st264{clip-path:url(#SVGID_13_);fill:#CCCCCD;}
	.st265{clip-path:url(#SVGID_13_);fill:#CBCBCC;}
	.st266{clip-path:url(#SVGID_13_);fill:#CACACB;}
	.st267{clip-path:url(#SVGID_13_);fill:#C9C9CA;}
	.st268{clip-path:url(#SVGID_13_);fill:#C8C8C9;}
	.st269{clip-path:url(#SVGID_13_);fill:#C7C7C8;}
	.st270{clip-path:url(#SVGID_13_);fill:#C6C6C7;}
	.st271{clip-path:url(#SVGID_13_);fill:#C5C5C6;}
	.st272{clip-path:url(#SVGID_13_);fill:#C4C4C5;}
	.st273{clip-path:url(#SVGID_13_);fill:#C3C3C4;}
	.st274{clip-path:url(#SVGID_13_);fill:#C2C2C3;}
	.st275{clip-path:url(#SVGID_13_);fill:#C1C1C2;}
	.st276{clip-path:url(#SVGID_13_);fill:#C0C0C1;}
	.st277{clip-path:url(#SVGID_13_);fill:#BFBFC0;}
	.st278{clip-path:url(#SVGID_13_);fill:#BEBEBF;}
	.st279{clip-path:url(#SVGID_13_);fill:#BDBDBE;}
	.st280{clip-path:url(#SVGID_13_);fill:#BCBCBD;}
	.st281{clip-path:url(#SVGID_13_);fill:#BBBBBC;}
	.st282{clip-path:url(#SVGID_13_);fill:#BABABB;}
	.st283{clip-path:url(#SVGID_13_);fill:#B9B9BA;}
	.st284{clip-path:url(#SVGID_13_);fill:#B8B8B9;}
	.st285{clip-path:url(#SVGID_13_);fill:#B7B7B8;}
	.st286{clip-path:url(#SVGID_13_);fill:#B6B6B7;}
	.st287{clip-path:url(#SVGID_13_);fill:#B5B5B6;}
	.st288{clip-path:url(#SVGID_13_);fill:#B4B4B5;}
	.st289{clip-path:url(#SVGID_13_);fill:#B3B3B4;}
	.st290{clip-path:url(#SVGID_13_);fill:#B2B2B3;}
	.st291{clip-path:url(#SVGID_13_);fill:#B1B1B2;}
	.st292{clip-path:url(#SVGID_13_);fill:#B0B0B1;}
	.st293{clip-path:url(#SVGID_13_);fill:#AFAFB0;}
	.st294{clip-path:url(#SVGID_13_);fill:#ADAEAF;}
	.st295{clip-path:url(#SVGID_13_);fill:#ACADAE;}
	.st296{clip-path:url(#SVGID_13_);fill:#ABACAD;}
	.st297{clip-path:url(#SVGID_13_);fill:#AAABAC;}
	.st298{clip-path:url(#SVGID_13_);fill:#A9AAAB;}
	.st299{clip-path:url(#SVGID_13_);fill:#A8A9AA;}
	.st300{clip-path:url(#SVGID_13_);fill:#A7A8A9;}
	.st301{clip-path:url(#SVGID_13_);fill:#A6A7A8;}
	.st302{clip-path:url(#SVGID_13_);fill:#A5A6A7;}
	.st303{clip-path:url(#SVGID_13_);fill:#A4A5A6;}
	.st304{clip-path:url(#SVGID_13_);fill:#A3A4A5;}
	.st305{clip-path:url(#SVGID_13_);fill:#A2A3A4;}
	.st306{clip-path:url(#SVGID_13_);fill:#A1A2A3;}
	.st307{clip-path:url(#SVGID_13_);fill:#A0A1A2;}
	.st308{clip-path:url(#SVGID_13_);fill:#9FA0A1;}
	.st309{clip-path:url(#SVGID_13_);fill:#9E9FA0;}
	.st310{clip-path:url(#SVGID_13_);fill:#9D9E9F;}
	.st311{clip-path:url(#SVGID_13_);fill:#9C9D9E;}
	.st312{clip-path:url(#SVGID_13_);fill:#9B9C9D;}
	.st313{clip-path:url(#SVGID_13_);fill:#9A9B9C;}
	.st314{clip-path:url(#SVGID_13_);fill:#999A9B;}
	.st315{clip-path:url(#SVGID_13_);fill:#98999A;}
	.st316{clip-path:url(#SVGID_13_);fill:#979899;}
	.st317{clip-path:url(#SVGID_13_);fill:#969798;}
	.st318{clip-path:url(#SVGID_13_);fill:#959697;}
	.st319{clip-path:url(#SVGID_13_);fill:#949596;}
	.st320{clip-path:url(#SVGID_13_);fill:#939495;}
	.st321{clip-path:url(#SVGID_13_);fill:#929394;}
	.st322{clip-path:url(#SVGID_13_);fill:#919293;}
	.st323{clip-path:url(#SVGID_13_);fill:#909192;}
	.st324{clip-path:url(#SVGID_13_);fill:#8F9091;}
	.st325{clip-path:url(#SVGID_13_);fill:#8E8F90;}
	.st326{clip-path:url(#SVGID_13_);fill:#8D8E8F;}
	.st327{clip-path:url(#SVGID_13_);fill:#8C8D8E;}
	.st328{clip-path:url(#SVGID_13_);fill:#8B8C8D;}
	.st329{clip-path:url(#SVGID_13_);fill:#8A8B8C;}
	.st330{clip-path:url(#SVGID_13_);fill:#898A8B;}
	.st331{clip-path:url(#SVGID_13_);fill:#88898B;}
	.st332{clip-path:url(#SVGID_13_);fill:#87888A;}
	.st333{clip-path:url(#SVGID_13_);fill:#868789;}
	.st334{clip-path:url(#SVGID_13_);fill:#858688;}
	.st335{clip-path:url(#SVGID_13_);fill:#848587;}
	.st336{clip-path:url(#SVGID_13_);fill:#838486;}
	.st337{clip-path:url(#SVGID_13_);fill:#828385;}
	.st338{clip-path:url(#SVGID_13_);fill:#818284;}
	.st339{clip-path:url(#SVGID_13_);fill:#808183;}
	.st340{clip-path:url(#SVGID_13_);fill:#7F8082;}
	.st341{clip-path:url(#SVGID_13_);fill:#7E7F81;}
	.st342{clip-path:url(#SVGID_13_);fill:#7D7E80;}
	.st343{clip-path:url(#SVGID_13_);fill:#7C7D7F;}
	.st344{clip-path:url(#SVGID_13_);fill:#7B7C7E;}
	.st345{clip-path:url(#SVGID_13_);fill:#7A7B7D;}
	.st346{clip-path:url(#SVGID_13_);fill:#797A7C;}
	.st347{clip-path:url(#SVGID_13_);fill:#78797B;}
	.st348{clip-path:url(#SVGID_13_);fill:#77787A;}
	.st349{clip-path:url(#SVGID_13_);fill:#767779;}
	.st350{clip-path:url(#SVGID_13_);fill:#757678;}
	.st351{clip-path:url(#SVGID_13_);fill:#747577;}
	.st352{clip-path:url(#SVGID_13_);fill:#737476;}
	.st353{clip-path:url(#SVGID_13_);fill:#727375;}
	.st354{clip-path:url(#SVGID_13_);fill:#717274;}
	.st355{clip-path:url(#SVGID_13_);fill:#707173;}
	.st356{clip-path:url(#SVGID_13_);fill:#6F7072;}
	.st357{clip-path:url(#SVGID_13_);fill:#6E6F71;}
	.st358{clip-path:url(#SVGID_13_);fill:#6D6E70;}
	.st359{clip-path:url(#SVGID_13_);fill:#6C6D6F;}
	.st360{clip-path:url(#SVGID_13_);fill:#6B6C6E;}
	.st361{clip-path:url(#SVGID_13_);fill:#6A6B6D;}
	.st362{clip-path:url(#SVGID_13_);fill:#696A6C;}
	.st363{clip-path:url(#SVGID_13_);fill:#68696B;}
	.st364{clip-path:url(#SVGID_13_);fill:#67686A;}
	.st365{clip-path:url(#SVGID_13_);fill:#666769;}
	.st366{clip-path:url(#SVGID_13_);fill:#656668;}
	.st367{clip-path:url(#SVGID_13_);fill:#646567;}
	.st368{clip-path:url(#SVGID_13_);fill:#636466;}
	.st369{clip-path:url(#SVGID_15_);}
	.st370{fill:#FEFEFE;}
	.st371{fill:#FCFCFC;}
	.st372{fill:#FBFBFB;}
	.st373{fill:#FAFAFA;}
	.st374{fill:#F9F9F9;}
	.st375{fill:#F8F8F8;}
	.st376{fill:#F7F7F7;}
	.st377{fill:#F6F6F6;}
	.st378{fill:#F5F5F5;}
	.st379{fill:#F4F4F4;}
	.st380{fill:#F3F3F3;}
	.st381{fill:#F2F2F2;}
	.st382{fill:#F1F1F1;}
	.st383{fill:#F0F0F0;}
	.st384{fill:#EEEEEE;}
	.st385{fill:#EDEDED;}
	.st386{fill:#ECECEC;}
	.st387{fill:#EBEBEB;}
	.st388{fill:#EAEAEA;}
	.st389{fill:#E9E9E9;}
	.st390{fill:#E8E8E8;}
	.st391{fill:#E7E7E7;}
	.st392{fill:#E6E6E6;}
	.st393{fill:#E5E5E5;}
	.st394{fill:#E4E4E4;}
	.st395{fill:#E3E3E3;}
	.st396{fill:#E1E1E1;}
	.st397{fill:#E0E0E0;}
	.st398{fill:#DFDFDF;}
	.st399{fill:#DEDEDE;}
	.st400{fill:#DDDDDD;}
	.st401{fill:#DCDCDC;}
	.st402{fill:#DBDBDB;}
	.st403{fill:#DADADA;}
	.st404{fill:#D9D9D9;}
	.st405{fill:#D8D8D8;}
	.st406{fill:#D7D7D7;}
	.st407{fill:#D6D6D6;}
	.st408{fill:#D5D5D5;}
	.st409{fill:#D4D4D5;}
	.st410{fill:#D3D3D4;}
	.st411{fill:#D2D2D3;}
	.st412{fill:#D1D1D2;}
	.st413{fill:#D0D0D1;}
	.st414{fill:#CFCFD0;}
	.st415{fill:#CECECF;}
	.st416{fill:#CDCDCE;}
	.st417{fill:#CCCCCD;}
	.st418{fill:#CBCBCC;}
	.st419{fill:#CACACB;}
	.st420{fill:#C9C9CA;}
	.st421{fill:#C8C8C9;}
	.st422{fill:#C7C7C8;}
	.st423{fill:#C6C6C7;}
	.st424{fill:#C5C5C6;}
	.st425{fill:#C4C4C5;}
	.st426{fill:#C3C3C4;}
	.st427{fill:#C2C2C3;}
	.st428{fill:#C1C1C2;}
	.st429{fill:#C0C0C1;}
	.st430{fill:#BFBFC0;}
	.st431{fill:#BEBEBF;}
	.st432{fill:#BDBDBE;}
	.st433{fill:#BCBCBD;}
	.st434{fill:#BBBBBC;}
	.st435{fill:#BABABB;}
	.st436{fill:#B9B9BA;}
	.st437{fill:#B8B8B9;}
	.st438{fill:#B7B7B8;}
	.st439{fill:#B6B6B7;}
	.st440{fill:#B5B5B6;}
	.st441{fill:#B4B4B5;}
	.st442{fill:#B3B3B4;}
	.st443{fill:#B2B2B3;}
	.st444{fill:#B1B1B2;}
	.st445{fill:#B0B0B1;}
	.st446{fill:#AFAFB0;}
	.st447{fill:#ADAEAF;}
	.st448{fill:#ACADAE;}
	.st449{fill:#ABACAD;}
	.st450{fill:#AAABAC;}
	.st451{fill:#A9AAAB;}
	.st452{fill:#A8A9AA;}
	.st453{fill:#A7A8A9;}
	.st454{fill:#A6A7A8;}
	.st455{fill:#A5A6A7;}
	.st456{fill:#A4A5A6;}
	.st457{fill:#A3A4A5;}
	.st458{fill:#A2A3A4;}
	.st459{fill:#A1A2A3;}
	.st460{fill:#A0A1A2;}
	.st461{fill:#9FA0A1;}
	.st462{fill:#9E9FA0;}
	.st463{fill:#9D9E9F;}
	.st464{fill:#9C9D9E;}
	.st465{fill:#9B9C9D;}
	.st466{fill:#9A9B9C;}
	.st467{fill:#999A9B;}
	.st468{fill:#98999A;}
	.st469{fill:#979899;}
	.st470{fill:#969798;}
	.st471{fill:#959697;}
	.st472{fill:#949596;}
	.st473{fill:#939495;}
	.st474{fill:#929394;}
	.st475{fill:#919293;}
	.st476{fill:#909192;}
	.st477{fill:#8F9091;}
	.st478{fill:#8E8F90;}
	.st479{fill:#8D8E8F;}
	.st480{fill:#8C8D8E;}
	.st481{fill:#8B8C8D;}
	.st482{fill:#8A8B8C;}
	.st483{fill:#898A8B;}
	.st484{fill:#88898B;}
	.st485{fill:#87888A;}
	.st486{fill:#868789;}
	.st487{fill:#858688;}
	.st488{fill:#848587;}
	.st489{fill:#838486;}
	.st490{fill:#828385;}
	.st491{fill:#818284;}
	.st492{fill:#808183;}
	.st493{fill:#7F8082;}
	.st494{fill:#7E7F81;}
	.st495{fill:#7D7E80;}
	.st496{fill:#7C7D7F;}
	.st497{fill:#7B7C7E;}
	.st498{fill:#7A7B7D;}
	.st499{fill:#797A7C;}
	.st500{fill:#78797B;}
	.st501{fill:#77787A;}
	.st502{fill:#767779;}
	.st503{fill:#757678;}
	.st504{fill:#747577;}
	.st505{fill:#737476;}
	.st506{fill:#727375;}
	.st507{fill:#717274;}
	.st508{fill:#707173;}
	.st509{fill:#6F7072;}
	.st510{fill:#6E6F71;}
	.st511{fill:#6D6E70;}
	.st512{fill:#6C6D6F;}
	.st513{fill:#6B6C6E;}
	.st514{fill:#6A6B6D;}
	.st515{fill:#696A6C;}
	.st516{fill:#68696B;}
	.st517{fill:#67686A;}
	.st518{fill:#666769;}
	.st519{fill:#656668;}
	.st520{fill:#646567;}
	.st521{fill:#636466;}
	.st522{opacity:0.6;}
	.st523{opacity:0.4;}
	.st524{fill:#FECE8C;}
	.st525{fill:#DD8D24;}
	.st526{fill:#F4EDED;}
	.st527{fill:#A05F10;}
	.st528{fill:#FFCE43;}
	.st529{fill:#FF9900;}
	.st530{fill:#FFC306;}
	.st531{fill:#7A471F;}
	.st532{fill:#DD9F76;}
	.st533{fill:#E6E7E8;}
	.st534{fill:#D1D3D4;}
	.st535{clip-path:url(#SVGID_17_);}
	.st536{fill:#FDFDFD;}
	.st537{fill:#D4D4D4;}
	.st538{fill:#D3D3D3;}
	.st539{fill:#D2D2D2;}
	.st540{fill:#D1D1D1;}
	.st541{fill:#D0D0D0;}
	.st542{fill:#CFCFCF;}
	.st543{fill:#CECECE;}
	.st544{fill:#CDCDCD;}
	.st545{fill:#CCCCCC;}
	.st546{fill:#CBCBCB;}
	.st547{fill:#CACACA;}
	.st548{fill:#CAC9C9;}
	.st549{fill:#C9C7C7;}
	.st550{fill:#C8C6C6;}
	.st551{fill:#C7C5C5;}
	.st552{fill:#C6C4C4;}
	.st553{fill:#C5C3C3;}
	.st554{fill:#C4C2C2;}
	.st555{fill:#C3C1C1;}
	.st556{fill:#C2C0C0;}
	.st557{fill:#C1BFBF;}
	.st558{fill:#C0BEBE;}
	.st559{fill:#BFBDBD;}
	.st560{fill:#BEBCBC;}
	.st561{fill:#BDBBBB;}
	.st562{fill:#BCBABA;}
	.st563{fill:#BBB9B9;}
	.st564{fill:#BAB8B8;}
	.st565{fill:#B9B7B7;}
	.st566{fill:#B8B6B6;}
	.st567{fill:#B7B5B5;}
	.st568{fill:#B6B4B4;}
	.st569{fill:#B5B3B3;}
	.st570{fill:#B4B2B2;}
	.st571{fill:#B3B1B1;}
	.st572{fill:#B2B0B0;}
	.st573{fill:#B1AFAF;}
	.st574{fill:#B0AEAE;}
	.st575{fill:#AFADAD;}
	.st576{fill:#AEACAC;}
	.st577{fill:#ADABAB;}
	.st578{fill:#ACAAAA;}
	.st579{fill:#ABA9A9;}
	.st580{fill:#AAA8A8;}
	.st581{fill:#A9A7A7;}
	.st582{fill:#A8A6A6;}
	.st583{fill:#A7A5A5;}
	.st584{fill:#A6A4A4;}
	.st585{fill:#A5A3A3;}
	.st586{fill:#A4A2A2;}
	.st587{fill:#A3A1A1;}
	.st588{fill:#A2A0A0;}
	.st589{fill:#A19F9F;}
	.st590{fill:#A09E9E;}
	.st591{fill:#9F9D9D;}
	.st592{fill:#9E9C9C;}
	.st593{fill:#9D9B9B;}
	.st594{fill:#9C9A9A;}
	.st595{fill:#9B9999;}
	.st596{fill:#9A9898;}
	.st597{fill:#999797;}
	.st598{fill:#989696;}
	.st599{fill:#979595;}
	.st600{fill:#969494;}
	.st601{fill:#959393;}
	.st602{fill:#949292;}
	.st603{fill:#5E5E5E;}
	.st604{clip-path:url(#SVGID_19_);}
	.st605{fill:#C9C9C9;}
	.st606{fill:#C8C8C8;}
	.st607{fill:#C7C7C7;}
	.st608{fill:#C6C6C6;}
	.st609{fill:#C5C5C5;}
	.st610{fill:#939191;}
	.st611{fill:#929090;}
	.st612{fill:#918F8F;}
	.st613{fill:#908E8E;}
	.st614{fill:#8F8D8D;}
	.st615{fill:#8E8C8C;}
	.st616{fill:#8D8B8B;}
	.st617{fill:#8C8A8A;}
	.st618{fill:#8B8989;}
	.st619{clip-path:url(#SVGID_21_);}
	.st620{clip-path:url(#SVGID_23_);}
	.st621{clip-path:url(#SVGID_25_);}
	.st622{clip-path:url(#SVGID_27_);}
	.st623{fill:#A4A3A3;}
	.st624{fill:#A3A2A2;}
	.st625{fill:#A2A1A1;}
	.st626{fill:#A1A0A0;}
	.st627{fill:#A09F9F;}
	.st628{fill:#9F9E9E;}
	.st629{fill:#9E9D9D;}
	.st630{fill:#9D9C9C;}
	.st631{fill:#9C9B9B;}
	.st632{fill:#9B9A9A;}
	.st633{fill:#9A9999;}
	.st634{fill:#999898;}
	.st635{fill:#989797;}
	.st636{fill:#979697;}
	.st637{fill:#969596;}
	.st638{fill:#959495;}
	.st639{fill:#949394;}
	.st640{fill:#939293;}
	.st641{fill:#929192;}
	.st642{fill:#919091;}
	.st643{fill:#908F90;}
	.st644{fill:#8F8E8F;}
	.st645{fill:#8E8D8E;}
	.st646{fill:#8D8C8D;}
	.st647{fill:#8C8B8C;}
	.st648{fill:#8B8A8B;}
	.st649{fill:#8A898A;}
	.st650{fill:#898889;}
	.st651{fill:#888788;}
	.st652{fill:#878687;}
	.st653{fill:#868586;}
	.st654{fill:#858485;}
	.st655{fill:#848384;}
	.st656{fill:#838283;}
	.st657{fill:#828182;}
	.st658{fill:#818081;}
	.st659{fill:#807F80;}
	.st660{fill:#7F7E7F;}
	.st661{fill:#7D7E7F;}
	.st662{fill:#7C7D7E;}
	.st663{fill:#7B7C7D;}
	.st664{fill:#7A7B7C;}
	.st665{fill:#797A7B;}
	.st666{fill:#78797A;}
	.st667{fill:#777879;}
	.st668{fill:#767778;}
	.st669{fill:#757677;}
	.st670{fill:#747576;}
	.st671{fill:#737475;}
	.st672{fill:#727374;}
	.st673{fill:#717273;}
	.st674{fill:#707172;}
	.st675{fill:#6F7071;}
	.st676{fill:#6E6F70;}
	.st677{fill:#6D6E6F;}
	.st678{fill:#6C6D6E;}
	.st679{fill:#6B6C6D;}
	.st680{fill:#6A6B6C;}
	.st681{fill:#696A6B;}
	.st682{fill:#68696A;}
	.st683{fill:#676869;}
	.st684{fill:#666768;}
	.st685{fill:#656667;}
	.st686{fill:#626365;}
	.st687{fill:#616264;}
	.st688{fill:#606163;}
	.st689{fill:#5F6062;}
	.st690{fill:#5E5F61;}
	.st691{fill:#5D5E60;}
	.st692{fill:#5C5D5F;}
	.st693{fill:#5B5C5E;}
	.st694{fill:#5A5B5D;}
	.st695{fill:#595A5C;}
	.st696{clip-path:url(#SVGID_29_);fill:#A4A3A3;}
	.st697{clip-path:url(#SVGID_29_);fill:#A3A2A2;}
	.st698{clip-path:url(#SVGID_29_);fill:#A2A1A1;}
	.st699{clip-path:url(#SVGID_29_);fill:#A1A0A0;}
	.st700{clip-path:url(#SVGID_29_);fill:#A09F9F;}
	.st701{clip-path:url(#SVGID_29_);fill:#9F9E9E;}
	.st702{clip-path:url(#SVGID_29_);fill:#9E9D9D;}
	.st703{clip-path:url(#SVGID_29_);fill:#9D9C9C;}
	.st704{clip-path:url(#SVGID_29_);fill:#9C9B9B;}
	.st705{clip-path:url(#SVGID_29_);fill:#9B9A9A;}
	.st706{clip-path:url(#SVGID_29_);fill:#9A9999;}
	.st707{clip-path:url(#SVGID_29_);fill:#999898;}
	.st708{clip-path:url(#SVGID_29_);fill:#989797;}
	.st709{clip-path:url(#SVGID_29_);fill:#979697;}
	.st710{clip-path:url(#SVGID_29_);fill:#969596;}
	.st711{clip-path:url(#SVGID_29_);fill:#959495;}
	.st712{clip-path:url(#SVGID_29_);fill:#949394;}
	.st713{clip-path:url(#SVGID_29_);fill:#939293;}
	.st714{clip-path:url(#SVGID_29_);fill:#929192;}
	.st715{clip-path:url(#SVGID_29_);fill:#919091;}
	.st716{clip-path:url(#SVGID_29_);fill:#908F90;}
	.st717{clip-path:url(#SVGID_29_);fill:#8F8E8F;}
	.st718{clip-path:url(#SVGID_29_);fill:#8E8D8E;}
	.st719{clip-path:url(#SVGID_29_);fill:#8D8C8D;}
	.st720{clip-path:url(#SVGID_29_);fill:#8C8B8C;}
	.st721{clip-path:url(#SVGID_29_);fill:#8B8A8B;}
	.st722{clip-path:url(#SVGID_29_);fill:#8A898A;}
	.st723{clip-path:url(#SVGID_29_);fill:#898889;}
	.st724{clip-path:url(#SVGID_29_);fill:#888788;}
	.st725{clip-path:url(#SVGID_29_);fill:#878687;}
	.st726{clip-path:url(#SVGID_29_);fill:#868586;}
	.st727{clip-path:url(#SVGID_29_);fill:#858485;}
	.st728{clip-path:url(#SVGID_29_);fill:#848384;}
	.st729{clip-path:url(#SVGID_29_);fill:#838283;}
	.st730{clip-path:url(#SVGID_29_);fill:#828182;}
	.st731{clip-path:url(#SVGID_29_);fill:#818081;}
	.st732{clip-path:url(#SVGID_29_);fill:#807F80;}
	.st733{clip-path:url(#SVGID_29_);fill:#7F7E7F;}
	.st734{clip-path:url(#SVGID_29_);fill:#7D7E7F;}
	.st735{clip-path:url(#SVGID_29_);fill:#7C7D7E;}
	.st736{clip-path:url(#SVGID_29_);fill:#7B7C7D;}
	.st737{clip-path:url(#SVGID_29_);fill:#7A7B7C;}
	.st738{clip-path:url(#SVGID_29_);fill:#797A7B;}
	.st739{clip-path:url(#SVGID_29_);fill:#78797A;}
	.st740{clip-path:url(#SVGID_29_);fill:#777879;}
	.st741{clip-path:url(#SVGID_29_);fill:#767778;}
	.st742{clip-path:url(#SVGID_29_);fill:#757677;}
	.st743{clip-path:url(#SVGID_29_);fill:#747576;}
	.st744{clip-path:url(#SVGID_29_);fill:#737475;}
	.st745{clip-path:url(#SVGID_29_);fill:#727374;}
	.st746{clip-path:url(#SVGID_29_);fill:#717273;}
	.st747{clip-path:url(#SVGID_29_);fill:#707172;}
	.st748{clip-path:url(#SVGID_29_);fill:#6F7071;}
	.st749{clip-path:url(#SVGID_29_);fill:#6E6F70;}
	.st750{clip-path:url(#SVGID_29_);fill:#6D6E6F;}
	.st751{clip-path:url(#SVGID_29_);fill:#6C6D6E;}
	.st752{clip-path:url(#SVGID_29_);fill:#6B6C6D;}
	.st753{clip-path:url(#SVGID_29_);fill:#6A6B6C;}
	.st754{clip-path:url(#SVGID_29_);fill:#696A6B;}
	.st755{clip-path:url(#SVGID_29_);fill:#68696A;}
	.st756{clip-path:url(#SVGID_29_);fill:#676869;}
	.st757{clip-path:url(#SVGID_29_);fill:#666768;}
	.st758{clip-path:url(#SVGID_29_);fill:#656667;}
	.st759{clip-path:url(#SVGID_29_);fill:#646567;}
	.st760{clip-path:url(#SVGID_29_);fill:#636466;}
	.st761{clip-path:url(#SVGID_29_);fill:#626365;}
	.st762{clip-path:url(#SVGID_29_);fill:#616264;}
	.st763{clip-path:url(#SVGID_29_);fill:#606163;}
	.st764{clip-path:url(#SVGID_29_);fill:#5F6062;}
	.st765{clip-path:url(#SVGID_29_);fill:#5E5F61;}
	.st766{clip-path:url(#SVGID_29_);fill:#5D5E60;}
	.st767{clip-path:url(#SVGID_29_);fill:#5C5D5F;}
	.st768{clip-path:url(#SVGID_29_);fill:#5B5C5E;}
	.st769{clip-path:url(#SVGID_29_);fill:#5A5B5D;}
	.st770{clip-path:url(#SVGID_29_);fill:#595A5C;}
	.st771{clip-path:url(#SVGID_29_);fill:#58595B;}
	.st772{clip-path:url(#SVGID_31_);}
	.st773{clip-path:url(#SVGID_33_);}
	.st774{clip-path:url(#SVGID_35_);}
	.st775{clip-path:url(#SVGID_37_);}
	.st776{clip-path:url(#SVGID_39_);}
</style>
<g>
	<circle class="st193" cx="85.384" cy="75.217" r="75.458"/>
	<circle class="st193" cx="87.104" cy="730.095" r="75.458"/>
	<circle class="st193" cx="88.34" cy="397.309" r="75.458"/>
</g>
<g>
	<g>
		<path class="st194" d="M67.714,605.333c0-0.896,0.342-1.791,1.025-2.475c1.367-1.367,3.583-1.367,4.95,0l12.408,12.408
			l12.408-12.408c1.367-1.367,3.583-1.367,4.95,0c1.367,1.365,1.367,3.582,0,4.949l-17.358,17.359l-17.358-17.359
			C68.056,607.124,67.714,606.229,67.714,605.333z"/>
	</g>
	<g>
		<path class="st194" d="M69.017,279.395c0-0.896,0.342-1.791,1.025-2.475c1.367-1.367,3.583-1.367,4.95,0L87.4,289.329
			l12.408-12.408c1.367-1.367,3.583-1.367,4.95,0c1.367,1.365,1.367,3.582,0,4.949L87.4,299.229L70.042,281.87
			C69.359,281.186,69.017,280.291,69.017,279.395z"/>
	</g>
	<g>
		<path class="st3" d="M36.128,207.338c1.529,0.941,3.764,1.726,6.116,1.726c3.489,0,5.528-1.843,5.528-4.508
			c0-2.471-1.411-3.882-4.979-5.253c-4.312-1.529-6.978-3.764-6.978-7.489c0-4.117,3.411-7.174,8.547-7.174
			c2.705,0,4.666,0.626,5.842,1.293l-0.941,2.784c-0.863-0.47-2.627-1.255-5.018-1.255c-3.607,0-4.979,2.156-4.979,3.96
			c0,2.469,1.607,3.685,5.254,5.097c4.469,1.724,6.743,3.88,6.743,7.762c0,4.077-3.019,7.606-9.252,7.606
			c-2.548,0-5.332-0.745-6.744-1.686L36.128,207.338z"/>
	</g>
	<g>
		<path class="st3" d="M59.453,187.07v5.45h4.94v2.626h-4.94v10.233c0,2.353,0.667,3.685,2.588,3.685
			c0.901,0,1.568-0.118,1.999-0.235l0.157,2.587c-0.666,0.273-1.725,0.47-3.058,0.47c-1.607,0-2.901-0.51-3.725-1.451
			c-0.98-1.018-1.333-2.704-1.333-4.94v-10.35h-2.941v-2.626h2.941v-4.548L59.453,187.07z"/>
	</g>
	<g>
		<path class="st3" d="M78.388,211.495l-0.274-2.393h-0.118c-1.058,1.491-3.097,2.824-5.802,2.824c-3.842,0-5.803-2.706-5.803-5.45
			c0-4.587,4.077-7.096,11.409-7.058v-0.392c0-1.568-0.432-4.392-4.313-4.392c-1.764,0-3.607,0.55-4.94,1.411l-0.784-2.273
			c1.568-1.02,3.842-1.686,6.234-1.686c5.802,0,7.214,3.959,7.214,7.762v7.096c0,1.646,0.078,3.254,0.314,4.548H78.388z
			 M77.878,201.812c-3.764-0.08-8.037,0.588-8.037,4.272c0,2.236,1.49,3.294,3.254,3.294c2.47,0,4.038-1.568,4.587-3.176
			c0.118-0.353,0.196-0.745,0.196-1.098V201.812z"/>
	</g>
	<g>
		<path class="st3" d="M86.383,198.439c0-2.234-0.039-4.155-0.157-5.92h3.019l0.118,3.724h0.157
			c0.863-2.547,2.941-4.155,5.254-4.155c0.392,0,0.666,0.038,0.98,0.117v3.254c-0.353-0.078-0.706-0.117-1.176-0.117
			c-2.431,0-4.156,1.843-4.626,4.43c-0.079,0.47-0.157,1.02-0.157,1.608v10.115h-3.411V198.439z"/>
	</g>
	<g>
		<path class="st3" d="M103.905,187.07v5.45h4.94v2.626h-4.94v10.233c0,2.353,0.666,3.685,2.588,3.685
			c0.902,0,1.568-0.118,1.999-0.235l0.157,2.587c-0.667,0.273-1.725,0.47-3.058,0.47c-1.607,0-2.902-0.51-3.725-1.451
			c-0.98-1.018-1.333-2.704-1.333-4.94v-10.35h-2.941v-2.626h2.941v-4.548L103.905,187.07z"/>
	</g>
	<g>
		<path class="st3" d="M130.757,211.495l-0.274-2.393h-0.118c-1.058,1.491-3.097,2.824-5.802,2.824c-3.842,0-5.803-2.706-5.803-5.45
			c0-4.587,4.077-7.096,11.409-7.058v-0.392c0-1.568-0.432-4.392-4.313-4.392c-1.764,0-3.607,0.55-4.94,1.411l-0.784-2.273
			c1.568-1.02,3.842-1.686,6.234-1.686c5.802,0,7.214,3.959,7.214,7.762v7.096c0,1.646,0.078,3.254,0.314,4.548H130.757z
			 M130.247,201.812c-3.764-0.08-8.037,0.588-8.037,4.272c0,2.236,1.49,3.294,3.254,3.294c2.47,0,4.038-1.568,4.587-3.176
			c0.118-0.353,0.196-0.745,0.196-1.098V201.812z"/>
	</g>
	<g>
		<path class="st3" d="M5.592,229.938l3.725,10.663c0.627,1.726,1.137,3.294,1.529,4.862h0.118c0.431-1.568,0.98-3.136,1.607-4.862
			l3.685-10.663h3.607l-7.449,18.975H9.121l-7.214-18.975H5.592z"/>
	</g>
	<g>
		<path class="st3" d="M26.564,224.605c0.039,1.176-0.823,2.118-2.196,2.118c-1.215,0-2.078-0.941-2.078-2.118
			c0-1.215,0.902-2.156,2.156-2.156C25.741,222.449,26.564,223.39,26.564,224.605z M22.722,248.913v-18.975h3.45v18.975H22.722z"/>
	</g>
	<g>
		<path class="st3" d="M47.891,221.077v22.934c0,1.686,0.04,3.607,0.157,4.902H44.95l-0.157-3.294h-0.079
			c-1.058,2.118-3.372,3.725-6.469,3.725c-4.587,0-8.116-3.882-8.116-9.645c-0.039-6.313,3.881-10.193,8.508-10.193
			c2.901,0,4.861,1.371,5.724,2.901h0.078v-11.329H47.891z M44.441,237.66c0-0.432-0.039-1.02-0.157-1.449
			c-0.51-2.196-2.392-4-4.979-4c-3.568,0-5.685,3.137-5.685,7.333c0,3.842,1.882,7.018,5.606,7.018c2.313,0,4.43-1.53,5.057-4.117
			c0.117-0.47,0.157-0.941,0.157-1.489V237.66z"/>
	</g>
	<g>
		<path class="st3" d="M55.141,240.053c0.079,4.665,3.058,6.586,6.508,6.586c2.47,0,3.96-0.432,5.254-0.98l0.588,2.469
			c-1.215,0.55-3.293,1.176-6.312,1.176c-5.841,0-9.331-3.842-9.331-9.567c0-5.723,3.372-10.232,8.899-10.232
			c6.195,0,7.841,5.45,7.841,8.939c0,0.705-0.078,1.255-0.117,1.608H55.141z M65.256,237.582c0.039-2.196-0.902-5.606-4.783-5.606
			c-3.489,0-5.018,3.216-5.293,5.606H65.256z"/>
	</g>
	<g>
		<path class="st3" d="M89.638,239.268c0,7.018-4.862,10.077-9.448,10.077c-5.136,0-9.096-3.764-9.096-9.763
			c0-6.351,4.156-10.075,9.409-10.075C85.953,229.506,89.638,233.465,89.638,239.268z M74.583,239.465
			c0,4.155,2.392,7.293,5.763,7.293c3.293,0,5.763-3.097,5.763-7.371c0-3.216-1.607-7.293-5.685-7.293
			C76.348,232.094,74.583,235.857,74.583,239.465z"/>
	</g>
	<g>
		<path class="st3" d="M115.038,248.207c-0.902,0.472-2.901,1.098-5.449,1.098c-5.724,0-9.448-3.882-9.448-9.683
			c0-5.841,3.999-10.077,10.193-10.077c2.039,0,3.842,0.51,4.783,0.981l-0.784,2.666c-0.823-0.472-2.117-0.901-3.999-0.901
			c-4.352,0-6.704,3.214-6.704,7.174c0,4.39,2.823,7.096,6.587,7.096c1.96,0,3.254-0.51,4.234-0.941L115.038,248.207z"/>
	</g>
	<g>
		<path class="st3" d="M118.682,221.077h3.45v11.839h0.078c0.549-0.98,1.412-1.843,2.47-2.431c1.02-0.588,2.235-0.98,3.529-0.98
			c2.548,0,6.626,1.568,6.626,8.116v11.291h-3.45v-10.9c0-3.057-1.137-5.645-4.391-5.645c-2.235,0-3.999,1.568-4.626,3.449
			c-0.196,0.472-0.235,0.981-0.235,1.648v11.448h-3.45V221.077z"/>
	</g>
	<g>
		<path class="st3" d="M150.553,248.913l-0.274-2.393h-0.118c-1.058,1.491-3.097,2.824-5.802,2.824c-3.842,0-5.803-2.706-5.803-5.45
			c0-4.587,4.077-7.096,11.409-7.058v-0.392c0-1.568-0.432-4.392-4.313-4.392c-1.764,0-3.607,0.55-4.94,1.411l-0.784-2.273
			c1.568-1.02,3.842-1.686,6.234-1.686c5.802,0,7.214,3.959,7.214,7.762v7.096c0,1.646,0.078,3.254,0.314,4.548H150.553z
			 M150.043,239.23c-3.764-0.08-8.037,0.588-8.037,4.272c0,2.236,1.49,3.294,3.254,3.294c2.47,0,4.038-1.568,4.587-3.176
			c0.118-0.353,0.196-0.745,0.196-1.098V239.23z"/>
	</g>
	<g>
		<path class="st3" d="M162.547,224.488v5.45h4.94v2.626h-4.94v10.233c0,2.353,0.666,3.685,2.588,3.685
			c0.902,0,1.568-0.118,1.999-0.235l0.157,2.587c-0.667,0.273-1.725,0.47-3.058,0.47c-1.607,0-2.902-0.51-3.725-1.451
			c-0.98-1.018-1.333-2.704-1.333-4.94v-10.35h-2.941v-2.626h2.941v-4.548L162.547,224.488z"/>
	</g>
	<g>
		<path class="st3" d="M23.369,864.017c-1.529,0.55-4.548,1.451-8.116,1.451c-3.999,0-7.292-1.02-9.88-3.489
			c-2.274-2.196-3.685-5.725-3.685-9.842c0.039-7.879,5.449-13.644,14.31-13.644c3.058,0,5.449,0.666,6.587,1.216l-0.823,2.784
			c-1.412-0.628-3.176-1.138-5.842-1.138c-6.43,0-10.625,3.999-10.625,10.625c0,6.704,4.038,10.665,10.194,10.665
			c2.235,0,3.764-0.315,4.548-0.706v-7.881h-5.371v-2.744h8.704V864.017z"/>
	</g>
	<g>
		<path class="st3" d="M30.186,856.333c0.079,4.665,3.058,6.586,6.508,6.586c2.47,0,3.96-0.43,5.254-0.98l0.588,2.471
			c-1.215,0.548-3.293,1.176-6.312,1.176c-5.841,0-9.331-3.844-9.331-9.567c0-5.725,3.372-10.233,8.899-10.233
			c6.195,0,7.841,5.45,7.841,8.939c0,0.706-0.078,1.255-0.117,1.608H30.186z M40.301,853.864c0.039-2.196-0.902-5.606-4.783-5.606
			c-3.489,0-5.018,3.214-5.293,5.606H40.301z"/>
	</g>
	<g>
		<path class="st3" d="M51.667,840.768v5.45h4.94v2.628h-4.94v10.232c0,2.353,0.666,3.685,2.588,3.685
			c0.902,0,1.568-0.117,1.999-0.235l0.157,2.587c-0.667,0.275-1.725,0.472-3.058,0.472c-1.607,0-2.902-0.51-3.725-1.451
			c-0.98-1.02-1.333-2.706-1.333-4.94v-10.35h-2.941v-2.628h2.941v-4.548L51.667,840.768z"/>
	</g>
	<g>
		<path class="st3" d="M78.52,865.193l-0.274-2.391h-0.118c-1.058,1.489-3.097,2.822-5.802,2.822c-3.842,0-5.803-2.706-5.803-5.45
			c0-4.587,4.077-7.096,11.409-7.056v-0.393c0-1.568-0.432-4.39-4.313-4.39c-1.764,0-3.607,0.548-4.94,1.411l-0.784-2.274
			c1.568-1.02,3.842-1.686,6.234-1.686c5.802,0,7.214,3.96,7.214,7.762v7.098c0,1.646,0.078,3.254,0.314,4.547H78.52z M78.01,855.51
			c-3.764-0.078-8.037,0.588-8.037,4.274c0,2.234,1.49,3.294,3.254,3.294c2.47,0,4.038-1.57,4.587-3.176
			c0.118-0.353,0.196-0.746,0.196-1.098V855.51z"/>
	</g>
	<g>
		<path class="st3" d="M94.432,852.412c0-2.431-0.078-4.39-0.157-6.195h3.097l0.157,3.254h0.078
			c1.412-2.312,3.646-3.685,6.744-3.685c4.587,0,8.037,3.882,8.037,9.645c0,6.821-4.156,10.193-8.625,10.193
			c-2.509,0-4.705-1.098-5.842-2.979h-0.078v10.31h-3.411V852.412z M97.843,857.471c0,0.508,0.078,0.98,0.157,1.411
			c0.627,2.391,2.705,4.037,5.175,4.037c3.646,0,5.763-2.979,5.763-7.331c0-3.802-1.999-7.058-5.646-7.058
			c-2.352,0-4.548,1.686-5.214,4.274c-0.118,0.432-0.235,0.941-0.235,1.411V857.471z"/>
	</g>
	<g>
		<path class="st3" d="M116.344,852.138c0-2.234-0.039-4.155-0.157-5.92h3.019l0.118,3.725h0.157
			c0.863-2.549,2.941-4.157,5.254-4.157c0.392,0,0.666,0.04,0.98,0.118v3.254c-0.353-0.078-0.706-0.118-1.176-0.118
			c-2.431,0-4.156,1.843-4.626,4.43c-0.079,0.472-0.157,1.02-0.157,1.608v10.115h-3.411V852.138z"/>
	</g>
	<g>
		<path class="st3" d="M132.769,840.886c0.04,1.176-0.823,2.118-2.196,2.118c-1.215,0-2.078-0.941-2.078-2.118
			c0-1.216,0.902-2.156,2.156-2.156C131.946,838.73,132.769,839.67,132.769,840.886z M128.927,865.193v-18.975h3.45v18.975H128.927z
			"/>
	</g>
	<g>
		<path class="st3" d="M151.234,864.488c-0.902,0.47-2.901,1.098-5.449,1.098c-5.724,0-9.448-3.882-9.448-9.685
			c0-5.841,3.999-10.075,10.193-10.075c2.039,0,3.842,0.51,4.783,0.98l-0.784,2.666c-0.823-0.47-2.117-0.901-3.999-0.901
			c-4.352,0-6.704,3.216-6.704,7.174c0,4.392,2.823,7.096,6.587,7.096c1.96,0,3.254-0.51,4.234-0.94L151.234,864.488z"/>
	</g>
	<g>
		<path class="st3" d="M156.563,856.333c0.078,4.665,3.058,6.586,6.508,6.586c2.47,0,3.96-0.43,5.254-0.98l0.588,2.471
			c-1.215,0.548-3.293,1.176-6.312,1.176c-5.842,0-9.331-3.844-9.331-9.567c0-5.725,3.371-10.233,8.899-10.233
			c6.195,0,7.841,5.45,7.841,8.939c0,0.706-0.078,1.255-0.117,1.608H156.563z M166.678,853.864c0.04-2.196-0.901-5.606-4.783-5.606
			c-3.489,0-5.018,3.214-5.293,5.606H166.678z"/>
	</g>
	<g>
		<path class="st3" d="M17.411,527.259c1.529,0.941,3.764,1.726,6.116,1.726c3.489,0,5.528-1.843,5.528-4.508
			c0-2.471-1.411-3.882-4.979-5.253c-4.312-1.529-6.978-3.764-6.978-7.489c0-4.117,3.411-7.174,8.547-7.174
			c2.705,0,4.666,0.626,5.842,1.293l-0.941,2.784c-0.863-0.47-2.627-1.255-5.018-1.255c-3.607,0-4.979,2.156-4.979,3.96
			c0,2.469,1.607,3.685,5.254,5.097c4.469,1.724,6.743,3.88,6.743,7.762c0,4.077-3.019,7.606-9.252,7.606
			c-2.548,0-5.332-0.745-6.744-1.686L17.411,527.259z"/>
	</g>
	<g>
		<path class="st3" d="M36.697,503.58h3.45v11.839h0.078c0.549-0.98,1.412-1.843,2.47-2.431c1.02-0.588,2.235-0.98,3.529-0.98
			c2.548,0,6.626,1.568,6.626,8.116v11.291H49.4v-10.9c0-3.057-1.137-5.645-4.391-5.645c-2.235,0-3.999,1.568-4.626,3.449
			c-0.196,0.472-0.235,0.981-0.235,1.648v11.448h-3.45V503.58z"/>
	</g>
	<g>
		<path class="st3" d="M75.233,521.771c0,7.018-4.862,10.077-9.448,10.077c-5.136,0-9.096-3.764-9.096-9.763
			c0-6.351,4.156-10.075,9.409-10.075C71.548,512.009,75.233,515.968,75.233,521.771z M60.178,521.967
			c0,4.155,2.392,7.293,5.763,7.293c3.293,0,5.763-3.097,5.763-7.371c0-3.216-1.607-7.293-5.685-7.293
			C61.942,514.597,60.178,518.36,60.178,521.967z"/>
	</g>
	<g>
		<path class="st3" d="M80.288,512.441l2.509,9.643c0.549,2.118,1.058,4.079,1.411,6.038h0.117c0.432-1.921,1.059-3.96,1.686-5.998
			l3.097-9.683h2.901l2.94,9.487c0.706,2.274,1.255,4.274,1.686,6.195h0.117c0.314-1.921,0.823-3.92,1.451-6.155l2.705-9.527h3.411
			l-6.116,18.975h-3.136l-2.902-9.057c-0.666-2.118-1.215-3.999-1.686-6.233h-0.078c-0.471,2.273-1.059,4.234-1.725,6.273
			l-3.058,9.017h-3.136l-5.724-18.975H80.288z"/>
	</g>
	<g>
		<path class="st3" d="M131.17,526.241c0,1.959,0.039,3.685,0.157,5.175h-3.058l-0.196-3.097h-0.078
			c-0.902,1.529-2.902,3.529-6.273,3.529c-2.98,0-6.547-1.648-6.547-8.312v-11.095h3.45v10.506c0,3.607,1.098,6.038,4.234,6.038
			c2.313,0,3.921-1.608,4.548-3.137c0.196-0.51,0.314-1.136,0.314-1.764v-11.643h3.45V526.241z"/>
	</g>
	<g>
		<path class="st3" d="M136.029,527.887c1.019,0.666,2.823,1.373,4.548,1.373c2.509,0,3.685-1.255,3.685-2.824
			c0-1.646-0.98-2.547-3.528-3.489c-3.411-1.215-5.018-3.097-5.018-5.372c0-3.057,2.47-5.566,6.547-5.566
			c1.921,0,3.607,0.548,4.665,1.176l-0.862,2.509c-0.745-0.472-2.117-1.098-3.882-1.098c-2.038,0-3.176,1.176-3.176,2.587
			c0,1.568,1.137,2.274,3.607,3.214c3.293,1.255,4.979,2.902,4.979,5.725c0,3.332-2.587,5.685-7.096,5.685
			c-2.078,0-3.999-0.51-5.332-1.293L136.029,527.887z"/>
	</g>
	<g>
		<path class="st3" d="M5.828,549.859l4.156,11.213c0.432,1.255,0.902,2.744,1.215,3.88h0.079c0.353-1.136,0.745-2.587,1.215-3.959
			l3.764-11.135h3.646l-5.175,13.525c-2.47,6.508-4.156,9.84-6.508,11.879c-1.686,1.49-3.372,2.078-4.234,2.234l-0.862-2.901
			c0.862-0.275,1.999-0.823,3.019-1.686c0.941-0.745,2.117-2.078,2.901-3.842c0.157-0.353,0.274-0.628,0.274-0.823
			c0-0.197-0.078-0.471-0.235-0.901l-7.018-17.486H5.828z"/>
	</g>
	<g>
		<path class="st3" d="M39.424,559.189c0,7.018-4.862,10.077-9.448,10.077c-5.136,0-9.096-3.764-9.096-9.763
			c0-6.351,4.156-10.075,9.409-10.075C35.739,549.427,39.424,553.386,39.424,559.189z M24.369,559.386
			c0,4.155,2.391,7.293,5.763,7.293c3.293,0,5.763-3.097,5.763-7.371c0-3.216-1.608-7.293-5.685-7.293
			C26.133,552.015,24.369,555.778,24.369,559.386z"/>
	</g>
	<g>
		<path class="st3" d="M59.259,563.659c0,1.959,0.039,3.685,0.157,5.175h-3.058l-0.196-3.097h-0.078
			c-0.902,1.53-2.902,3.529-6.273,3.529c-2.98,0-6.547-1.648-6.547-8.312v-11.095h3.45v10.506c0,3.607,1.098,6.038,4.234,6.038
			c2.313,0,3.921-1.608,4.548-3.137c0.196-0.51,0.314-1.136,0.314-1.764v-11.643h3.45V563.659z"/>
	</g>
	<g>
		<path class="st3" d="M64.587,555.778c0-2.234-0.039-4.155-0.157-5.92h3.019l0.118,3.724h0.157
			c0.863-2.547,2.941-4.155,5.254-4.155c0.392,0,0.666,0.038,0.98,0.117v3.254c-0.353-0.078-0.706-0.117-1.176-0.117
			c-2.431,0-4.156,1.843-4.626,4.43c-0.079,0.47-0.157,1.02-0.157,1.608v10.115h-3.411V555.778z"/>
	</g>
	<g>
		<path class="st3" d="M88.773,544.526c0.039,1.176-0.823,2.118-2.196,2.118c-1.215,0-2.078-0.941-2.078-2.118
			c0-1.215,0.902-2.156,2.156-2.156C87.95,542.37,88.773,543.311,88.773,544.526z M84.931,568.834v-18.975h3.45v18.975H84.931z"/>
	</g>
	<g>
		<path class="st3" d="M97.868,544.409v5.45h4.94v2.626h-4.94v10.233c0,2.353,0.666,3.685,2.588,3.685
			c0.902,0,1.568-0.118,1.999-0.235l0.157,2.587c-0.667,0.273-1.725,0.47-3.058,0.47c-1.607,0-2.902-0.51-3.725-1.451
			c-0.98-1.018-1.333-2.704-1.333-4.94v-10.35h-2.941v-2.626h2.941v-4.549L97.868,544.409z"/>
	</g>
	<g>
		<path class="st3" d="M107.981,559.974c0.078,4.665,3.058,6.586,6.508,6.586c2.47,0,3.96-0.432,5.254-0.98l0.588,2.469
			c-1.215,0.55-3.293,1.176-6.312,1.176c-5.842,0-9.331-3.842-9.331-9.567c0-5.723,3.371-10.232,8.899-10.232
			c6.195,0,7.841,5.45,7.841,8.939c0,0.705-0.078,1.255-0.117,1.608H107.981z M118.096,557.503c0.04-2.196-0.901-5.606-4.783-5.606
			c-3.489,0-5.018,3.216-5.293,5.606H118.096z"/>
	</g>
	<g>
		<path class="st3" d="M125.306,554.994c0-1.959-0.039-3.567-0.157-5.135h3.019l0.157,3.057h0.117
			c1.059-1.803,2.823-3.489,5.959-3.489c2.587,0,4.548,1.568,5.371,3.802h0.078c0.588-1.058,1.333-1.881,2.117-2.469
			c1.137-0.863,2.392-1.333,4.195-1.333c2.509,0,6.233,1.646,6.233,8.232v11.175h-3.371v-10.743c0-3.645-1.333-5.841-4.117-5.841
			c-1.961,0-3.489,1.451-4.077,3.137c-0.157,0.47-0.275,1.096-0.275,1.724v11.723h-3.372v-11.369c0-3.019-1.333-5.215-3.96-5.215
			c-2.156,0-3.724,1.724-4.273,3.451c-0.196,0.51-0.274,1.098-0.274,1.686v11.448h-3.372V554.994z"/>
	</g>
	<g>
		<path class="st3" d="M157.137,565.305c1.019,0.666,2.823,1.373,4.548,1.373c2.509,0,3.685-1.255,3.685-2.824
			c0-1.646-0.98-2.547-3.528-3.489c-3.411-1.215-5.018-3.097-5.018-5.372c0-3.057,2.47-5.566,6.547-5.566
			c1.921,0,3.607,0.548,4.666,1.176l-0.862,2.509c-0.745-0.472-2.117-1.098-3.882-1.098c-2.038,0-3.176,1.176-3.176,2.587
			c0,1.568,1.137,2.274,3.607,3.214c3.293,1.255,4.979,2.902,4.979,5.725c0,3.332-2.588,5.685-7.096,5.685
			c-2.078,0-3.999-0.51-5.332-1.293L157.137,565.305z"/>
	</g>
</g>
<g>
	<path class="st195" d="M160.841,75.217c0-1.946-0.074-3.874-0.218-5.783l-44.548-44.548l-60.941,98.425l27.301,27.301
		c0.979,0.038,1.961,0.063,2.949,0.063C127.058,150.675,160.841,116.891,160.841,75.217z"/>
	<g>
		<g>
			<path class="st196" d="M59.095,126.66c-3.041,0-5.516-2.474-5.516-5.516V29.289c0-3.041,2.475-5.515,5.516-5.515h52.576
				c3.041,0,5.516,2.474,5.516,5.515v91.855c0,3.042-2.475,5.516-5.516,5.516H59.095z"/>
			<path class="st197" d="M111.67,24.774c2.494,0,4.516,2.022,4.516,4.516v91.855c0,2.494-2.023,4.516-4.516,4.516H59.094
				c-2.494,0-4.515-2.022-4.515-4.516V29.289c0-2.494,2.021-4.516,4.515-4.516H111.67 M111.67,22.774H59.094
				c-3.592,0-6.515,2.923-6.515,6.516v91.855c0,3.593,2.923,6.516,6.515,6.516h52.576c3.593,0,6.516-2.923,6.516-6.516V29.289
				C118.187,25.697,115.263,22.774,111.67,22.774L111.67,22.774z"/>
		</g>
		<path class="st198" d="M111.67,24.774h-6.365c2.494,0,4.516,2.022,4.516,4.516v91.855c0,2.494-2.023,4.516-4.516,4.516h6.365
			c2.494,0,4.516-2.022,4.516-4.516V29.289C116.187,26.796,114.164,24.774,111.67,24.774z"/>
		<path class="st8" d="M59.628,125.66h6.365c-2.494,0-4.516-2.022-4.516-4.516V29.289c0-2.494,2.023-4.516,4.516-4.516h-6.365
			c-2.494,0-4.516,2.022-4.516,4.516v91.855C55.112,123.638,57.134,125.66,59.628,125.66z"/>
		<circle class="st199" cx="85.383" cy="50.476" r="17.98"/>
		<circle class="st200" cx="85.383" cy="50.476" r="13.366"/>
		<path class="st201" d="M76.154,50.476c0-5.093,4.133-9.229,9.229-9.229"/>
		<circle class="st197" cx="85.383" cy="50.476" r="5.728"/>
		<radialGradient id="SVGID_2_" cx="87.9825" cy="50.3693" r="4.0844" gradientUnits="userSpaceOnUse">
			<stop  offset="0" style="stop-color:#FFFFFF;stop-opacity:0.5"/>
			<stop  offset="1" style="stop-color:#FFFFFF;stop-opacity:0"/>
		</radialGradient>
		<circle style="fill:url(#SVGID_2_);" cx="85.649" cy="50.476" r="4.084"/>
		<circle class="st2" cx="67.403" cy="33.86" r="3.408"/>
	</g>
	<path class="st195" d="M161.406,743.323l-36.531-36.531l-67.283,71.65l27.067,27.067c0.812,0.026,1.627,0.044,2.446,0.044
		C124.265,805.553,155.152,778.69,161.406,743.323z"/>
	<g>
		<path class="st8" d="M62.87,780.581c-4.412,0-8.001-3.589-8.001-8.001v-84.969c0-4.412,3.589-8.002,8.001-8.002h35.16
			l26.988,26.988v65.982c0,4.412-3.589,8.001-8.001,8.001H62.87z"/>
		<path class="st197" d="M97.616,680.61l26.402,26.402v65.568c0,3.867-3.135,7.001-7.001,7.001H62.87
			c-3.867,0-7.001-3.135-7.001-7.001v-84.969c0-3.867,3.134-7.001,7.001-7.001H97.616 M98.445,678.61h-0.828H62.87
			c-4.963,0-9.001,4.038-9.001,9.001v84.969c0,4.963,4.038,9.001,9.001,9.001h54.147c4.963,0,9.001-4.038,9.001-9.001v-65.568
			v-0.828l-0.586-0.586L99.03,679.196L98.445,678.61L98.445,678.61z"/>
	</g>
	<path class="st196" d="M97.616,680.61H87.433l26.402,26.402v65.568c0,3.867-3.135,7.001-7.001,7.001h10.184
		c3.866,0,7.001-3.135,7.001-7.001v-65.568L97.616,680.61z"/>
	<g>
		<path class="st203" d="M104.617,708.012c-4.412,0-8.001-3.589-8.001-8.001v-19.401c0-0.404,0.244-0.77,0.617-0.924
			c0.124-0.052,0.254-0.076,0.383-0.076c0.26,0,0.516,0.102,0.707,0.293l26.402,26.402c0.286,0.286,0.372,0.716,0.217,1.09
			s-0.52,0.617-0.924,0.617H104.617z"/>
		<path class="st197" d="M97.616,680.61l26.402,26.402h-19.401c-3.866,0-7.001-3.134-7.001-7.001V680.61 M97.616,678.61
			c-0.258,0-0.517,0.05-0.765,0.152c-0.747,0.31-1.235,1.039-1.235,1.848v19.401c0,4.963,4.038,9.001,9.001,9.001h19.401
			c0.809,0,1.538-0.487,1.848-1.235s0.138-1.608-0.434-2.18L99.03,679.196C98.648,678.813,98.136,678.61,97.616,678.61
			L97.616,678.61z"/>
	</g>
	<line class="st204" x1="61.597" y1="693.811" x2="93.102" y2="693.811"/>
	<line class="st204" x1="61.597" y1="704.477" x2="93.102" y2="704.477"/>
	<line class="st204" x1="61.597" y1="715.144" x2="117.925" y2="715.144"/>
	<line class="st204" x1="61.597" y1="725.81" x2="76.236" y2="725.81"/>
	<line class="st204" x1="81.169" y1="725.81" x2="117.925" y2="725.81"/>
	<line class="st204" x1="61.597" y1="736.477" x2="117.925" y2="736.477"/>
	<line class="st204" x1="61.597" y1="747.143" x2="93.102" y2="747.143"/>
	<line class="st204" x1="97.616" y1="747.143" x2="118.72" y2="747.143"/>
	<path class="st204" d="M95.553,756.71c0,0-0.701-1.939-3.846-1.939c-2.709,0-4.729,0.842-4.729,3.278
		c0,4.113,9.314,3.679,9.312,7.757c-0.001,1.607-0.802,3.747-4.391,3.747c-3.855,0-4.822-2.14-4.822-2.14"/>
	<line class="st204" x1="91.683" y1="753.12" x2="91.683" y2="771.158"/>
	<path class="st195" d="M41.319,439.106l32.202,32.202c4.792,0.955,9.747,1.459,14.819,1.459c41.674,0,75.457-33.784,75.457-75.458
		c0-0.126-0.004-0.25-0.004-0.376l-43.331-43.331L41.319,439.106z"/>
	<g>
		<path class="st203" d="M127.797,440.105c-1.975,0-3.521-1.197-3.521-2.726v-7.198c0-1.529,1.546-2.727,3.521-2.727h4.035
			c1.975,0,3.521,1.197,3.521,2.727v7.198c0,1.528-1.547,2.726-3.521,2.726H127.797z"/>
		<path class="st197" d="M131.831,428.455c1.392,0,2.522,0.773,2.522,1.726v7.198c0,0.953-1.129,1.726-2.522,1.726h-4.034
			c-1.392,0-2.521-0.773-2.521-1.726v-7.198c0-0.953,1.129-1.726,2.521-1.726H131.831 M131.831,426.455h-4.034
			c-2.535,0-4.521,1.637-4.521,3.726v7.198c0,2.089,1.986,3.726,4.521,3.726h4.034c2.536,0,4.522-1.637,4.522-3.726v-7.198
			C136.353,428.092,134.367,426.455,131.831,426.455L131.831,426.455z"/>
	</g>
	<path class="st205" d="M131.831,428.455h-2.276c1.392,0,2.521,0.773,2.521,1.726v7.198c0,0.953-1.129,1.726-2.521,1.726h2.276
		c1.392,0,2.522-0.773,2.522-1.726v-7.198C134.353,429.228,133.224,428.455,131.831,428.455z"/>
	<g>
		<path class="st203" d="M43.84,440.105c-1.975,0-3.521-1.197-3.521-2.726v-7.198c0-1.529,1.546-2.727,3.521-2.727h4.035
			c1.975,0,3.521,1.197,3.521,2.727v7.198c0,1.528-1.547,2.726-3.521,2.726H43.84z"/>
		<path class="st197" d="M47.875,428.455c1.392,0,2.522,0.773,2.522,1.726v7.198c0,0.953-1.129,1.726-2.522,1.726H43.84
			c-1.392,0-2.521-0.773-2.521-1.726v-7.198c0-0.953,1.129-1.726,2.521-1.726H47.875 M47.875,426.455H43.84
			c-2.535,0-4.521,1.637-4.521,3.726v7.198c0,2.089,1.986,3.726,4.521,3.726h4.035c2.535,0,4.522-1.637,4.522-3.726v-7.198
			C52.396,428.092,50.41,426.455,47.875,426.455L47.875,426.455z"/>
	</g>
	<path class="st205" d="M47.875,428.455h-2.276c1.392,0,2.521,0.773,2.521,1.726v7.198c0,0.953-1.129,1.726-2.521,1.726h2.276
		c1.392,0,2.522-0.773,2.522-1.726v-7.198C50.396,429.228,49.267,428.455,47.875,428.455z"/>
	<g>
		<path class="st206" d="M68.908,405.681c-10.633,0-19.283-8.65-19.283-19.284v-18.693c0-10.633,8.65-19.283,19.283-19.283h37.879
			c10.633,0,19.284,8.65,19.284,19.283v18.693c0,10.634-8.65,19.284-19.284,19.284H68.908z"/>
		<path class="st197" d="M106.787,349.42c10.098,0,18.284,8.186,18.284,18.283v18.694c0,10.098-8.186,18.284-18.284,18.284H68.909
			c-10.098,0-18.284-8.185-18.284-18.284v-18.694c0-10.096,8.186-18.283,18.284-18.283H106.787 M106.787,347.42H68.909
			c-11.184,0-20.284,9.099-20.284,20.283v18.694c0,11.184,9.099,20.284,20.284,20.284h37.879c11.184,0,20.284-9.099,20.284-20.284
			v-18.694C127.071,356.519,117.972,347.42,106.787,347.42L106.787,347.42z"/>
	</g>
	<path class="st205" d="M106.787,349.42h-8.879c10.097,0,18.284,8.186,18.284,18.283v18.694c0,10.098-8.186,18.284-18.284,18.284
		h8.879c10.098,0,18.284-8.185,18.284-18.284v-18.694C125.071,357.606,116.885,349.42,106.787,349.42z"/>
	<rect x="51.117" y="402.261" class="st207" width="73.134" height="26.969"/>
	<g>
		<path class="st208" d="M126.383,434.337c-3.264,0-5.92-2.394-5.92-5.336v-48.43c0-2.941,2.656-5.335,5.92-5.335h7.87
			c3.264,0,5.92,2.394,5.92,5.335v48.43c0,2.942-2.656,5.336-5.92,5.336H126.383z"/>
		<path class="st197" d="M134.254,376.236c2.717,0,4.92,1.941,4.92,4.335v48.43c0,2.395-2.202,4.336-4.92,4.336h-7.87
			c-2.717,0-4.92-1.941-4.92-4.336v-48.43c0-2.394,2.203-4.335,4.92-4.335H134.254 M134.254,374.236h-7.87
			c-3.816,0-6.92,2.842-6.92,6.335v48.43c0,3.494,3.104,6.336,6.92,6.336h7.87c3.815,0,6.92-2.842,6.92-6.336v-48.43
			C141.173,377.078,138.069,374.236,134.254,374.236L134.254,374.236z"/>
	</g>
	<path class="st209" d="M68.909,404.68h8.88c-10.098,0-18.284-8.185-18.284-18.283v-18.694c0-10.097,8.186-18.284,18.284-18.284
		h-8.88c-10.098,0-18.284,8.186-18.284,18.284v18.694C50.625,396.495,58.811,404.68,68.909,404.68z"/>
	<g>
		<path class="st208" d="M42.426,434.337c-3.264,0-5.919-2.394-5.919-5.336v-48.43c0-2.941,2.655-5.335,5.919-5.335h7.871
			c3.264,0,5.919,2.394,5.919,5.335v48.43c0,2.942-2.655,5.336-5.919,5.336H42.426z"/>
		<path class="st197" d="M50.297,376.236c2.717,0,4.919,1.941,4.919,4.335v48.43c0,2.395-2.202,4.336-4.919,4.336h-7.871
			c-2.717,0-4.92-1.941-4.92-4.336v-48.43c0-2.394,2.203-4.335,4.92-4.335H50.297 M50.297,374.236h-7.871
			c-3.815,0-6.92,2.842-6.92,6.335v48.43c0,3.494,3.104,6.336,6.92,6.336h7.871c3.815,0,6.919-2.842,6.919-6.336v-48.43
			C57.216,377.078,54.112,374.236,50.297,374.236L50.297,374.236z"/>
	</g>
	<path class="st205" d="M50.297,376.236h-4.439c2.716,0,4.919,1.941,4.919,4.335v48.43c0,2.395-2.203,4.336-4.919,4.336h4.439
		c2.717,0,4.919-1.941,4.919-4.336v-48.43C55.216,378.177,53.014,376.236,50.297,376.236z"/>
	<path class="st205" d="M134.254,376.236h-4.439c2.717,0,4.919,1.941,4.919,4.335v48.43c0,2.395-2.202,4.336-4.919,4.336h4.439
		c2.717,0,4.92-1.941,4.92-4.336v-48.43C139.173,378.177,136.971,376.236,134.254,376.236z"/>
	<path class="st210" d="M121.463,395.527c0-3.532-2.863-6.395-6.395-6.395H61.612c-3.532,0-6.396,2.863-6.396,6.395v6.038
		c0,3.532,2.864,6.395,6.396,6.395h53.457c3.532,0,6.395-2.863,6.395-6.395V395.527z"/>
	<circle class="st211" cx="81.33" cy="362.821" r="1.607"/>
	<circle class="st211" cx="81.33" cy="375.501" r="1.607"/>
	<circle class="st211" cx="94.367" cy="362.821" r="1.607"/>
	<circle class="st211" cx="94.367" cy="375.501" r="1.607"/>
</g>
</svg>
