<?xml version="1.0" encoding="utf-8"?>
<!-- Generator: Adobe Illustrator 20.0.0, SVG Export Plug-In . SVG Version: 6.00 Build 0)  -->
<svg version="1.1" id="Layer_4" xmlns="http://www.w3.org/2000/svg" xmlns:xlink="http://www.w3.org/1999/xlink" x="0px" y="0px"
	 width="400px" height="600px" viewBox="0 0 400 600" style="enable-background:new 0 0 400 600;" xml:space="preserve">
<style type="text/css">
	
</style>
<g id="g1">
	<g>
		<path class="st0" d="M192.024,339.307c-0.046-5.31-3.211-9.602-8.257-11.2c-1.015-0.322-1.148-0.63-1.139-1.685
			c0.048-4.906,0.087-10.715,0-16.6c-0.149-10.533-8.501-18.829-19.014-18.887c-4.572-0.024-9.144-0.019-13.717-0.012
			c-2.048,0.003-4.096,0.006-6.143,0.006h-20.06c-9.566,0.113-17.699,7.397-18.515,16.582c-0.418,4.688-0.37,9.476-0.325,14.108
			c0.017,1.612,0.033,3.224,0.03,4.834c0,1.044-0.136,1.35-1.154,1.683c-4.803,1.541-8.174,6.003-8.199,10.852
			c-0.039,7.542-0.039,15.209-0.039,22.624c0,5.89,0,11.779-0.019,17.669c-0.002,0.532,0.057,1.301,0.587,1.832
			c0.512,0.513,1.223,0.579,1.786,0.579l0.15-0.002c0.74-0.016,1.483-0.043,2.224-0.072c1.065-0.04,2.166-0.083,3.237-0.083
			c1.339,0,2.441,0.064,3.467,0.201c0.641,0.088,1.252,0.132,1.817,0.132c3.683,0,5.988-1.841,7.042-5.626
			c0.257-0.918,0.751-1.198,2.165-1.198h0.001c3.217,0.01,6.433,0.026,9.65,0.041c5.501,0.027,11.002,0.053,16.505,0.053
			c8.212,0,14.977-0.06,21.291-0.189c4.319-0.088,7.065,0.574,8.292,4.895c0.265,0.928,1.641,1.747,2.579,1.767
			c2.311,0.056,4.654,0.06,6.669,0.06l2.239-0.001c1.467,0,2.936,0.003,4.461,0.021c0.532,0,1.301-0.063,1.843-0.607
			c0.545-0.546,0.606-1.325,0.604-1.86c-0.009-4.769-0.006-9.539-0.002-14.307C192.086,356.521,192.093,347.842,192.024,339.307z
			 M186.792,375.07c1.11,0,2.493,0,2.746,0.282c0.258,0.288,0.11,1.67-0.044,3.114c-0.046,0.178-0.385,0.556-0.573,0.645
			c-1.89,0.048-3.86,0.072-6.022,0.072c-2.07,0-4.14-0.022-6.212-0.054c-0.166-0.002-0.567-0.23-0.673-0.408
			c-0.565-0.962-1.067-1.974-1.648-3.146c-0.082-0.166-0.166-0.333-0.251-0.506L186.792,375.07z M111.308,379.086
			c-0.058,0.022-0.144,0.041-0.199,0.042c-2.567,0.012-5.132,0.015-7.722,0.015l-5.183-0.001v-3.903h15.139l-0.113,0.219
			C112.578,376.716,111.963,377.905,111.308,379.086z M107.444,315.649c-0.009-1.72-0.018-3.442-0.011-5.163
			c0.033-9.667,7.357-16.965,17.036-16.978c7.027-0.01,14.051-0.015,21.079-0.015c5.885,0,11.771,0.004,17.657,0.013
			c9.644,0.017,16.735,7.053,16.859,16.729c0.027,2.276,0.02,4.554,0.012,6.834c-0.01,2.941-0.021,5.983,0.046,8.975
			c0.015,0.664-0.057,1.081-0.213,1.241c-0.154,0.157-0.551,0.237-1.223,0.237h-0.001c-5.006-0.032-10.358-0.046-17.353-0.046
			l-4.584,0.002c2.08-0.82,3.446-2.793,3.448-5.274c0.009-6.056-5.073-11.331-11.096-11.519c-3.305-0.101-6.852-0.101-10.643,0
			c-5.913,0.161-10.957,5.343-11.016,11.316c-0.028,2.758,1.197,4.687,3.37,5.483l-4.148-0.002c-5.164,0-11.289,0.005-17.624,0.045
			c-0.792,0-1.244-0.086-1.423-0.27c-0.177-0.182-0.258-0.642-0.238-1.331C107.481,322.496,107.462,319.014,107.444,315.649z
			 M150.094,325.33l-6.336-0.01l-3.044,0.006c-2.451,0.006-4.901,0.012-7.347-0.011c-1.183-0.012-2.066-0.327-2.623-0.934
			c-0.569-0.619-0.812-1.553-0.721-2.772c0.347-4.587,4.205-8.257,8.782-8.354c1.614-0.032,3.229-0.047,4.842-0.047
			c1.723,0,3.452,0.019,5.139,0.055c4.489,0.097,8.435,3.858,8.796,8.381c0.088,1.135-0.168,2.064-0.738,2.685
			c-0.581,0.632-1.509,0.973-2.687,0.983C152.801,325.326,151.447,325.33,150.094,325.33z M98.189,345.191l31.971,0.002
			c18.32,0,38.013-0.006,57.901-0.046c0.691,0,1.127,0.087,1.294,0.257c0.167,0.17,0.241,0.604,0.227,1.328
			c-0.112,6.176-0.071,12.25-0.016,17.377c0.007,0.691-0.092,0.938-0.177,1.024c-0.07,0.07-0.288,0.188-0.962,0.188
			c-23.04-0.03-46.082-0.031-69.123-0.032l-20.152-0.001c-0.301-0.002-0.623-0.037-0.964-0.079V345.191z M189.493,341.919
			c-0.046,0.168-0.46,0.583-0.742,0.67c-0.348,0.106-0.909,0.094-1.467,0.061c-0.267-0.016-0.535-0.031-0.798-0.031H98.239
			c-0.545-3.688,0.158-6.822,2.05-9.094c1.927-2.316,4.936-3.541,8.699-3.542c23.197-0.008,46.391-0.007,69.582-0.002
			c3.596,0.001,6.524,1.127,8.465,3.257C188.971,335.363,189.82,338.373,189.493,341.919z M98.224,367.846
			c0.03-0.002,0.059-0.004,0.089-0.006c0.492-0.032,0.965-0.063,1.44-0.063l51.217-0.003l36.3,0.001c0.922,0,1.968,0,2.12,0.157
			c0.159,0.164,0.159,1.198,0.159,2.2v2.306H98.224V367.846z"/>
	</g>
	<g>
		<path class="st0" d="M76.57,375.079v-12.323c0.002-22.373,0.002-44.742-0.025-67.109c0-1.182,0.093-1.635,1.125-2.088
			c3.356-1.45,4.869-4.843,3.951-8.855l-0.142-0.62H8.254l-0.125,0.645c-0.796,4.08,0.549,7.247,3.694,8.693
			c1.214,0.552,1.418,1.116,1.418,2.525c-0.031,20.146-0.028,40.289-0.025,60.431l0.002,17.263
			c-0.004,7.007,0.957,7.978,7.906,7.987c2.723,0,4.24-0.41,5.233-1.417c0.966-0.98,1.363-2.481,1.328-5.019
			c-0.009-0.761,0.118-1.051,0.226-1.159c0.155-0.156,0.554-0.232,1.221-0.232h0.087c5.006,0.034,10.012,0.042,15.018,0.042
			l17.707-0.01c0.009,0.03,0.017,0.055,0.02,0.077c-0.21,2.954,0.225,4.902,1.368,6.132c1.347,1.446,3.442,1.645,5.505,1.645
			c0.414,0,0.846-0.01,1.296-0.025C75.126,381.485,76.57,380.008,76.57,375.079z M22.106,379.088
			c-0.403,0.017-0.806,0.022-1.209,0.022l-1.244-0.007c-1.705-0.013-2.701-0.262-3.23-0.808c-0.528-0.543-0.748-1.538-0.712-3.228
			c0.006-0.329,0.036-0.659,0.071-1.056c0.005-0.056,0.01-0.114,0.016-0.173l3.528-0.002c1.857,0,3.677,0.005,5.494,0.028
			c0.099,0.002,0.325,0.098,0.355,0.111c0.512,1.037,0.448,2.28-0.171,3.326C24.374,378.369,23.29,379.036,22.106,379.088z
			 M79.147,286.652c0.132,1.025-0.122,2.093-0.727,3.007c-0.763,1.151-1.97,1.912-3.314,2.084c-0.252,0.033-0.519,0.037-0.771,0.037
			l-0.471-0.002l-29.334,0.004c-9.572,0-19.145-0.002-28.718-0.01c-1.7-0.002-3.072-0.504-3.968-1.453
			c-0.82-0.867-1.266-2.126-1.304-3.667C10.539,286.652,79.147,286.652,79.147,286.652z M15.849,371.07
			c-0.067-0.067-0.179-0.279-0.177-0.948c0.028-17.656,0.03-35.31,0.032-52.965l0.004-21.65c0-0.313,0.038-0.637,0.084-1.009h58.034
			v76.721l-21.912-0.002c-11.68,0-23.36,0.006-35.065,0.036C16.171,371.252,15.932,371.153,15.849,371.07z M64.572,374.008
			c0.099-0.054,0.375-0.137,0.701-0.149c0.663-0.028,1.326-0.035,1.989-0.035l2.193,0.009c0.384,0,0.766,0.007,1.149,0.013
			c0.913,0.015,1.824,0.028,2.737-0.028c0.366-0.023,0.57,0.044,0.602,0.08c0.005,0.005,0.107,0.122,0.062,0.633
			c-0.032,0.394-0.028,0.774-0.023,1.143c0.004,0.326,0.009,0.65-0.017,0.973c-0.113,1.408-0.972,2.298-2.296,2.38
			c-1.659,0.106-3.122,0.111-4.491,0.018c-0.965-0.065-1.918-0.792-2.486-1.897C64.126,376.044,64.082,374.845,64.572,374.008z"/>
	</g>
	<g>
		<path class="st0" d="M138.102,220.835H94.519v54.918h43.583V220.835z M130.946,243.361c0.003,1.716,0.006,3.434,0.006,5.15
			c0,1.693-0.003,3.386-0.007,5.079c-0.009,4.462-0.018,9.075,0.038,13.615c0.003,0.248,0.013,1-0.197,1.213
			c-0.076,0.077-0.31,0.206-1.096,0.206h-0.005c-4.249-0.043-8.737-0.065-13.336-0.065c-4.486,0-8.973,0.021-13.51,0.056
			c-0.692,0-0.917-0.122-0.99-0.195c-0.132-0.133-0.198-0.501-0.195-1.095c0.052-13.059,0.052-25.83,0-37.958
			c-0.002-0.248-0.005-1,0.206-1.212c0.076-0.078,0.314-0.207,1.097-0.207h0.002c4.168,0.042,8.573,0.065,13.096,0.065
			c4.345,0,8.826-0.019,13.767-0.059c0.68,0,0.901,0.121,0.972,0.193c0.091,0.093,0.198,0.356,0.188,1.091
			C130.929,233.946,130.938,238.732,130.946,243.361z M103.257,271.08l0.229,0.004c3.162,0.099,6.595,0.144,10.801,0.144
			c2.43,0,4.858-0.015,7.288-0.03c2.331-0.014,4.663-0.028,7.004-0.03c3.011,0,3.474,0,5.078,1.977H99.033
			C100.274,271.812,101.38,271.08,103.257,271.08z M133.44,230c-0.039-2.059,0.653-3.365,2.046-4.708v45.987
			c-1.493-1.383-2.084-2.9-2.046-5.049C133.656,254.102,133.656,241.913,133.44,230z M129.743,225.481L129.743,225.481l-0.143-0.002
			c-4.698-0.109-9.038-0.162-13.27-0.162c-4.405,0-8.704,0.06-12.778,0.18l-0.227,0.004c-1.902,0-3.074-0.776-4.32-2.117h34.626
			C132.473,224.62,131.528,225.481,129.743,225.481z M99.177,264.672l0.017,3.444c0.009,1.341-0.737,1.985-1.681,2.8
			c-0.132,0.114-0.266,0.23-0.399,0.348v-46.009c1.364,1.264,2.154,2.453,2.123,4.484C99.06,241.381,99.121,253.221,99.177,264.672z
			"/>
	</g>
	<g>
		<path class="st0" d="M14.421,275.843c9.707,0.012,19.411,0.012,29.117,0.012c1.08,0,1.928-0.303,2.523-0.899
			c0.569-0.57,0.857-1.361,0.854-2.349c-0.005-2.002-1.272-3.214-3.39-3.239c-0.443-0.006-0.885-0.007-1.343-0.007l-1.249,0.002
			c0.002-0.193,0.005-0.383,0.007-0.566c0.012-0.884,0.022-1.647-0.021-2.436c-0.223-3.866-2.682-6.292-6.416-6.333
			c-1.077-0.015-1.175-0.116-1.17-1.202c0.022-3.704,0.03-7.444,0.033-11.154l9.027,0.008c1.947,0,3.876-0.004,5.802-0.015
			l0.232-0.001c0.34,0,0.643,0.004,0.911,0.008c0.221,0.003,0.419,0.006,0.597,0.006c0.737,0,1.382-0.037,1.828-0.501
			c0.509-0.531,0.48-1.246,0.422-2.673c-0.013-0.298-0.026-0.634-0.037-1.014c-0.139-4.374-0.753-10.014-4.283-14.845
			c-0.435-0.601-1.004-1.53-1.247-2.55c-1.288-5.42-5.598-8.923-10.981-8.923c-0.466,0-0.943,0.027-1.417,0.078
			c-5.602,0.613-9.668,5.385-9.668,11.348c0.001,3.013-0.001,6.026-0.002,9.039c-0.003,6.961-0.007,14.159,0.025,21.238
			c0.004,1.053-0.063,1.128-1.018,1.154c-4.025,0.1-6.387,2.514-6.483,6.625c-0.03,1.204-0.053,2.157-0.264,2.368
			c-0.223,0.223-1.212,0.274-2.463,0.339c-2.122,0.106-3.337,1.298-3.337,3.273C11.014,274.643,12.29,275.843,14.421,275.843z
			 M26.226,271.943l11.936,0.002l4.77-0.002c0.347,0,1.069,0,1.27,0.209c0.104,0.109,0.109,0.366,0.103,0.516
			c-0.015,0.416-0.022,0.606-1.512,0.606c-6.28-0.007-12.56-0.008-18.84-0.008l-8.69-0.001c-0.079,0-0.164,0.006-0.249,0.014
			c0,0-0.005,0-0.008,0.001c-0.328-0.233-0.647-0.472-0.972-0.723c0.225-0.225,0.539-0.528,0.672-0.554
			c1.606-0.055,3.315-0.08,5.544-0.08c0.993,0,1.988,0.005,2.981,0.009C24.229,271.939,25.227,271.943,26.226,271.943z
			 M35.407,242.791c0.288-4.985,1.083-9.034,3.701-12.426c1.069-1.383,2.228-2.114,3.353-2.114c1.126,0,2.286,0.734,3.356,2.122
			c2.806,3.643,3.427,7.94,3.737,12.417L35.407,242.791L35.407,242.791z M40.494,226.016l-0.504,0.033
			c-0.055-0.082-0.114-0.172-0.172-0.264c-1.217-1.939-3.141-2.723-5.337-2.188c-2.127,0.506-3.429,2.091-3.664,4.459
			c-0.058,0.553-0.048,1.099-0.038,1.626c0.003,0.192,0.007,0.385,0.007,0.576v29.575h-3.572c-0.039-0.263-0.071-0.498-0.071-0.722
			l-0.005-2.822c-0.015-9.245-0.032-18.805,0.012-28.21c0.014-4.066,2.992-7.522,7.081-8.219c0.475-0.081,0.96-0.122,1.44-0.122
			c3.552,0,6.764,2.223,7.992,5.534c0.063,0.169,0.113,0.349,0.158,0.533C42.683,225.874,41.621,225.943,40.494,226.016z
			 M25.258,261.681l0.029,0.798h0.405c0.887,0,1.774-0.004,2.66-0.008c1.854-0.009,3.713-0.017,5.572,0.012
			c1.601,0.025,3.081,0.849,3.958,2.207c0.873,1.35,1.025,2.958,0.418,4.422c-0.121,0.086-0.454,0.208-0.691,0.212
			c-1.496,0.03-2.998,0.036-4.498,0.036l-4.326-0.007h-0.399c-0.755,0-1.51-0.003-2.266-0.006c-1.935-0.007-3.822-0.014-5.884,0.026
			c-0.562,0-0.663,0-0.697-0.798c-0.109-2.354,0.244-3.875,1.113-4.784c0.856-0.897,2.32-1.315,4.608-1.315L25.258,261.681
			L25.258,261.681z M33.373,229.325c0.003-0.496,0.032-1.225,0.244-1.827c0.311-0.9,0.935-1.436,1.668-1.436
			c0.119,0,0.244,0.014,0.373,0.041c0.623,0.132,1.404,0.674,1.932,1.331c-0.039,0.259-0.272,0.848-0.567,1.269
			c-1.972,2.788-3.078,5.737-3.657,8.957C33.367,234.879,33.368,232.101,33.373,229.325z"/>
	</g>
	<g>
		<path class="st0" d="M59.374,246.67c0.095,0.018,0.21,0.038,0.319,0.06l-0.069,0.826c-0.107,1.286-0.198,2.382-0.296,3.482
			l-0.081,0.908l2.487-0.107c0.824-0.035,1.656-0.07,2.517-0.109c0.166,0.649,0.586,1.22,0.97,1.744
			c0.595,0.811,0.994,1.425,0.965,2.143c-1.466-0.478-2.867-0.937-4.264-1.399l-0.789-0.26l-0.666,2.345l1.683,0.626
			c0.828,0.31,1.655,0.618,2.489,0.917c0.7,0.251,1.495,0.536,1.587,0.731c0.091,0.191-0.023,0.806-0.179,1.5h-7.911l1.26,4.324
			c0.983,3.391,1.914,6.595,2.911,9.782c0.257,0.849,1.378,1.566,2.17,1.616c0.575,0.036,1.181,0.052,1.963,0.052
			c0.373,0,0.745-0.004,1.118-0.008c0.903-0.008,1.807-0.017,2.707,0.028c0.081,0.004,0.159,0.006,0.235,0.006
			c1.752,0,2.283-1.141,2.549-2.137c0.576-2.153,1.213-4.334,1.829-6.442c0.326-1.118,0.653-2.235,0.972-3.352
			c0.178-0.611,0.325-1.231,0.505-1.997c0.084-0.357,0.176-0.747,0.282-1.183l0.241-0.987H70.65l2.401-1.037l-0.766-1.952
			l-3.502,0.844c0.005-0.168,0.009-0.332,0.013-0.495c0.025-1.008,0.045-1.878,0.288-2.64c0.272-0.856,0.813-1.668,1.29-2.384
			c0.097-0.145,0.19-0.285,0.277-0.42l5.188,0.296l-0.183-2.111c-0.086-0.977-0.173-1.979-0.27-3.066
			c0.104-0.025,0.214-0.048,0.322-0.072c1.125-0.244,3.22-0.697,2.909-3.092c-0.143-1.115-1.278-1.865-2.377-2.59
			c-0.283-0.186-0.555-0.366-0.799-0.544c0.046-0.226,0.106-0.472,0.168-0.729c0.292-1.215,0.624-2.593-0.049-3.522
			c-0.665-0.927-1.441-1.122-1.977-1.122c-0.862,0-1.626,0.478-2.239,0.863c-0.077,0.048-0.169,0.106-0.258,0.16
			c-0.247-0.32-0.48-0.654-0.709-0.981c-0.788-1.126-1.533-2.191-2.615-2.351c-0.182-0.027-0.351-0.039-0.509-0.039
			c-1.988,0-2.348,1.841-2.541,2.829c-0.021,0.106-0.044,0.227-0.069,0.341c-0.381-0.051-0.769-0.12-1.15-0.188
			c-0.737-0.131-1.432-0.255-2.063-0.255c-0.678,0-1.201,0.149-1.603,0.457c-1.838,1.416-0.656,3.235-0.088,4.11
			c0.06,0.093,0.125,0.193,0.186,0.29c-0.298,0.215-0.612,0.422-0.917,0.624c-1.151,0.761-2.237,1.48-2.429,2.57
			C56.143,246.085,58.407,246.495,59.374,246.67z M72.632,265.796l-0.003-1.784H62.493l0.039,0.835
			c0.008,0.167,0.02,0.335,0.032,0.52l0.051,0.744h9.924c-0.672,2.298-1.33,4.522-2.028,6.744c-0.087,0.074-0.304,0.191-0.44,0.264
			c-0.092,0.049-0.183,0.1-0.274,0.153c-0.044-0.003-0.093-0.009-0.162-0.004c-0.924,0.036-1.692,0.067-2.338,0.067
			c-2.639,0-2.688-0.175-3.962-4.659c-0.415-1.476-0.839-2.949-1.282-4.488l-0.438-1.526h11.932l-0.455,1.556
			C72.937,264.752,72.784,265.274,72.632,265.796z M61.783,249.187c0.484-1.301,1.396-2.097,3.04-2.595
			c-0.486,1.606-1.303,2.54-2.605,3.037c-0.057,0.022-0.281,0.031-0.501,0.007C61.724,249.46,61.74,249.303,61.783,249.187z
			 M61.318,244.539c-0.513,0-1.012-0.113-1.524-0.348c-0.132-0.06-0.277-0.196-0.429-0.355c0.15-0.162,0.292-0.3,0.423-0.363
			c1.286-0.625,2.557-0.335,3.908,0.363C62.941,244.237,62.132,244.539,61.318,244.539z M73.336,249.552
			c-0.293-0.007-0.559-0.028-0.746-0.107c-1.138-0.49-1.834-1.347-2.258-2.847c1.422,0.437,2.37,1.055,2.87,2.285
			C73.277,249.068,73.311,249.3,73.336,249.552z M67.559,252.081c-0.807-0.887-0.944-1.76,0.008-4.066
			C68.477,250.233,68.346,251.247,67.559,252.081z M71.585,243.773c1.79-0.873,3.001-0.861,4.258-0.018
			c-0.443,0.519-0.935,0.74-1.595,0.74C73.568,244.495,72.705,244.263,71.585,243.773z M73.249,238.681
			c-0.508,1.298-1.505,1.957-2.935,2.4c0.509-1.577,1.269-2.472,2.467-2.973c0.132-0.054,0.319-0.072,0.53-0.08
			C73.317,238.283,73.31,238.524,73.249,238.681z M67.579,239.915c-0.842-1.525-0.923-2.742-0.311-4.022
			c0.069-0.145,0.183-0.296,0.282-0.399c0.099,0.107,0.213,0.259,0.286,0.405C68.466,237.198,68.402,238.416,67.579,239.915z
			 M62.397,238.129c1.188,0.486,1.93,1.378,2.418,2.969c-1.6-0.488-2.49-1.247-2.965-2.469c-0.056-0.146-0.077-0.34-0.088-0.555
			C61.958,238.067,62.212,238.055,62.397,238.129z"/>
	</g>
	<g>
		<path class="st0" d="M170.41,230.454c-12.507,0.024-22.663,10.257-22.639,22.81c0.021,12.448,10.161,22.58,22.606,22.588h0.01
			c12.727,0,22.706-9.949,22.718-22.651c0.006-6.089-2.345-11.805-6.62-16.095C182.212,232.817,176.513,230.454,170.41,230.454z
			 M190.552,253.213c-0.082,11.247-8.989,20.056-20.278,20.056l-0.157-0.001c-10.783-0.084-19.86-9.296-19.82-20.117
			c0.034-10.908,9.255-20.124,20.138-20.124h0.138C181.48,233.106,190.629,242.35,190.552,253.213z"/>
	</g>
	<g>
		<polygon class="st0" points="104.913,337.308 182.524,337.308 182.524,335.229 104.711,335.229 		"/>
	</g>
	<g>
		<path class="st0" d="M73.329,346.859l-1.24-0.092c-0.417-0.034-0.792-0.063-1.165-0.065l-14.895-0.009
			c-12.375-0.006-24.748-0.012-37.139-0.051c-0.623,0-1.408,0.069-1.943,0.611c-0.534,0.541-0.595,1.323-0.588,1.942
			c0.038,4.202,0.036,8.477,0.036,12.611c-0.001,2.28-0.002,4.559,0.004,6.838c0,0.327,0.052,0.622,0.103,0.909
			c0.018,0.101,0.036,0.201,0.05,0.304l0.1,0.683h56.678V346.859z M18.94,350.176c-0.008-0.614,0.094-0.784,0.138-0.829
			c0.035-0.035,0.193-0.148,0.813-0.148c12.008,0.03,24.015,0.031,36.025,0.032l14.102,0.003c0.225,0,0.471,0.032,0.809,0.075
			l0.001,2.064c0.001,5.624,0.002,10.938-0.047,16.352c-0.091,0.11-0.326,0.302-0.548,0.407c-0.002,0.001-0.046,0.02-0.193,0.02
			c-0.113,0-0.232-0.009-0.349-0.019c-0.157-0.012-0.312-0.023-0.462-0.023l-23.433-0.008c-6.921,0-16.056,0.006-25.385,0.046
			c-0.674,0-1.099-0.085-1.263-0.252c-0.165-0.169-0.24-0.61-0.225-1.311C19.037,361.342,19,356.267,18.94,350.176z"/>
	</g>
	<g>
		<path class="st0" d="M18.321,344.843l11.557,0.001c13.465,0,27.387,0,41.077,0.038h0.035c0.542,0,1.322-0.063,1.859-0.606
			c0.53-0.536,0.597-1.289,0.59-2.025c-0.036-3.623-0.031-7.313-0.025-10.881l0.005-10.391H16.508v23.671l1.133,0.132
			C17.922,344.819,18.12,344.843,18.321,344.843z M70.868,341.24c0.007,0.664-0.103,0.846-0.15,0.895
			c-0.046,0.046-0.221,0.155-0.908,0.155h-0.002c-3.943-0.027-7.884-0.034-11.827-0.034l-13.042,0.009l-5.791-0.008
			c-6.363-0.009-12.678-0.021-19.16,0.034c-0.656,0-0.842-0.117-0.892-0.169c-0.065-0.065-0.173-0.283-0.161-1.004
			c0.075-5.919,0.074-11.351-0.004-16.608c-0.013-0.688,0.099-0.907,0.167-0.976c0.068-0.069,0.285-0.183,0.98-0.183v-0.774
			l0.017,0.774c16.513,0.042,33.021,0.041,49.561,0.006c0.59,0,0.947,0.059,1.062,0.177c0.052,0.053,0.174,0.25,0.162,0.911
			C70.789,329.484,70.786,334.978,70.868,341.24z"/>
	</g>
	<g>
		<path class="st0" d="M18.429,319.002l12.991,0.002c12.925,0,26.291,0.001,39.435,0.037h0.002c0.637,0,1.438-0.071,1.988-0.627
			c0.543-0.549,0.608-1.334,0.597-2.095c-0.046-4.436-0.036-8.946-0.028-13.308l0.008-4.611c0-3.041-0.352-3.389-3.424-3.389
			c-16.834-0.013-33.673-0.019-50.503-0.019c-0.508,0-0.995,0.037-1.512,0.077c-0.225,0.017-0.454,0.035-0.689,0.049l-0.749,0.046
			v23.694l1.135,0.097C17.964,318.981,18.197,319.002,18.429,319.002z M70.873,313.131c0.065,1.234,0.138,2.633-0.339,3.164
			c-0.069,0.078-0.34,0.259-1.346,0.259c-0.465,0-0.988-0.038-1.495-0.073c-0.513-0.036-1.044-0.074-1.526-0.074h-0.001
			c-7.634,0.011-15.268,0.013-22.903,0.013l-24.175-0.002v-18.742h51.75l0.004,3.624c0.006,3.507,0.011,6.946-0.017,10.384
			C70.821,312.142,70.846,312.633,70.873,313.131z"/>
	</g>
	<g>
		<path class="st0" d="M116.334,241.233c-1.981,0-3.887,0.755-5.367,2.126c-1.583,1.467-2.498,3.556-2.507,5.731
			c-0.009,2.04,0.776,3.908,2.211,5.262c1.273,1.199,1.742,2.314,1.522,3.616l-0.011,0.133c0,0.363-0.006,0.688-0.01,0.987
			c-0.01,0.643-0.019,1.198,0.03,1.758c0.197,2.325,1.853,3.887,4.121,3.887l0.124-0.002c2.227-0.057,3.831-1.632,3.989-3.914
			c0.079-1.073,0.079-2.086,0-3.011c-0.113-1.371,0.233-2.225,1.278-3.151c1.489-1.323,2.352-3.188,2.43-5.252
			c0.082-2.145-0.711-4.247-2.176-5.762C120.468,242.088,118.466,241.233,116.334,241.233z M114.906,260.962h2.828
			c-0.262,1.135-0.954,1.139-1.358,1.139h-0.004l-0.148-0.004c-0.472-0.023-0.817-0.154-1.023-0.39
			C115.031,261.512,114.944,261.242,114.906,260.962z M116.293,254.323c-1.354,0-2.642-0.545-3.63-1.536h5.996l0.229-0.21
			c0.192-0.177,0.378-0.349,0.565-0.532l0.452-0.439l-0.322-0.542c-0.143-0.241-0.27-0.501-0.398-0.761
			c-0.349-0.707-0.71-1.439-1.359-1.942c-0.46-0.361-1.128-0.414-1.486-0.414c-0.355,0-1.241,0.054-1.779,0.557
			c-0.592,0.55-0.887,1.309-1.199,2.111c-0.128,0.328-0.264,0.677-0.431,1.034l-0.441,0.945c-0.908-1-1.404-2.271-1.391-3.61
			c0.031-2.848,2.384-5.165,5.246-5.165v-0.797l0,0l0.019,0.797c2.825,0.022,5.215,2.428,5.219,5.252
			C121.581,251.883,119.189,254.288,116.293,254.323z"/>
	</g>
	<g>
		<path class="st0" d="M110.344,242.995c0.057-0.056,0.123-0.119,0.188-0.179l0.651-0.583l-0.639-0.596
			c-1.146-1.068-2.292-2.141-3.438-3.213l-1.661-1.554l-0.61-0.463l-1.263,1.238l6.223,5.885L110.344,242.995z"/>
	</g>
	<g>
		<path class="st0" d="M109.458,235.538c0.623,1.844,1.267,3.75,2.482,5.429l0.369,0.508l1.954-0.812l-3.228-7.885l-2.24,0.852
			l0.262,0.739C109.195,234.757,109.326,235.148,109.458,235.538z"/>
	</g>
	<g>
		<path class="st0" d="M128.425,236.949l-0.546-0.414l-0.492,0.477c-1.16,1.125-2.326,2.25-3.492,3.374l-2.192,2.115l1.542,1.363
			l0.529-0.539c1.123-1.142,2.241-2.288,3.359-3.433l2.123-2.174l-0.579-0.557C128.6,237.086,128.518,237.02,128.425,236.949z"/>
	</g>
	<g>
		<path class="st0" d="M121.343,240.151c0.781-1.902,1.562-3.804,2.347-5.702l0.299-0.725l-2.318-1.005l-3.295,7.856l2.326,1.139
			L121.343,240.151z"/>
	</g>
	<g>
		<path class="st0" d="M115.416,240.536l1.989-0.054v-8.464l-0.834,0.036c-0.217,0.009-0.437,0.018-0.651,0.023l-0.761,0.019
			l-0.017,0.762c-0.012,0.526-0.036,1.053-0.058,1.578c-0.079,1.772-0.16,3.603,0.201,5.436L115.416,240.536z"/>
	</g>
	<g>
		<path class="st0" d="M170.532,233.2h-0.114c-10.879,0-19.796,8.883-19.88,19.801c-0.086,11.173,8.532,20.023,19.62,20.147
			l0.228,0.001c10.904,0,19.865-8.785,19.977-19.582c0.055-5.502-1.993-10.642-5.769-14.477
			C180.878,235.319,175.884,233.227,170.532,233.2z M170.324,270.56h-0.002c-4.558,0-8.888-1.829-12.19-5.15
			c-3.318-3.337-5.131-7.704-5.107-12.298c0.05-9.399,8.034-17.339,17.432-17.339v-0.798l0,0l0.008,0.798
			c9.544,0.003,17.317,7.805,17.327,17.391c0.005,4.656-1.79,9.021-5.055,12.29C179.449,268.747,175.043,270.56,170.324,270.56z"/>
	</g>
	<g>
		<path class="st0" d="M44.83,364.087h0.004c2.917-0.003,5.353-2.355,5.431-5.241c0.043-1.475-0.479-2.854-1.473-3.884
			c-0.998-1.036-2.368-1.611-3.914-1.621c-1.484,0-2.841,0.544-3.821,1.53c-0.987,0.992-1.525,2.365-1.515,3.866
			C39.56,361.688,41.932,364.087,44.83,364.087z M44.92,355.843c1.417,0.034,2.757,1.41,2.757,2.832
			c-0.003,1.446-1.358,2.814-2.789,2.814l-0.116-0.003c-1.477-0.075-2.692-1.404-2.653-2.899c0.044-1.462,1.332-2.744,2.754-2.744
			v-0.792h0.001L44.92,355.843z"/>
	</g>
	<g>
		<path class="st0" d="M44.832,327.493l-0.108,0.001c-2.985,0.049-5.213,2.365-5.182,5.388c0.032,2.971,2.35,5.322,5.278,5.351
			h0.042c1.429,0,2.787-0.573,3.82-1.612c1.038-1.042,1.605-2.406,1.598-3.845C50.255,329.813,47.862,327.493,44.832,327.493z
			 M44.876,329.209L44.876,329.209v0.796c1.427,0,2.762,1.32,2.801,2.771c0.041,1.415-1.273,2.807-2.705,2.866l-0.103,0.002
			c-1.418,0-2.676-1.229-2.746-2.683c-0.036-0.751,0.255-1.508,0.797-2.079c0.523-0.552,1.23-0.871,1.94-0.876L44.876,329.209z"/>
	</g>
	<g>
		<path class="st0" d="M67.768,306.806c-0.547-0.004-1.087-0.009-1.621-0.009c-1.205,0-2.129,0.025-3.002,0.08
			c-0.869,0.064-1.806,1.187-1.871,1.976c-0.135,1.588-0.136,3.308-0.006,5.108c0.05,0.795,0.928,1.9,1.748,1.939
			c0.912,0.052,1.888,0.075,3.165,0.075c0.534,0,1.07-0.004,1.614-0.008c0.552-0.004,1.11-0.008,1.677-0.008h0.798v-9.142h-0.798
			C68.894,306.815,68.327,306.81,67.768,306.806z M63.865,309.727c0.072-0.106,0.273-0.27,0.338-0.294
			c0.53-0.043,1.098-0.063,1.845-0.063c0.382,0,0.773,0.005,1.18,0.01c0.195,0.002,0.396,0.005,0.598,0.007v3.992
			c-0.168,0.001-0.333,0.002-0.499,0.004c-0.406,0.004-0.805,0.007-1.199,0.007c-0.823,0-1.457-0.016-2.037-0.051
			c-0.086-0.057-0.213-0.189-0.23-0.195C63.751,311.919,63.753,310.769,63.865,309.727z"/>
	</g>
	<g>
		<path class="st0" d="M44.848,301.656c-2.989,0.007-5.273,2.27-5.314,5.265c-0.032,2.98,2.237,5.378,5.164,5.459l0.157,0.002
			c2.962,0,5.341-2.334,5.419-5.312c0.036-1.436-0.485-2.783-1.468-3.792C47.787,302.233,46.384,301.656,44.848,301.656z
			 M44.871,303.372l0.021,0.796c1.436,0.011,2.766,1.344,2.791,2.796c0.025,1.444-1.28,2.795-2.799,2.835
			c-1.444,0-2.704-1.242-2.75-2.712c-0.025-0.77,0.271-1.531,0.81-2.086c0.521-0.538,1.206-0.834,1.929-0.834L44.871,303.372
			L44.871,303.372z"/>
	</g>
	<g>
		<path class="st0" d="M170.383,236.832h-0.092c-8.95,0.046-16.218,7.346-16.201,16.271c0.021,9.259,7.21,16.514,16.367,16.514
			h0.054c9.015-0.025,16.339-7.4,16.327-16.442C186.817,244.011,179.588,236.832,170.383,236.832z M177.317,262.795l-0.353-0.476
			l-1.754,0.626l0.229,0.734c0.209,0.669,0.415,1.331,0.666,2.148c-1.396,0.378-2.796,0.756-4.266,1.149
			c-0.11-0.761-0.198-1.371-0.287-1.982l-0.092-0.635l-0.64-0.046c-0.172-0.012-0.347-0.025-0.523-0.035l-0.694-0.038l-0.523,2.704
			l-0.853-0.221c-1.147-0.297-2.298-0.595-3.487-0.904l1.107-2.578l-0.817-0.503c-0.098-0.062-0.195-0.124-0.295-0.184l-0.601-0.362
			l-0.437,0.548c-0.308,0.387-0.617,0.77-1.006,1.253l-0.493,0.614l-3.063-3.264l2.247-1.842l-0.378-0.597
			c-0.076-0.119-0.146-0.244-0.245-0.419l-0.333-0.59l-2.595,0.951c-0.396-1.411-0.785-2.806-1.191-4.259l2.78-0.534v-1.837
			l-2.746-0.391l1.155-4.358l2.456,1.069l0.372-0.55c0.108-0.158,0.208-0.306,0.319-0.459l0.442-0.608l-2.408-1.997l3.242-3.114
			c0.559,0.723,0.979,1.267,1.398,1.811l0.411,0.536l0.842-0.454c0.088-0.049,0.177-0.099,0.269-0.147l0.641-0.334l-0.269-0.671
			c-0.246-0.61-0.488-1.214-0.794-1.986c1.334-0.365,2.643-0.727,4.006-1.105l0.299-0.083l0.031,0.176
			c0.127,0.725,0.234,1.335,0.339,1.948l0.108,0.639l0.648,0.025c0.158,0.006,0.314,0.014,0.469,0.024l0.715,0.043l0.485-2.809
			c1.427,0.37,2.825,0.733,4.275,1.112c-0.221,0.585-0.407,1.084-0.587,1.561l-0.415,1.107l1.67,0.914l1.88-2.349l1.116,1.088
			c0.71,0.692,1.415,1.379,2.143,2.088l-0.424,0.309c-0.562,0.409-0.987,0.717-1.408,1.028l-0.534,0.393l0.288,0.597
			c0.091,0.19,0.183,0.378,0.28,0.564l0.326,0.634l2.597-0.978l1.195,4.318l-2.623,0.358l-0.106,0.779
			c-0.012,0.093-0.023,0.185-0.039,0.279l-0.129,0.767l0.764,0.149c0.63,0.123,1.265,0.248,2.089,0.41l-1.139,4.328l-2.499-0.96
			l-1.024,1.608l2.308,1.887l-3.131,3.293l-0.229-0.313C178.009,263.736,177.664,263.263,177.317,262.795z"/>
	</g>
	<g>
		<path class="st0" d="M171.387,245.148c-0.042-0.079-0.087-0.158-0.121-0.236l-0.252-0.565l-1.838,0.3v0.679
			c0,0.576-0.004,1.153-0.008,1.729c-0.01,1.348-0.02,2.742,0.025,4.121c0.017,0.526-0.092,0.654-0.105,0.667
			c-0.041,0.042-0.187,0.093-0.462,0.093l-0.14-0.004c-0.749-0.042-1.496-0.034-2.244-0.024c-0.31,0.004-0.619,0.008-0.929,0.008
			h-0.778l-0.021,0.778c-0.008,0.307-0.012,0.614-0.016,0.924l-0.01,0.809h0.809c0.409,0,0.819,0.004,1.228,0.008
			c0.415,0.004,0.829,0.008,1.243,0.008c0.979,0,1.731-0.024,2.427-0.076c0.887-0.055,1.505-1.327,1.534-1.977
			c0.075-1.954,0.058-3.883,0.009-6.172C171.733,245.784,171.541,245.431,171.387,245.148z"/>
	</g>
	<g>
		<path class="st0" d="M151.325,527.794c0-0.715-0.582-1.296-1.296-1.296h-30.915c-0.715,0-1.296,0.582-1.296,1.296
			c0,0.715,0.582,1.296,1.296,1.296h30.915C150.744,529.09,151.325,528.509,151.325,527.794z"/>
	</g>
	<g>
		<path class="st0" d="M150.029,541.047h-29.097c-0.715,0-1.296,0.582-1.296,1.296c0,0.715,0.582,1.296,1.296,1.296h29.097
			c0.715,0,1.296-0.582,1.296-1.296C151.326,541.628,150.745,541.047,150.029,541.047z"/>
	</g>
	<g>
		<path class="st0" d="M189.517,585.46v-53.5v-2.913l-10.911-10.158v-21.488h-23.081l-15.776-14.686
			c-1.162-1.083-2.678-1.68-4.268-1.68c-1.59,0-3.105,0.597-4.268,1.68l-15.774,14.686H92.357v21.488l-10.911,10.158v60.058h108.07
			V585.46z M176.013,516.475v20.809l-18.474,14.074l-7.948,6.056h-28.222L94.95,537.284v-20.808v-16.481h17.703h45.657h17.702
			V516.475z M178.606,538.569L178.606,538.569l8.317-6.337v52.959l-34.754-26.48L178.606,538.569z M84.04,532.229l8.316,6.338v0.002
			l0,0l25.623,19.523c-0.102,0.184-0.164,0.394-0.164,0.618c0,0.225,0.062,0.434,0.165,0.619l-33.941,25.864v-52.963H84.04z
			 M121.369,560.007h28.222l34.789,26.505H86.585L121.369,560.007z M185.567,530.005l-6.961,5.304v-12.877l7.715,7.183
			C186.052,529.7,185.797,529.828,185.567,530.005z M92.357,535.308l-6.958-5.302c-0.233-0.177-0.488-0.306-0.758-0.392l7.716-7.182
			V535.308z M137.982,484.612l13.737,12.789h-32.476l13.735-12.789C134.343,483.343,136.618,483.343,137.982,484.612z"/>
	</g>
	<g>
		<path class="st0" d="M129.901,513.65l0.106,1.249c0.013,0.144,0.03,0.294,0.062,0.498c0.233,1.081,0.727,1.915,1.471,2.477
			c0.539,0.408,1.184,0.683,1.923,0.82v1.302h2.33v-1.294c0.233-0.043,0.466-0.104,0.695-0.181c0.499-0.166,0.954-0.407,1.351-0.72
			c0.407-0.322,0.742-0.716,0.994-1.176c0.266-0.484,0.4-1.035,0.4-1.634c0-0.72-0.102-1.309-0.311-1.802
			c-0.214-0.504-0.524-0.925-0.922-1.254c-0.369-0.303-0.815-0.546-1.326-0.725c-0.274-0.096-0.57-0.188-0.884-0.277v-2.588
			c0.043,0.03,0.084,0.062,0.121,0.097c0.108,0.1,0.194,0.218,0.261,0.361c0.061,0.133,0.092,0.281,0.092,0.452v0.798h2.672
			l-0.04-0.837c-0.028-0.547-0.142-1.049-0.342-1.486c-0.206-0.456-0.495-0.845-0.857-1.158c-0.355-0.307-0.773-0.542-1.246-0.697
			c-0.212-0.069-0.433-0.123-0.661-0.16v-1.035h-2.33v1.026c-0.237,0.038-0.468,0.096-0.691,0.173
			c-0.478,0.167-0.909,0.413-1.274,0.734c-0.374,0.327-0.674,0.725-0.891,1.187c-0.219,0.467-0.33,0.988-0.33,1.551
			c0,0.619,0.11,1.16,0.326,1.608c0.217,0.447,0.519,0.827,0.899,1.128c0.351,0.28,0.766,0.51,1.232,0.683
			c0.229,0.085,0.468,0.164,0.714,0.237v3.058c-0.139-0.087-0.262-0.189-0.373-0.312c-0.149-0.164-0.261-0.349-0.344-0.57
			c-0.083-0.222-0.124-0.469-0.124-0.733v-0.798L129.901,513.65L129.901,513.65z M133.446,510.28
			c-0.084-0.044-0.162-0.095-0.232-0.149c-0.099-0.077-0.176-0.175-0.234-0.297c-0.04-0.085-0.089-0.247-0.089-0.533
			c0-0.184,0.032-0.341,0.095-0.479c0.066-0.145,0.155-0.265,0.268-0.367c0.059-0.053,0.122-0.1,0.191-0.141L133.446,510.28
			L133.446,510.28z M135.792,513.601c0.166,0.063,0.311,0.141,0.432,0.233c0.118,0.09,0.212,0.205,0.284,0.351
			c0.072,0.148,0.11,0.366,0.11,0.63c0,0.227-0.039,0.424-0.119,0.603c-0.084,0.183-0.192,0.334-0.335,0.464
			c-0.11,0.099-0.234,0.185-0.371,0.255L135.792,513.601L135.792,513.601z"/>
	</g>
	<g>
		<path class="st0" d="M103.788,97.757h-3.528c-0.245-0.063-0.404-0.092-0.413-0.092l-1.228-0.005c-0.766,0-1.39,0.623-1.39,1.388
			c0,0.708,0.539,1.288,1.233,1.369c0.168,0.072,0.351,0.112,0.545,0.112l0.932-0.001c0.818,0.277,2.558,1.173,2.558,3.784
			c0,1.109-0.335,1.983-0.994,2.596c-1.573,1.456-4.569,1.29-4.75,1.281H85.458c-0.053,0-0.117,0.002-0.19,0.013H68.549
			c-7.431,0-16.939-7.058-18.787-8.487c-1.702-1.977-4.083-4.214-5.887-3.814c-0.641,0.141-1.089,0.698-1.089,1.354
			c0,0.114,0.012,0.219,0.031,0.29c0.076,0.362,0.288,0.672,0.599,0.873c0.284,0.184,0.618,0.257,0.954,0.209
			c0.464,0.147,1.971,1.353,3.421,3.032l0.1,0.097c0.463,0.377,11.433,9.22,20.658,9.22h16.909c0.059,0,0.122-0.005,0.182-0.013
			l11.003-0.004c0.431,0.034,4.281,0.258,6.74-2.009c1.25-1.162,1.883-2.722,1.883-4.636c0-1.644-0.439-2.879-1.059-3.82
			c1.222-0.254,2.896-1.025,4.102-2.537h68.197c4.439,0,8.05-3.61,8.05-8.049V50.343c0-4.436-3.611-8.045-8.05-8.045H90.239
			c-4.442,0-8.054,3.609-8.054,8.045v0.911h-3.656C76.841,50.911,56.95,47.326,49.282,66.9c-0.613,1.783-0.981,2.296-5.295,2.296
			c-0.765,0-1.389,0.622-1.389,1.388c0,0.764,0.622,1.385,1.389,1.385c4.572,0,6.681-0.576,7.898-4.112
			c7.14-18.22,25.4-14.054,26.212-13.861c0.095,0.018,0.19,0.03,0.285,0.03h5.947l0.634,0.184v-0.184h16.569
			c0.462,0,0.697,0.065,0.8,0.107c-0.07,2.109-6.961,8.64-11.654,8.64h-8.813c-0.764,0-1.387,0.622-1.387,1.386
			c0,0.764,0.622,1.387,1.387,1.387h55.3c2.449,0,4.443,1.994,4.443,4.443c0,2.435-1.943,4.422-4.342,4.45
			c-0.062-0.007-0.142-0.014-0.185-0.014c-0.052,0-0.104,0.003-0.158,0.01h-29.715h-2.374l0,0c-0.764,0-1.387,0.622-1.387,1.387
			c0,0.191,0.038,0.374,0.109,0.539c0.035,0.082,0.077,0.158,0.125,0.232c0.001,0.001,0.002,0.002,0.002,0.003
			c0.25,0.369,0.672,0.612,1.149,0.612h2.235c0.505,0.106,3.324,0.853,3.324,4.446c0,3.335-2.477,4.234-3.278,4.441h-3.233
			c-0.011,0-0.022,0.003-0.034,0.003c-0.033,0.001-0.064,0.007-0.097,0.01c-0.062,0.006-0.123,0.012-0.182,0.025
			c-0.015,0.004-0.028,0.01-0.042,0.014c-0.338,0.091-0.626,0.303-0.812,0.591c-0.005,0.008-0.008,0.017-0.013,0.025
			c-0.04,0.067-0.078,0.137-0.108,0.21c-0.01,0.025-0.016,0.052-0.024,0.078c-0.019,0.058-0.038,0.117-0.05,0.179
			c-0.002,0.009-0.006,0.017-0.007,0.026c-0.006,0.036-0.003,0.069-0.006,0.105c-0.004,0.04-0.013,0.08-0.013,0.121
			c0,0.012,0.003,0.022,0.003,0.034c0.001,0.034,0.007,0.066,0.01,0.1c0.006,0.061,0.012,0.122,0.026,0.182
			c0.004,0.016,0.01,0.031,0.015,0.046c0.02,0.073,0.042,0.145,0.074,0.213c0.002,0.003,0.004,0.006,0.005,0.009
			c0.036,0.078,0.079,0.152,0.128,0.221l0.001,0.002c0.05,0.07,0.108,0.136,0.17,0.195c0.008,0.007,0.017,0.013,0.024,0.02
			c0.057,0.052,0.115,0.101,0.181,0.143c0.022,0.014,0.046,0.025,0.068,0.036c0.054,0.031,0.108,0.061,0.166,0.084
			c0.041,0.017,0.086,0.028,0.129,0.04c0.042,0.013,0.083,0.028,0.125,0.036c0.01,0.002,0.019,0.006,0.028,0.008
			c0.139,0.024,3.408,0.629,3.408,4.464C107.057,96.654,104.635,97.548,103.788,97.757z M108.268,88.622
			c1.586-0.541,4.897-2.233,4.897-6.968c0-1.932-0.575-3.374-1.372-4.446h25.372c3.98,0,7.218-3.237,7.218-7.218
			c0-3.937-3.096-7.088-7.062-7.204c-0.076-0.011-0.143-0.013-0.193-0.013H98.01c3.753-2.411,7.093-5.936,7.093-8.672
			c0-0.909-0.39-1.689-1.094-2.19c-0.616-0.442-1.427-0.657-2.481-0.657H84.96v-0.911c0-2.907,2.367-5.271,5.277-5.271h86.268
			c2.907,0,5.271,2.364,5.271,5.271v39.563c0,2.909-2.365,5.274-5.271,5.274h-66.881c0.129-0.57,0.208-1.189,0.208-1.868
			C109.832,91.195,109.153,89.694,108.268,88.622z"/>
	</g>
	<g>
		<path class="st0" d="M160.128,69.639c0-0.764-0.621-1.387-1.385-1.387h-4.702c-0.765,0-1.389,0.622-1.389,1.387
			c0,0.764,0.622,1.387,1.389,1.387h4.702C159.506,71.026,160.128,70.405,160.128,69.639z"/>
	</g>
	<g>
		<path class="st0" d="M156.739,60.766c0.643-0.373,0.873-1.281,0.509-1.895c-0.187-0.323-0.49-0.552-0.852-0.646
			c-0.359-0.094-0.732-0.041-1.042,0.143l-4.072,2.354c-0.431,0.248-0.699,0.708-0.699,1.203c0,0.231,0.061,0.464,0.188,0.697
			c0.384,0.656,1.232,0.882,1.893,0.503L156.739,60.766z"/>
	</g>
	<g>
		<path class="st0" d="M147.474,51.502l-2.361,4.086c-0.117,0.21-0.179,0.446-0.179,0.684c0,0.495,0.265,0.956,0.694,1.202
			c0.664,0.38,1.513,0.151,1.893-0.51l2.358-4.079c0.362-0.635,0.13-1.515-0.514-1.896
			C148.703,50.612,147.855,50.842,147.474,51.502z"/>
	</g>
	<g>
		<path class="st0" d="M138.6,55.59c0.765,0,1.388-0.622,1.388-1.388v-4.705c0-0.764-0.622-1.385-1.388-1.385
			c-0.763,0-1.385,0.621-1.385,1.385v4.705C137.214,54.967,137.836,55.59,138.6,55.59z"/>
	</g>
	<g>
		<path class="st0" d="M132.083,55.58l-2.349-4.076c-0.184-0.322-0.483-0.552-0.842-0.649c-0.359-0.097-0.733-0.047-1.046,0.133
			c-0.433,0.246-0.701,0.706-0.701,1.203c0,0.247,0.063,0.481,0.187,0.697l2.352,4.078c0.186,0.322,0.487,0.549,0.847,0.645
			c0.359,0.095,0.732,0.043,1.045-0.139C132.22,57.103,132.444,56.183,132.083,55.58z"/>
	</g>
	<g>
		<path class="st0" d="M129.732,87.777l2.348-4.071c0.372-0.637,0.136-1.525-0.501-1.898c-0.32-0.186-0.694-0.236-1.053-0.139
			c-0.357,0.096-0.657,0.325-0.844,0.646l-2.343,4.063c-0.127,0.212-0.195,0.456-0.195,0.705c0,0.498,0.269,0.961,0.693,1.201
			c0.319,0.185,0.691,0.235,1.051,0.139C129.247,88.328,129.547,88.098,129.732,87.777z"/>
	</g>
	<g>
		<path class="st0" d="M139.988,89.784v-4.706c0-0.764-0.622-1.388-1.388-1.388c-0.763,0-1.385,0.623-1.385,1.388v4.706
			c0,0.763,0.621,1.385,1.385,1.385C139.366,91.169,139.988,90.547,139.988,89.784z"/>
	</g>
	<g>
		<path class="st0" d="M144.934,83.008c0,0.23,0.059,0.462,0.182,0.693l2.354,4.074c0.381,0.661,1.229,0.891,1.902,0.507
			c0.628-0.371,0.868-1.247,0.5-1.892l-2.35-4.074c-0.184-0.322-0.484-0.552-0.842-0.648s-0.731-0.046-1.053,0.137
			C145.199,82.052,144.934,82.513,144.934,83.008z"/>
	</g>
	<g>
		<path class="st0" d="M157.247,80.408c0.371-0.637,0.131-1.527-0.508-1.895l-4.074-2.356c-0.659-0.382-1.509-0.156-1.907,0.526
			c-0.116,0.215-0.176,0.442-0.176,0.675c0,0.49,0.265,0.95,0.696,1.202l4.075,2.354c0.322,0.185,0.695,0.234,1.054,0.138
			C156.767,80.954,157.065,80.725,157.247,80.408z"/>
	</g>
</g>
<g id="g2">
	<g>
		<path class="st0" d="M148.969,168.583c1.006-1.004,1.008-2.755,0-3.764c-1.039-1.034-2.729-1.034-3.767,0.002l-5.494,5.496
			v-20.955c0-1.467-1.193-2.66-2.659-2.66c-1.468,0-2.661,1.193-2.661,2.66v20.955l-5.493-5.495
			c-0.504-0.505-1.174-0.781-1.887-0.78c-0.711,0.001-1.378,0.279-1.876,0.78c-0.505,0.504-0.782,1.172-0.782,1.882
			c0,0.715,0.279,1.383,0.781,1.879l10.038,10.042c0.496,0.496,1.181,0.78,1.879,0.78c0.697,0,1.383-0.284,1.884-0.78
			L148.969,168.583z"/>
	</g>
	<g>
		<path class="st0" d="M148.969,438.323c1.006-1.004,1.008-2.755,0-3.764c-1.039-1.034-2.729-1.034-3.767,0.002l-5.494,5.496
			v-20.955c0-1.467-1.193-2.66-2.659-2.66c-1.468,0-2.661,1.193-2.661,2.66v20.955l-5.493-5.495
			c-0.504-0.505-1.174-0.781-1.887-0.78c-0.711,0.001-1.378,0.279-1.876,0.78c-0.505,0.504-0.782,1.172-0.782,1.882
			c0,0.715,0.279,1.383,0.781,1.879l10.038,10.042c0.496,0.496,1.181,0.78,1.879,0.78c0.697,0,1.383-0.284,1.884-0.78
			L148.969,438.323z"/>
	</g>
	<path class="st0" d="M231.196,60.658c1.515,0.933,3.73,1.709,6.061,1.709c3.457,0,5.477-1.826,5.477-4.467
		c0-2.447-1.399-3.846-4.933-5.205c-4.273-1.515-6.915-3.73-6.915-7.42c0-4.079,3.379-7.109,8.468-7.109
		c2.68,0,4.622,0.621,5.788,1.282l-0.932,2.759c-0.855-0.467-2.602-1.243-4.973-1.243c-3.574,0-4.933,2.137-4.933,3.923
		c0,2.447,1.593,3.652,5.205,5.049c4.428,1.709,6.681,3.846,6.681,7.691c0,4.04-2.991,7.537-9.168,7.537
		c-2.525,0-5.283-0.739-6.682-1.671L231.196,60.658z"/>
	<path class="st0" d="M254.308,40.574v5.4h4.895v2.602h-4.895v10.138c0,2.331,0.661,3.652,2.564,3.652
		c0.893,0,1.554-0.116,1.981-0.233l0.155,2.564c-0.66,0.271-1.709,0.467-3.029,0.467c-1.593,0-2.874-0.505-3.69-1.438
		c-0.971-1.009-1.321-2.68-1.321-4.895V48.577h-2.914v-2.602h2.914v-4.508L254.308,40.574z"/>
	<path class="st0" d="M273.068,64.776l-0.272-2.369h-0.116c-1.049,1.477-3.069,2.797-5.749,2.797c-3.807,0-5.75-2.681-5.75-5.4
		c0-4.544,4.04-7.031,11.304-6.992v-0.389c0-1.554-0.427-4.351-4.273-4.351c-1.748,0-3.574,0.544-4.895,1.399l-0.776-2.253
		c1.554-1.01,3.807-1.671,6.177-1.671c5.749,0,7.148,3.923,7.148,7.691v7.032c0,1.631,0.078,3.224,0.311,4.506L273.068,64.776
		L273.068,64.776z M272.563,55.181c-3.73-0.079-7.963,0.583-7.963,4.234c0,2.215,1.477,3.264,3.225,3.264
		c2.447,0,4.001-1.555,4.544-3.147c0.116-0.35,0.194-0.739,0.194-1.088V55.181z"/>
	<path class="st0" d="M280.99,51.84c0-2.214-0.038-4.117-0.155-5.865h2.991l0.116,3.69h0.155c0.855-2.525,2.914-4.118,5.205-4.118
		c0.389,0,0.66,0.038,0.971,0.116v3.224c-0.349-0.078-0.699-0.116-1.166-0.116c-2.409,0-4.117,1.826-4.584,4.39
		c-0.078,0.467-0.156,1.01-0.156,1.593v10.023h-3.379V51.84H280.99z"/>
	<path class="st0" d="M298.352,40.574v5.4h4.895v2.602h-4.895v10.138c0,2.331,0.66,3.652,2.565,3.652
		c0.894,0,1.554-0.116,1.981-0.233l0.156,2.564c-0.661,0.271-1.709,0.467-3.03,0.467c-1.593,0-2.875-0.505-3.69-1.438
		c-0.971-1.009-1.321-2.68-1.321-4.895V48.577h-2.914v-2.602h2.914v-4.508L298.352,40.574z"/>
	<path class="st0" d="M324.957,64.776l-0.272-2.369h-0.116c-1.049,1.477-3.069,2.797-5.749,2.797c-3.807,0-5.75-2.681-5.75-5.4
		c0-4.544,4.04-7.031,11.304-6.992v-0.389c0-1.554-0.427-4.351-4.273-4.351c-1.748,0-3.574,0.544-4.895,1.399l-0.776-2.253
		c1.554-1.01,3.807-1.671,6.177-1.671c5.749,0,7.148,3.923,7.148,7.691v7.032c0,1.631,0.078,3.224,0.311,4.506L324.957,64.776
		L324.957,64.776z M324.452,55.181c-3.73-0.079-7.963,0.583-7.963,4.234c0,2.215,1.477,3.264,3.225,3.264
		c2.447,0,4.001-1.555,4.544-3.147c0.116-0.35,0.194-0.739,0.194-1.088V55.181z"/>
	<path class="st0" d="M232.505,83.049l3.69,10.566c0.621,1.709,1.126,3.263,1.515,4.817h0.116c0.427-1.554,0.971-3.107,1.593-4.817
		l3.652-10.566h3.574l-7.381,18.801h-3.263l-7.148-18.801C228.853,83.049,232.505,83.049,232.505,83.049z"/>
	<path class="st0" d="M253.285,77.766c0.038,1.166-0.816,2.098-2.175,2.098c-1.203,0-2.059-0.933-2.059-2.098
		c0-1.204,0.894-2.137,2.137-2.137C252.469,75.63,253.285,76.562,253.285,77.766z M249.478,101.85V83.049h3.419v18.801H249.478z"/>
	<path class="st0" d="M274.416,74.27v22.725c0,1.671,0.039,3.574,0.156,4.856h-3.069l-0.155-3.263h-0.078
		c-1.049,2.097-3.341,3.69-6.41,3.69c-4.545,0-8.041-3.846-8.041-9.556c-0.038-6.254,3.846-10.1,8.43-10.1
		c2.874,0,4.817,1.359,5.672,2.875h0.078V74.271L274.416,74.27L274.416,74.27z M270.998,90.702c0-0.427-0.038-1.01-0.155-1.437
		c-0.505-2.176-2.369-3.962-4.933-3.962c-3.535,0-5.632,3.108-5.632,7.265c0,3.807,1.864,6.953,5.555,6.953
		c2.291,0,4.39-1.514,5.011-4.079c0.116-0.467,0.155-0.933,0.155-1.477L270.998,90.702L270.998,90.702z"/>
	<path class="st0" d="M281.6,93.071c0.078,4.622,3.03,6.526,6.448,6.526c2.447,0,3.924-0.427,5.205-0.971l0.583,2.447
		c-1.204,0.544-3.263,1.166-6.255,1.166c-5.788,0-9.245-3.808-9.245-9.479c0-5.672,3.341-10.138,8.818-10.138
		c6.137,0,7.769,5.4,7.769,8.857c0,0.699-0.078,1.243-0.116,1.593L281.6,93.071L281.6,93.071z M291.622,90.624
		c0.038-2.176-0.894-5.555-4.74-5.555c-3.457,0-4.973,3.185-5.245,5.555C281.637,90.624,291.622,90.624,291.622,90.624z"/>
	<path class="st0" d="M315.781,92.295c0,6.953-4.817,9.983-9.362,9.983c-5.089,0-9.012-3.73-9.012-9.673
		c0-6.293,4.117-9.983,9.323-9.983C312.129,82.622,315.781,86.545,315.781,92.295z M300.864,92.489c0,4.118,2.369,7.225,5.71,7.225
		c3.263,0,5.71-3.069,5.71-7.303c0-3.185-1.593-7.225-5.633-7.225C302.612,85.186,300.864,88.915,300.864,92.489z"/>
	<path class="st0" d="M340.948,101.152c-0.894,0.467-2.874,1.088-5.4,1.088c-5.672,0-9.362-3.846-9.362-9.596
		c0-5.788,3.962-9.983,10.1-9.983c2.02,0,3.807,0.505,4.74,0.972l-0.777,2.642c-0.816-0.467-2.098-0.893-3.962-0.893
		c-4.312,0-6.642,3.185-6.642,7.108c0,4.351,2.796,7.031,6.526,7.031c1.942,0,3.224-0.505,4.195-0.932L340.948,101.152z"/>
	<path class="st0" d="M344.559,74.27h3.419v11.73h0.078c0.544-0.971,1.399-1.825,2.447-2.408c1.01-0.583,2.214-0.972,3.497-0.972
		c2.525,0,6.565,1.555,6.565,8.041v11.188h-3.419V91.051c0-3.03-1.126-5.594-4.351-5.594c-2.215,0-3.962,1.554-4.584,3.418
		c-0.194,0.467-0.233,0.972-0.233,1.632v11.343h-3.419V74.27z"/>
	<path class="st0" d="M376.138,101.85l-0.272-2.369h-0.116c-1.049,1.477-3.069,2.797-5.749,2.797c-3.807,0-5.75-2.681-5.75-5.4
		c0-4.544,4.04-7.031,11.304-6.992v-0.389c0-1.554-0.427-4.351-4.273-4.351c-1.748,0-3.574,0.544-4.895,1.399l-0.776-2.253
		c1.554-1.01,3.807-1.671,6.177-1.671c5.749,0,7.148,3.923,7.148,7.691v7.032c0,1.631,0.078,3.224,0.311,4.506L376.138,101.85
		L376.138,101.85z M375.632,92.257c-3.73-0.079-7.963,0.583-7.963,4.234c0,2.214,1.477,3.264,3.225,3.264
		c2.447,0,4.001-1.555,4.544-3.147c0.116-0.35,0.194-0.739,0.194-1.088V92.257z"/>
	<path class="st0" d="M388.022,77.65v5.4h4.895v2.602h-4.895V95.79c0,2.331,0.66,3.652,2.564,3.652c0.894,0,1.554-0.116,1.981-0.233
		l0.156,2.564c-0.661,0.271-1.709,0.467-3.03,0.467c-1.593,0-2.875-0.505-3.69-1.438c-0.971-1.009-1.321-2.68-1.321-4.895V85.652
		h-2.914v-2.602h2.914v-4.507L388.022,77.65z"/>
	<path class="st0" d="M226.542,291.463c1.515,0.933,3.73,1.709,6.061,1.709c3.457,0,5.477-1.826,5.477-4.467
		c0-2.447-1.398-3.846-4.933-5.205c-4.273-1.515-6.915-3.73-6.915-7.42c0-4.079,3.379-7.109,8.468-7.109
		c2.68,0,4.622,0.621,5.788,1.282l-0.932,2.759c-0.854-0.467-2.602-1.243-4.973-1.243c-3.574,0-4.933,2.137-4.933,3.923
		c0,2.447,1.593,3.652,5.205,5.049c4.428,1.709,6.681,3.846,6.681,7.691c0,4.04-2.991,7.537-9.168,7.537
		c-2.525,0-5.283-0.739-6.682-1.671L226.542,291.463z"/>
	<path class="st0" d="M245.652,268h3.419v11.73h0.078c0.544-0.971,1.399-1.825,2.447-2.408c1.01-0.583,2.214-0.972,3.497-0.972
		c2.525,0,6.565,1.555,6.565,8.041v11.188h-3.419v-10.798c0-3.03-1.127-5.594-4.351-5.594c-2.214,0-3.962,1.554-4.584,3.418
		c-0.194,0.467-0.233,0.972-0.233,1.632v11.343h-3.419V268z"/>
	<path class="st0" d="M283.834,286.025c0,6.953-4.817,9.983-9.362,9.983c-5.089,0-9.012-3.73-9.012-9.673
		c0-6.293,4.117-9.983,9.323-9.983C280.183,276.352,283.834,280.275,283.834,286.025z M268.917,286.219
		c0,4.118,2.369,7.225,5.71,7.225c3.263,0,5.71-3.069,5.71-7.303c0-3.185-1.593-7.225-5.633-7.225
		C270.666,278.916,268.917,282.644,268.917,286.219z"/>
	<path class="st0" d="M288.842,276.779l2.486,9.555c0.544,2.097,1.049,4.04,1.398,5.983h0.116c0.427-1.904,1.05-3.924,1.671-5.944
		l3.069-9.595h2.874l2.913,9.401c0.699,2.253,1.243,4.235,1.671,6.137h0.116c0.311-1.904,0.816-3.885,1.437-6.099l2.68-9.439h3.379
		l-6.06,18.801h-3.107l-2.875-8.973c-0.66-2.098-1.203-3.962-1.67-6.177h-0.078c-0.467,2.253-1.05,4.195-1.709,6.215l-3.03,8.934
		h-3.108l-5.672-18.801h3.499V276.779z"/>
	<path class="st0" d="M339.259,290.453c0,1.942,0.038,3.652,0.155,5.127h-3.03l-0.194-3.069h-0.078
		c-0.894,1.515-2.875,3.497-6.215,3.497c-2.952,0-6.488-1.632-6.488-8.236v-10.994h3.419v10.411c0,3.574,1.087,5.983,4.195,5.983
		c2.292,0,3.884-1.592,4.506-3.108c0.194-0.505,0.311-1.126,0.311-1.748v-11.537h3.419v13.674H339.259z"/>
	<path class="st0" d="M344.073,292.084c1.01,0.66,2.797,1.36,4.506,1.36c2.486,0,3.652-1.243,3.652-2.797
		c0-1.632-0.971-2.525-3.496-3.457c-3.379-1.203-4.973-3.068-4.973-5.322c0-3.03,2.447-5.516,6.488-5.516
		c1.904,0,3.574,0.544,4.622,1.166l-0.854,2.486c-0.739-0.467-2.098-1.088-3.846-1.088c-2.02,0-3.147,1.166-3.147,2.564
		c0,1.555,1.126,2.253,3.574,3.185c3.263,1.243,4.933,2.875,4.933,5.672c0,3.302-2.564,5.632-7.031,5.632
		c-2.059,0-3.962-0.505-5.283-1.282L344.073,292.084z"/>
	<path class="st0" d="M231.834,313.854l4.117,11.11c0.427,1.243,0.894,2.719,1.204,3.846h0.078c0.349-1.126,0.738-2.564,1.203-3.923
		l3.73-11.032h3.613l-5.128,13.401c-2.447,6.449-4.117,9.751-6.448,11.771c-1.671,1.477-3.341,2.06-4.195,2.214l-0.854-2.875
		c0.854-0.271,1.981-0.816,2.991-1.671c0.932-0.738,2.098-2.059,2.874-3.807c0.156-0.349,0.272-0.621,0.272-0.816
		c0-0.194-0.078-0.467-0.233-0.893l-6.953-17.325h3.729V313.854z"/>
	<path class="st0" d="M265.122,323.1c0,6.953-4.817,9.983-9.362,9.983c-5.089,0-9.012-3.73-9.012-9.673
		c0-6.293,4.117-9.983,9.324-9.983C261.47,313.426,265.122,317.35,265.122,323.1z M250.205,323.293c0,4.118,2.369,7.225,5.71,7.225
		c3.263,0,5.71-3.069,5.71-7.303c0-3.185-1.593-7.225-5.632-7.225C251.953,315.991,250.205,319.72,250.205,323.293z"/>
	<path class="st0" d="M284.775,327.528c0,1.942,0.038,3.652,0.155,5.127h-3.029l-0.194-3.069h-0.078
		c-0.894,1.515-2.875,3.497-6.215,3.497c-2.952,0-6.488-1.632-6.488-8.236v-10.993h3.419v10.411c0,3.574,1.087,5.983,4.195,5.983
		c2.292,0,3.884-1.592,4.506-3.108c0.194-0.505,0.311-1.126,0.311-1.748v-11.537h3.419L284.775,327.528L284.775,327.528z"/>
	<path class="st0" d="M290.055,319.72c0-2.214-0.038-4.117-0.155-5.865h2.991l0.116,3.69h0.155c0.855-2.525,2.914-4.118,5.205-4.118
		c0.389,0,0.66,0.038,0.971,0.116v3.224c-0.349-0.078-0.699-0.116-1.166-0.116c-2.409,0-4.117,1.826-4.584,4.39
		c-0.078,0.467-0.156,1.01-0.156,1.593v10.022h-3.379V319.72H290.055z"/>
	<path class="st0" d="M314.019,308.571c0.038,1.166-0.816,2.098-2.175,2.098c-1.203,0-2.059-0.933-2.059-2.098
		c0-1.204,0.894-2.137,2.137-2.137C313.204,306.435,314.019,307.367,314.019,308.571z M310.212,332.655v-18.801h3.419v18.801
		H310.212z"/>
	<path class="st0" d="M323.03,308.455v5.4h4.895v2.602h-4.895v10.138c0,2.331,0.66,3.652,2.564,3.652
		c0.894,0,1.554-0.116,1.981-0.233l0.156,2.564c-0.661,0.271-1.709,0.467-3.03,0.467c-1.593,0-2.875-0.505-3.69-1.438
		c-0.971-1.009-1.321-2.68-1.321-4.895v-10.255h-2.914v-2.602h2.914v-4.507L323.03,308.455z"/>
	<path class="st0" d="M333.05,323.876c0.078,4.622,3.03,6.526,6.448,6.526c2.447,0,3.924-0.427,5.205-0.971l0.583,2.447
		c-1.204,0.544-3.263,1.166-6.254,1.166c-5.788,0-9.246-3.808-9.246-9.479s3.34-10.138,8.818-10.138c6.137,0,7.769,5.4,7.769,8.857
		c0,0.699-0.078,1.243-0.116,1.593H333.05V323.876z M343.073,321.429c0.039-2.176-0.893-5.555-4.739-5.555
		c-3.457,0-4.973,3.185-5.245,5.555H343.073z"/>
	<path class="st0" d="M350.218,318.943c0-1.942-0.038-3.535-0.155-5.089h2.991l0.156,3.03h0.116c1.05-1.787,2.797-3.457,5.905-3.457
		c2.564,0,4.506,1.555,5.322,3.768h0.078c0.583-1.05,1.321-1.864,2.098-2.447c1.126-0.854,2.369-1.321,4.157-1.321
		c2.486,0,6.176,1.632,6.176,8.158v11.072h-3.34v-10.643c0-3.613-1.321-5.788-4.079-5.788c-1.942,0-3.457,1.437-4.04,3.107
		c-0.156,0.466-0.272,1.087-0.272,1.708v11.615h-3.341v-11.265c0-2.992-1.321-5.166-3.924-5.166c-2.137,0-3.69,1.708-4.234,3.418
		c-0.194,0.505-0.272,1.088-0.272,1.671v11.343h-3.341L350.218,318.943L350.218,318.943z"/>
	<path class="st0" d="M381.756,329.16c1.01,0.66,2.796,1.36,4.506,1.36c2.486,0,3.652-1.243,3.652-2.797
		c0-1.632-0.971-2.525-3.496-3.457c-3.379-1.203-4.973-3.068-4.973-5.322c0-3.03,2.447-5.516,6.487-5.516
		c1.904,0,3.574,0.544,4.622,1.166l-0.854,2.486c-0.739-0.467-2.098-1.088-3.846-1.088c-2.02,0-3.147,1.166-3.147,2.564
		c0,1.555,1.126,2.253,3.574,3.185c3.263,1.243,4.933,2.875,4.933,5.672c0,3.302-2.564,5.632-7.031,5.632
		c-2.059,0-3.962-0.505-5.283-1.282L381.756,329.16z"/>
	<path class="st0" d="M245.685,551.856c-1.515,0.544-4.506,1.437-8.041,1.437c-3.962,0-7.225-1.009-9.789-3.456
		c-2.253-2.176-3.652-5.672-3.652-9.751c0.038-7.807,5.4-13.519,14.179-13.519c3.03,0,5.4,0.66,6.526,1.204l-0.816,2.759
		c-1.399-0.621-3.147-1.126-5.788-1.126c-6.371,0-10.527,3.962-10.527,10.527c0,6.643,4.001,10.566,10.1,10.566
		c2.214,0,3.73-0.311,4.506-0.699v-7.808h-5.322v-2.719h8.624V551.856z"/>
	<path class="st0" d="M252.44,544.242c0.078,4.622,3.03,6.526,6.448,6.526c2.447,0,3.924-0.427,5.205-0.971l0.583,2.447
		c-1.204,0.544-3.263,1.166-6.255,1.166c-5.787,0-9.245-3.808-9.245-9.479s3.341-10.138,8.818-10.138c6.138,0,7.769,5.4,7.769,8.857
		c0,0.699-0.078,1.243-0.116,1.593L252.44,544.242L252.44,544.242z M262.462,541.794c0.038-2.176-0.894-5.555-4.74-5.555
		c-3.457,0-4.973,3.185-5.245,5.555H262.462z"/>
	<path class="st0" d="M273.724,528.82v5.4h4.895v2.602h-4.895v10.138c0,2.331,0.66,3.652,2.564,3.652
		c0.894,0,1.554-0.116,1.981-0.233l0.156,2.564c-0.661,0.271-1.709,0.467-3.03,0.467c-1.593,0-2.875-0.505-3.69-1.438
		c-0.971-1.009-1.321-2.68-1.321-4.895v-10.255h-2.914v-2.602h2.914v-4.507L273.724,528.82z"/>
	<path class="st0" d="M300.33,553.021l-0.272-2.369h-0.116c-1.049,1.477-3.069,2.797-5.749,2.797c-3.807,0-5.75-2.681-5.75-5.4
		c0-4.544,4.04-7.031,11.304-6.992v-0.389c0-1.554-0.427-4.351-4.273-4.351c-1.748,0-3.574,0.544-4.895,1.399l-0.776-2.253
		c1.554-1.01,3.807-1.671,6.177-1.671c5.749,0,7.148,3.923,7.148,7.691v7.032c0,1.631,0.078,3.224,0.311,4.506h-3.108V553.021z
		 M299.825,543.427c-3.73-0.079-7.963,0.583-7.963,4.234c0,2.214,1.477,3.264,3.225,3.264c2.447,0,4.001-1.555,4.544-3.147
		c0.116-0.35,0.194-0.739,0.194-1.088L299.825,543.427L299.825,543.427z"/>
	<path class="st0" d="M316.097,540.357c0-2.409-0.078-4.351-0.155-6.137h3.069l0.156,3.224h0.078
		c1.399-2.292,3.613-3.652,6.682-3.652c4.544,0,7.963,3.846,7.963,9.555c0,6.759-4.117,10.101-8.546,10.101
		c-2.486,0-4.662-1.088-5.788-2.952h-0.078v10.216h-3.379L316.097,540.357L316.097,540.357z M319.476,545.369
		c0,0.504,0.078,0.971,0.155,1.399c0.621,2.369,2.68,4.001,5.127,4.001c3.613,0,5.71-2.951,5.71-7.264
		c0-3.768-1.981-6.993-5.594-6.993c-2.331,0-4.506,1.671-5.166,4.235c-0.116,0.427-0.233,0.933-0.233,1.399L319.476,545.369
		L319.476,545.369z"/>
	<path class="st0" d="M337.808,540.085c0-2.214-0.038-4.117-0.155-5.865h2.991l0.116,3.69h0.155
		c0.855-2.525,2.914-4.118,5.205-4.118c0.389,0,0.66,0.039,0.971,0.116v3.224c-0.349-0.078-0.699-0.116-1.166-0.116
		c-2.409,0-4.117,1.826-4.584,4.39c-0.078,0.467-0.156,1.01-0.156,1.593v10.022h-3.379v-12.935H337.808z"/>
	<path class="st0" d="M354.082,528.937c0.04,1.166-0.816,2.098-2.175,2.098c-1.204,0-2.059-0.933-2.059-2.098
		c0-1.204,0.894-2.137,2.137-2.137C353.267,526.8,354.082,527.732,354.082,528.937z M350.275,553.021V534.22h3.419v18.801H350.275z"
		/>
	<path class="st0" d="M372.378,552.322c-0.894,0.467-2.874,1.088-5.4,1.088c-5.672,0-9.362-3.846-9.362-9.596
		c0-5.788,3.962-9.983,10.1-9.983c2.02,0,3.807,0.505,4.74,0.972l-0.777,2.642c-0.816-0.467-2.098-0.893-3.962-0.893
		c-4.312,0-6.643,3.185-6.643,7.108c0,4.351,2.796,7.031,6.526,7.031c1.942,0,3.225-0.505,4.195-0.932L372.378,552.322z"/>
	<path class="st0" d="M377.658,544.242c0.078,4.622,3.03,6.526,6.448,6.526c2.447,0,3.924-0.427,5.205-0.971l0.583,2.447
		c-1.204,0.544-3.263,1.166-6.254,1.166c-5.788,0-9.246-3.808-9.246-9.479s3.34-10.138,8.818-10.138c6.137,0,7.769,5.4,7.769,8.857
		c0,0.699-0.078,1.243-0.116,1.593L377.658,544.242L377.658,544.242z M387.68,541.794c0.039-2.176-0.893-5.555-4.739-5.555
		c-3.457,0-4.973,3.185-5.245,5.555H387.68z"/>
</g>
</svg>
