<?xml version="1.0" encoding="utf-8"?>
<!-- Generator: Adobe Illustrator 20.0.0, SVG Export Plug-In . SVG Version: 6.00 Build 0)  -->
<svg version="1.1" id="Layer_1" xmlns="http://www.w3.org/2000/svg" xmlns:xlink="http://www.w3.org/1999/xlink" x="0px" y="0px"
	 width="175.466px" height="861.333px" viewBox="0 0 175.466 861.333" style="enable-background:new 0 0 175.466 861.333;"
	 xml:space="preserve">
<style type="text/css">
	.st0{fill:#EAC452;}
	.st1{fill:#70D0F6;}
	.st2{fill:#DC594C;}
	.st3{fill:#2B2B2B;}
	.st4{fill-rule:evenodd;clip-rule:evenodd;fill:#2B2B2B;}
	.st5{opacity:0.25;fill:#3B3B3B;}
	.st6{opacity:0.3;}
	.st7{fill:#231F20;}
	.st8{fill:#FFFFFF;}
	.st9{fill:#E2EAED;}
	.st10{fill:#3E516A;}
	.st11{fill:#2B3D51;}
	.st12{fill:#BCBEC0;}
	.st13{fill:#0A2847;}
	.st14{fill:#A0A4A7;}
	.st15{fill:#797D82;}
	.st16{fill:#E0DADB;}
	.st17{opacity:0.2;}
	.st18{fill:#F15D4E;}
	.st19{fill:#2F4955;}
	.st20{fill:#021A36;}
	.st21{fill:#F04836;}
	.st22{fill:#011F3A;}
	.st23{fill:#939598;}
	.st24{fill:#6D6E71;}
	.st25{fill:#58595B;}
	.st26{clip-path:url(#SVGID_2_);fill:#FFFFFF;}
	.st27{clip-path:url(#SVGID_2_);fill:#FEFEFE;}
	.st28{clip-path:url(#SVGID_2_);fill:#FDFDFD;}
	.st29{clip-path:url(#SVGID_2_);fill:#FCFCFC;}
	.st30{clip-path:url(#SVGID_2_);fill:#FBFBFB;}
	.st31{clip-path:url(#SVGID_2_);fill:#FAFAFA;}
	.st32{clip-path:url(#SVGID_2_);fill:#F9F9F9;}
	.st33{clip-path:url(#SVGID_2_);fill:#F8F8F8;}
	.st34{clip-path:url(#SVGID_2_);fill:#F7F7F7;}
	.st35{clip-path:url(#SVGID_2_);fill:#F6F6F6;}
	.st36{clip-path:url(#SVGID_2_);fill:#F5F5F5;}
	.st37{clip-path:url(#SVGID_2_);fill:#F4F4F4;}
	.st38{clip-path:url(#SVGID_2_);fill:#F3F3F3;}
	.st39{clip-path:url(#SVGID_2_);fill:#F2F2F2;}
	.st40{clip-path:url(#SVGID_2_);fill:#F1F1F1;}
	.st41{clip-path:url(#SVGID_2_);fill:#F0F0F0;}
	.st42{clip-path:url(#SVGID_2_);fill:#EFEFEF;}
	.st43{clip-path:url(#SVGID_2_);fill:#EEEEEE;}
	.st44{clip-path:url(#SVGID_2_);fill:#EDEDED;}
	.st45{clip-path:url(#SVGID_2_);fill:#ECECEC;}
	.st46{clip-path:url(#SVGID_2_);fill:#EBEBEB;}
	.st47{clip-path:url(#SVGID_2_);fill:#EAEAEA;}
	.st48{clip-path:url(#SVGID_2_);fill:#E9E9E9;}
	.st49{clip-path:url(#SVGID_2_);fill:#E8E8E8;}
	.st50{clip-path:url(#SVGID_2_);fill:#E7E7E7;}
	.st51{clip-path:url(#SVGID_2_);fill:#E6E6E6;}
	.st52{clip-path:url(#SVGID_2_);fill:#E5E5E5;}
	.st53{clip-path:url(#SVGID_2_);fill:#E4E4E4;}
	.st54{clip-path:url(#SVGID_2_);fill:#E3E3E3;}
	.st55{clip-path:url(#SVGID_2_);fill:#E2E2E2;}
	.st56{clip-path:url(#SVGID_2_);fill:#E1E1E1;}
	.st57{clip-path:url(#SVGID_2_);fill:#E0E0E0;}
	.st58{clip-path:url(#SVGID_2_);fill:#DFDFDF;}
	.st59{clip-path:url(#SVGID_2_);fill:#DEDEDE;}
	.st60{clip-path:url(#SVGID_2_);fill:#DDDDDD;}
	.st61{clip-path:url(#SVGID_2_);fill:#DCDCDC;}
	.st62{clip-path:url(#SVGID_2_);fill:#DBDBDB;}
	.st63{clip-path:url(#SVGID_2_);fill:#DADADA;}
	.st64{clip-path:url(#SVGID_2_);fill:#D9D9D9;}
	.st65{clip-path:url(#SVGID_2_);fill:#D8D8D9;}
	.st66{clip-path:url(#SVGID_2_);fill:#D7D7D8;}
	.st67{clip-path:url(#SVGID_2_);fill:#D6D6D7;}
	.st68{clip-path:url(#SVGID_2_);fill:#D5D5D6;}
	.st69{clip-path:url(#SVGID_2_);fill:#D4D4D5;}
	.st70{clip-path:url(#SVGID_2_);fill:#D3D3D4;}
	.st71{clip-path:url(#SVGID_2_);fill:#D2D2D3;}
	.st72{clip-path:url(#SVGID_2_);fill:#D1D1D2;}
	.st73{clip-path:url(#SVGID_2_);fill:#D0D0D1;}
	.st74{clip-path:url(#SVGID_2_);fill:#CFCFD0;}
	.st75{clip-path:url(#SVGID_2_);fill:#CECECF;}
	.st76{clip-path:url(#SVGID_2_);fill:#CDCDCE;}
	.st77{clip-path:url(#SVGID_2_);fill:#CCCCCD;}
	.st78{clip-path:url(#SVGID_2_);fill:#CBCBCC;}
	.st79{clip-path:url(#SVGID_2_);fill:#CACACB;}
	.st80{clip-path:url(#SVGID_2_);fill:#C9C9CA;}
	.st81{clip-path:url(#SVGID_2_);fill:#C8C8C9;}
	.st82{clip-path:url(#SVGID_2_);fill:#C7C7C8;}
	.st83{clip-path:url(#SVGID_2_);fill:#C6C6C7;}
	.st84{clip-path:url(#SVGID_2_);fill:#C5C5C6;}
	.st85{clip-path:url(#SVGID_2_);fill:#C4C4C5;}
	.st86{clip-path:url(#SVGID_2_);fill:#C3C3C4;}
	.st87{clip-path:url(#SVGID_2_);fill:#C2C2C3;}
	.st88{clip-path:url(#SVGID_2_);fill:#C1C1C2;}
	.st89{clip-path:url(#SVGID_2_);fill:#C0C0C1;}
	.st90{clip-path:url(#SVGID_2_);fill:#BFBFC0;}
	.st91{clip-path:url(#SVGID_2_);fill:#BEBEBF;}
	.st92{clip-path:url(#SVGID_2_);fill:#BDBDBE;}
	.st93{clip-path:url(#SVGID_2_);fill:#BCBCBD;}
	.st94{clip-path:url(#SVGID_2_);fill:#BBBBBC;}
	.st95{clip-path:url(#SVGID_2_);fill:#BABABB;}
	.st96{clip-path:url(#SVGID_2_);fill:#B9B9BA;}
	.st97{clip-path:url(#SVGID_2_);fill:#B8B8B9;}
	.st98{clip-path:url(#SVGID_2_);fill:#B7B7B8;}
	.st99{clip-path:url(#SVGID_2_);fill:#B6B6B7;}
	.st100{clip-path:url(#SVGID_2_);fill:#B5B5B6;}
	.st101{clip-path:url(#SVGID_2_);fill:#B4B4B5;}
	.st102{clip-path:url(#SVGID_2_);fill:#B3B3B4;}
	.st103{clip-path:url(#SVGID_2_);fill:#B2B2B3;}
	.st104{clip-path:url(#SVGID_2_);fill:#B0B1B2;}
	.st105{clip-path:url(#SVGID_2_);fill:#AFB0B1;}
	.st106{clip-path:url(#SVGID_2_);fill:#AEAFB0;}
	.st107{clip-path:url(#SVGID_2_);fill:#ADAEAF;}
	.st108{clip-path:url(#SVGID_2_);fill:#ACADAE;}
	.st109{clip-path:url(#SVGID_2_);fill:#ABACAD;}
	.st110{clip-path:url(#SVGID_2_);fill:#AAABAC;}
	.st111{clip-path:url(#SVGID_2_);fill:#A9AAAB;}
	.st112{clip-path:url(#SVGID_2_);fill:#A8A9AA;}
	.st113{clip-path:url(#SVGID_2_);fill:#A7A8A9;}
	.st114{clip-path:url(#SVGID_2_);fill:#A6A7A8;}
	.st115{clip-path:url(#SVGID_2_);fill:#A5A6A7;}
	.st116{clip-path:url(#SVGID_2_);fill:#A4A5A6;}
	.st117{clip-path:url(#SVGID_2_);fill:#A3A4A5;}
	.st118{clip-path:url(#SVGID_2_);fill:#A2A3A4;}
	.st119{clip-path:url(#SVGID_2_);fill:#A1A2A3;}
	.st120{clip-path:url(#SVGID_2_);fill:#A0A1A2;}
	.st121{clip-path:url(#SVGID_2_);fill:#9FA0A1;}
	.st122{clip-path:url(#SVGID_2_);fill:#9E9FA0;}
	.st123{clip-path:url(#SVGID_2_);fill:#9D9E9F;}
	.st124{clip-path:url(#SVGID_2_);fill:#9C9D9E;}
	.st125{clip-path:url(#SVGID_2_);fill:#9B9C9D;}
	.st126{clip-path:url(#SVGID_2_);fill:#9A9B9C;}
	.st127{clip-path:url(#SVGID_2_);fill:#999A9B;}
	.st128{clip-path:url(#SVGID_2_);fill:#98999A;}
	.st129{clip-path:url(#SVGID_2_);fill:#979899;}
	.st130{clip-path:url(#SVGID_2_);fill:#969798;}
	.st131{clip-path:url(#SVGID_2_);fill:#959697;}
	.st132{clip-path:url(#SVGID_2_);fill:#949596;}
	.st133{clip-path:url(#SVGID_2_);fill:#939495;}
	.st134{clip-path:url(#SVGID_2_);fill:#929394;}
	.st135{clip-path:url(#SVGID_2_);fill:#919293;}
	.st136{clip-path:url(#SVGID_2_);fill:#909192;}
	.st137{clip-path:url(#SVGID_2_);fill:#8F9091;}
	.st138{clip-path:url(#SVGID_2_);fill:#8E8F90;}
	.st139{clip-path:url(#SVGID_2_);fill:#8D8E8F;}
	.st140{clip-path:url(#SVGID_2_);fill:#8C8D8E;}
	.st141{clip-path:url(#SVGID_2_);fill:#8B8C8D;}
	.st142{clip-path:url(#SVGID_2_);fill:#8A8B8C;}
	.st143{clip-path:url(#SVGID_2_);fill:#898A8C;}
	.st144{clip-path:url(#SVGID_2_);fill:#88898B;}
	.st145{clip-path:url(#SVGID_2_);fill:#87888A;}
	.st146{clip-path:url(#SVGID_2_);fill:#868789;}
	.st147{clip-path:url(#SVGID_2_);fill:#858688;}
	.st148{clip-path:url(#SVGID_2_);fill:#848587;}
	.st149{clip-path:url(#SVGID_2_);fill:#838486;}
	.st150{clip-path:url(#SVGID_2_);fill:#828385;}
	.st151{clip-path:url(#SVGID_2_);fill:#818284;}
	.st152{clip-path:url(#SVGID_2_);fill:#808183;}
	.st153{clip-path:url(#SVGID_2_);fill:#7F8082;}
	.st154{clip-path:url(#SVGID_2_);fill:#7E7F81;}
	.st155{clip-path:url(#SVGID_2_);fill:#7D7E80;}
	.st156{clip-path:url(#SVGID_2_);fill:#7C7D7F;}
	.st157{clip-path:url(#SVGID_2_);fill:#7B7C7E;}
	.st158{clip-path:url(#SVGID_2_);fill:#7A7B7D;}
	.st159{clip-path:url(#SVGID_2_);fill:#797A7C;}
	.st160{clip-path:url(#SVGID_2_);fill:#78797B;}
	.st161{clip-path:url(#SVGID_2_);fill:#77787A;}
	.st162{clip-path:url(#SVGID_2_);fill:#767779;}
	.st163{clip-path:url(#SVGID_2_);fill:#757678;}
	.st164{clip-path:url(#SVGID_2_);fill:#747577;}
	.st165{clip-path:url(#SVGID_2_);fill:#737476;}
	.st166{clip-path:url(#SVGID_2_);fill:#727375;}
	.st167{clip-path:url(#SVGID_2_);fill:#717274;}
	.st168{clip-path:url(#SVGID_2_);fill:#707173;}
	.st169{clip-path:url(#SVGID_2_);fill:#6F7072;}
	.st170{clip-path:url(#SVGID_2_);fill:#6E6F71;}
	.st171{clip-path:url(#SVGID_2_);fill:#6D6E70;}
	.st172{clip-path:url(#SVGID_2_);fill:#6C6D6F;}
	.st173{clip-path:url(#SVGID_2_);fill:#6B6C6E;}
	.st174{clip-path:url(#SVGID_2_);fill:#6A6B6D;}
	.st175{clip-path:url(#SVGID_2_);fill:#696A6C;}
	.st176{clip-path:url(#SVGID_2_);fill:#68696B;}
	.st177{clip-path:url(#SVGID_2_);fill:#67686A;}
	.st178{clip-path:url(#SVGID_2_);fill:#666769;}
	.st179{clip-path:url(#SVGID_2_);fill:#656668;}
	.st180{clip-path:url(#SVGID_2_);fill:#646567;}
	.st181{clip-path:url(#SVGID_2_);fill:#636466;}
	.st182{clip-path:url(#SVGID_4_);}
	.st183{fill:#0A1820;}
	.st184{opacity:0.5;}
	.st185{fill:#E2E2E2;}
	.st186{fill:#010101;}
	.st187{opacity:0.37;fill:url(#SVGID_5_);}
	.st188{opacity:0.37;fill:url(#SVGID_6_);}
	.st189{opacity:0.37;fill:url(#SVGID_7_);}
	.st190{opacity:0.37;fill:url(#SVGID_8_);}
	.st191{opacity:0.37;fill:url(#SVGID_9_);}
	.st192{opacity:0.37;fill:url(#SVGID_10_);}
	.st193{fill:#DDEFF8;}
	.st194{fill:#37414B;}
	.st195{opacity:0.2;fill:#231F20;}
	.st196{fill:#EFEFEF;}
	.st197{fill:#1D396A;}
	.st198{fill:#D5DBDB;}
	.st199{fill:#DDEFF8;stroke:#1D396A;stroke-width:2;stroke-miterlimit:10;}
	.st200{fill:#44C5E1;stroke:#1D396A;stroke-width:2;stroke-miterlimit:10;}
	.st201{fill:#44C5E1;stroke:#1D396A;stroke-width:2;stroke-linecap:round;stroke-miterlimit:10;}
	.st202{fill:url(#SVGID_11_);}
	.st203{fill:#44C5E1;}
	.st204{fill:#FFFFFF;stroke:#1D396A;stroke-width:2;stroke-linecap:round;stroke-miterlimit:10;}
	.st205{fill:#D2D8D6;}
	.st206{fill:#EBF0F3;}
	.st207{fill:#F1F2F2;stroke:#1D396A;stroke-width:2;stroke-miterlimit:10;}
	.st208{fill:#F1F2F2;}
	.st209{fill:#FFFFFD;}
	.st210{fill:#D1D3D4;stroke:#1D396A;stroke-width:2;stroke-miterlimit:10;}
	.st211{fill:#D3CE24;stroke:#1D396A;stroke-width:2;stroke-miterlimit:10;}
	.st212{fill:#79B3D5;}
	.st213{fill:#26B898;}
	.st214{clip-path:url(#SVGID_13_);fill:#FFFFFF;}
	.st215{clip-path:url(#SVGID_13_);fill:#FEFEFE;}
	.st216{clip-path:url(#SVGID_13_);fill:#FCFCFC;}
	.st217{clip-path:url(#SVGID_13_);fill:#FBFBFB;}
	.st218{clip-path:url(#SVGID_13_);fill:#FAFAFA;}
	.st219{clip-path:url(#SVGID_13_);fill:#F9F9F9;}
	.st220{clip-path:url(#SVGID_13_);fill:#F8F8F8;}
	.st221{clip-path:url(#SVGID_13_);fill:#F7F7F7;}
	.st222{clip-path:url(#SVGID_13_);fill:#F6F6F6;}
	.st223{clip-path:url(#SVGID_13_);fill:#F5F5F5;}
	.st224{clip-path:url(#SVGID_13_);fill:#F4F4F4;}
	.st225{clip-path:url(#SVGID_13_);fill:#F3F3F3;}
	.st226{clip-path:url(#SVGID_13_);fill:#F2F2F2;}
	.st227{clip-path:url(#SVGID_13_);fill:#F1F1F1;}
	.st228{clip-path:url(#SVGID_13_);fill:#F0F0F0;}
	.st229{clip-path:url(#SVGID_13_);fill:#EFEFEF;}
	.st230{clip-path:url(#SVGID_13_);fill:#EEEEEE;}
	.st231{clip-path:url(#SVGID_13_);fill:#EDEDED;}
	.st232{clip-path:url(#SVGID_13_);fill:#ECECEC;}
	.st233{clip-path:url(#SVGID_13_);fill:#EBEBEB;}
	.st234{clip-path:url(#SVGID_13_);fill:#EAEAEA;}
	.st235{clip-path:url(#SVGID_13_);fill:#E9E9E9;}
	.st236{clip-path:url(#SVGID_13_);fill:#E8E8E8;}
	.st237{clip-path:url(#SVGID_13_);fill:#E7E7E7;}
	.st238{clip-path:url(#SVGID_13_);fill:#E6E6E6;}
	.st239{clip-path:url(#SVGID_13_);fill:#E5E5E5;}
	.st240{clip-path:url(#SVGID_13_);fill:#E4E4E4;}
	.st241{clip-path:url(#SVGID_13_);fill:#E3E3E3;}
	.st242{clip-path:url(#SVGID_13_);fill:#E2E2E2;}
	.st243{clip-path:url(#SVGID_13_);fill:#E1E1E1;}
	.st244{clip-path:url(#SVGID_13_);fill:#E0E0E0;}
	.st245{clip-path:url(#SVGID_13_);fill:#DFDFDF;}
	.st246{clip-path:url(#SVGID_13_);fill:#DEDEDE;}
	.st247{clip-path:url(#SVGID_13_);fill:#DDDDDD;}
	.st248{clip-path:url(#SVGID_13_);fill:#DCDCDC;}
	.st249{clip-path:url(#SVGID_13_);fill:#DBDBDB;}
	.st250{clip-path:url(#SVGID_13_);fill:#DADADA;}
	.st251{clip-path:url(#SVGID_13_);fill:#D9D9D9;}
	.st252{clip-path:url(#SVGID_13_);fill:#D8D8D8;}
	.st253{clip-path:url(#SVGID_13_);fill:#D7D7D7;}
	.st254{clip-path:url(#SVGID_13_);fill:#D6D6D6;}
	.st255{clip-path:url(#SVGID_13_);fill:#D5D5D5;}
	.st256{clip-path:url(#SVGID_13_);fill:#D4D4D5;}
	.st257{clip-path:url(#SVGID_13_);fill:#D3D3D4;}
	.st258{clip-path:url(#SVGID_13_);fill:#D2D2D3;}
	.st259{clip-path:url(#SVGID_13_);fill:#D1D1D2;}
	.st260{clip-path:url(#SVGID_13_);fill:#D0D0D1;}
	.st261{clip-path:url(#SVGID_13_);fill:#CFCFD0;}
	.st262{clip-path:url(#SVGID_13_);fill:#CECECF;}
	.st263{clip-path:url(#SVGID_13_);fill:#CDCDCE;}
	.st264{clip-path:url(#SVGID_13_);fill:#CCCCCD;}
	.st265{clip-path:url(#SVGID_13_);fill:#CBCBCC;}
	.st266{clip-path:url(#SVGID_13_);fill:#CACACB;}
	.st267{clip-path:url(#SVGID_13_);fill:#C9C9CA;}
	.st268{clip-path:url(#SVGID_13_);fill:#C8C8C9;}
	.st269{clip-path:url(#SVGID_13_);fill:#C7C7C8;}
	.st270{clip-path:url(#SVGID_13_);fill:#C6C6C7;}
	.st271{clip-path:url(#SVGID_13_);fill:#C5C5C6;}
	.st272{clip-path:url(#SVGID_13_);fill:#C4C4C5;}
	.st273{clip-path:url(#SVGID_13_);fill:#C3C3C4;}
	.st274{clip-path:url(#SVGID_13_);fill:#C2C2C3;}
	.st275{clip-path:url(#SVGID_13_);fill:#C1C1C2;}
	.st276{clip-path:url(#SVGID_13_);fill:#C0C0C1;}
	.st277{clip-path:url(#SVGID_13_);fill:#BFBFC0;}
	.st278{clip-path:url(#SVGID_13_);fill:#BEBEBF;}
	.st279{clip-path:url(#SVGID_13_);fill:#BDBDBE;}
	.st280{clip-path:url(#SVGID_13_);fill:#BCBCBD;}
	.st281{clip-path:url(#SVGID_13_);fill:#BBBBBC;}
	.st282{clip-path:url(#SVGID_13_);fill:#BABABB;}
	.st283{clip-path:url(#SVGID_13_);fill:#B9B9BA;}
	.st284{clip-path:url(#SVGID_13_);fill:#B8B8B9;}
	.st285{clip-path:url(#SVGID_13_);fill:#B7B7B8;}
	.st286{clip-path:url(#SVGID_13_);fill:#B6B6B7;}
	.st287{clip-path:url(#SVGID_13_);fill:#B5B5B6;}
	.st288{clip-path:url(#SVGID_13_);fill:#B4B4B5;}
	.st289{clip-path:url(#SVGID_13_);fill:#B3B3B4;}
	.st290{clip-path:url(#SVGID_13_);fill:#B2B2B3;}
	.st291{clip-path:url(#SVGID_13_);fill:#B1B1B2;}
	.st292{clip-path:url(#SVGID_13_);fill:#B0B0B1;}
	.st293{clip-path:url(#SVGID_13_);fill:#AFAFB0;}
	.st294{clip-path:url(#SVGID_13_);fill:#ADAEAF;}
	.st295{clip-path:url(#SVGID_13_);fill:#ACADAE;}
	.st296{clip-path:url(#SVGID_13_);fill:#ABACAD;}
	.st297{clip-path:url(#SVGID_13_);fill:#AAABAC;}
	.st298{clip-path:url(#SVGID_13_);fill:#A9AAAB;}
	.st299{clip-path:url(#SVGID_13_);fill:#A8A9AA;}
	.st300{clip-path:url(#SVGID_13_);fill:#A7A8A9;}
	.st301{clip-path:url(#SVGID_13_);fill:#A6A7A8;}
	.st302{clip-path:url(#SVGID_13_);fill:#A5A6A7;}
	.st303{clip-path:url(#SVGID_13_);fill:#A4A5A6;}
	.st304{clip-path:url(#SVGID_13_);fill:#A3A4A5;}
	.st305{clip-path:url(#SVGID_13_);fill:#A2A3A4;}
	.st306{clip-path:url(#SVGID_13_);fill:#A1A2A3;}
	.st307{clip-path:url(#SVGID_13_);fill:#A0A1A2;}
	.st308{clip-path:url(#SVGID_13_);fill:#9FA0A1;}
	.st309{clip-path:url(#SVGID_13_);fill:#9E9FA0;}
	.st310{clip-path:url(#SVGID_13_);fill:#9D9E9F;}
	.st311{clip-path:url(#SVGID_13_);fill:#9C9D9E;}
	.st312{clip-path:url(#SVGID_13_);fill:#9B9C9D;}
	.st313{clip-path:url(#SVGID_13_);fill:#9A9B9C;}
	.st314{clip-path:url(#SVGID_13_);fill:#999A9B;}
	.st315{clip-path:url(#SVGID_13_);fill:#98999A;}
	.st316{clip-path:url(#SVGID_13_);fill:#979899;}
	.st317{clip-path:url(#SVGID_13_);fill:#969798;}
	.st318{clip-path:url(#SVGID_13_);fill:#959697;}
	.st319{clip-path:url(#SVGID_13_);fill:#949596;}
	.st320{clip-path:url(#SVGID_13_);fill:#939495;}
	.st321{clip-path:url(#SVGID_13_);fill:#929394;}
	.st322{clip-path:url(#SVGID_13_);fill:#919293;}
	.st323{clip-path:url(#SVGID_13_);fill:#909192;}
	.st324{clip-path:url(#SVGID_13_);fill:#8F9091;}
	.st325{clip-path:url(#SVGID_13_);fill:#8E8F90;}
	.st326{clip-path:url(#SVGID_13_);fill:#8D8E8F;}
	.st327{clip-path:url(#SVGID_13_);fill:#8C8D8E;}
	.st328{clip-path:url(#SVGID_13_);fill:#8B8C8D;}
	.st329{clip-path:url(#SVGID_13_);fill:#8A8B8C;}
	.st330{clip-path:url(#SVGID_13_);fill:#898A8B;}
	.st331{clip-path:url(#SVGID_13_);fill:#88898B;}
	.st332{clip-path:url(#SVGID_13_);fill:#87888A;}
	.st333{clip-path:url(#SVGID_13_);fill:#868789;}
	.st334{clip-path:url(#SVGID_13_);fill:#858688;}
	.st335{clip-path:url(#SVGID_13_);fill:#848587;}
	.st336{clip-path:url(#SVGID_13_);fill:#838486;}
	.st337{clip-path:url(#SVGID_13_);fill:#828385;}
	.st338{clip-path:url(#SVGID_13_);fill:#818284;}
	.st339{clip-path:url(#SVGID_13_);fill:#808183;}
	.st340{clip-path:url(#SVGID_13_);fill:#7F8082;}
	.st341{clip-path:url(#SVGID_13_);fill:#7E7F81;}
	.st342{clip-path:url(#SVGID_13_);fill:#7D7E80;}
	.st343{clip-path:url(#SVGID_13_);fill:#7C7D7F;}
	.st344{clip-path:url(#SVGID_13_);fill:#7B7C7E;}
	.st345{clip-path:url(#SVGID_13_);fill:#7A7B7D;}
	.st346{clip-path:url(#SVGID_13_);fill:#797A7C;}
	.st347{clip-path:url(#SVGID_13_);fill:#78797B;}
	.st348{clip-path:url(#SVGID_13_);fill:#77787A;}
	.st349{clip-path:url(#SVGID_13_);fill:#767779;}
	.st350{clip-path:url(#SVGID_13_);fill:#757678;}
	.st351{clip-path:url(#SVGID_13_);fill:#747577;}
	.st352{clip-path:url(#SVGID_13_);fill:#737476;}
	.st353{clip-path:url(#SVGID_13_);fill:#727375;}
	.st354{clip-path:url(#SVGID_13_);fill:#717274;}
	.st355{clip-path:url(#SVGID_13_);fill:#707173;}
	.st356{clip-path:url(#SVGID_13_);fill:#6F7072;}
	.st357{clip-path:url(#SVGID_13_);fill:#6E6F71;}
	.st358{clip-path:url(#SVGID_13_);fill:#6D6E70;}
	.st359{clip-path:url(#SVGID_13_);fill:#6C6D6F;}
	.st360{clip-path:url(#SVGID_13_);fill:#6B6C6E;}
	.st361{clip-path:url(#SVGID_13_);fill:#6A6B6D;}
	.st362{clip-path:url(#SVGID_13_);fill:#696A6C;}
	.st363{clip-path:url(#SVGID_13_);fill:#68696B;}
	.st364{clip-path:url(#SVGID_13_);fill:#67686A;}
	.st365{clip-path:url(#SVGID_13_);fill:#666769;}
	.st366{clip-path:url(#SVGID_13_);fill:#656668;}
	.st367{clip-path:url(#SVGID_13_);fill:#646567;}
	.st368{clip-path:url(#SVGID_13_);fill:#636466;}
	.st369{clip-path:url(#SVGID_15_);}
	.st370{fill:#FEFEFE;}
	.st371{fill:#FCFCFC;}
	.st372{fill:#FBFBFB;}
	.st373{fill:#FAFAFA;}
	.st374{fill:#F9F9F9;}
	.st375{fill:#F8F8F8;}
	.st376{fill:#F7F7F7;}
	.st377{fill:#F6F6F6;}
	.st378{fill:#F5F5F5;}
	.st379{fill:#F4F4F4;}
	.st380{fill:#F3F3F3;}
	.st381{fill:#F2F2F2;}
	.st382{fill:#F1F1F1;}
	.st383{fill:#F0F0F0;}
	.st384{fill:#EEEEEE;}
	.st385{fill:#EDEDED;}
	.st386{fill:#ECECEC;}
	.st387{fill:#EBEBEB;}
	.st388{fill:#EAEAEA;}
	.st389{fill:#E9E9E9;}
	.st390{fill:#E8E8E8;}
	.st391{fill:#E7E7E7;}
	.st392{fill:#E6E6E6;}
	.st393{fill:#E5E5E5;}
	.st394{fill:#E4E4E4;}
	.st395{fill:#E3E3E3;}
	.st396{fill:#E1E1E1;}
	.st397{fill:#E0E0E0;}
	.st398{fill:#DFDFDF;}
	.st399{fill:#DEDEDE;}
	.st400{fill:#DDDDDD;}
	.st401{fill:#DCDCDC;}
	.st402{fill:#DBDBDB;}
	.st403{fill:#DADADA;}
	.st404{fill:#D9D9D9;}
	.st405{fill:#D8D8D8;}
	.st406{fill:#D7D7D7;}
	.st407{fill:#D6D6D6;}
	.st408{fill:#D5D5D5;}
	.st409{fill:#D4D4D5;}
	.st410{fill:#D3D3D4;}
	.st411{fill:#D2D2D3;}
	.st412{fill:#D1D1D2;}
	.st413{fill:#D0D0D1;}
	.st414{fill:#CFCFD0;}
	.st415{fill:#CECECF;}
	.st416{fill:#CDCDCE;}
	.st417{fill:#CCCCCD;}
	.st418{fill:#CBCBCC;}
	.st419{fill:#CACACB;}
	.st420{fill:#C9C9CA;}
	.st421{fill:#C8C8C9;}
	.st422{fill:#C7C7C8;}
	.st423{fill:#C6C6C7;}
	.st424{fill:#C5C5C6;}
	.st425{fill:#C4C4C5;}
	.st426{fill:#C3C3C4;}
	.st427{fill:#C2C2C3;}
	.st428{fill:#C1C1C2;}
	.st429{fill:#C0C0C1;}
	.st430{fill:#BFBFC0;}
	.st431{fill:#BEBEBF;}
	.st432{fill:#BDBDBE;}
	.st433{fill:#BCBCBD;}
	.st434{fill:#BBBBBC;}
	.st435{fill:#BABABB;}
	.st436{fill:#B9B9BA;}
	.st437{fill:#B8B8B9;}
	.st438{fill:#B7B7B8;}
	.st439{fill:#B6B6B7;}
	.st440{fill:#B5B5B6;}
	.st441{fill:#B4B4B5;}
	.st442{fill:#B3B3B4;}
	.st443{fill:#B2B2B3;}
	.st444{fill:#B1B1B2;}
	.st445{fill:#B0B0B1;}
	.st446{fill:#AFAFB0;}
	.st447{fill:#ADAEAF;}
	.st448{fill:#ACADAE;}
	.st449{fill:#ABACAD;}
	.st450{fill:#AAABAC;}
	.st451{fill:#A9AAAB;}
	.st452{fill:#A8A9AA;}
	.st453{fill:#A7A8A9;}
	.st454{fill:#A6A7A8;}
	.st455{fill:#A5A6A7;}
	.st456{fill:#A4A5A6;}
	.st457{fill:#A3A4A5;}
	.st458{fill:#A2A3A4;}
	.st459{fill:#A1A2A3;}
	.st460{fill:#A0A1A2;}
	.st461{fill:#9FA0A1;}
	.st462{fill:#9E9FA0;}
	.st463{fill:#9D9E9F;}
	.st464{fill:#9C9D9E;}
	.st465{fill:#9B9C9D;}
	.st466{fill:#9A9B9C;}
	.st467{fill:#999A9B;}
	.st468{fill:#98999A;}
	.st469{fill:#979899;}
	.st470{fill:#969798;}
	.st471{fill:#959697;}
	.st472{fill:#949596;}
	.st473{fill:#939495;}
	.st474{fill:#929394;}
	.st475{fill:#919293;}
	.st476{fill:#909192;}
	.st477{fill:#8F9091;}
	.st478{fill:#8E8F90;}
	.st479{fill:#8D8E8F;}
	.st480{fill:#8C8D8E;}
	.st481{fill:#8B8C8D;}
	.st482{fill:#8A8B8C;}
	.st483{fill:#898A8B;}
	.st484{fill:#88898B;}
	.st485{fill:#87888A;}
	.st486{fill:#868789;}
	.st487{fill:#858688;}
	.st488{fill:#848587;}
	.st489{fill:#838486;}
	.st490{fill:#828385;}
	.st491{fill:#818284;}
	.st492{fill:#808183;}
	.st493{fill:#7F8082;}
	.st494{fill:#7E7F81;}
	.st495{fill:#7D7E80;}
	.st496{fill:#7C7D7F;}
	.st497{fill:#7B7C7E;}
	.st498{fill:#7A7B7D;}
	.st499{fill:#797A7C;}
	.st500{fill:#78797B;}
	.st501{fill:#77787A;}
	.st502{fill:#767779;}
	.st503{fill:#757678;}
	.st504{fill:#747577;}
	.st505{fill:#737476;}
	.st506{fill:#727375;}
	.st507{fill:#717274;}
	.st508{fill:#707173;}
	.st509{fill:#6F7072;}
	.st510{fill:#6E6F71;}
	.st511{fill:#6D6E70;}
	.st512{fill:#6C6D6F;}
	.st513{fill:#6B6C6E;}
	.st514{fill:#6A6B6D;}
	.st515{fill:#696A6C;}
	.st516{fill:#68696B;}
	.st517{fill:#67686A;}
	.st518{fill:#666769;}
	.st519{fill:#656668;}
	.st520{fill:#646567;}
	.st521{fill:#636466;}
	.st522{opacity:0.6;}
	.st523{opacity:0.4;}
	.st524{fill:#FECE8C;}
	.st525{fill:#DD8D24;}
	.st526{fill:#F4EDED;}
	.st527{fill:#A05F10;}
	.st528{fill:#FFCE43;}
	.st529{fill:#FF9900;}
	.st530{fill:#FFC306;}
	.st531{fill:#7A471F;}
	.st532{fill:#DD9F76;}
	.st533{fill:#E6E7E8;}
	.st534{fill:#D1D3D4;}
	.st535{clip-path:url(#SVGID_17_);}
	.st536{fill:#FDFDFD;}
	.st537{fill:#D4D4D4;}
	.st538{fill:#D3D3D3;}
	.st539{fill:#D2D2D2;}
	.st540{fill:#D1D1D1;}
	.st541{fill:#D0D0D0;}
	.st542{fill:#CFCFCF;}
	.st543{fill:#CECECE;}
	.st544{fill:#CDCDCD;}
	.st545{fill:#CCCCCC;}
	.st546{fill:#CBCBCB;}
	.st547{fill:#CACACA;}
	.st548{fill:#CAC9C9;}
	.st549{fill:#C9C7C7;}
	.st550{fill:#C8C6C6;}
	.st551{fill:#C7C5C5;}
	.st552{fill:#C6C4C4;}
	.st553{fill:#C5C3C3;}
	.st554{fill:#C4C2C2;}
	.st555{fill:#C3C1C1;}
	.st556{fill:#C2C0C0;}
	.st557{fill:#C1BFBF;}
	.st558{fill:#C0BEBE;}
	.st559{fill:#BFBDBD;}
	.st560{fill:#BEBCBC;}
	.st561{fill:#BDBBBB;}
	.st562{fill:#BCBABA;}
	.st563{fill:#BBB9B9;}
	.st564{fill:#BAB8B8;}
	.st565{fill:#B9B7B7;}
	.st566{fill:#B8B6B6;}
	.st567{fill:#B7B5B5;}
	.st568{fill:#B6B4B4;}
	.st569{fill:#B5B3B3;}
	.st570{fill:#B4B2B2;}
	.st571{fill:#B3B1B1;}
	.st572{fill:#B2B0B0;}
	.st573{fill:#B1AFAF;}
	.st574{fill:#B0AEAE;}
	.st575{fill:#AFADAD;}
	.st576{fill:#AEACAC;}
	.st577{fill:#ADABAB;}
	.st578{fill:#ACAAAA;}
	.st579{fill:#ABA9A9;}
	.st580{fill:#AAA8A8;}
	.st581{fill:#A9A7A7;}
	.st582{fill:#A8A6A6;}
	.st583{fill:#A7A5A5;}
	.st584{fill:#A6A4A4;}
	.st585{fill:#A5A3A3;}
	.st586{fill:#A4A2A2;}
	.st587{fill:#A3A1A1;}
	.st588{fill:#A2A0A0;}
	.st589{fill:#A19F9F;}
	.st590{fill:#A09E9E;}
	.st591{fill:#9F9D9D;}
	.st592{fill:#9E9C9C;}
	.st593{fill:#9D9B9B;}
	.st594{fill:#9C9A9A;}
	.st595{fill:#9B9999;}
	.st596{fill:#9A9898;}
	.st597{fill:#999797;}
	.st598{fill:#989696;}
	.st599{fill:#979595;}
	.st600{fill:#969494;}
	.st601{fill:#959393;}
	.st602{fill:#949292;}
	.st603{fill:#5E5E5E;}
	.st604{clip-path:url(#SVGID_19_);}
	.st605{fill:#C9C9C9;}
	.st606{fill:#C8C8C8;}
	.st607{fill:#C7C7C7;}
	.st608{fill:#C6C6C6;}
	.st609{fill:#C5C5C5;}
	.st610{fill:#939191;}
	.st611{fill:#929090;}
	.st612{fill:#918F8F;}
	.st613{fill:#908E8E;}
	.st614{fill:#8F8D8D;}
	.st615{fill:#8E8C8C;}
	.st616{fill:#8D8B8B;}
	.st617{fill:#8C8A8A;}
	.st618{fill:#8B8989;}
	.st619{clip-path:url(#SVGID_21_);}
	.st620{clip-path:url(#SVGID_23_);}
	.st621{clip-path:url(#SVGID_25_);}
	.st622{clip-path:url(#SVGID_27_);}
	.st623{fill:#A4A3A3;}
	.st624{fill:#A3A2A2;}
	.st625{fill:#A2A1A1;}
	.st626{fill:#A1A0A0;}
	.st627{fill:#A09F9F;}
	.st628{fill:#9F9E9E;}
	.st629{fill:#9E9D9D;}
	.st630{fill:#9D9C9C;}
	.st631{fill:#9C9B9B;}
	.st632{fill:#9B9A9A;}
	.st633{fill:#9A9999;}
	.st634{fill:#999898;}
	.st635{fill:#989797;}
	.st636{fill:#979697;}
	.st637{fill:#969596;}
	.st638{fill:#959495;}
	.st639{fill:#949394;}
	.st640{fill:#939293;}
	.st641{fill:#929192;}
	.st642{fill:#919091;}
	.st643{fill:#908F90;}
	.st644{fill:#8F8E8F;}
	.st645{fill:#8E8D8E;}
	.st646{fill:#8D8C8D;}
	.st647{fill:#8C8B8C;}
	.st648{fill:#8B8A8B;}
	.st649{fill:#8A898A;}
	.st650{fill:#898889;}
	.st651{fill:#888788;}
	.st652{fill:#878687;}
	.st653{fill:#868586;}
	.st654{fill:#858485;}
	.st655{fill:#848384;}
	.st656{fill:#838283;}
	.st657{fill:#828182;}
	.st658{fill:#818081;}
	.st659{fill:#807F80;}
	.st660{fill:#7F7E7F;}
	.st661{fill:#7D7E7F;}
	.st662{fill:#7C7D7E;}
	.st663{fill:#7B7C7D;}
	.st664{fill:#7A7B7C;}
	.st665{fill:#797A7B;}
	.st666{fill:#78797A;}
	.st667{fill:#777879;}
	.st668{fill:#767778;}
	.st669{fill:#757677;}
	.st670{fill:#747576;}
	.st671{fill:#737475;}
	.st672{fill:#727374;}
	.st673{fill:#717273;}
	.st674{fill:#707172;}
	.st675{fill:#6F7071;}
	.st676{fill:#6E6F70;}
	.st677{fill:#6D6E6F;}
	.st678{fill:#6C6D6E;}
	.st679{fill:#6B6C6D;}
	.st680{fill:#6A6B6C;}
	.st681{fill:#696A6B;}
	.st682{fill:#68696A;}
	.st683{fill:#676869;}
	.st684{fill:#666768;}
	.st685{fill:#656667;}
	.st686{fill:#626365;}
	.st687{fill:#616264;}
	.st688{fill:#606163;}
	.st689{fill:#5F6062;}
	.st690{fill:#5E5F61;}
	.st691{fill:#5D5E60;}
	.st692{fill:#5C5D5F;}
	.st693{fill:#5B5C5E;}
	.st694{fill:#5A5B5D;}
	.st695{fill:#595A5C;}
	.st696{clip-path:url(#SVGID_29_);fill:#A4A3A3;}
	.st697{clip-path:url(#SVGID_29_);fill:#A3A2A2;}
	.st698{clip-path:url(#SVGID_29_);fill:#A2A1A1;}
	.st699{clip-path:url(#SVGID_29_);fill:#A1A0A0;}
	.st700{clip-path:url(#SVGID_29_);fill:#A09F9F;}
	.st701{clip-path:url(#SVGID_29_);fill:#9F9E9E;}
	.st702{clip-path:url(#SVGID_29_);fill:#9E9D9D;}
	.st703{clip-path:url(#SVGID_29_);fill:#9D9C9C;}
	.st704{clip-path:url(#SVGID_29_);fill:#9C9B9B;}
	.st705{clip-path:url(#SVGID_29_);fill:#9B9A9A;}
	.st706{clip-path:url(#SVGID_29_);fill:#9A9999;}
	.st707{clip-path:url(#SVGID_29_);fill:#999898;}
	.st708{clip-path:url(#SVGID_29_);fill:#989797;}
	.st709{clip-path:url(#SVGID_29_);fill:#979697;}
	.st710{clip-path:url(#SVGID_29_);fill:#969596;}
	.st711{clip-path:url(#SVGID_29_);fill:#959495;}
	.st712{clip-path:url(#SVGID_29_);fill:#949394;}
	.st713{clip-path:url(#SVGID_29_);fill:#939293;}
	.st714{clip-path:url(#SVGID_29_);fill:#929192;}
	.st715{clip-path:url(#SVGID_29_);fill:#919091;}
	.st716{clip-path:url(#SVGID_29_);fill:#908F90;}
	.st717{clip-path:url(#SVGID_29_);fill:#8F8E8F;}
	.st718{clip-path:url(#SVGID_29_);fill:#8E8D8E;}
	.st719{clip-path:url(#SVGID_29_);fill:#8D8C8D;}
	.st720{clip-path:url(#SVGID_29_);fill:#8C8B8C;}
	.st721{clip-path:url(#SVGID_29_);fill:#8B8A8B;}
	.st722{clip-path:url(#SVGID_29_);fill:#8A898A;}
	.st723{clip-path:url(#SVGID_29_);fill:#898889;}
	.st724{clip-path:url(#SVGID_29_);fill:#888788;}
	.st725{clip-path:url(#SVGID_29_);fill:#878687;}
	.st726{clip-path:url(#SVGID_29_);fill:#868586;}
	.st727{clip-path:url(#SVGID_29_);fill:#858485;}
	.st728{clip-path:url(#SVGID_29_);fill:#848384;}
	.st729{clip-path:url(#SVGID_29_);fill:#838283;}
	.st730{clip-path:url(#SVGID_29_);fill:#828182;}
	.st731{clip-path:url(#SVGID_29_);fill:#818081;}
	.st732{clip-path:url(#SVGID_29_);fill:#807F80;}
	.st733{clip-path:url(#SVGID_29_);fill:#7F7E7F;}
	.st734{clip-path:url(#SVGID_29_);fill:#7D7E7F;}
	.st735{clip-path:url(#SVGID_29_);fill:#7C7D7E;}
	.st736{clip-path:url(#SVGID_29_);fill:#7B7C7D;}
	.st737{clip-path:url(#SVGID_29_);fill:#7A7B7C;}
	.st738{clip-path:url(#SVGID_29_);fill:#797A7B;}
	.st739{clip-path:url(#SVGID_29_);fill:#78797A;}
	.st740{clip-path:url(#SVGID_29_);fill:#777879;}
	.st741{clip-path:url(#SVGID_29_);fill:#767778;}
	.st742{clip-path:url(#SVGID_29_);fill:#757677;}
	.st743{clip-path:url(#SVGID_29_);fill:#747576;}
	.st744{clip-path:url(#SVGID_29_);fill:#737475;}
	.st745{clip-path:url(#SVGID_29_);fill:#727374;}
	.st746{clip-path:url(#SVGID_29_);fill:#717273;}
	.st747{clip-path:url(#SVGID_29_);fill:#707172;}
	.st748{clip-path:url(#SVGID_29_);fill:#6F7071;}
	.st749{clip-path:url(#SVGID_29_);fill:#6E6F70;}
	.st750{clip-path:url(#SVGID_29_);fill:#6D6E6F;}
	.st751{clip-path:url(#SVGID_29_);fill:#6C6D6E;}
	.st752{clip-path:url(#SVGID_29_);fill:#6B6C6D;}
	.st753{clip-path:url(#SVGID_29_);fill:#6A6B6C;}
	.st754{clip-path:url(#SVGID_29_);fill:#696A6B;}
	.st755{clip-path:url(#SVGID_29_);fill:#68696A;}
	.st756{clip-path:url(#SVGID_29_);fill:#676869;}
	.st757{clip-path:url(#SVGID_29_);fill:#666768;}
	.st758{clip-path:url(#SVGID_29_);fill:#656667;}
	.st759{clip-path:url(#SVGID_29_);fill:#646567;}
	.st760{clip-path:url(#SVGID_29_);fill:#636466;}
	.st761{clip-path:url(#SVGID_29_);fill:#626365;}
	.st762{clip-path:url(#SVGID_29_);fill:#616264;}
	.st763{clip-path:url(#SVGID_29_);fill:#606163;}
	.st764{clip-path:url(#SVGID_29_);fill:#5F6062;}
	.st765{clip-path:url(#SVGID_29_);fill:#5E5F61;}
	.st766{clip-path:url(#SVGID_29_);fill:#5D5E60;}
	.st767{clip-path:url(#SVGID_29_);fill:#5C5D5F;}
	.st768{clip-path:url(#SVGID_29_);fill:#5B5C5E;}
	.st769{clip-path:url(#SVGID_29_);fill:#5A5B5D;}
	.st770{clip-path:url(#SVGID_29_);fill:#595A5C;}
	.st771{clip-path:url(#SVGID_29_);fill:#58595B;}
	.st772{clip-path:url(#SVGID_31_);}
	.st773{clip-path:url(#SVGID_33_);}
	.st774{clip-path:url(#SVGID_35_);}
	.st775{clip-path:url(#SVGID_37_);}
	.st776{clip-path:url(#SVGID_39_);}
</style>
<g>
	<path class="st3" d="M141.695,0.103H65.259c-1.113,0-2.016,0.902-2.016,2.018v11.894h44.044c3.561,0,6.457,2.896,6.457,6.455
		v35.652l19.795,14.874c3.457,2.599,5.077,1.4,3.599-2.666l-6.696-18.414h11.252c1.115,0,2.017-0.902,2.017-2.016V2.121
		C143.712,1.005,142.809,0.103,141.695,0.103z"/>
	<path class="st3" d="M107.288,18.453H30.852c-1.113,0-2.017,0.904-2.017,2.016v45.779c0,1.113,0.904,2.018,2.017,2.018h11.25
		L35.408,86.68c-0.949,2.61-0.621,4.04,0.653,4.04c0.708,0,1.708-0.443,2.946-1.373l28.054-21.079h40.227
		c1.113,0,2.016-0.905,2.016-2.018V20.47C109.303,19.357,108.401,18.453,107.288,18.453z M69.906,25.03
		c4.544,0,8.227,3.683,8.227,8.227s-3.683,8.227-8.227,8.227s-8.227-3.683-8.227-8.227S65.362,25.03,69.906,25.03z M86.186,60.615
		H54.41V47.818c0-2.452,3.205-4.591,7.963-5.734c2.117,1.54,4.715,2.459,7.532,2.459c2.902,0,5.569-0.973,7.72-2.596
		c5.086,1.103,8.561,3.316,8.561,5.871V60.615z"/>
	<g>
		<path class="st3" d="M40.123,336.994l9.949,1.213h42.469v9.95H47.525v-7.766l-30.334-4.49v114.427l30.334-8.859v-90.886h7.522
			v10.193c-1.455,0.485-2.546,1.941-2.546,3.519v47.567c0,2.063,1.698,3.76,3.76,3.76c2.064,0,3.762-1.698,3.762-3.76v-47.446
			c0-1.578-1.091-3.034-2.547-3.519v-10.193h9.949v10.193c-1.456,0.484-2.549,1.941-2.549,3.519v54.968
			c0,2.063,1.699,3.762,3.762,3.762c2.064,0,3.762-1.699,3.762-3.762v-54.968c0-1.578-1.091-3.034-2.549-3.519v-10.193h9.951v10.193
			c-1.455,0.484-2.547,1.941-2.547,3.519v54.968c0,2.063,1.698,3.762,3.762,3.762c2.063,0,3.762-1.699,3.762-3.762v-54.968
			c0-1.578-1.093-3.034-2.549-3.519v-10.193h9.951v92.464H49.709l-9.951,2.669v14.805h7.524v-7.523H92.3v7.523h7.525v-7.523h45.018
			v7.523h7.524V330.562H40.123V336.994z M100.067,338.084h42.471v104.963h-42.471V338.084z"/>
		<path class="st3" d="M102.614,440.62h37.496v-99.988h-37.496V440.62z M109.775,384.56c1.699,0,3.155,1.456,3.155,3.155
			c0,1.699-1.456,3.155-3.155,3.155c-1.699,0-3.155-1.456-3.155-3.155C106.619,385.894,108.075,384.56,109.775,384.56z"/>
		<polygon class="st3" points="40.123,328.135 152.609,328.135 157.584,323.16 35.027,323.16 		"/>
	</g>
	<path class="st3" d="M114.867,686.543H56.961c-7.57,0-13.764,6.821-13.764,15.158v80.475c0,8.337,6.193,15.158,13.764,15.158
		h57.906c7.57,0,13.765-6.821,13.765-15.158v-80.475C128.633,693.364,122.438,686.543,114.867,686.543z M84.09,718.292
		c-3.582-1.327-6.027-3.171-6.027-6.747c0-3.245,2.077-5.789,5.66-6.563v-3.502h3.28v3.245c2.243,0.111,3.749,0.625,4.855,1.216
		l-0.971,4.166c-0.87-0.406-2.411-1.254-4.822-1.254c-2.175,0-2.877,1.033-2.877,2.065c0,1.217,1.172,1.992,4.017,3.17
		c3.984,1.549,5.591,3.576,5.591,6.894c0,3.282-2.108,6.084-5.959,6.821v3.76h-3.28v-3.503c-2.246-0.109-4.421-0.774-5.692-1.584
		l1.005-4.313c1.406,0.847,3.381,1.622,5.556,1.622c1.909,0,3.214-0.812,3.214-2.287C87.64,720.099,86.569,719.214,84.09,718.292z
		 M116.64,780.033H55.188v-5.117h61.451V780.033z M116.64,762.839H55.188v-5.117h61.451V762.839z M116.64,745.965H55.188v-5.117
		h61.451V745.965z"/>
</g>
<g>
	<path class="st3" d="M89.613,276.908l12.16-12.165c0.747-0.746,1.177-1.807,1.177-2.911v-0.001c0-1.104-0.429-2.166-1.18-2.916
		c-1.608-1.601-4.222-1.599-5.827,0.004l-5.129,5.13v-23.227c0-2.271-1.847-4.118-4.117-4.118c-2.271,0-4.119,1.847-4.119,4.118
		v23.226l-5.126-5.128c-0.779-0.781-1.816-1.211-2.922-1.209c-1.101,0.002-2.134,0.431-2.903,1.207
		c-0.781,0.779-1.211,1.814-1.211,2.914c0,1.108,0.431,2.142,1.21,2.91l12.161,12.167c0.767,0.767,1.829,1.207,2.91,1.207
		C87.777,278.115,88.839,277.676,89.613,276.908z"/>
	<path class="st3" d="M89.613,642.218l12.16-12.165c0.748-0.747,1.177-1.808,1.177-2.911v-0.001c0-1.104-0.429-2.166-1.18-2.915
		c-1.608-1.601-4.222-1.599-5.827,0.003l-5.129,5.13v-23.227c0-2.271-1.847-4.118-4.117-4.118c-2.271,0-4.119,1.847-4.119,4.118
		v23.227l-5.126-5.128c-0.779-0.781-1.816-1.211-2.921-1.209c-1.102,0.001-2.135,0.43-2.905,1.207
		c-0.78,0.779-1.21,1.814-1.21,2.914c0,1.107,0.431,2.142,1.21,2.909l12.161,12.166c0.767,0.767,1.828,1.208,2.91,1.208
		C87.777,643.426,88.838,642.987,89.613,642.218z"/>
	<g>
		<g>
			<path class="st3" d="M36.836,150.892c1.575,0.906,3.939,1.693,6.42,1.693c3.112,0,4.845-1.457,4.845-3.623
				c0-2.01-1.339-3.191-4.727-4.412c-4.372-1.576-7.169-3.9-7.169-7.721c0-4.333,3.624-7.642,9.375-7.642
				c2.875,0,5.003,0.63,6.382,1.339l-1.182,3.9c-0.945-0.512-2.797-1.26-5.278-1.26c-3.073,0-4.412,1.654-4.412,3.191
				c0,2.048,1.536,2.993,5.081,4.372c4.609,1.733,6.854,4.057,6.854,7.878c0,4.254-3.23,7.957-10.084,7.957
				c-2.797,0-5.712-0.788-7.169-1.655L36.836,150.892z"/>
		</g>
		<g>
			<path class="st3" d="M62.201,131.511v5.476h4.608v3.623h-4.608v8.469c0,2.323,0.63,3.545,2.482,3.545
				c0.827,0,1.457-0.118,1.891-0.236l0.079,3.703c-0.709,0.275-1.969,0.473-3.506,0.473c-1.773,0-3.27-0.591-4.175-1.576
				c-1.024-1.103-1.497-2.836-1.497-5.357v-9.021h-2.757v-3.623h2.757v-4.333L62.201,131.511z"/>
		</g>
		<g>
			<path class="st3" d="M80.869,156.17l-0.315-2.127h-0.118c-1.182,1.497-3.191,2.56-5.672,2.56c-3.86,0-6.027-2.797-6.027-5.712
				c0-4.845,4.294-7.288,11.384-7.248v-0.315c0-1.26-0.512-3.349-3.899-3.349c-1.891,0-3.86,0.591-5.16,1.419l-0.945-3.151
				c1.418-0.867,3.9-1.694,6.933-1.694c6.145,0,7.918,3.899,7.918,8.075v6.933c0,1.733,0.079,3.427,0.275,4.608H80.869z
				 M80.239,146.795c-3.427-0.079-6.696,0.67-6.696,3.585c0,1.891,1.221,2.757,2.757,2.757c1.93,0,3.348-1.26,3.781-2.639
				c0.118-0.355,0.157-0.748,0.157-1.064V146.795z"/>
		</g>
		<g>
			<path class="st3" d="M89.69,143.17c0-2.6-0.039-4.451-0.157-6.184h4.215l0.158,3.663h0.157c0.945-2.718,3.191-4.096,5.239-4.096
				c0.472,0,0.748,0.039,1.142,0.118v4.569c-0.394-0.079-0.827-0.157-1.418-0.157c-2.324,0-3.9,1.497-4.333,3.663
				c-0.079,0.434-0.157,0.945-0.157,1.497v9.927H89.69V143.17z"/>
		</g>
		<g>
			<path class="st3" d="M109.777,131.511v5.476h4.609v3.623h-4.609v8.469c0,2.323,0.63,3.545,2.482,3.545
				c0.827,0,1.457-0.118,1.891-0.236l0.079,3.703c-0.709,0.275-1.969,0.473-3.506,0.473c-1.773,0-3.269-0.591-4.175-1.576
				c-1.024-1.103-1.497-2.836-1.497-5.357v-9.021h-2.757v-3.623h2.757v-4.333L109.777,131.511z"/>
		</g>
		<g>
			<path class="st3" d="M136.204,156.17l-0.316-2.127h-0.118c-1.182,1.497-3.191,2.56-5.672,2.56c-3.86,0-6.027-2.797-6.027-5.712
				c0-4.845,4.294-7.288,11.384-7.248v-0.315c0-1.26-0.512-3.349-3.899-3.349c-1.891,0-3.861,0.591-5.16,1.419l-0.945-3.151
				c1.418-0.867,3.9-1.694,6.933-1.694c6.145,0,7.917,3.899,7.917,8.075v6.933c0,1.733,0.079,3.427,0.276,4.608H136.204z
				 M135.573,146.795c-3.427-0.079-6.697,0.67-6.697,3.585c0,1.891,1.221,2.757,2.757,2.757c1.93,0,3.348-1.26,3.781-2.639
				c0.118-0.355,0.158-0.748,0.158-1.064V146.795z"/>
		</g>
		<g>
			<path class="st3" d="M7.2,174.581l3.112,9.729c0.552,1.694,0.945,3.23,1.3,4.806h0.118c0.355-1.576,0.788-3.073,1.3-4.806
				l3.033-9.729h5.121l-7.327,19.183H9.09l-7.13-19.183H7.2z"/>
		</g>
		<g>
			<path class="st3" d="M28.901,169.224c0,1.457-1.064,2.6-2.757,2.6c-1.615,0-2.679-1.142-2.679-2.6
				c0-1.497,1.103-2.639,2.718-2.639C27.837,166.585,28.861,167.727,28.901,169.224z M23.74,193.764v-19.183h4.885v19.183H23.74z"/>
		</g>
		<g>
			<path class="st3" d="M51.115,165.797v22.57c0,1.97,0.079,4.097,0.158,5.397H46.94l-0.197-3.033h-0.079
				c-1.142,2.128-3.466,3.467-6.263,3.467c-4.569,0-8.193-3.9-8.193-9.809c-0.039-6.42,3.979-10.241,8.587-10.241
				c2.639,0,4.53,1.103,5.396,2.521h0.079v-10.872H51.115z M46.27,182.577c0-0.393-0.039-0.866-0.118-1.26
				c-0.434-1.891-1.97-3.427-4.176-3.427c-3.111,0-4.845,2.757-4.845,6.342c0,3.505,1.733,6.066,4.806,6.066
				c1.97,0,3.703-1.339,4.175-3.427c0.118-0.434,0.158-0.906,0.158-1.418V182.577z"/>
		</g>
		<g>
			<path class="st3" d="M59.344,185.532c0.118,3.466,2.836,4.963,5.909,4.963c2.245,0,3.86-0.316,5.318-0.867l0.709,3.349
				c-1.654,0.67-3.939,1.182-6.696,1.182c-6.224,0-9.887-3.821-9.887-9.691c0-5.317,3.23-10.32,9.375-10.32
				c6.224,0,8.272,5.121,8.272,9.336c0,0.906-0.079,1.615-0.157,2.048H59.344z M67.774,182.144c0.039-1.773-0.749-4.688-3.979-4.688
				c-2.993,0-4.254,2.718-4.451,4.688H67.774z"/>
		</g>
		<g>
			<path class="st3" d="M94.083,183.995c0,7.052-4.963,10.203-9.848,10.203c-5.436,0-9.612-3.742-9.612-9.887
				c0-6.302,4.136-10.163,9.927-10.163C90.262,174.148,94.083,178.165,94.083,183.995z M79.627,184.193
				c0,3.703,1.812,6.499,4.766,6.499c2.757,0,4.688-2.718,4.688-6.578c0-2.994-1.339-6.421-4.648-6.421
				C81.006,177.692,79.627,181.002,79.627,184.193z"/>
		</g>
		<g>
			<path class="st3" d="M119.524,193.173c-1.024,0.473-3.033,0.985-5.436,0.985c-5.987,0-9.887-3.821-9.887-9.769
				c0-5.751,3.939-10.241,10.675-10.241c1.773,0,3.585,0.394,4.688,0.906l-0.867,3.624c-0.788-0.354-1.93-0.748-3.663-0.748
				c-3.703,0-5.909,2.718-5.869,6.224c0,3.939,2.56,6.184,5.869,6.184c1.694,0,2.875-0.355,3.821-0.749L119.524,193.173z"/>
		</g>
		<g>
			<path class="st3" d="M122.712,165.797h4.885v11.423h0.079c0.591-0.906,1.378-1.655,2.403-2.206
				c0.945-0.552,2.087-0.866,3.309-0.866c3.27,0,6.696,2.166,6.696,8.311v11.305h-4.845v-10.754c0-2.797-1.024-4.885-3.703-4.885
				c-1.891,0-3.23,1.26-3.742,2.719c-0.157,0.393-0.197,0.906-0.197,1.457v11.462h-4.885V165.797z"/>
		</g>
		<g>
			<path class="st3" d="M155.639,193.764l-0.316-2.127h-0.118c-1.182,1.497-3.191,2.56-5.672,2.56c-3.86,0-6.027-2.797-6.027-5.712
				c0-4.845,4.294-7.288,11.384-7.248v-0.315c0-1.26-0.512-3.349-3.9-3.349c-1.891,0-3.861,0.591-5.16,1.419l-0.945-3.151
				c1.418-0.867,3.9-1.694,6.933-1.694c6.145,0,7.917,3.899,7.917,8.075v6.933c0,1.733,0.079,3.427,0.276,4.608H155.639z
				 M155.009,184.389c-3.427-0.079-6.697,0.67-6.697,3.585c0,1.891,1.221,2.757,2.757,2.757c1.93,0,3.348-1.26,3.781-2.639
				c0.118-0.355,0.158-0.748,0.158-1.064V184.389z"/>
		</g>
		<g>
			<path class="st3" d="M169.777,169.106v5.476h4.608v3.623h-4.608v8.469c0,2.323,0.63,3.545,2.482,3.545
				c0.827,0,1.457-0.118,1.891-0.236l0.079,3.703c-0.709,0.275-1.969,0.473-3.506,0.473c-1.773,0-3.27-0.591-4.175-1.576
				c-1.024-1.103-1.497-2.836-1.497-5.357v-9.021h-2.757v-3.623h2.757v-4.333L169.777,169.106z"/>
		</g>
	</g>
	<g>
		<g>
			<path class="st3" d="M17.428,510.84c1.575,0.906,3.939,1.693,6.42,1.693c3.112,0,4.845-1.457,4.845-3.623
				c0-2.01-1.339-3.191-4.727-4.412c-4.372-1.576-7.169-3.9-7.169-7.721c0-4.333,3.624-7.642,9.375-7.642
				c2.875,0,5.003,0.63,6.382,1.339l-1.182,3.9c-0.945-0.512-2.797-1.26-5.278-1.26c-3.073,0-4.412,1.654-4.412,3.191
				c0,2.048,1.536,2.993,5.081,4.372c4.609,1.733,6.854,4.057,6.854,7.878c0,4.254-3.23,7.957-10.084,7.957
				c-2.797,0-5.712-0.788-7.169-1.655L17.428,510.84z"/>
		</g>
		<g>
			<path class="st3" d="M37.278,488.151h4.885v11.423h0.079c0.591-0.906,1.379-1.655,2.403-2.206
				c0.945-0.552,2.087-0.866,3.309-0.866c3.27,0,6.696,2.166,6.696,8.311v11.305h-4.845v-10.754c0-2.797-1.024-4.885-3.703-4.885
				c-1.891,0-3.23,1.26-3.742,2.719c-0.157,0.393-0.197,0.906-0.197,1.457v11.462h-4.885V488.151z"/>
		</g>
		<g>
			<path class="st3" d="M77.65,506.348c0,7.052-4.963,10.203-9.848,10.203c-5.436,0-9.611-3.742-9.611-9.887
				c0-6.302,4.136-10.163,9.927-10.163C73.829,496.501,77.65,500.519,77.65,506.348z M63.193,506.546
				c0,3.703,1.812,6.499,4.766,6.499c2.757,0,4.688-2.718,4.688-6.578c0-2.994-1.339-6.421-4.648-6.421
				C64.572,500.046,63.193,503.355,63.193,506.546z"/>
		</g>
		<g>
			<path class="st3" d="M83.831,496.935l2.009,8.705c0.433,2.049,0.867,4.136,1.221,6.224h0.079
				c0.394-2.087,1.024-4.214,1.576-6.184l2.482-8.744h3.939l2.403,8.508c0.591,2.246,1.103,4.333,1.536,6.42h0.079
				c0.315-2.087,0.748-4.175,1.26-6.42l2.127-8.508h4.766l-6.027,19.183h-4.49l-2.285-7.799c-0.59-2.01-1.024-3.821-1.457-6.145
				H92.97c-0.394,2.364-0.906,4.254-1.457,6.145l-2.442,7.799h-4.53l-5.672-19.183H83.831z"/>
		</g>
		<g>
			<path class="st3" d="M134.954,510.367c0,2.284,0.079,4.176,0.157,5.751h-4.254l-0.236-2.915h-0.079
				c-0.827,1.379-2.718,3.349-6.145,3.349c-3.506,0-6.696-2.088-6.696-8.351v-11.265h4.845v10.438c0,3.191,1.024,5.239,3.585,5.239
				c1.93,0,3.191-1.379,3.702-2.6c0.158-0.433,0.276-0.945,0.276-1.496v-11.581h4.845V510.367z"/>
		</g>
		<g>
			<path class="st3" d="M139.558,511.667c1.103,0.67,3.191,1.379,4.924,1.379c2.127,0,3.073-0.866,3.073-2.127
				c0-1.3-0.788-1.969-3.151-2.797c-3.742-1.3-5.318-3.348-5.278-5.594c0-3.387,2.797-6.026,7.248-6.026
				c2.127,0,3.979,0.552,5.081,1.142l-0.945,3.427c-0.827-0.473-2.363-1.103-4.057-1.103c-1.733,0-2.678,0.828-2.678,2.01
				c0,1.221,0.906,1.811,3.348,2.678c3.467,1.26,5.082,3.033,5.121,5.869c0,3.467-2.718,5.988-7.799,5.988
				c-2.324,0-4.412-0.552-5.83-1.34L139.558,511.667z"/>
		</g>
		<g>
			<path class="st3" d="M5.574,534.53L9.04,544.81c0.394,1.182,0.788,2.639,1.063,3.742h0.118c0.315-1.103,0.67-2.521,1.024-3.781
				l2.993-10.241h5.2l-4.806,13.077c-2.639,7.17-4.412,10.36-6.697,12.33c-1.891,1.694-3.86,2.324-5.081,2.482l-1.103-4.097
				c0.827-0.197,1.851-0.63,2.836-1.339c0.906-0.591,1.969-1.733,2.639-3.033c0.197-0.354,0.315-0.63,0.315-0.866
				c0-0.197-0.039-0.473-0.276-0.945L0.256,534.53H5.574z"/>
		</g>
		<g>
			<path class="st3" d="M39.566,543.943c0,7.052-4.963,10.203-9.848,10.203c-5.436,0-9.612-3.742-9.612-9.887
				c0-6.302,4.136-10.163,9.927-10.163C35.745,534.096,39.566,538.113,39.566,543.943z M25.109,544.141
				c0,3.703,1.812,6.499,4.766,6.499c2.757,0,4.688-2.718,4.688-6.578c0-2.994-1.339-6.421-4.648-6.421
				C26.488,537.641,25.109,540.95,25.109,544.141z"/>
		</g>
		<g>
			<path class="st3" d="M60.321,547.961c0,2.284,0.079,4.176,0.157,5.751h-4.254l-0.236-2.915H55.91
				c-0.827,1.379-2.718,3.349-6.145,3.349c-3.506,0-6.696-2.088-6.696-8.351V534.53h4.845v10.438c0,3.191,1.024,5.239,3.585,5.239
				c1.93,0,3.191-1.378,3.702-2.6c0.158-0.433,0.276-0.945,0.276-1.497V534.53h4.845V547.961z"/>
		</g>
		<g>
			<path class="st3" d="M65.162,540.713c0-2.6-0.039-4.451-0.157-6.184h4.215l0.158,3.663h0.157
				c0.945-2.718,3.191-4.096,5.239-4.096c0.472,0,0.748,0.039,1.142,0.118v4.569c-0.394-0.079-0.827-0.157-1.418-0.157
				c-2.324,0-3.9,1.497-4.333,3.663c-0.079,0.434-0.157,0.945-0.157,1.497v9.927h-4.845V540.713z"/>
		</g>
		<g>
			<path class="st3" d="M91.707,529.172c0,1.457-1.064,2.6-2.757,2.6c-1.615,0-2.679-1.143-2.679-2.6
				c0-1.497,1.103-2.639,2.718-2.639C90.644,526.533,91.668,527.675,91.707,529.172z M86.547,553.712V534.53h4.885v19.183H86.547z"
				/>
		</g>
		<g>
			<path class="st3" d="M101.79,529.054v5.476h4.608v3.623h-4.608v8.469c0,2.323,0.63,3.545,2.482,3.545
				c0.827,0,1.457-0.118,1.891-0.236l0.079,3.703c-0.709,0.275-1.969,0.473-3.506,0.473c-1.773,0-3.27-0.591-4.175-1.576
				c-1.024-1.103-1.497-2.836-1.497-5.357v-9.021h-2.757v-3.623h2.757v-4.333L101.79,529.054z"/>
		</g>
		<g>
			<path class="st3" d="M112.857,545.48c0.118,3.466,2.836,4.963,5.909,4.963c2.245,0,3.86-0.316,5.318-0.867l0.709,3.349
				c-1.654,0.67-3.939,1.182-6.696,1.182c-6.224,0-9.887-3.821-9.887-9.691c0-5.317,3.23-10.32,9.375-10.32
				c6.224,0,8.272,5.121,8.272,9.336c0,0.906-0.079,1.615-0.157,2.048H112.857z M121.286,542.093
				c0.039-1.773-0.748-4.688-3.979-4.688c-2.993,0-4.254,2.718-4.451,4.688H121.286z"/>
		</g>
		<g>
			<path class="st3" d="M129.357,540.241c0-2.206-0.039-4.058-0.157-5.712h4.175l0.197,2.836h0.118
				c0.945-1.497,2.679-3.269,5.909-3.269c2.521,0,4.49,1.418,5.318,3.545h0.079c0.67-1.063,1.458-1.851,2.363-2.402
				c1.064-0.748,2.285-1.142,3.861-1.142c3.191,0,6.42,2.166,6.42,8.311v11.305h-4.727v-10.596c0-3.191-1.103-5.081-3.427-5.081
				c-1.654,0-2.875,1.182-3.388,2.56c-0.118,0.473-0.236,1.064-0.236,1.615v11.502h-4.727v-11.108c0-2.678-1.064-4.569-3.309-4.569
				c-1.812,0-3.033,1.418-3.466,2.758c-0.197,0.472-0.276,1.024-0.276,1.575v11.344h-4.727V540.241z"/>
		</g>
		<g>
			<path class="st3" d="M162.126,549.261c1.103,0.67,3.191,1.378,4.924,1.378c2.127,0,3.073-0.866,3.073-2.127
				c0-1.3-0.788-1.969-3.151-2.797c-3.742-1.3-5.318-3.348-5.278-5.594c0-3.387,2.797-6.026,7.248-6.026
				c2.127,0,3.979,0.552,5.081,1.142l-0.945,3.427c-0.827-0.473-2.363-1.103-4.057-1.103c-1.733,0-2.678,0.828-2.678,2.01
				c0,1.221,0.906,1.811,3.348,2.678c3.466,1.26,5.081,3.033,5.121,5.869c0,3.467-2.718,5.988-7.799,5.988
				c-2.324,0-4.412-0.552-5.83-1.34L162.126,549.261z"/>
		</g>
	</g>
	<g>
		<g>
			<path class="st3" d="M22.65,852.71c-1.694,0.63-5.002,1.497-8.548,1.497c-4.49,0-7.878-1.142-10.399-3.545
				c-2.363-2.246-3.742-5.751-3.702-9.769c0-8.39,5.987-13.787,14.771-13.787c3.27,0,5.83,0.67,7.051,1.26l-1.064,3.9
				c-1.457-0.63-3.23-1.143-6.027-1.143c-5.672,0-9.65,3.348-9.65,9.532c0,6.026,3.702,9.611,9.217,9.611
				c1.733,0,3.033-0.236,3.663-0.552v-6.617h-4.687v-3.821h9.375V852.71z"/>
		</g>
		<g>
			<path class="st3" d="M30.681,845.699c0.118,3.466,2.836,4.963,5.909,4.963c2.245,0,3.86-0.316,5.318-0.867l0.709,3.349
				c-1.654,0.67-3.939,1.182-6.696,1.182c-6.224,0-9.887-3.821-9.887-9.691c0-5.317,3.23-10.32,9.375-10.32
				c6.224,0,8.272,5.121,8.272,9.336c0,0.906-0.079,1.615-0.157,2.048H30.681z M39.111,842.312c0.039-1.773-0.749-4.688-3.979-4.688
				c-2.993,0-4.254,2.718-4.451,4.688H39.111z"/>
		</g>
		<g>
			<path class="st3" d="M52.737,829.273v5.476h4.609v3.623h-4.609v8.469c0,2.323,0.63,3.545,2.482,3.545
				c0.827,0,1.457-0.118,1.891-0.236l0.079,3.703c-0.709,0.275-1.969,0.473-3.506,0.473c-1.773,0-3.269-0.591-4.175-1.576
				c-1.024-1.103-1.497-2.836-1.497-5.357v-9.021h-2.757v-3.623h2.757v-4.333L52.737,829.273z"/>
		</g>
		<g>
			<path class="st3" d="M79.164,853.932l-0.315-2.127h-0.118c-1.182,1.497-3.191,2.56-5.672,2.56c-3.86,0-6.027-2.797-6.027-5.712
				c0-4.845,4.294-7.288,11.384-7.248v-0.315c0-1.26-0.512-3.349-3.899-3.349c-1.891,0-3.86,0.591-5.16,1.419l-0.945-3.151
				c1.418-0.867,3.9-1.694,6.933-1.694c6.145,0,7.918,3.899,7.918,8.075v6.933c0,1.732,0.079,3.427,0.275,4.608H79.164z
				 M78.534,844.556c-3.427-0.079-6.696,0.67-6.696,3.585c0,1.891,1.221,2.757,2.757,2.757c1.93,0,3.348-1.26,3.781-2.639
				c0.118-0.355,0.157-0.748,0.157-1.064V844.556z"/>
		</g>
		<g>
			<path class="st3" d="M95.742,841.13c0-2.521-0.079-4.57-0.157-6.381h4.254l0.236,2.954h0.079
				c1.418-2.166,3.663-3.387,6.578-3.387c4.412,0,8.075,3.781,8.075,9.768c0,6.933-4.372,10.282-8.745,10.282
				c-2.403,0-4.412-1.025-5.396-2.56h-0.079v9.926h-4.845V841.13z M100.587,845.896c0,0.473,0.039,0.906,0.157,1.339
				c0.473,1.969,2.206,3.388,4.254,3.388c3.072,0,4.884-2.56,4.884-6.342c0-3.388-1.654-6.145-4.766-6.145
				c-2.009,0-3.86,1.457-4.333,3.585c-0.118,0.393-0.197,0.827-0.197,1.221V845.896z"/>
		</g>
		<g>
			<path class="st3" d="M118.388,840.932c0-2.6-0.039-4.451-0.157-6.184h4.215l0.158,3.663h0.157
				c0.945-2.718,3.191-4.096,5.239-4.096c0.472,0,0.748,0.039,1.142,0.118v4.569c-0.394-0.079-0.827-0.157-1.418-0.157
				c-2.324,0-3.9,1.497-4.333,3.663c-0.079,0.434-0.157,0.945-0.157,1.497v9.927h-4.845V840.932z"/>
		</g>
		<g>
			<path class="st3" d="M137.175,829.391c0,1.457-1.064,2.6-2.757,2.6c-1.615,0-2.679-1.143-2.679-2.6
				c0-1.497,1.103-2.639,2.718-2.639C136.112,826.752,137.136,827.895,137.175,829.391z M132.015,853.932v-19.183h4.885v19.183
				H132.015z"/>
		</g>
		<g>
			<path class="st3" d="M155.805,853.341c-1.024,0.473-3.033,0.985-5.436,0.985c-5.987,0-9.887-3.821-9.887-9.769
				c0-5.751,3.939-10.241,10.675-10.241c1.773,0,3.585,0.394,4.688,0.906l-0.867,3.624c-0.788-0.354-1.93-0.748-3.663-0.748
				c-3.703,0-5.909,2.718-5.869,6.224c0,3.939,2.56,6.185,5.869,6.185c1.694,0,2.875-0.355,3.821-0.749L155.805,853.341z"/>
		</g>
		<g>
			<path class="st3" d="M162.066,845.699c0.118,3.466,2.836,4.963,5.909,4.963c2.245,0,3.86-0.316,5.318-0.867l0.709,3.349
				c-1.654,0.67-3.939,1.182-6.696,1.182c-6.224,0-9.887-3.821-9.887-9.691c0-5.317,3.23-10.32,9.375-10.32
				c6.224,0,8.272,5.121,8.272,9.336c0,0.906-0.079,1.615-0.157,2.048H162.066z M170.496,842.312
				c0.039-1.773-0.749-4.688-3.979-4.688c-2.993,0-4.254,2.718-4.451,4.688H170.496z"/>
		</g>
	</g>
</g>
</svg>
