<?xml version="1.0" encoding="utf-8"?>
<!-- Generator: Adobe Illustrator 20.0.0, SVG Export Plug-In . SVG Version: 6.00 Build 0)  -->
<svg version="1.1" id="Layer_1" xmlns="http://www.w3.org/2000/svg" xmlns:xlink="http://www.w3.org/1999/xlink" x="0px" y="0px"
	 width="600px" height="300px" viewBox="0 0 600 243.108" style="enable-background:new 0 0 600 243.108;" xml:space="preserve"
	>
<style type="text/css">
	
</style>
<g id="g1">
	<path class="st0" d="M142.013,40.741H65.578c-1.113,0-2.016,0.902-2.016,2.018v11.894h44.044c3.561,0,6.457,2.896,6.457,6.455
		V96.76l19.795,14.874c3.457,2.599,5.077,1.4,3.599-2.666l-6.696-18.414h11.252c1.115,0,2.017-0.902,2.017-2.016V42.759
		C144.03,41.643,143.128,40.741,142.013,40.741z"/>
	<path class="st0" d="M107.606,59.092H31.171c-1.113,0-2.017,0.904-2.017,2.016v45.779c0,1.113,0.904,2.018,2.017,2.018h11.25
		l-6.694,18.413c-0.949,2.61-0.621,4.04,0.653,4.04c0.708,0,1.708-0.443,2.946-1.373l28.054-21.079h40.227
		c1.113,0,2.016-0.905,2.016-2.018V61.108C109.622,59.995,108.72,59.092,107.606,59.092z M70.224,65.668
		c4.544,0,8.227,3.683,8.227,8.227s-3.683,8.227-8.227,8.227s-8.227-3.683-8.227-8.227S65.68,65.668,70.224,65.668z M86.505,101.253
		H54.729V88.456c0-2.452,3.205-4.591,7.963-5.734c2.117,1.54,4.715,2.459,7.532,2.459c2.902,0,5.569-0.973,7.72-2.596
		c5.086,1.103,8.561,3.316,8.561,5.871V101.253z"/>
	<path class="st0" d="M257.612,17.684l9.949,1.213h42.469v9.95h-45.017v-7.766l-30.334-4.49v114.427l30.334-8.859V31.274h7.522
		v10.193c-1.455,0.485-2.546,1.941-2.546,3.519v47.567c0,2.063,1.698,3.76,3.76,3.76c2.064,0,3.762-1.698,3.762-3.76V45.107
		c0-1.578-1.091-3.034-2.547-3.519V31.395h9.949v10.193c-1.456,0.484-2.549,1.941-2.549,3.519v54.968
		c0,2.063,1.699,3.762,3.762,3.762c2.064,0,3.762-1.699,3.762-3.762V45.107c0-1.578-1.091-3.034-2.549-3.519V31.395h9.951v10.193
		c-1.455,0.484-2.548,1.941-2.548,3.519v54.968c0,2.063,1.698,3.762,3.762,3.762c2.063,0,3.762-1.699,3.762-3.762V45.107
		c0-1.578-1.093-3.034-2.549-3.519V31.395h9.951v92.464h-42.471l-9.951,2.669v14.805h7.524v-7.523h45.018v7.523h7.525v-7.523h45.018
		v7.523h7.524V11.252H257.612V17.684z M317.556,18.775h42.471v104.963h-42.471V18.775z"/>
	<path class="st0" d="M320.104,121.31H357.6V21.323h-37.496V121.31z M327.264,65.25c1.699,0,3.155,1.456,3.155,3.155
		c0,1.699-1.456,3.155-3.155,3.155c-1.699,0-3.155-1.456-3.155-3.155C324.109,66.584,325.565,65.25,327.264,65.25z"/>
	<polygon class="st0" points="257.612,8.825 370.098,8.825 375.073,3.85 252.516,3.85 	"/>
	<path class="st0" d="M539.081,16.931h-57.906c-7.57,0-13.764,6.821-13.764,15.158v80.475c0,8.337,6.193,15.158,13.764,15.158
		h57.906c7.57,0,13.765-6.821,13.765-15.158V32.089C552.846,23.752,546.652,16.931,539.081,16.931z M508.304,48.68
		c-3.582-1.327-6.026-3.171-6.026-6.747c0-3.245,2.077-5.789,5.66-6.563v-3.502h3.28v3.245c2.243,0.111,3.749,0.626,4.855,1.216
		l-0.971,4.166c-0.87-0.406-2.411-1.254-4.822-1.254c-2.175,0-2.877,1.033-2.877,2.065c0,1.217,1.172,1.992,4.017,3.17
		c3.984,1.549,5.591,3.577,5.591,6.894c0,3.282-2.108,6.084-5.959,6.821v3.76h-3.28v-3.503c-2.246-0.109-4.421-0.774-5.692-1.584
		l1.005-4.313c1.406,0.848,3.381,1.622,5.556,1.622c1.909,0,3.214-0.812,3.214-2.287C511.854,50.487,510.783,49.602,508.304,48.68z
		 M540.854,110.421h-61.451v-5.117h61.451V110.421z M540.854,93.227h-61.451V88.11h61.451V93.227z M540.854,76.353h-61.451v-5.117
		h61.451V76.353z"/>
</g>
<g id="g2">
	<path class="st0" d="M213.769,69.397l-12.165-12.16c-0.747-0.747-1.807-1.177-2.911-1.177c0,0-0.001,0-0.001,0
		c-1.104,0-2.166,0.429-2.916,1.18c-1.601,1.608-1.599,4.222,0.004,5.827l5.13,5.129h-23.227c-2.271,0-4.118,1.847-4.118,4.117
		c0,2.271,1.847,4.119,4.118,4.119h23.226l-5.128,5.126c-0.781,0.779-1.211,1.816-1.209,2.922c0.002,1.101,0.431,2.134,1.207,2.903
		c0.779,0.781,1.814,1.211,2.914,1.211c1.108,0,2.142-0.431,2.91-1.21l12.167-12.161c0.767-0.767,1.207-1.829,1.207-2.91
		C214.976,71.234,214.538,70.172,213.769,69.397z"/>
	<path class="st0" d="M441.08,69.397l-12.165-12.16c-0.746-0.748-1.808-1.177-2.911-1.177h-0.001c-1.104,0-2.166,0.429-2.915,1.18
		c-1.601,1.608-1.599,4.222,0.004,5.827l5.13,5.129h-23.227c-2.271,0-4.118,1.847-4.118,4.117c0,2.271,1.847,4.119,4.118,4.119
		h23.227l-5.128,5.126c-0.781,0.779-1.211,1.816-1.209,2.921c0.001,1.102,0.431,2.135,1.207,2.905c0.779,0.78,1.814,1.21,2.913,1.21
		c1.108,0,2.143-0.431,2.91-1.21l12.166-12.161c0.767-0.767,1.208-1.828,1.208-2.91C442.287,71.234,441.848,70.173,441.08,69.397z"
		/>
	<g>
		<path class="st0" d="M35.155,191.53c1.575,0.906,3.939,1.693,6.42,1.693c3.112,0,4.845-1.457,4.845-3.623
			c0-2.01-1.339-3.191-4.727-4.412c-4.372-1.576-7.169-3.9-7.169-7.721c0-4.333,3.624-7.642,9.375-7.642
			c2.875,0,5.003,0.63,6.382,1.339l-1.182,3.9c-0.945-0.512-2.797-1.26-5.278-1.26c-3.073,0-4.412,1.654-4.412,3.191
			c0,2.048,1.536,2.993,5.081,4.372c4.609,1.733,6.854,4.057,6.854,7.878c0,4.254-3.23,7.957-10.084,7.957
			c-2.797,0-5.712-0.788-7.169-1.655L35.155,191.53z"/>
	</g>
	<g>
		<path class="st0" d="M60.519,172.15v5.476h4.608v3.623h-4.608v8.469c0,2.323,0.63,3.545,2.482,3.545
			c0.827,0,1.457-0.118,1.891-0.236l0.079,3.703c-0.709,0.275-1.969,0.473-3.506,0.473c-1.773,0-3.27-0.591-4.175-1.576
			c-1.024-1.103-1.497-2.836-1.497-5.357v-9.021h-2.757v-3.623h2.757v-4.333L60.519,172.15z"/>
	</g>
	<g>
		<path class="st0" d="M79.188,196.808l-0.315-2.127h-0.118c-1.182,1.497-3.191,2.56-5.672,2.56c-3.86,0-6.027-2.797-6.027-5.712
			c0-4.845,4.294-7.288,11.384-7.248v-0.315c0-1.26-0.512-3.349-3.899-3.349c-1.891,0-3.86,0.591-5.16,1.419l-0.945-3.151
			c1.418-0.867,3.9-1.694,6.933-1.694c6.145,0,7.918,3.899,7.918,8.075v6.933c0,1.733,0.079,3.427,0.275,4.608H79.188z
			 M78.558,187.433c-3.427-0.079-6.696,0.67-6.696,3.585c0,1.891,1.221,2.757,2.757,2.757c1.93,0,3.348-1.26,3.781-2.639
			c0.118-0.355,0.157-0.748,0.157-1.064V187.433z"/>
	</g>
	<g>
		<path class="st0" d="M88.009,183.809c0-2.6-0.039-4.451-0.157-6.184h4.215l0.158,3.663h0.157c0.945-2.718,3.191-4.096,5.239-4.096
			c0.472,0,0.748,0.039,1.142,0.118v4.569c-0.394-0.079-0.827-0.157-1.418-0.157c-2.324,0-3.9,1.497-4.333,3.663
			c-0.079,0.434-0.157,0.945-0.157,1.497v9.927h-4.845V183.809z"/>
	</g>
	<g>
		<path class="st0" d="M108.095,172.15v5.476h4.609v3.623h-4.609v8.469c0,2.323,0.63,3.545,2.482,3.545
			c0.827,0,1.457-0.118,1.891-0.236l0.079,3.703c-0.709,0.275-1.969,0.473-3.506,0.473c-1.773,0-3.269-0.591-4.175-1.576
			c-1.024-1.103-1.497-2.836-1.497-5.357v-9.021h-2.757v-3.623h2.757v-4.333L108.095,172.15z"/>
	</g>
	<g>
		<path class="st0" d="M134.522,196.808l-0.316-2.127h-0.118c-1.182,1.497-3.191,2.56-5.672,2.56c-3.86,0-6.027-2.797-6.027-5.712
			c0-4.845,4.294-7.288,11.384-7.248v-0.315c0-1.26-0.512-3.349-3.9-3.349c-1.891,0-3.861,0.591-5.16,1.419l-0.945-3.151
			c1.418-0.867,3.9-1.694,6.933-1.694c6.145,0,7.917,3.899,7.917,8.075v6.933c0,1.733,0.079,3.427,0.276,4.608H134.522z
			 M133.892,187.433c-3.427-0.079-6.697,0.67-6.697,3.585c0,1.891,1.221,2.757,2.757,2.757c1.93,0,3.348-1.26,3.781-2.639
			c0.118-0.355,0.158-0.748,0.158-1.064V187.433z"/>
	</g>
	<g>
		<path class="st0" d="M5.518,215.22l3.112,9.729c0.552,1.694,0.945,3.23,1.3,4.806h0.118c0.355-1.576,0.788-3.073,1.3-4.806
			l3.033-9.729h5.121l-7.327,19.183H7.409l-7.13-19.183H5.518z"/>
	</g>
	<g>
		<path class="st0" d="M27.219,209.862c0,1.457-1.064,2.6-2.757,2.6c-1.615,0-2.679-1.142-2.679-2.6
			c0-1.497,1.103-2.639,2.718-2.639C26.155,207.223,27.18,208.366,27.219,209.862z M22.059,234.403V215.22h4.885v19.183H22.059z"/>
	</g>
	<g>
		<path class="st0" d="M49.434,206.436v22.57c0,1.97,0.079,4.097,0.158,5.397h-4.333l-0.197-3.033h-0.079
			c-1.142,2.128-3.466,3.467-6.263,3.467c-4.569,0-8.193-3.9-8.193-9.809c-0.039-6.42,3.979-10.241,8.587-10.241
			c2.639,0,4.53,1.103,5.396,2.521h0.079v-10.872H49.434z M44.589,223.215c0-0.393-0.039-0.866-0.118-1.26
			c-0.434-1.891-1.97-3.427-4.176-3.427c-3.111,0-4.845,2.757-4.845,6.342c0,3.505,1.733,6.066,4.806,6.066
			c1.97,0,3.703-1.339,4.175-3.427c0.118-0.434,0.158-0.906,0.158-1.418V223.215z"/>
	</g>
	<g>
		<path class="st0" d="M57.663,226.17c0.118,3.466,2.836,4.963,5.909,4.963c2.245,0,3.86-0.316,5.318-0.867l0.709,3.349
			c-1.654,0.67-3.939,1.182-6.696,1.182c-6.224,0-9.887-3.821-9.887-9.691c0-5.317,3.23-10.32,9.375-10.32
			c6.224,0,8.272,5.121,8.272,9.336c0,0.906-0.079,1.615-0.157,2.048H57.663z M66.092,222.783c0.039-1.773-0.749-4.688-3.979-4.688
			c-2.993,0-4.254,2.718-4.451,4.688H66.092z"/>
	</g>
	<g>
		<path class="st0" d="M92.402,224.633c0,7.052-4.963,10.203-9.848,10.203c-5.436,0-9.611-3.742-9.611-9.887
			c0-6.302,4.136-10.163,9.927-10.163C88.581,214.786,92.402,218.804,92.402,224.633z M77.946,224.831
			c0,3.703,1.812,6.499,4.766,6.499c2.757,0,4.688-2.718,4.688-6.578c0-2.994-1.339-6.421-4.648-6.421
			C79.324,218.331,77.946,221.64,77.946,224.831z"/>
	</g>
	<g>
		<path class="st0" d="M117.843,233.812c-1.024,0.473-3.033,0.985-5.436,0.985c-5.987,0-9.887-3.821-9.887-9.769
			c0-5.751,3.939-10.241,10.675-10.241c1.773,0,3.585,0.394,4.688,0.906l-0.867,3.624c-0.788-0.354-1.93-0.748-3.663-0.748
			c-3.703,0-5.909,2.718-5.869,6.224c0,3.939,2.56,6.184,5.869,6.184c1.694,0,2.875-0.355,3.821-0.749L117.843,233.812z"/>
	</g>
	<g>
		<path class="st0" d="M121.031,206.436h4.885v11.423h0.079c0.591-0.906,1.379-1.655,2.403-2.206
			c0.945-0.552,2.087-0.866,3.309-0.866c3.27,0,6.696,2.166,6.696,8.311v11.305h-4.845v-10.754c0-2.797-1.024-4.885-3.703-4.885
			c-1.891,0-3.23,1.26-3.742,2.719c-0.157,0.393-0.197,0.906-0.197,1.457v11.462h-4.885V206.436z"/>
	</g>
	<g>
		<path class="st0" d="M153.958,234.403l-0.316-2.127h-0.118c-1.182,1.497-3.191,2.56-5.672,2.56c-3.86,0-6.027-2.797-6.027-5.712
			c0-4.845,4.294-7.288,11.384-7.248v-0.315c0-1.26-0.512-3.349-3.899-3.349c-1.891,0-3.861,0.591-5.16,1.419l-0.945-3.151
			c1.418-0.867,3.9-1.694,6.933-1.694c6.145,0,7.917,3.899,7.917,8.075v6.933c0,1.733,0.079,3.427,0.276,4.608H153.958z
			 M153.327,225.027c-3.427-0.079-6.697,0.67-6.697,3.585c0,1.891,1.221,2.757,2.757,2.757c1.93,0,3.348-1.26,3.781-2.639
			c0.118-0.355,0.158-0.748,0.158-1.064V225.027z"/>
	</g>
	<g>
		<path class="st0" d="M168.096,209.744v5.476h4.608v3.623h-4.608v8.469c0,2.323,0.63,3.545,2.482,3.545
			c0.827,0,1.457-0.118,1.891-0.236l0.079,3.703c-0.709,0.275-1.969,0.473-3.506,0.473c-1.773,0-3.27-0.591-4.175-1.576
			c-1.024-1.103-1.497-2.836-1.497-5.357v-9.021h-2.757v-3.623h2.757v-4.333L168.096,209.744z"/>
	</g>
	<g>
		<path class="st0" d="M234.917,191.53c1.575,0.906,3.939,1.693,6.42,1.693c3.112,0,4.845-1.457,4.845-3.623
			c0-2.01-1.339-3.191-4.727-4.412c-4.372-1.576-7.169-3.9-7.169-7.721c0-4.333,3.624-7.642,9.375-7.642
			c2.875,0,5.003,0.63,6.382,1.339l-1.182,3.9c-0.945-0.512-2.797-1.26-5.278-1.26c-3.073,0-4.412,1.654-4.412,3.191
			c0,2.048,1.536,2.993,5.081,4.372c4.609,1.733,6.854,4.057,6.854,7.878c0,4.254-3.23,7.957-10.084,7.957
			c-2.797,0-5.712-0.788-7.169-1.655L234.917,191.53z"/>
	</g>
	<g>
		<path class="st0" d="M254.768,168.841h4.885v11.423h0.079c0.591-0.906,1.379-1.655,2.403-2.206
			c0.945-0.552,2.087-0.866,3.309-0.866c3.27,0,6.696,2.166,6.696,8.311v11.305h-4.845v-10.754c0-2.797-1.024-4.885-3.703-4.885
			c-1.891,0-3.23,1.26-3.742,2.719c-0.157,0.393-0.197,0.906-0.197,1.457v11.462h-4.885V168.841z"/>
	</g>
	<g>
		<path class="st0" d="M295.139,187.039c0,7.052-4.963,10.203-9.848,10.203c-5.436,0-9.612-3.742-9.612-9.887
			c0-6.302,4.136-10.163,9.927-10.163C291.318,177.192,295.139,181.209,295.139,187.039z M280.683,187.236
			c0,3.703,1.812,6.499,4.766,6.499c2.757,0,4.688-2.718,4.688-6.578c0-2.994-1.339-6.421-4.648-6.421
			C282.062,180.736,280.683,184.046,280.683,187.236z"/>
	</g>
	<g>
		<path class="st0" d="M301.321,177.625l2.009,8.705c0.433,2.049,0.867,4.136,1.221,6.224h0.079
			c0.394-2.087,1.024-4.214,1.576-6.184l2.482-8.744h3.939l2.403,8.508c0.591,2.246,1.103,4.333,1.536,6.42h0.079
			c0.315-2.087,0.748-4.175,1.26-6.42l2.127-8.508h4.766l-6.027,19.183h-4.49l-2.285-7.799c-0.59-2.01-1.024-3.821-1.457-6.145
			h-0.079c-0.394,2.364-0.906,4.254-1.457,6.145l-2.442,7.799h-4.53l-5.672-19.183H301.321z"/>
	</g>
	<g>
		<path class="st0" d="M352.443,191.057c0,2.284,0.079,4.176,0.157,5.751h-4.254l-0.236-2.915h-0.079
			c-0.827,1.379-2.718,3.349-6.145,3.349c-3.506,0-6.696-2.088-6.696-8.351v-11.265h4.845v10.438c0,3.191,1.024,5.239,3.585,5.239
			c1.93,0,3.191-1.379,3.702-2.6c0.158-0.433,0.276-0.945,0.276-1.497v-11.58h4.845V191.057z"/>
	</g>
	<g>
		<path class="st0" d="M357.047,192.357c1.103,0.67,3.191,1.379,4.924,1.379c2.127,0,3.073-0.866,3.073-2.127
			c0-1.3-0.788-1.969-3.151-2.797c-3.742-1.3-5.318-3.348-5.278-5.594c0-3.387,2.797-6.026,7.248-6.026
			c2.127,0,3.979,0.552,5.081,1.142l-0.945,3.427c-0.827-0.473-2.363-1.103-4.057-1.103c-1.733,0-2.678,0.828-2.678,2.01
			c0,1.221,0.906,1.811,3.348,2.678c3.467,1.26,5.082,3.033,5.121,5.869c0,3.467-2.718,5.988-7.799,5.988
			c-2.324,0-4.412-0.552-5.83-1.34L357.047,192.357z"/>
	</g>
	<g>
		<path class="st0" d="M223.063,215.22l3.466,10.281c0.394,1.182,0.788,2.639,1.063,3.742h0.118c0.315-1.103,0.67-2.521,1.024-3.781
			l2.993-10.241h5.2l-4.806,13.077c-2.639,7.17-4.412,10.36-6.697,12.33c-1.891,1.694-3.86,2.324-5.081,2.482l-1.103-4.097
			c0.827-0.197,1.851-0.63,2.836-1.339c0.906-0.591,1.969-1.733,2.639-3.033c0.197-0.354,0.315-0.63,0.315-0.866
			c0-0.197-0.039-0.473-0.276-0.945l-7.011-17.608H223.063z"/>
	</g>
	<g>
		<path class="st0" d="M257.055,224.633c0,7.052-4.963,10.203-9.848,10.203c-5.436,0-9.611-3.742-9.611-9.887
			c0-6.302,4.136-10.163,9.927-10.163C253.234,214.786,257.055,218.804,257.055,224.633z M242.598,224.831
			c0,3.703,1.812,6.499,4.766,6.499c2.757,0,4.688-2.718,4.688-6.578c0-2.994-1.339-6.421-4.648-6.421
			C243.977,218.331,242.598,221.64,242.598,224.831z"/>
	</g>
	<g>
		<path class="st0" d="M277.811,228.652c0,2.284,0.079,4.176,0.157,5.751h-4.254l-0.236-2.915h-0.079
			c-0.827,1.379-2.718,3.349-6.145,3.349c-3.506,0-6.696-2.088-6.696-8.351V215.22h4.845v10.438c0,3.191,1.024,5.239,3.585,5.239
			c1.93,0,3.191-1.378,3.702-2.6c0.158-0.433,0.276-0.945,0.276-1.497v-11.58h4.845V228.652z"/>
	</g>
	<g>
		<path class="st0" d="M282.652,221.403c0-2.6-0.039-4.451-0.157-6.184h4.215l0.158,3.663h0.157
			c0.945-2.718,3.191-4.096,5.239-4.096c0.472,0,0.748,0.039,1.142,0.118v4.569c-0.394-0.079-0.827-0.157-1.418-0.157
			c-2.324,0-3.9,1.497-4.333,3.663c-0.079,0.434-0.157,0.945-0.157,1.497v9.927h-4.845V221.403z"/>
	</g>
	<g>
		<path class="st0" d="M309.197,209.862c0,1.457-1.064,2.6-2.757,2.6c-1.615,0-2.679-1.142-2.679-2.6
			c0-1.497,1.103-2.639,2.718-2.639C308.133,207.223,309.157,208.366,309.197,209.862z M304.036,234.403V215.22h4.885v19.183
			H304.036z"/>
	</g>
	<g>
		<path class="st0" d="M319.279,209.744v5.476h4.608v3.623h-4.608v8.469c0,2.323,0.63,3.545,2.482,3.545
			c0.827,0,1.457-0.118,1.891-0.236l0.079,3.703c-0.709,0.275-1.969,0.473-3.506,0.473c-1.773,0-3.27-0.591-4.175-1.576
			c-1.024-1.103-1.497-2.836-1.497-5.357v-9.021h-2.757v-3.623h2.757v-4.333L319.279,209.744z"/>
	</g>
	<g>
		<path class="st0" d="M330.346,226.17c0.118,3.466,2.836,4.963,5.909,4.963c2.245,0,3.86-0.316,5.318-0.867l0.709,3.349
			c-1.654,0.67-3.939,1.182-6.696,1.182c-6.224,0-9.887-3.821-9.887-9.691c0-5.317,3.23-10.32,9.375-10.32
			c6.224,0,8.272,5.121,8.272,9.336c0,0.906-0.079,1.615-0.157,2.048H330.346z M338.776,222.783
			c0.039-1.773-0.748-4.688-3.979-4.688c-2.993,0-4.254,2.718-4.451,4.688H338.776z"/>
	</g>
	<g>
		<path class="st0" d="M346.847,220.931c0-2.206-0.039-4.058-0.157-5.712h4.175l0.197,2.836h0.118
			c0.945-1.497,2.679-3.269,5.909-3.269c2.521,0,4.49,1.418,5.318,3.545h0.079c0.67-1.063,1.458-1.851,2.363-2.402
			c1.064-0.748,2.285-1.142,3.861-1.142c3.191,0,6.42,2.166,6.42,8.311v11.305h-4.727v-10.596c0-3.191-1.103-5.081-3.427-5.081
			c-1.654,0-2.875,1.182-3.388,2.56c-0.118,0.473-0.236,1.064-0.236,1.615v11.502h-4.727v-11.108c0-2.678-1.064-4.569-3.309-4.569
			c-1.812,0-3.033,1.418-3.466,2.758c-0.197,0.472-0.276,1.024-0.276,1.575v11.344h-4.727V220.931z"/>
	</g>
	<g>
		<path class="st0" d="M379.615,229.951c1.103,0.67,3.191,1.378,4.924,1.378c2.127,0,3.073-0.866,3.073-2.127
			c0-1.3-0.788-1.969-3.151-2.797c-3.742-1.3-5.318-3.348-5.278-5.594c0-3.387,2.797-6.026,7.248-6.026
			c2.127,0,3.979,0.552,5.081,1.142l-0.945,3.427c-0.827-0.473-2.363-1.103-4.057-1.103c-1.733,0-2.678,0.828-2.678,2.01
			c0,1.221,0.906,1.811,3.348,2.678c3.466,1.26,5.081,3.033,5.121,5.869c0,3.467-2.718,5.988-7.799,5.988
			c-2.324,0-4.412-0.552-5.83-1.34L379.615,229.951z"/>
	</g>
	<g>
		<path class="st0" d="M446.864,213.098c-1.694,0.63-5.002,1.497-8.548,1.497c-4.49,0-7.878-1.142-10.399-3.545
			c-2.363-2.246-3.742-5.751-3.702-9.769c0-8.39,5.987-13.787,14.771-13.787c3.27,0,5.83,0.67,7.051,1.26l-1.064,3.9
			c-1.457-0.63-3.23-1.142-6.027-1.142c-5.672,0-9.65,3.348-9.65,9.532c0,6.026,3.702,9.611,9.217,9.611
			c1.733,0,3.033-0.236,3.663-0.552v-6.617h-4.687v-3.821h9.375V213.098z"/>
	</g>
	<g>
		<path class="st0" d="M454.895,206.087c0.118,3.466,2.836,4.963,5.909,4.963c2.245,0,3.86-0.316,5.318-0.867l0.709,3.349
			c-1.654,0.67-3.939,1.182-6.696,1.182c-6.224,0-9.887-3.821-9.887-9.691c0-5.317,3.23-10.32,9.375-10.32
			c6.224,0,8.272,5.121,8.272,9.336c0,0.906-0.079,1.615-0.157,2.048H454.895z M463.325,202.7c0.039-1.773-0.749-4.688-3.979-4.688
			c-2.993,0-4.254,2.718-4.451,4.688H463.325z"/>
	</g>
	<g>
		<path class="st0" d="M476.951,189.661v5.476h4.609v3.623h-4.609v8.469c0,2.323,0.63,3.545,2.482,3.545
			c0.827,0,1.457-0.118,1.891-0.236l0.079,3.703c-0.709,0.275-1.969,0.473-3.506,0.473c-1.773,0-3.269-0.591-4.175-1.576
			c-1.025-1.103-1.497-2.836-1.497-5.357v-9.021h-2.757v-3.623h2.757v-4.333L476.951,189.661z"/>
	</g>
	<g>
		<path class="st0" d="M503.378,214.319l-0.315-2.127h-0.118c-1.182,1.497-3.191,2.56-5.672,2.56c-3.86,0-6.027-2.797-6.027-5.712
			c0-4.845,4.294-7.288,11.384-7.248v-0.315c0-1.26-0.512-3.349-3.9-3.349c-1.891,0-3.86,0.591-5.16,1.419l-0.945-3.151
			c1.418-0.867,3.9-1.694,6.933-1.694c6.145,0,7.918,3.899,7.918,8.075v6.933c0,1.733,0.079,3.427,0.275,4.608H503.378z
			 M502.748,204.944c-3.427-0.079-6.696,0.67-6.696,3.585c0,1.891,1.221,2.757,2.757,2.757c1.93,0,3.348-1.26,3.781-2.639
			c0.118-0.355,0.157-0.748,0.157-1.064V204.944z"/>
	</g>
	<g>
		<path class="st0" d="M519.956,201.518c0-2.521-0.079-4.57-0.157-6.381h4.254l0.236,2.954h0.079
			c1.418-2.166,3.663-3.387,6.578-3.387c4.412,0,8.075,3.781,8.075,9.768c0,6.933-4.372,10.282-8.745,10.282
			c-2.403,0-4.412-1.024-5.396-2.56h-0.079v9.926h-4.845V201.518z M524.801,206.284c0,0.473,0.039,0.906,0.157,1.339
			c0.473,1.969,2.206,3.388,4.254,3.388c3.072,0,4.884-2.56,4.884-6.342c0-3.388-1.654-6.145-4.766-6.145
			c-2.009,0-3.86,1.457-4.333,3.585c-0.118,0.393-0.197,0.827-0.197,1.221V206.284z"/>
	</g>
	<g>
		<path class="st0" d="M542.602,201.32c0-2.6-0.039-4.451-0.157-6.184h4.215l0.158,3.663h0.157c0.945-2.718,3.191-4.096,5.239-4.096
			c0.472,0,0.748,0.039,1.142,0.118v4.569c-0.394-0.079-0.827-0.157-1.418-0.157c-2.324,0-3.9,1.497-4.333,3.663
			c-0.079,0.434-0.157,0.945-0.157,1.497v9.927h-4.845V201.32z"/>
	</g>
	<g>
		<path class="st0" d="M561.389,189.779c0,1.457-1.064,2.6-2.757,2.6c-1.615,0-2.679-1.142-2.679-2.6
			c0-1.497,1.103-2.639,2.718-2.639C560.326,187.14,561.35,188.283,561.389,189.779z M556.229,214.319v-19.183h4.885v19.183H556.229
			z"/>
	</g>
	<g>
		<path class="st0" d="M580.019,213.728c-1.024,0.473-3.033,0.985-5.436,0.985c-5.987,0-9.887-3.821-9.887-9.769
			c0-5.751,3.939-10.241,10.675-10.241c1.773,0,3.585,0.394,4.688,0.906l-0.867,3.624c-0.788-0.354-1.93-0.748-3.663-0.748
			c-3.703,0-5.909,2.718-5.869,6.224c0,3.939,2.56,6.184,5.869,6.184c1.694,0,2.875-0.355,3.821-0.749L580.019,213.728z"/>
	</g>
	<g>
		<path class="st0" d="M586.28,206.087c0.118,3.466,2.836,4.963,5.909,4.963c2.245,0,3.86-0.316,5.318-0.867l0.709,3.349
			c-1.654,0.67-3.939,1.182-6.696,1.182c-6.224,0-9.887-3.821-9.887-9.691c0-5.317,3.23-10.32,9.375-10.32
			c6.224,0,8.272,5.121,8.272,9.336c0,0.906-0.079,1.615-0.157,2.048H586.28z M594.71,202.7c0.039-1.773-0.749-4.688-3.979-4.688
			c-2.993,0-4.254,2.718-4.451,4.688H594.71z"/>
	</g>
</g>
</svg>
