<?xml version="1.0" encoding="utf-8"?>
<!-- Generator: Adobe Illustrator 20.0.0, SVG Export Plug-In . SVG Version: 6.00 Build 0)  -->
<svg version="1.1" id="Layer_1_v" xmlns="http://www.w3.org/2000/svg" xmlns:xlink="http://www.w3.org/1999/xlink" x="0px" y="0px"
	 width="189.358px" height="600.002px" viewBox="0 0 189.358 896.002" style="enable-background:new 0 0 189.358 896.002;"
	 xml:space="preserve">
<style type="text/css">
	
</style>
<g id="g1">
	<g>
		<path class="st3" d="M74.888,77.298c-1.328,0-2.088,0.108-2.483,0.18v6.675h2.16c2.724,0,4.343-1.364,4.343-3.48
			C78.907,78.447,77.397,77.335,74.888,77.298z"/>
		<path class="st3" d="M95.684,0c-36.61,0-66.29,29.68-66.29,66.292c0,36.612,29.68,66.292,66.29,66.292
			c36.616,0,66.29-29.68,66.29-66.292C161.974,29.68,132.3,0,95.684,0z M79.658,97.614c-0.398-0.68-0.969-2.656-1.687-5.635
			c-0.646-3.015-1.687-3.841-3.909-3.877h-1.657v9.511h-5.416V73.743c1.755-0.285,4.378-0.502,7.282-0.502
			c3.592,0,6.104,0.538,7.83,1.903c1.432,1.148,2.225,2.836,2.225,5.061c0,3.086-2.192,5.205-4.271,5.958v0.108
			c1.687,0.682,2.62,2.296,3.23,4.523c0.754,2.728,1.511,5.888,1.974,6.819H79.658z M103.713,97.614H88.278V73.421h14.933v4.489
			h-9.442v5.026h8.904v4.451h-8.904v5.741h9.944V97.614z M96.036,56.953c-7.573,0-13.706-6.136-13.706-13.708
			c0-7.568,6.134-13.706,13.706-13.706c7.569,0,13.706,6.138,13.706,13.706C109.742,50.817,103.605,56.953,96.036,56.953z
			 M119.837,93.451c1.648,0,3.478-0.359,4.555-0.79l0.826,4.273c-1.002,0.502-3.266,1.04-6.209,1.04
			c-8.362,0-12.672-5.205-12.672-12.095c0-8.258,5.886-12.852,13.207-12.852c2.838,0,4.992,0.573,5.961,1.076l-1.113,4.343
			c-1.113-0.466-2.656-0.897-4.594-0.897c-4.346,0-7.719,2.62-7.719,8.004C112.078,90.399,114.953,93.451,119.837,93.451z"/>
	</g>
	<path class="st3" d="M95.682,688.598c-36.613,0-66.29,29.68-66.29,66.292c0,36.612,29.677,66.292,66.29,66.292
		c36.616,0,66.293-29.68,66.293-66.292C161.975,718.278,132.299,688.598,95.682,688.598z M116.933,770.447
		c-1.008,6.246-5.868,11.735-12.69,14.326c-1.349,0.512-2.754,0.892-4.184,1.155v7.985c0,2.416-1.959,4.374-4.377,4.374
		c-2.414,0-4.374-1.958-4.374-4.374v-7.829c-6.509-0.903-12.63-4.004-16.194-8.769c-1.449-1.934-1.052-4.677,0.883-6.124
		c1.933-1.448,4.674-1.052,6.124,0.882c3.643,4.871,12.537,6.98,19.016,4.518c3.845-1.459,6.652-4.417,7.157-7.538
		c0.51-3.179-1.503-5.571-3.279-7.018c-2.217-1.8-6.409-3.33-10.467-4.808c-5.341-1.944-10.86-3.956-14.354-7.332
		c-3.246-3.126-4.721-7.584-4.043-12.225c0.764-5.231,4.212-9.896,9.214-12.48c1.909-0.983,3.913-1.652,5.943-2.042v-6.139
		c0-2.416,1.959-4.374,4.374-4.374c2.417,0,4.377,1.958,4.377,4.374v6.201c5.078,1.055,9.69,3.864,12.646,8.189
		c1.36,1.996,0.851,4.719-1.142,6.083c-1.998,1.365-4.718,0.852-6.083-1.141c-3.202-4.683-10.576-6.227-16.098-3.374
		c-2.506,1.293-4.21,3.523-4.571,5.969c-0.152,1.067-0.171,3.092,1.455,4.661c2.163,2.089,6.798,3.776,11.279,5.408
		c4.732,1.728,9.633,3.511,12.992,6.241C115.509,759.291,117.839,764.831,116.933,770.447z"/>
	<g>
		<path class="st3" d="M95.684,344.828c-36.613,0-66.29,29.68-66.29,66.292c0,36.612,29.677,66.292,66.29,66.292
			c36.616,0,66.29-29.68,66.29-66.292C161.974,374.508,132.3,344.828,95.684,344.828z M95.155,371.85
			c14.049,0,26.075,7.607,30.881,18.307c-1.338,0.476-2.577,1.221-3.648,2.212c-7.576,7.013-16.894,16.98-19.341,21.556H87.263
			c-2.447-4.576-11.762-14.543-19.344-21.556c-1.067-0.991-2.31-1.736-3.641-2.213C69.08,379.455,81.11,371.85,95.155,371.85z
			 M72.291,448.478h-4.294l-0.845-6.666h5.98L72.291,448.478z M122.317,448.478h-4.294l-0.842-6.666h5.977L122.317,448.478z
			 M134.695,411.493c-2.02,2.524-4.134,6.07-6,10.286v11.359c0,2.816-2.287,5.105-5.103,5.105H66.721
			c-2.816,0-5.106-2.289-5.106-5.105v-11.48c0-0.159,0.033-0.309,0.049-0.465c-0.055,0.065-0.114,0.124-0.166,0.191
			c-1.847-4.19-3.938-7.714-5.941-10.212c-1.514-1.893-5.948-8.48,0.555-13.81c2.088-1.711,4.281-2.578,6.512-2.578
			c2.131,0,4.258,0.842,5.84,2.307c7.824,7.236,12.532,14.05,15.377,19.463h22.245c2.926-5.45,7.68-12.227,15.452-19.417
			c1.615-1.494,3.785-2.352,5.954-2.352c2.281,0,4.512,0.885,6.639,2.629C140.767,402.848,136.241,409.564,134.695,411.493z"/>
		<circle class="st3" cx="62.049" cy="403.735" r="4.322"/>
		<circle class="st3" cx="128.31" cy="403.735" r="4.323"/>
	</g>
</g>
<g id="g2">
	<g>
		<path class="st3" d="M110.975,296.962c1.289-1.286,1.292-3.531-0.001-4.823c-1.332-1.326-3.498-1.325-4.827,0.002l-7.04,7.043
			V272.33c0-1.88-1.529-3.409-3.408-3.409c-1.881,0-3.41,1.529-3.41,3.409v26.854l-7.039-7.042
			c-0.645-0.647-1.504-1.002-2.419-1.001c-0.912,0.001-1.767,0.358-2.404,1c-0.646,0.645-1.002,1.502-1.002,2.412
			c0,0.916,0.358,1.773,1.002,2.408L93.29,309.83c0.635,0.635,1.513,1,2.408,1c0.894,0,1.772-0.364,2.414-1L110.975,296.962z"/>
	</g>
	<g>
		<path class="st3" d="M110.975,642.836c1.289-1.286,1.292-3.531-0.001-4.823c-1.332-1.326-3.498-1.325-4.827,0.002l-7.04,7.043
			v-26.854c0-1.88-1.529-3.409-3.408-3.409c-1.881,0-3.41,1.529-3.41,3.409v26.854l-7.039-7.042
			c-0.645-0.647-1.504-1.002-2.419-1.001c-0.912,0.001-1.767,0.358-2.404,1c-0.646,0.645-1.002,1.502-1.002,2.412
			c0,0.917,0.358,1.773,1.002,2.408l12.864,12.869c0.635,0.635,1.513,1,2.408,1c0.894,0,1.772-0.364,2.414-1L110.975,642.836z"/>
	</g>
	<path class="st3" d="M36.89,186.684c1.666,0.958,4.166,1.791,6.791,1.791c3.292,0,5.125-1.541,5.125-3.833
		c0-2.126-1.417-3.375-5-4.667c-4.625-1.667-7.583-4.126-7.583-8.167c0-4.583,3.833-8.083,9.916-8.083
		c3.042,0,5.292,0.667,6.75,1.417l-1.25,4.126c-1-0.542-2.958-1.333-5.583-1.333c-3.25,0-4.667,1.749-4.667,3.375
		c0,2.166,1.625,3.166,5.375,4.625c4.875,1.833,7.25,4.291,7.25,8.333c0,4.5-3.416,8.417-10.666,8.417
		c-2.958,0-6.041-0.834-7.583-1.75L36.89,186.684z"/>
	<path class="st3" d="M63.719,166.184v5.792h4.875v3.833h-4.875v8.959c0,2.458,0.667,3.749,2.625,3.749c0.875,0,1.541-0.125,2-0.25
		l0.083,3.917c-0.75,0.291-2.083,0.5-3.708,0.5c-1.875,0-3.459-0.625-4.416-1.667c-1.084-1.167-1.583-2.999-1.583-5.666v-9.542
		h-2.917v-3.833h2.917v-4.583L63.719,166.184z"/>
	<path class="st3" d="M83.466,192.267l-0.333-2.25h-0.125c-1.25,1.583-3.375,2.708-6,2.708c-4.083,0-6.375-2.959-6.375-6.041
		c0-5.125,4.542-7.709,12.041-7.667v-0.333c0-1.333-0.542-3.542-4.125-3.542c-2,0-4.083,0.625-5.458,1.501l-1-3.333
		c1.5-0.917,4.125-1.792,7.333-1.792c6.5,0,8.375,4.125,8.375,8.542v7.333c0,1.833,0.083,3.624,0.291,4.875H83.466z M82.8,182.35
		c-3.624-0.083-7.083,0.708-7.083,3.792c0,2,1.292,2.916,2.917,2.916c2.042,0,3.542-1.333,4-2.791
		c0.125-0.375,0.166-0.791,0.166-1.125V182.35z"/>
	<path class="st3" d="M92.796,178.517c0-2.75-0.042-4.708-0.166-6.541h4.458l0.167,3.874h0.166c1-2.875,3.375-4.333,5.542-4.333
		c0.5,0,0.791,0.042,1.208,0.125v4.833c-0.417-0.083-0.875-0.166-1.5-0.166c-2.458,0-4.125,1.583-4.583,3.875
		c-0.083,0.459-0.166,1-0.166,1.583v10.5h-5.125V178.517z"/>
	<path class="st3" d="M114.043,166.184v5.792h4.875v3.833h-4.875v8.959c0,2.458,0.667,3.749,2.625,3.749c0.875,0,1.541-0.125,2-0.25
		l0.083,3.917c-0.75,0.291-2.083,0.5-3.708,0.5c-1.875,0-3.458-0.625-4.416-1.667c-1.084-1.167-1.583-2.999-1.583-5.666v-9.542
		h-2.917v-3.833h2.917v-4.583L114.043,166.184z"/>
	<path class="st3" d="M141.996,192.267l-0.334-2.25h-0.125c-1.25,1.583-3.375,2.708-6,2.708c-4.083,0-6.375-2.959-6.375-6.041
		c0-5.125,4.542-7.709,12.041-7.667v-0.333c0-1.333-0.541-3.542-4.125-3.542c-2,0-4.084,0.625-5.458,1.501l-1-3.333
		c1.5-0.917,4.125-1.792,7.333-1.792c6.5,0,8.375,4.125,8.375,8.542v7.333c0,1.833,0.084,3.624,0.292,4.875H141.996z M141.33,182.35
		c-3.625-0.083-7.083,0.708-7.083,3.792c0,2,1.292,2.916,2.917,2.916c2.042,0,3.542-1.333,4-2.791
		c0.125-0.375,0.167-0.791,0.167-1.125V182.35z"/>
	<path class="st3" d="M5.542,211.742l3.292,10.291c0.583,1.792,1,3.416,1.375,5.084h0.125c0.375-1.667,0.834-3.25,1.375-5.084
		l3.208-10.291h5.416l-7.75,20.291H7.542L0,211.742H5.542z"/>
	<path class="st3" d="M28.496,206.075c0,1.541-1.125,2.75-2.917,2.75c-1.708,0-2.833-1.208-2.833-2.75
		c0-1.583,1.167-2.791,2.875-2.791C27.371,203.283,28.455,204.492,28.496,206.075z M23.038,232.032v-20.291h5.167v20.291H23.038z"/>
	<path class="st3" d="M51.993,202.45v23.874c0,2.084,0.084,4.334,0.167,5.709h-4.583l-0.208-3.208h-0.083
		c-1.208,2.251-3.667,3.667-6.625,3.667c-4.833,0-8.666-4.126-8.666-10.375c-0.042-6.791,4.208-10.833,9.083-10.833
		c2.791,0,4.791,1.167,5.708,2.667h0.083V202.45H51.993z M46.869,220.199c0-0.416-0.042-0.916-0.125-1.333
		c-0.459-2-2.084-3.624-4.417-3.624c-3.291,0-5.125,2.916-5.125,6.708c0,3.708,1.834,6.416,5.083,6.416
		c2.084,0,3.917-1.417,4.416-3.624c0.125-0.459,0.167-0.958,0.167-1.5V220.199z"/>
	<path class="st3" d="M60.698,223.324c0.125,3.666,3,5.25,6.25,5.25c2.375,0,4.083-0.334,5.625-0.917l0.75,3.542
		c-1.75,0.708-4.166,1.25-7.083,1.25c-6.583,0-10.458-4.042-10.458-10.25c0-5.624,3.417-10.916,9.916-10.916
		c6.583,0,8.75,5.416,8.75,9.875c0,0.958-0.083,1.708-0.166,2.166H60.698z M69.614,219.742c0.042-1.875-0.792-4.959-4.208-4.959
		c-3.166,0-4.5,2.875-4.708,4.959H69.614z"/>
	<path class="st3" d="M97.443,221.699c0,7.459-5.25,10.792-10.416,10.792c-5.75,0-10.167-3.958-10.167-10.458
		c0-6.666,4.375-10.75,10.5-10.75C93.402,211.283,97.443,215.533,97.443,221.699z M82.152,221.908c0,3.917,1.917,6.875,5.041,6.875
		c2.917,0,4.958-2.875,4.958-6.958c0-3.167-1.417-6.792-4.917-6.792C83.611,215.032,82.152,218.533,82.152,221.908z"/>
	<path class="st3" d="M124.354,231.407c-1.083,0.5-3.208,1.042-5.75,1.042c-6.333,0-10.458-4.042-10.458-10.334
		c0-6.083,4.167-10.833,11.291-10.833c1.875,0,3.792,0.417,4.958,0.958l-0.917,3.833c-0.833-0.374-2.042-0.791-3.875-0.791
		c-3.917,0-6.25,2.875-6.208,6.583c0,4.166,2.708,6.542,6.208,6.542c1.791,0,3.042-0.375,4.041-0.792L124.354,231.407z"/>
	<path class="st3" d="M127.725,202.45h5.167v12.083h0.083c0.625-0.959,1.458-1.75,2.542-2.334c1-0.583,2.208-0.916,3.5-0.916
		c3.459,0,7.083,2.291,7.083,8.791v11.958h-5.125v-11.375c0-2.959-1.083-5.167-3.917-5.167c-2,0-3.416,1.333-3.958,2.876
		c-0.166,0.416-0.208,0.958-0.208,1.541v12.124h-5.167V202.45z"/>
	<path class="st3" d="M162.554,232.032l-0.334-2.25h-0.125c-1.25,1.583-3.375,2.708-6,2.708c-4.083,0-6.375-2.959-6.375-6.041
		c0-5.125,4.542-7.709,12.041-7.667v-0.333c0-1.333-0.541-3.542-4.125-3.542c-2,0-4.084,0.625-5.458,1.501l-1-3.333
		c1.5-0.917,4.125-1.792,7.333-1.792c6.5,0,8.375,4.125,8.375,8.542v7.333c0,1.833,0.084,3.624,0.292,4.875H162.554z
		 M161.888,222.116c-3.625-0.083-7.083,0.708-7.083,3.792c0,2,1.292,2.916,2.917,2.916c2.042,0,3.542-1.333,4-2.791
		c0.125-0.375,0.167-0.791,0.167-1.125V222.116z"/>
	<path class="st3" d="M177.509,205.95v5.792h4.875v3.833h-4.875v8.959c0,2.458,0.667,3.749,2.625,3.749c0.875,0,1.541-0.125,2-0.25
		l0.083,3.917c-0.75,0.291-2.083,0.5-3.708,0.5c-1.875,0-3.459-0.625-4.416-1.667c-1.084-1.167-1.583-2.999-1.583-5.666v-9.542
		h-2.917v-3.833h2.917v-4.583L177.509,205.95z"/>
	<path class="st3" d="M21.076,531.512c1.666,0.958,4.166,1.791,6.791,1.791c3.292,0,5.125-1.541,5.125-3.833
		c0-2.126-1.417-3.375-5-4.667c-4.625-1.667-7.583-4.126-7.583-8.167c0-4.583,3.833-8.083,9.916-8.083
		c3.042,0,5.292,0.667,6.75,1.417l-1.25,4.126c-1-0.542-2.958-1.333-5.583-1.333c-3.25,0-4.667,1.749-4.667,3.375
		c0,2.166,1.625,3.166,5.375,4.625c4.875,1.833,7.25,4.291,7.25,8.333c0,4.5-3.416,8.417-10.666,8.417
		c-2.958,0-6.041-0.834-7.583-1.75L21.076,531.512z"/>
	<path class="st3" d="M42.072,507.512h5.167v12.083h0.083c0.625-0.959,1.458-1.75,2.542-2.334c1-0.583,2.208-0.916,3.5-0.916
		c3.459,0,7.083,2.291,7.083,8.791v11.958h-5.125V525.72c0-2.959-1.083-5.167-3.917-5.167c-2,0-3.416,1.333-3.958,2.876
		c-0.166,0.416-0.208,0.958-0.208,1.541v12.125h-5.167V507.512z"/>
	<path class="st3" d="M84.775,526.761c0,7.459-5.25,10.792-10.416,10.792c-5.75,0-10.167-3.958-10.167-10.458
		c0-6.666,4.375-10.75,10.5-10.75C80.734,516.345,84.775,520.595,84.775,526.761z M69.484,526.97c0,3.917,1.917,6.875,5.041,6.875
		c2.917,0,4.958-2.875,4.958-6.958c0-3.167-1.417-6.792-4.916-6.792C70.942,520.095,69.484,523.595,69.484,526.97z"/>
	<path class="st3" d="M91.314,516.804l2.125,9.207c0.458,2.167,0.917,4.375,1.292,6.583h0.083c0.417-2.208,1.083-4.458,1.667-6.542
		l2.625-9.249h4.166l2.542,8.999c0.625,2.375,1.166,4.583,1.625,6.791h0.083c0.333-2.208,0.791-4.416,1.333-6.791l2.25-8.999h5.041
		l-6.375,20.291h-4.75l-2.417-8.249c-0.625-2.126-1.083-4.042-1.541-6.5h-0.084c-0.417,2.5-0.958,4.5-1.541,6.5l-2.583,8.249h-4.791
		l-6-20.291H91.314z"/>
	<path class="st3" d="M145.389,531.011c0,2.416,0.083,4.417,0.166,6.083h-4.5l-0.25-3.084h-0.083
		c-0.875,1.459-2.875,3.542-6.5,3.542c-3.708,0-7.083-2.209-7.083-8.834v-11.916h5.125v11.041c0,3.375,1.084,5.541,3.792,5.541
		c2.042,0,3.375-1.458,3.916-2.75c0.167-0.458,0.292-0.999,0.292-1.583v-12.249h5.125V531.011z"/>
	<path class="st3" d="M150.259,532.386c1.167,0.708,3.375,1.458,5.208,1.458c2.25,0,3.25-0.916,3.25-2.25
		c0-1.375-0.834-2.083-3.333-2.959c-3.958-1.375-5.625-3.541-5.583-5.917c0-3.583,2.958-6.374,7.666-6.374
		c2.25,0,4.208,0.583,5.375,1.208l-1,3.624c-0.875-0.5-2.5-1.167-4.292-1.167c-1.833,0-2.833,0.876-2.833,2.126
		c0,1.292,0.958,1.916,3.541,2.833c3.667,1.333,5.375,3.208,5.417,6.208c0,3.667-2.875,6.334-8.25,6.334
		c-2.458,0-4.667-0.583-6.166-1.417L150.259,532.386z"/>
	<path class="st3" d="M8.536,556.57l3.667,10.874c0.417,1.25,0.833,2.791,1.125,3.958h0.125c0.333-1.167,0.708-2.667,1.083-4
		l3.166-10.833h5.5l-5.083,13.832c-2.792,7.584-4.667,10.959-7.083,13.042c-2,1.792-4.083,2.459-5.375,2.625l-1.166-4.334
		c0.875-0.208,1.958-0.667,3-1.417c0.958-0.625,2.083-1.833,2.791-3.208c0.209-0.374,0.333-0.667,0.333-0.916
		c0-0.208-0.042-0.5-0.292-1L2.911,556.57H8.536z"/>
	<path class="st3" d="M44.491,566.527c0,7.459-5.25,10.792-10.416,10.792c-5.75,0-10.167-3.958-10.167-10.458
		c0-6.667,4.375-10.75,10.5-10.75C40.45,556.111,44.491,560.361,44.491,566.527z M29.2,566.736c0,3.917,1.917,6.875,5.041,6.875
		c2.917,0,4.958-2.875,4.958-6.958c0-3.167-1.417-6.792-4.916-6.792C30.659,559.86,29.2,563.361,29.2,566.736z"/>
	<path class="st3" d="M66.446,570.777c0,2.416,0.083,4.417,0.166,6.083h-4.5l-0.25-3.084h-0.083c-0.875,1.459-2.875,3.542-6.5,3.542
		c-3.708,0-7.083-2.209-7.083-8.834V556.57h5.125v11.041c0,3.375,1.084,5.541,3.792,5.541c2.042,0,3.375-1.458,3.916-2.75
		c0.167-0.458,0.292-1,0.292-1.583V556.57h5.125V570.777z"/>
	<path class="st3" d="M71.566,563.11c0-2.75-0.042-4.708-0.166-6.541h4.458l0.167,3.874h0.166c1-2.875,3.375-4.333,5.542-4.333
		c0.5,0,0.791,0.042,1.208,0.125v4.833c-0.417-0.083-0.875-0.166-1.5-0.166c-2.458,0-4.125,1.583-4.583,3.875
		c-0.083,0.459-0.166,1-0.166,1.583v10.5h-5.125V563.11z"/>
	<path class="st3" d="M99.645,550.903c0,1.541-1.125,2.75-2.917,2.75c-1.708,0-2.833-1.208-2.833-2.75
		c0-1.583,1.167-2.791,2.875-2.791C98.519,548.111,99.603,549.32,99.645,550.903z M94.186,576.86V556.57h5.167v20.291H94.186z"/>
	<path class="st3" d="M110.309,550.778v5.792h4.875v3.833h-4.875v8.959c0,2.458,0.667,3.749,2.625,3.749c0.875,0,1.541-0.125,2-0.25
		l0.083,3.917c-0.75,0.291-2.083,0.5-3.708,0.5c-1.875,0-3.459-0.625-4.416-1.667c-1.084-1.167-1.583-2.999-1.583-5.666v-9.542
		h-2.917v-3.833h2.917v-4.583L110.309,550.778z"/>
	<path class="st3" d="M122.015,568.152c0.125,3.666,3,5.25,6.25,5.25c2.375,0,4.083-0.334,5.625-0.917l0.75,3.542
		c-1.75,0.708-4.167,1.25-7.083,1.25c-6.583,0-10.458-4.041-10.458-10.25c0-5.624,3.417-10.916,9.917-10.916
		c6.583,0,8.75,5.416,8.75,9.875c0,0.958-0.083,1.708-0.166,2.166H122.015z M130.932,564.569c0.042-1.875-0.791-4.959-4.208-4.959
		c-3.166,0-4.5,2.875-4.708,4.959H130.932z"/>
	<path class="st3" d="M139.469,562.611c0-2.334-0.042-4.292-0.166-6.041h4.416l0.208,2.999h0.125c1-1.583,2.833-3.458,6.25-3.458
		c2.667,0,4.75,1.5,5.625,3.749h0.083c0.708-1.124,1.542-1.957,2.5-2.541c1.125-0.791,2.417-1.208,4.084-1.208
		c3.375,0,6.791,2.291,6.791,8.791v11.958h-5v-11.208c0-3.375-1.167-5.375-3.625-5.375c-1.75,0-3.042,1.25-3.583,2.708
		c-0.125,0.5-0.25,1.125-0.25,1.709v12.166h-5v-11.75c0-2.833-1.125-4.833-3.5-4.833c-1.917,0-3.208,1.5-3.667,2.917
		c-0.208,0.499-0.292,1.083-0.292,1.666v12h-5V562.611z"/>
	<path class="st3" d="M174.13,572.152c1.166,0.708,3.375,1.458,5.208,1.458c2.25,0,3.25-0.916,3.25-2.25
		c0-1.375-0.834-2.083-3.333-2.959c-3.958-1.375-5.625-3.541-5.583-5.917c0-3.583,2.958-6.374,7.666-6.374
		c2.25,0,4.208,0.583,5.375,1.208l-1,3.625c-0.875-0.5-2.5-1.167-4.292-1.167c-1.833,0-2.833,0.876-2.833,2.126
		c0,1.292,0.958,1.916,3.542,2.833c3.666,1.333,5.375,3.208,5.416,6.208c0,3.667-2.875,6.334-8.25,6.334
		c-2.458,0-4.667-0.583-6.167-1.417L174.13,572.152z"/>
	<path class="st3" d="M28.14,886.461c-1.791,0.667-5.291,1.583-9.041,1.583c-4.75,0-8.333-1.208-11-3.749
		c-2.5-2.375-3.958-6.083-3.916-10.334c0-8.874,6.333-14.583,15.624-14.583c3.459,0,6.167,0.708,7.458,1.333l-1.125,4.126
		c-1.541-0.667-3.416-1.208-6.375-1.208c-6,0-10.208,3.541-10.208,10.083c0,6.374,3.916,10.166,9.75,10.166
		c1.833,0,3.208-0.25,3.875-0.583v-6.999h-4.958v-4.042h9.916V886.461z"/>
	<path class="st3" d="M36.635,879.044c0.125,3.666,3,5.25,6.25,5.25c2.375,0,4.083-0.334,5.625-0.917l0.75,3.542
		c-1.75,0.708-4.166,1.25-7.083,1.25c-6.583,0-10.458-4.042-10.458-10.25c0-5.624,3.417-10.916,9.916-10.916
		c6.583,0,8.75,5.416,8.75,9.875c0,0.958-0.083,1.708-0.166,2.166H36.635z M45.551,875.461c0.042-1.875-0.792-4.959-4.208-4.959
		c-3.166,0-4.5,2.875-4.708,4.959H45.551z"/>
	<path class="st3" d="M59.964,861.67v5.792h4.875v3.833h-4.875v8.959c0,2.458,0.667,3.749,2.625,3.749c0.875,0,1.541-0.125,2-0.25
		l0.083,3.917c-0.75,0.291-2.083,0.5-3.708,0.5c-1.875,0-3.458-0.625-4.416-1.667c-1.084-1.167-1.583-2.999-1.583-5.666v-9.542
		h-2.917v-3.833h2.917v-4.583L59.964,861.67z"/>
	<path class="st3" d="M87.918,887.752l-0.333-2.25h-0.125c-1.25,1.583-3.375,2.708-6,2.708c-4.083,0-6.375-2.959-6.375-6.041
		c0-5.125,4.542-7.708,12.041-7.667v-0.333c0-1.333-0.542-3.542-4.125-3.542c-2,0-4.083,0.625-5.458,1.501l-1-3.333
		c1.5-0.917,4.125-1.792,7.333-1.792c6.5,0,8.375,4.125,8.375,8.542v7.333c0,1.833,0.083,3.625,0.291,4.875H87.918z M87.251,877.836
		c-3.624-0.083-7.083,0.708-7.083,3.792c0,2,1.292,2.916,2.917,2.916c2.042,0,3.542-1.333,4-2.791
		c0.125-0.375,0.166-0.791,0.166-1.125V877.836z"/>
	<path class="st3" d="M105.453,874.211c0-2.667-0.083-4.834-0.166-6.75h4.5l0.25,3.124h0.083c1.5-2.291,3.875-3.583,6.958-3.583
		c4.667,0,8.542,4,8.542,10.333c0,7.333-4.625,10.875-9.25,10.875c-2.542,0-4.667-1.084-5.708-2.708h-0.083v10.499h-5.125V874.211z
		 M110.579,879.252c0,0.5,0.042,0.959,0.166,1.417c0.5,2.083,2.333,3.584,4.5,3.584c3.25,0,5.166-2.708,5.166-6.708
		c0-3.584-1.75-6.5-5.041-6.5c-2.125,0-4.083,1.541-4.583,3.792c-0.125,0.416-0.208,0.875-0.208,1.292V879.252z"/>
	<path class="st3" d="M129.407,874.002c0-2.75-0.042-4.708-0.166-6.541h4.458l0.167,3.874h0.166c1-2.875,3.375-4.333,5.542-4.333
		c0.5,0,0.791,0.042,1.208,0.125v4.833c-0.417-0.083-0.875-0.166-1.5-0.166c-2.458,0-4.125,1.583-4.583,3.875
		c-0.083,0.459-0.166,1-0.166,1.583v10.5h-5.125V874.002z"/>
	<path class="st3" d="M149.28,861.795c0,1.541-1.125,2.75-2.917,2.75c-1.708,0-2.833-1.208-2.833-2.75
		c0-1.583,1.167-2.791,2.875-2.791C148.154,859.003,149.238,860.212,149.28,861.795z M143.821,887.752v-20.291h5.167v20.291H143.821
		z"/>
	<path class="st3" d="M168.986,887.127c-1.083,0.5-3.208,1.042-5.75,1.042c-6.333,0-10.458-4.042-10.458-10.334
		c0-6.083,4.167-10.833,11.291-10.833c1.875,0,3.792,0.417,4.958,0.958l-0.917,3.833c-0.833-0.375-2.042-0.792-3.875-0.792
		c-3.917,0-6.25,2.875-6.208,6.583c0,4.166,2.708,6.542,6.208,6.542c1.791,0,3.042-0.375,4.042-0.792L168.986,887.127z"/>
	<path class="st3" d="M175.608,879.044c0.125,3.666,3,5.25,6.25,5.25c2.375,0,4.083-0.334,5.625-0.917l0.75,3.542
		c-1.75,0.708-4.166,1.25-7.083,1.25c-6.583,0-10.458-4.042-10.458-10.25c0-5.624,3.417-10.916,9.916-10.916
		c6.583,0,8.75,5.416,8.75,9.875c0,0.958-0.083,1.708-0.166,2.166H175.608z M184.525,875.461c0.042-1.875-0.792-4.959-4.208-4.959
		c-3.166,0-4.5,2.875-4.708,4.959H184.525z"/>
</g>
</svg>
