<?xml version="1.0" encoding="utf-8"?>
<!-- Generator: Adobe Illustrator 20.0.0, SVG Export Plug-In . SVG Version: 6.00 Build 0)  -->
<svg version="1.1" id="Layer_1" xmlns="http://www.w3.org/2000/svg" xmlns:xlink="http://www.w3.org/1999/xlink" x="0px" y="0px"
	 width="439.007px" height="166.602px" viewBox="0 0 439.007 166.602" style="enable-background:new 0 0 439.007 166.602;"
	 xml:space="preserve">
<style type="text/css">

</style>
<g id="g11">
	<path class="st0" d="M439.007,100.673c0,3.118-2.551,5.669-5.669,5.669H5.669c-3.118,0-5.669-2.551-5.669-5.669V5.669
		C0,2.551,2.551,0,5.669,0h427.668c3.118,0,5.669,2.551,5.669,5.669V100.673z"/>
</g>
<text transform="matrix(1 0 0 1 99.8702 67.669)" class="st1 st2 st3 st4">GET STARTED</text>
<text transform="matrix(1 0 0 1 98.8702 65.8072)" class="st10 st2 st3 st4">GET STARTED</text>
<text transform="matrix(1 0 0 1 346.9849 60.3367)" class="st10 st2 st29"> </text>
<path class="st10" d="M65.417,23.102h-27.14c-1.709,0-3.102,1.39-3.102,3.102v51.093c0,1.709,1.392,3.097,3.102,3.097h27.14
	c1.717,0,3.102-1.387,3.102-3.097V26.204C68.519,24.492,67.134,23.102,65.417,23.102 M67.112,77.297
	c0,0.929-0.761,1.692-1.695,1.692h-27.14c-0.934,0-1.695-0.763-1.695-1.692V26.204c0-0.934,0.761-1.692,1.695-1.692h27.14
	c0.934,0,1.695,0.758,1.695,1.692V77.297z"/>
<rect x="39.875" y="31.79" class="st10" width="23.95" height="35.926"/>
<path d="M250.538,130.29c0.443,0,0.833,0.067,1.151,0.193c0.322,0.13,0.586,0.3,0.797,0.51c0.206,0.21,0.367,0.443,0.466,0.712
	c0.107,0.259,0.157,0.524,0.157,0.788h-1.276c0-0.291-0.112-0.533-0.34-0.725c-0.233-0.193-0.546-0.282-0.954-0.282
	c-0.165,0-0.331,0.009-0.488,0.045c-0.157,0.031-0.304,0.076-0.421,0.143c-0.126,0.067-0.22,0.143-0.291,0.246
	c-0.067,0.089-0.103,0.206-0.103,0.331c0,0.237,0.116,0.408,0.349,0.515c0.237,0.116,0.613,0.224,1.128,0.327
	c0.398,0.072,0.761,0.166,1.075,0.264c0.322,0.103,0.591,0.228,0.815,0.381c0.228,0.152,0.403,0.349,0.519,0.582
	c0.125,0.233,0.188,0.515,0.188,0.86c0,0.322-0.063,0.613-0.193,0.873c-0.13,0.26-0.318,0.484-0.555,0.667
	c-0.242,0.184-0.533,0.323-0.873,0.417c-0.34,0.103-0.73,0.152-1.151,0.152c-0.331,0-0.658-0.049-0.989-0.143
	c-0.322-0.089-0.623-0.233-0.877-0.425c-0.269-0.188-0.479-0.43-0.631-0.725c-0.165-0.291-0.246-0.64-0.246-1.048h1.276
	c0,0.202,0.045,0.376,0.134,0.515c0.089,0.148,0.206,0.269,0.345,0.358c0.143,0.103,0.3,0.174,0.479,0.224
	c0.17,0.049,0.345,0.076,0.51,0.076c0.184,0,0.363-0.022,0.542-0.05c0.179-0.04,0.34-0.089,0.479-0.156
	c0.148-0.081,0.259-0.17,0.349-0.287c0.081-0.108,0.13-0.251,0.13-0.412c0-0.099-0.027-0.197-0.076-0.287
	c-0.05-0.094-0.13-0.175-0.255-0.251c-0.125-0.067-0.287-0.138-0.488-0.206c-0.206-0.063-0.461-0.121-0.77-0.179
	c-0.304-0.062-0.613-0.13-0.909-0.219c-0.304-0.085-0.564-0.206-0.801-0.358c-0.228-0.152-0.421-0.349-0.564-0.582
	c-0.139-0.233-0.22-0.533-0.22-0.886c0-0.296,0.063-0.555,0.184-0.797c0.13-0.237,0.3-0.439,0.524-0.613
	c0.228-0.174,0.502-0.3,0.815-0.403C249.791,130.339,250.145,130.29,250.538,130.29"/>
<path d="M277.055,135.201c0,0.3-0.05,0.573-0.148,0.815c-0.09,0.237-0.233,0.443-0.417,0.618c-0.183,0.17-0.403,0.304-0.662,0.394
	c-0.264,0.094-0.555,0.143-0.877,0.143h-3.268v-6.702h3.094c0.676,0,1.182,0.156,1.513,0.479c0.34,0.322,0.506,0.765,0.506,1.334
	c0,0.287-0.058,0.537-0.171,0.756c-0.116,0.22-0.287,0.408-0.483,0.555c0.287,0.152,0.515,0.358,0.676,0.622
	C276.974,134.489,277.055,134.807,277.055,135.201 M272.963,131.624v1.482h1.813c0.22,0,0.403-0.072,0.56-0.21
	c0.152-0.134,0.219-0.314,0.219-0.533c0-0.228-0.067-0.412-0.206-0.541c-0.139-0.13-0.331-0.197-0.573-0.197H272.963z
	 M275.752,135.148c0-0.282-0.085-0.497-0.255-0.649c-0.17-0.152-0.42-0.224-0.747-0.224h-1.787v1.728h1.813
	c0.126,0,0.242-0.013,0.354-0.045c0.125-0.022,0.224-0.067,0.322-0.134c0.085-0.072,0.161-0.157,0.215-0.264
	C275.725,135.457,275.752,135.313,275.752,135.148"/>
<rect x="253.162" y="149.393" width="18.436" height="2.668"/>
<polygon points="238.37,153.955 238.37,115.673 278.049,115.673 278.049,112.674 235.366,112.674 235.366,153.955 "/>
<polygon points="286.295,125.688 286.295,163.598 247.436,163.598 247.436,166.602 289.295,166.602 289.295,125.688 "/>
<path d="M328.695,148.56h-3.393v-1.267c-0.434,0.506-0.944,0.895-1.536,1.173c-0.595,0.278-1.262,0.417-1.996,0.417
	c-0.824,0-1.576-0.148-2.247-0.448c-0.676-0.291-1.254-0.707-1.728-1.235c-0.474-0.529-0.842-1.169-1.101-1.912
	c-0.264-0.748-0.394-1.58-0.394-2.494v-8.112h3.555v8.112c0,0.202,0.036,0.448,0.09,0.757c0.054,0.304,0.17,0.604,0.349,0.9
	c0.179,0.3,0.439,0.546,0.779,0.756c0.336,0.206,0.797,0.314,1.37,0.314c0.81,0,1.459-0.265,1.956-0.788
	c0.497-0.519,0.739-1.169,0.739-1.939v-8.112h3.559V148.56z"/>
<path d="M340.604,137.865c-0.721-0.094-1.361-0.08-1.939,0.036c-0.577,0.121-1.07,0.394-1.482,0.823
	c-0.381,0.394-0.622,0.86-0.73,1.393c-0.107,0.524-0.161,1.07-0.161,1.625v6.818h-3.555v-13.878h3.393v1.374
	c0.573-0.698,1.249-1.186,2.037-1.455c0.779-0.269,1.589-0.327,2.436-0.183V137.865z"/>
<polygon points="351.38,148.56 347.561,148.56 342.301,134.682 346.021,134.682 349.468,145.028 352.942,134.682 356.609,134.682 
	"/>
<path d="M361.86,143.009c0.233,0.869,0.667,1.536,1.28,2.015c0.618,0.492,1.352,0.729,2.198,0.729c0.591,0,1.151-0.125,1.683-0.385
	c0.528-0.26,0.944-0.667,1.253-1.227h3.797c-0.412,1.415-1.2,2.565-2.355,3.438c-1.159,0.868-2.606,1.307-4.356,1.307
	c-0.967,0-1.885-0.188-2.744-0.568c-0.86-0.376-1.621-0.895-2.266-1.549c-0.645-0.658-1.159-1.423-1.535-2.301
	c-0.381-0.887-0.564-1.827-0.564-2.829c0-1.012,0.183-1.952,0.564-2.843c0.376-0.891,0.891-1.665,1.535-2.319
	c0.645-0.658,1.406-1.173,2.266-1.562c0.86-0.385,1.777-0.578,2.744-0.578c1.03,0,1.992,0.193,2.896,0.578
	c0.909,0.389,1.688,0.954,2.337,1.692c0.645,0.748,1.128,1.661,1.45,2.74c0.322,1.075,0.425,2.297,0.3,3.662H361.86z
	 M368.813,140.099c-0.215-0.805-0.631-1.45-1.249-1.925c-0.623-0.479-1.361-0.711-2.225-0.711c-0.806,0-1.522,0.232-2.131,0.711
	c-0.609,0.474-1.039,1.119-1.294,1.925H368.813z"/>
<path d="M382.177,151.094c-0.345,0.9-0.73,1.616-1.16,2.153c-0.43,0.537-0.913,0.949-1.437,1.227
	c-0.533,0.277-1.114,0.447-1.759,0.51c-0.636,0.067-1.307,0.072-2.033,0.013v-3.232c0.452,0.036,0.846,0.027,1.177-0.027
	c0.336-0.054,0.623-0.157,0.877-0.295c0.251-0.143,0.47-0.345,0.658-0.609c0.188-0.259,0.353-0.591,0.497-0.98l0.408-1.052
	l-5.364-14.116h3.77l3.393,10.019l3.318-10.019h3.801L382.177,151.094z"/>
<path d="M414.428,134.337c0.971,0,1.876,0.179,2.722,0.555c0.842,0.363,1.58,0.873,2.225,1.531c0.636,0.654,1.137,1.428,1.504,2.319
	c0.367,0.882,0.555,1.853,0.555,2.892c0,1.043-0.188,2.001-0.555,2.883c-0.367,0.887-0.868,1.643-1.504,2.288
	c-0.645,0.654-1.383,1.155-2.225,1.527c-0.846,0.367-1.751,0.555-2.722,0.555c-0.971,0-1.876-0.188-2.726-0.555
	c-0.837-0.371-1.576-0.873-2.203-1.527c-0.627-0.645-1.128-1.401-1.5-2.288c-0.367-0.882-0.551-1.84-0.551-2.883
	c0-1.039,0.183-2.01,0.551-2.892c0.371-0.891,0.873-1.665,1.5-2.319c0.627-0.658,1.366-1.169,2.203-1.531
	C412.552,134.517,413.456,134.337,414.428,134.337 M414.441,145.623c0.47,0,0.914-0.099,1.325-0.287
	c0.416-0.188,0.779-0.457,1.097-0.806c0.313-0.353,0.559-0.77,0.743-1.249c0.179-0.488,0.273-1.03,0.273-1.621
	c0-0.591-0.094-1.142-0.273-1.639c-0.184-0.506-0.43-0.936-0.743-1.294c-0.318-0.363-0.681-0.645-1.097-0.842
	c-0.412-0.193-0.855-0.291-1.325-0.291c-0.47,0-0.913,0.099-1.339,0.291c-0.425,0.197-0.792,0.479-1.097,0.842
	c-0.309,0.358-0.546,0.788-0.73,1.294c-0.183,0.497-0.269,1.048-0.269,1.639c0,0.591,0.085,1.132,0.269,1.621
	c0.184,0.479,0.421,0.895,0.73,1.249c0.304,0.349,0.672,0.618,1.097,0.806C413.528,145.525,413.971,145.623,414.441,145.623"/>
<path d="M431.162,148.534c-1.025,0.107-1.92,0.045-2.695-0.188c-0.774-0.233-1.423-0.609-1.943-1.133
	c-0.519-0.524-0.913-1.164-1.186-1.925c-0.264-0.766-0.403-1.621-0.403-2.574v-4.875h-1.67v-3.156h1.67v-3.523h3.555v3.523h2.507
	v3.156h-2.507v4.907c0,0.967,0.224,1.648,0.662,2.041c0.439,0.394,1.106,0.568,2.01,0.515V148.534z"/>
<path d="M312.704,142.32c-0.296-0.488-0.703-0.891-1.227-1.209c-0.515-0.318-1.141-0.568-1.867-0.756
	c-0.73-0.183-1.522-0.353-2.387-0.497c-0.864-0.139-1.54-0.295-2.028-0.457c-0.479-0.165-0.721-0.421-0.721-0.783
	c0-0.251,0.175-0.497,0.542-0.743c0.353-0.237,0.945-0.363,1.777-0.363c0.662,0,1.186,0.116,1.572,0.34
	c0.385,0.22,0.635,0.502,0.743,0.819h3.689c-0.108-0.645-0.331-1.235-0.676-1.773c-0.336-0.542-0.77-0.998-1.303-1.379
	c-0.533-0.376-1.137-0.672-1.818-0.877c-0.685-0.206-1.419-0.304-2.207-0.304c-0.703,0-1.339,0.067-1.912,0.193v2.919h-3.77
	c-0.161,0.439-0.246,0.882-0.246,1.334c0,0.77,0.179,1.401,0.551,1.898c0.367,0.492,0.842,0.891,1.419,1.2
	c0.573,0.304,1.2,0.533,1.876,0.685c0.676,0.148,1.329,0.273,1.961,0.367c0.613,0.085,1.11,0.183,1.491,0.282
	c0.372,0.099,0.667,0.197,0.891,0.309c0.21,0.103,0.358,0.233,0.425,0.376c0.076,0.139,0.108,0.314,0.108,0.515
	c0,0.412-0.237,0.721-0.707,0.926c-0.479,0.206-1.079,0.309-1.795,0.309c-0.269,0-0.555-0.027-0.846-0.085
	c-0.3-0.049-0.578-0.143-0.85-0.277c-0.264-0.134-0.515-0.304-0.739-0.502c-0.228-0.193-0.403-0.447-0.524-0.756h-3.613
	c0.103,0.756,0.349,1.433,0.716,2.024c0.367,0.596,0.837,1.101,1.415,1.527c0.573,0.416,1.236,0.743,1.988,0.967
	c0.757,0.224,1.576,0.34,2.454,0.34c0.882,0,1.692-0.121,2.435-0.353c0.743-0.233,1.384-0.56,1.916-0.971
	c0.533-0.408,0.958-0.904,1.258-1.482c0.304-0.577,0.457-1.2,0.457-1.885C313.152,143.439,313,142.821,312.704,142.32"/>
<path d="M404.498,138.747c-0.354-0.891-0.819-1.661-1.41-2.31c-0.6-0.645-1.294-1.155-2.091-1.527
	c-0.801-0.363-1.661-0.551-2.574-0.551c-0.806,0-1.558,0.143-2.247,0.421c-0.689,0.282-1.298,0.685-1.822,1.213l-0.013-4.911h-3.568
	v13.176h3.536v2.941c0.506,0.506,1.084,0.913,1.746,1.195c0.721,0.309,1.504,0.466,2.35,0.466c0.918,0,1.782-0.188,2.583-0.56
	c0.797-0.363,1.5-0.873,2.095-1.522c0.591-0.645,1.061-1.41,1.415-2.292c0.353-0.887,0.528-1.836,0.528-2.865
	C405.026,140.596,404.851,139.638,404.498,138.747 M401.185,143.193c-0.188,0.474-0.452,0.886-0.774,1.24
	c-0.322,0.345-0.698,0.618-1.133,0.815c-0.434,0.197-0.895,0.295-1.383,0.295c-0.484,0-0.94-0.107-1.379-0.309
	c-0.43-0.206-0.811-0.484-1.133-0.833c-0.322-0.349-0.582-0.756-0.77-1.231c-0.188-0.479-0.282-0.985-0.282-1.518
	c0-0.555,0.094-1.083,0.282-1.562c0.188-0.479,0.448-0.9,0.77-1.258c0.322-0.363,0.703-0.64,1.133-0.846
	c0.439-0.21,0.895-0.314,1.379-0.314c0.488,0,0.949,0.103,1.383,0.314c0.435,0.206,0.811,0.484,1.133,0.833
	c0.322,0.349,0.586,0.77,0.774,1.254c0.193,0.497,0.282,1.025,0.282,1.58S401.377,142.718,401.185,143.193"/>
<polygon points="432.116,131.123 432.116,127.358 431.01,127.358 431.01,126.588 433.96,126.588 433.96,127.358 432.859,127.358 
	432.859,131.123 "/>
<polygon points="434.435,131.123 434.435,126.588 435.563,126.588 436.243,129.69 436.91,126.588 438.039,126.588 438.039,131.123 
	437.336,131.123 437.336,127.55 436.593,131.123 435.872,131.123 435.142,127.55 435.142,131.123 "/>
<path class="st10" d="M51.852,71.021c-1.034,0-1.872,0.84-1.872,1.872c0,1.029,0.838,1.867,1.872,1.867
	c1.032,0,1.867-0.838,1.867-1.867C53.72,71.861,52.884,71.021,51.852,71.021"/>
</svg>
