<?xml version="1.0" encoding="utf-8"?>
<!-- Generator: Adobe Illustrator 20.0.0, SVG Export Plug-In . SVG Version: 6.00 Build 0)  -->
<svg version="1.1" id="Layer_1" xmlns="http://www.w3.org/2000/svg" xmlns:xlink="http://www.w3.org/1999/xlink" x="0px" y="0px"
	 width="600px" height="300px" viewBox="0 0 603 235.669" style="enable-background:new 0 0 603 235.669;" xml:space="preserve"
	>
<style type="text/css">
	
</style>
<g id="g1">
	<path class="st0" d="M73.14,76.509c-1.256,0-1.974,0.102-2.347,0.17v6.311h2.042c2.576,0,4.105-1.289,4.105-3.29
		C76.94,77.595,75.512,76.544,73.14,76.509z"/>
	<path class="st0" d="M92.8,3.431c-34.611,0-62.67,28.06-62.67,62.673c0,34.612,28.06,62.672,62.67,62.672
		c34.617,0,62.67-28.06,62.67-62.672C155.471,31.491,127.417,3.431,92.8,3.431z M77.649,95.716
		c-0.376-0.643-0.916-2.511-1.595-5.327c-0.611-2.85-1.595-3.631-3.695-3.665h-1.567v8.992h-5.12V73.148
		c1.659-0.27,4.139-0.474,6.884-0.474c3.396,0,5.771,0.508,7.403,1.799c1.354,1.085,2.104,2.681,2.104,4.785
		c0,2.918-2.073,4.92-4.038,5.633v0.102c1.595,0.645,2.477,2.171,3.054,4.276c0.713,2.579,1.428,5.566,1.866,6.447H77.649z
		 M100.391,95.716H85.799V72.843h14.118v4.243H90.99v4.752h8.418v4.208H90.99v5.428h9.401V95.716z M93.133,57.275
		c-7.159,0-12.958-5.801-12.958-12.96c0-7.155,5.799-12.958,12.958-12.958c7.156,0,12.958,5.803,12.958,12.958
		C106.091,51.474,100.289,57.275,93.133,57.275z M115.635,91.78c1.558,0,3.288-0.339,4.306-0.747l0.78,4.04
		c-0.947,0.475-3.088,0.983-5.87,0.983c-7.906,0-11.98-4.921-11.98-11.435c0-7.807,5.564-12.15,12.486-12.15
		c2.683,0,4.719,0.542,5.635,1.017l-1.052,4.106c-1.052-0.44-2.511-0.848-4.343-0.848c-4.108,0-7.298,2.477-7.298,7.567
		C108.3,88.895,111.017,91.78,115.635,91.78z"/>
	<path class="st0" d="M514.529,3.431c-34.614,0-62.671,28.06-62.671,62.673c0,34.612,28.056,62.672,62.671,62.672
		c34.617,0,62.673-28.06,62.673-62.672C577.202,31.491,549.146,3.431,514.529,3.431z M534.62,80.811
		c-0.953,5.905-5.547,11.094-11.997,13.544c-1.276,0.484-2.603,0.843-3.956,1.092v7.549c0,2.284-1.852,4.136-4.138,4.136
		c-2.283,0-4.135-1.852-4.135-4.136v-7.402c-6.154-0.854-11.94-3.785-15.31-8.29c-1.37-1.828-0.995-4.422,0.834-5.79
		c1.828-1.369,4.418-0.995,5.79,0.834c3.444,4.605,11.852,6.599,17.978,4.271c3.635-1.379,6.289-4.176,6.766-7.127
		c0.483-3.005-1.421-5.267-3.1-6.635c-2.096-1.702-6.059-3.148-9.895-4.546c-5.049-1.838-10.267-3.74-13.57-6.931
		c-3.069-2.956-4.463-7.17-3.822-11.558c0.722-4.945,3.982-9.356,8.711-11.799c1.804-0.929,3.7-1.561,5.618-1.931v-5.804
		c0-2.284,1.852-4.136,4.135-4.136c2.285,0,4.138,1.852,4.138,4.136v5.863c4.801,0.997,9.161,3.653,11.955,7.742
		c1.286,1.887,0.805,4.461-1.08,5.751c-1.889,1.29-4.46,0.806-5.751-1.079c-3.027-4.427-9.998-5.887-15.219-3.19
		c-2.369,1.222-3.98,3.33-4.321,5.643c-0.143,1.009-0.162,2.923,1.376,4.406c2.045,1.975,6.427,3.57,10.663,5.113
		c4.474,1.633,9.107,3.32,12.282,5.901C533.273,70.264,535.476,75.502,534.62,80.811z"/>
	<path class="st0" d="M307.887,3.431c-34.614,0-62.67,28.06-62.67,62.673c0,34.612,28.056,62.672,62.67,62.672
		c34.617,0,62.67-28.06,62.67-62.672C370.558,31.491,342.504,3.431,307.887,3.431z M307.388,28.978
		c13.282,0,24.651,7.191,29.195,17.307c-1.265,0.45-2.437,1.154-3.448,2.091c-7.162,6.63-15.971,16.053-18.285,20.379h-14.923
		c-2.313-4.326-11.12-13.749-18.288-20.379c-1.009-0.937-2.184-1.642-3.442-2.092C282.736,36.168,294.109,28.978,307.388,28.978z
		 M285.771,101.422h-4.059l-0.799-6.302h5.654L285.771,101.422z M333.066,101.422h-4.059l-0.796-6.302h5.651L333.066,101.422z
		 M344.768,66.457c-1.909,2.386-3.908,5.739-5.672,9.724v10.739c0,2.663-2.162,4.826-4.824,4.826h-53.766
		c-2.662,0-4.827-2.164-4.827-4.826V76.066c0-0.15,0.031-0.292,0.046-0.44c-0.052,0.062-0.108,0.117-0.157,0.18
		c-1.746-3.961-3.723-7.292-5.617-9.654c-1.431-1.79-5.623-8.017,0.524-13.056c1.974-1.617,4.047-2.438,6.157-2.438
		c2.014,0,4.025,0.796,5.521,2.181c7.397,6.841,11.847,13.283,14.537,18.4h21.03c2.767-5.153,7.261-11.56,14.608-18.357
		c1.527-1.413,3.578-2.224,5.629-2.224c2.156,0,4.266,0.837,6.277,2.485C350.509,58.283,346.23,64.633,344.768,66.457z"/>
	<circle class="st0" cx="276.089" cy="59.122" r="4.086"/>
	<circle class="st0" cx="338.732" cy="59.122" r="4.087"/>
</g>
<g id="g2">
	<path class="st0" d="M207.043,52.392c-1.216-1.218-3.338-1.222-4.56,0c-1.253,1.26-1.253,3.307,0.002,4.563l6.659,6.656h-25.388
		c-1.777,0-3.223,1.446-3.223,3.222c0,1.778,1.446,3.224,3.223,3.224h25.388l-6.658,6.655c-0.612,0.61-0.947,1.422-0.946,2.287
		c0.001,0.862,0.338,1.67,0.945,2.273c0.61,0.611,1.42,0.948,2.28,0.948c0.866,0,1.676-0.338,2.277-0.947l12.166-12.161
		c0.6-0.6,0.945-1.431,0.945-2.277c0-0.845-0.344-1.676-0.945-2.282L207.043,52.392z"/>
	<path class="st0" d="M420.032,52.392c-1.216-1.218-3.338-1.222-4.56,0c-1.253,1.26-1.253,3.307,0.002,4.563l6.659,6.656h-25.388
		c-1.777,0-3.223,1.446-3.223,3.222c0,1.778,1.446,3.224,3.223,3.224h25.388l-6.658,6.655c-0.612,0.61-0.947,1.422-0.946,2.287
		c0.001,0.862,0.338,1.67,0.945,2.273c0.61,0.611,1.42,0.948,2.28,0.948c0.866,0,1.676-0.338,2.277-0.947l12.166-12.161
		c0.6-0.6,0.945-1.431,0.945-2.277c0-0.845-0.344-1.676-0.945-2.282L420.032,52.392z"/>
	<path class="st0" d="M37.647,179.922c1.575,0.906,3.939,1.693,6.42,1.693c3.112,0,4.845-1.457,4.845-3.623
		c0-2.01-1.339-3.191-4.727-4.412c-4.372-1.576-7.169-3.9-7.169-7.721c0-4.333,3.624-7.642,9.375-7.642
		c2.875,0,5.003,0.63,6.382,1.339l-1.182,3.9c-0.945-0.512-2.797-1.26-5.278-1.26c-3.073,0-4.412,1.654-4.412,3.191
		c0,2.048,1.536,2.993,5.081,4.372c4.609,1.733,6.854,4.057,6.854,7.878c0,4.254-3.23,7.957-10.084,7.957
		c-2.797,0-5.712-0.788-7.169-1.655L37.647,179.922z"/>
	<path class="st0" d="M63.011,160.542v5.476h4.608v3.623h-4.608v8.469c0,2.323,0.63,3.545,2.482,3.545
		c0.827,0,1.457-0.118,1.891-0.236l0.079,3.703c-0.709,0.275-1.969,0.473-3.506,0.473c-1.773,0-3.27-0.591-4.175-1.576
		c-1.024-1.103-1.497-2.836-1.497-5.357v-9.021h-2.757v-3.623h2.757v-4.333L63.011,160.542z"/>
	<path class="st0" d="M81.68,185.2l-0.315-2.127h-0.118c-1.182,1.497-3.191,2.56-5.672,2.56c-3.86,0-6.027-2.797-6.027-5.712
		c0-4.845,4.294-7.288,11.384-7.248v-0.315c0-1.26-0.512-3.349-3.899-3.349c-1.891,0-3.86,0.591-5.16,1.419l-0.945-3.151
		c1.418-0.867,3.9-1.694,6.933-1.694c6.145,0,7.918,3.899,7.918,8.075v6.933c0,1.733,0.079,3.427,0.275,4.608H81.68z M81.05,175.825
		c-3.427-0.079-6.696,0.67-6.696,3.585c0,1.891,1.221,2.757,2.757,2.757c1.93,0,3.348-1.26,3.781-2.639
		c0.118-0.355,0.157-0.748,0.157-1.064V175.825z"/>
	<path class="st0" d="M90.501,172.201c0-2.6-0.039-4.451-0.157-6.184h4.215l0.158,3.663h0.157c0.945-2.718,3.191-4.096,5.239-4.096
		c0.472,0,0.748,0.039,1.142,0.118v4.569c-0.394-0.079-0.827-0.157-1.418-0.157c-2.324,0-3.9,1.497-4.333,3.663
		c-0.079,0.434-0.157,0.945-0.157,1.497v9.927h-4.845V172.201z"/>
	<path class="st0" d="M110.587,160.542v5.476h4.609v3.623h-4.609v8.469c0,2.323,0.63,3.545,2.482,3.545
		c0.827,0,1.457-0.118,1.891-0.236l0.079,3.703c-0.709,0.275-1.969,0.473-3.506,0.473c-1.773,0-3.269-0.591-4.175-1.576
		c-1.024-1.103-1.497-2.836-1.497-5.357v-9.021h-2.757v-3.623h2.757v-4.333L110.587,160.542z"/>
	<path class="st0" d="M137.014,185.2l-0.316-2.127h-0.118c-1.182,1.497-3.191,2.56-5.672,2.56c-3.86,0-6.027-2.797-6.027-5.712
		c0-4.845,4.294-7.288,11.384-7.248v-0.315c0-1.26-0.512-3.349-3.899-3.349c-1.891,0-3.861,0.591-5.16,1.419l-0.945-3.151
		c1.418-0.867,3.9-1.694,6.933-1.694c6.145,0,7.917,3.899,7.917,8.075v6.933c0,1.733,0.079,3.427,0.276,4.608H137.014z
		 M136.384,175.825c-3.427-0.079-6.697,0.67-6.697,3.585c0,1.891,1.221,2.757,2.757,2.757c1.93,0,3.348-1.26,3.781-2.639
		c0.118-0.355,0.158-0.748,0.158-1.064V175.825z"/>
	<path class="st0" d="M8.01,203.612l3.112,9.729c0.552,1.694,0.945,3.23,1.3,4.806h0.118c0.355-1.576,0.788-3.073,1.3-4.806
		l3.033-9.729h5.121l-7.327,19.183H9.901l-7.13-19.183H8.01z"/>
	<path class="st0" d="M29.711,198.254c0,1.457-1.064,2.6-2.757,2.6c-1.615,0-2.679-1.142-2.679-2.6c0-1.497,1.103-2.639,2.718-2.639
		C28.648,195.615,29.672,196.758,29.711,198.254z M24.551,222.795v-19.183h4.885v19.183H24.551z"/>
	<path class="st0" d="M51.926,194.828v22.57c0,1.97,0.079,4.097,0.158,5.397H47.75l-0.197-3.033h-0.079
		c-1.142,2.128-3.466,3.467-6.263,3.467c-4.569,0-8.193-3.9-8.193-9.809c-0.039-6.42,3.979-10.241,8.587-10.241
		c2.639,0,4.53,1.103,5.396,2.521h0.079v-10.872H51.926z M47.081,211.607c0-0.393-0.039-0.866-0.118-1.26
		c-0.434-1.891-1.97-3.427-4.176-3.427c-3.111,0-4.845,2.757-4.845,6.342c0,3.505,1.733,6.066,4.806,6.066
		c1.97,0,3.703-1.339,4.175-3.427c0.118-0.434,0.158-0.906,0.158-1.418V211.607z"/>
	<path class="st0" d="M60.155,214.562c0.118,3.466,2.836,4.963,5.909,4.963c2.245,0,3.86-0.316,5.318-0.867l0.709,3.349
		c-1.654,0.67-3.939,1.182-6.696,1.182c-6.224,0-9.887-3.821-9.887-9.691c0-5.317,3.23-10.32,9.375-10.32
		c6.224,0,8.272,5.121,8.272,9.336c0,0.906-0.079,1.615-0.157,2.048H60.155z M68.584,211.175c0.039-1.773-0.749-4.688-3.979-4.688
		c-2.993,0-4.254,2.718-4.451,4.688H68.584z"/>
	<path class="st0" d="M94.894,213.025c0,7.052-4.963,10.203-9.848,10.203c-5.436,0-9.611-3.742-9.611-9.887
		c0-6.302,4.136-10.163,9.927-10.163C91.073,203.178,94.894,207.196,94.894,213.025z M80.438,213.223
		c0,3.703,1.812,6.499,4.766,6.499c2.757,0,4.688-2.718,4.688-6.578c0-2.994-1.339-6.421-4.648-6.421
		C81.817,206.723,80.438,210.032,80.438,213.223z"/>
	<path class="st0" d="M120.335,222.204c-1.024,0.473-3.033,0.985-5.436,0.985c-5.987,0-9.887-3.821-9.887-9.769
		c0-5.751,3.939-10.241,10.675-10.241c1.773,0,3.585,0.394,4.688,0.906l-0.867,3.624c-0.788-0.354-1.93-0.748-3.663-0.748
		c-3.703,0-5.909,2.718-5.869,6.224c0,3.939,2.56,6.184,5.869,6.184c1.694,0,2.875-0.355,3.821-0.749L120.335,222.204z"/>
	<path class="st0" d="M123.523,194.828h4.885v11.423h0.079c0.591-0.906,1.378-1.655,2.403-2.206
		c0.945-0.552,2.087-0.866,3.309-0.866c3.27,0,6.696,2.166,6.696,8.311v11.305h-4.845v-10.754c0-2.797-1.024-4.885-3.703-4.885
		c-1.891,0-3.23,1.26-3.742,2.719c-0.157,0.393-0.197,0.906-0.197,1.457v11.462h-4.885V194.828z"/>
	<path class="st0" d="M156.45,222.795l-0.316-2.127h-0.118c-1.182,1.497-3.191,2.56-5.672,2.56c-3.86,0-6.027-2.797-6.027-5.712
		c0-4.845,4.294-7.288,11.384-7.248v-0.315c0-1.26-0.512-3.349-3.899-3.349c-1.891,0-3.861,0.591-5.16,1.419l-0.945-3.151
		c1.418-0.867,3.9-1.694,6.933-1.694c6.145,0,7.917,3.899,7.917,8.075v6.933c0,1.733,0.079,3.427,0.276,4.608H156.45z
		 M155.82,213.42c-3.427-0.079-6.697,0.67-6.697,3.585c0,1.891,1.221,2.757,2.757,2.757c1.93,0,3.348-1.26,3.781-2.639
		c0.118-0.355,0.158-0.748,0.158-1.064V213.42z"/>
	<path class="st0" d="M170.588,198.136v5.476h4.608v3.623h-4.608v8.469c0,2.323,0.63,3.545,2.482,3.545
		c0.827,0,1.457-0.118,1.891-0.236l0.079,3.703c-0.709,0.275-1.969,0.473-3.506,0.473c-1.773,0-3.27-0.591-4.175-1.576
		c-1.024-1.103-1.497-2.836-1.497-5.357v-9.021h-2.757v-3.623h2.757v-4.333L170.588,198.136z"/>
	<path class="st0" d="M237.41,179.922c1.575,0.906,3.939,1.693,6.42,1.693c3.112,0,4.845-1.457,4.845-3.623
		c0-2.01-1.339-3.191-4.727-4.412c-4.372-1.576-7.169-3.9-7.169-7.721c0-4.333,3.624-7.642,9.375-7.642
		c2.875,0,5.003,0.63,6.382,1.339l-1.182,3.9c-0.945-0.512-2.797-1.26-5.278-1.26c-3.073,0-4.412,1.654-4.412,3.191
		c0,2.048,1.536,2.993,5.081,4.372c4.609,1.733,6.854,4.057,6.854,7.878c0,4.254-3.23,7.957-10.084,7.957
		c-2.797,0-5.712-0.788-7.169-1.655L237.41,179.922z"/>
	<path class="st0" d="M257.26,157.233h4.885v11.423h0.079c0.591-0.906,1.379-1.655,2.403-2.206c0.945-0.552,2.087-0.866,3.309-0.866
		c3.27,0,6.696,2.166,6.696,8.311V185.2h-4.845v-10.754c0-2.797-1.024-4.885-3.703-4.885c-1.891,0-3.23,1.26-3.742,2.719
		c-0.157,0.393-0.197,0.906-0.197,1.457V185.2h-4.885V157.233z"/>
	<path class="st0" d="M297.631,175.431c0,7.052-4.963,10.203-9.848,10.203c-5.436,0-9.612-3.742-9.612-9.887
		c0-6.302,4.136-10.163,9.927-10.163C293.81,165.584,297.631,169.601,297.631,175.431z M283.175,175.628
		c0,3.703,1.812,6.499,4.766,6.499c2.757,0,4.688-2.718,4.688-6.578c0-2.994-1.339-6.421-4.648-6.421
		C284.554,169.128,283.175,172.438,283.175,175.628z"/>
	<path class="st0" d="M303.813,166.017l2.009,8.705c0.433,2.049,0.867,4.136,1.221,6.224h0.079c0.394-2.087,1.024-4.214,1.576-6.184
		l2.482-8.744h3.939l2.403,8.508c0.591,2.246,1.103,4.333,1.536,6.42h0.079c0.315-2.087,0.748-4.175,1.26-6.42l2.127-8.508h4.766
		l-6.027,19.183h-4.49l-2.285-7.799c-0.59-2.01-1.024-3.821-1.457-6.145h-0.079c-0.394,2.364-0.906,4.254-1.457,6.145l-2.442,7.799
		h-4.53l-5.672-19.183H303.813z"/>
	<path class="st0" d="M354.935,179.449c0,2.284,0.079,4.176,0.157,5.751h-4.254l-0.236-2.915h-0.079
		c-0.827,1.379-2.718,3.349-6.145,3.349c-3.506,0-6.696-2.088-6.696-8.351v-11.265h4.845v10.438c0,3.191,1.024,5.239,3.585,5.239
		c1.93,0,3.191-1.379,3.702-2.6c0.158-0.433,0.276-0.945,0.276-1.497v-11.58h4.845V179.449z"/>
	<path class="st0" d="M359.54,180.749c1.103,0.67,3.191,1.379,4.924,1.379c2.127,0,3.073-0.866,3.073-2.127
		c0-1.3-0.788-1.969-3.151-2.797c-3.742-1.3-5.318-3.348-5.278-5.594c0-3.387,2.797-6.026,7.248-6.026
		c2.127,0,3.979,0.552,5.081,1.142l-0.945,3.427c-0.827-0.473-2.363-1.103-4.057-1.103c-1.733,0-2.678,0.828-2.678,2.01
		c0,1.221,0.906,1.811,3.348,2.678c3.467,1.26,5.082,3.033,5.121,5.869c0,3.467-2.718,5.988-7.799,5.988
		c-2.324,0-4.412-0.552-5.83-1.34L359.54,180.749z"/>
	<path class="st0" d="M225.555,203.612l3.466,10.281c0.394,1.182,0.788,2.639,1.063,3.742h0.118c0.315-1.103,0.67-2.521,1.024-3.781
		l2.993-10.241h5.2l-4.806,13.077c-2.639,7.17-4.412,10.36-6.697,12.33c-1.891,1.694-3.86,2.324-5.081,2.482l-1.103-4.097
		c0.827-0.197,1.851-0.63,2.836-1.339c0.906-0.591,1.969-1.733,2.639-3.033c0.197-0.354,0.315-0.63,0.315-0.866
		c0-0.197-0.039-0.473-0.276-0.945l-7.011-17.608H225.555z"/>
	<path class="st0" d="M259.547,213.025c0,7.052-4.963,10.203-9.848,10.203c-5.436,0-9.612-3.742-9.612-9.887
		c0-6.302,4.136-10.163,9.927-10.163C255.726,203.178,259.547,207.196,259.547,213.025z M245.091,213.223
		c0,3.703,1.812,6.499,4.766,6.499c2.757,0,4.688-2.718,4.688-6.578c0-2.994-1.339-6.421-4.648-6.421
		C246.469,206.723,245.091,210.032,245.091,213.223z"/>
	<path class="st0" d="M280.303,217.044c0,2.284,0.079,4.176,0.157,5.751h-4.254l-0.236-2.915h-0.079
		c-0.827,1.379-2.718,3.349-6.145,3.349c-3.506,0-6.696-2.088-6.696-8.351v-11.265h4.845v10.438c0,3.191,1.025,5.239,3.585,5.239
		c1.93,0,3.191-1.378,3.702-2.6c0.158-0.433,0.276-0.945,0.276-1.497v-11.58h4.845V217.044z"/>
	<path class="st0" d="M285.144,209.795c0-2.6-0.039-4.451-0.157-6.184h4.215l0.158,3.663h0.157c0.945-2.718,3.191-4.096,5.239-4.096
		c0.472,0,0.748,0.039,1.142,0.118v4.569c-0.394-0.079-0.827-0.157-1.418-0.157c-2.324,0-3.9,1.497-4.333,3.663
		c-0.079,0.434-0.157,0.945-0.157,1.497v9.927h-4.845V209.795z"/>
	<path class="st0" d="M311.689,198.254c0,1.457-1.064,2.6-2.757,2.6c-1.615,0-2.679-1.142-2.679-2.6
		c0-1.497,1.103-2.639,2.718-2.639C310.625,195.615,311.649,196.758,311.689,198.254z M306.528,222.795v-19.183h4.885v19.183
		H306.528z"/>
	<path class="st0" d="M321.771,198.136v5.476h4.608v3.623h-4.608v8.469c0,2.323,0.63,3.545,2.482,3.545
		c0.827,0,1.457-0.118,1.891-0.236l0.079,3.703c-0.709,0.275-1.969,0.473-3.506,0.473c-1.773,0-3.27-0.591-4.175-1.576
		c-1.025-1.103-1.497-2.836-1.497-5.357v-9.021h-2.757v-3.623h2.757v-4.333L321.771,198.136z"/>
	<path class="st0" d="M332.838,214.562c0.118,3.466,2.836,4.963,5.909,4.963c2.245,0,3.86-0.316,5.318-0.867l0.709,3.349
		c-1.654,0.67-3.939,1.182-6.696,1.182c-6.224,0-9.887-3.821-9.887-9.691c0-5.317,3.23-10.32,9.375-10.32
		c6.224,0,8.272,5.121,8.272,9.336c0,0.906-0.079,1.615-0.157,2.048H332.838z M341.268,211.175c0.039-1.773-0.748-4.688-3.979-4.688
		c-2.993,0-4.254,2.718-4.451,4.688H341.268z"/>
	<path class="st0" d="M349.339,209.323c0-2.206-0.039-4.058-0.157-5.712h4.175l0.197,2.836h0.118
		c0.945-1.497,2.679-3.269,5.909-3.269c2.521,0,4.49,1.418,5.318,3.545h0.079c0.67-1.063,1.458-1.851,2.363-2.402
		c1.064-0.748,2.285-1.142,3.861-1.142c3.191,0,6.42,2.166,6.42,8.311v11.305h-4.727v-10.596c0-3.191-1.103-5.081-3.427-5.081
		c-1.654,0-2.875,1.182-3.388,2.56c-0.118,0.473-0.236,1.064-0.236,1.615v11.502h-4.727v-11.108c0-2.678-1.064-4.569-3.309-4.569
		c-1.812,0-3.033,1.418-3.466,2.758c-0.197,0.472-0.276,1.024-0.276,1.575v11.344h-4.727V209.323z"/>
	<path class="st0" d="M382.107,218.344c1.103,0.67,3.191,1.378,4.924,1.378c2.127,0,3.073-0.866,3.073-2.127
		c0-1.3-0.788-1.969-3.151-2.797c-3.742-1.3-5.318-3.348-5.278-5.594c0-3.387,2.797-6.026,7.248-6.026
		c2.127,0,3.979,0.552,5.081,1.142l-0.945,3.427c-0.827-0.473-2.363-1.103-4.057-1.103c-1.733,0-2.678,0.828-2.678,2.01
		c0,1.221,0.906,1.811,3.348,2.678c3.466,1.26,5.081,3.033,5.121,5.869c0,3.467-2.718,5.988-7.799,5.988
		c-2.324,0-4.412-0.552-5.83-1.34L382.107,218.344z"/>
	<path class="st0" d="M449.356,201.49c-1.694,0.63-5.002,1.497-8.548,1.497c-4.49,0-7.878-1.142-10.399-3.545
		c-2.363-2.246-3.742-5.751-3.702-9.769c0-8.39,5.987-13.787,14.771-13.787c3.27,0,5.83,0.67,7.051,1.26l-1.064,3.9
		c-1.457-0.63-3.23-1.142-6.027-1.142c-5.672,0-9.65,3.348-9.65,9.532c0,6.026,3.702,9.611,9.217,9.611
		c1.733,0,3.033-0.236,3.663-0.552v-6.617h-4.687v-3.821h9.375V201.49z"/>
	<path class="st0" d="M457.387,194.479c0.118,3.466,2.836,4.963,5.909,4.963c2.245,0,3.86-0.316,5.318-0.867l0.709,3.349
		c-1.654,0.67-3.939,1.182-6.696,1.182c-6.224,0-9.887-3.821-9.887-9.691c0-5.317,3.23-10.32,9.375-10.32
		c6.224,0,8.272,5.121,8.272,9.336c0,0.906-0.079,1.615-0.157,2.048H457.387z M465.817,191.092c0.039-1.773-0.749-4.688-3.979-4.688
		c-2.993,0-4.254,2.718-4.451,4.688H465.817z"/>
	<path class="st0" d="M479.443,178.053v5.476h4.609v3.623h-4.609v8.469c0,2.323,0.63,3.545,2.482,3.545
		c0.827,0,1.457-0.118,1.891-0.236l0.079,3.703c-0.709,0.275-1.969,0.473-3.506,0.473c-1.773,0-3.269-0.591-4.175-1.576
		c-1.024-1.103-1.497-2.836-1.497-5.357v-9.021h-2.757v-3.623h2.757v-4.333L479.443,178.053z"/>
	<path class="st0" d="M505.87,202.711l-0.315-2.127h-0.118c-1.182,1.497-3.191,2.56-5.672,2.56c-3.86,0-6.027-2.797-6.027-5.712
		c0-4.845,4.294-7.288,11.384-7.248v-0.315c0-1.26-0.512-3.349-3.899-3.349c-1.891,0-3.86,0.591-5.16,1.419l-0.945-3.151
		c1.418-0.867,3.9-1.694,6.933-1.694c6.145,0,7.918,3.899,7.918,8.075v6.933c0,1.733,0.079,3.427,0.275,4.608H505.87z
		 M505.24,193.336c-3.427-0.079-6.696,0.67-6.696,3.585c0,1.891,1.221,2.757,2.757,2.757c1.93,0,3.348-1.26,3.781-2.639
		c0.118-0.355,0.157-0.748,0.157-1.064V193.336z"/>
	<path class="st0" d="M522.448,189.91c0-2.521-0.079-4.57-0.157-6.381h4.254l0.236,2.954h0.079c1.418-2.166,3.664-3.387,6.578-3.387
		c4.412,0,8.075,3.781,8.075,9.768c0,6.933-4.372,10.282-8.745,10.282c-2.403,0-4.412-1.024-5.396-2.56h-0.079v9.926h-4.845V189.91z
		 M527.293,194.676c0,0.473,0.039,0.906,0.157,1.339c0.473,1.969,2.206,3.388,4.254,3.388c3.072,0,4.884-2.56,4.884-6.342
		c0-3.388-1.654-6.145-4.766-6.145c-2.009,0-3.86,1.457-4.333,3.585c-0.118,0.393-0.197,0.827-0.197,1.221V194.676z"/>
	<path class="st0" d="M545.094,189.712c0-2.6-0.039-4.451-0.157-6.184h4.215l0.158,3.663h0.157c0.945-2.718,3.191-4.096,5.239-4.096
		c0.472,0,0.748,0.039,1.142,0.118v4.569c-0.394-0.079-0.827-0.157-1.418-0.157c-2.324,0-3.9,1.497-4.333,3.663
		c-0.079,0.434-0.157,0.945-0.157,1.497v9.927h-4.845V189.712z"/>
	<path class="st0" d="M563.881,178.171c0,1.457-1.064,2.6-2.757,2.6c-1.615,0-2.679-1.142-2.679-2.6
		c0-1.497,1.103-2.639,2.718-2.639C562.818,175.532,563.842,176.675,563.881,178.171z M558.721,202.711v-19.183h4.885v19.183
		H558.721z"/>
	<path class="st0" d="M582.511,202.121c-1.024,0.473-3.033,0.985-5.436,0.985c-5.987,0-9.887-3.821-9.887-9.769
		c0-5.751,3.939-10.241,10.675-10.241c1.773,0,3.585,0.394,4.688,0.906l-0.867,3.624c-0.788-0.354-1.93-0.748-3.663-0.748
		c-3.703,0-5.909,2.718-5.869,6.224c0,3.939,2.56,6.184,5.869,6.184c1.694,0,2.875-0.355,3.821-0.749L582.511,202.121z"/>
	<path class="st0" d="M588.772,194.479c0.118,3.466,2.836,4.963,5.909,4.963c2.245,0,3.86-0.316,5.318-0.867l0.709,3.349
		c-1.654,0.67-3.939,1.182-6.696,1.182c-6.224,0-9.887-3.821-9.887-9.691c0-5.317,3.23-10.32,9.375-10.32
		c6.224,0,8.272,5.121,8.272,9.336c0,0.906-0.079,1.615-0.157,2.048H588.772z M597.202,191.092c0.039-1.773-0.749-4.688-3.979-4.688
		c-2.993,0-4.254,2.718-4.451,4.688H597.202z"/>
</g>
</svg>
