<?xml version="1.0" encoding="utf-8"?>
<!-- Generator: Adobe Illustrator 20.0.0, SVG Export Plug-In . SVG Version: 6.00 Build 0)  -->
<svg version="1.1" id="Layer_1_h" xmlns="http://www.w3.org/2000/svg" xmlns:xlink="http://www.w3.org/1999/xlink" x="0px" y="0px"
	 width="1205px" height="200px" viewBox="0 0 1205 200" style="enable-background:new 0 0 1205 200;" xml:space="preserve">
<style type="text/css">
	
</style>
<g id="g1">
	<g>
		<path class="st0" d="M52.494,110.006c-1.328,0-2.088,0.108-2.483,0.18v6.675h2.16c2.724,0,4.343-1.364,4.343-3.48
			C56.514,111.155,55.003,110.043,52.494,110.006z"/>
		<path class="st0" d="M73.29,32.708C36.68,32.708,7,62.388,7,99c0,36.612,29.68,66.292,66.29,66.292
			c36.616,0,66.29-29.68,66.29-66.292C139.58,62.388,109.906,32.708,73.29,32.708z M57.264,130.322
			c-0.398-0.68-0.969-2.656-1.687-5.635c-0.646-3.015-1.687-3.841-3.909-3.877h-1.657v9.511h-5.416v-23.871
			c1.755-0.285,4.378-0.502,7.282-0.502c3.592,0,6.104,0.538,7.83,1.903c1.432,1.148,2.225,2.836,2.225,5.061
			c0,3.086-2.192,5.205-4.271,5.958v0.108c1.687,0.682,2.62,2.296,3.23,4.523c0.754,2.728,1.511,5.888,1.974,6.819H57.264z
			 M81.319,130.322H65.884v-24.194h14.933v4.489h-9.442v5.026h8.904v4.451h-8.904v5.741h9.944V130.322z M73.642,89.661
			c-7.573,0-13.706-6.136-13.706-13.708c0-7.568,6.134-13.706,13.706-13.706c7.569,0,13.706,6.138,13.706,13.706
			C87.349,83.525,81.212,89.661,73.642,89.661z M97.443,126.159c1.648,0,3.478-0.359,4.555-0.79l0.826,4.273
			c-1.002,0.502-3.266,1.04-6.209,1.04c-8.362,0-12.672-5.206-12.672-12.095c0-8.258,5.886-12.852,13.207-12.852
			c2.838,0,4.992,0.573,5.961,1.076l-1.113,4.343c-1.113-0.466-2.656-0.897-4.594-0.897c-4.346,0-7.719,2.62-7.719,8.004
			C89.685,123.107,92.559,126.159,97.443,126.159z"/>
	</g>
	<path class="st0" d="M926.882,32.708c-36.613,0-66.29,29.68-66.29,66.292c0,36.612,29.677,66.292,66.29,66.292
		c36.616,0,66.293-29.68,66.293-66.292C993.175,62.388,963.499,32.708,926.882,32.708z M948.133,114.557
		c-1.008,6.246-5.868,11.735-12.69,14.326c-1.349,0.512-2.754,0.892-4.184,1.155v7.985c0,2.416-1.959,4.374-4.377,4.374
		c-2.414,0-4.374-1.958-4.374-4.374v-7.829c-6.509-0.903-12.63-4.004-16.194-8.769c-1.449-1.934-1.052-4.677,0.883-6.124
		c1.933-1.448,4.674-1.052,6.124,0.882c3.643,4.871,12.537,6.98,19.016,4.518c3.845-1.459,6.652-4.418,7.157-7.538
		c0.51-3.179-1.503-5.571-3.279-7.018c-2.217-1.8-6.409-3.33-10.467-4.808c-5.341-1.944-10.859-3.956-14.354-7.332
		c-3.246-3.126-4.721-7.584-4.043-12.225c0.764-5.231,4.212-9.896,9.214-12.48c1.909-0.983,3.913-1.652,5.943-2.042v-6.139
		c0-2.416,1.959-4.374,4.374-4.374c2.417,0,4.377,1.958,4.377,4.374v6.201c5.078,1.055,9.69,3.864,12.646,8.189
		c1.36,1.996,0.851,4.719-1.142,6.083c-1.998,1.365-4.718,0.852-6.083-1.141c-3.202-4.683-10.576-6.227-16.098-3.374
		c-2.506,1.293-4.21,3.523-4.571,5.969c-0.152,1.067-0.171,3.092,1.455,4.661c2.163,2.089,6.798,3.776,11.279,5.408
		c4.732,1.728,9.633,3.511,12.992,6.241C946.709,103.401,949.039,108.941,948.133,114.557z"/>
	<g>
		<path class="st0" d="M498.29,33.839c-36.613,0-66.29,29.68-66.29,66.292c0,36.612,29.677,66.292,66.29,66.292
			c36.616,0,66.29-29.68,66.29-66.292C564.58,63.519,534.906,33.839,498.29,33.839z M497.761,60.861
			c14.049,0,26.075,7.607,30.881,18.307c-1.338,0.476-2.577,1.221-3.648,2.212c-7.576,7.013-16.894,16.98-19.341,21.556h-15.785
			c-2.447-4.576-11.762-14.543-19.344-21.556c-1.067-0.991-2.31-1.736-3.641-2.213C471.687,68.466,483.716,60.861,497.761,60.861z
			 M474.897,137.489h-4.294l-0.845-6.666h5.98L474.897,137.489z M524.923,137.489h-4.294l-0.842-6.666h5.977L524.923,137.489z
			 M537.301,100.504c-2.02,2.524-4.134,6.07-6,10.286v11.359c0,2.816-2.287,5.105-5.103,5.105h-56.871
			c-2.816,0-5.106-2.289-5.106-5.105v-11.48c0-0.159,0.033-0.309,0.049-0.465c-0.055,0.065-0.114,0.124-0.166,0.191
			c-1.847-4.19-3.938-7.714-5.941-10.212c-1.514-1.893-5.948-8.48,0.555-13.81c2.088-1.711,4.281-2.578,6.512-2.578
			c2.131,0,4.258,0.842,5.84,2.307c7.824,7.236,12.532,14.05,15.377,19.463h22.245c2.926-5.45,7.68-12.227,15.452-19.417
			c1.615-1.494,3.785-2.352,5.954-2.352c2.281,0,4.512,0.885,6.639,2.629C543.373,91.859,538.848,98.575,537.301,100.504z"/>
		<circle class="st0" cx="464.655" cy="92.746" r="4.322"/>
		<circle class="st0" cx="530.916" cy="92.746" r="4.323"/>
	</g>
</g>
<g id="g2">
	<g>
		<path class="st0" d="M389.778,85.209c-1.286-1.289-3.531-1.292-4.823,0.001c-1.326,1.332-1.325,3.498,0.002,4.827l7.043,7.04
			h-26.854c-1.88,0-3.409,1.529-3.409,3.408c0,1.881,1.529,3.41,3.409,3.41H392l-7.042,7.039c-0.647,0.645-1.002,1.504-1.001,2.419
			c0.001,0.912,0.358,1.767,1,2.404c0.645,0.646,1.502,1.002,2.412,1.002c0.916,0,1.773-0.358,2.408-1.002l12.869-12.864
			c0.635-0.635,1-1.513,1-2.408c0-0.894-0.364-1.772-1-2.414L389.778,85.209z"/>
	</g>
	<g>
		<path class="st0" d="M823.778,84.278c-1.286-1.289-3.531-1.292-4.823,0.001c-1.326,1.332-1.325,3.498,0.002,4.827l7.043,7.04
			h-26.854c-1.88,0-3.409,1.529-3.409,3.408c0,1.881,1.529,3.41,3.409,3.41H826l-7.042,7.039c-0.647,0.645-1.002,1.504-1.001,2.419
			c0.001,0.912,0.358,1.767,1,2.404c0.645,0.646,1.502,1.002,2.412,1.002c0.917,0,1.773-0.358,2.408-1.002l12.869-12.864
			c0.635-0.635,1-1.513,1-2.408c0-0.894-0.364-1.772-1-2.414L823.778,84.278z"/>
	</g>
	<path class="st0" d="M160.274,86.531c1.666,0.958,4.166,1.791,6.791,1.791c3.292,0,5.125-1.541,5.125-3.833
		c0-2.126-1.417-3.375-5-4.667c-4.625-1.667-7.583-4.126-7.583-8.167c0-4.583,3.833-8.083,9.916-8.083
		c3.042,0,5.292,0.667,6.75,1.417l-1.25,4.126c-1-0.542-2.958-1.333-5.583-1.333c-3.25,0-4.667,1.749-4.667,3.375
		c0,2.166,1.625,3.166,5.375,4.625c4.875,1.833,7.25,4.291,7.25,8.333c0,4.5-3.416,8.417-10.666,8.417
		c-2.958,0-6.041-0.834-7.583-1.75L160.274,86.531z"/>
	<path class="st0" d="M187.104,66.032v5.792h4.875v3.833h-4.875v8.959c0,2.458,0.667,3.749,2.625,3.749c0.875,0,1.541-0.125,2-0.25
		l0.083,3.917c-0.75,0.291-2.083,0.5-3.708,0.5c-1.875,0-3.459-0.625-4.416-1.667c-1.084-1.167-1.583-2.999-1.583-5.666v-9.542
		h-2.917v-3.833h2.917V67.24L187.104,66.032z"/>
	<path class="st0" d="M206.851,92.114l-0.333-2.25h-0.125c-1.25,1.583-3.375,2.708-6,2.708c-4.083,0-6.375-2.959-6.375-6.041
		c0-5.125,4.542-7.709,12.041-7.667v-0.333c0-1.333-0.542-3.542-4.125-3.542c-2,0-4.083,0.625-5.458,1.501l-1-3.333
		c1.5-0.917,4.125-1.792,7.333-1.792c6.5,0,8.375,4.125,8.375,8.542v7.333c0,1.833,0.083,3.624,0.291,4.875H206.851z
		 M206.184,82.198c-3.624-0.083-7.083,0.708-7.083,3.792c0,2,1.292,2.916,2.917,2.916c2.042,0,3.542-1.333,4-2.791
		c0.125-0.375,0.166-0.791,0.166-1.125V82.198z"/>
	<path class="st0" d="M216.181,78.364c0-2.75-0.042-4.708-0.166-6.541h4.458l0.167,3.874h0.166c1-2.875,3.375-4.333,5.542-4.333
		c0.5,0,0.791,0.042,1.208,0.125v4.833c-0.417-0.083-0.875-0.166-1.5-0.166c-2.458,0-4.125,1.583-4.583,3.875
		c-0.083,0.459-0.166,1-0.166,1.583v10.5h-5.125V78.364z"/>
	<path class="st0" d="M237.427,66.032v5.792h4.875v3.833h-4.875v8.959c0,2.458,0.667,3.749,2.625,3.749c0.875,0,1.541-0.125,2-0.25
		l0.083,3.917c-0.75,0.291-2.083,0.5-3.708,0.5c-1.875,0-3.458-0.625-4.416-1.667c-1.084-1.167-1.583-2.999-1.583-5.666v-9.542
		h-2.917v-3.833h2.917V67.24L237.427,66.032z"/>
	<path class="st0" d="M265.381,92.114l-0.334-2.25h-0.125c-1.25,1.583-3.375,2.708-6,2.708c-4.083,0-6.375-2.959-6.375-6.041
		c0-5.125,4.542-7.709,12.041-7.667v-0.333c0-1.333-0.541-3.542-4.125-3.542c-2,0-4.084,0.625-5.458,1.501l-1-3.333
		c1.5-0.917,4.125-1.792,7.333-1.792c6.5,0,8.375,4.125,8.375,8.542v7.333c0,1.833,0.084,3.624,0.292,4.875H265.381z
		 M264.714,82.198c-3.625-0.083-7.083,0.708-7.083,3.792c0,2,1.292,2.916,2.917,2.916c2.042,0,3.542-1.333,4-2.791
		c0.125-0.375,0.167-0.791,0.167-1.125V82.198z"/>
	<path class="st0" d="M164.926,111.589l3.292,10.291c0.583,1.792,1,3.416,1.375,5.084h0.125c0.375-1.667,0.834-3.25,1.375-5.084
		l3.208-10.291h5.416l-7.75,20.291h-5.041l-7.542-20.291H164.926z"/>
	<path class="st0" d="M187.881,105.922c0,1.541-1.125,2.75-2.917,2.75c-1.708,0-2.833-1.208-2.833-2.75
		c0-1.583,1.167-2.791,2.875-2.791C186.755,103.131,187.839,104.339,187.881,105.922z M182.422,131.88v-20.291h5.167v20.291H182.422
		z"/>
	<path class="st0" d="M211.378,102.298v23.874c0,2.084,0.084,4.334,0.167,5.709h-4.583l-0.208-3.208h-0.083
		c-1.208,2.251-3.667,3.667-6.625,3.667c-4.833,0-8.666-4.126-8.666-10.375c-0.042-6.791,4.208-10.833,9.083-10.833
		c2.791,0,4.791,1.167,5.708,2.667h0.083v-11.499H211.378z M206.253,120.047c0-0.416-0.042-0.916-0.125-1.333
		c-0.459-2-2.084-3.624-4.417-3.624c-3.291,0-5.125,2.916-5.125,6.708c0,3.708,1.834,6.416,5.083,6.416
		c2.084,0,3.917-1.417,4.416-3.624c0.125-0.459,0.167-0.958,0.167-1.5V120.047z"/>
	<path class="st0" d="M220.082,123.172c0.125,3.666,3,5.25,6.25,5.25c2.375,0,4.083-0.334,5.625-0.917l0.75,3.542
		c-1.75,0.708-4.166,1.25-7.083,1.25c-6.583,0-10.458-4.041-10.458-10.25c0-5.624,3.417-10.916,9.917-10.916
		c6.583,0,8.75,5.416,8.75,9.875c0,0.958-0.083,1.708-0.166,2.166H220.082z M228.999,119.589c0.042-1.875-0.792-4.959-4.208-4.959
		c-3.166,0-4.5,2.875-4.708,4.959H228.999z"/>
	<path class="st0" d="M256.828,121.546c0,7.459-5.25,10.792-10.416,10.792c-5.75,0-10.167-3.958-10.167-10.458
		c0-6.666,4.375-10.75,10.5-10.75C252.786,111.131,256.828,115.38,256.828,121.546z M241.536,121.755
		c0,3.917,1.917,6.875,5.041,6.875c2.917,0,4.958-2.875,4.958-6.958c0-3.167-1.417-6.792-4.917-6.792
		C242.995,114.88,241.536,118.381,241.536,121.755z"/>
	<path class="st0" d="M283.738,131.255c-1.083,0.5-3.208,1.042-5.75,1.042c-6.333,0-10.458-4.041-10.458-10.333
		c0-6.083,4.167-10.833,11.291-10.833c1.875,0,3.792,0.417,4.958,0.958l-0.917,3.833c-0.833-0.374-2.042-0.791-3.875-0.791
		c-3.917,0-6.25,2.875-6.208,6.583c0,4.166,2.708,6.542,6.208,6.542c1.791,0,3.042-0.375,4.042-0.792L283.738,131.255z"/>
	<path class="st0" d="M287.11,102.298h5.167v12.083h0.083c0.625-0.959,1.458-1.75,2.542-2.334c1-0.583,2.208-0.916,3.5-0.916
		c3.459,0,7.083,2.291,7.083,8.791v11.958h-5.125v-11.375c0-2.959-1.083-5.167-3.917-5.167c-2,0-3.416,1.333-3.958,2.876
		c-0.166,0.416-0.208,0.958-0.208,1.541v12.124h-5.167V102.298z"/>
	<path class="st0" d="M321.939,131.88l-0.334-2.25h-0.125c-1.25,1.583-3.375,2.708-6,2.708c-4.083,0-6.375-2.959-6.375-6.041
		c0-5.125,4.542-7.709,12.041-7.667v-0.333c0-1.333-0.541-3.542-4.125-3.542c-2,0-4.084,0.625-5.458,1.501l-1-3.333
		c1.5-0.917,4.125-1.792,7.333-1.792c6.5,0,8.375,4.125,8.375,8.542v7.333c0,1.833,0.084,3.624,0.292,4.875H321.939z
		 M321.272,121.963c-3.625-0.083-7.083,0.708-7.083,3.792c0,2,1.292,2.916,2.917,2.916c2.042,0,3.542-1.333,4-2.791
		c0.125-0.375,0.167-0.791,0.167-1.125V121.963z"/>
	<path class="st0" d="M336.893,105.797v5.792h4.875v3.833h-4.875v8.959c0,2.458,0.667,3.749,2.625,3.749c0.875,0,1.541-0.125,2-0.25
		l0.083,3.917c-0.75,0.291-2.083,0.5-3.708,0.5c-1.875,0-3.459-0.625-4.416-1.667c-1.084-1.167-1.583-2.999-1.583-5.666v-9.542
		h-2.917v-3.833h2.917v-4.583L336.893,105.797z"/>
	<path class="st0" d="M587.5,81.79c1.666,0.958,4.166,1.791,6.791,1.791c3.292,0,5.125-1.541,5.125-3.833
		c0-2.126-1.417-3.375-5-4.667c-4.625-1.667-7.583-4.126-7.583-8.167c0-4.583,3.833-8.083,9.916-8.083
		c3.042,0,5.292,0.667,6.75,1.417l-1.25,4.126c-1-0.542-2.958-1.333-5.583-1.333c-3.25,0-4.667,1.749-4.667,3.375
		c0,2.166,1.625,3.166,5.375,4.625c4.875,1.833,7.25,4.291,7.25,8.333c0,4.5-3.416,8.417-10.666,8.417
		c-2.958,0-6.041-0.834-7.583-1.75L587.5,81.79z"/>
	<path class="st0" d="M608.496,57.79h5.167v12.083h0.083c0.625-0.959,1.458-1.75,2.542-2.334c1-0.583,2.208-0.916,3.5-0.916
		c3.458,0,7.083,2.291,7.083,8.791v11.958h-5.125V75.998c0-2.959-1.083-5.167-3.917-5.167c-2,0-3.416,1.333-3.958,2.876
		c-0.166,0.416-0.208,0.958-0.208,1.541v12.124h-5.167V57.79z"/>
	<path class="st0" d="M651.199,77.039c0,7.459-5.25,10.792-10.416,10.792c-5.75,0-10.167-3.958-10.167-10.458
		c0-6.666,4.375-10.75,10.5-10.75C647.158,66.623,651.199,70.873,651.199,77.039z M635.908,77.248c0,3.917,1.917,6.875,5.042,6.875
		c2.917,0,4.958-2.875,4.958-6.958c0-3.167-1.417-6.792-4.916-6.792C637.367,70.373,635.908,73.873,635.908,77.248z"/>
	<path class="st0" d="M657.738,67.082l2.125,9.207c0.458,2.167,0.917,4.375,1.292,6.583h0.083c0.417-2.208,1.083-4.458,1.667-6.542
		l2.625-9.249h4.166l2.542,8.999c0.625,2.375,1.166,4.583,1.625,6.791h0.083c0.333-2.208,0.791-4.416,1.333-6.791l2.25-8.999h5.042
		l-6.375,20.291h-4.75l-2.417-8.249c-0.625-2.126-1.083-4.041-1.541-6.5h-0.084c-0.417,2.5-0.958,4.5-1.541,6.5l-2.583,8.249h-4.791
		l-6-20.291H657.738z"/>
	<path class="st0" d="M711.813,81.289c0,2.416,0.083,4.417,0.166,6.083h-4.5l-0.25-3.084h-0.083c-0.875,1.459-2.875,3.542-6.5,3.542
		c-3.708,0-7.083-2.209-7.083-8.834V67.082h5.125v11.041c0,3.375,1.084,5.541,3.792,5.541c2.042,0,3.375-1.458,3.916-2.75
		c0.167-0.458,0.292-1,0.292-1.583V67.082h5.125V81.289z"/>
	<path class="st0" d="M716.683,82.664c1.167,0.708,3.375,1.458,5.208,1.458c2.25,0,3.25-0.916,3.25-2.25
		c0-1.375-0.833-2.083-3.333-2.959c-3.958-1.375-5.625-3.541-5.583-5.917c0-3.583,2.958-6.374,7.666-6.374
		c2.25,0,4.208,0.583,5.375,1.208l-1,3.624c-0.875-0.5-2.5-1.167-4.292-1.167c-1.833,0-2.833,0.876-2.833,2.126
		c0,1.292,0.958,1.916,3.541,2.833c3.667,1.333,5.375,3.208,5.417,6.208c0,3.667-2.875,6.334-8.25,6.334
		c-2.458,0-4.667-0.583-6.166-1.417L716.683,82.664z"/>
	<path class="st0" d="M592.961,106.848l3.667,10.874c0.417,1.25,0.833,2.791,1.125,3.958h0.125c0.333-1.167,0.708-2.667,1.083-4
		l3.166-10.833h5.5l-5.083,13.832c-2.792,7.584-4.667,10.959-7.083,13.042c-2,1.792-4.083,2.459-5.375,2.625l-1.166-4.334
		c0.875-0.208,1.958-0.667,3-1.417c0.958-0.625,2.083-1.834,2.791-3.208c0.208-0.374,0.333-0.667,0.333-0.916
		c0-0.208-0.042-0.5-0.292-1l-7.416-18.625H592.961z"/>
	<path class="st0" d="M628.916,116.805c0,7.459-5.25,10.792-10.416,10.792c-5.75,0-10.167-3.958-10.167-10.458
		c0-6.666,4.375-10.75,10.5-10.75C624.874,106.389,628.916,110.639,628.916,116.805z M613.624,117.014
		c0,3.917,1.917,6.875,5.042,6.875c2.917,0,4.958-2.875,4.958-6.958c0-3.167-1.417-6.792-4.916-6.792
		C615.083,110.138,613.624,113.639,613.624,117.014z"/>
	<path class="st0" d="M650.87,121.055c0,2.416,0.083,4.417,0.166,6.083h-4.5l-0.25-3.084h-0.083c-0.875,1.459-2.875,3.542-6.5,3.542
		c-3.708,0-7.083-2.209-7.083-8.834v-11.916h5.125v11.041c0,3.375,1.084,5.541,3.792,5.541c2.042,0,3.375-1.458,3.916-2.75
		c0.167-0.458,0.292-1,0.292-1.583v-12.249h5.125V121.055z"/>
	<path class="st0" d="M655.991,113.388c0-2.75-0.042-4.708-0.166-6.541h4.458l0.167,3.874h0.166c1-2.875,3.375-4.333,5.542-4.333
		c0.5,0,0.792,0.042,1.208,0.125v4.833c-0.417-0.083-0.875-0.166-1.5-0.166c-2.458,0-4.125,1.583-4.583,3.875
		c-0.083,0.459-0.166,1-0.166,1.583v10.5h-5.125V113.388z"/>
	<path class="st0" d="M684.069,101.181c0,1.541-1.125,2.75-2.917,2.75c-1.708,0-2.833-1.208-2.833-2.75
		c0-1.583,1.167-2.791,2.875-2.791C682.944,98.389,684.027,99.598,684.069,101.181z M678.61,127.138v-20.291h5.167v20.291H678.61z"
		/>
	<path class="st0" d="M694.733,101.056v5.792h4.875v3.833h-4.875v8.959c0,2.458,0.667,3.749,2.625,3.749c0.875,0,1.541-0.125,2-0.25
		l0.083,3.917c-0.75,0.291-2.083,0.5-3.708,0.5c-1.875,0-3.458-0.625-4.416-1.667c-1.084-1.167-1.583-2.999-1.583-5.666v-9.542
		h-2.917v-3.833h2.917v-4.583L694.733,101.056z"/>
	<path class="st0" d="M706.44,118.43c0.125,3.666,3,5.25,6.25,5.25c2.375,0,4.083-0.334,5.625-0.917l0.75,3.542
		c-1.75,0.708-4.167,1.25-7.083,1.25c-6.583,0-10.458-4.041-10.458-10.25c0-5.624,3.417-10.916,9.917-10.916
		c6.583,0,8.75,5.416,8.75,9.875c0,0.958-0.083,1.708-0.166,2.166H706.44z M715.356,114.847c0.042-1.875-0.792-4.959-4.208-4.959
		c-3.166,0-4.5,2.875-4.708,4.959H715.356z"/>
	<path class="st0" d="M723.893,112.889c0-2.334-0.042-4.292-0.166-6.041h4.416l0.208,2.999h0.125c1-1.583,2.833-3.458,6.25-3.458
		c2.667,0,4.75,1.5,5.625,3.749h0.083c0.708-1.124,1.542-1.957,2.5-2.541c1.125-0.791,2.417-1.208,4.084-1.208
		c3.375,0,6.791,2.291,6.791,8.791v11.958h-5V115.93c0-3.375-1.167-5.375-3.625-5.375c-1.75,0-3.042,1.25-3.583,2.708
		c-0.125,0.5-0.25,1.125-0.25,1.709v12.166h-5v-11.75c0-2.833-1.125-4.833-3.5-4.833c-1.917,0-3.208,1.5-3.667,2.917
		c-0.208,0.499-0.292,1.083-0.292,1.666v12h-5V112.889z"/>
	<path class="st0" d="M758.554,122.43c1.166,0.708,3.375,1.458,5.208,1.458c2.25,0,3.25-0.916,3.25-2.25
		c0-1.375-0.834-2.083-3.333-2.959c-3.958-1.375-5.625-3.541-5.583-5.917c0-3.583,2.958-6.374,7.666-6.374
		c2.25,0,4.208,0.583,5.375,1.208l-1,3.624c-0.875-0.5-2.5-1.167-4.292-1.167c-1.833,0-2.833,0.876-2.833,2.126
		c0,1.292,0.958,1.916,3.542,2.833c3.666,1.333,5.375,3.208,5.416,6.208c0,3.667-2.875,6.334-8.25,6.334
		c-2.458,0-4.667-0.583-6.167-1.417L758.554,122.43z"/>
	<path class="st0" d="M1037.981,108.528c-1.792,0.667-5.291,1.583-9.041,1.583c-4.75,0-8.333-1.208-11-3.749
		c-2.5-2.375-3.958-6.083-3.916-10.334c0-8.874,6.333-14.583,15.624-14.583c3.458,0,6.167,0.708,7.458,1.333l-1.125,4.126
		c-1.541-0.667-3.417-1.208-6.375-1.208c-6,0-10.208,3.541-10.208,10.083c0,6.374,3.916,10.166,9.75,10.166
		c1.833,0,3.208-0.25,3.875-0.583v-6.999h-4.958V94.32h9.916V108.528z"/>
	<path class="st0" d="M1046.476,101.112c0.125,3.666,3,5.25,6.25,5.25c2.375,0,4.083-0.334,5.625-0.917l0.75,3.542
		c-1.75,0.708-4.166,1.25-7.083,1.25c-6.583,0-10.458-4.041-10.458-10.25c0-5.624,3.417-10.916,9.917-10.916
		c6.583,0,8.75,5.416,8.75,9.875c0,0.958-0.083,1.708-0.167,2.166H1046.476z M1055.392,97.529c0.042-1.875-0.792-4.959-4.208-4.959
		c-3.166,0-4.5,2.875-4.708,4.959H1055.392z"/>
	<path class="st0" d="M1069.805,83.737v5.792h4.875v3.833h-4.875v8.959c0,2.458,0.667,3.749,2.625,3.749c0.875,0,1.541-0.125,2-0.25
		l0.083,3.917c-0.75,0.291-2.083,0.5-3.708,0.5c-1.875,0-3.458-0.625-4.416-1.667c-1.084-1.167-1.583-2.999-1.583-5.666v-9.542
		h-2.917v-3.833h2.917v-4.583L1069.805,83.737z"/>
	<path class="st0" d="M1097.758,109.82l-0.333-2.25h-0.125c-1.25,1.583-3.375,2.708-6,2.708c-4.083,0-6.375-2.959-6.375-6.041
		c0-5.125,4.542-7.709,12.041-7.667v-0.333c0-1.333-0.542-3.542-4.125-3.542c-2,0-4.083,0.625-5.458,1.501l-1-3.333
		c1.5-0.917,4.125-1.792,7.333-1.792c6.5,0,8.375,4.125,8.375,8.542v7.333c0,1.833,0.083,3.624,0.291,4.875H1097.758z
		 M1097.092,99.903c-3.625-0.083-7.083,0.708-7.083,3.792c0,2,1.292,2.916,2.917,2.916c2.042,0,3.542-1.333,4-2.791
		c0.125-0.375,0.167-0.791,0.167-1.125V99.903z"/>
	<path class="st0" d="M1115.294,96.279c0-2.667-0.083-4.834-0.166-6.75h4.5l0.25,3.124h0.083c1.5-2.291,3.875-3.583,6.958-3.583
		c4.667,0,8.542,4,8.542,10.333c0,7.333-4.625,10.875-9.25,10.875c-2.542,0-4.667-1.084-5.708-2.708h-0.083v10.499h-5.125V96.279z
		 M1120.419,101.32c0,0.5,0.042,0.959,0.167,1.417c0.5,2.083,2.333,3.584,4.5,3.584c3.25,0,5.166-2.708,5.166-6.708
		c0-3.584-1.75-6.5-5.042-6.5c-2.125,0-4.083,1.541-4.583,3.792c-0.125,0.416-0.208,0.875-0.208,1.292V101.32z"/>
	<path class="st0" d="M1139.248,96.07c0-2.75-0.042-4.708-0.166-6.541h4.458l0.167,3.874h0.167c1-2.875,3.375-4.333,5.542-4.333
		c0.5,0,0.792,0.042,1.208,0.125v4.833c-0.417-0.083-0.875-0.166-1.5-0.166c-2.458,0-4.125,1.583-4.583,3.875
		c-0.083,0.459-0.166,1-0.166,1.583v10.5h-5.125V96.07z"/>
	<path class="st0" d="M1159.12,83.862c0,1.541-1.125,2.75-2.917,2.75c-1.708,0-2.833-1.208-2.833-2.75
		c0-1.583,1.167-2.791,2.875-2.791C1157.995,81.07,1159.079,82.279,1159.12,83.862z M1153.662,109.82V89.529h5.167v20.291H1153.662z
		"/>
	<path class="st0" d="M1178.826,109.194c-1.083,0.5-3.208,1.042-5.75,1.042c-6.333,0-10.458-4.041-10.458-10.333
		c0-6.083,4.167-10.833,11.291-10.833c1.875,0,3.792,0.417,4.958,0.958l-0.917,3.833c-0.833-0.374-2.042-0.791-3.875-0.791
		c-3.917,0-6.25,2.875-6.208,6.583c0,4.166,2.708,6.542,6.208,6.542c1.791,0,3.042-0.375,4.042-0.792L1178.826,109.194z"/>
	<path class="st0" d="M1185.449,101.112c0.125,3.666,3,5.25,6.25,5.25c2.375,0,4.083-0.334,5.625-0.917l0.75,3.542
		c-1.75,0.708-4.166,1.25-7.083,1.25c-6.583,0-10.458-4.041-10.458-10.25c0-5.624,3.417-10.916,9.917-10.916
		c6.583,0,8.75,5.416,8.75,9.875c0,0.958-0.083,1.708-0.166,2.166H1185.449z M1194.365,97.529c0.042-1.875-0.792-4.959-4.208-4.959
		c-3.166,0-4.5,2.875-4.708,4.959H1194.365z"/>
</g>
</svg>
