<?xml version="1.0" encoding="utf-8"?>
<!-- Generator: Adobe Illustrator 20.0.0, SVG Export Plug-In . SVG Version: 6.00 Build 0)  -->
<svg version="1.1" id="Layer_1" xmlns="http://www.w3.org/2000/svg" xmlns:xlink="http://www.w3.org/1999/xlink" x="0px" y="0px"
	 viewBox="0 0 596.1 166.4" style="enable-background:new 0 0 596.1 166.4;" xml:space="preserve">
<style type="text/css">
	
</style>
<g id="g11">
	<linearGradient id="SVGID_1_" gradientUnits="userSpaceOnUse" x1="298.0255" y1="3.5" x2="298.0255" y2="162.8519">
		<stop  offset="0.1824" style="stop-color:#BF2025"/>
		<stop  offset="0.8661" style="stop-color:#9C002F"/>
	</linearGradient>
	<path class="st0" d="M592.6,152.9c0,5.5-4.5,10-10,10H13.5c-5.5,0-10-4.5-10-10V13.5c0-5.5,4.5-10,10-10h569.1c5.5,0,10,4.5,10,10
		V152.9z"/>
	<path class="st1" d="M592.6,152.9c0,5.5-4.5,10-10,10H13.5c-5.5,0-10-4.5-10-10V13.5c0-5.5,4.5-10,10-10h569.1c5.5,0,10,4.5,10,10
		V152.9z"/>
</g>
<g>
	<path class="st2" d="M177.8,82.1v-5.4h14v12.8c-1.4,1.3-3.3,2.5-5.9,3.5s-5.2,1.5-7.8,1.5c-3.4,0-6.3-0.7-8.8-2.1
		c-2.5-1.4-4.4-3.4-5.6-6.1c-1.3-2.6-1.9-5.5-1.9-8.6c0-3.3,0.7-6.3,2.1-8.9s3.5-4.6,6.2-6c2.1-1.1,4.6-1.6,7.7-1.6
		c4,0,7.1,0.8,9.4,2.5c2.2,1.7,3.7,4,4.3,6.9l-6.4,1.2c-0.5-1.6-1.3-2.8-2.6-3.7c-1.2-0.9-2.8-1.4-4.7-1.4c-2.8,0-5.1,0.9-6.8,2.7
		c-1.7,1.8-2.5,4.5-2.5,8c0,3.8,0.8,6.7,2.5,8.6c1.7,1.9,3.9,2.9,6.7,2.9c1.4,0,2.7-0.3,4.1-0.8c1.4-0.5,2.5-1.2,3.5-1.9v-4.1H177.8
		z"/>
	<path class="st2" d="M200,93.9V61.8h23.8v5.4h-17.3v7.1h16.1v5.4h-16.1v8.7h18v5.4H200z"/>
	<path class="st2" d="M239.5,93.9V67.2h-9.5v-5.4h25.5v5.4h-9.5v26.7H239.5z"/>
	<path class="st2" d="M275,83.5l6.3-0.6c0.4,2.1,1.2,3.7,2.3,4.7c1.2,1,2.7,1.5,4.7,1.5c2.1,0,3.7-0.4,4.7-1.3s1.6-1.9,1.6-3.1
		c0-0.8-0.2-1.4-0.7-1.9c-0.4-0.5-1.2-1-2.3-1.4c-0.8-0.3-2.5-0.7-5.2-1.4c-3.5-0.9-5.9-1.9-7.3-3.2c-2-1.8-3-3.9-3-6.5
		c0-1.6,0.5-3.2,1.4-4.6c0.9-1.4,2.3-2.5,4-3.3c1.7-0.7,3.9-1.1,6.3-1.1c4,0,7.1,0.9,9.1,2.7c2,1.8,3.1,4.1,3.2,7.1l-6.5,0.3
		c-0.3-1.7-0.9-2.8-1.8-3.6c-0.9-0.7-2.3-1.1-4.1-1.1c-1.9,0-3.4,0.4-4.4,1.2c-0.7,0.5-1,1.2-1,2c0,0.8,0.3,1.4,1,2
		c0.8,0.7,2.8,1.4,6,2.1c3.2,0.7,5.5,1.5,7,2.3c1.5,0.8,2.7,1.9,3.6,3.3c0.9,1.4,1.3,3.1,1.3,5.1c0,1.8-0.5,3.6-1.5,5.2
		s-2.5,2.8-4.3,3.6s-4.2,1.2-7,1.2c-4.1,0-7.2-0.9-9.4-2.8S275.4,87.1,275,83.5z"/>
	<path class="st2" d="M316,93.9V67.2h-9.5v-5.4H332v5.4h-9.5v26.7H316z"/>
	<path class="st2" d="M367.4,93.9h-7.1l-2.8-7.3h-12.8l-2.7,7.3h-6.9l12.5-32.1h6.9L367.4,93.9z M355.5,81.2l-4.4-11.9l-4.3,11.9
		H355.5z"/>
	<path class="st2" d="M373.2,93.9V61.8h13.7c3.4,0,5.9,0.3,7.5,0.9c1.6,0.6,2.8,1.6,3.7,3.1c0.9,1.5,1.4,3.2,1.4,5.1
		c0,2.4-0.7,4.4-2.1,6c-1.4,1.6-3.5,2.6-6.4,3c1.4,0.8,2.6,1.7,3.5,2.7c0.9,1,2.1,2.7,3.7,5.2l3.9,6.3h-7.8l-4.7-7
		c-1.7-2.5-2.8-4.1-3.4-4.7c-0.6-0.6-1.3-1.1-2-1.3c-0.7-0.2-1.8-0.4-3.3-0.4h-1.3v13.4H373.2z M379.6,75.4h4.8
		c3.1,0,5.1-0.1,5.8-0.4c0.8-0.3,1.4-0.7,1.8-1.4c0.4-0.6,0.7-1.4,0.7-2.4c0-1.1-0.3-2-0.9-2.6c-0.6-0.7-1.4-1.1-2.4-1.3
		c-0.5-0.1-2.1-0.1-4.7-0.1h-5.1V75.4z"/>
	<path class="st2" d="M415,93.9V67.2h-9.5v-5.4H431v5.4h-9.5v26.7H415z"/>
	<path class="st2" d="M437.5,93.9V61.8h23.8v5.4H444v7.1h16.1v5.4H444v8.7h18v5.4H437.5z"/>
	<path class="st2" d="M469.6,61.8h11.9c2.7,0,4.7,0.2,6.1,0.6c1.9,0.6,3.5,1.5,4.8,3c1.3,1.4,2.4,3.2,3.1,5.2
		c0.7,2.1,1.1,4.6,1.1,7.6c0,2.6-0.3,4.9-1,6.8c-0.8,2.3-2,4.2-3.4,5.7c-1.1,1.1-2.6,2-4.6,2.6c-1.4,0.5-3.3,0.7-5.7,0.7h-12.2V61.8
		z M476.1,67.2v21.3h4.8c1.8,0,3.1-0.1,3.9-0.3c1.1-0.3,1.9-0.7,2.6-1.3c0.7-0.6,1.3-1.7,1.7-3.1c0.4-1.4,0.7-3.4,0.7-5.9
		c0-2.5-0.2-4.4-0.7-5.7c-0.4-1.3-1.1-2.4-1.8-3.1c-0.8-0.7-1.8-1.2-3-1.5c-0.9-0.2-2.7-0.3-5.3-0.3H476.1z"/>
	<g>
		<path class="st2" d="M122,46H91.6c-1.9,0-3.5,1.6-3.5,3.5v57.3c0,1.9,1.6,3.5,3.5,3.5H122c1.9,0,3.5-1.6,3.5-3.5V49.5
			C125.5,47.5,124,46,122,46 M124,106.8c0,1-0.9,1.9-1.9,1.9H91.6c-1,0-1.9-0.9-1.9-1.9V49.5c0-1,0.9-1.9,1.9-1.9H122
			c1,0,1.9,0.9,1.9,1.9V106.8z"/>
	</g>
	<g>
		<rect x="93.4" y="55.7" class="st2" width="26.9" height="40.3"/>
	</g>
	<g>
		<path class="st2" d="M106.8,100.5c-1.2,0-2.2,1-2.2,2.2c0,1.2,1,2.2,2.2,2.2c1.2,0,2.2-1,2.2-2.2
			C109.1,101.5,108.1,100.5,106.8,100.5"/>
	</g>
</g>
</svg>
