<?xml version="1.0" encoding="utf-8"?>
<!-- Generator: Adobe Illustrator 20.0.0, SVG Export Plug-In . SVG Version: 6.00 Build 0)  -->
<svg version="1.1" id="Layer_1" xmlns="http://www.w3.org/2000/svg" xmlns:xlink="http://www.w3.org/1999/xlink" x="0px" y="0px"
	 width="600px" height="300px" viewBox="0 0 600 261.344" style="enable-background:new 0 0 600 261.344;" xml:space="preserve"
	>
<style type="text/css">
	.st0{fill:;}
	.st1{fill-rule:evenodd;clip-rule:evenodd;fill:;}
	.st2{opacity:0.25;fill:#3B3B3B;}
	.st3{fill:#37414B;}
	.st4{fill:#010101;}
	.st5{fill:#251F20;}
	.st6{fill:none;stroke:#251F20;stroke-width:39;stroke-miterlimit:10;}
	.st7{fill:#070707;}
	.st8{fill:#FFFFFF;}
	.st9{opacity:0.37;fill:url(#SVGID_1_);}
	.st10{opacity:0.37;fill:url(#SVGID_2_);}
	.st11{opacity:0.37;fill:url(#SVGID_3_);}
	.st12{opacity:0.37;fill:url(#SVGID_4_);}
	.st13{opacity:0.37;fill:url(#SVGID_5_);}
	.st14{opacity:0.37;fill:url(#SVGID_6_);}
	.st15{fill:#DDEFF8;}
	.st16{opacity:0.2;fill:#231F20;}
	.st17{fill:#EFEFEF;}
	.st18{fill:#1D396A;}
	.st19{fill:#D5DBDB;}
	.st20{fill:#DDEFF8;stroke:#1D396A;stroke-width:2;stroke-miterlimit:10;}
	.st21{fill:#44C5E1;stroke:#1D396A;stroke-width:2;stroke-miterlimit:10;}
	.st22{fill:#44C5E1;stroke:#1D396A;stroke-width:2;stroke-linecap:round;stroke-miterlimit:10;}
	.st23{fill:url(#SVGID_7_);}
	.st24{fill:;}
	.st25{fill:#44C5E1;}
	.st26{fill:#FFFFFF;stroke:#1D396A;stroke-width:2;stroke-linecap:round;stroke-miterlimit:10;}
	.st27{fill:#D2D8D6;}
	.st28{fill:#EBF0F3;}
	.st29{fill:#F1F2F2;stroke:#1D396A;stroke-width:2;stroke-miterlimit:10;}
	.st30{fill:#F1F2F2;}
	.st31{fill:#FFFFFD;}
	.st32{fill:#D1D3D4;stroke:#1D396A;stroke-width:2;stroke-miterlimit:10;}
	.st33{fill:#D3CE24;stroke:#1D396A;stroke-width:2;stroke-miterlimit:10;}
	.st34{fill:#79B3D5;}
	.st35{fill:#26B898;}
	.st36{opacity:0.4;}
	.st37{fill:#231F20;}
	.st38{fill:#58595B;}
	.st39{clip-path:url(#SVGID_9_);fill:#FFFFFF;}
	.st40{clip-path:url(#SVGID_9_);fill:#FEFEFE;}
	.st41{clip-path:url(#SVGID_9_);fill:#FCFCFC;}
	.st42{clip-path:url(#SVGID_9_);fill:#FBFBFB;}
	.st43{clip-path:url(#SVGID_9_);fill:#FAFAFA;}
	.st44{clip-path:url(#SVGID_9_);fill:#F9F9F9;}
	.st45{clip-path:url(#SVGID_9_);fill:#F8F8F8;}
	.st46{clip-path:url(#SVGID_9_);fill:#F7F7F7;}
	.st47{clip-path:url(#SVGID_9_);fill:#F6F6F6;}
	.st48{clip-path:url(#SVGID_9_);fill:#F5F5F5;}
	.st49{clip-path:url(#SVGID_9_);fill:#F4F4F4;}
	.st50{clip-path:url(#SVGID_9_);fill:#F3F3F3;}
	.st51{clip-path:url(#SVGID_9_);fill:#F2F2F2;}
	.st52{clip-path:url(#SVGID_9_);fill:#F1F1F1;}
	.st53{clip-path:url(#SVGID_9_);fill:#F0F0F0;}
	.st54{clip-path:url(#SVGID_9_);fill:#EFEFEF;}
	.st55{clip-path:url(#SVGID_9_);fill:#EEEEEE;}
	.st56{clip-path:url(#SVGID_9_);fill:#EDEDED;}
	.st57{clip-path:url(#SVGID_9_);fill:#ECECEC;}
	.st58{clip-path:url(#SVGID_9_);fill:#EBEBEB;}
	.st59{clip-path:url(#SVGID_9_);fill:#EAEAEA;}
	.st60{clip-path:url(#SVGID_9_);fill:#E9E9E9;}
	.st61{clip-path:url(#SVGID_9_);fill:#E8E8E8;}
	.st62{clip-path:url(#SVGID_9_);fill:#E7E7E7;}
	.st63{clip-path:url(#SVGID_9_);fill:#E6E6E6;}
	.st64{clip-path:url(#SVGID_9_);fill:#E5E5E5;}
	.st65{clip-path:url(#SVGID_9_);fill:#E4E4E4;}
	.st66{clip-path:url(#SVGID_9_);fill:#E3E3E3;}
	.st67{clip-path:url(#SVGID_9_);fill:#E2E2E2;}
	.st68{clip-path:url(#SVGID_9_);fill:#E1E1E1;}
	.st69{clip-path:url(#SVGID_9_);fill:#E0E0E0;}
	.st70{clip-path:url(#SVGID_9_);fill:#DFDFDF;}
	.st71{clip-path:url(#SVGID_9_);fill:#DEDEDE;}
	.st72{clip-path:url(#SVGID_9_);fill:#DDDDDD;}
	.st73{clip-path:url(#SVGID_9_);fill:#DCDCDC;}
	.st74{clip-path:url(#SVGID_9_);fill:#DBDBDB;}
	.st75{clip-path:url(#SVGID_9_);fill:#DADADA;}
	.st76{clip-path:url(#SVGID_9_);fill:#D9D9D9;}
	.st77{clip-path:url(#SVGID_9_);fill:#D8D8D8;}
	.st78{clip-path:url(#SVGID_9_);fill:#D7D7D7;}
	.st79{clip-path:url(#SVGID_9_);fill:#D6D6D6;}
	.st80{clip-path:url(#SVGID_9_);fill:#D5D5D5;}
	.st81{clip-path:url(#SVGID_9_);fill:#D4D4D5;}
	.st82{clip-path:url(#SVGID_9_);fill:#D3D3D4;}
	.st83{clip-path:url(#SVGID_9_);fill:#D2D2D3;}
	.st84{clip-path:url(#SVGID_9_);fill:#D1D1D2;}
	.st85{clip-path:url(#SVGID_9_);fill:#D0D0D1;}
	.st86{clip-path:url(#SVGID_9_);fill:#CFCFD0;}
	.st87{clip-path:url(#SVGID_9_);fill:#CECECF;}
	.st88{clip-path:url(#SVGID_9_);fill:#CDCDCE;}
	.st89{clip-path:url(#SVGID_9_);fill:#CCCCCD;}
	.st90{clip-path:url(#SVGID_9_);fill:#CBCBCC;}
	.st91{clip-path:url(#SVGID_9_);fill:#CACACB;}
	.st92{clip-path:url(#SVGID_9_);fill:#C9C9CA;}
	.st93{clip-path:url(#SVGID_9_);fill:#C8C8C9;}
	.st94{clip-path:url(#SVGID_9_);fill:#C7C7C8;}
	.st95{clip-path:url(#SVGID_9_);fill:#C6C6C7;}
	.st96{clip-path:url(#SVGID_9_);fill:#C5C5C6;}
	.st97{clip-path:url(#SVGID_9_);fill:#C4C4C5;}
	.st98{clip-path:url(#SVGID_9_);fill:#C3C3C4;}
	.st99{clip-path:url(#SVGID_9_);fill:#C2C2C3;}
	.st100{clip-path:url(#SVGID_9_);fill:#C1C1C2;}
	.st101{clip-path:url(#SVGID_9_);fill:#C0C0C1;}
	.st102{clip-path:url(#SVGID_9_);fill:#BFBFC0;}
	.st103{clip-path:url(#SVGID_9_);fill:#BEBEBF;}
	.st104{clip-path:url(#SVGID_9_);fill:#BDBDBE;}
	.st105{clip-path:url(#SVGID_9_);fill:#BCBCBD;}
	.st106{clip-path:url(#SVGID_9_);fill:#BBBBBC;}
	.st107{clip-path:url(#SVGID_9_);fill:#BABABB;}
	.st108{clip-path:url(#SVGID_9_);fill:#B9B9BA;}
	.st109{clip-path:url(#SVGID_9_);fill:#B8B8B9;}
	.st110{clip-path:url(#SVGID_9_);fill:#B7B7B8;}
	.st111{clip-path:url(#SVGID_9_);fill:#B6B6B7;}
	.st112{clip-path:url(#SVGID_9_);fill:#B5B5B6;}
	.st113{clip-path:url(#SVGID_9_);fill:#B4B4B5;}
	.st114{clip-path:url(#SVGID_9_);fill:#B3B3B4;}
	.st115{clip-path:url(#SVGID_9_);fill:#B2B2B3;}
	.st116{clip-path:url(#SVGID_9_);fill:#B1B1B2;}
	.st117{clip-path:url(#SVGID_9_);fill:#B0B0B1;}
	.st118{clip-path:url(#SVGID_9_);fill:#AFAFB0;}
	.st119{clip-path:url(#SVGID_9_);fill:#ADAEAF;}
	.st120{clip-path:url(#SVGID_9_);fill:#ACADAE;}
	.st121{clip-path:url(#SVGID_9_);fill:#ABACAD;}
	.st122{clip-path:url(#SVGID_9_);fill:#AAABAC;}
	.st123{clip-path:url(#SVGID_9_);fill:#A9AAAB;}
	.st124{clip-path:url(#SVGID_9_);fill:#A8A9AA;}
	.st125{clip-path:url(#SVGID_9_);fill:#A7A8A9;}
	.st126{clip-path:url(#SVGID_9_);fill:#A6A7A8;}
	.st127{clip-path:url(#SVGID_9_);fill:#A5A6A7;}
	.st128{clip-path:url(#SVGID_9_);fill:#A4A5A6;}
	.st129{clip-path:url(#SVGID_9_);fill:#A3A4A5;}
	.st130{clip-path:url(#SVGID_9_);fill:#A2A3A4;}
	.st131{clip-path:url(#SVGID_9_);fill:#A1A2A3;}
	.st132{clip-path:url(#SVGID_9_);fill:#A0A1A2;}
	.st133{clip-path:url(#SVGID_9_);fill:#9FA0A1;}
	.st134{clip-path:url(#SVGID_9_);fill:#9E9FA0;}
	.st135{clip-path:url(#SVGID_9_);fill:#9D9E9F;}
	.st136{clip-path:url(#SVGID_9_);fill:#9C9D9E;}
	.st137{clip-path:url(#SVGID_9_);fill:#9B9C9D;}
	.st138{clip-path:url(#SVGID_9_);fill:#9A9B9C;}
	.st139{clip-path:url(#SVGID_9_);fill:#999A9B;}
	.st140{clip-path:url(#SVGID_9_);fill:#98999A;}
	.st141{clip-path:url(#SVGID_9_);fill:#979899;}
	.st142{clip-path:url(#SVGID_9_);fill:#969798;}
	.st143{clip-path:url(#SVGID_9_);fill:#959697;}
	.st144{clip-path:url(#SVGID_9_);fill:#949596;}
	.st145{clip-path:url(#SVGID_9_);fill:#939495;}
	.st146{clip-path:url(#SVGID_9_);fill:#929394;}
	.st147{clip-path:url(#SVGID_9_);fill:#919293;}
	.st148{clip-path:url(#SVGID_9_);fill:#909192;}
	.st149{clip-path:url(#SVGID_9_);fill:#8F9091;}
	.st150{clip-path:url(#SVGID_9_);fill:#8E8F90;}
	.st151{clip-path:url(#SVGID_9_);fill:#8D8E8F;}
	.st152{clip-path:url(#SVGID_9_);fill:#8C8D8E;}
	.st153{clip-path:url(#SVGID_9_);fill:#8B8C8D;}
	.st154{clip-path:url(#SVGID_9_);fill:#8A8B8C;}
	.st155{clip-path:url(#SVGID_9_);fill:#898A8B;}
	.st156{clip-path:url(#SVGID_9_);fill:#88898B;}
	.st157{clip-path:url(#SVGID_9_);fill:#87888A;}
	.st158{clip-path:url(#SVGID_9_);fill:#868789;}
	.st159{clip-path:url(#SVGID_9_);fill:#858688;}
	.st160{clip-path:url(#SVGID_9_);fill:#848587;}
	.st161{clip-path:url(#SVGID_9_);fill:#838486;}
	.st162{clip-path:url(#SVGID_9_);fill:#828385;}
	.st163{clip-path:url(#SVGID_9_);fill:#818284;}
	.st164{clip-path:url(#SVGID_9_);fill:#808183;}
	.st165{clip-path:url(#SVGID_9_);fill:#7F8082;}
	.st166{clip-path:url(#SVGID_9_);fill:#7E7F81;}
	.st167{clip-path:url(#SVGID_9_);fill:#7D7E80;}
	.st168{clip-path:url(#SVGID_9_);fill:#7C7D7F;}
	.st169{clip-path:url(#SVGID_9_);fill:#7B7C7E;}
	.st170{clip-path:url(#SVGID_9_);fill:#7A7B7D;}
	.st171{clip-path:url(#SVGID_9_);fill:#797A7C;}
	.st172{clip-path:url(#SVGID_9_);fill:#78797B;}
	.st173{clip-path:url(#SVGID_9_);fill:#77787A;}
	.st174{clip-path:url(#SVGID_9_);fill:#767779;}
	.st175{clip-path:url(#SVGID_9_);fill:#757678;}
	.st176{clip-path:url(#SVGID_9_);fill:#747577;}
	.st177{clip-path:url(#SVGID_9_);fill:#737476;}
	.st178{clip-path:url(#SVGID_9_);fill:#727375;}
	.st179{clip-path:url(#SVGID_9_);fill:#717274;}
	.st180{clip-path:url(#SVGID_9_);fill:#707173;}
	.st181{clip-path:url(#SVGID_9_);fill:#6F7072;}
	.st182{clip-path:url(#SVGID_9_);fill:#6E6F71;}
	.st183{clip-path:url(#SVGID_9_);fill:#6D6E70;}
	.st184{clip-path:url(#SVGID_9_);fill:#6C6D6F;}
	.st185{clip-path:url(#SVGID_9_);fill:#6B6C6E;}
	.st186{clip-path:url(#SVGID_9_);fill:#6A6B6D;}
	.st187{clip-path:url(#SVGID_9_);fill:#696A6C;}
	.st188{clip-path:url(#SVGID_9_);fill:#68696B;}
	.st189{clip-path:url(#SVGID_9_);fill:#67686A;}
	.st190{clip-path:url(#SVGID_9_);fill:#666769;}
	.st191{clip-path:url(#SVGID_9_);fill:#656668;}
	.st192{clip-path:url(#SVGID_9_);fill:#646567;}
	.st193{clip-path:url(#SVGID_9_);fill:#636466;}
	.st194{fill:#E2E2E2;}
	.st195{clip-path:url(#SVGID_11_);}
	.st196{fill:#FEFEFE;}
	.st197{fill:#FCFCFC;}
	.st198{fill:#FBFBFB;}
	.st199{fill:#FAFAFA;}
	.st200{fill:#F9F9F9;}
	.st201{fill:#F8F8F8;}
	.st202{fill:#F7F7F7;}
	.st203{fill:#F6F6F6;}
	.st204{fill:#F5F5F5;}
	.st205{fill:#F4F4F4;}
	.st206{fill:#F3F3F3;}
	.st207{fill:#F2F2F2;}
	.st208{fill:#F1F1F1;}
	.st209{fill:#F0F0F0;}
	.st210{fill:#EEEEEE;}
	.st211{fill:#EDEDED;}
	.st212{fill:#ECECEC;}
	.st213{fill:#EBEBEB;}
	.st214{fill:#EAEAEA;}
	.st215{fill:#E9E9E9;}
	.st216{fill:#E8E8E8;}
	.st217{fill:#E7E7E7;}
	.st218{fill:#E6E6E6;}
	.st219{fill:#E5E5E5;}
	.st220{fill:#E4E4E4;}
	.st221{fill:#E3E3E3;}
	.st222{fill:#E1E1E1;}
	.st223{fill:#E0E0E0;}
	.st224{fill:#DFDFDF;}
	.st225{fill:#DEDEDE;}
	.st226{fill:#DDDDDD;}
	.st227{fill:#DCDCDC;}
	.st228{fill:#DBDBDB;}
	.st229{fill:#DADADA;}
	.st230{fill:#D9D9D9;}
	.st231{fill:#D8D8D8;}
	.st232{fill:#D7D7D7;}
	.st233{fill:#D6D6D6;}
	.st234{fill:#D5D5D5;}
	.st235{fill:#D4D4D5;}
	.st236{fill:#D3D3D4;}
	.st237{fill:#D2D2D3;}
	.st238{fill:#D1D1D2;}
	.st239{fill:#D0D0D1;}
	.st240{fill:#CFCFD0;}
	.st241{fill:#CECECF;}
	.st242{fill:#CDCDCE;}
	.st243{fill:#CCCCCD;}
	.st244{fill:#CBCBCC;}
	.st245{fill:#CACACB;}
	.st246{fill:#C9C9CA;}
	.st247{fill:#C8C8C9;}
	.st248{fill:#C7C7C8;}
	.st249{fill:#C6C6C7;}
	.st250{fill:#C5C5C6;}
	.st251{fill:#C4C4C5;}
	.st252{fill:#C3C3C4;}
	.st253{fill:#C2C2C3;}
	.st254{fill:#C1C1C2;}
	.st255{fill:#C0C0C1;}
	.st256{fill:#BFBFC0;}
	.st257{fill:#BEBEBF;}
	.st258{fill:#BDBDBE;}
	.st259{fill:#BCBCBD;}
	.st260{fill:#BBBBBC;}
	.st261{fill:#BABABB;}
	.st262{fill:#B9B9BA;}
	.st263{fill:#B8B8B9;}
	.st264{fill:#B7B7B8;}
	.st265{fill:#B6B6B7;}
	.st266{fill:#B5B5B6;}
	.st267{fill:#B4B4B5;}
	.st268{fill:#B3B3B4;}
	.st269{fill:#B2B2B3;}
	.st270{fill:#B1B1B2;}
	.st271{fill:#B0B0B1;}
	.st272{fill:#AFAFB0;}
	.st273{fill:#ADAEAF;}
	.st274{fill:#ACADAE;}
	.st275{fill:#ABACAD;}
	.st276{fill:#AAABAC;}
	.st277{fill:#A9AAAB;}
	.st278{fill:#A8A9AA;}
	.st279{fill:#A7A8A9;}
	.st280{fill:#A6A7A8;}
	.st281{fill:#A5A6A7;}
	.st282{fill:#A4A5A6;}
	.st283{fill:#A3A4A5;}
	.st284{fill:#A2A3A4;}
	.st285{fill:#A1A2A3;}
	.st286{fill:#A0A1A2;}
	.st287{fill:#9FA0A1;}
	.st288{fill:#9E9FA0;}
	.st289{fill:#9D9E9F;}
	.st290{fill:#9C9D9E;}
	.st291{fill:#9B9C9D;}
	.st292{fill:#9A9B9C;}
	.st293{fill:#999A9B;}
	.st294{fill:#98999A;}
	.st295{fill:#979899;}
	.st296{fill:#969798;}
	.st297{fill:#959697;}
	.st298{fill:#949596;}
	.st299{fill:#939495;}
	.st300{fill:#929394;}
	.st301{fill:#919293;}
	.st302{fill:#909192;}
	.st303{fill:#8F9091;}
	.st304{fill:#8E8F90;}
	.st305{fill:#8D8E8F;}
	.st306{fill:#8C8D8E;}
	.st307{fill:#8B8C8D;}
	.st308{fill:#8A8B8C;}
	.st309{fill:#898A8B;}
	.st310{fill:#88898B;}
	.st311{fill:#87888A;}
	.st312{fill:#868789;}
	.st313{fill:#858688;}
	.st314{fill:#848587;}
	.st315{fill:#838486;}
	.st316{fill:#828385;}
	.st317{fill:#818284;}
	.st318{fill:#808183;}
	.st319{fill:#7F8082;}
	.st320{fill:#7E7F81;}
	.st321{fill:#7D7E80;}
	.st322{fill:#7C7D7F;}
	.st323{fill:#7B7C7E;}
	.st324{fill:#7A7B7D;}
	.st325{fill:#797A7C;}
	.st326{fill:#78797B;}
	.st327{fill:#77787A;}
	.st328{fill:#767779;}
	.st329{fill:#757678;}
	.st330{fill:#747577;}
	.st331{fill:#737476;}
	.st332{fill:#727375;}
	.st333{fill:#717274;}
	.st334{fill:#707173;}
	.st335{fill:#6F7072;}
	.st336{fill:#6E6F71;}
	.st337{fill:#6D6E70;}
	.st338{fill:#6C6D6F;}
	.st339{fill:#6B6C6E;}
	.st340{fill:#6A6B6D;}
	.st341{fill:#696A6C;}
	.st342{fill:#68696B;}
	.st343{fill:#67686A;}
	.st344{fill:#666769;}
	.st345{fill:#656668;}
	.st346{fill:#646567;}
	.st347{fill:#636466;}
	.st348{opacity:0.6;}
	.st349{opacity:0.2;}
	.st350{fill:#FECE8C;}
	.st351{fill:#DD8D24;}
	.st352{opacity:0.3;}
	.st353{fill:#F4EDED;}
	.st354{fill:#A05F10;}
	.st355{fill:#FFCE43;}
	.st356{fill:#FF9900;}
	.st357{fill:#FFC306;}
	.st358{fill:#7A471F;}
	.st359{fill:#DD9F76;}
	.st360{fill:#E6E7E8;}
	.st361{fill:#BCBEC0;}
	.st362{fill:#D1D3D4;}
	.st363{clip-path:url(#SVGID_13_);}
	.st364{fill:#FDFDFD;}
	.st365{fill:#D4D4D4;}
	.st366{fill:#D3D3D3;}
	.st367{fill:#D2D2D2;}
	.st368{fill:#D1D1D1;}
	.st369{fill:#D0D0D0;}
	.st370{fill:#CFCFCF;}
	.st371{fill:#CECECE;}
	.st372{fill:#CDCDCD;}
	.st373{fill:#CCCCCC;}
	.st374{fill:#CBCBCB;}
	.st375{fill:#CACACA;}
	.st376{fill:#CAC9C9;}
	.st377{fill:#C9C7C7;}
	.st378{fill:#C8C6C6;}
	.st379{fill:#C7C5C5;}
	.st380{fill:#C6C4C4;}
	.st381{fill:#C5C3C3;}
	.st382{fill:#C4C2C2;}
	.st383{fill:#C3C1C1;}
	.st384{fill:#C2C0C0;}
	.st385{fill:#C1BFBF;}
	.st386{fill:#C0BEBE;}
	.st387{fill:#BFBDBD;}
	.st388{fill:#BEBCBC;}
	.st389{fill:#BDBBBB;}
	.st390{fill:#BCBABA;}
	.st391{fill:#BBB9B9;}
	.st392{fill:#BAB8B8;}
	.st393{fill:#B9B7B7;}
	.st394{fill:#B8B6B6;}
	.st395{fill:#B7B5B5;}
	.st396{fill:#B6B4B4;}
	.st397{fill:#B5B3B3;}
	.st398{fill:#B4B2B2;}
	.st399{fill:#B3B1B1;}
	.st400{fill:#B2B0B0;}
	.st401{fill:#B1AFAF;}
	.st402{fill:#B0AEAE;}
	.st403{fill:#AFADAD;}
	.st404{fill:#AEACAC;}
	.st405{fill:#ADABAB;}
	.st406{fill:#ACAAAA;}
	.st407{fill:#ABA9A9;}
	.st408{fill:#AAA8A8;}
	.st409{fill:#A9A7A7;}
	.st410{fill:#A8A6A6;}
	.st411{fill:#A7A5A5;}
	.st412{fill:#A6A4A4;}
	.st413{fill:#A5A3A3;}
	.st414{fill:#A4A2A2;}
	.st415{fill:#A3A1A1;}
	.st416{fill:#A2A0A0;}
	.st417{fill:#A19F9F;}
	.st418{fill:#A09E9E;}
	.st419{fill:#9F9D9D;}
	.st420{fill:#9E9C9C;}
	.st421{fill:#9D9B9B;}
	.st422{fill:#9C9A9A;}
	.st423{fill:#9B9999;}
	.st424{fill:#9A9898;}
	.st425{fill:#999797;}
	.st426{fill:#989696;}
	.st427{fill:#979595;}
	.st428{fill:#969494;}
	.st429{fill:#959393;}
	.st430{fill:#949292;}
	.st431{fill:#5E5E5E;}
	.st432{clip-path:url(#SVGID_15_);}
	.st433{fill:#C9C9C9;}
	.st434{fill:#C8C8C8;}
	.st435{fill:#C7C7C7;}
	.st436{fill:#C6C6C6;}
	.st437{fill:#C5C5C5;}
	.st438{fill:#939191;}
	.st439{fill:#929090;}
	.st440{fill:#918F8F;}
	.st441{fill:#908E8E;}
	.st442{fill:#8F8D8D;}
	.st443{fill:#8E8C8C;}
	.st444{fill:#8D8B8B;}
	.st445{fill:#8C8A8A;}
	.st446{fill:#8B8989;}
	.st447{clip-path:url(#SVGID_17_);}
	.st448{clip-path:url(#SVGID_19_);}
	.st449{clip-path:url(#SVGID_21_);}
	.st450{clip-path:url(#SVGID_23_);}
	.st451{fill:#A4A3A3;}
	.st452{fill:#A3A2A2;}
	.st453{fill:#A2A1A1;}
	.st454{fill:#A1A0A0;}
	.st455{fill:#A09F9F;}
	.st456{fill:#9F9E9E;}
	.st457{fill:#9E9D9D;}
	.st458{fill:#9D9C9C;}
	.st459{fill:#9C9B9B;}
	.st460{fill:#9B9A9A;}
	.st461{fill:#9A9999;}
	.st462{fill:#999898;}
	.st463{fill:#989797;}
	.st464{fill:#979697;}
	.st465{fill:#969596;}
	.st466{fill:#959495;}
	.st467{fill:#949394;}
	.st468{fill:#939293;}
	.st469{fill:#929192;}
	.st470{fill:#919091;}
	.st471{fill:#908F90;}
	.st472{fill:#8F8E8F;}
	.st473{fill:#8E8D8E;}
	.st474{fill:#8D8C8D;}
	.st475{fill:#8C8B8C;}
	.st476{fill:#8B8A8B;}
	.st477{fill:#8A898A;}
	.st478{fill:#898889;}
	.st479{fill:#888788;}
	.st480{fill:#878687;}
	.st481{fill:#868586;}
	.st482{fill:#858485;}
	.st483{fill:#848384;}
	.st484{fill:#838283;}
	.st485{fill:#828182;}
	.st486{fill:#818081;}
	.st487{fill:#807F80;}
	.st488{fill:#7F7E7F;}
	.st489{fill:#7D7E7F;}
	.st490{fill:#7C7D7E;}
	.st491{fill:#7B7C7D;}
	.st492{fill:#7A7B7C;}
	.st493{fill:#797A7B;}
	.st494{fill:#78797A;}
	.st495{fill:#777879;}
	.st496{fill:#767778;}
	.st497{fill:#757677;}
	.st498{fill:#747576;}
	.st499{fill:#737475;}
	.st500{fill:#727374;}
	.st501{fill:#717273;}
	.st502{fill:#707172;}
	.st503{fill:#6F7071;}
	.st504{fill:#6E6F70;}
	.st505{fill:#6D6E6F;}
	.st506{fill:#6C6D6E;}
	.st507{fill:#6B6C6D;}
	.st508{fill:#6A6B6C;}
	.st509{fill:#696A6B;}
	.st510{fill:#68696A;}
	.st511{fill:#676869;}
	.st512{fill:#666768;}
	.st513{fill:#656667;}
	.st514{fill:#626365;}
	.st515{fill:#616264;}
	.st516{fill:#606163;}
	.st517{fill:#5F6062;}
	.st518{fill:#5E5F61;}
	.st519{fill:#5D5E60;}
	.st520{fill:#5C5D5F;}
	.st521{fill:#5B5C5E;}
	.st522{fill:#5A5B5D;}
	.st523{fill:#595A5C;}
	.st524{fill:#F15D4E;}
	.st525{clip-path:url(#SVGID_25_);fill:#A4A3A3;}
	.st526{clip-path:url(#SVGID_25_);fill:#A3A2A2;}
	.st527{clip-path:url(#SVGID_25_);fill:#A2A1A1;}
	.st528{clip-path:url(#SVGID_25_);fill:#A1A0A0;}
	.st529{clip-path:url(#SVGID_25_);fill:#A09F9F;}
	.st530{clip-path:url(#SVGID_25_);fill:#9F9E9E;}
	.st531{clip-path:url(#SVGID_25_);fill:#9E9D9D;}
	.st532{clip-path:url(#SVGID_25_);fill:#9D9C9C;}
	.st533{clip-path:url(#SVGID_25_);fill:#9C9B9B;}
	.st534{clip-path:url(#SVGID_25_);fill:#9B9A9A;}
	.st535{clip-path:url(#SVGID_25_);fill:#9A9999;}
	.st536{clip-path:url(#SVGID_25_);fill:#999898;}
	.st537{clip-path:url(#SVGID_25_);fill:#989797;}
	.st538{clip-path:url(#SVGID_25_);fill:#979697;}
	.st539{clip-path:url(#SVGID_25_);fill:#969596;}
	.st540{clip-path:url(#SVGID_25_);fill:#959495;}
	.st541{clip-path:url(#SVGID_25_);fill:#949394;}
	.st542{clip-path:url(#SVGID_25_);fill:#939293;}
	.st543{clip-path:url(#SVGID_25_);fill:#929192;}
	.st544{clip-path:url(#SVGID_25_);fill:#919091;}
	.st545{clip-path:url(#SVGID_25_);fill:#908F90;}
	.st546{clip-path:url(#SVGID_25_);fill:#8F8E8F;}
	.st547{clip-path:url(#SVGID_25_);fill:#8E8D8E;}
	.st548{clip-path:url(#SVGID_25_);fill:#8D8C8D;}
	.st549{clip-path:url(#SVGID_25_);fill:#8C8B8C;}
	.st550{clip-path:url(#SVGID_25_);fill:#8B8A8B;}
	.st551{clip-path:url(#SVGID_25_);fill:#8A898A;}
	.st552{clip-path:url(#SVGID_25_);fill:#898889;}
	.st553{clip-path:url(#SVGID_25_);fill:#888788;}
	.st554{clip-path:url(#SVGID_25_);fill:#878687;}
	.st555{clip-path:url(#SVGID_25_);fill:#868586;}
	.st556{clip-path:url(#SVGID_25_);fill:#858485;}
	.st557{clip-path:url(#SVGID_25_);fill:#848384;}
	.st558{clip-path:url(#SVGID_25_);fill:#838283;}
	.st559{clip-path:url(#SVGID_25_);fill:#828182;}
	.st560{clip-path:url(#SVGID_25_);fill:#818081;}
	.st561{clip-path:url(#SVGID_25_);fill:#807F80;}
	.st562{clip-path:url(#SVGID_25_);fill:#7F7E7F;}
	.st563{clip-path:url(#SVGID_25_);fill:#7D7E7F;}
	.st564{clip-path:url(#SVGID_25_);fill:#7C7D7E;}
	.st565{clip-path:url(#SVGID_25_);fill:#7B7C7D;}
	.st566{clip-path:url(#SVGID_25_);fill:#7A7B7C;}
	.st567{clip-path:url(#SVGID_25_);fill:#797A7B;}
	.st568{clip-path:url(#SVGID_25_);fill:#78797A;}
	.st569{clip-path:url(#SVGID_25_);fill:#777879;}
	.st570{clip-path:url(#SVGID_25_);fill:#767778;}
	.st571{clip-path:url(#SVGID_25_);fill:#757677;}
	.st572{clip-path:url(#SVGID_25_);fill:#747576;}
	.st573{clip-path:url(#SVGID_25_);fill:#737475;}
	.st574{clip-path:url(#SVGID_25_);fill:#727374;}
	.st575{clip-path:url(#SVGID_25_);fill:#717273;}
	.st576{clip-path:url(#SVGID_25_);fill:#707172;}
	.st577{clip-path:url(#SVGID_25_);fill:#6F7071;}
	.st578{clip-path:url(#SVGID_25_);fill:#6E6F70;}
	.st579{clip-path:url(#SVGID_25_);fill:#6D6E6F;}
	.st580{clip-path:url(#SVGID_25_);fill:#6C6D6E;}
	.st581{clip-path:url(#SVGID_25_);fill:#6B6C6D;}
	.st582{clip-path:url(#SVGID_25_);fill:#6A6B6C;}
	.st583{clip-path:url(#SVGID_25_);fill:#696A6B;}
	.st584{clip-path:url(#SVGID_25_);fill:#68696A;}
	.st585{clip-path:url(#SVGID_25_);fill:#676869;}
	.st586{clip-path:url(#SVGID_25_);fill:#666768;}
	.st587{clip-path:url(#SVGID_25_);fill:#656667;}
	.st588{clip-path:url(#SVGID_25_);fill:#646567;}
	.st589{clip-path:url(#SVGID_25_);fill:#636466;}
	.st590{clip-path:url(#SVGID_25_);fill:#626365;}
	.st591{clip-path:url(#SVGID_25_);fill:#616264;}
	.st592{clip-path:url(#SVGID_25_);fill:#606163;}
	.st593{clip-path:url(#SVGID_25_);fill:#5F6062;}
	.st594{clip-path:url(#SVGID_25_);fill:#5E5F61;}
	.st595{clip-path:url(#SVGID_25_);fill:#5D5E60;}
	.st596{clip-path:url(#SVGID_25_);fill:#5C5D5F;}
	.st597{clip-path:url(#SVGID_25_);fill:#5B5C5E;}
	.st598{clip-path:url(#SVGID_25_);fill:#5A5B5D;}
	.st599{clip-path:url(#SVGID_25_);fill:#595A5C;}
	.st600{clip-path:url(#SVGID_25_);fill:#58595B;}
	.st601{clip-path:url(#SVGID_27_);}
	.st602{clip-path:url(#SVGID_29_);}
	.st603{clip-path:url(#SVGID_31_);}
	.st604{clip-path:url(#SVGID_33_);}
	.st605{clip-path:url(#SVGID_35_);}
	.st606{fill:;}
	.st607{fill:;}
	.st608{fill:#2F4955;}
	.st609{fill:#021A36;}
	.st610{opacity:0.44;fill:#231F20;}
	.st611{fill:#E2EAED;}
	.st612{fill:#3E516A;}
	.st613{fill:#2B3D51;}
	.st614{fill:#0A2847;}
	.st615{fill:#A0A4A7;}
	.st616{fill:#797D82;}
	.st617{fill:#E0DADB;}
	.st618{fill:#F04836;}
	.st619{fill:#011F3A;}
	.st620{fill:#939598;}
	.st621{fill:#6D6E71;}
	.st622{clip-path:url(#SVGID_37_);fill:#FFFFFF;}
	.st623{clip-path:url(#SVGID_37_);fill:#FEFEFE;}
	.st624{clip-path:url(#SVGID_37_);fill:#FDFDFD;}
	.st625{clip-path:url(#SVGID_37_);fill:#FCFCFC;}
	.st626{clip-path:url(#SVGID_37_);fill:#FBFBFB;}
	.st627{clip-path:url(#SVGID_37_);fill:#FAFAFA;}
	.st628{clip-path:url(#SVGID_37_);fill:#F9F9F9;}
	.st629{clip-path:url(#SVGID_37_);fill:#F8F8F8;}
	.st630{clip-path:url(#SVGID_37_);fill:#F7F7F7;}
	.st631{clip-path:url(#SVGID_37_);fill:#F6F6F6;}
	.st632{clip-path:url(#SVGID_37_);fill:#F5F5F5;}
	.st633{clip-path:url(#SVGID_37_);fill:#F4F4F4;}
	.st634{clip-path:url(#SVGID_37_);fill:#F3F3F3;}
	.st635{clip-path:url(#SVGID_37_);fill:#F2F2F2;}
	.st636{clip-path:url(#SVGID_37_);fill:#F1F1F1;}
	.st637{clip-path:url(#SVGID_37_);fill:#F0F0F0;}
	.st638{clip-path:url(#SVGID_37_);fill:#EFEFEF;}
	.st639{clip-path:url(#SVGID_37_);fill:#EEEEEE;}
	.st640{clip-path:url(#SVGID_37_);fill:#EDEDED;}
	.st641{clip-path:url(#SVGID_37_);fill:#ECECEC;}
	.st642{clip-path:url(#SVGID_37_);fill:#EBEBEB;}
	.st643{clip-path:url(#SVGID_37_);fill:#EAEAEA;}
	.st644{clip-path:url(#SVGID_37_);fill:#E9E9E9;}
	.st645{clip-path:url(#SVGID_37_);fill:#E8E8E8;}
	.st646{clip-path:url(#SVGID_37_);fill:#E7E7E7;}
	.st647{clip-path:url(#SVGID_37_);fill:#E6E6E6;}
	.st648{clip-path:url(#SVGID_37_);fill:#E5E5E5;}
	.st649{clip-path:url(#SVGID_37_);fill:#E4E4E4;}
	.st650{clip-path:url(#SVGID_37_);fill:#E3E3E3;}
	.st651{clip-path:url(#SVGID_37_);fill:#E2E2E2;}
	.st652{clip-path:url(#SVGID_37_);fill:#E1E1E1;}
	.st653{clip-path:url(#SVGID_37_);fill:#E0E0E0;}
	.st654{clip-path:url(#SVGID_37_);fill:#DFDFDF;}
	.st655{clip-path:url(#SVGID_37_);fill:#DEDEDE;}
	.st656{clip-path:url(#SVGID_37_);fill:#DDDDDD;}
	.st657{clip-path:url(#SVGID_37_);fill:#DCDCDC;}
	.st658{clip-path:url(#SVGID_37_);fill:#DBDBDB;}
	.st659{clip-path:url(#SVGID_37_);fill:#DADADA;}
	.st660{clip-path:url(#SVGID_37_);fill:#D9D9D9;}
	.st661{clip-path:url(#SVGID_37_);fill:#D8D8D9;}
	.st662{clip-path:url(#SVGID_37_);fill:#D7D7D8;}
	.st663{clip-path:url(#SVGID_37_);fill:#D6D6D7;}
	.st664{clip-path:url(#SVGID_37_);fill:#D5D5D6;}
	.st665{clip-path:url(#SVGID_37_);fill:#D4D4D5;}
	.st666{clip-path:url(#SVGID_37_);fill:#D3D3D4;}
	.st667{clip-path:url(#SVGID_37_);fill:#D2D2D3;}
	.st668{clip-path:url(#SVGID_37_);fill:#D1D1D2;}
	.st669{clip-path:url(#SVGID_37_);fill:#D0D0D1;}
	.st670{clip-path:url(#SVGID_37_);fill:#CFCFD0;}
	.st671{clip-path:url(#SVGID_37_);fill:#CECECF;}
	.st672{clip-path:url(#SVGID_37_);fill:#CDCDCE;}
	.st673{clip-path:url(#SVGID_37_);fill:#CCCCCD;}
	.st674{clip-path:url(#SVGID_37_);fill:#CBCBCC;}
	.st675{clip-path:url(#SVGID_37_);fill:#CACACB;}
	.st676{clip-path:url(#SVGID_37_);fill:#C9C9CA;}
	.st677{clip-path:url(#SVGID_37_);fill:#C8C8C9;}
	.st678{clip-path:url(#SVGID_37_);fill:#C7C7C8;}
	.st679{clip-path:url(#SVGID_37_);fill:#C6C6C7;}
	.st680{clip-path:url(#SVGID_37_);fill:#C5C5C6;}
	.st681{clip-path:url(#SVGID_37_);fill:#C4C4C5;}
	.st682{clip-path:url(#SVGID_37_);fill:#C3C3C4;}
	.st683{clip-path:url(#SVGID_37_);fill:#C2C2C3;}
	.st684{clip-path:url(#SVGID_37_);fill:#C1C1C2;}
	.st685{clip-path:url(#SVGID_37_);fill:#C0C0C1;}
	.st686{clip-path:url(#SVGID_37_);fill:#BFBFC0;}
	.st687{clip-path:url(#SVGID_37_);fill:#BEBEBF;}
	.st688{clip-path:url(#SVGID_37_);fill:#BDBDBE;}
	.st689{clip-path:url(#SVGID_37_);fill:#BCBCBD;}
	.st690{clip-path:url(#SVGID_37_);fill:#BBBBBC;}
	.st691{clip-path:url(#SVGID_37_);fill:#BABABB;}
	.st692{clip-path:url(#SVGID_37_);fill:#B9B9BA;}
	.st693{clip-path:url(#SVGID_37_);fill:#B8B8B9;}
	.st694{clip-path:url(#SVGID_37_);fill:#B7B7B8;}
	.st695{clip-path:url(#SVGID_37_);fill:#B6B6B7;}
	.st696{clip-path:url(#SVGID_37_);fill:#B5B5B6;}
	.st697{clip-path:url(#SVGID_37_);fill:#B4B4B5;}
	.st698{clip-path:url(#SVGID_37_);fill:#B3B3B4;}
	.st699{clip-path:url(#SVGID_37_);fill:#B2B2B3;}
	.st700{clip-path:url(#SVGID_37_);fill:#B0B1B2;}
	.st701{clip-path:url(#SVGID_37_);fill:#AFB0B1;}
	.st702{clip-path:url(#SVGID_37_);fill:#AEAFB0;}
	.st703{clip-path:url(#SVGID_37_);fill:#ADAEAF;}
	.st704{clip-path:url(#SVGID_37_);fill:#ACADAE;}
	.st705{clip-path:url(#SVGID_37_);fill:#ABACAD;}
	.st706{clip-path:url(#SVGID_37_);fill:#AAABAC;}
	.st707{clip-path:url(#SVGID_37_);fill:#A9AAAB;}
	.st708{clip-path:url(#SVGID_37_);fill:#A8A9AA;}
	.st709{clip-path:url(#SVGID_37_);fill:#A7A8A9;}
	.st710{clip-path:url(#SVGID_37_);fill:#A6A7A8;}
	.st711{clip-path:url(#SVGID_37_);fill:#A5A6A7;}
	.st712{clip-path:url(#SVGID_37_);fill:#A4A5A6;}
	.st713{clip-path:url(#SVGID_37_);fill:#A3A4A5;}
	.st714{clip-path:url(#SVGID_37_);fill:#A2A3A4;}
	.st715{clip-path:url(#SVGID_37_);fill:#A1A2A3;}
	.st716{clip-path:url(#SVGID_37_);fill:#A0A1A2;}
	.st717{clip-path:url(#SVGID_37_);fill:#9FA0A1;}
	.st718{clip-path:url(#SVGID_37_);fill:#9E9FA0;}
	.st719{clip-path:url(#SVGID_37_);fill:#9D9E9F;}
	.st720{clip-path:url(#SVGID_37_);fill:#9C9D9E;}
	.st721{clip-path:url(#SVGID_37_);fill:#9B9C9D;}
	.st722{clip-path:url(#SVGID_37_);fill:#9A9B9C;}
	.st723{clip-path:url(#SVGID_37_);fill:#999A9B;}
	.st724{clip-path:url(#SVGID_37_);fill:#98999A;}
	.st725{clip-path:url(#SVGID_37_);fill:#979899;}
	.st726{clip-path:url(#SVGID_37_);fill:#969798;}
	.st727{clip-path:url(#SVGID_37_);fill:#959697;}
	.st728{clip-path:url(#SVGID_37_);fill:#949596;}
	.st729{clip-path:url(#SVGID_37_);fill:#939495;}
	.st730{clip-path:url(#SVGID_37_);fill:#929394;}
	.st731{clip-path:url(#SVGID_37_);fill:#919293;}
	.st732{clip-path:url(#SVGID_37_);fill:#909192;}
	.st733{clip-path:url(#SVGID_37_);fill:#8F9091;}
	.st734{clip-path:url(#SVGID_37_);fill:#8E8F90;}
	.st735{clip-path:url(#SVGID_37_);fill:#8D8E8F;}
	.st736{clip-path:url(#SVGID_37_);fill:#8C8D8E;}
	.st737{clip-path:url(#SVGID_37_);fill:#8B8C8D;}
	.st738{clip-path:url(#SVGID_37_);fill:#8A8B8C;}
	.st739{clip-path:url(#SVGID_37_);fill:#898A8C;}
	.st740{clip-path:url(#SVGID_37_);fill:#88898B;}
	.st741{clip-path:url(#SVGID_37_);fill:#87888A;}
	.st742{clip-path:url(#SVGID_37_);fill:#868789;}
	.st743{clip-path:url(#SVGID_37_);fill:#858688;}
	.st744{clip-path:url(#SVGID_37_);fill:#848587;}
	.st745{clip-path:url(#SVGID_37_);fill:#838486;}
	.st746{clip-path:url(#SVGID_37_);fill:#828385;}
	.st747{clip-path:url(#SVGID_37_);fill:#818284;}
	.st748{clip-path:url(#SVGID_37_);fill:#808183;}
	.st749{clip-path:url(#SVGID_37_);fill:#7F8082;}
	.st750{clip-path:url(#SVGID_37_);fill:#7E7F81;}
	.st751{clip-path:url(#SVGID_37_);fill:#7D7E80;}
	.st752{clip-path:url(#SVGID_37_);fill:#7C7D7F;}
	.st753{clip-path:url(#SVGID_37_);fill:#7B7C7E;}
	.st754{clip-path:url(#SVGID_37_);fill:#7A7B7D;}
	.st755{clip-path:url(#SVGID_37_);fill:#797A7C;}
	.st756{clip-path:url(#SVGID_37_);fill:#78797B;}
	.st757{clip-path:url(#SVGID_37_);fill:#77787A;}
	.st758{clip-path:url(#SVGID_37_);fill:#767779;}
	.st759{clip-path:url(#SVGID_37_);fill:#757678;}
	.st760{clip-path:url(#SVGID_37_);fill:#747577;}
	.st761{clip-path:url(#SVGID_37_);fill:#737476;}
	.st762{clip-path:url(#SVGID_37_);fill:#727375;}
	.st763{clip-path:url(#SVGID_37_);fill:#717274;}
	.st764{clip-path:url(#SVGID_37_);fill:#707173;}
	.st765{clip-path:url(#SVGID_37_);fill:#6F7072;}
	.st766{clip-path:url(#SVGID_37_);fill:#6E6F71;}
	.st767{clip-path:url(#SVGID_37_);fill:#6D6E70;}
	.st768{clip-path:url(#SVGID_37_);fill:#6C6D6F;}
	.st769{clip-path:url(#SVGID_37_);fill:#6B6C6E;}
	.st770{clip-path:url(#SVGID_37_);fill:#6A6B6D;}
	.st771{clip-path:url(#SVGID_37_);fill:#696A6C;}
	.st772{clip-path:url(#SVGID_37_);fill:#68696B;}
	.st773{clip-path:url(#SVGID_37_);fill:#67686A;}
	.st774{clip-path:url(#SVGID_37_);fill:#666769;}
	.st775{clip-path:url(#SVGID_37_);fill:#656668;}
	.st776{clip-path:url(#SVGID_37_);fill:#646567;}
	.st777{clip-path:url(#SVGID_37_);fill:#636466;}
	.st778{clip-path:url(#SVGID_39_);fill:#0A1820;}
</style>
<g id="g1">
	<path class="st0" d="M200.604,95.173l8.934-8.93c0.441-0.441,1.585-1.672,1.585-1.672s-1.144-1.23-1.585-1.676l-8.933-8.929
		l-3.347,3.351l4.889,4.888h-18.642v4.733h18.642l-4.889,4.886L200.604,95.173z"/>
	<path class="st0" d="M411.345,95.173l8.934-8.93c0.441-0.441,1.585-1.672,1.585-1.672s-1.144-1.23-1.585-1.676l-8.933-8.929
		l-3.347,3.351l4.889,4.888h-18.642v4.733h18.642l-4.889,4.886L411.345,95.173z"/>
	<path class="st0" d="M35.526,208.12c1.568,0.902,3.921,1.686,6.392,1.686c3.098,0,4.823-1.451,4.823-3.607
		c0-2.001-1.333-3.176-4.706-4.392c-4.353-1.569-7.137-3.883-7.137-7.687c0-4.314,3.608-7.608,9.333-7.608
		c2.863,0,4.98,0.627,6.353,1.333l-1.177,3.883c-0.941-0.51-2.784-1.255-5.255-1.255c-3.059,0-4.392,1.646-4.392,3.176
		c0,2.039,1.529,2.98,5.059,4.353c4.588,1.725,6.823,4.039,6.823,7.842c0,4.235-3.215,7.922-10.039,7.922
		c-2.784,0-5.686-0.785-7.137-1.647L35.526,208.12z"/>
	<path class="st0" d="M60.777,188.826v5.451h4.588v3.607h-4.588v8.432c0,2.313,0.627,3.529,2.471,3.529
		c0.823,0,1.451-0.117,1.882-0.235l0.078,3.686c-0.706,0.274-1.961,0.471-3.49,0.471c-1.765,0-3.255-0.588-4.157-1.569
		c-1.02-1.098-1.49-2.823-1.49-5.333v-8.981h-2.745v-3.607h2.745v-4.314L60.777,188.826z"/>
	<path class="st0" d="M79.363,213.375l-0.313-2.117h-0.118c-1.177,1.49-3.176,2.549-5.647,2.549c-3.843,0-6-2.785-6-5.686
		c0-4.824,4.275-7.255,11.333-7.216v-0.313c0-1.255-0.51-3.334-3.882-3.334c-1.882,0-3.843,0.588-5.137,1.412l-0.941-3.137
		c1.412-0.863,3.883-1.687,6.902-1.687c6.118,0,7.883,3.882,7.883,8.039v6.902c0,1.725,0.078,3.411,0.274,4.588H79.363z
		 M78.735,204.042c-3.411-0.078-6.666,0.667-6.666,3.569c0,1.882,1.216,2.745,2.745,2.745c1.921,0,3.333-1.255,3.765-2.627
		c0.117-0.353,0.157-0.745,0.157-1.059V204.042z"/>
	<path class="st0" d="M88.144,200.434c0-2.588-0.039-4.431-0.157-6.156h4.196l0.157,3.646h0.157
		c0.941-2.706,3.176-4.078,5.216-4.078c0.47,0,0.745,0.039,1.137,0.117v4.549c-0.392-0.078-0.823-0.157-1.412-0.157
		c-2.314,0-3.883,1.49-4.314,3.647c-0.078,0.432-0.157,0.941-0.157,1.49v9.882h-4.824V200.434z"/>
	<path class="st0" d="M108.141,188.826v5.451h4.588v3.607h-4.588v8.432c0,2.313,0.627,3.529,2.471,3.529
		c0.823,0,1.451-0.117,1.882-0.235l0.078,3.686c-0.706,0.274-1.961,0.471-3.49,0.471c-1.765,0-3.255-0.588-4.157-1.569
		c-1.02-1.098-1.49-2.823-1.49-5.333v-8.981h-2.745v-3.607h2.745v-4.314L108.141,188.826z"/>
	<path class="st0" d="M134.45,213.375l-0.314-2.117h-0.117c-1.177,1.49-3.176,2.549-5.647,2.549c-3.843,0-6-2.785-6-5.686
		c0-4.824,4.275-7.255,11.333-7.216v-0.313c0-1.255-0.51-3.334-3.882-3.334c-1.882,0-3.843,0.588-5.137,1.412l-0.941-3.137
		c1.412-0.863,3.883-1.687,6.902-1.687c6.118,0,7.882,3.882,7.882,8.039v6.902c0,1.725,0.079,3.411,0.275,4.588H134.45z
		 M133.822,204.042c-3.412-0.078-6.667,0.667-6.667,3.569c0,1.882,1.216,2.745,2.745,2.745c1.921,0,3.333-1.255,3.765-2.627
		c0.117-0.353,0.157-0.745,0.157-1.059V204.042z"/>
	<path class="st0" d="M6.021,231.704l3.098,9.686c0.549,1.687,0.941,3.215,1.294,4.785h0.117c0.353-1.569,0.785-3.059,1.294-4.785
		l3.02-9.686h5.098l-7.294,19.097H7.904l-7.098-19.097H6.021z"/>
	<path class="st0" d="M27.626,226.371c0,1.451-1.059,2.588-2.745,2.588c-1.608,0-2.667-1.137-2.667-2.588
		c0-1.49,1.098-2.627,2.706-2.627C26.567,223.744,27.587,224.881,27.626,226.371z M22.488,250.802v-19.097h4.863v19.097H22.488z"/>
	<path class="st0" d="M49.741,222.959v22.469c0,1.961,0.079,4.079,0.157,5.373h-4.314l-0.196-3.02H45.31
		c-1.137,2.118-3.451,3.451-6.235,3.451c-4.549,0-8.157-3.883-8.157-9.765c-0.039-6.392,3.961-10.196,8.549-10.196
		c2.627,0,4.51,1.098,5.372,2.51h0.078v-10.823H49.741z M44.918,239.664c0-0.392-0.039-0.862-0.117-1.255
		c-0.432-1.882-1.961-3.411-4.157-3.411c-3.098,0-4.823,2.745-4.823,6.314c0,3.49,1.726,6.039,4.784,6.039
		c1.961,0,3.686-1.333,4.157-3.411c0.118-0.432,0.157-0.902,0.157-1.412V239.664z"/>
	<path class="st0" d="M57.933,242.606c0.117,3.45,2.823,4.941,5.882,4.941c2.235,0,3.843-0.314,5.294-0.863l0.706,3.334
		c-1.647,0.667-3.921,1.177-6.666,1.177c-6.196,0-9.843-3.804-9.843-9.647c0-5.294,3.216-10.274,9.333-10.274
		c6.196,0,8.235,5.098,8.235,9.294c0,0.902-0.078,1.607-0.157,2.039H57.933z M66.325,239.234c0.039-1.765-0.745-4.667-3.961-4.667
		c-2.98,0-4.235,2.706-4.431,4.667H66.325z"/>
	<path class="st0" d="M92.517,241.076c0,7.02-4.941,10.157-9.804,10.157c-5.412,0-9.569-3.725-9.569-9.843
		c0-6.274,4.117-10.117,9.882-10.117C88.714,231.273,92.517,235.272,92.517,241.076z M78.126,241.273c0,3.686,1.804,6.47,4.745,6.47
		c2.745,0,4.667-2.706,4.667-6.548c0-2.981-1.333-6.393-4.627-6.393C79.498,234.802,78.126,238.096,78.126,241.273z"/>
	<path class="st0" d="M117.845,250.213c-1.019,0.471-3.02,0.981-5.412,0.981c-5.961,0-9.843-3.804-9.843-9.726
		c0-5.725,3.922-10.196,10.627-10.196c1.765,0,3.569,0.392,4.667,0.902l-0.863,3.608c-0.784-0.352-1.921-0.745-3.647-0.745
		c-3.686,0-5.882,2.706-5.843,6.196c0,3.921,2.549,6.157,5.843,6.157c1.686,0,2.863-0.353,3.804-0.746L117.845,250.213z"/>
	<path class="st0" d="M121.018,222.959h4.863v11.372h0.078c0.588-0.902,1.372-1.647,2.392-2.196
		c0.941-0.549,2.078-0.862,3.294-0.862c3.255,0,6.666,2.156,6.666,8.274v11.255h-4.823v-10.706c0-2.785-1.019-4.863-3.686-4.863
		c-1.882,0-3.215,1.255-3.725,2.706c-0.157,0.392-0.196,0.902-0.196,1.451v11.411h-4.863V222.959z"/>
	<path class="st0" d="M153.798,250.802l-0.314-2.117h-0.117c-1.177,1.49-3.176,2.549-5.647,2.549c-3.843,0-6-2.785-6-5.686
		c0-4.824,4.275-7.255,11.333-7.216v-0.313c0-1.255-0.51-3.334-3.882-3.334c-1.882,0-3.843,0.588-5.137,1.412l-0.941-3.137
		c1.412-0.863,3.883-1.687,6.902-1.687c6.118,0,7.882,3.882,7.882,8.039v6.902c0,1.725,0.079,3.411,0.275,4.588H153.798z
		 M153.171,241.468c-3.412-0.078-6.667,0.667-6.667,3.569c0,1.882,1.216,2.745,2.745,2.745c1.921,0,3.333-1.255,3.765-2.627
		c0.117-0.353,0.157-0.745,0.157-1.059V241.468z"/>
	<path class="st0" d="M167.874,226.253v5.451h4.588v3.607h-4.588v8.432c0,2.313,0.627,3.529,2.471,3.529
		c0.823,0,1.451-0.117,1.882-0.235l0.078,3.686c-0.706,0.274-1.961,0.471-3.49,0.471c-1.765,0-3.255-0.588-4.157-1.569
		c-1.02-1.098-1.49-2.823-1.49-5.333v-8.981h-2.745v-3.607h2.745v-4.314L167.874,226.253z"/>
	<path class="st0" d="M234.397,208.12c1.568,0.902,3.921,1.686,6.392,1.686c3.098,0,4.823-1.451,4.823-3.607
		c0-2.001-1.333-3.176-4.706-4.392c-4.353-1.569-7.137-3.883-7.137-7.687c0-4.314,3.608-7.608,9.333-7.608
		c2.863,0,4.98,0.627,6.353,1.333l-1.177,3.883c-0.941-0.51-2.784-1.255-5.255-1.255c-3.059,0-4.392,1.646-4.392,3.176
		c0,2.039,1.529,2.98,5.059,4.353c4.588,1.725,6.823,4.039,6.823,7.842c0,4.235-3.215,7.922-10.039,7.922
		c-2.784,0-5.686-0.785-7.137-1.647L234.397,208.12z"/>
	<path class="st0" d="M254.159,185.533h4.863v11.372h0.078c0.588-0.902,1.372-1.647,2.392-2.196
		c0.941-0.549,2.078-0.862,3.294-0.862c3.255,0,6.666,2.156,6.666,8.274v11.255h-4.823v-10.706c0-2.785-1.019-4.863-3.686-4.863
		c-1.882,0-3.216,1.255-3.725,2.706c-0.157,0.392-0.196,0.902-0.196,1.451v11.411h-4.863V185.533z"/>
	<path class="st0" d="M294.35,203.649c0,7.02-4.941,10.157-9.804,10.157c-5.412,0-9.569-3.725-9.569-9.843
		c0-6.274,4.118-10.117,9.882-10.117C290.546,193.846,294.35,197.846,294.35,203.649z M279.958,203.846
		c0,3.686,1.804,6.47,4.745,6.47c2.745,0,4.667-2.706,4.667-6.548c0-2.981-1.333-6.393-4.627-6.393
		C281.331,197.375,279.958,200.669,279.958,203.846z"/>
	<path class="st0" d="M300.504,194.278l2,8.666c0.431,2.04,0.863,4.118,1.216,6.196h0.078c0.392-2.078,1.019-4.195,1.569-6.157
		l2.471-8.705h3.921l2.392,8.47c0.588,2.236,1.098,4.314,1.529,6.392h0.078c0.314-2.078,0.745-4.156,1.255-6.392l2.118-8.47h4.745
		l-6,19.097h-4.47l-2.275-7.764c-0.588-2.001-1.019-3.804-1.451-6.118h-0.079c-0.392,2.353-0.902,4.235-1.451,6.118l-2.431,7.764
		h-4.51l-5.647-19.097H300.504z"/>
	<path class="st0" d="M351.398,207.65c0,2.274,0.078,4.157,0.157,5.725h-4.235l-0.235-2.902h-0.078
		c-0.824,1.373-2.706,3.334-6.118,3.334c-3.49,0-6.666-2.079-6.666-8.314v-11.215h4.823v10.391c0,3.176,1.02,5.215,3.569,5.215
		c1.921,0,3.176-1.372,3.686-2.588c0.157-0.431,0.275-0.941,0.275-1.49v-11.529h4.824V207.65z"/>
	<path class="st0" d="M355.982,208.944c1.098,0.667,3.177,1.372,4.902,1.372c2.118,0,3.059-0.862,3.059-2.117
		c0-1.294-0.785-1.961-3.137-2.785c-3.725-1.294-5.294-3.333-5.255-5.569c0-3.372,2.784-5.999,7.215-5.999
		c2.118,0,3.961,0.549,5.059,1.137l-0.941,3.411c-0.823-0.471-2.353-1.098-4.039-1.098c-1.725,0-2.666,0.824-2.666,2.001
		c0,1.216,0.902,1.803,3.333,2.666c3.451,1.255,5.059,3.02,5.098,5.843c0,3.451-2.706,5.961-7.765,5.961
		c-2.314,0-4.392-0.549-5.804-1.334L355.982,208.944z"/>
	<path class="st0" d="M222.595,231.704l3.451,10.235c0.392,1.177,0.784,2.627,1.059,3.725h0.118c0.314-1.098,0.667-2.51,1.019-3.765
		l2.98-10.196h5.177l-4.784,13.019c-2.628,7.138-4.392,10.314-6.667,12.275c-1.882,1.686-3.843,2.314-5.059,2.471l-1.098-4.079
		c0.823-0.196,1.843-0.627,2.823-1.333c0.902-0.588,1.961-1.726,2.627-3.02c0.196-0.352,0.314-0.627,0.314-0.862
		c0-0.196-0.039-0.471-0.275-0.941l-6.98-17.529H222.595z"/>
	<path class="st0" d="M256.435,241.076c0,7.02-4.941,10.157-9.804,10.157c-5.412,0-9.569-3.725-9.569-9.843
		c0-6.274,4.118-10.117,9.882-10.117C252.632,231.273,256.435,235.272,256.435,241.076z M242.044,241.273
		c0,3.686,1.804,6.47,4.745,6.47c2.745,0,4.667-2.706,4.667-6.548c0-2.981-1.333-6.393-4.627-6.393
		C243.416,234.802,242.044,238.096,242.044,241.273z"/>
	<path class="st0" d="M277.099,245.076c0,2.274,0.078,4.157,0.157,5.725h-4.235l-0.235-2.902h-0.078
		c-0.824,1.373-2.706,3.334-6.118,3.334c-3.49,0-6.666-2.079-6.666-8.314v-11.215h4.823v10.391c0,3.176,1.02,5.215,3.569,5.215
		c1.921,0,3.176-1.372,3.686-2.588c0.157-0.431,0.275-0.941,0.275-1.49v-11.529h4.824V245.076z"/>
	<path class="st0" d="M281.918,237.86c0-2.588-0.039-4.431-0.157-6.156h4.196l0.157,3.646h0.157
		c0.941-2.706,3.176-4.078,5.216-4.078c0.47,0,0.745,0.039,1.137,0.117v4.549c-0.392-0.078-0.823-0.157-1.411-0.157
		c-2.314,0-3.883,1.49-4.314,3.647c-0.078,0.432-0.157,0.941-0.157,1.49v9.882h-4.824V237.86z"/>
	<path class="st0" d="M308.345,226.371c0,1.451-1.059,2.588-2.745,2.588c-1.608,0-2.667-1.137-2.667-2.588
		c0-1.49,1.098-2.627,2.706-2.627C307.286,223.744,308.305,224.881,308.345,226.371z M303.207,250.802v-19.097h4.863v19.097H303.207
		z"/>
	<path class="st0" d="M318.382,226.253v5.451h4.588v3.607h-4.588v8.432c0,2.313,0.627,3.529,2.471,3.529
		c0.823,0,1.451-0.117,1.882-0.235l0.078,3.686c-0.706,0.274-1.961,0.471-3.49,0.471c-1.765,0-3.255-0.588-4.157-1.569
		c-1.02-1.098-1.49-2.823-1.49-5.333v-8.981h-2.745v-3.607h2.745v-4.314L318.382,226.253z"/>
	<path class="st0" d="M329.399,242.606c0.118,3.45,2.823,4.941,5.882,4.941c2.235,0,3.843-0.314,5.294-0.863l0.706,3.334
		c-1.647,0.667-3.922,1.177-6.666,1.177c-6.196,0-9.843-3.804-9.843-9.647c0-5.294,3.216-10.274,9.333-10.274
		c6.196,0,8.235,5.098,8.235,9.294c0,0.902-0.078,1.607-0.157,2.039H329.399z M337.791,239.234c0.039-1.765-0.745-4.667-3.961-4.667
		c-2.98,0-4.235,2.706-4.431,4.667H337.791z"/>
	<path class="st0" d="M345.827,237.39c0-2.196-0.039-4.04-0.157-5.686h4.157l0.196,2.823h0.117c0.941-1.49,2.667-3.255,5.882-3.255
		c2.51,0,4.47,1.412,5.294,3.529h0.078c0.667-1.058,1.451-1.842,2.353-2.391c1.059-0.745,2.275-1.137,3.843-1.137
		c3.176,0,6.392,2.156,6.392,8.274v11.255h-4.706v-10.549c0-3.176-1.098-5.059-3.412-5.059c-1.647,0-2.863,1.177-3.373,2.549
		c-0.117,0.471-0.235,1.059-0.235,1.608v11.45h-4.706v-11.059c0-2.666-1.059-4.549-3.294-4.549c-1.804,0-3.02,1.412-3.451,2.746
		c-0.196,0.47-0.275,1.019-0.275,1.568v11.294h-4.706V237.39z"/>
	<path class="st0" d="M378.449,246.37c1.098,0.667,3.176,1.372,4.902,1.372c2.118,0,3.059-0.862,3.059-2.117
		c0-1.294-0.785-1.961-3.137-2.785c-3.725-1.294-5.294-3.333-5.255-5.569c0-3.372,2.784-5.999,7.215-5.999
		c2.118,0,3.961,0.549,5.059,1.137l-0.941,3.411c-0.823-0.471-2.353-1.098-4.039-1.098c-1.725,0-2.666,0.824-2.666,2.001
		c0,1.216,0.902,1.803,3.333,2.666c3.45,1.255,5.059,3.02,5.098,5.843c0,3.451-2.706,5.961-7.765,5.961
		c-2.314,0-4.392-0.549-5.804-1.334L378.449,246.37z"/>
	<path class="st0" d="M448.071,229.592c-1.686,0.627-4.98,1.49-8.51,1.49c-4.47,0-7.843-1.137-10.353-3.53
		c-2.353-2.235-4.052-5.724-4.013-9.726c0-8.352,6.287-13.725,15.032-13.725c3.255,0,5.804,0.667,7.02,1.255l-1.059,3.883
		c-1.451-0.627-3.216-1.137-6-1.137c-5.647,0-9.607,3.333-9.607,9.489c0,5.999,3.686,9.569,9.176,9.569
		c1.725,0,3.019-0.235,3.647-0.55v-6.588h-4.666v-3.803h9.333V229.592z"/>
	<path class="st0" d="M456.066,222.611c0.117,3.451,2.823,4.941,5.882,4.941c2.235,0,3.843-0.313,5.294-0.863l0.706,3.335
		c-1.647,0.667-3.921,1.177-6.666,1.177c-6.196,0-9.843-3.805-9.843-9.647c0-5.294,3.216-10.274,9.333-10.274
		c6.196,0,8.235,5.098,8.235,9.294c0,0.902-0.078,1.606-0.157,2.038H456.066z M464.458,219.24c0.039-1.765-0.745-4.668-3.961-4.668
		c-2.98,0-4.235,2.706-4.431,4.668H464.458z"/>
	<path class="st0" d="M478.023,206.26v5.451h4.588v3.606h-4.588v8.433c0,2.313,0.627,3.528,2.471,3.528
		c0.823,0,1.451-0.117,1.882-0.235l0.078,3.686c-0.706,0.275-1.961,0.472-3.49,0.472c-1.765,0-3.255-0.588-4.157-1.57
		c-1.02-1.098-1.49-2.823-1.49-5.333v-8.981h-2.745v-3.606h2.745v-4.315L478.023,206.26z"/>
	<path class="st0" d="M504.332,230.807l-0.313-2.116h-0.118c-1.177,1.49-3.176,2.548-5.647,2.548c-3.843,0-6-2.785-6-5.686
		c0-4.823,4.275-7.254,11.333-7.216v-0.313c0-1.255-0.51-3.333-3.882-3.333c-1.882,0-3.843,0.588-5.137,1.412l-0.941-3.136
		c1.412-0.863,3.883-1.687,6.902-1.687c6.118,0,7.883,3.881,7.883,8.039v6.901c0,1.725,0.078,3.411,0.274,4.588H504.332z
		 M503.705,221.475c-3.411-0.078-6.666,0.667-6.666,3.568c0,1.883,1.216,2.745,2.745,2.745c1.921,0,3.333-1.255,3.765-2.626
		c0.117-0.353,0.157-0.745,0.157-1.06V221.475z"/>
	<path class="st0" d="M520.837,218.064c0-2.51-0.078-4.55-0.157-6.353h4.235l0.235,2.94h0.078c1.412-2.156,3.647-3.371,6.549-3.371
		c4.392,0,8.039,3.765,8.039,9.724c0,6.903-4.353,10.236-8.706,10.236c-2.392,0-4.392-1.02-5.372-2.548h-0.078v9.881h-4.824V218.064
		z M525.66,222.808c0,0.47,0.039,0.902,0.157,1.333c0.471,1.96,2.196,3.373,4.235,3.373c3.058,0,4.862-2.55,4.862-6.314
		c0-3.373-1.647-6.118-4.745-6.118c-2,0-3.843,1.452-4.314,3.57c-0.117,0.392-0.196,0.823-0.196,1.215V222.808z"/>
	<path class="st0" d="M543.382,217.867c0-2.588-0.039-4.431-0.157-6.156h4.196l0.157,3.646h0.157
		c0.941-2.706,3.176-4.078,5.216-4.078c0.47,0,0.745,0.038,1.137,0.117v4.55c-0.392-0.078-0.823-0.157-1.411-0.157
		c-2.314,0-3.883,1.49-4.314,3.646c-0.078,0.432-0.157,0.942-0.157,1.49v9.882h-4.824V217.867z"/>
	<path class="st0" d="M562.085,206.376c0,1.452-1.059,2.588-2.745,2.588c-1.608,0-2.667-1.137-2.667-2.588
		c0-1.49,1.098-2.626,2.706-2.626C561.026,203.75,562.046,204.887,562.085,206.376z M556.948,230.807v-19.096h4.863v19.096H556.948z
		"/>
	<path class="st0" d="M580.632,230.219c-1.019,0.472-3.02,0.982-5.411,0.982c-5.961,0-9.843-3.805-9.843-9.726
		c0-5.726,3.922-10.196,10.627-10.196c1.765,0,3.569,0.392,4.667,0.902l-0.863,3.608c-0.784-0.353-1.921-0.745-3.647-0.745
		c-3.686,0-5.882,2.705-5.843,6.196c0,3.921,2.549,6.156,5.843,6.156c1.686,0,2.863-0.353,3.804-0.745L580.632,230.219z"/>
	<path class="st0" d="M586.865,222.611c0.117,3.451,2.823,4.941,5.882,4.941c2.235,0,3.843-0.313,5.294-0.863l0.706,3.335
		c-1.647,0.667-3.921,1.177-6.666,1.177c-6.196,0-9.843-3.805-9.843-9.647c0-5.294,3.216-10.274,9.333-10.274
		c6.196,0,8.235,5.098,8.235,9.294c0,0.902-0.078,1.606-0.157,2.038H586.865z M595.257,219.24c0.039-1.765-0.745-4.668-3.961-4.668
		c-2.98,0-4.235,2.706-4.431,4.668H595.257z"/>
</g>
<g id="g2">
	<rect x="223.399" y="5.171" class="st606" width="154.46" height="154.46"/>
	<rect x="437.579" y="5.171" class="st607" width="154.46" height="154.46"/>
	<rect x="9.219" y="5.171" class="st24" width="154.46" height="154.46"/>
</g>
<rect x="575.377" y="49.781" transform="matrix(0.7071 -0.7072 0.7072 0.7071 131.6018 422.6151)" class="st608" width="1.016" height="5.374"/>
<rect x="575.377" y="49.781" transform="matrix(0.7071 -0.7072 0.7072 0.7071 131.6018 422.6151)" class="st608" width="1.016" height="5.374"/>
<rect x="575.377" y="49.781" transform="matrix(0.7071 -0.7072 0.7072 0.7071 131.6018 422.6151)" class="st608" width="1.016" height="5.374"/>
<rect x="575.377" y="49.781" transform="matrix(0.7071 -0.7072 0.7072 0.7071 131.6018 422.6151)" class="st609" width="1.016" height="5.374"/>
<g>
	<polygon class="st610" points="377.859,87.204 347.224,56.568 255.743,123.444 291.93,159.631 377.859,159.631 	"/>
	<polygon class="st8" points="343.493,123.444 331.531,123.444 330.194,121.66 301.874,121.66 300.425,123.444 255.743,123.444 
		255.743,62.006 299.619,34.262 343.493,62.006 	"/>
	<rect x="302.972" y="72.114" class="st611" width="27.034" height="26.126"/>
	<g>
		<rect x="266.42" y="70.702" class="st611" width="24.974" height="24.974"/>
		<path class="st612" d="M292.38,96.662h-26.946V69.716h26.946V96.662z M267.406,94.69h23.002V71.688h-23.002V94.69z"/>
	</g>
	<g>
		<rect x="266.42" y="82.204" class="st612" width="24.974" height="1.972"/>
	</g>
	<g>
		<rect x="277.922" y="70.702" class="st612" width="1.972" height="24.974"/>
	</g>
	<rect x="264.19" y="95.676" class="st613" width="29.545" height="2.564"/>
	<rect x="322.509" y="29.116" class="st612" width="11.149" height="18.585"/>
	<rect x="320.503" y="27.444" class="st613" width="15.162" height="5.351"/>
	<path class="st612" d="M301.874,70.702v50.958h28.319V70.702H301.874z M315.142,95.289h-10.591V73.713h10.591V95.289z
		 M327.517,95.289h-10.591V73.713h10.591V95.289z"/>
	<path class="st612" d="M331.18,122.646h-30.291v-52.93h30.291V122.646z M302.86,120.674h26.348V71.688H302.86V120.674z
		 M328.503,96.275h-24.938V72.727h24.938V96.275z M317.912,94.303h8.619V74.699h-8.619V94.303z M305.537,94.303h8.619V74.699h-8.619
		V94.303z"/>
	<polygon class="st361" points="294.399,32.273 255.743,56.719 255.743,66.922 302.972,37.055 	"/>
	<rect x="343.493" y="63.386" class="st361" width="2.198" height="60.058"/>
	<polygon class="st612" points="348.255,56.195 299.619,25.437 251.034,56.161 251.034,66.364 299.619,35.64 348.255,66.398 	"/>
	<polygon class="st361" points="300.648,123.444 301.986,122.657 301.986,70.851 330.044,70.851 329.973,122.603 331.308,123.148 
		331.384,69.513 300.648,69.513 	"/>
	<circle class="st8" cx="306.037" cy="99.764" r="1.933"/>
	<polygon class="st610" points="592.039,86.454 549.755,44.17 478.987,128.52 510.098,159.631 592.039,159.631 	"/>
	<rect x="480.521" y="45.484" class="st8" width="67.261" height="81.721"/>
	<path class="st614" d="M549.426,128.849h-70.548V43.841h70.548V128.849z M482.164,125.563h63.975V47.127h-63.975V125.563z"/>
	<path class="st615" d="M532.118,38.801h-9.241c0.025-0.253,0.038-0.508,0.038-0.767c0-4.295-3.482-7.778-7.777-7.778
		c-4.296,0-7.778,3.482-7.778,7.778c0,0.259,0.014,0.514,0.039,0.767h-9.24c-1.815,0-3.286,1.675-3.286,3.74v6.981
		c0,2.065,1.471,3.74,3.286,3.74h33.96c1.815,0,3.286-1.675,3.286-3.74v-6.981C535.404,40.476,533.933,38.801,532.118,38.801z"/>
	<path class="st616" d="M494.872,49.099v0.423c0,2.065,1.471,3.74,3.286,3.74h33.96c1.815,0,3.286-1.675,3.286-3.74v-0.423H494.872z
		"/>
	<path class="st617" d="M535.404,42.855v-0.314c0-2.065-1.471-3.74-3.286-3.74h-9.241c0.025-0.253,0.038-0.508,0.038-0.767
		c0-4.295-3.482-7.778-7.777-7.778c-4.296,0-7.778,3.482-7.778,7.778c0,0.259,0.014,0.514,0.039,0.767h-9.24
		c-1.815,0-3.286,1.675-3.286,3.74v0.314H535.404z"/>
	<path class="st610" d="M588.638,112.414l-0.274-5.367l-0.861,0.044l-0.001-0.019c0,0-16.81-3.057-22.457-2.878
		c-6.703,0.215-19.621,4.95-26.314,5.37c-0.049,0.005-1.042,0.008-1.094,0.012c-4.523-0.117-14.133-1.944-14.133-1.944l0.059,1.142
		l-6.514,3.311l0.015,0.286l-2.206,1.121l2.309,0.892l0.015,0.288l6.817,2.627l0.059,1.142c0,0,9.373-2.797,13.861-3.373
		c0.053-0.003,1.04-0.098,1.09-0.101c6.699-0.261,20.033,3.128,26.724,2.659c5.636-0.397,22.046-5.151,22.046-5.151l-0.002-0.019
		L588.638,112.414z"/>
	<polygon class="st524" points="518.194,111.991 516.363,110.16 514.859,113.493 	"/>
	<polygon class="st524" points="518.194,111.991 516.363,110.16 514.859,113.493 	"/>
	<polygon class="st524" points="518.194,111.991 516.363,110.16 514.859,113.493 	"/>
	<polygon class="st608" points="525.744,108.882 519.471,102.609 515.825,110.697 517.657,112.528 	"/>
	<path class="st618" d="M561.734,76.13c4.626-4.779,15.705-21.389,15.705-21.389l-1.914-1.915l-40.782,40.783l1.914,1.915
		c0.042-0.044,0.087-0.09,0.13-0.131C542.424,89.867,556.243,81.802,561.734,76.13z"/>
	<polygon class="st619" points="522.607,105.745 516.741,111.611 517.657,112.528 525.744,108.882 	"/>
	<path class="st524" d="M532.829,91.696l3.828,3.828c0.042-0.044,0.087-0.09,0.13-0.131c5.638-5.525,19.456-13.591,24.947-19.263
		c4.626-4.779,15.705-21.389,15.705-21.389l-3.828-3.827c0,0-16.61,11.079-21.39,15.704c-5.672,5.492-13.737,19.309-19.262,24.948
		C532.92,91.608,532.873,91.653,532.829,91.696z"/>
	<path class="st524" d="M532.019,92.444c-4.001,3.51-13.549,9.785-13.549,9.785l7.654,7.654c0,0,6.275-9.549,9.785-13.549
		L532.019,92.444z"/>
	<path class="st618" d="M522.297,106.056l3.828,3.827c0,0,6.275-9.549,9.785-13.549l-1.945-1.945L522.297,106.056z"/>
	<path class="st618" d="M561.734,76.13c4.626-4.779,15.705-21.389,15.705-21.389l-1.914-1.915l-40.782,40.783l1.914,1.915
		c0.042-0.044,0.087-0.09,0.13-0.131C542.424,89.867,556.243,81.802,561.734,76.13z"/>
	<circle class="st607" cx="515.138" cy="37.925" r="4.272"/>
	<path class="st361" d="M515.138,42.855c-2.719,0-4.93-2.211-4.93-4.93s2.212-4.93,4.93-4.93c2.718,0,4.929,2.211,4.929,4.93
		S517.856,42.855,515.138,42.855z M515.138,34.31c-1.994,0-3.616,1.622-3.616,3.615c0,1.993,1.622,3.615,3.616,3.615
		c1.993,0,3.614-1.622,3.614-3.615C518.753,35.932,517.131,34.31,515.138,34.31z"/>
	<path class="st607" d="M518.159,34.904c1.668,1.668,1.668,4.374,0,6.042c-1.668,1.668-4.374,1.668-6.043,0.001"/>
	<path class="st620" d="M515.138,42.854c-1.317,0.001-2.555-0.512-3.486-1.443l0.929-0.929c0.683,0.682,1.591,1.058,2.557,1.058
		s1.874-0.375,2.556-1.058c1.41-1.41,1.41-3.703,0-5.113l0.929-0.929c1.922,1.922,1.922,5.05,0,6.971
		C517.693,42.341,516.455,42.854,515.138,42.854z"/>
	<path class="st614" d="M536.148,63.849H490.49c-0.545,0-0.986-0.442-0.986-0.986c0-0.544,0.441-0.986,0.986-0.986h45.658
		c0.545,0,0.986,0.442,0.986,0.986C537.134,63.407,536.692,63.849,536.148,63.849z"/>
	<path class="st614" d="M536.148,77.691H490.49c-0.545,0-0.986-0.442-0.986-0.986c0-0.544,0.441-0.986,0.986-0.986h45.658
		c0.545,0,0.986,0.442,0.986,0.986C537.134,77.249,536.692,77.691,536.148,77.691z"/>
	<path class="st614" d="M518.802,91.494H490.49c-0.545,0-0.986-0.442-0.986-0.986c0-0.544,0.441-0.986,0.986-0.986h28.312
		c0.545,0,0.986,0.442,0.986,0.986C519.788,91.052,519.347,91.494,518.802,91.494z"/>
	<path class="st614" d="M498.476,115.773c-4.566,0-5.827-2.676-5.878-2.79c-0.224-0.496-0.004-1.08,0.493-1.304
		c0.496-0.223,1.08-0.003,1.304,0.493c0.025,0.049,0.862,1.63,4.081,1.63c2.353,0,3.548-0.971,3.549-2.884
		c0.001-1.329-1.649-2.078-4.166-3.068c-2.554-1.004-5.449-2.142-5.449-4.942c0-1.632,0.763-4.371,5.869-4.371
		c3.895,0,4.859,2.546,4.898,2.654c0.185,0.512-0.08,1.078-0.592,1.263c-0.506,0.182-1.064-0.074-1.255-0.574
		c-0.037-0.086-0.629-1.37-3.05-1.37c-3.897,0-3.897,1.743-3.897,2.399c0,1.355,1.662,2.11,4.199,3.107
		c2.54,0.999,5.419,2.13,5.417,4.904C503.996,112.057,503.596,115.773,498.476,115.773z"/>
	<path class="st614" d="M498.253,117.431c-0.545,0-0.986-0.442-0.986-0.986V97.818c0-0.544,0.441-0.986,0.986-0.986
		c0.545,0,0.986,0.442,0.986,0.986v18.628C499.239,116.99,498.797,117.431,498.253,117.431z"/>
	<path class="st610" d="M163.68,73.272c-11.142-11.079-21.776-21.6-21.776-21.6L25.987,112.538l47.093,47.093h90.6V73.272z"/>
	<path class="st621" d="M138.236,50.59c2.937,0,5.317,2.088,5.317,4.663v54.295c0,2.575-2.381,4.663-5.317,4.663H30.066
		c-2.937,0-5.318-2.087-5.318-4.663V55.254c0-2.575,2.381-4.663,5.318-4.663H138.236z"/>
	<path class="st38" d="M24.748,55.254v6.191c0-2.575,2.381-4.663,5.318-4.663h108.17c2.937,0,5.317,2.088,5.317,4.663v-6.191
		c0-2.575-2.381-4.663-5.317-4.663H30.066C27.129,50.59,24.748,52.678,24.748,55.254z"/>
	<path class="st8" d="M118.417,53.481c3.159,0,5.717,2.209,5.717,4.935v47.971c0,2.725-2.558,4.935-5.717,4.935H39.805
		c-3.158,0-5.717-2.21-5.717-4.935V58.416c0-2.725,2.559-4.935,5.717-4.935H118.417z"/>
	<g>
		<defs>
			<circle id="SVGID_36_" cx="133.698" cy="82.401" r="6.191"/>
		</defs>
		<clipPath id="SVGID_1_">
			<use xlink:href="#SVGID_36_"  style="overflow:visible;"/>
		</clipPath>
		<rect x="127.506" y="88.516" style="clip-path:url(#SVGID_1_);fill:#FFFFFF;" width="12.383" height="0.076"/>
		<rect x="127.506" y="88.44" style="clip-path:url(#SVGID_1_);fill:#FEFEFE;" width="12.383" height="0.076"/>
		<rect x="127.506" y="88.364" style="clip-path:url(#SVGID_1_);fill:#FDFDFD;" width="12.383" height="0.076"/>
		<rect x="127.506" y="88.288" style="clip-path:url(#SVGID_1_);fill:#FCFCFC;" width="12.383" height="0.076"/>
		<rect x="127.506" y="88.212" style="clip-path:url(#SVGID_1_);fill:#FBFBFB;" width="12.383" height="0.076"/>
		<rect x="127.506" y="88.136" style="clip-path:url(#SVGID_1_);fill:#FAFAFA;" width="12.383" height="0.076"/>
		<rect x="127.506" y="88.06" style="clip-path:url(#SVGID_1_);fill:#F9F9F9;" width="12.383" height="0.076"/>
		<rect x="127.506" y="87.984" style="clip-path:url(#SVGID_1_);fill:#F8F8F8;" width="12.383" height="0.076"/>
		<rect x="127.506" y="87.908" style="clip-path:url(#SVGID_1_);fill:#F7F7F7;" width="12.383" height="0.076"/>
		<rect x="127.506" y="87.832" style="clip-path:url(#SVGID_1_);fill:#F6F6F6;" width="12.383" height="0.076"/>
		<rect x="127.506" y="87.756" style="clip-path:url(#SVGID_1_);fill:#F5F5F5;" width="12.383" height="0.076"/>
		<rect x="127.506" y="87.68" style="clip-path:url(#SVGID_1_);fill:#F4F4F4;" width="12.383" height="0.076"/>
		<rect x="127.506" y="87.604" style="clip-path:url(#SVGID_1_);fill:#F3F3F3;" width="12.383" height="0.076"/>
		<rect x="127.506" y="87.528" style="clip-path:url(#SVGID_1_);fill:#F2F2F2;" width="12.383" height="0.076"/>
		<rect x="127.506" y="87.452" style="clip-path:url(#SVGID_1_);fill:#F1F1F1;" width="12.383" height="0.076"/>
		<rect x="127.506" y="87.376" style="clip-path:url(#SVGID_1_);fill:#F0F0F0;" width="12.383" height="0.076"/>
		<rect x="127.506" y="87.3" style="clip-path:url(#SVGID_1_);fill:#EFEFEF;" width="12.383" height="0.076"/>
		<rect x="127.506" y="87.224" style="clip-path:url(#SVGID_1_);fill:#EEEEEE;" width="12.383" height="0.076"/>
		<rect x="127.506" y="87.148" style="clip-path:url(#SVGID_1_);fill:#EDEDED;" width="12.383" height="0.076"/>
		<rect x="127.506" y="87.072" style="clip-path:url(#SVGID_1_);fill:#ECECEC;" width="12.383" height="0.076"/>
		<rect x="127.506" y="86.996" style="clip-path:url(#SVGID_1_);fill:#EBEBEB;" width="12.383" height="0.076"/>
		<rect x="127.506" y="86.92" style="clip-path:url(#SVGID_1_);fill:#EAEAEA;" width="12.383" height="0.076"/>
		<rect x="127.506" y="86.844" style="clip-path:url(#SVGID_1_);fill:#E9E9E9;" width="12.383" height="0.076"/>
		<rect x="127.506" y="86.768" style="clip-path:url(#SVGID_1_);fill:#E8E8E8;" width="12.383" height="0.076"/>
		<rect x="127.506" y="86.692" style="clip-path:url(#SVGID_1_);fill:#E7E7E7;" width="12.383" height="0.076"/>
		<rect x="127.506" y="86.616" style="clip-path:url(#SVGID_1_);fill:#E6E6E6;" width="12.383" height="0.076"/>
		<rect x="127.506" y="86.54" style="clip-path:url(#SVGID_1_);fill:#E5E5E5;" width="12.383" height="0.076"/>
		<rect x="127.506" y="86.464" style="clip-path:url(#SVGID_1_);fill:#E4E4E4;" width="12.383" height="0.076"/>
		<rect x="127.506" y="86.388" style="clip-path:url(#SVGID_1_);fill:#E3E3E3;" width="12.383" height="0.076"/>
		<rect x="127.506" y="86.312" style="clip-path:url(#SVGID_1_);fill:#E2E2E2;" width="12.383" height="0.076"/>
		<rect x="127.506" y="86.236" style="clip-path:url(#SVGID_1_);fill:#E1E1E1;" width="12.383" height="0.076"/>
		<rect x="127.506" y="86.16" style="clip-path:url(#SVGID_1_);fill:#E0E0E0;" width="12.383" height="0.076"/>
		<rect x="127.506" y="86.084" style="clip-path:url(#SVGID_1_);fill:#DFDFDF;" width="12.383" height="0.076"/>
		<rect x="127.506" y="86.008" style="clip-path:url(#SVGID_1_);fill:#DEDEDE;" width="12.383" height="0.076"/>
		<rect x="127.506" y="85.932" style="clip-path:url(#SVGID_1_);fill:#DDDDDD;" width="12.383" height="0.076"/>
		<rect x="127.506" y="85.856" style="clip-path:url(#SVGID_1_);fill:#DCDCDC;" width="12.383" height="0.076"/>
		<rect x="127.506" y="85.781" style="clip-path:url(#SVGID_1_);fill:#DBDBDB;" width="12.383" height="0.076"/>
		<rect x="127.506" y="85.705" style="clip-path:url(#SVGID_1_);fill:#DADADA;" width="12.383" height="0.076"/>
		<rect x="127.506" y="85.629" style="clip-path:url(#SVGID_1_);fill:#D9D9D9;" width="12.383" height="0.076"/>
		<rect x="127.506" y="85.553" style="clip-path:url(#SVGID_1_);fill:#D8D8D9;" width="12.383" height="0.076"/>
		<rect x="127.506" y="85.477" style="clip-path:url(#SVGID_1_);fill:#D7D7D8;" width="12.383" height="0.076"/>
		<rect x="127.506" y="85.401" style="clip-path:url(#SVGID_1_);fill:#D6D6D7;" width="12.383" height="0.076"/>
		<rect x="127.506" y="85.325" style="clip-path:url(#SVGID_1_);fill:#D5D5D6;" width="12.383" height="0.076"/>
		<rect x="127.506" y="85.249" style="clip-path:url(#SVGID_1_);fill:#D4D4D5;" width="12.383" height="0.076"/>
		<rect x="127.506" y="85.173" style="clip-path:url(#SVGID_1_);fill:#D3D3D4;" width="12.383" height="0.076"/>
		<rect x="127.506" y="85.097" style="clip-path:url(#SVGID_1_);fill:#D2D2D3;" width="12.383" height="0.076"/>
		<rect x="127.506" y="85.021" style="clip-path:url(#SVGID_1_);fill:#D1D1D2;" width="12.383" height="0.076"/>
		<rect x="127.506" y="84.945" style="clip-path:url(#SVGID_1_);fill:#D0D0D1;" width="12.383" height="0.076"/>
		<rect x="127.506" y="84.869" style="clip-path:url(#SVGID_1_);fill:#CFCFD0;" width="12.383" height="0.076"/>
		<rect x="127.506" y="84.793" style="clip-path:url(#SVGID_1_);fill:#CECECF;" width="12.383" height="0.076"/>
		<rect x="127.506" y="84.717" style="clip-path:url(#SVGID_1_);fill:#CDCDCE;" width="12.383" height="0.076"/>
		<rect x="127.506" y="84.641" style="clip-path:url(#SVGID_1_);fill:#CCCCCD;" width="12.383" height="0.076"/>
		<rect x="127.506" y="84.565" style="clip-path:url(#SVGID_1_);fill:#CBCBCC;" width="12.383" height="0.076"/>
		<rect x="127.506" y="84.489" style="clip-path:url(#SVGID_1_);fill:#CACACB;" width="12.383" height="0.076"/>
		<rect x="127.506" y="84.413" style="clip-path:url(#SVGID_1_);fill:#C9C9CA;" width="12.383" height="0.076"/>
		<rect x="127.506" y="84.337" style="clip-path:url(#SVGID_1_);fill:#C8C8C9;" width="12.383" height="0.076"/>
		<rect x="127.506" y="84.261" style="clip-path:url(#SVGID_1_);fill:#C7C7C8;" width="12.383" height="0.076"/>
		<rect x="127.506" y="84.185" style="clip-path:url(#SVGID_1_);fill:#C6C6C7;" width="12.383" height="0.076"/>
		<rect x="127.506" y="84.109" style="clip-path:url(#SVGID_1_);fill:#C5C5C6;" width="12.383" height="0.076"/>
		<rect x="127.506" y="84.033" style="clip-path:url(#SVGID_1_);fill:#C4C4C5;" width="12.383" height="0.076"/>
		<rect x="127.506" y="83.957" style="clip-path:url(#SVGID_1_);fill:#C3C3C4;" width="12.383" height="0.076"/>
		<rect x="127.506" y="83.881" style="clip-path:url(#SVGID_1_);fill:#C2C2C3;" width="12.383" height="0.076"/>
		<rect x="127.506" y="83.805" style="clip-path:url(#SVGID_1_);fill:#C1C1C2;" width="12.383" height="0.076"/>
		<rect x="127.506" y="83.729" style="clip-path:url(#SVGID_1_);fill:#C0C0C1;" width="12.383" height="0.076"/>
		<rect x="127.506" y="83.653" style="clip-path:url(#SVGID_1_);fill:#BFBFC0;" width="12.383" height="0.076"/>
		<rect x="127.506" y="83.577" style="clip-path:url(#SVGID_1_);fill:#BEBEBF;" width="12.383" height="0.076"/>
		<rect x="127.506" y="83.501" style="clip-path:url(#SVGID_1_);fill:#BDBDBE;" width="12.383" height="0.076"/>
		<rect x="127.506" y="83.425" style="clip-path:url(#SVGID_1_);fill:#BCBCBD;" width="12.383" height="0.076"/>
		<rect x="127.506" y="83.349" style="clip-path:url(#SVGID_1_);fill:#BBBBBC;" width="12.383" height="0.076"/>
		<rect x="127.506" y="83.273" style="clip-path:url(#SVGID_1_);fill:#BABABB;" width="12.383" height="0.076"/>
		<rect x="127.506" y="83.197" style="clip-path:url(#SVGID_1_);fill:#B9B9BA;" width="12.383" height="0.076"/>
		<rect x="127.506" y="83.121" style="clip-path:url(#SVGID_1_);fill:#B8B8B9;" width="12.383" height="0.076"/>
		<rect x="127.506" y="83.045" style="clip-path:url(#SVGID_1_);fill:#B7B7B8;" width="12.383" height="0.076"/>
		<rect x="127.506" y="82.969" style="clip-path:url(#SVGID_1_);fill:#B6B6B7;" width="12.383" height="0.076"/>
		<rect x="127.506" y="82.893" style="clip-path:url(#SVGID_1_);fill:#B5B5B6;" width="12.383" height="0.076"/>
		<rect x="127.506" y="82.817" style="clip-path:url(#SVGID_1_);fill:#B4B4B5;" width="12.383" height="0.076"/>
		<rect x="127.506" y="82.741" style="clip-path:url(#SVGID_1_);fill:#B3B3B4;" width="12.383" height="0.076"/>
		<rect x="127.506" y="82.665" style="clip-path:url(#SVGID_1_);fill:#B2B2B3;" width="12.383" height="0.076"/>
		<rect x="127.506" y="82.589" style="clip-path:url(#SVGID_1_);fill:#B0B1B2;" width="12.383" height="0.076"/>
		<rect x="127.506" y="82.513" style="clip-path:url(#SVGID_1_);fill:#AFB0B1;" width="12.383" height="0.076"/>
		<rect x="127.506" y="82.437" style="clip-path:url(#SVGID_1_);fill:#AEAFB0;" width="12.383" height="0.076"/>
		<rect x="127.506" y="82.361" style="clip-path:url(#SVGID_1_);fill:#ADAEAF;" width="12.383" height="0.076"/>
		<rect x="127.506" y="82.285" style="clip-path:url(#SVGID_1_);fill:#ACADAE;" width="12.383" height="0.076"/>
		<rect x="127.506" y="82.209" style="clip-path:url(#SVGID_1_);fill:#ABACAD;" width="12.383" height="0.076"/>
		<rect x="127.506" y="82.133" style="clip-path:url(#SVGID_1_);fill:#AAABAC;" width="12.383" height="0.076"/>
		<rect x="127.506" y="82.057" style="clip-path:url(#SVGID_1_);fill:#A9AAAB;" width="12.383" height="0.076"/>
		<rect x="127.506" y="81.981" style="clip-path:url(#SVGID_1_);fill:#A8A9AA;" width="12.383" height="0.076"/>
		<rect x="127.506" y="81.905" style="clip-path:url(#SVGID_1_);fill:#A7A8A9;" width="12.383" height="0.076"/>
		<rect x="127.506" y="81.829" style="clip-path:url(#SVGID_1_);fill:#A6A7A8;" width="12.383" height="0.076"/>
		<rect x="127.506" y="81.753" style="clip-path:url(#SVGID_1_);fill:#A5A6A7;" width="12.383" height="0.076"/>
		<rect x="127.506" y="81.677" style="clip-path:url(#SVGID_1_);fill:#A4A5A6;" width="12.383" height="0.076"/>
		<rect x="127.506" y="81.601" style="clip-path:url(#SVGID_1_);fill:#A3A4A5;" width="12.383" height="0.076"/>
		<rect x="127.506" y="81.525" style="clip-path:url(#SVGID_1_);fill:#A2A3A4;" width="12.383" height="0.076"/>
		<rect x="127.506" y="81.449" style="clip-path:url(#SVGID_1_);fill:#A1A2A3;" width="12.383" height="0.076"/>
		<rect x="127.506" y="81.373" style="clip-path:url(#SVGID_1_);fill:#A0A1A2;" width="12.383" height="0.076"/>
		<rect x="127.506" y="81.297" style="clip-path:url(#SVGID_1_);fill:#9FA0A1;" width="12.383" height="0.076"/>
		<rect x="127.506" y="81.221" style="clip-path:url(#SVGID_1_);fill:#9E9FA0;" width="12.383" height="0.076"/>
		<rect x="127.506" y="81.145" style="clip-path:url(#SVGID_1_);fill:#9D9E9F;" width="12.383" height="0.076"/>
		<rect x="127.506" y="81.069" style="clip-path:url(#SVGID_1_);fill:#9C9D9E;" width="12.383" height="0.076"/>
		<rect x="127.506" y="80.993" style="clip-path:url(#SVGID_1_);fill:#9B9C9D;" width="12.383" height="0.076"/>
		<rect x="127.506" y="80.918" style="clip-path:url(#SVGID_1_);fill:#9A9B9C;" width="12.383" height="0.076"/>
		<rect x="127.506" y="80.842" style="clip-path:url(#SVGID_1_);fill:#999A9B;" width="12.383" height="0.076"/>
		<rect x="127.506" y="80.766" style="clip-path:url(#SVGID_1_);fill:#98999A;" width="12.383" height="0.076"/>
		<rect x="127.506" y="80.69" style="clip-path:url(#SVGID_1_);fill:#979899;" width="12.383" height="0.076"/>
		<rect x="127.506" y="80.614" style="clip-path:url(#SVGID_1_);fill:#969798;" width="12.383" height="0.076"/>
		<rect x="127.506" y="80.538" style="clip-path:url(#SVGID_1_);fill:#959697;" width="12.383" height="0.076"/>
		<rect x="127.506" y="80.462" style="clip-path:url(#SVGID_1_);fill:#949596;" width="12.383" height="0.076"/>
		<rect x="127.506" y="80.386" style="clip-path:url(#SVGID_1_);fill:#939495;" width="12.383" height="0.076"/>
		<rect x="127.506" y="80.31" style="clip-path:url(#SVGID_1_);fill:#929394;" width="12.383" height="0.076"/>
		<rect x="127.506" y="80.234" style="clip-path:url(#SVGID_1_);fill:#919293;" width="12.383" height="0.076"/>
		<rect x="127.506" y="80.158" style="clip-path:url(#SVGID_1_);fill:#909192;" width="12.383" height="0.076"/>
		<rect x="127.506" y="80.082" style="clip-path:url(#SVGID_1_);fill:#8F9091;" width="12.383" height="0.076"/>
		<rect x="127.506" y="80.006" style="clip-path:url(#SVGID_1_);fill:#8E8F90;" width="12.383" height="0.076"/>
		<rect x="127.506" y="79.93" style="clip-path:url(#SVGID_1_);fill:#8D8E8F;" width="12.383" height="0.076"/>
		<rect x="127.506" y="79.854" style="clip-path:url(#SVGID_1_);fill:#8C8D8E;" width="12.383" height="0.076"/>
		<rect x="127.506" y="79.778" style="clip-path:url(#SVGID_1_);fill:#8B8C8D;" width="12.383" height="0.076"/>
		<rect x="127.506" y="79.702" style="clip-path:url(#SVGID_1_);fill:#8A8B8C;" width="12.383" height="0.076"/>
		<rect x="127.506" y="79.626" style="clip-path:url(#SVGID_1_);fill:#898A8C;" width="12.383" height="0.076"/>
		<rect x="127.506" y="79.55" style="clip-path:url(#SVGID_1_);fill:#88898B;" width="12.383" height="0.076"/>
		<rect x="127.506" y="79.474" style="clip-path:url(#SVGID_1_);fill:#87888A;" width="12.383" height="0.076"/>
		<rect x="127.506" y="79.398" style="clip-path:url(#SVGID_1_);fill:#868789;" width="12.383" height="0.076"/>
		<rect x="127.506" y="79.322" style="clip-path:url(#SVGID_1_);fill:#858688;" width="12.383" height="0.076"/>
		<rect x="127.506" y="79.246" style="clip-path:url(#SVGID_1_);fill:#848587;" width="12.383" height="0.076"/>
		<rect x="127.506" y="79.17" style="clip-path:url(#SVGID_1_);fill:#838486;" width="12.383" height="0.076"/>
		<rect x="127.506" y="79.094" style="clip-path:url(#SVGID_1_);fill:#828385;" width="12.383" height="0.076"/>
		<rect x="127.506" y="79.018" style="clip-path:url(#SVGID_1_);fill:#818284;" width="12.383" height="0.076"/>
		<rect x="127.506" y="78.942" style="clip-path:url(#SVGID_1_);fill:#808183;" width="12.383" height="0.076"/>
		<rect x="127.506" y="78.866" style="clip-path:url(#SVGID_1_);fill:#7F8082;" width="12.383" height="0.076"/>
		<rect x="127.506" y="78.79" style="clip-path:url(#SVGID_1_);fill:#7E7F81;" width="12.383" height="0.076"/>
		<rect x="127.506" y="78.714" style="clip-path:url(#SVGID_1_);fill:#7D7E80;" width="12.383" height="0.076"/>
		<rect x="127.506" y="78.638" style="clip-path:url(#SVGID_1_);fill:#7C7D7F;" width="12.383" height="0.076"/>
		<rect x="127.506" y="78.562" style="clip-path:url(#SVGID_1_);fill:#7B7C7E;" width="12.383" height="0.076"/>
		<rect x="127.506" y="78.486" style="clip-path:url(#SVGID_1_);fill:#7A7B7D;" width="12.383" height="0.076"/>
		<rect x="127.506" y="78.41" style="clip-path:url(#SVGID_1_);fill:#797A7C;" width="12.383" height="0.076"/>
		<rect x="127.506" y="78.334" style="clip-path:url(#SVGID_1_);fill:#78797B;" width="12.383" height="0.076"/>
		<rect x="127.506" y="78.258" style="clip-path:url(#SVGID_1_);fill:#77787A;" width="12.383" height="0.076"/>
		<rect x="127.506" y="78.182" style="clip-path:url(#SVGID_1_);fill:#767779;" width="12.383" height="0.076"/>
		<rect x="127.506" y="78.106" style="clip-path:url(#SVGID_1_);fill:#757678;" width="12.383" height="0.076"/>
		<rect x="127.506" y="78.03" style="clip-path:url(#SVGID_1_);fill:#747577;" width="12.383" height="0.076"/>
		<rect x="127.506" y="77.954" style="clip-path:url(#SVGID_1_);fill:#737476;" width="12.383" height="0.076"/>
		<rect x="127.506" y="77.878" style="clip-path:url(#SVGID_1_);fill:#727375;" width="12.383" height="0.076"/>
		<rect x="127.506" y="77.802" style="clip-path:url(#SVGID_1_);fill:#717274;" width="12.383" height="0.076"/>
		<rect x="127.506" y="77.726" style="clip-path:url(#SVGID_1_);fill:#707173;" width="12.383" height="0.076"/>
		<rect x="127.506" y="77.65" style="clip-path:url(#SVGID_1_);fill:#6F7072;" width="12.383" height="0.076"/>
		<rect x="127.506" y="77.574" style="clip-path:url(#SVGID_1_);fill:#6E6F71;" width="12.383" height="0.076"/>
		<rect x="127.506" y="77.498" style="clip-path:url(#SVGID_1_);fill:#6D6E70;" width="12.383" height="0.076"/>
		<rect x="127.506" y="77.422" style="clip-path:url(#SVGID_1_);fill:#6C6D6F;" width="12.383" height="0.076"/>
		<rect x="127.506" y="77.346" style="clip-path:url(#SVGID_1_);fill:#6B6C6E;" width="12.383" height="0.076"/>
		<rect x="127.506" y="77.27" style="clip-path:url(#SVGID_1_);fill:#6A6B6D;" width="12.383" height="0.076"/>
		<rect x="127.506" y="77.194" style="clip-path:url(#SVGID_1_);fill:#696A6C;" width="12.383" height="0.076"/>
		<rect x="127.506" y="77.118" style="clip-path:url(#SVGID_1_);fill:#68696B;" width="12.383" height="0.076"/>
		<rect x="127.506" y="77.042" style="clip-path:url(#SVGID_1_);fill:#67686A;" width="12.383" height="0.076"/>
		<rect x="127.506" y="76.966" style="clip-path:url(#SVGID_1_);fill:#666769;" width="12.383" height="0.076"/>
		<rect x="127.506" y="76.89" style="clip-path:url(#SVGID_1_);fill:#656668;" width="12.383" height="0.076"/>
		<rect x="127.506" y="76.814" style="clip-path:url(#SVGID_1_);fill:#646567;" width="12.383" height="0.076"/>
		<rect x="127.506" y="76.738" style="clip-path:url(#SVGID_1_);fill:#636466;" width="12.383" height="0.076"/>
		<rect x="127.506" y="76.21" style="clip-path:url(#SVGID_1_);fill:#636466;" width="12.383" height="0.529"/>
	</g>
	<circle class="st8" cx="29.596" cy="107.131" r="2.383"/>
	<path class="st194" d="M122.35,109.962c1.097-0.899,1.784-2.167,1.784-3.576V58.416c0-2.725-2.558-4.935-5.717-4.935H39.805
		c-1.365,0-2.616,0.414-3.599,1.103L122.35,109.962z"/>
	<g>
		<defs>
			<rect id="SVGID_38_" x="58.353" y="64.962" width="45.656" height="32.712"/>
		</defs>
		<clipPath id="SVGID_2_">
			<use xlink:href="#SVGID_38_"  style="overflow:visible;"/>
		</clipPath>
		<path style="clip-path:url(#SVGID_2_);fill:#0A1820;" d="M76.861,71.119c0.155,0,0.289,0.022,0.401,0.067
			c0.113,0.044,0.205,0.104,0.279,0.178c0.073,0.072,0.128,0.155,0.163,0.248c0.037,0.092,0.054,0.184,0.054,0.277h-0.445
			c0-0.102-0.039-0.186-0.119-0.253c-0.08-0.069-0.191-0.101-0.332-0.101c-0.058,0-0.116,0.006-0.171,0.017
			c-0.055,0.012-0.105,0.028-0.146,0.051c-0.044,0.022-0.077,0.051-0.102,0.085c-0.024,0.033-0.037,0.073-0.037,0.118
			c0,0.081,0.041,0.141,0.123,0.18c0.082,0.039,0.214,0.077,0.394,0.112c0.139,0.027,0.265,0.058,0.376,0.093
			c0.111,0.035,0.206,0.079,0.285,0.133c0.079,0.054,0.14,0.121,0.182,0.202c0.042,0.082,0.064,0.182,0.064,0.301
			c0,0.112-0.022,0.214-0.068,0.306c-0.045,0.091-0.109,0.168-0.193,0.233c-0.085,0.064-0.187,0.113-0.306,0.147
			c-0.119,0.033-0.253,0.049-0.401,0.049c-0.115,0-0.23-0.015-0.344-0.049c-0.115-0.032-0.218-0.082-0.309-0.148
			c-0.092-0.067-0.166-0.152-0.221-0.254c-0.056-0.103-0.084-0.225-0.084-0.366h0.445c0,0.07,0.015,0.13,0.047,0.18
			c0.031,0.051,0.072,0.093,0.122,0.126c0.049,0.034,0.104,0.06,0.165,0.076c0.061,0.017,0.121,0.026,0.179,0.026
			c0.063,0,0.126-0.006,0.189-0.017c0.062-0.011,0.119-0.03,0.168-0.055c0.049-0.026,0.09-0.058,0.121-0.099
			c0.03-0.038,0.045-0.086,0.045-0.143c0-0.036-0.008-0.071-0.025-0.101c-0.017-0.031-0.048-0.06-0.09-0.087
			c-0.043-0.025-0.1-0.05-0.171-0.073c-0.071-0.022-0.16-0.044-0.268-0.064c-0.107-0.02-0.214-0.045-0.318-0.076
			c-0.105-0.03-0.198-0.072-0.279-0.125c-0.08-0.053-0.146-0.12-0.197-0.203c-0.051-0.082-0.076-0.186-0.076-0.312
			c0-0.101,0.021-0.193,0.064-0.277c0.043-0.083,0.103-0.155,0.182-0.214c0.079-0.059,0.174-0.107,0.284-0.141
			C76.6,71.136,76.724,71.119,76.861,71.119"/>
		<path style="clip-path:url(#SVGID_2_);fill:#0A1820;" d="M86.128,72.833c0,0.105-0.017,0.201-0.051,0.285
			c-0.033,0.085-0.083,0.157-0.146,0.216c-0.064,0.06-0.142,0.107-0.233,0.139c-0.091,0.032-0.193,0.049-0.306,0.049h-1.14V71.18
			h1.08c0.237,0,0.413,0.056,0.53,0.168c0.117,0.113,0.175,0.268,0.175,0.467c0,0.098-0.019,0.187-0.06,0.264
			c-0.04,0.078-0.098,0.143-0.169,0.193c0.101,0.053,0.181,0.124,0.237,0.219C86.1,72.584,86.128,72.698,86.128,72.833
			 M84.697,71.584V72.1h0.635c0.076,0,0.141-0.023,0.194-0.07c0.052-0.047,0.079-0.11,0.079-0.189c0-0.078-0.025-0.141-0.072-0.187
			c-0.049-0.046-0.116-0.069-0.201-0.069H84.697z M85.672,72.817c0-0.099-0.029-0.175-0.089-0.228
			c-0.06-0.053-0.148-0.08-0.263-0.08h-0.624v0.605h0.635c0.043,0,0.084-0.005,0.125-0.014c0.04-0.009,0.077-0.024,0.109-0.048
			c0.033-0.024,0.059-0.055,0.078-0.091C85.663,72.922,85.672,72.875,85.672,72.817"/>
		<rect x="77.778" y="77.794" style="clip-path:url(#SVGID_2_);fill:#0A1820;" width="6.443" height="0.932"/>
		<polygon style="clip-path:url(#SVGID_2_);fill:#0A1820;" points="72.609,79.387 72.609,66.01 86.477,66.01 86.477,64.962 
			71.561,64.962 71.561,79.387 		"/>
		<polygon style="clip-path:url(#SVGID_2_);fill:#0A1820;" points="89.357,69.512 89.357,82.759 75.778,82.759 75.778,83.807 
			90.405,83.807 90.405,69.512 		"/>
		<path style="clip-path:url(#SVGID_2_);fill:#0A1820;" d="M68.202,95.411h-1.187v-0.443c-0.15,0.176-0.329,0.313-0.537,0.41
			c-0.207,0.097-0.44,0.146-0.696,0.146c-0.289,0-0.551-0.051-0.787-0.155c-0.235-0.104-0.436-0.248-0.602-0.433
			c-0.167-0.186-0.295-0.408-0.386-0.668c-0.091-0.261-0.137-0.551-0.137-0.871v-2.834h1.243v2.834c0,0.069,0.01,0.157,0.028,0.263
			c0.019,0.107,0.06,0.212,0.122,0.316c0.063,0.103,0.154,0.191,0.273,0.263c0.119,0.072,0.28,0.108,0.48,0.108
			c0.282,0,0.51-0.091,0.683-0.273c0.172-0.182,0.259-0.408,0.259-0.678v-2.834h1.243V95.411z"/>
		<path style="clip-path:url(#SVGID_2_);fill:#0A1820;" d="M72.363,91.673c-0.251-0.031-0.477-0.026-0.678,0.015
			c-0.2,0.04-0.373,0.136-0.517,0.287c-0.132,0.138-0.217,0.3-0.254,0.485c-0.038,0.185-0.057,0.375-0.057,0.569v2.382h-1.243
			v-4.849H70.8v0.48c0.201-0.245,0.438-0.415,0.711-0.508c0.273-0.094,0.558-0.117,0.852-0.066V91.673z"/>
		<polygon style="clip-path:url(#SVGID_2_);fill:#0A1820;" points="76.13,95.411 74.792,95.411 72.957,90.562 74.256,90.562 
			75.461,94.178 76.676,90.562 77.956,90.562 		"/>
		<path style="clip-path:url(#SVGID_2_);fill:#0A1820;" d="M79.792,93.471c0.081,0.302,0.23,0.537,0.447,0.707
			c0.216,0.169,0.472,0.254,0.767,0.254c0.207,0,0.403-0.046,0.589-0.137c0.185-0.091,0.331-0.234,0.438-0.428h1.327
			c-0.144,0.496-0.418,0.895-0.824,1.2c-0.405,0.304-0.911,0.457-1.521,0.457c-0.339,0-0.659-0.066-0.96-0.198
			c-0.301-0.132-0.565-0.313-0.791-0.542c-0.226-0.229-0.405-0.497-0.536-0.805c-0.132-0.307-0.198-0.637-0.198-0.988
			c0-0.351,0.066-0.683,0.198-0.993c0.131-0.311,0.31-0.581,0.536-0.81c0.227-0.229,0.49-0.411,0.791-0.546
			c0.302-0.135,0.621-0.202,0.96-0.202c0.357,0,0.695,0.067,1.012,0.202c0.316,0.135,0.589,0.333,0.815,0.594
			c0.226,0.261,0.395,0.578,0.508,0.956c0.113,0.376,0.147,0.803,0.103,1.28H79.792z M82.221,92.455
			c-0.075-0.282-0.221-0.506-0.438-0.673c-0.216-0.166-0.475-0.25-0.777-0.25c-0.282,0-0.531,0.083-0.743,0.25
			c-0.214,0.167-0.365,0.391-0.453,0.673H82.221z"/>
		<path style="clip-path:url(#SVGID_2_);fill:#0A1820;" d="M86.891,96.296c-0.119,0.314-0.254,0.565-0.405,0.754
			c-0.15,0.188-0.318,0.331-0.503,0.428c-0.185,0.097-0.39,0.157-0.612,0.178c-0.223,0.022-0.46,0.024-0.711,0.005v-1.13
			c0.157,0.012,0.293,0.01,0.41-0.01c0.116-0.019,0.218-0.053,0.306-0.104c0.087-0.05,0.164-0.12,0.23-0.211
			c0.066-0.091,0.124-0.206,0.174-0.344l0.142-0.368l-1.874-4.933h1.318l1.187,3.502l1.158-3.502h1.328L86.891,96.296z"/>
		<path style="clip-path:url(#SVGID_2_);fill:#0A1820;" d="M98.162,90.44c0.338,0,0.656,0.064,0.951,0.193
			c0.295,0.128,0.554,0.307,0.777,0.537c0.222,0.229,0.398,0.499,0.527,0.809c0.129,0.311,0.193,0.648,0.193,1.012
			c0,0.365-0.064,0.7-0.193,1.008c-0.129,0.307-0.305,0.574-0.527,0.8c-0.223,0.227-0.483,0.404-0.777,0.532
			c-0.295,0.129-0.612,0.193-0.951,0.193c-0.339,0-0.656-0.064-0.951-0.193c-0.295-0.128-0.553-0.306-0.772-0.532
			c-0.22-0.226-0.393-0.492-0.522-0.8c-0.128-0.308-0.193-0.643-0.193-1.008c0-0.364,0.065-0.701,0.193-1.012
			c0.129-0.311,0.303-0.58,0.522-0.809c0.22-0.23,0.477-0.408,0.772-0.537C97.506,90.504,97.823,90.44,98.162,90.44 M98.166,94.384
			c0.164,0,0.318-0.032,0.463-0.098c0.145-0.066,0.272-0.16,0.382-0.282c0.11-0.122,0.198-0.268,0.261-0.438
			c0.063-0.169,0.094-0.358,0.094-0.565c0-0.207-0.031-0.399-0.094-0.574c-0.063-0.175-0.15-0.327-0.261-0.452
			c-0.11-0.126-0.237-0.223-0.382-0.292c-0.145-0.069-0.299-0.103-0.463-0.103s-0.32,0.035-0.467,0.103
			c-0.148,0.069-0.277,0.166-0.383,0.292c-0.107,0.125-0.193,0.277-0.255,0.452c-0.063,0.176-0.094,0.367-0.094,0.574
			c0,0.207,0.031,0.395,0.094,0.565c0.063,0.169,0.148,0.316,0.255,0.438c0.107,0.123,0.235,0.216,0.383,0.282
			C97.847,94.352,98.002,94.384,98.166,94.384"/>
		<path style="clip-path:url(#SVGID_2_);fill:#0A1820;" d="M104.009,95.402c-0.358,0.037-0.672,0.015-0.942-0.066
			c-0.27-0.082-0.496-0.214-0.678-0.395c-0.182-0.182-0.32-0.407-0.414-0.673c-0.094-0.267-0.141-0.567-0.141-0.9v-1.704h-0.583
			v-1.101h0.583v-1.234h1.243v1.234h0.876v1.101h-0.876v1.714c0,0.338,0.077,0.578,0.231,0.715c0.153,0.138,0.388,0.198,0.702,0.179
			V95.402z"/>
		<path style="clip-path:url(#SVGID_2_);fill:#0A1820;" d="M62.614,93.231c-0.104-0.172-0.247-0.314-0.429-0.424
			c-0.182-0.11-0.4-0.197-0.655-0.263c-0.254-0.066-0.531-0.125-0.833-0.175c-0.302-0.05-0.537-0.103-0.707-0.16
			c-0.169-0.057-0.254-0.148-0.254-0.273c0-0.088,0.063-0.175,0.189-0.259c0.125-0.085,0.332-0.127,0.621-0.127
			c0.232,0,0.416,0.039,0.551,0.118c0.135,0.079,0.221,0.174,0.259,0.288h1.29c-0.038-0.226-0.116-0.434-0.236-0.622
			c-0.119-0.188-0.272-0.349-0.456-0.48c-0.185-0.132-0.397-0.234-0.636-0.306c-0.237-0.072-0.496-0.109-0.772-0.109
			c-0.245,0-0.467,0.023-0.668,0.067v1.021h-1.316c-0.058,0.155-0.088,0.31-0.088,0.465c0,0.27,0.064,0.492,0.194,0.664
			c0.129,0.173,0.293,0.313,0.496,0.419c0.201,0.107,0.42,0.187,0.657,0.24c0.236,0.054,0.464,0.096,0.684,0.127
			c0.214,0.031,0.388,0.064,0.52,0.099c0.132,0.035,0.236,0.071,0.312,0.109c0.075,0.037,0.125,0.082,0.15,0.132
			c0.026,0.051,0.038,0.11,0.038,0.18c0,0.144-0.083,0.252-0.25,0.324c-0.166,0.072-0.375,0.108-0.626,0.108
			c-0.094,0-0.193-0.01-0.297-0.028c-0.103-0.019-0.202-0.052-0.296-0.099c-0.094-0.048-0.18-0.106-0.259-0.175
			c-0.079-0.069-0.14-0.156-0.184-0.263h-1.262c0.037,0.263,0.121,0.499,0.25,0.706c0.128,0.207,0.293,0.384,0.494,0.532
			c0.2,0.148,0.433,0.26,0.696,0.339c0.264,0.078,0.549,0.117,0.857,0.117c0.307,0,0.591-0.04,0.851-0.122
			c0.26-0.082,0.483-0.194,0.669-0.34c0.187-0.144,0.334-0.317,0.44-0.518c0.107-0.2,0.159-0.42,0.159-0.659
			C62.768,93.622,62.717,93.405,62.614,93.231"/>
		<path style="clip-path:url(#SVGID_2_);fill:#0A1820;" d="M94.692,91.982c-0.123-0.311-0.287-0.58-0.494-0.806
			c-0.207-0.227-0.451-0.404-0.73-0.533s-0.579-0.194-0.899-0.194c-0.283,0-0.545,0.049-0.786,0.147
			c-0.242,0.099-0.454,0.239-0.636,0.423l-0.006-1.714h-1.247v4.604h1.236v1.027c0.178,0.178,0.381,0.319,0.612,0.418
			c0.252,0.107,0.526,0.162,0.821,0.162c0.321,0,0.621-0.065,0.902-0.194c0.28-0.128,0.524-0.306,0.732-0.533
			c0.207-0.226,0.372-0.493,0.496-0.802c0.123-0.307,0.184-0.641,0.184-0.999C94.876,92.629,94.814,92.294,94.692,91.982
			 M93.533,93.536c-0.066,0.166-0.155,0.309-0.269,0.432c-0.114,0.121-0.246,0.218-0.397,0.286
			c-0.151,0.069-0.312,0.104-0.482,0.104c-0.17,0-0.331-0.037-0.482-0.109c-0.151-0.072-0.284-0.169-0.397-0.291
			c-0.113-0.122-0.203-0.266-0.269-0.431c-0.066-0.167-0.099-0.343-0.099-0.53c0-0.194,0.033-0.376,0.099-0.544
			c0.066-0.169,0.156-0.316,0.269-0.441c0.114-0.125,0.246-0.224,0.397-0.295c0.152-0.072,0.312-0.108,0.482-0.108
			c0.17,0,0.331,0.036,0.482,0.108c0.152,0.071,0.284,0.168,0.397,0.29c0.114,0.122,0.203,0.269,0.269,0.441
			c0.066,0.172,0.1,0.356,0.1,0.549C93.633,93.19,93.599,93.37,93.533,93.536"/>
	</g>
</g>
</svg>
