<?xml version="1.0" encoding="utf-8"?>
<!-- Generator: Adobe Illustrator 17.0.0, SVG Export Plug-In . SVG Version: 6.00 Build 0)  -->
<svg version="1.1" id="Layer_1" xmlns="http://www.w3.org/2000/svg" xmlns:xlink="http://www.w3.org/1999/xlink" x="0px" y="0px"
	 width="728.5px" height="300px" viewBox="0 0 728.5 1031.81" style="enable-background:new 0 0 728.5 1031.81;"
	 xml:space="preserve">

	 <style type="text/css">

	
</style>

<g id="g1">
	<path class="st0" d="M687.097,458.475v-3.521h11.17l-7.042-13.234h-4.128v-50.024H562.038v50.024h-4.25l-6.921,13.234h11.17v3.521
		h-11.17v74.307h147.4v-74.307H687.097z M565.195,394.853H683.94v63.622H565.195V394.853z"/>
	<rect x="608.905" y="408.33" class="st0" width="61.558" height="3.157"/>
	<rect x="608.905" y="425.328" class="st0" width="61.558" height="3.157"/>
	<rect x="608.905" y="442.327" class="st0" width="61.558" height="3.157"/>
	<path class="st0" d="M144.85,409.18h-47.96c-8.621,0-15.663,7.042-15.663,15.663v2.307l-12.506-8.863
		c-1.214-0.85-2.55-1.336-4.007-1.336c-1.7,0-3.157,0.607-4.25,1.821c-1.093,1.093-1.7,2.671-1.7,4.371v28.776H38.368
		c-8.621,0-15.663,7.042-15.663,15.663v47.96c0,8.621,7.042,15.663,15.663,15.663h47.838c8.621,0,15.663-7.042,15.663-15.663v-2.307
		l12.506,8.863c1.214,0.85,2.55,1.336,4.007,1.336c1.7,0,3.157-0.607,4.25-1.821c1.093-1.093,1.7-2.671,1.7-4.371v-28.776h20.277
		c8.621,0,15.663-7.042,15.663-15.663v-47.96C160.513,416.222,153.471,409.18,144.85,409.18z M100.169,501.821
		c-1.214-0.85-2.914-0.971-4.25-0.243c-1.336,0.728-2.186,2.185-2.186,3.642v10.32c0,4.128-3.278,7.406-7.406,7.406h-47.96
		c-4.128,0-7.406-3.278-7.406-7.406v-47.838c0-4.128,3.278-7.406,7.406-7.406h47.838c4.128,0,7.406,3.278,7.406,7.406v9.956
		c0,1.578,0.85,2.914,2.185,3.643c1.336,0.729,3.035,0.607,4.25-0.243l16.027-11.292v43.26L100.169,501.821z"/>
	<path class="st0" d="M289.822,527.925h28.169v-11.292h-28.169V527.925z M304.513,519.669c1.336,0,2.307,1.093,2.307,2.307
		c0.121,1.336-0.971,2.307-2.307,2.307s-2.307-1.093-2.307-2.307C302.206,520.64,303.299,519.669,304.513,519.669z"/>
	<path class="st0" d="M355.508,516.634h-28.169v11.292h28.169V516.634z M342.152,524.283c-1.336,0-2.307-1.093-2.307-2.307
		c0-1.336,1.093-2.307,2.307-2.307c1.336,0,2.307,1.093,2.307,2.307C344.459,523.311,343.488,524.283,342.152,524.283z"/>
	<path class="st0" d="M289.7,507.284h65.808v-11.292H289.7V507.284z M321.511,499.028c1.336,0,2.307,1.093,2.307,2.307
		s-1.093,2.307-2.307,2.307c-1.336,0-2.307-1.093-2.307-2.307C319.204,499.999,320.297,499.028,321.511,499.028z"/>
	<path class="st0" d="M280.351,529.989v5.585v5.585h5.585v-5.585h33.875v5.585h5.585v-5.585h33.875v5.585h5.585v-5.585v-5.585
		v-41.282h-84.506V529.989z M357.451,529.868h-31.933v-15.056h31.933V529.868z M287.879,494.171h69.572v15.056h-69.572V494.171z
		 M287.879,514.812h31.933v15.056h-31.933V514.812z"/>
	<polygon class="st0" points="280.351,486.644 364.857,486.644 368.621,482.88 276.587,482.88 	"/>
	<polygon class="st0" points="312.284,471.588 312.284,477.295 300.992,477.295 300.992,480.937 344.216,480.937 344.216,477.295 
		332.924,477.295 332.924,471.588 	"/>
	<path class="st0" d="M357.451,434.07h-69.572v35.697h69.572V434.07z M351.744,464.06h-58.28v-24.405h58.28V464.06z"/>
	<path class="st0" d="M399.704,533.025h-8.499h-2.185h-4.128h-2.185h-8.499c-1.7,0-3.157,1.821-3.157,4.007
		c0,1.943,1.093,3.642,2.55,4.007c0.243,0,0.364,0.121,0.607,0.121h25.497c0.243,0,0.486,0,0.607-0.121
		c1.457-0.364,2.55-2.064,2.55-4.007C402.861,534.846,401.404,533.025,399.704,533.025z"/>
	<polygon class="st0" points="404.318,368.505 401.039,368.505 400.311,368.505 398.854,368.505 375.177,368.505 373.72,368.505 
		372.992,368.505 369.714,368.505 361.943,413.672 412.088,413.672 	"/>
	<path class="st0" d="M392.297,436.499c0.607,0,1.093-0.607,1.093-1.336v-2.671v-2.671v-2.671c0-0.729-0.486-1.336-1.093-1.336
		c-0.607,0-1.093,0.607-1.093,1.336v2.671h-2.185v-13.477h-4.128v114.01h4.25v-97.862h2.185v2.671
		C391.205,435.891,391.69,436.499,392.297,436.499z"/>
	<polygon class="st0" points="425.444,515.055 411.602,515.055 413.302,526.225 436.614,526.225 438.314,515.055 427.265,515.055 	
		"/>
	<polygon class="st0" points="433.579,503.885 431.879,503.885 430.908,503.885 430.058,503.885 428.844,503.885 427.751,503.885 
		426.658,503.885 423.501,503.885 422.53,503.885 420.587,503.885 419.252,503.885 417.309,503.885 409.903,503.885 411.36,513.234 
		424.23,513.234 428.115,513.234 438.557,513.234 440.014,503.885 435.643,503.885 	"/>
	<polygon class="st0" points="415.609,541.16 434.307,541.16 436.25,528.047 413.667,528.047 	"/>
	<path class="st0" d="M440.014,475.352c0,0-1.093,1.336-2.307,4.492c0.486-5.585,0.121-9.106,0-10.32
		c1.336-4.614,2.914-9.228,5.221-13.113c0,0-8.014,8.135-11.535,34.604h-0.486c0.121-2.307,0.243-4.614,0.486-7.042
		c0.607-3.642,1.578-7.164,3.035-10.32c0,0-1.093,1.336-2.307,4.492c0.85-5.828,2.307-11.777,4.492-16.877
		c0,0-6.192,7.771-8.013,29.747h-1.821c0-0.364,0-0.85,0-1.214c0.243-9.471,1.578-21.126,5.707-30.354c0,0-2.671,3.4-5.099,12.142
		c0.728-7.285,2.307-14.934,5.099-21.491c0,0-8.135,10.32-8.621,40.917h-1.093c-0.121-0.729-0.243-1.336-0.364-2.064
		c0.243-9.713,1.457-21.855,5.707-31.447c0,0-4.371,5.585-6.921,20.519c-0.486-7.528-0.243-15.663,1.457-22.948
		c0,0-5.221,10.199-2.793,34.482c0,0.486-0.121,0.971-0.121,1.457h-0.971c-0.486-2.185-0.971-4.128-1.457-6.071
		c2.064-17.848,0-25.133,0-25.133c0.486,6.071,0.121,12.749-0.607,19.062c0.607-22.341-4.614-31.326-4.614-31.326
		c2.671,8.985,2.914,19.305,2.307,28.169c-4.128-11.413-8.378-15.056-8.378-15.056c3.642,5.828,6.192,13.113,7.892,20.155
		c-0.364,4.007-0.85,7.406-1.336,10.078h-8.378l2.914,11.17h1.457h3.764h2.064h2.914h1.943h1.214h0.971h1.093h1.093h1.336h1.821
		h1.214h1.821h0.243h0.121h0.607h1.7h0.971h0.121h2.064h7.164l2.914-11.17h-9.47C436.857,485.551,437.95,480.087,440.014,475.352z
		 M434.065,489.922c0.486-5.949,1.578-13.113,3.4-20.034C437.343,476.687,435.886,483.608,434.065,489.922z"/>
	<path class="st0" d="M595.185,427.635c-1.457-1.214-3.521-2.064-5.707-2.793v-10.442c1.7,0.364,3.157,1.214,4.007,2.671l2.55-1.821
		c-1.457-2.185-4.007-3.521-6.678-4.007v-5.464H586.2v5.464c-1.214,0.121-2.307,0.486-3.4,1.093c-2.428,1.214-4.007,3.4-4.371,5.949
		c-0.364,2.186,0.364,4.25,1.821,5.707c1.457,1.336,3.642,2.307,5.949,3.157v12.263c-2.428-0.243-4.735-1.336-5.949-3.035
		l-2.55,1.821c1.821,2.428,5.099,4.007,8.499,4.371v4.25h3.157v-4.371c0.85-0.121,1.821-0.364,2.55-0.607
		c3.278-1.214,5.585-3.885,6.071-6.799C598.584,432.128,597.491,429.578,595.185,427.635z M586.2,423.628
		c-1.457-0.486-2.793-1.214-3.643-1.943c-0.729-0.728-1.093-1.821-0.971-3.035c0.243-1.457,1.214-2.793,2.671-3.643
		c0.607-0.364,1.336-0.607,1.943-0.728V423.628z M595.063,434.313c-0.243,1.821-1.821,3.521-4.128,4.371
		c-0.486,0.243-0.971,0.364-1.457,0.364v-10.927c1.457,0.607,2.793,1.214,3.643,1.821
		C594.699,431.278,595.306,432.856,595.063,434.313z"/>
</g>
<g id="g2">
	<path class="st1" d="M237.248,443.419c-0.971-0.971-2.428-1.578-3.885-1.578c-1.457,0-2.914,0.607-3.885,1.578
		c-2.185,2.186-2.185,5.707,0,7.892l5.342,5.342h-26.833c-3.035,0-5.585,2.428-5.585,5.585c0,3.035,2.428,5.585,5.585,5.585h26.833
		l-5.342,5.342c-1.093,1.093-1.578,2.428-1.578,3.885s0.607,2.914,1.578,3.885c1.093,1.093,2.428,1.578,3.885,1.578
		c1.457,0,2.914-0.607,3.885-1.578l14.813-14.813c1.093-1.093,1.578-2.428,1.578-3.885c0-1.578-0.607-3.035-1.578-4.007
		L237.248,443.419z"/>
	<path class="st1" d="M523.184,462.239c0-1.578-0.607-3.035-1.7-4.007l-14.691-14.813c-0.971-0.971-2.428-1.578-3.885-1.578
		c-1.457,0-2.914,0.607-3.885,1.578c-2.185,2.186-2.185,5.707,0,7.892l5.342,5.342h-26.833c-3.035,0-5.585,2.428-5.585,5.585
		c0,3.035,2.428,5.585,5.585,5.585h26.833l-5.342,5.342c-1.093,1.093-1.578,2.428-1.578,3.885s0.607,2.914,1.578,3.885
		c1.093,1.093,2.428,1.578,3.885,1.578c1.457,0,2.914-0.607,3.885-1.578l14.813-14.813
		C522.699,465.031,523.184,463.696,523.184,462.239z"/>
	<path class="st1" d="M54.88,591.183c-4.371-1.7-6.192-2.914-6.192-5.342c0-1.821,1.578-3.885,5.342-3.885
		c3.035,0,5.342,0.971,6.435,1.578l1.457-4.735c-1.7-0.85-4.25-1.578-7.771-1.578c-7.042,0-11.413,4.007-11.413,9.228
		c0,4.614,3.4,7.406,8.742,9.349c4.128,1.457,5.707,2.914,5.707,5.342c0,2.55-2.064,4.371-5.828,4.371
		c-3.035,0-5.828-0.971-7.771-2.064l-1.336,4.978c1.821,1.093,5.342,2.064,8.742,2.064c8.378,0,12.263-4.492,12.263-9.713
		C63.258,596.161,60.466,593.247,54.88,591.183z"/>
	<path class="st1" d="M68.6,601.868c0,3.157,0.607,5.221,1.821,6.556c1.093,1.214,2.914,1.943,5.099,1.943
		c1.821,0,3.4-0.243,4.25-0.607l-0.121-4.492c-0.486,0.121-1.336,0.243-2.307,0.243c-2.307,0-3.035-1.457-3.035-4.25v-10.32h5.585
		v-4.371h-5.585v-6.678l-5.707,1.457v5.221h-3.4v4.371h3.4V601.868z"/>
	<path class="st1" d="M82.32,603.568c0,3.521,2.55,6.921,7.285,6.921c3.035,0,5.464-1.336,6.921-3.157h0.121l0.364,2.55v0.121h5.342
		c-0.243-1.457-0.364-3.521-0.364-5.585v-8.378c0-5.099-2.185-9.835-9.592-9.835c-3.642,0-6.678,0.971-8.378,2.064l1.093,3.885
		c1.578-0.971,4.007-1.7,6.314-1.7c4.128,0,4.735,2.428,4.735,4.007v0.364C87.541,594.704,82.32,597.74,82.32,603.568z
		 M96.283,598.468h0.121v3.278c0,0.486-0.121,0.85-0.243,1.336c-0.607,1.578-2.307,3.157-4.614,3.157c-1.943,0-3.4-1.093-3.4-3.4
		C88.148,599.318,92.155,598.347,96.283,598.468z"/>
	<path class="st1" d="M113.039,591.062h-0.243l-0.243-4.492h-5.099c0.243,2.064,0.243,4.371,0.243,7.528h0v15.784h5.828v-12.02
		c0-0.728,0.121-1.336,0.243-1.821c0.486-2.671,2.428-4.492,5.221-4.492c0.728,0,1.214,0.121,1.7,0.243v-5.585
		c-0.486-0.121-0.729-0.121-1.336-0.121C116.924,586.084,114.132,587.784,113.039,591.062z"/>
	<path class="st1" d="M126.395,601.868c0,3.157,0.607,5.221,1.821,6.556c1.093,1.214,2.914,1.943,5.099,1.943
		c1.821,0,3.4-0.243,4.25-0.607l-0.121-4.492c-0.486,0.121-1.336,0.243-2.307,0.243c-2.307,0-3.035-1.457-3.035-4.25v-10.32h5.585
		v-4.371h-5.585v-6.678l-5.707,1.457v5.221h-3.4v4.371h3.4V601.868z"/>
	<path class="st1" d="M169.133,596.04c0-5.099-2.185-9.835-9.592-9.835c-3.643,0-6.678,0.971-8.378,2.064l1.093,3.885
		c1.578-0.971,4.007-1.7,6.314-1.7c4.128,0,4.735,2.428,4.735,4.007v0.364c-8.621-0.121-13.841,2.914-13.841,8.742
		c0,3.521,2.55,6.921,7.285,6.921c3.035,0,5.464-1.336,6.921-3.157h0.121l0.364,2.55v0.121h5.342
		c-0.243-1.457-0.364-3.521-0.364-5.585V596.04z M163.548,601.747c0,0.486-0.121,0.85-0.243,1.336
		c-0.607,1.578-2.307,3.157-4.614,3.157c-1.943,0-3.4-1.093-3.4-3.4c0-3.521,4.007-4.492,8.135-4.371h0.121V601.747z"/>
	<path class="st1" d="M14.57,644c-0.607,2.064-1.093,3.885-1.578,5.828H12.87c-0.486-1.943-0.85-3.764-1.578-5.828l-3.764-11.777
		H1.214l8.621,23.312h5.707l8.863-23.312h-6.192L14.57,644z"/>
	<path class="st1" d="M30.476,622.63c-1.943,0-3.278,1.336-3.278,3.157s1.336,3.157,3.278,3.157c2.064,0,3.4-1.336,3.4-3.157
		S32.661,622.509,30.476,622.63z"/>
	<rect x="27.683" y="632.222" class="st1" width="5.949" height="23.312"/>
	<path class="st1" d="M60.951,621.659h-5.949v13.234H54.88c-1.093-1.7-3.4-3.035-6.556-3.035c-5.585,0-10.442,4.614-10.442,12.385
		c0,7.164,4.371,11.899,9.956,11.899c3.4,0,6.314-1.7,7.649-4.25h0.121l0.243,3.643h5.342c-0.121-1.578-0.243-4.128-0.243-6.556
		V621.659z M55.123,645.457c0,0.607-0.121,1.214-0.243,1.7c-0.607,2.55-2.671,4.128-5.099,4.128c-3.764,0-5.828-3.157-5.828-7.406
		c0-4.25,2.064-7.649,5.828-7.649c2.671,0,4.614,1.821,5.099,4.128c0.121,0.486,0.121,1.093,0.121,1.578h0.121V645.457z"/>
	<path class="st1" d="M76.614,631.737c-7.528,0-11.413,6.071-11.413,12.506c0,7.164,4.492,11.777,12.02,11.777
		c3.4,0,6.071-0.607,8.135-1.457l-0.85-4.007c-1.7,0.729-3.764,1.093-6.435,1.093c-3.764,0-7.042-1.821-7.164-6.071v-0.121h15.541
		c0.121-0.486,0.243-1.336,0.243-2.428C86.692,637.929,84.142,631.737,76.614,631.737z M70.786,641.45
		c0.243-2.428,1.821-5.707,5.464-5.707c4.007,0,4.857,3.521,4.857,5.707H70.786z"/>
	<path class="st1" d="M101.504,631.615c-7.042,0-12.02,4.735-12.02,12.385c0,7.528,5.099,12.02,11.656,12.02
		c5.828,0,11.899-3.764,11.899-12.384C113.039,636.593,108.425,631.737,101.504,631.615z M101.383,651.77
		c-3.643,0-5.828-3.4-5.828-7.892c0-3.885,1.578-7.892,5.949-7.892c4.007,0,5.585,4.128,5.585,7.771
		C107.089,648.492,104.783,651.77,101.383,651.77z"/>
	<path class="st1" d="M138.536,636.35c2.186,0,3.521,0.364,4.492,0.85l1.093-4.371c-1.336-0.607-3.521-1.093-5.707-1.093
		c-8.256,0-12.992,5.342-12.992,12.385c0,7.285,4.735,11.899,12.02,11.899c2.914,0,5.342-0.607,6.557-1.214l-0.85-4.25
		c-1.093,0.364-2.55,0.85-4.614,0.85c-4.007,0-7.164-2.793-7.164-7.528C131.373,639.629,134.044,636.35,138.536,636.35z"/>
	<path class="st1" d="M160.877,631.615c-1.457,0-2.914,0.364-4.007,1.093c-1.214,0.607-2.185,1.578-2.914,2.671h-0.121v-13.841
		h-5.828v33.875h5.949V641.45c0-0.729,0-1.336,0.243-1.821c0.607-1.7,2.185-3.278,4.492-3.278c3.278,0,4.492,2.55,4.492,5.949
		v13.113h5.828v-13.72C169.012,634.286,164.884,631.615,160.877,631.615z"/>
	<path class="st1" d="M192.81,641.693c0-5.099-2.185-9.835-9.592-9.835c-3.642,0-6.678,0.971-8.378,2.064l1.093,3.885
		c1.578-0.971,4.007-1.7,6.314-1.7c4.128,0,4.735,2.428,4.735,4.007v0.364c-8.621-0.121-13.841,2.914-13.841,8.742
		c0,3.521,2.55,6.921,7.285,6.921c3.035,0,5.464-1.336,6.921-3.157h0.121l0.364,2.55v0.121h5.342
		c-0.243-1.457-0.364-3.521-0.364-5.585V641.693z M187.103,647.399c0,0.486-0.121,0.85-0.243,1.336
		c-0.607,1.578-2.307,3.157-4.614,3.157c-1.943,0-3.4-1.093-3.4-3.4c0-3.521,4.007-4.492,8.135-4.371h0.121V647.399z"/>
	<path class="st1" d="M204.951,625.544l-5.707,1.457v5.221h-3.4v4.371h3.4v10.927c0,3.157,0.607,5.221,1.821,6.557
		c1.093,1.214,2.914,1.943,5.1,1.943c1.821,0,3.4-0.243,4.25-0.607l-0.121-4.492c-0.486,0.121-1.336,0.243-2.307,0.243
		c-2.307,0-3.035-1.457-3.035-4.25v-10.32h5.585v-4.371h-5.585V625.544z"/>
	<path class="st1" d="M293.828,605.51c-3.035,0-5.828-0.971-7.771-2.064l-1.336,4.978c1.821,1.093,5.342,2.064,8.742,2.064
		c8.378,0,12.263-4.492,12.263-9.713c0-4.614-2.793-7.528-8.378-9.592c-4.371-1.7-6.192-2.914-6.192-5.342
		c0-1.821,1.578-3.885,5.342-3.885c3.035,0,5.342,0.971,6.435,1.578l1.457-4.735c-1.7-0.85-4.25-1.578-7.771-1.578
		c-7.042,0-11.413,4.007-11.413,9.228c0,4.614,3.4,7.406,8.742,9.349c4.128,1.457,5.707,2.914,5.707,5.342
		C299.656,603.689,297.592,605.51,293.828,605.51z"/>
	<path class="st1" d="M320.904,590.698c3.278,0,4.492,2.55,4.492,5.949v13.113h5.949v-13.72c0-7.406-4.128-10.078-8.135-10.078
		c-1.457,0-2.914,0.364-4.007,1.093c-1.214,0.607-2.185,1.578-2.914,2.671h-0.121v-13.841h-5.949h0v33.875h5.949v-13.963
		c0-0.729,0-1.336,0.243-1.821C317.019,592.276,318.597,590.698,320.904,590.698z"/>
	<path class="st1" d="M347.737,585.962c-7.042,0-12.02,4.735-12.02,12.384c0,7.528,5.099,12.02,11.656,12.02
		c5.828,0,11.899-3.764,11.899-12.384C359.272,590.941,354.537,586.084,347.737,585.962z M347.494,606.118
		c-3.642,0-5.828-3.4-5.828-7.892c0-3.885,1.7-7.892,5.949-7.892c4.007,0,5.585,4.128,5.585,7.771
		C353.201,602.839,350.894,606.118,347.494,606.118z"/>
	<path class="st1" d="M386.833,596.89c-0.728,2.671-1.214,5.221-1.578,7.771h-0.121c-0.486-2.55-1.093-5.099-1.821-7.771
		l-2.914-10.32h-4.735l-3.035,10.563c-0.728,2.428-1.457,4.978-1.943,7.528h-0.121c-0.364-2.55-0.971-5.099-1.457-7.528
		l-2.428-10.563h-6.071l6.921,23.312h5.464l2.914-9.471c0.729-2.185,1.336-4.492,1.821-7.406h0.121
		c0.607,2.793,1.093,4.978,1.821,7.406l2.793,9.471h5.464l7.285-23.312h-5.828L386.833,596.89z"/>
	<path class="st1" d="M416.095,610.489c4.128,0,6.435-2.307,7.406-4.007h0.121l0.243,3.521h5.221
		c-0.121-1.943-0.243-4.25-0.243-7.042h0v-16.513h-5.828v14.084c0,0.729-0.121,1.336-0.364,1.821
		c-0.607,1.457-2.186,3.157-4.492,3.157c-3.157,0-4.371-2.428-4.371-6.314V586.57h-5.828v13.72
		C407.96,607.939,411.845,610.489,416.095,610.489z"/>
	<path class="st1" d="M440.378,606.239c-2.064,0-4.614-0.85-5.949-1.7l-1.336,4.371c1.7,0.85,4.25,1.578,7.042,1.578
		c6.192,0,9.47-3.035,9.47-7.285c0-3.521-1.943-5.585-6.192-7.164c-2.914-1.093-4.007-1.821-4.007-3.278
		c0-1.457,1.214-2.428,3.278-2.428s4.007,0.728,4.978,1.336l1.093-4.128c-1.336-0.607-3.642-1.336-6.192-1.336
		c-5.342,0-8.742,3.157-8.742,7.285c0,2.793,1.943,5.221,6.435,6.799c2.914,0.971,3.885,1.821,3.885,3.4
		C444.142,605.146,442.928,606.239,440.378,606.239z"/>
	<path class="st1" d="M278.651,644.607c-0.364,1.578-0.85,3.278-1.214,4.614h-0.121c-0.364-1.336-0.85-3.035-1.336-4.492
		l-4.25-12.506v0.121h-6.556l8.499,21.369c0.364,0.486,0.364,0.85,0.364,1.093c0,0.364-0.121,0.607-0.364,1.093
		c-0.729,1.578-2.064,2.914-3.157,3.643c-1.093,0.85-2.428,1.336-3.4,1.578l1.336,4.978c1.457-0.243,3.885-0.971,6.192-3.035
		c2.793-2.307,4.978-6.192,8.135-14.934l5.828-15.906h-6.314L278.651,644.607z"/>
	<path class="st1" d="M301.478,631.615c-7.042,0-12.02,4.735-12.02,12.385c0,7.528,5.1,12.02,11.656,12.02
		c5.828,0,11.899-3.764,11.899-12.384C313.012,636.593,308.398,631.737,301.478,631.615z M301.235,651.77
		c-3.643,0-5.828-3.4-5.828-7.892c0-3.885,1.7-7.892,5.949-7.892c4.007,0,5.585,4.128,5.585,7.771
		C306.941,648.492,304.634,651.77,301.235,651.77z"/>
	<path class="st1" d="M338.145,632.222h-5.828v14.084c0,0.729-0.121,1.336-0.364,1.821c-0.607,1.457-2.185,3.157-4.492,3.157
		c-3.157,0-4.371-2.428-4.371-6.314v-12.749h-5.828v13.72c0,7.649,3.885,10.199,8.135,10.199c4.128,0,6.435-2.307,7.406-4.007h0.121
		l0.243,3.521h5.221c-0.121-1.943-0.243-4.25-0.243-7.042V632.222z"/>
	<path class="st1" d="M349.437,636.715h-0.243l-0.243-4.492h-5.099c0.243,2.064,0.243,4.371,0.243,7.528h0v15.784h5.828v-12.02
		c0-0.729,0.121-1.336,0.243-1.821c0.486-2.671,2.428-4.492,5.221-4.492c0.728,0,1.214,0.121,1.7,0.243v-5.585
		c-0.486-0.121-0.728-0.121-1.336-0.121C353.323,631.737,350.53,633.436,349.437,636.715z"/>
	<rect x="370.078" y="632.222" class="st1" width="5.949" height="23.312"/>
	<path class="st1" d="M372.871,622.63c-1.943,0-3.278,1.336-3.278,3.157s1.336,3.157,3.278,3.157c2.064,0,3.4-1.336,3.4-3.157
		S375.056,622.509,372.871,622.63z"/>
	<path class="st1" d="M388.533,625.544l-5.707,1.457v5.221h-3.4v4.371h3.4v10.927c0,3.157,0.607,5.221,1.821,6.557
		c1.093,1.214,2.914,1.943,5.1,1.943c1.821,0,3.4-0.243,4.25-0.607l-0.121-4.492c-0.486,0.121-1.336,0.243-2.307,0.243
		c-2.307,0-3.035-1.457-3.035-4.25v-10.32h5.585v-4.371h-5.585V625.544z"/>
	<path class="st1" d="M407.717,631.737c-7.528,0-11.413,6.071-11.413,12.506c0,7.164,4.492,11.777,12.02,11.777
		c3.4,0,6.071-0.607,8.135-1.457l-0.85-4.007c-1.7,0.729-3.764,1.093-6.435,1.093c-3.764,0-7.042-1.821-7.164-6.071v-0.121h15.541
		c0.121-0.486,0.243-1.336,0.243-2.428C417.795,637.929,415.245,631.737,407.717,631.737z M401.889,641.45
		c0.243-2.428,1.821-5.707,5.464-5.707c4.007,0,4.857,3.521,4.857,5.707H401.889z"/>
	<path class="st1" d="M448.635,631.615c-1.943,0-3.4,0.486-4.735,1.336c-1.093,0.607-2.064,1.578-2.914,2.914h-0.121
		c-0.971-2.55-3.4-4.25-6.435-4.25c-3.885,0-6.071,2.185-7.164,4.007h-0.121l-0.243-3.4h-5.099c0.243,1.943,0.243,4.25,0.243,6.921
		h0.121v16.27h5.707v-13.72c0-0.729,0.121-1.336,0.364-1.943c0.607-1.7,2.064-3.4,4.25-3.4c2.671,0,4.007,2.307,4.007,5.585v13.477
		h5.707V641.45c0-0.607,0.121-1.336,0.243-1.943c0.607-1.7,2.064-3.157,4.128-3.157c2.793,0,4.128,2.307,4.128,6.192v12.87h5.707
		v-13.72C456.405,634.286,452.52,631.615,448.635,631.615z"/>
	<path class="st1" d="M470.732,641.693c-2.914-1.093-4.007-1.821-4.007-3.278c0-1.457,1.214-2.428,3.278-2.428
		s4.007,0.729,4.978,1.336l1.093-4.128c-1.336-0.607-3.643-1.336-6.192-1.336c-5.342,0-8.742,3.157-8.742,7.285
		c0,2.793,1.943,5.221,6.435,6.799c2.914,0.971,3.885,1.821,3.885,3.4c0,1.457-1.214,2.55-3.764,2.55c-2.064,0-4.614-0.85-5.949-1.7
		l-1.336,4.371c1.7,0.85,4.25,1.578,7.042,1.578c6.192,0,9.47-3.035,9.47-7.285C476.925,645.335,474.982,643.271,470.732,641.693z"
		/>
	<path class="st1" d="M532.169,618.016h5.707v8.013c-0.85,0.486-2.428,0.729-4.492,0.729c-6.678,0-11.17-4.371-11.17-11.656
		c0-7.528,4.857-11.535,11.777-11.535c3.4,0,5.464,0.607,7.285,1.336l1.336-4.735c-1.578-0.729-4.614-1.578-8.621-1.578
		c-10.685,0-17.97,6.557-17.97,16.755c0,4.857,1.578,9.228,4.492,11.899c3.035,2.914,7.164,4.25,12.627,4.25
		c4.25,0,8.256-1.093,10.32-1.821h0.121v-16.27h-11.413V618.016z"/>
	<path class="st1" d="M558.881,607.332c-7.528,0-11.413,6.071-11.413,12.506c0,7.164,4.492,11.777,12.02,11.777
		c3.4,0,6.071-0.607,8.135-1.457l-0.85-4.007c-1.7,0.728-3.764,1.093-6.435,1.093c-3.764,0-7.042-1.821-7.164-6.071v-0.121h15.541
		c0.121-0.486,0.243-1.336,0.243-2.428C568.958,613.524,566.409,607.332,558.881,607.332z M553.053,617.045
		c0.243-2.428,1.821-5.707,5.464-5.707c4.007,0,4.857,3.521,4.857,5.707H553.053z"/>
	<path class="st1" d="M580.007,601.261l-5.707,1.457v5.221h-3.4v4.371h3.4v10.927c0,3.157,0.607,5.221,1.821,6.557
		c1.093,1.214,2.914,1.943,5.099,1.943c1.821,0,3.4-0.243,4.25-0.607l-0.121-4.492c-0.486,0.121-1.336,0.243-2.307,0.243
		c-2.307,0-3.035-1.457-3.035-4.25v-10.32h5.585v-4.371h-5.585V601.261z"/>
	<path class="st1" d="M617.039,617.288c0-5.1-2.185-9.835-9.592-9.835c-3.643,0-6.678,0.971-8.378,2.064l1.093,3.885
		c1.578-0.971,4.007-1.7,6.314-1.7c4.128,0,4.735,2.428,4.735,4.007v0.364c-8.621-0.121-13.841,2.914-13.841,8.742
		c0,3.521,2.55,6.921,7.285,6.921c3.035,0,5.464-1.336,6.921-3.157h0.121l0.364,2.55v0.121h5.342
		c-0.243-1.457-0.364-3.521-0.364-5.585V617.288z M611.454,622.995c0,0.486-0.121,0.85-0.243,1.336
		c-0.607,1.578-2.307,3.157-4.614,3.157c-1.943,0-3.4-1.093-3.4-3.4c0-3.521,4.007-4.492,8.135-4.371h0.121V622.995z"/>
	<path class="st1" d="M645.572,607.332c-3.521,0-6.314,1.457-8.013,4.128h-0.121l-0.243-3.643h-5.221
		c0.121,2.185,0.243,4.735,0.243,7.771h0.121V640.6h5.828v-12.02h0.121c1.214,1.943,3.642,3.157,6.557,3.157
		c5.221,0,10.563-4.128,10.563-12.506C655.407,611.946,650.915,607.332,645.572,607.332z M643.508,627.123
		c-2.55,0-4.614-1.7-5.221-4.128c-0.243-0.486-0.243-0.971-0.243-1.578h0.121v-3.521c0-0.486,0.121-0.971,0.243-1.457
		c0.486-2.55,2.793-4.371,5.221-4.371c3.764,0,5.828,3.278,5.828,7.406C649.458,623.966,647.272,627.123,643.508,627.123z"/>
	<path class="st1" d="M664.999,612.31h-0.243l-0.243-4.492h-5.099c0.243,2.064,0.243,4.371,0.243,7.528v15.784h5.828v-12.02
		c0-0.729,0.121-1.336,0.243-1.821c0.486-2.671,2.428-4.492,5.221-4.492c0.729,0,1.214,0.121,1.7,0.243v-5.585
		c-0.486-0.121-0.728-0.121-1.336-0.121C668.884,607.332,666.092,609.032,664.999,612.31z"/>
	<path class="st1" d="M679.083,598.226c-1.943,0-3.278,1.336-3.278,3.157c0,1.821,1.336,3.157,3.278,3.157
		c2.064,0,3.4-1.336,3.4-3.157C682.483,599.561,681.147,598.104,679.083,598.226z"/>
	<rect x="676.169" y="607.817" class="st1" width="5.949" height="23.312"/>
	<path class="st1" d="M699.603,611.946c2.185,0,3.521,0.364,4.492,0.85l1.093-4.371c-1.336-0.607-3.521-1.093-5.707-1.093
		c-8.256,0-12.992,5.342-12.992,12.384c0,7.285,4.735,11.899,12.02,11.899c2.914,0,5.342-0.607,6.557-1.214l-0.85-4.25
		c-1.093,0.364-2.55,0.85-4.614,0.85c-4.007,0-7.164-2.793-7.164-7.528C692.439,615.224,695.11,611.946,699.603,611.946z"/>
	<path class="st1" d="M728.257,621.052c0.121-0.486,0.243-1.336,0.243-2.428c0-5.099-2.55-11.292-10.078-11.292
		s-11.413,6.071-11.413,12.506c0,7.164,4.492,11.777,12.02,11.777c3.4,0,6.071-0.607,8.135-1.457l-0.85-4.007
		c-1.7,0.728-3.764,1.093-6.435,1.093c-3.764,0-7.042-1.821-7.164-6.071v-0.121H728.257z M712.594,617.045
		c0.243-2.428,1.821-5.707,5.464-5.707c4.007,0,4.857,3.521,4.857,5.707H712.594z"/>
</g>
</svg>
