<?xml version="1.0" encoding="utf-8"?>
<!-- Generator: Adobe Illustrator 20.0.0, SVG Export Plug-In . SVG Version: 6.00 Build 0)  -->
<svg version="1.1" id="Layer_1" xmlns="http://www.w3.org/2000/svg" xmlns:xlink="http://www.w3.org/1999/xlink" x="0px" y="0px"
	 width="1205px" height="200px" viewBox="0 0 1205 200" style="enable-background:new 0 0 1205 200;" xml:space="preserve">
<style type="text/css">
	.st0{fill:#2B2B2B;}
	.st1{fill-rule:evenodd;clip-rule:evenodd;fill:#2B2B2B;}
</style>
<g>
	<g>
		<g>
			<path class="st0" d="M75.029,27.127H16.886c-3.804,0-6.886,2.851-6.886,6.369v121.551c0,3.517,3.083,6.366,6.886,6.366h58.143
				c3.799,0,6.884-2.849,6.884-6.366V33.496C81.914,29.978,78.828,27.127,75.029,27.127z M78.052,145.986H13.867V40.898h64.185
				V145.986z"/>
		</g>
		<g>
			<path class="st0" d="M66.629,82.586l-8.778,5.759v-4.242c0-2.706-2.394-4.917-5.318-4.917H30.525
				c-2.925,0-5.316,2.211-5.316,4.917v20.342c0,2.703,2.39,4.914,5.316,4.914h22.008c2.924,0,5.318-2.21,5.318-4.914v-4.397
				l8.778,5.74c0.728,0.482,1.562,0.198,1.562-0.622V83.224C68.191,82.397,67.357,82.112,66.629,82.586z"/>
		</g>
	</g>
	<g>
		<g>
			<path class="st0" d="M445.651,115.367h-30.365c-5.492,0-9.955-4.463-9.955-9.954V75.045c0-5.487,4.464-9.955,9.955-9.955h30.365
				c5.487,0,9.96,4.468,9.96,9.955v1.26l7.964-5.649c0.758-0.543,1.622-0.829,2.511-0.829c2.156,0,3.791,1.682,3.791,3.911v32.742
				c0,1.067-0.379,2.06-1.088,2.773c-0.708,0.734-1.66,1.137-2.702,1.137l0,0c-0.894,0-1.753-0.285-2.514-0.83l-7.961-5.631v1.483
				C455.611,110.904,451.138,115.367,445.651,115.367z M415.286,70.349c-2.6,0-4.702,2.109-4.702,4.697v30.368
				c0,2.588,2.102,4.698,4.702,4.698h30.365c2.581,0,4.702-2.11,4.702-4.698v-6.561c0-0.975,0.539-1.875,1.42-2.327
				c0.859-0.452,1.916-0.377,2.714,0.187l10.131,7.153V76.362l-10.124,7.176c-0.798,0.57-1.858,0.647-2.718,0.193
				c-0.881-0.451-1.422-1.352-1.422-2.34v-6.346c0-2.588-2.121-4.697-4.702-4.697H415.286z"/>
		</g>
	</g>
	<g>
		<g>
			<g>
				<g>
					<path class="st0" d="M539.292,118.396l0.036-0.095l-0.05-0.021l-5.121-22.059h6.689c2.75,0,4.977-2.227,4.977-4.977
						c0-2.753-2.227-4.984-4.977-4.984h-54.781c-2.753,0-4.983,2.231-4.983,4.984c0,2.75,2.23,4.977,4.983,4.977h3.89l-11.277,48.55
						c-0.471,2.011,0.798,4.019,2.796,4.484c0.284,0.066,0.569,0.1,0.853,0.1c1.706,0,3.23-1.166,3.647-2.891l3.875-16.719
						l18.634,4.986v18.772c0,2.066,1.658,3.734,3.731,3.734c2.05,0,3.729-1.668,3.729-3.734v-18.772l18.338-4.912l3.865,16.644
						c0.396,1.726,1.94,2.891,3.642,2.891c0.276,0,0.565-0.034,0.843-0.1c2.006-0.465,3.257-2.473,2.793-4.484L539.292,118.396z
						 M531.086,116.098l-15.144-4.065v-15.81h10.546L531.086,116.098z M508.482,96.222v15.81l-15.494,4.148l4.644-19.959H508.482z
						 M494.978,123.384l13.504-3.614v7.228L494.978,123.384z M515.942,126.999v-7.228l13.495,3.614L515.942,126.999z"/>
				</g>
			</g>
		</g>
	</g>
	<g>
		<g>
			<g>
				<path class="st0" d="M525.165,59.12h-0.099h-0.9h-0.903h-10.609v-0.895v-0.892V44.569c0.758-0.882,3.13-2.833,9.05-2.317
					c2.426,0.213,5.88-2.194,3.081-6.942c-1.093-1.878-3.898-2.819-7.564-0.662c-2.815,1.657-4.047,4.069-4.568,6.151v-8.498
					c0-1.387-0.616-2.036-1.139-2.335c-1.794-1.012-4.789,0.659-5.391,1.004c-0.423,0.25-0.562,0.8-0.303,1.224
					c0.246,0.426,0.796,0.565,1.216,0.316c1.107-0.644,2.963-1.346,3.579-0.991c0.205,0.118,0.248,0.491,0.248,0.782V47.01
					c-0.63-1.84-1.881-3.799-4.276-5.21c-3.649-2.156-6.457-1.213-7.577,0.663c-2.8,4.746,0.659,7.157,3.089,6.943
					c5.305-0.468,7.758,1.061,8.761,2.014v5.913v0.892v0.895h-9.695h-0.905h-0.903h-0.115c-0.995,0-1.793,0.804-1.793,1.79
					c0,0.985,0.798,1.788,1.793,1.788h0.616h0.9h0.9l2.843,20.565h15.419l2.83-20.565h0.903h0.902h0.608
					c0.992,0,1.797-0.803,1.797-1.788C526.962,59.924,526.157,59.12,525.165,59.12z"/>
			</g>
		</g>
	</g>
	<g>
		<g>
			<circle class="st0" cx="431.245" cy="89.91" r="9.346"/>
		</g>
	</g>
	<g>
		<g>
			<path class="st1" d="M988.87,51.78c-7.998,0-15.615,0-23.367,0c0-7.367,0-14.69,0-22.402
				C973.333,36.884,980.964,44.2,988.87,51.78z"/>
		</g>
	</g>
	<g>
		<g>
			<g>
				<path class="st1" d="M938.478,55.196c-0.853,0.145-1.688,0.408-2.469,0.808c-1.701,0.871-2.857,2.367-3.096,4.006
					c-0.104,0.724-0.117,2.085,1.011,3.155c0.962,0.925,2.658,1.722,4.554,2.47V55.196z"/>
			</g>
		</g>
		<g>
			<g>
				<path class="st1" d="M989.717,56.403c-8.526-0.001-17.052-0.01-25.578-0.008c-2.589,0-3.317-0.695-3.323-3.318
					c-0.016-4.987,0.003-9.969,0.006-14.956c0-3.534,0-7.067,0-10.791c-0.614,0-0.979,0-1.349,0
					c-21.151,0.004-42.304,0.004-63.455,0.005c-3.862,0.002-5.402,1.55-5.402,5.428c0,41.145,0,82.278,0,123.423
					c0,3.653,1.619,5.277,5.271,5.279c30.054,0.002,60.105,0.002,90.158,0c3.47,0,5.143-1.669,5.144-5.13
					c0.003-32.847,0.005-65.696,0.006-98.538c0-0.445,0-0.889,0-1.395C990.551,56.403,990.134,56.403,989.717,56.403z
					 M927.511,81.006c1.159-0.876,2.81-0.649,3.68,0.512c1.504,1.987,4.326,3.27,7.286,3.588v-13.85
					c-3.101-1.134-6.173-2.366-8.19-4.287c-2.064-1.966-3.001-4.784-2.573-7.718c0.48-3.322,2.687-6.285,5.901-7.923
					c1.546-0.797,3.202-1.275,4.862-1.465v-4.856c0-0.97,0.785-1.752,1.753-1.752c0.968,0,1.752,0.782,1.752,1.752v4.882
					c3.664,0.472,7.06,2.34,9.156,5.376c0.829,1.189,0.531,2.825-0.665,3.651c-1.193,0.829-2.827,0.53-3.656-0.663
					c-1.079-1.56-2.857-2.597-4.835-3.007v11.68c2.873,1.043,5.773,2.152,7.787,3.766c3.18,2.557,4.675,6.064,4.105,9.617
					c-0.638,3.98-3.761,7.466-8.148,9.122c-1.193,0.449-2.461,0.727-3.743,0.876v4.921c0,0.964-0.783,1.752-1.752,1.752
					c-0.968,0-1.753-0.787-1.753-1.752v-4.849c-4.571-0.358-8.995-2.402-11.472-5.687C926.125,83.532,926.351,81.881,927.511,81.006
					z M975.54,123.903c0.463,0,0.942-0.025,1.392,0.071c1.094,0.237,1.679,0.996,1.728,2.083c0.052,1.09-0.477,1.918-1.551,2.206
					c-0.659,0.181-1.384,0.185-2.075,0.185c-22.929,0.005-45.855,0.005-68.781,0c-0.515,0-1.042-0.007-1.516-0.161
					c-1.106-0.353-1.706-1.156-1.605-2.323c0.095-1.086,0.723-1.795,1.82-2.014c0.313-0.066,0.646-0.073,0.973-0.073
					c11.701,0,23.39,0,35.089,0c0,0,0,0.015,0,0.024C952.522,123.901,964.027,123.901,975.54,123.903z M976.713,142.789
					c-0.316,0.067-0.649,0.034-0.974,0.034c-11.641,0.003-23.283,0.002-34.922,0.002v-0.011c-11.551,0-23.097,0-34.65-0.002
					c-0.368,0-0.754,0.043-1.112-0.028c-1.125-0.226-1.851-0.918-1.924-2.079c-0.074-1.23,0.589-2.039,1.753-2.367
					c0.434-0.122,0.924-0.078,1.388-0.078c23.101-0.001,46.19-0.001,69.288,0c0.419,0,0.853-0.043,1.249,0.056
					c1.174,0.288,1.895,1.034,1.862,2.276C978.639,141.819,977.901,142.549,976.713,142.789z M975.208,114.046
					c-11.454-0.004-22.912-0.001-34.363-0.001c0,0,0-0.007,0-0.012c-11.508,0-23.003,0-34.505,0c-0.324,0-0.654,0.016-0.981-0.003
					c-1.316-0.081-2.206-0.976-2.235-2.21c-0.038-1.21,0.836-2.182,2.14-2.302c0.796-0.071,1.587-0.043,2.377-0.043
					c22.541,0,45.076,0,67.611,0c2.304,0,3.454,0.782,3.437,2.323C978.67,113.36,977.596,114.046,975.208,114.046z"/>
			</g>
		</g>
		<g>
			<g>
				<path class="st1" d="M948.684,79.48c0.269-1.684-0.494-3.311-2.206-4.691c-1.035-0.829-2.688-1.561-4.495-2.251v12.466
					c0.659-0.107,1.287-0.267,1.895-0.502C946.463,83.532,948.351,81.565,948.684,79.48z"/>
			</g>
		</g>
	</g>
</g>
<g>
	<g>
		<g>
			<g>
				<circle class="st0" cx="331.56" cy="70.962" r="3.746"/>
			</g>
		</g>
		<g>
			<g>
				<path class="st0" d="M335.305,80.064c0,2.079-1.673,3.756-3.743,3.756c-2.077,0-3.748-1.677-3.748-3.756
					c0-2.067,1.671-3.747,3.748-3.747C333.632,76.317,335.305,77.997,335.305,80.064z"/>
			</g>
		</g>
		<g>
			<g>
				<path class="st0" d="M344.951,80.064c0,2.079-1.682,3.756-3.754,3.756c-2.066,0-3.75-1.677-3.75-3.756
					c0-2.067,1.684-3.747,3.75-3.747C343.269,76.317,344.951,77.997,344.951,80.064z"/>
			</g>
		</g>
		<g>
			<g>
				<path class="st0" d="M335.305,89.176c0,2.067-1.673,3.749-3.743,3.749c-2.077,0-3.748-1.682-3.748-3.749
					c0-2.078,1.671-3.753,3.748-3.753C333.632,85.423,335.305,87.098,335.305,89.176z"/>
			</g>
		</g>
		<g>
			<g>
				<path class="st0" d="M344.951,89.176c0,2.067-1.682,3.749-3.754,3.749c-2.066,0-3.75-1.682-3.75-3.749
					c0-2.078,1.684-3.753,3.75-3.753C343.269,85.423,344.951,87.098,344.951,89.176z"/>
			</g>
		</g>
		<g>
			<g>
				<path class="st0" d="M354.59,89.176c0,2.067-1.677,3.749-3.746,3.749c-2.075,0-3.751-1.682-3.751-3.749
					c0-2.078,1.676-3.753,3.751-3.753C352.913,85.423,354.59,87.098,354.59,89.176z"/>
			</g>
		</g>
		<g>
			<g>
				<circle class="st0" cx="331.56" cy="98.279" r="3.745"/>
			</g>
		</g>
		<g>
			<g>
				<ellipse class="st0" cx="341.198" cy="98.279" rx="3.752" ry="3.744"/>
			</g>
		</g>
		<g>
			<g>
				<ellipse class="st0" cx="350.843" cy="98.279" rx="3.749" ry="3.744"/>
			</g>
		</g>
		<g>
			<g>
				<ellipse class="st0" cx="360.481" cy="98.279" rx="3.747" ry="3.744"/>
			</g>
		</g>
		<g>
			<g>
				<path class="st0" d="M335.305,107.38c0,2.078-1.673,3.753-3.743,3.753c-2.077,0-3.748-1.675-3.748-3.753
					c0-2.064,1.671-3.746,3.748-3.746C333.632,103.634,335.305,105.316,335.305,107.38z"/>
			</g>
		</g>
		<g>
			<g>
				<path class="st0" d="M344.951,107.38c0,2.078-1.682,3.753-3.754,3.753c-2.066,0-3.75-1.675-3.75-3.753
					c0-2.064,1.684-3.746,3.75-3.746C343.269,103.634,344.951,105.316,344.951,107.38z"/>
			</g>
		</g>
		<g>
			<g>
				<path class="st0" d="M354.59,107.38c0,2.078-1.677,3.753-3.746,3.753c-2.075,0-3.751-1.675-3.751-3.753
					c0-2.064,1.676-3.746,3.751-3.746C352.913,103.634,354.59,105.316,354.59,107.38z"/>
			</g>
		</g>
		<g>
			<g>
				<path class="st0" d="M335.305,116.49c0,2.069-1.673,3.75-3.743,3.75c-2.077,0-3.748-1.681-3.748-3.75
					c0-2.077,1.671-3.754,3.748-3.754C333.632,112.736,335.305,114.413,335.305,116.49z"/>
			</g>
		</g>
		<g>
			<g>
				<path class="st0" d="M344.951,116.49c0,2.069-1.682,3.75-3.754,3.75c-2.066,0-3.75-1.681-3.75-3.75
					c0-2.077,1.684-3.754,3.75-3.754C343.269,112.736,344.951,114.413,344.951,116.49z"/>
			</g>
		</g>
		<g>
			<g>
				<circle class="st0" cx="331.56" cy="125.595" r="3.746"/>
			</g>
		</g>
	</g>
	<g>
		<g>
			<g>
				<circle class="st0" cx="810.56" cy="70.962" r="3.746"/>
			</g>
		</g>
		<g>
			<g>
				<path class="st0" d="M814.305,80.064c0,2.079-1.672,3.756-3.743,3.756c-2.077,0-3.748-1.677-3.748-3.756
					c0-2.067,1.671-3.747,3.748-3.747C812.632,76.317,814.305,77.997,814.305,80.064z"/>
			</g>
		</g>
		<g>
			<g>
				<path class="st0" d="M823.951,80.064c0,2.079-1.682,3.756-3.754,3.756c-2.066,0-3.75-1.677-3.75-3.756
					c0-2.067,1.684-3.747,3.75-3.747C822.269,76.317,823.951,77.997,823.951,80.064z"/>
			</g>
		</g>
		<g>
			<g>
				<path class="st0" d="M814.305,89.176c0,2.067-1.672,3.749-3.743,3.749c-2.077,0-3.748-1.682-3.748-3.749
					c0-2.078,1.671-3.753,3.748-3.753C812.632,85.423,814.305,87.098,814.305,89.176z"/>
			</g>
		</g>
		<g>
			<g>
				<path class="st0" d="M823.951,89.176c0,2.067-1.682,3.749-3.754,3.749c-2.066,0-3.75-1.682-3.75-3.749
					c0-2.078,1.684-3.753,3.75-3.753C822.269,85.423,823.951,87.098,823.951,89.176z"/>
			</g>
		</g>
		<g>
			<g>
				<path class="st0" d="M833.59,89.176c0,2.067-1.677,3.749-3.746,3.749c-2.075,0-3.751-1.682-3.751-3.749
					c0-2.078,1.676-3.753,3.751-3.753C831.913,85.423,833.59,87.098,833.59,89.176z"/>
			</g>
		</g>
		<g>
			<g>
				<circle class="st0" cx="810.56" cy="98.279" r="3.745"/>
			</g>
		</g>
		<g>
			<g>
				<ellipse class="st0" cx="820.198" cy="98.279" rx="3.752" ry="3.744"/>
			</g>
		</g>
		<g>
			<g>
				<ellipse class="st0" cx="829.843" cy="98.279" rx="3.749" ry="3.744"/>
			</g>
		</g>
		<g>
			<g>
				<ellipse class="st0" cx="839.481" cy="98.279" rx="3.747" ry="3.744"/>
			</g>
		</g>
		<g>
			<g>
				<path class="st0" d="M814.305,107.38c0,2.078-1.672,3.753-3.743,3.753c-2.077,0-3.748-1.675-3.748-3.753
					c0-2.064,1.671-3.746,3.748-3.746C812.632,103.634,814.305,105.316,814.305,107.38z"/>
			</g>
		</g>
		<g>
			<g>
				<path class="st0" d="M823.951,107.38c0,2.078-1.682,3.753-3.754,3.753c-2.066,0-3.75-1.675-3.75-3.753
					c0-2.064,1.684-3.746,3.75-3.746C822.269,103.634,823.951,105.316,823.951,107.38z"/>
			</g>
		</g>
		<g>
			<g>
				<path class="st0" d="M833.59,107.38c0,2.078-1.677,3.753-3.746,3.753c-2.075,0-3.751-1.675-3.751-3.753
					c0-2.064,1.676-3.746,3.751-3.746C831.913,103.634,833.59,105.316,833.59,107.38z"/>
			</g>
		</g>
		<g>
			<g>
				<path class="st0" d="M814.305,116.49c0,2.069-1.672,3.75-3.743,3.75c-2.077,0-3.748-1.681-3.748-3.75
					c0-2.077,1.671-3.754,3.748-3.754C812.632,112.736,814.305,114.413,814.305,116.49z"/>
			</g>
		</g>
		<g>
			<g>
				<path class="st0" d="M823.951,116.49c0,2.069-1.682,3.75-3.754,3.75c-2.066,0-3.75-1.681-3.75-3.75
					c0-2.077,1.684-3.754,3.75-3.754C822.269,112.736,823.951,114.413,823.951,116.49z"/>
			</g>
		</g>
		<g>
			<g>
				<circle class="st0" cx="810.56" cy="125.595" r="3.746"/>
			</g>
		</g>
	</g>
	<g>
		<path class="st0" d="M118.91,79.493c1.575,0.906,3.939,1.693,6.42,1.693c3.112,0,4.845-1.457,4.845-3.623
			c0-2.01-1.339-3.191-4.727-4.412c-4.372-1.576-7.169-3.9-7.169-7.721c0-4.333,3.624-7.642,9.375-7.642
			c2.875,0,5.003,0.63,6.382,1.339l-1.182,3.9c-0.945-0.512-2.797-1.26-5.278-1.26c-3.073,0-4.412,1.654-4.412,3.191
			c0,2.048,1.536,2.993,5.081,4.372c4.609,1.733,6.854,4.057,6.854,7.878c0,4.254-3.23,7.957-10.084,7.957
			c-2.797,0-5.712-0.788-7.169-1.655L118.91,79.493z"/>
		<path class="st0" d="M144.275,60.113v5.476h4.608v3.623h-4.608v8.469c0,2.323,0.63,3.545,2.482,3.545
			c0.827,0,1.457-0.118,1.891-0.236l0.079,3.703c-0.709,0.275-1.969,0.473-3.506,0.473c-1.773,0-3.27-0.591-4.175-1.576
			c-1.024-1.103-1.497-2.836-1.497-5.357v-9.021h-2.757v-3.623h2.757v-4.333L144.275,60.113z"/>
		<path class="st0" d="M162.944,84.771l-0.315-2.127h-0.118c-1.182,1.497-3.191,2.56-5.672,2.56c-3.86,0-6.027-2.797-6.027-5.712
			c0-4.845,4.294-7.288,11.384-7.248V71.93c0-1.26-0.512-3.349-3.899-3.349c-1.891,0-3.86,0.591-5.16,1.419l-0.945-3.151
			c1.418-0.867,3.9-1.694,6.933-1.694c6.145,0,7.918,3.899,7.918,8.075v6.933c0,1.733,0.079,3.427,0.275,4.608H162.944z
			 M162.314,75.396c-3.427-0.079-6.696,0.67-6.696,3.585c0,1.891,1.221,2.757,2.757,2.757c1.93,0,3.348-1.26,3.781-2.639
			c0.118-0.355,0.157-0.748,0.157-1.064V75.396z"/>
		<path class="st0" d="M171.764,71.772c0-2.6-0.039-4.451-0.157-6.184h4.215l0.158,3.663h0.157c0.945-2.718,3.191-4.096,5.239-4.096
			c0.472,0,0.748,0.039,1.142,0.118v4.569c-0.394-0.079-0.827-0.157-1.418-0.157c-2.324,0-3.9,1.497-4.333,3.663
			c-0.079,0.434-0.157,0.945-0.157,1.497v9.927h-4.845V71.772z"/>
		<path class="st0" d="M191.851,60.113v5.476h4.609v3.623h-4.609v8.469c0,2.323,0.63,3.545,2.482,3.545
			c0.827,0,1.457-0.118,1.891-0.236l0.079,3.703c-0.709,0.275-1.969,0.473-3.506,0.473c-1.773,0-3.269-0.591-4.175-1.576
			c-1.024-1.103-1.497-2.836-1.497-5.357v-9.021h-2.757v-3.623h2.757v-4.333L191.851,60.113z"/>
		<path class="st0" d="M218.278,84.771l-0.316-2.127h-0.118c-1.182,1.497-3.191,2.56-5.672,2.56c-3.86,0-6.027-2.797-6.027-5.712
			c0-4.845,4.294-7.288,11.384-7.248V71.93c0-1.26-0.512-3.349-3.9-3.349c-1.891,0-3.861,0.591-5.16,1.419l-0.945-3.151
			c1.418-0.867,3.9-1.694,6.933-1.694c6.145,0,7.917,3.899,7.917,8.075v6.933c0,1.733,0.079,3.427,0.276,4.608H218.278z
			 M217.648,75.396c-3.427-0.079-6.697,0.67-6.697,3.585c0,1.891,1.221,2.757,2.757,2.757c1.93,0,3.348-1.26,3.781-2.639
			c0.118-0.355,0.158-0.748,0.158-1.064V75.396z"/>
		<path class="st0" d="M121.274,103.183l3.112,9.729c0.552,1.694,0.945,3.23,1.3,4.806h0.118c0.355-1.576,0.788-3.073,1.3-4.806
			l3.033-9.729h5.121l-7.327,19.183h-4.766l-7.13-19.183H121.274z"/>
		<path class="st0" d="M142.975,97.825c0,1.457-1.064,2.6-2.757,2.6c-1.615,0-2.679-1.142-2.679-2.6
			c0-1.497,1.103-2.639,2.718-2.639C141.911,95.186,142.936,96.329,142.975,97.825z M137.815,122.366v-19.183h4.885v19.183H137.815z
			"/>
		<path class="st0" d="M165.189,94.399v22.57c0,1.97,0.079,4.097,0.158,5.397h-4.333l-0.197-3.033h-0.079
			c-1.142,2.128-3.466,3.467-6.263,3.467c-4.569,0-8.193-3.9-8.193-9.809c-0.039-6.42,3.979-10.241,8.587-10.241
			c2.639,0,4.53,1.103,5.396,2.521h0.079V94.399H165.189z M160.344,111.178c0-0.393-0.039-0.866-0.118-1.26
			c-0.434-1.891-1.97-3.427-4.176-3.427c-3.111,0-4.845,2.757-4.845,6.342c0,3.505,1.733,6.066,4.806,6.066
			c1.97,0,3.703-1.339,4.175-3.427c0.118-0.434,0.158-0.906,0.158-1.418V111.178z"/>
		<path class="st0" d="M173.418,114.133c0.118,3.466,2.836,4.963,5.909,4.963c2.245,0,3.86-0.316,5.318-0.867l0.709,3.349
			c-1.654,0.67-3.939,1.182-6.696,1.182c-6.224,0-9.887-3.821-9.887-9.691c0-5.317,3.23-10.32,9.375-10.32
			c6.224,0,8.272,5.121,8.272,9.336c0,0.906-0.079,1.615-0.157,2.048H173.418z M181.848,110.746
			c0.039-1.773-0.749-4.688-3.979-4.688c-2.993,0-4.254,2.718-4.451,4.688H181.848z"/>
		<path class="st0" d="M208.158,112.596c0,7.052-4.963,10.203-9.848,10.203c-5.436,0-9.611-3.742-9.611-9.887
			c0-6.302,4.136-10.163,9.927-10.163C204.337,102.749,208.158,106.767,208.158,112.596z M193.701,112.794
			c0,3.703,1.812,6.499,4.766,6.499c2.757,0,4.688-2.718,4.688-6.578c0-2.994-1.339-6.421-4.648-6.421
			C195.08,106.294,193.701,109.603,193.701,112.794z"/>
		<path class="st0" d="M233.599,121.775c-1.024,0.473-3.033,0.985-5.436,0.985c-5.987,0-9.887-3.821-9.887-9.769
			c0-5.751,3.939-10.241,10.675-10.241c1.773,0,3.585,0.394,4.688,0.906l-0.867,3.624c-0.788-0.354-1.93-0.748-3.663-0.748
			c-3.703,0-5.909,2.718-5.869,6.224c0,3.939,2.56,6.184,5.869,6.184c1.694,0,2.875-0.355,3.821-0.749L233.599,121.775z"/>
		<path class="st0" d="M236.786,94.399h4.885v11.423h0.079c0.591-0.906,1.379-1.655,2.403-2.206
			c0.945-0.552,2.087-0.866,3.309-0.866c3.27,0,6.696,2.166,6.696,8.311v11.305h-4.845v-10.754c0-2.797-1.024-4.885-3.703-4.885
			c-1.891,0-3.23,1.26-3.742,2.719c-0.157,0.393-0.197,0.906-0.197,1.457v11.462h-4.885V94.399z"/>
		<path class="st0" d="M269.714,122.366l-0.316-2.127h-0.118c-1.182,1.497-3.191,2.56-5.672,2.56c-3.86,0-6.027-2.797-6.027-5.712
			c0-4.845,4.294-7.288,11.384-7.248v-0.315c0-1.26-0.512-3.349-3.899-3.349c-1.891,0-3.861,0.591-5.16,1.419l-0.945-3.151
			c1.418-0.867,3.9-1.694,6.933-1.694c6.145,0,7.917,3.899,7.917,8.075v6.933c0,1.733,0.079,3.427,0.276,4.608H269.714z
			 M269.083,112.991c-3.427-0.079-6.697,0.67-6.697,3.585c0,1.891,1.221,2.757,2.757,2.757c1.93,0,3.348-1.26,3.781-2.639
			c0.118-0.355,0.158-0.748,0.158-1.064V112.991z"/>
		<path class="st0" d="M283.852,97.707v5.476h4.608v3.623h-4.608v8.469c0,2.323,0.63,3.545,2.482,3.545
			c0.827,0,1.457-0.118,1.891-0.236l0.079,3.703c-0.709,0.275-1.969,0.473-3.506,0.473c-1.773,0-3.27-0.591-4.175-1.576
			c-1.024-1.103-1.497-2.836-1.497-5.357v-9.021h-2.757v-3.623h2.757V98.85L283.852,97.707z"/>
	</g>
	<g>
		<path class="st0" d="M580.288,78.959c1.575,0.906,3.939,1.693,6.421,1.693c3.112,0,4.845-1.457,4.845-3.623
			c0-2.01-1.339-3.191-4.727-4.412c-4.372-1.576-7.169-3.9-7.169-7.721c0-4.333,3.624-7.642,9.375-7.642
			c2.875,0,5.003,0.63,6.382,1.339l-1.182,3.9c-0.945-0.512-2.797-1.26-5.278-1.26c-3.073,0-4.412,1.654-4.412,3.191
			c0,2.048,1.536,2.993,5.081,4.372c4.609,1.733,6.854,4.057,6.854,7.878c0,4.254-3.23,7.957-10.084,7.957
			c-2.797,0-5.712-0.788-7.169-1.655L580.288,78.959z"/>
		<path class="st0" d="M600.138,56.27h4.885v11.423h0.079c0.591-0.906,1.378-1.655,2.403-2.206c0.945-0.552,2.087-0.866,3.309-0.866
			c3.27,0,6.696,2.166,6.696,8.311v11.305h-4.845V73.483c0-2.797-1.024-4.885-3.703-4.885c-1.891,0-3.23,1.26-3.742,2.719
			c-0.157,0.393-0.197,0.906-0.197,1.457v11.462h-4.885V56.27z"/>
		<path class="st0" d="M640.51,74.468c0,7.052-4.963,10.203-9.848,10.203c-5.436,0-9.612-3.742-9.612-9.887
			c0-6.302,4.136-10.163,9.927-10.163C636.689,64.621,640.51,68.638,640.51,74.468z M626.053,74.665
			c0,3.703,1.812,6.499,4.766,6.499c2.757,0,4.688-2.718,4.688-6.578c0-2.994-1.339-6.421-4.648-6.421
			C627.432,68.165,626.053,71.475,626.053,74.665z"/>
		<path class="st0" d="M646.692,65.054l2.009,8.705c0.433,2.049,0.867,4.136,1.221,6.224H650c0.394-2.087,1.024-4.214,1.576-6.184
			l2.482-8.744h3.939l2.403,8.508c0.591,2.246,1.103,4.333,1.536,6.42h0.079c0.315-2.087,0.748-4.175,1.26-6.42l2.127-8.508h4.766
			l-6.027,19.183h-4.49l-2.285-7.799c-0.59-2.01-1.024-3.821-1.457-6.145h-0.079c-0.394,2.364-0.906,4.254-1.457,6.145l-2.442,7.799
			h-4.53l-5.672-19.183H646.692z"/>
		<path class="st0" d="M697.814,78.486c0,2.284,0.079,4.176,0.157,5.751h-4.254l-0.236-2.915h-0.079
			c-0.827,1.379-2.718,3.349-6.145,3.349c-3.506,0-6.696-2.088-6.696-8.351V65.054h4.845v10.438c0,3.191,1.024,5.239,3.585,5.239
			c1.93,0,3.191-1.379,3.702-2.6c0.158-0.433,0.276-0.945,0.276-1.497v-11.58h4.845V78.486z"/>
		<path class="st0" d="M702.418,79.786c1.103,0.67,3.191,1.379,4.924,1.379c2.127,0,3.073-0.866,3.073-2.127
			c0-1.3-0.788-1.969-3.151-2.797c-3.742-1.3-5.318-3.348-5.278-5.594c0-3.387,2.797-6.026,7.248-6.026
			c2.127,0,3.979,0.552,5.081,1.142l-0.945,3.427c-0.827-0.473-2.363-1.103-4.057-1.103c-1.733,0-2.678,0.828-2.678,2.01
			c0,1.221,0.906,1.811,3.348,2.678c3.467,1.26,5.082,3.033,5.121,5.869c0,3.467-2.718,5.988-7.799,5.988
			c-2.324,0-4.412-0.552-5.83-1.34L702.418,79.786z"/>
		<path class="st0" d="M584.434,102.649l3.466,10.281c0.394,1.182,0.788,2.639,1.063,3.742h0.118
			c0.315-1.103,0.67-2.521,1.024-3.781l2.993-10.241h5.2l-4.806,13.077c-2.639,7.17-4.412,10.36-6.697,12.33
			c-1.891,1.694-3.86,2.324-5.081,2.482l-1.103-4.097c0.827-0.197,1.851-0.63,2.836-1.339c0.906-0.591,1.969-1.733,2.639-3.033
			c0.197-0.354,0.315-0.63,0.315-0.866c0-0.197-0.039-0.473-0.276-0.945l-7.011-17.608H584.434z"/>
		<path class="st0" d="M618.426,112.062c0,7.052-4.963,10.203-9.848,10.203c-5.436,0-9.612-3.742-9.612-9.887
			c0-6.302,4.136-10.163,9.927-10.163C614.605,102.215,618.426,106.233,618.426,112.062z M603.969,112.26
			c0,3.703,1.812,6.499,4.766,6.499c2.757,0,4.688-2.718,4.688-6.578c0-2.994-1.339-6.421-4.648-6.421
			C605.348,105.76,603.969,109.069,603.969,112.26z"/>
		<path class="st0" d="M639.181,116.081c0,2.284,0.079,4.176,0.157,5.751h-4.254l-0.236-2.915h-0.079
			c-0.827,1.379-2.718,3.349-6.145,3.349c-3.506,0-6.696-2.088-6.696-8.351v-11.265h4.845v10.438c0,3.191,1.024,5.239,3.585,5.239
			c1.93,0,3.191-1.379,3.702-2.6c0.158-0.433,0.276-0.945,0.276-1.497v-11.58h4.845V116.081z"/>
		<path class="st0" d="M644.022,108.832c0-2.6-0.039-4.451-0.157-6.184h4.215l0.158,3.663h0.157
			c0.945-2.718,3.191-4.096,5.239-4.096c0.472,0,0.748,0.039,1.142,0.118v4.569c-0.394-0.079-0.827-0.157-1.418-0.157
			c-2.324,0-3.9,1.497-4.333,3.663c-0.079,0.434-0.157,0.945-0.157,1.497v9.927h-4.845V108.832z"/>
		<path class="st0" d="M670.567,97.291c0,1.457-1.064,2.6-2.757,2.6c-1.615,0-2.679-1.142-2.679-2.6
			c0-1.497,1.103-2.639,2.718-2.639C669.504,94.652,670.528,95.795,670.567,97.291z M665.407,121.832v-19.183h4.885v19.183H665.407z
			"/>
		<path class="st0" d="M680.65,97.173v5.476h4.608v3.623h-4.608v8.469c0,2.323,0.63,3.545,2.482,3.545
			c0.827,0,1.457-0.118,1.891-0.236l0.079,3.703c-0.709,0.275-1.969,0.473-3.506,0.473c-1.773,0-3.27-0.591-4.175-1.576
			c-1.024-1.103-1.497-2.836-1.497-5.357v-9.021h-2.757v-3.623h2.757v-4.333L680.65,97.173z"/>
		<path class="st0" d="M691.717,113.599c0.118,3.466,2.836,4.963,5.909,4.963c2.245,0,3.86-0.316,5.318-0.867l0.709,3.349
			c-1.654,0.67-3.939,1.182-6.696,1.182c-6.224,0-9.887-3.821-9.887-9.691c0-5.317,3.23-10.32,9.375-10.32
			c6.224,0,8.272,5.121,8.272,9.336c0,0.906-0.079,1.615-0.157,2.048H691.717z M700.146,110.212
			c0.039-1.773-0.748-4.688-3.979-4.688c-2.993,0-4.254,2.718-4.451,4.688H700.146z"/>
		<path class="st0" d="M708.218,108.36c0-2.206-0.039-4.058-0.157-5.712h4.175l0.197,2.836h0.118
			c0.945-1.497,2.679-3.269,5.909-3.269c2.521,0,4.49,1.418,5.318,3.545h0.079c0.67-1.063,1.458-1.851,2.363-2.402
			c1.064-0.748,2.285-1.142,3.861-1.142c3.191,0,6.421,2.166,6.421,8.311v11.305h-4.727v-10.596c0-3.191-1.103-5.081-3.427-5.081
			c-1.654,0-2.875,1.182-3.388,2.56c-0.118,0.473-0.236,1.064-0.236,1.615v11.502h-4.727v-11.108c0-2.678-1.064-4.569-3.309-4.569
			c-1.812,0-3.033,1.418-3.466,2.758c-0.197,0.472-0.276,1.024-0.276,1.575v11.344h-4.727V108.36z"/>
		<path class="st0" d="M740.986,117.381c1.103,0.67,3.191,1.379,4.924,1.379c2.127,0,3.073-0.866,3.073-2.127
			c0-1.3-0.788-1.969-3.151-2.797c-3.742-1.3-5.318-3.348-5.278-5.594c0-3.387,2.797-6.026,7.248-6.026
			c2.127,0,3.979,0.552,5.081,1.142l-0.945,3.427c-0.827-0.473-2.363-1.103-4.057-1.103c-1.733,0-2.678,0.828-2.678,2.01
			c0,1.221,0.906,1.811,3.348,2.678c3.466,1.26,5.081,3.033,5.121,5.869c0,3.467-2.718,5.988-7.799,5.988
			c-2.324,0-4.412-0.552-5.83-1.34L740.986,117.381z"/>
	</g>
	<g>
		<path class="st0" d="M1046.662,109.018c-1.694,0.63-5.002,1.497-8.548,1.497c-4.49,0-7.878-1.142-10.399-3.545
			c-2.363-2.246-3.742-5.751-3.702-9.769c0-8.39,5.987-13.787,14.771-13.787c3.27,0,5.83,0.67,7.051,1.26l-1.064,3.9
			c-1.457-0.63-3.23-1.142-6.027-1.142c-5.672,0-9.65,3.348-9.65,9.532c0,6.026,3.702,9.611,9.217,9.611
			c1.733,0,3.033-0.236,3.663-0.552v-6.617h-4.687v-3.821h9.375V109.018z"/>
		<path class="st0" d="M1054.693,102.007c0.118,3.466,2.836,4.963,5.909,4.963c2.245,0,3.86-0.316,5.318-0.867l0.709,3.349
			c-1.654,0.67-3.939,1.182-6.696,1.182c-6.224,0-9.887-3.821-9.887-9.691c0-5.317,3.23-10.32,9.375-10.32
			c6.224,0,8.272,5.121,8.272,9.336c0,0.906-0.079,1.615-0.157,2.048H1054.693z M1063.123,98.62
			c0.039-1.773-0.749-4.688-3.979-4.688c-2.993,0-4.254,2.718-4.451,4.688H1063.123z"/>
		<path class="st0" d="M1076.749,85.581v5.476h4.609v3.623h-4.609v8.469c0,2.323,0.63,3.545,2.482,3.545
			c0.827,0,1.457-0.118,1.891-0.236l0.079,3.703c-0.709,0.275-1.969,0.473-3.506,0.473c-1.773,0-3.269-0.591-4.175-1.576
			c-1.025-1.103-1.497-2.836-1.497-5.357V94.68h-2.757v-3.623h2.757v-4.333L1076.749,85.581z"/>
		<path class="st0" d="M1103.176,110.24l-0.315-2.127h-0.119c-1.182,1.497-3.191,2.56-5.672,2.56c-3.86,0-6.027-2.797-6.027-5.712
			c0-4.845,4.294-7.288,11.384-7.248v-0.315c0-1.26-0.512-3.349-3.9-3.349c-1.891,0-3.86,0.591-5.16,1.419l-0.945-3.151
			c1.418-0.867,3.9-1.694,6.933-1.694c6.145,0,7.918,3.899,7.918,8.075v6.933c0,1.733,0.079,3.427,0.275,4.608H1103.176z
			 M1102.546,100.865c-3.427-0.079-6.696,0.67-6.696,3.585c0,1.891,1.221,2.757,2.757,2.757c1.93,0,3.348-1.26,3.781-2.639
			c0.118-0.355,0.157-0.748,0.157-1.064V100.865z"/>
		<path class="st0" d="M1119.755,97.438c0-2.521-0.079-4.57-0.157-6.381h4.254l0.236,2.954h0.079
			c1.418-2.166,3.663-3.387,6.578-3.387c4.412,0,8.075,3.781,8.075,9.768c0,6.933-4.372,10.282-8.745,10.282
			c-2.403,0-4.412-1.024-5.396-2.56h-0.079v3.926h-4.845V97.438z M1124.6,102.204c0,0.473,0.039,0.906,0.157,1.339
			c0.473,1.969,2.206,3.388,4.254,3.388c3.072,0,4.884-2.56,4.884-6.342c0-3.388-1.654-6.145-4.766-6.145
			c-2.009,0-3.86,1.457-4.333,3.585c-0.118,0.393-0.197,0.827-0.197,1.221V102.204z"/>
		<path class="st0" d="M1142.401,97.24c0-2.6-0.039-4.451-0.157-6.184h4.215l0.158,3.663h0.157c0.945-2.718,3.191-4.096,5.239-4.096
			c0.473,0,0.748,0.039,1.142,0.118v4.569c-0.394-0.079-0.827-0.157-1.418-0.157c-2.324,0-3.9,1.497-4.333,3.663
			c-0.079,0.434-0.157,0.945-0.157,1.497v9.927h-4.845V97.24z"/>
		<path class="st0" d="M1161.188,85.699c0,1.457-1.064,2.6-2.757,2.6c-1.615,0-2.679-1.142-2.679-2.6
			c0-1.497,1.103-2.639,2.718-2.639C1160.124,83.06,1161.149,84.203,1161.188,85.699z M1156.027,110.24V91.057h4.885v19.183
			H1156.027z"/>
		<path class="st0" d="M1179.818,109.649c-1.024,0.473-3.033,0.985-5.436,0.985c-5.987,0-9.887-3.821-9.887-9.769
			c0-5.751,3.939-10.241,10.675-10.241c1.773,0,3.585,0.394,4.688,0.906l-0.867,3.624c-0.787-0.354-1.93-0.748-3.663-0.748
			c-3.703,0-5.909,2.718-5.869,6.224c0,3.939,2.56,6.184,5.869,6.184c1.694,0,2.875-0.355,3.821-0.749L1179.818,109.649z"/>
		<path class="st0" d="M1186.079,102.007c0.118,3.466,2.836,4.963,5.909,4.963c2.245,0,3.86-0.316,5.318-0.867l0.709,3.349
			c-1.654,0.67-3.939,1.182-6.696,1.182c-6.224,0-9.887-3.821-9.887-9.691c0-5.317,3.23-10.32,9.375-10.32
			c6.224,0,8.272,5.121,8.272,9.336c0,0.906-0.079,1.615-0.157,2.048H1186.079z M1194.508,98.62
			c0.039-1.773-0.749-4.688-3.979-4.688c-2.993,0-4.254,2.718-4.451,4.688H1194.508z"/>
	</g>
</g>
</svg>
