<?xml version="1.0" encoding="utf-8"?>
<!-- Generator: Adobe Illustrator 20.0.0, SVG Export Plug-In . SVG Version: 6.00 Build 0)  -->
<svg version="1.1" id="Layer_1" xmlns="http://www.w3.org/2000/svg" xmlns:xlink="http://www.w3.org/1999/xlink" x="0px" y="0px"
	 width="1205px" height="200px" viewBox="0 0 1205 200" style="enable-background:new 0 0 1205 200;" xml:space="preserve">
<style type="text/css">
	.st0{fill:#DDEFF8;}
	.st1{fill:#37414B;}
	.st2{fill:#2B2B2B;}
	.st3{opacity:0.2;fill:#231F20;}
	.st4{fill:#EFEFEF;}
	.st5{fill:#1D396A;}
	.st6{fill:#D5DBDB;}
	.st7{fill:#FFFFFF;}
	.st8{fill:#DDEFF8;stroke:#1D396A;stroke-width:2;stroke-miterlimit:10;}
	.st9{fill:#44C5E1;stroke:#1D396A;stroke-width:2;stroke-miterlimit:10;}
	.st10{fill:#44C5E1;stroke:#1D396A;stroke-width:2;stroke-linecap:round;stroke-miterlimit:10;}
	.st11{fill:url(#SVGID_1_);}
	.st12{fill:#DC594C;}
	.st13{fill:#44C5E1;}
	.st14{fill:#FFFFFF;stroke:#1D396A;stroke-width:2;stroke-linecap:round;stroke-miterlimit:10;}
	.st15{fill:#D2D8D6;}
	.st16{fill:#EBF0F3;}
	.st17{fill:#F1F2F2;stroke:#1D396A;stroke-width:2;stroke-miterlimit:10;}
	.st18{fill:#F1F2F2;}
	.st19{fill:#FFFFFD;}
	.st20{fill:#D1D3D4;stroke:#1D396A;stroke-width:2;stroke-miterlimit:10;}
	.st21{fill:#D3CE24;stroke:#1D396A;stroke-width:2;stroke-miterlimit:10;}
</style>
<g>
	<circle class="st0" cx="78.458" cy="100.086" r="75.458"/>
	<circle class="st0" cx="925.179" cy="99.914" r="75.458"/>
	<circle class="st0" cx="496.774" cy="99.914" r="75.458"/>
</g>
<g>
	<g>
		<path class="st1" d="M376.161,111.708c-0.896,0-1.791-0.342-2.475-1.025c-1.367-1.367-1.367-3.583,0-4.95l12.408-12.408
			l-12.408-12.408c-1.367-1.367-1.367-3.583,0-4.95c1.365-1.367,3.582-1.367,4.949,0l17.359,17.358l-17.359,17.358
			C377.952,111.366,377.056,111.708,376.161,111.708z"/>
	</g>
	<g>
		<path class="st1" d="M801.443,111.708c-0.896,0-1.791-0.342-2.475-1.025c-1.367-1.367-1.367-3.583,0-4.95l12.408-12.408
			l-12.408-12.408c-1.367-1.367-1.367-3.583,0-4.95c1.365-1.367,3.582-1.367,4.949,0l17.359,17.358l-17.359,17.358
			C803.234,111.366,802.339,111.708,801.443,111.708z"/>
	</g>
	<g>
		<path class="st2" d="M181.457,92.542c1.529,0.941,3.764,1.726,6.116,1.726c3.489,0,5.528-1.843,5.528-4.508
			c0-2.471-1.411-3.882-4.979-5.253c-4.312-1.53-6.978-3.764-6.978-7.489c0-4.117,3.411-7.174,8.547-7.174
			c2.705,0,4.666,0.626,5.842,1.293l-0.941,2.784c-0.863-0.47-2.627-1.255-5.018-1.255c-3.607,0-4.979,2.156-4.979,3.96
			c0,2.469,1.607,3.685,5.254,5.097c4.469,1.724,6.743,3.88,6.743,7.762c0,4.077-3.019,7.606-9.252,7.606
			c-2.548,0-5.332-0.745-6.744-1.686L181.457,92.542z"/>
	</g>
	<g>
		<path class="st2" d="M204.782,72.274v5.45h4.94v2.626h-4.94v10.233c0,2.353,0.667,3.685,2.588,3.685
			c0.901,0,1.568-0.118,1.999-0.235l0.157,2.587c-0.666,0.273-1.725,0.47-3.058,0.47c-1.607,0-2.901-0.51-3.725-1.451
			c-0.98-1.018-1.333-2.704-1.333-4.94V80.35h-2.941v-2.626h2.941v-4.548L204.782,72.274z"/>
	</g>
	<g>
		<path class="st2" d="M223.717,96.699l-0.274-2.393h-0.118c-1.058,1.491-3.097,2.824-5.802,2.824c-3.842,0-5.803-2.706-5.803-5.45
			c0-4.587,4.077-7.096,11.409-7.058v-0.392c0-1.568-0.432-4.392-4.313-4.392c-1.764,0-3.607,0.55-4.94,1.411l-0.784-2.273
			c1.568-1.02,3.842-1.686,6.234-1.686c5.802,0,7.214,3.959,7.214,7.762v7.096c0,1.646,0.078,3.254,0.314,4.548H223.717z
			 M223.207,87.016c-3.764-0.08-8.037,0.588-8.037,4.272c0,2.236,1.49,3.294,3.254,3.294c2.47,0,4.038-1.568,4.587-3.176
			c0.118-0.353,0.196-0.745,0.196-1.098V87.016z"/>
	</g>
	<g>
		<path class="st2" d="M231.712,83.644c0-2.234-0.039-4.155-0.157-5.92h3.019l0.118,3.724h0.157
			c0.863-2.547,2.941-4.155,5.254-4.155c0.392,0,0.666,0.038,0.98,0.117v3.254c-0.353-0.078-0.706-0.117-1.176-0.117
			c-2.431,0-4.156,1.843-4.626,4.43c-0.079,0.47-0.157,1.02-0.157,1.608v10.115h-3.411V83.644z"/>
	</g>
	<g>
		<path class="st2" d="M249.234,72.274v5.45h4.94v2.626h-4.94v10.233c0,2.353,0.666,3.685,2.588,3.685
			c0.902,0,1.568-0.118,1.999-0.235l0.157,2.587c-0.667,0.273-1.725,0.47-3.058,0.47c-1.607,0-2.902-0.51-3.725-1.451
			c-0.98-1.018-1.333-2.704-1.333-4.94V80.35h-2.941v-2.626h2.941v-4.548L249.234,72.274z"/>
	</g>
	<g>
		<path class="st2" d="M276.086,96.699l-0.275-2.393h-0.118c-1.058,1.491-3.097,2.824-5.802,2.824c-3.842,0-5.803-2.706-5.803-5.45
			c0-4.587,4.077-7.096,11.409-7.058v-0.392c0-1.568-0.432-4.392-4.313-4.392c-1.764,0-3.607,0.55-4.94,1.411l-0.784-2.273
			c1.568-1.02,3.842-1.686,6.234-1.686c5.802,0,7.214,3.959,7.214,7.762v7.096c0,1.646,0.078,3.254,0.314,4.548H276.086z
			 M275.576,87.016c-3.764-0.08-8.037,0.588-8.037,4.272c0,2.236,1.49,3.294,3.254,3.294c2.47,0,4.038-1.568,4.587-3.176
			c0.118-0.353,0.196-0.745,0.196-1.098V87.016z"/>
	</g>
	<g>
		<path class="st2" d="M182.921,115.142l3.725,10.663c0.627,1.726,1.137,3.294,1.529,4.862h0.118
			c0.431-1.568,0.98-3.136,1.607-4.862l3.685-10.663h3.607l-7.449,18.975h-3.293l-7.214-18.975H182.921z"/>
	</g>
	<g>
		<path class="st2" d="M203.893,109.809c0.039,1.176-0.823,2.118-2.196,2.118c-1.215,0-2.078-0.941-2.078-2.118
			c0-1.215,0.902-2.156,2.156-2.156C203.07,107.653,203.893,108.594,203.893,109.809z M200.051,134.117v-18.975h3.45v18.975H200.051
			z"/>
	</g>
	<g>
		<path class="st2" d="M225.22,106.282v22.934c0,1.686,0.04,3.607,0.157,4.902h-3.097l-0.157-3.294h-0.079
			c-1.058,2.118-3.372,3.725-6.469,3.725c-4.587,0-8.116-3.882-8.116-9.645c-0.039-6.313,3.881-10.193,8.508-10.193
			c2.901,0,4.861,1.371,5.724,2.901h0.078v-11.329H225.22z M221.77,122.865c0-0.432-0.039-1.02-0.157-1.449
			c-0.51-2.196-2.392-4-4.979-4c-3.568,0-5.685,3.137-5.685,7.333c0,3.842,1.882,7.018,5.606,7.018c2.313,0,4.43-1.529,5.057-4.117
			c0.117-0.47,0.157-0.941,0.157-1.489V122.865z"/>
	</g>
	<g>
		<path class="st2" d="M232.47,125.257c0.079,4.665,3.058,6.586,6.508,6.586c2.47,0,3.96-0.432,5.254-0.98l0.588,2.469
			c-1.215,0.55-3.293,1.176-6.312,1.176c-5.841,0-9.331-3.842-9.331-9.567c0-5.723,3.372-10.231,8.899-10.231
			c6.195,0,7.841,5.45,7.841,8.939c0,0.705-0.078,1.255-0.117,1.608H232.47z M242.585,122.786c0.039-2.196-0.902-5.606-4.783-5.606
			c-3.489,0-5.018,3.216-5.293,5.606H242.585z"/>
	</g>
	<g>
		<path class="st2" d="M266.967,124.472c0,7.018-4.862,10.077-9.448,10.077c-5.136,0-9.096-3.764-9.096-9.763
			c0-6.351,4.156-10.075,9.409-10.075C263.282,114.711,266.967,118.669,266.967,124.472z M251.912,124.669
			c0,4.155,2.392,7.293,5.763,7.293c3.293,0,5.763-3.097,5.763-7.371c0-3.216-1.607-7.293-5.685-7.293
			C253.677,117.298,251.912,121.062,251.912,124.669z"/>
	</g>
	<g>
		<path class="st2" d="M292.367,133.411c-0.902,0.472-2.901,1.098-5.449,1.098c-5.724,0-9.448-3.882-9.448-9.683
			c0-5.841,3.999-10.077,10.193-10.077c2.039,0,3.842,0.51,4.783,0.981l-0.784,2.666c-0.823-0.472-2.117-0.901-3.999-0.901
			c-4.352,0-6.704,3.214-6.704,7.174c0,4.39,2.823,7.096,6.587,7.096c1.96,0,3.254-0.51,4.234-0.941L292.367,133.411z"/>
	</g>
	<g>
		<path class="st2" d="M296.011,106.282h3.45v11.839h0.078c0.549-0.98,1.412-1.843,2.47-2.431c1.02-0.588,2.235-0.98,3.529-0.98
			c2.548,0,6.626,1.568,6.626,8.116v11.291h-3.45v-10.9c0-3.057-1.137-5.645-4.391-5.645c-2.235,0-3.999,1.568-4.626,3.449
			c-0.196,0.472-0.235,0.981-0.235,1.648v11.448h-3.45V106.282z"/>
	</g>
	<g>
		<path class="st2" d="M327.882,134.117l-0.274-2.393h-0.118c-1.058,1.491-3.097,2.824-5.802,2.824c-3.842,0-5.803-2.706-5.803-5.45
			c0-4.587,4.077-7.096,11.409-7.058v-0.392c0-1.568-0.432-4.392-4.313-4.392c-1.764,0-3.607,0.55-4.94,1.411l-0.784-2.273
			c1.568-1.02,3.842-1.686,6.234-1.686c5.802,0,7.214,3.959,7.214,7.762v7.096c0,1.646,0.078,3.254,0.314,4.548H327.882z
			 M327.372,124.434c-3.764-0.08-8.037,0.588-8.037,4.272c0,2.236,1.49,3.294,3.254,3.294c2.47,0,4.038-1.568,4.587-3.176
			c0.118-0.353,0.196-0.745,0.196-1.098V124.434z"/>
	</g>
	<g>
		<path class="st2" d="M339.876,109.692v5.45h4.94v2.626h-4.94v10.233c0,2.353,0.666,3.685,2.588,3.685
			c0.902,0,1.568-0.118,1.999-0.235l0.157,2.587c-0.667,0.273-1.725,0.47-3.058,0.47c-1.607,0-2.902-0.51-3.725-1.451
			c-0.98-1.018-1.333-2.704-1.333-4.94v-10.35h-2.941v-2.626h2.941v-4.548L339.876,109.692z"/>
	</g>
	<g>
		<path class="st2" d="M1051.698,111.171c-1.529,0.55-4.548,1.451-8.116,1.451c-3.999,0-7.292-1.02-9.88-3.489
			c-2.274-2.196-3.685-5.725-3.685-9.842c0.039-7.879,5.449-13.644,14.31-13.644c3.058,0,5.449,0.666,6.587,1.216l-0.823,2.784
			c-1.412-0.628-3.176-1.138-5.842-1.138c-6.43,0-10.625,3.999-10.625,10.625c0,6.704,4.038,10.665,10.194,10.665
			c2.235,0,3.764-0.315,4.548-0.706v-7.881h-5.371v-2.744h8.704V111.171z"/>
	</g>
	<g>
		<path class="st2" d="M1058.515,103.487c0.079,4.665,3.058,6.586,6.508,6.586c2.47,0,3.96-0.43,5.254-0.98l0.588,2.471
			c-1.215,0.548-3.293,1.176-6.312,1.176c-5.841,0-9.331-3.844-9.331-9.567c0-5.725,3.372-10.233,8.9-10.233
			c6.195,0,7.841,5.45,7.841,8.939c0,0.706-0.078,1.255-0.117,1.608H1058.515z M1068.63,101.018
			c0.039-2.196-0.902-5.606-4.783-5.606c-3.489,0-5.018,3.214-5.293,5.606H1068.63z"/>
	</g>
	<g>
		<path class="st2" d="M1079.996,87.922v5.45h4.94v2.627h-4.94v10.232c0,2.353,0.667,3.685,2.588,3.685
			c0.902,0,1.568-0.117,1.999-0.235l0.157,2.587c-0.667,0.275-1.725,0.472-3.058,0.472c-1.607,0-2.901-0.51-3.725-1.451
			c-0.98-1.02-1.333-2.706-1.333-4.94v-10.35h-2.941v-2.627h2.941v-4.549L1079.996,87.922z"/>
	</g>
	<g>
		<path class="st2" d="M1106.849,112.347l-0.275-2.391h-0.118c-1.058,1.489-3.097,2.822-5.802,2.822
			c-3.842,0-5.803-2.706-5.803-5.45c0-4.587,4.077-7.096,11.409-7.056V99.88c0-1.568-0.432-4.39-4.313-4.39
			c-1.764,0-3.607,0.548-4.94,1.411l-0.784-2.274c1.568-1.02,3.842-1.686,6.234-1.686c5.802,0,7.214,3.96,7.214,7.762v7.098
			c0,1.646,0.078,3.254,0.314,4.547H1106.849z M1106.339,102.664c-3.764-0.078-8.037,0.588-8.037,4.274
			c0,2.234,1.49,3.294,3.254,3.294c2.47,0,4.038-1.57,4.587-3.176c0.118-0.353,0.196-0.746,0.196-1.098V102.664z"/>
	</g>
	<g>
		<path class="st2" d="M1122.761,99.566c0-2.431-0.078-4.39-0.157-6.195h3.097l0.157,3.254h0.078
			c1.412-2.313,3.646-3.685,6.744-3.685c4.587,0,8.037,3.882,8.037,9.645c0,6.821-4.156,10.193-8.625,10.193
			c-2.509,0-4.705-1.098-5.842-2.979h-0.078v10.31h-3.411V99.566z M1126.172,104.625c0,0.508,0.078,0.98,0.157,1.411
			c0.627,2.391,2.705,4.037,5.175,4.037c3.646,0,5.763-2.979,5.763-7.331c0-3.802-1.999-7.058-5.646-7.058
			c-2.352,0-4.548,1.686-5.214,4.274c-0.118,0.432-0.235,0.941-0.235,1.411V104.625z"/>
	</g>
	<g>
		<path class="st2" d="M1144.673,99.291c0-2.234-0.039-4.155-0.157-5.92h3.019l0.118,3.725h0.157
			c0.863-2.549,2.941-4.157,5.254-4.157c0.392,0,0.666,0.04,0.98,0.118v3.254c-0.353-0.078-0.706-0.118-1.176-0.118
			c-2.431,0-4.156,1.843-4.626,4.43c-0.079,0.472-0.157,1.02-0.157,1.608v10.115h-3.411V99.291z"/>
	</g>
	<g>
		<path class="st2" d="M1161.098,88.04c0.04,1.176-0.823,2.118-2.196,2.118c-1.215,0-2.078-0.941-2.078-2.118
			c0-1.216,0.902-2.156,2.156-2.156C1160.275,85.884,1161.098,86.824,1161.098,88.04z M1157.256,112.347V93.372h3.45v18.975
			H1157.256z"/>
	</g>
	<g>
		<path class="st2" d="M1179.563,111.642c-0.902,0.47-2.901,1.098-5.449,1.098c-5.724,0-9.448-3.882-9.448-9.685
			c0-5.841,3.999-10.075,10.193-10.075c2.039,0,3.842,0.51,4.783,0.98l-0.784,2.666c-0.823-0.47-2.117-0.901-3.999-0.901
			c-4.352,0-6.704,3.216-6.704,7.174c0,4.392,2.823,7.096,6.587,7.096c1.96,0,3.254-0.51,4.234-0.94L1179.563,111.642z"/>
	</g>
	<g>
		<path class="st2" d="M1184.892,103.487c0.078,4.665,3.058,6.586,6.508,6.586c2.47,0,0.96-0.43,2.254-0.98l0.588,2.471
			c-1.215,0.548-0.294,1.176-3.312,1.176c-5.842,0-9.331-3.844-9.331-9.567c0-5.725,3.371-10.233,8.899-10.233
			c6.195,0,4.841,5.45,4.841,8.939c0,0.706-0.078,1.255-0.117,1.608H1184.892z M1192.007,101.018
			c0.04-2.196,2.099-5.606-1.783-5.606c-3.489,0-5.018,3.214-5.293,5.606H1192.007z"/>
	</g>
	<g>
		<path class="st2" d="M602.1,90.2c1.529,0.941,3.764,1.726,6.116,1.726c3.489,0,5.528-1.843,5.528-4.508
			c0-2.471-1.411-3.882-4.979-5.253c-4.312-1.53-6.978-3.764-6.978-7.489c0-4.117,3.411-7.174,8.547-7.174
			c2.705,0,4.666,0.626,5.842,1.293l-0.941,2.784c-0.863-0.47-2.627-1.255-5.018-1.255c-3.607,0-4.979,2.156-4.979,3.96
			c0,2.469,1.607,3.685,5.254,5.097c4.469,1.724,6.743,3.88,6.743,7.762c0,4.077-3.019,7.606-9.252,7.606
			c-2.548,0-5.332-0.745-6.744-1.686L602.1,90.2z"/>
	</g>
	<g>
		<path class="st2" d="M621.386,66.521h3.45V78.36h0.078c0.549-0.98,1.412-1.843,2.47-2.431c1.02-0.588,2.235-0.98,3.529-0.98
			c2.548,0,6.626,1.568,6.626,8.116v11.291h-3.45v-10.9c0-3.057-1.137-5.645-4.391-5.645c-2.235,0-3.999,1.568-4.626,3.449
			c-0.196,0.472-0.235,0.981-0.235,1.648v11.448h-3.45V66.521z"/>
	</g>
	<g>
		<path class="st2" d="M659.921,84.711c0,7.018-4.862,10.077-9.448,10.077c-5.136,0-9.096-3.764-9.096-9.763
			c0-6.351,4.156-10.075,9.409-10.075C656.236,74.95,659.921,78.908,659.921,84.711z M644.867,84.908
			c0,4.155,2.392,7.293,5.763,7.293c3.293,0,5.763-3.097,5.763-7.371c0-3.216-1.607-7.293-5.685-7.293
			C646.631,77.537,644.867,81.301,644.867,84.908z"/>
	</g>
	<g>
		<path class="st2" d="M664.976,75.381l2.509,9.643c0.549,2.118,1.058,4.079,1.411,6.038h0.117c0.432-1.921,1.059-3.96,1.686-5.998
			l3.097-9.683h2.901l2.94,9.487c0.706,2.274,1.255,4.274,1.686,6.195h0.117c0.314-1.921,0.823-3.92,1.451-6.155l2.705-9.527h3.411
			l-6.116,18.975h-3.136l-2.902-9.057c-0.666-2.118-1.215-3.999-1.686-6.233h-0.078c-0.471,2.273-1.059,4.234-1.725,6.273
			l-3.058,9.017h-3.136l-5.724-18.975H664.976z"/>
	</g>
	<g>
		<path class="st2" d="M715.859,89.182c0,1.959,0.039,3.685,0.157,5.175h-3.058l-0.196-3.097h-0.078
			c-0.902,1.53-2.902,3.529-6.273,3.529c-2.98,0-6.547-1.648-6.547-8.312V75.381h3.45v10.506c0,3.607,1.098,6.038,4.234,6.038
			c2.313,0,3.921-1.608,4.548-3.137c0.196-0.51,0.314-1.136,0.314-1.764V75.381h3.45V89.182z"/>
	</g>
	<g>
		<path class="st2" d="M720.717,90.828c1.019,0.666,2.823,1.373,4.548,1.373c2.509,0,3.685-1.255,3.685-2.824
			c0-1.646-0.98-2.547-3.528-3.489c-3.411-1.215-5.018-3.097-5.018-5.372c0-3.057,2.47-5.566,6.547-5.566
			c1.921,0,3.607,0.548,4.665,1.176l-0.862,2.509c-0.745-0.472-2.117-1.098-3.882-1.098c-2.038,0-3.176,1.176-3.176,2.587
			c0,1.568,1.137,2.274,3.607,3.214c3.293,1.255,4.979,2.902,4.979,5.725c0,3.332-2.587,5.685-7.096,5.685
			c-2.078,0-3.999-0.51-5.332-1.293L720.717,90.828z"/>
	</g>
	<g>
		<path class="st2" d="M602.516,112.799l4.156,11.213c0.432,1.255,0.902,2.744,1.215,3.88h0.079
			c0.353-1.136,0.745-2.587,1.215-3.959l3.764-11.135h3.646l-5.175,13.525c-2.47,6.508-4.156,9.84-6.508,11.879
			c-1.686,1.489-3.372,2.078-4.234,2.234l-0.862-2.901c0.862-0.275,1.999-0.823,3.019-1.686c0.941-0.745,2.117-2.078,2.901-3.842
			c0.157-0.353,0.274-0.628,0.274-0.823c0-0.197-0.078-0.472-0.235-0.901l-7.018-17.486H602.516z"/>
	</g>
	<g>
		<path class="st2" d="M636.112,122.129c0,7.018-4.862,10.077-9.448,10.077c-5.136,0-9.096-3.764-9.096-9.763
			c0-6.351,4.156-10.075,9.409-10.075C632.427,112.368,636.112,116.326,636.112,122.129z M621.058,122.326
			c0,4.155,2.391,7.293,5.763,7.293c3.293,0,5.763-3.097,5.763-7.371c0-3.216-1.608-7.293-5.685-7.293
			C622.822,114.955,621.058,118.719,621.058,122.326z"/>
	</g>
	<g>
		<path class="st2" d="M655.947,126.6c0,1.959,0.039,3.685,0.157,5.175h-3.058l-0.196-3.097h-0.078
			c-0.902,1.529-2.902,3.529-6.273,3.529c-2.98,0-6.547-1.648-6.547-8.312v-11.095h3.45v10.506c0,3.607,1.098,6.038,4.234,6.038
			c2.313,0,3.921-1.608,4.548-3.137c0.196-0.51,0.314-1.136,0.314-1.764v-11.643h3.45V126.6z"/>
	</g>
	<g>
		<path class="st2" d="M661.276,118.719c0-2.234-0.039-4.155-0.157-5.92h3.019l0.118,3.724h0.157
			c0.863-2.547,2.941-4.155,5.254-4.155c0.392,0,0.666,0.038,0.98,0.117v3.254c-0.353-0.078-0.706-0.117-1.176-0.117
			c-2.431,0-4.156,1.843-4.626,4.43c-0.079,0.47-0.157,1.02-0.157,1.608v10.115h-3.411V118.719z"/>
	</g>
	<g>
		<path class="st2" d="M685.462,107.466c0.039,1.176-0.823,2.118-2.195,2.118c-1.215,0-2.078-0.941-2.078-2.118
			c0-1.215,0.902-2.156,2.156-2.156C684.639,105.31,685.462,106.251,685.462,107.466z M681.62,131.775v-18.975h3.45v18.975H681.62z"
			/>
	</g>
	<g>
		<path class="st2" d="M694.556,107.349v5.45h4.94v2.626h-4.94v10.233c0,2.353,0.666,3.685,2.588,3.685
			c0.902,0,1.568-0.118,1.999-0.235l0.157,2.587c-0.667,0.273-1.725,0.47-3.058,0.47c-1.607,0-2.902-0.51-3.725-1.451
			c-0.98-1.018-1.333-2.704-1.333-4.94v-10.35h-2.941v-2.626h2.941v-4.548L694.556,107.349z"/>
	</g>
	<g>
		<path class="st2" d="M704.669,122.914c0.078,4.665,3.058,6.586,6.508,6.586c2.47,0,3.96-0.432,5.254-0.98l0.588,2.469
			c-1.215,0.55-3.294,1.176-6.312,1.176c-5.842,0-9.331-3.842-9.331-9.567c0-5.723,3.371-10.231,8.899-10.231
			c6.195,0,7.841,5.45,7.841,8.939c0,0.705-0.078,1.255-0.117,1.608H704.669z M714.784,120.443c0.04-2.196-0.901-5.606-4.783-5.606
			c-3.489,0-5.018,3.216-5.293,5.606H714.784z"/>
	</g>
	<g>
		<path class="st2" d="M721.995,117.934c0-1.959-0.039-3.567-0.157-5.135h3.019l0.157,3.057h0.117
			c1.059-1.803,2.823-3.489,5.959-3.489c2.587,0,4.548,1.568,5.371,3.802h0.078c0.588-1.058,1.333-1.881,2.117-2.469
			c1.137-0.863,2.392-1.333,4.195-1.333c2.509,0,6.233,1.646,6.233,8.232v11.175h-3.371v-10.743c0-3.645-1.333-5.841-4.117-5.841
			c-1.961,0-3.489,1.451-4.077,3.137c-0.157,0.47-0.275,1.096-0.275,1.724v11.723h-3.372v-11.369c0-3.019-1.333-5.215-3.96-5.215
			c-2.156,0-3.724,1.724-4.273,3.451c-0.196,0.51-0.275,1.098-0.275,1.686v11.448h-3.372V117.934z"/>
	</g>
	<g>
		<path class="st2" d="M753.825,128.246c1.019,0.666,2.823,1.373,4.548,1.373c2.509,0,3.685-1.255,3.685-2.824
			c0-1.646-0.98-2.547-3.528-3.489c-3.411-1.215-5.018-3.097-5.018-5.372c0-3.057,2.47-5.566,6.547-5.566
			c1.922,0,3.607,0.548,4.666,1.176l-0.862,2.509c-0.745-0.472-2.117-1.098-3.882-1.098c-2.039,0-3.176,1.176-3.176,2.587
			c0,1.568,1.137,2.274,3.607,3.214c3.293,1.255,4.979,2.902,4.979,5.725c0,3.332-2.588,5.685-7.096,5.685
			c-2.078,0-3.999-0.51-5.332-1.293L753.825,128.246z"/>
	</g>
</g>
<g>
	<path class="st3" d="M153.915,100.086c0-1.946-0.074-3.874-0.218-5.783l-44.548-44.548L48.207,148.18l27.301,27.301
		c0.979,0.038,1.961,0.063,2.949,0.063C120.132,175.544,153.915,141.76,153.915,100.086z"/>
	<g>
		<g>
			<path class="st4" d="M52.168,151.529c-3.041,0-5.515-2.474-5.515-5.516V54.158c0-3.042,2.474-5.516,5.515-5.516h52.576
				c3.042,0,5.516,2.474,5.516,5.516v91.855c0,3.042-2.475,5.516-5.516,5.516H52.168z"/>
			<path class="st5" d="M104.745,49.643c2.494,0,4.516,2.022,4.516,4.516v91.855c0,2.494-2.023,4.516-4.516,4.516H52.169
				c-2.494,0-4.515-2.022-4.515-4.516V54.158c0-2.494,2.021-4.516,4.515-4.516H104.745 M104.745,47.643H52.169
				c-3.592,0-6.515,2.923-6.515,6.516v91.855c0,3.593,2.923,6.516,6.515,6.516h52.576c3.593,0,6.516-2.923,6.516-6.516V54.158
				C111.261,50.566,108.338,47.643,104.745,47.643L104.745,47.643z"/>
		</g>
		<path class="st6" d="M104.745,49.643H98.38c2.494,0,4.516,2.022,4.516,4.516v91.855c0,2.494-2.023,4.516-4.516,4.516h6.365
			c2.494,0,4.516-2.022,4.516-4.516V54.158C109.261,51.665,107.238,49.643,104.745,49.643z"/>
		<path class="st7" d="M52.702,150.529h6.365c-2.494,0-4.516-2.022-4.516-4.516V54.158c0-2.494,2.023-4.516,4.516-4.516h-6.365
			c-2.494,0-4.516,2.022-4.516,4.516v91.855C48.186,148.507,50.208,150.529,52.702,150.529z"/>
		<circle class="st8" cx="78.457" cy="75.345" r="17.98"/>
		<circle class="st9" cx="78.457" cy="75.345" r="13.366"/>
		<path class="st10" d="M69.228,75.345c0-5.093,4.133-9.229,9.229-9.229"/>
		<circle class="st5" cx="78.457" cy="75.345" r="5.728"/>
		<radialGradient id="SVGID_1_" cx="81.0566" cy="75.2384" r="4.0844" gradientUnits="userSpaceOnUse">
			<stop  offset="0" style="stop-color:#FFFFFF;stop-opacity:0.5"/>
			<stop  offset="1" style="stop-color:#FFFFFF;stop-opacity:0"/>
		</radialGradient>
		<circle class="st11" cx="78.723" cy="75.345" r="4.084"/>
		<circle class="st12" cx="60.477" cy="58.729" r="3.408"/>
	</g>
	<path class="st3" d="M999.48,113.142l-36.531-36.531l-67.283,71.65l27.067,27.067c0.812,0.026,1.627,0.044,2.446,0.044
		C962.339,175.372,993.226,148.508,999.48,113.142z"/>
	<g>
		<path class="st7" d="M900.944,150.4c-4.412,0-8.001-3.59-8.001-8.002V57.429c0-4.412,3.589-8.001,8.001-8.001h35.16l26.988,26.988
			v65.981c0,4.412-3.589,8.002-8.001,8.002H900.944z"/>
		<path class="st5" d="M935.69,50.428l26.402,26.402v65.568c0,3.867-3.135,7.001-7.001,7.001h-54.147
			c-3.867,0-7.001-3.134-7.001-7.001V57.429c0-3.867,3.135-7.001,7.001-7.001H935.69 M936.519,48.428h-0.828h-34.746
			c-4.963,0-9.001,4.038-9.001,9.001v84.969c0,4.963,4.038,9.001,9.001,9.001h54.147c4.963,0,9.001-4.038,9.001-9.001V76.831v-0.828
			l-0.586-0.586l-26.402-26.402L936.519,48.428L936.519,48.428z"/>
	</g>
	<path class="st4" d="M935.69,50.428h-10.184l26.402,26.402v65.568c0,3.867-3.135,7.001-7.001,7.001h10.184
		c3.866,0,7.001-3.134,7.001-7.001V76.831L935.69,50.428z"/>
	<g>
		<path class="st13" d="M942.691,77.83c-4.412,0-8.001-3.589-8.001-8.001V50.428c0-0.404,0.244-0.77,0.617-0.924
			c0.124-0.052,0.254-0.076,0.383-0.076c0.26,0,0.516,0.102,0.707,0.293L962.8,76.123c0.286,0.286,0.372,0.716,0.217,1.09
			s-0.52,0.617-0.924,0.617H942.691z"/>
		<path class="st5" d="M935.69,50.428l26.402,26.402h-19.401c-3.866,0-7.001-3.134-7.001-7.001V50.428 M935.69,48.428
			c-0.258,0-0.517,0.05-0.765,0.152c-0.747,0.31-1.235,1.039-1.235,1.848v19.401c0,4.963,4.038,9.001,9.001,9.001h19.401
			c0.809,0,1.538-0.487,1.848-1.235c0.31-0.747,0.138-1.608-0.434-2.18l-26.402-26.402C936.722,48.631,936.21,48.428,935.69,48.428
			L935.69,48.428z"/>
	</g>
	<line class="st14" x1="899.671" y1="63.629" x2="931.177" y2="63.629"/>
	<line class="st14" x1="899.671" y1="74.296" x2="931.177" y2="74.296"/>
	<line class="st14" x1="899.671" y1="84.962" x2="955.999" y2="84.962"/>
	<line class="st14" x1="899.671" y1="95.629" x2="914.31" y2="95.629"/>
	<line class="st14" x1="919.243" y1="95.629" x2="955.999" y2="95.629"/>
	<line class="st14" x1="899.671" y1="106.295" x2="955.999" y2="106.295"/>
	<line class="st14" x1="899.671" y1="116.962" x2="931.177" y2="116.962"/>
	<line class="st14" x1="935.69" y1="116.962" x2="956.794" y2="116.962"/>
	<path class="st14" d="M933.627,126.529c0,0-0.701-1.939-3.846-1.939c-2.709,0-4.729,0.842-4.729,3.278
		c0,4.113,9.314,3.679,9.312,7.757c-0.001,1.607-0.802,3.747-4.391,3.747c-3.855,0-4.822-2.14-4.822-2.14"/>
	<line class="st14" x1="929.757" y1="122.939" x2="929.757" y2="140.977"/>
	<path class="st3" d="M449.753,141.711l32.202,32.202c4.792,0.955,9.747,1.459,14.819,1.459c41.674,0,75.457-33.784,75.457-75.458
		c0-0.126-0.004-0.25-0.004-0.376l-43.331-43.331L449.753,141.711z"/>
	<g>
		<path class="st13" d="M536.23,142.711c-1.975,0-3.521-1.197-3.521-2.727v-7.198c0-1.528,1.546-2.726,3.521-2.726h4.035
			c1.975,0,3.521,1.197,3.521,2.726v7.198c0,1.529-1.547,2.727-3.521,2.727H536.23z"/>
		<path class="st5" d="M540.265,131.06c1.392,0,2.522,0.773,2.522,1.726v7.198c0,0.953-1.129,1.726-2.522,1.726h-4.034
			c-1.392,0-2.521-0.773-2.521-1.726v-7.198c0-0.953,1.129-1.726,2.521-1.726H540.265 M540.265,129.06h-4.034
			c-2.535,0-4.521,1.637-4.521,3.726v7.198c0,2.089,1.986,3.726,4.521,3.726h4.034c2.536,0,4.522-1.637,4.522-3.726v-7.198
			C544.787,130.697,542.801,129.06,540.265,129.06L540.265,129.06z"/>
	</g>
	<path class="st15" d="M540.265,131.06h-2.276c1.392,0,2.521,0.773,2.521,1.726v7.198c0,0.954-1.129,1.726-2.521,1.726h2.276
		c1.392,0,2.522-0.773,2.522-1.726v-7.198C542.787,131.834,541.657,131.06,540.265,131.06z"/>
	<g>
		<path class="st13" d="M452.273,142.711c-1.975,0-3.521-1.197-3.521-2.727v-7.198c0-1.528,1.546-2.726,3.521-2.726h4.035
			c1.975,0,3.521,1.197,3.521,2.726v7.198c0,1.529-1.547,2.727-3.521,2.727H452.273z"/>
		<path class="st5" d="M456.308,131.06c1.392,0,2.522,0.773,2.522,1.726v7.198c0,0.953-1.129,1.726-2.522,1.726h-4.035
			c-1.392,0-2.521-0.773-2.521-1.726v-7.198c0-0.953,1.129-1.726,2.521-1.726H456.308 M456.308,129.06h-4.035
			c-2.535,0-4.521,1.637-4.521,3.726v7.198c0,2.089,1.986,3.726,4.521,3.726h4.035c2.536,0,4.522-1.637,4.522-3.726v-7.198
			C460.83,130.697,458.844,129.06,456.308,129.06L456.308,129.06z"/>
	</g>
	<path class="st15" d="M456.308,131.06h-2.276c1.392,0,2.521,0.773,2.521,1.726v7.198c0,0.954-1.129,1.726-2.521,1.726h2.276
		c1.392,0,2.522-0.773,2.522-1.726v-7.198C458.83,131.834,457.7,131.06,456.308,131.06z"/>
	<g>
		<path class="st16" d="M477.342,108.285c-10.633,0-19.284-8.65-19.284-19.283V70.308c0-10.632,8.65-19.282,19.284-19.282h37.878
			c10.633,0,19.284,8.65,19.284,19.282v18.694c0,10.633-8.65,19.283-19.284,19.283H477.342z"/>
		<path class="st5" d="M515.221,52.025c10.098,0,18.284,8.186,18.284,18.283v18.694c0,10.098-8.186,18.284-18.284,18.284h-37.879
			c-10.098,0-18.284-8.185-18.284-18.284V70.308c0-10.097,8.186-18.283,18.284-18.283H515.221 M515.221,50.025h-37.879
			c-11.184,0-20.284,9.099-20.284,20.283v18.694c0,11.184,9.099,20.284,20.284,20.284h37.879c11.184,0,20.284-9.099,20.284-20.284
			V70.308C535.504,59.124,526.405,50.025,515.221,50.025L515.221,50.025z"/>
	</g>
	<path class="st15" d="M515.221,52.025h-8.879c10.097,0,18.284,8.186,18.284,18.283v18.694c0,10.098-8.187,18.284-18.284,18.284
		h8.879c10.098,0,18.284-8.185,18.284-18.284V70.308C533.504,60.211,525.318,52.025,515.221,52.025z"/>
	<rect x="459.551" y="104.866" class="st17" width="73.134" height="26.969"/>
	<g>
		<path class="st18" d="M534.817,136.942c-3.265,0-5.92-2.394-5.92-5.336v-48.43c0-2.942,2.656-5.336,5.92-5.336h7.87
			c3.264,0,5.92,2.394,5.92,5.336v48.43c0,2.942-2.656,5.336-5.92,5.336H534.817z"/>
		<path class="st5" d="M542.687,78.841c2.717,0,4.92,1.941,4.92,4.335v48.43c0,2.395-2.202,4.336-4.92,4.336h-7.87
			c-2.717,0-4.92-1.941-4.92-4.336v-48.43c0-2.394,2.203-4.335,4.92-4.335H542.687 M542.687,76.841h-7.87
			c-3.816,0-6.92,2.842-6.92,6.335v48.43c0,3.494,3.104,6.336,6.92,6.336h7.87c3.815,0,6.92-2.842,6.92-6.336v-48.43
			C549.607,79.683,546.503,76.841,542.687,76.841L542.687,76.841z"/>
	</g>
	<path class="st19" d="M477.342,107.285h8.88c-10.098,0-18.284-8.185-18.284-18.283V70.309c0-10.097,8.186-18.284,18.284-18.284
		h-8.88c-10.098,0-18.284,8.186-18.284,18.284v18.694C459.058,99.1,467.244,107.285,477.342,107.285z"/>
	<g>
		<path class="st18" d="M450.859,136.942c-3.264,0-5.919-2.394-5.919-5.336v-48.43c0-2.942,2.655-5.336,5.919-5.336h7.871
			c3.264,0,5.919,2.394,5.919,5.336v48.43c0,2.942-2.655,5.336-5.919,5.336H450.859z"/>
		<path class="st5" d="M458.73,78.841c2.717,0,4.919,1.941,4.919,4.335v48.43c0,2.395-2.202,4.336-4.919,4.336h-7.871
			c-2.717,0-4.92-1.941-4.92-4.336v-48.43c0-2.394,2.203-4.335,4.92-4.335H458.73 M458.73,76.841h-7.871
			c-3.815,0-6.92,2.842-6.92,6.335v48.43c0,3.494,3.104,6.336,6.92,6.336h7.871c3.815,0,6.919-2.842,6.919-6.336v-48.43
			C465.649,79.683,462.545,76.841,458.73,76.841L458.73,76.841z"/>
	</g>
	<path class="st15" d="M458.73,78.841h-4.439c2.716,0,4.919,1.941,4.919,4.335v48.43c0,2.395-2.203,4.336-4.919,4.336h4.439
		c2.717,0,4.919-1.941,4.919-4.336v-48.43C463.649,80.782,461.448,78.841,458.73,78.841z"/>
	<path class="st15" d="M542.687,78.841h-4.439c2.717,0,4.919,1.941,4.919,4.335v48.43c0,2.395-2.202,4.336-4.919,4.336h4.439
		c2.717,0,4.92-1.941,4.92-4.336v-48.43C547.607,80.782,545.405,78.841,542.687,78.841z"/>
	<path class="st20" d="M529.897,98.132c0-3.532-2.863-6.395-6.395-6.395h-53.457c-3.532,0-6.396,2.863-6.396,6.395v6.038
		c0,3.532,2.864,6.395,6.396,6.395h53.457c3.532,0,6.395-2.863,6.395-6.395V98.132z"/>
	<circle class="st21" cx="489.763" cy="65.426" r="1.607"/>
	<circle class="st21" cx="489.763" cy="78.106" r="1.607"/>
	<circle class="st21" cx="502.8" cy="65.426" r="1.607"/>
	<circle class="st21" cx="502.8" cy="78.106" r="1.607"/>
</g>
</svg>
