<?xml version="1.0" encoding="utf-8"?>
<!-- Generator: Adobe Illustrator 20.0.0, SVG Export Plug-In . SVG Version: 6.00 Build 0)  -->
<svg version="1.1" id="Layer_1_h" xmlns="http://www.w3.org/2000/svg" xmlns:xlink="http://www.w3.org/1999/xlink" x="0px" y="0px"
	 width="1205px" height="200px" viewBox="0 0 1205 200" style="enable-background:new 0 0 1205 200;" xml:space="preserve">
<style type="text/css">
	
</style>
<g id="g1">
	<g>
		<path class="st0" d="M577.692,139.337c-0.047-5.383-3.255-9.734-8.371-11.354c-1.029-0.326-1.164-0.639-1.155-1.708
			c0.049-4.974,0.088-10.863,0-16.829c-0.151-10.678-8.618-19.088-19.276-19.147c-4.635-0.024-9.27-0.019-13.906-0.012
			c-2.076,0.003-4.152,0.006-6.228,0.006H508.42c-9.698,0.115-17.943,7.499-18.77,16.81c-0.424,4.753-0.375,9.607-0.329,14.302
			c0.017,1.634,0.033,3.268,0.03,4.901c0,1.058-0.138,1.369-1.17,1.706c-4.869,1.562-8.287,6.086-8.312,11.001
			c-0.04,7.646-0.04,15.419-0.04,22.936c0,5.971,0,11.941-0.019,17.912c-0.002,0.539,0.058,1.319,0.595,1.857
			c0.519,0.52,1.24,0.587,1.811,0.587l0.152-0.002c0.75-0.016,1.503-0.044,2.255-0.073c1.08-0.041,2.196-0.084,3.282-0.084
			c1.357,0,2.475,0.065,3.515,0.204c0.65,0.089,1.269,0.134,1.842,0.134c3.734,0,6.07-1.866,7.139-5.704
			c0.261-0.931,0.761-1.215,2.195-1.215h0.001c3.261,0.01,6.522,0.026,9.783,0.042c5.577,0.027,11.154,0.054,16.732,0.054
			c8.325,0,15.183-0.061,21.584-0.192c4.378-0.089,7.162,0.582,8.406,4.962c0.269,0.941,1.664,1.771,2.615,1.791
			c2.343,0.057,4.718,0.061,6.761,0.061l2.27-0.001c1.487,0,2.976,0.003,4.522,0.021c0.539,0,1.319-0.064,1.868-0.615
			c0.552-0.554,0.614-1.343,0.612-1.886c-0.009-4.835-0.006-9.67-0.002-14.504C577.755,156.788,577.762,147.99,577.692,139.337z
			 M572.388,175.593c1.125,0,2.527,0,2.784,0.286c0.262,0.292,0.111,1.693-0.045,3.157c-0.047,0.18-0.39,0.564-0.581,0.654
			c-1.916,0.049-3.913,0.073-6.105,0.073c-2.098,0-4.197-0.022-6.298-0.055c-0.168-0.002-0.575-0.233-0.682-0.414
			c-0.573-0.975-1.082-2.001-1.671-3.189c-0.083-0.168-0.168-0.338-0.254-0.513L572.388,175.593z M495.864,179.664
			c-0.059,0.022-0.146,0.042-0.202,0.043c-2.602,0.012-5.203,0.015-7.828,0.015l-5.254-0.001v-3.957h15.348l-0.115,0.222
			C497.152,177.261,496.528,178.467,495.864,179.664z M491.947,115.353c-0.009-1.744-0.018-3.489-0.011-5.234
			c0.033-9.8,7.458-17.199,17.271-17.212c7.124-0.01,14.245-0.015,21.369-0.015c5.966,0,11.933,0.004,17.9,0.013
			c9.777,0.017,16.965,7.15,17.091,16.959c0.027,2.307,0.02,4.617,0.012,6.928c-0.01,2.982-0.021,6.065,0.047,9.099
			c0.015,0.673-0.058,1.096-0.216,1.258c-0.156,0.159-0.559,0.24-1.24,0.24h-0.001c-5.075-0.032-10.501-0.047-17.592-0.047
			l-4.647,0.002c2.109-0.831,3.493-2.831,3.496-5.347c0.009-6.139-5.143-11.487-11.249-11.678c-3.351-0.102-6.946-0.102-10.79,0
			c-5.994,0.163-11.108,5.417-11.168,11.472c-0.028,2.796,1.214,4.752,3.416,5.559l-4.205-0.002c-5.235,0-11.444,0.005-17.867,0.046
			c-0.803,0-1.261-0.087-1.443-0.274c-0.179-0.185-0.262-0.651-0.241-1.349C491.984,122.295,491.965,118.765,491.947,115.353z
			 M535.184,125.168l-6.423-0.01l-3.086,0.006c-2.485,0.006-4.969,0.012-7.448-0.011c-1.199-0.012-2.094-0.331-2.659-0.947
			c-0.577-0.628-0.823-1.574-0.731-2.81c0.352-4.65,4.263-8.371,8.903-8.469c1.636-0.032,3.273-0.048,4.909-0.048
			c1.747,0,3.5,0.019,5.21,0.056c4.551,0.098,8.551,3.911,8.917,8.496c0.089,1.151-0.17,2.092-0.748,2.722
			c-0.589,0.641-1.53,0.986-2.724,0.997C537.929,125.164,536.556,125.168,535.184,125.168z M482.565,145.302l32.411,0.002
			c18.572,0,38.537-0.006,58.699-0.047c0.701,0,1.143,0.088,1.312,0.261c0.169,0.172,0.244,0.612,0.23,1.346
			c-0.114,6.261-0.072,12.419-0.016,17.616c0.007,0.701-0.093,0.951-0.179,1.038c-0.071,0.071-0.292,0.191-0.975,0.191
			c-23.357-0.03-46.717-0.031-70.075-0.032l-20.43-0.001c-0.305-0.002-0.632-0.038-0.977-0.08V145.302z M575.126,141.985
			c-0.047,0.17-0.466,0.591-0.752,0.679c-0.353,0.107-0.921,0.095-1.487,0.062c-0.271-0.016-0.542-0.031-0.809-0.031h-89.463
			c-0.552-3.739,0.16-6.916,2.078-9.219c1.954-2.348,5.004-3.59,8.819-3.591c23.517-0.008,47.03-0.007,70.54-0.002
			c3.646,0.001,6.614,1.143,8.582,3.302C574.597,135.339,575.458,138.39,575.126,141.985z M482.6,168.269
			c0.03-0.002,0.06-0.004,0.09-0.006c0.499-0.032,0.978-0.064,1.46-0.064l51.922-0.003l36.8,0.001c0.935,0,1.995,0,2.149,0.159
			c0.161,0.166,0.161,1.215,0.161,2.23v2.338H482.6V168.269z"/>
	</g>
	<g>
		<path class="st0" d="M460.648,175.602v-12.493c0.002-22.681,0.002-45.358-0.025-68.033c0-1.198,0.094-1.658,1.141-2.117
			c3.402-1.47,4.936-4.91,4.005-8.977l-0.144-0.629h-74.234l-0.127,0.654c-0.807,4.136,0.557,7.347,3.745,8.813
			c1.231,0.56,1.438,1.131,1.438,2.56c-0.031,20.423-0.028,40.844-0.025,61.263l0.002,17.501c-0.004,7.104,0.97,8.088,8.015,8.097
			c2.761,0,4.298-0.416,5.305-1.437c0.979-0.993,1.382-2.515,1.346-5.088c-0.009-0.771,0.12-1.065,0.229-1.175
			c0.157-0.158,0.562-0.235,1.238-0.235l0.088,0c5.075,0.034,10.15,0.043,15.225,0.043l17.951-0.01
			c0.009,0.03,0.017,0.056,0.02,0.078c-0.213,2.995,0.228,4.97,1.387,6.216c1.366,1.466,3.489,1.668,5.581,1.668
			c0.42,0,0.858-0.01,1.314-0.025C459.184,182.096,460.648,180.599,460.648,175.602z M405.433,179.666
			c-0.409,0.017-0.817,0.022-1.226,0.022l-1.261-0.007c-1.728-0.013-2.738-0.266-3.275-0.819c-0.535-0.551-0.758-1.559-0.722-3.272
			c0.006-0.334,0.036-0.668,0.072-1.071c0.005-0.057,0.01-0.116,0.016-0.175l3.577-0.002c1.883,0,3.728,0.005,5.57,0.028
			c0.1,0.002,0.329,0.099,0.36,0.113c0.519,1.051,0.454,2.311-0.173,3.372C407.733,178.937,406.634,179.613,405.433,179.666z
			 M463.26,85.957c0.134,1.039-0.124,2.122-0.737,3.048c-0.773,1.167-1.997,1.938-3.36,2.113c-0.255,0.033-0.526,0.038-0.782,0.038
			l-0.477-0.002l-29.738,0.004c-9.704,0-19.409-0.002-29.114-0.01c-1.723-0.002-3.114-0.511-4.023-1.473
			c-0.831-0.879-1.283-2.155-1.322-3.718H463.26z M399.09,171.538c-0.068-0.068-0.181-0.283-0.179-0.961
			c0.028-17.899,0.03-35.796,0.032-53.695l0.004-21.948c0-0.317,0.039-0.646,0.085-1.023h58.833v77.778l-22.214-0.002
			c-11.841,0-23.682,0.006-35.548,0.036C399.417,171.722,399.174,171.622,399.09,171.538z M448.484,174.516
			c0.1-0.055,0.38-0.139,0.711-0.151c0.672-0.028,1.344-0.036,2.016-0.036l2.223,0.009c0.389,0,0.777,0.007,1.165,0.013
			c0.926,0.015,1.849,0.028,2.775-0.028c0.371-0.023,0.578,0.045,0.61,0.081c0.005,0.005,0.108,0.124,0.063,0.642
			c-0.032,0.399-0.028,0.785-0.023,1.159c0.004,0.33,0.009,0.659-0.017,0.986c-0.115,1.427-0.985,2.33-2.328,2.413
			c-1.682,0.107-3.165,0.113-4.553,0.018c-0.978-0.066-1.944-0.803-2.52-1.923C448.032,176.58,447.988,175.365,448.484,174.516z"/>
	</g>
	<g>
		<path class="st0" d="M523.027,19.233h-44.183v55.674h44.183V19.233z M515.773,42.07c0.003,1.74,0.006,3.481,0.006,5.221
			c0,1.716-0.003,3.433-0.007,5.149c-0.009,4.523-0.018,9.2,0.039,13.803c0.003,0.251,0.013,1.014-0.2,1.23
			c-0.077,0.078-0.314,0.209-1.111,0.209h-0.005c-4.308-0.044-8.857-0.066-13.52-0.066c-4.548,0-9.097,0.021-13.696,0.057
			c-0.702,0-0.93-0.124-1.004-0.198c-0.134-0.135-0.201-0.508-0.198-1.11c0.053-13.239,0.053-26.186,0-38.481
			c-0.002-0.251-0.005-1.014,0.209-1.229c0.077-0.079,0.318-0.21,1.112-0.21h0.002c4.225,0.043,8.691,0.066,13.276,0.066
			c4.405,0,8.948-0.019,13.957-0.06c0.689,0,0.913,0.123,0.985,0.196c0.092,0.094,0.201,0.361,0.191,1.106
			C515.756,32.525,515.765,37.377,515.773,42.07z M487.702,70.17l0.232,0.004c3.206,0.1,6.686,0.146,10.95,0.146
			c2.463,0,4.925-0.015,7.388-0.03c2.363-0.014,4.727-0.028,7.101-0.03c3.052,0,3.522,0,5.148,2.004H483.42
			C484.678,70.912,485.799,70.17,487.702,70.17z M518.301,28.525c-0.04-2.087,0.662-3.411,2.074-4.773v46.62
			c-1.514-1.402-2.113-2.94-2.074-5.119C518.52,52.958,518.52,40.602,518.301,28.525z M514.553,23.943L514.553,23.943l-0.145-0.002
			c-4.763-0.11-9.163-0.164-13.453-0.164c-4.466,0-8.824,0.061-12.954,0.182l-0.23,0.004c-1.928,0-3.116-0.787-4.379-2.146h35.103
			C517.321,23.07,516.363,23.943,514.553,23.943z M483.566,63.674l0.017,3.491c0.009,1.359-0.747,2.012-1.704,2.839
			c-0.134,0.116-0.27,0.233-0.404,0.353V23.714c1.383,1.281,2.184,2.487,2.152,4.546C483.448,40.062,483.509,52.065,483.566,63.674z
			"/>
	</g>
	<g>
		<path class="st0" d="M397.643,74.999c9.841,0.012,19.678,0.012,29.518,0.012c1.095,0,1.955-0.307,2.558-0.911
			c0.577-0.578,0.869-1.38,0.866-2.381c-0.005-2.03-1.29-3.258-3.437-3.284c-0.449-0.006-0.897-0.007-1.362-0.007l-1.266,0.002
			c0.002-0.196,0.005-0.388,0.007-0.574c0.012-0.896,0.022-1.67-0.021-2.47c-0.226-3.919-2.719-6.379-6.504-6.42
			c-1.092-0.015-1.191-0.118-1.186-1.219c0.022-3.755,0.03-7.547,0.033-11.308l9.151,0.008c1.974,0,3.929-0.004,5.882-0.015
			l0.235-0.001c0.345,0,0.652,0.004,0.924,0.008c0.224,0.003,0.425,0.006,0.605,0.006c0.747,0,1.401-0.038,1.853-0.508
			c0.516-0.538,0.487-1.263,0.428-2.71c-0.013-0.302-0.026-0.643-0.038-1.028c-0.141-4.434-0.763-10.152-4.342-15.049
			c-0.441-0.609-1.018-1.551-1.264-2.585c-1.306-5.495-5.675-9.046-11.132-9.046c-0.472,0-0.956,0.027-1.437,0.079
			c-5.679,0.621-9.801,5.459-9.801,11.504c0.001,3.055-0.001,6.109-0.002,9.164c-0.003,7.057-0.007,14.354,0.025,21.531
			c0.004,1.068-0.064,1.144-1.032,1.17c-4.08,0.101-6.475,2.549-6.572,6.716c-0.03,1.221-0.054,2.187-0.268,2.401
			c-0.226,0.226-1.229,0.278-2.497,0.344c-2.151,0.107-3.383,1.316-3.383,3.318C394.189,73.782,395.482,74.999,397.643,74.999z
			 M409.61,71.045l12.1,0.002l4.836-0.002c0.352,0,1.084,0,1.287,0.212c0.105,0.11,0.111,0.371,0.104,0.523
			c-0.015,0.422-0.022,0.614-1.533,0.614c-6.367-0.007-12.733-0.008-19.1-0.008l-8.81-0.001c-0.08,0-0.166,0.006-0.252,0.014
			c0,0-0.005,0-0.008,0.001c-0.333-0.236-0.656-0.479-0.985-0.733c0.228-0.228,0.546-0.535,0.681-0.562
			c1.628-0.056,3.361-0.081,5.62-0.081c1.007,0,2.015,0.005,3.022,0.009C407.586,71.041,408.597,71.045,409.61,71.045z
			 M418.918,41.492c0.292-5.054,1.098-9.158,3.752-12.597c1.084-1.402,2.259-2.143,3.399-2.143c1.142,0,2.318,0.744,3.402,2.151
			c2.845,3.693,3.474,8.049,3.788,12.588H418.918z M424.075,24.486l-0.511,0.033c-0.056-0.083-0.116-0.174-0.174-0.268
			c-1.234-1.966-3.184-2.761-5.411-2.218c-2.156,0.513-3.476,2.12-3.714,4.52c-0.059,0.561-0.049,1.114-0.039,1.648
			c0.003,0.195,0.007,0.39,0.007,0.584v29.982h-3.621c-0.04-0.267-0.072-0.505-0.072-0.732l-0.005-2.861
			c-0.015-9.372-0.032-19.064,0.012-28.599c0.014-4.122,3.033-7.626,7.179-8.332c0.482-0.082,0.973-0.124,1.46-0.124
			c3.601,0,6.857,2.254,8.102,5.61c0.064,0.171,0.115,0.354,0.16,0.54C426.294,24.342,425.217,24.412,424.075,24.486z
			 M408.629,60.642l0.029,0.809l0.411,0c0.899,0,1.798-0.004,2.697-0.008c1.88-0.009,3.764-0.017,5.649,0.012
			c1.623,0.025,3.123,0.861,4.013,2.237c0.885,1.369,1.039,2.999,0.424,4.483c-0.123,0.087-0.46,0.211-0.701,0.215
			c-1.517,0.03-3.039,0.037-4.56,0.037l-4.386-0.007l-0.405,0c-0.765,0-1.531-0.003-2.297-0.006
			c-1.962-0.007-3.875-0.014-5.965,0.026c-0.57,0-0.672,0-0.707-0.809c-0.111-2.386,0.247-3.928,1.128-4.85
			c0.868-0.909,2.352-1.333,4.671-1.333V60.642L408.629,60.642z M416.856,27.84c0.003-0.503,0.032-1.242,0.247-1.852
			c0.315-0.912,0.948-1.456,1.691-1.456c0.121,0,0.247,0.014,0.378,0.042c0.632,0.134,1.423,0.683,1.959,1.349
			c-0.04,0.263-0.276,0.86-0.575,1.286c-1.999,2.826-3.12,5.816-3.707,9.08C416.85,33.471,416.851,30.654,416.856,27.84z"/>
	</g>
	<g>
		<path class="st0" d="M443.215,45.424c0.096,0.018,0.213,0.039,0.323,0.061l-0.07,0.837c-0.108,1.304-0.201,2.415-0.3,3.53
			l-0.082,0.92l2.521-0.108c0.835-0.035,1.679-0.071,2.552-0.11c0.168,0.658,0.594,1.237,0.983,1.768
			c0.603,0.822,1.008,1.445,0.978,2.172c-1.486-0.485-2.906-0.95-4.323-1.418l-0.8-0.264l-0.675,2.377l1.706,0.635
			c0.839,0.314,1.678,0.627,2.523,0.93c0.71,0.254,1.516,0.543,1.609,0.741c0.092,0.194-0.023,0.817-0.181,1.521h-8.02l1.277,4.384
			c0.997,3.438,1.94,6.686,2.951,9.917c0.261,0.861,1.397,1.588,2.2,1.638c0.583,0.037,1.197,0.053,1.99,0.053
			c0.378,0,0.755-0.004,1.133-0.008c0.915-0.008,1.832-0.017,2.744,0.028c0.082,0.004,0.161,0.006,0.238,0.006
			c1.776,0,2.314-1.157,2.584-2.166c0.584-2.183,1.23-4.394,1.854-6.531c0.331-1.133,0.662-2.266,0.985-3.398
			c0.18-0.619,0.329-1.248,0.512-2.025c0.085-0.362,0.178-0.757,0.286-1.199l0.244-1.001h-6.311l2.434-1.051l-0.777-1.979
			l-3.55,0.856c0.005-0.17,0.009-0.337,0.013-0.502c0.025-1.022,0.046-1.904,0.292-2.676c0.276-0.868,0.824-1.691,1.308-2.417
			c0.098-0.147,0.193-0.289,0.281-0.426l5.259,0.3l-0.186-2.14c-0.087-0.99-0.175-2.006-0.274-3.108
			c0.105-0.025,0.217-0.049,0.326-0.073c1.141-0.247,3.264-0.707,2.949-3.135c-0.145-1.13-1.296-1.891-2.41-2.626
			c-0.287-0.189-0.563-0.371-0.81-0.552c0.047-0.229,0.107-0.479,0.17-0.739c0.296-1.232,0.633-2.629-0.05-3.571
			c-0.674-0.94-1.461-1.137-2.004-1.137c-0.874,0-1.648,0.485-2.27,0.875c-0.078,0.049-0.171,0.107-0.262,0.162
			c-0.25-0.324-0.487-0.663-0.719-0.995c-0.799-1.142-1.554-2.221-2.651-2.383c-0.185-0.027-0.356-0.04-0.516-0.04
			c-2.015,0-2.38,1.866-2.576,2.868c-0.021,0.107-0.045,0.23-0.07,0.346c-0.386-0.052-0.78-0.122-1.166-0.191
			c-0.747-0.133-1.452-0.259-2.091-0.259c-0.687,0-1.218,0.151-1.625,0.463c-1.863,1.435-0.665,3.28-0.089,4.167
			c0.061,0.094,0.127,0.196,0.189,0.294c-0.302,0.218-0.62,0.428-0.93,0.633c-1.167,0.771-2.268,1.5-2.462,2.605
			C439.939,44.831,442.235,45.247,443.215,45.424z M456.655,64.814l-0.003-1.809h-10.275l0.04,0.847
			c0.008,0.169,0.02,0.34,0.032,0.527l0.052,0.754h10.061c-0.681,2.33-1.348,4.584-2.056,6.837
			c-0.088,0.075-0.308,0.194-0.446,0.268c-0.093,0.05-0.186,0.101-0.278,0.155c-0.045-0.003-0.094-0.009-0.164-0.004
			c-0.937,0.037-1.715,0.068-2.37,0.068c-2.675,0-2.725-0.177-4.017-4.723c-0.421-1.496-0.851-2.99-1.3-4.55l-0.444-1.547h12.096
			l-0.461,1.577C456.965,63.755,456.81,64.284,456.655,64.814z M445.657,47.976c0.491-1.319,1.415-2.126,3.082-2.631
			c-0.493,1.628-1.321,2.575-2.641,3.079c-0.058,0.022-0.285,0.031-0.508,0.007C445.597,48.253,445.613,48.093,445.657,47.976z
			 M445.186,43.264c-0.52,0-1.026-0.115-1.545-0.353c-0.134-0.061-0.281-0.199-0.435-0.36c0.152-0.164,0.296-0.304,0.429-0.368
			c1.304-0.634,2.592-0.34,3.962,0.368C446.831,42.958,446.011,43.264,445.186,43.264z M457.369,48.346
			c-0.297-0.007-0.567-0.028-0.756-0.108c-1.154-0.497-1.859-1.366-2.289-2.886c1.442,0.443,2.403,1.07,2.91,2.316
			C457.309,47.855,457.344,48.09,457.369,48.346z M451.513,50.91c-0.818-0.899-0.957-1.784,0.008-4.122
			C452.443,49.036,452.31,50.064,451.513,50.91z M455.594,42.487c1.815-0.885,3.042-0.873,4.317-0.018
			c-0.449,0.526-0.948,0.75-1.617,0.75C457.604,43.219,456.729,42.984,455.594,42.487z M457.281,37.325
			c-0.515,1.316-1.526,1.984-2.975,2.433c0.516-1.599,1.286-2.506,2.501-3.014c0.134-0.055,0.323-0.073,0.537-0.081
			C457.35,36.922,457.343,37.166,457.281,37.325z M451.533,38.576c-0.854-1.546-0.936-2.78-0.315-4.077
			c0.07-0.147,0.186-0.3,0.286-0.404c0.1,0.108,0.216,0.263,0.29,0.411C452.432,35.822,452.367,37.056,451.533,38.576z
			 M446.279,36.765c1.204,0.493,1.957,1.397,2.451,3.01c-1.622-0.495-2.524-1.264-3.006-2.503c-0.057-0.148-0.078-0.345-0.089-0.563
			C445.834,36.703,446.092,36.69,446.279,36.765z"/>
	</g>
	<g>
		<path class="st0" d="M555.78,28.985c-12.679,0.024-22.975,10.398-22.951,23.124c0.021,12.619,10.301,22.891,22.917,22.899h0.01
			c12.902,0,23.019-10.086,23.031-22.963c0.006-6.173-2.377-11.968-6.711-16.317C567.745,31.38,561.967,28.985,555.78,28.985z
			 M576.2,52.057c-0.083,11.402-9.113,20.332-20.557,20.332l-0.159-0.001c-10.932-0.085-20.134-9.424-20.093-20.394
			c0.034-11.058,9.382-20.401,20.415-20.401l0.14,0C567.003,31.673,576.278,41.045,576.2,52.057z"/>
	</g>
	<g>
		<polygon class="st0" points="489.381,137.311 568.061,137.311 568.061,135.203 489.176,135.203 		"/>
	</g>
	<g>
		<path class="st0" d="M457.362,146.993l-1.257-0.093c-0.423-0.034-0.803-0.064-1.181-0.066l-15.1-0.009
			c-12.545-0.006-25.089-0.012-37.651-0.052c-0.632,0-1.427,0.07-1.97,0.619c-0.541,0.548-0.603,1.341-0.596,1.969
			c0.039,4.26,0.037,8.594,0.036,12.785c-0.001,2.311-0.002,4.622,0.004,6.932c0,0.331,0.053,0.631,0.104,0.921
			c0.018,0.102,0.036,0.204,0.051,0.308l0.101,0.692h57.459V146.993z M402.224,150.356c-0.008-0.622,0.095-0.795,0.14-0.84
			c0.035-0.035,0.196-0.15,0.824-0.15c12.173,0.03,24.346,0.031,36.521,0.032l14.296,0.003c0.228,0,0.477,0.032,0.82,0.076
			l0.001,2.092c0.001,5.701,0.002,11.089-0.048,16.577c-0.092,0.112-0.331,0.306-0.556,0.413c-0.002,0.001-0.047,0.02-0.196,0.02
			c-0.115,0-0.235-0.009-0.354-0.019c-0.159-0.012-0.316-0.023-0.468-0.023l-23.756-0.008c-7.016,0-16.277,0.006-25.735,0.047
			c-0.683,0-1.114-0.086-1.28-0.255c-0.167-0.171-0.243-0.618-0.228-1.329C402.322,161.676,402.285,156.531,402.224,150.356z"/>
	</g>
	<g>
		<path class="st0" d="M401.596,144.949l11.716,0.001c13.65,0,27.764,0,41.643,0.039h0.035c0.549,0,1.34-0.064,1.885-0.614
			c0.537-0.543,0.605-1.307,0.598-2.053c-0.037-3.673-0.031-7.414-0.025-11.031l0.005-10.534h-57.695v23.997l1.149,0.134
			C401.192,144.925,401.393,144.949,401.596,144.949z M454.867,141.297c0.007,0.673-0.104,0.858-0.152,0.907
			c-0.047,0.047-0.224,0.157-0.921,0.157h-0.002c-3.997-0.027-7.993-0.034-11.99-0.034l-13.222,0.009l-5.871-0.008
			c-6.451-0.009-12.853-0.021-19.424,0.034c-0.665,0-0.854-0.119-0.904-0.171c-0.066-0.066-0.175-0.287-0.163-1.018
			c0.076-6.001,0.075-11.507-0.004-16.837c-0.013-0.697,0.1-0.919,0.169-0.989c0.069-0.07,0.289-0.186,0.993-0.186v-0.785
			l0.017,0.785c16.74,0.043,33.476,0.042,50.244,0.006c0.598,0,0.96,0.06,1.077,0.179c0.053,0.054,0.176,0.253,0.164,0.924
			C454.787,129.379,454.784,134.949,454.867,141.297z"/>
	</g>
	<g>
		<path class="st0" d="M401.706,118.752l13.17,0.002c13.103,0,26.653,0.001,39.978,0.038h0.002c0.646,0,1.458-0.072,2.015-0.636
			c0.55-0.557,0.616-1.352,0.605-2.124c-0.047-4.497-0.037-9.069-0.028-13.491l0.008-4.675c0-3.083-0.357-3.436-3.471-3.436
			c-17.066-0.013-34.137-0.019-51.199-0.019c-0.515,0-1.009,0.038-1.533,0.078c-0.228,0.017-0.46,0.035-0.698,0.05l-0.759,0.047
			v24.02l1.151,0.098C401.234,118.731,401.471,118.752,401.706,118.752z M454.872,112.801c0.066,1.251,0.14,2.669-0.344,3.208
			c-0.07,0.079-0.345,0.263-1.365,0.263c-0.471,0-1.002-0.038-1.516-0.074c-0.52-0.037-1.058-0.075-1.547-0.075h-0.001
			c-7.739,0.011-15.478,0.013-23.218,0.013l-24.508-0.002v-19h52.463l0.004,3.674c0.006,3.555,0.011,7.042-0.017,10.527
			C454.82,111.798,454.845,112.296,454.872,112.801z"/>
	</g>
	<g>
		<path class="st0" d="M500.959,39.912c-2.008,0-3.941,0.765-5.441,2.155c-1.605,1.487-2.532,3.605-2.542,5.81
			c-0.009,2.068,0.787,3.962,2.241,5.334c1.291,1.215,1.766,2.346,1.543,3.666l-0.011,0.135c0,0.368-0.006,0.697-0.01,1.001
			c-0.01,0.652-0.019,1.214,0.03,1.782c0.2,2.357,1.879,3.941,4.178,3.941l0.126-0.002c2.258-0.058,3.884-1.654,4.044-3.968
			c0.08-1.088,0.08-2.115,0-3.052c-0.115-1.39,0.236-2.256,1.296-3.194c1.509-1.341,2.384-3.232,2.463-5.324
			c0.083-2.175-0.721-4.305-2.206-5.841C505.15,40.779,503.121,39.912,500.959,39.912z M499.512,59.913h2.867
			c-0.266,1.151-0.967,1.155-1.377,1.155h-0.004l-0.15-0.004c-0.479-0.023-0.828-0.156-1.037-0.395
			C499.638,60.471,499.55,60.197,499.512,59.913z M500.918,53.183c-1.373,0-2.678-0.553-3.68-1.557h6.079l0.232-0.213
			c0.195-0.179,0.383-0.354,0.573-0.539l0.458-0.445l-0.326-0.549c-0.145-0.244-0.274-0.508-0.404-0.771
			c-0.354-0.717-0.72-1.459-1.378-1.969c-0.466-0.366-1.144-0.42-1.506-0.42c-0.36,0-1.258,0.055-1.804,0.565
			c-0.6,0.558-0.899,1.327-1.216,2.14c-0.13,0.333-0.268,0.686-0.437,1.048l-0.447,0.958c-0.92-1.014-1.423-2.302-1.41-3.66
			c0.031-2.887,2.417-5.236,5.318-5.236v-0.808l0,0l0.019,0.808c2.864,0.022,5.287,2.461,5.291,5.324
			C506.279,50.709,503.854,53.147,500.918,53.183z"/>
	</g>
	<g>
		<path class="st0" d="M494.887,41.699c0.058-0.057,0.125-0.121,0.191-0.181l0.66-0.591l-0.648-0.604
			c-1.162-1.083-2.324-2.17-3.485-3.257l-1.684-1.575l-0.618-0.469l-1.28,1.255l6.309,5.966L494.887,41.699z"/>
	</g>
	<g>
		<path class="st0" d="M493.989,34.139c0.632,1.869,1.284,3.802,2.516,5.504l0.374,0.515l1.981-0.823l-3.272-7.994l-2.271,0.864
			l0.266,0.749C493.722,33.347,493.855,33.743,493.989,34.139z"/>
	</g>
	<g>
		<path class="st0" d="M513.217,35.569l-0.554-0.42l-0.499,0.484c-1.176,1.14-2.358,2.281-3.54,3.42l-2.222,2.144l1.563,1.382
			l0.536-0.546c1.138-1.158,2.272-2.32,3.405-3.48l2.152-2.204l-0.587-0.565C513.394,35.708,513.311,35.641,513.217,35.569z"/>
	</g>
	<g>
		<path class="st0" d="M506.037,38.815c0.792-1.928,1.584-3.856,2.379-5.781l0.303-0.735l-2.35-1.019l-3.34,7.964l2.358,1.155
			L506.037,38.815z"/>
	</g>
	<g>
		<path class="st0" d="M500.029,39.206l2.016-0.055V30.57l-0.845,0.037c-0.22,0.009-0.443,0.018-0.66,0.023l-0.771,0.019
			l-0.017,0.772c-0.012,0.533-0.036,1.067-0.059,1.6c-0.08,1.796-0.162,3.653,0.204,5.511L500.029,39.206z"/>
	</g>
	<g>
		<path class="st0" d="M555.904,31.769l-0.116,0c-11.029,0-20.069,9.005-20.154,20.074c-0.087,11.327,8.65,20.299,19.89,20.425
			l0.231,0.001c11.054,0,20.139-8.906,20.252-19.852c0.056-5.578-2.02-10.789-5.848-14.676
			C566.393,33.917,561.33,31.796,555.904,31.769z M555.693,69.643h-0.002c-4.621,0-9.01-1.854-12.358-5.221
			c-3.364-3.383-5.202-7.81-5.177-12.467c0.051-9.528,8.145-17.578,17.672-17.578v-0.809l0,0l0.008,0.809
			c9.675,0.003,17.556,7.913,17.566,17.631c0.005,4.72-1.815,9.145-5.125,12.459C564.944,67.805,560.477,69.643,555.693,69.643z"/>
	</g>
	<g>
		<path class="st0" d="M428.471,164.459h0.004c2.957-0.003,5.427-2.387,5.506-5.313c0.044-1.495-0.486-2.893-1.493-3.937
			c-1.012-1.05-2.401-1.633-3.968-1.643c-1.504,0-2.88,0.551-3.874,1.551c-1.001,1.006-1.546,2.398-1.536,3.919
			C423.128,162.026,425.533,164.459,428.471,164.459z M428.562,156.101c1.437,0.034,2.795,1.429,2.795,2.871
			c-0.003,1.466-1.377,2.853-2.827,2.853l-0.118-0.003c-1.497-0.076-2.729-1.423-2.69-2.939c0.045-1.482,1.35-2.782,2.792-2.782
			v-0.803h0.001L428.562,156.101z"/>
	</g>
	<g>
		<path class="st0" d="M428.473,127.36l-0.11,0.001c-3.026,0.05-5.285,2.398-5.253,5.462c0.032,3.012,2.382,5.395,5.351,5.425h0.043
			c1.449,0,2.825-0.581,3.873-1.634c1.052-1.056,1.627-2.439,1.62-3.898C433.97,129.712,431.544,127.36,428.473,127.36z
			 M428.517,129.1L428.517,129.1v0.807c1.447,0,2.8,1.338,2.84,2.809c0.042,1.435-1.291,2.846-2.742,2.905l-0.104,0.002
			c-1.438,0-2.713-1.246-2.784-2.72c-0.036-0.761,0.259-1.529,0.808-2.108c0.53-0.56,1.247-0.883,1.967-0.888L428.517,129.1z"/>
	</g>
	<g>
		<path class="st0" d="M451.724,106.388c-0.555-0.004-1.102-0.009-1.643-0.009c-1.222,0-2.158,0.025-3.043,0.081
			c-0.881,0.065-1.831,1.203-1.897,2.003c-0.137,1.61-0.138,3.354-0.006,5.178c0.051,0.806,0.941,1.926,1.772,1.966
			c0.925,0.053,1.914,0.076,3.209,0.076c0.541,0,1.085-0.004,1.636-0.008c0.56-0.004,1.125-0.008,1.7-0.008h0.809v-9.268h-0.809
			C452.866,106.398,452.291,106.393,451.724,106.388z M447.768,109.35c0.073-0.107,0.277-0.274,0.343-0.298
			c0.537-0.044,1.113-0.064,1.87-0.064c0.387,0,0.784,0.005,1.196,0.01c0.198,0.002,0.401,0.005,0.606,0.007v4.047
			c-0.17,0.001-0.338,0.002-0.506,0.004c-0.412,0.004-0.816,0.007-1.216,0.007c-0.834,0-1.477-0.016-2.065-0.052
			c-0.087-0.058-0.216-0.192-0.233-0.198C447.652,111.572,447.654,110.406,447.768,109.35z"/>
	</g>
	<g>
		<path class="st0" d="M428.489,101.168c-3.03,0.007-5.346,2.301-5.387,5.338c-0.032,3.021,2.268,5.452,5.235,5.534l0.159,0.002
			c3.003,0,5.415-2.366,5.494-5.385c0.037-1.456-0.492-2.821-1.488-3.844C431.468,101.752,430.046,101.168,428.489,101.168z
			 M428.512,102.907l0.021,0.807c1.456,0.011,2.804,1.362,2.829,2.835c0.025,1.464-1.298,2.833-2.838,2.874
			c-1.464,0-2.741-1.259-2.788-2.749c-0.025-0.781,0.275-1.552,0.821-2.115c0.528-0.545,1.223-0.845,1.956-0.845V102.907
			L428.512,102.907z"/>
	</g>
	<g>
		<path class="st0" d="M555.753,35.451l-0.093,0c-9.073,0.047-16.441,7.447-16.424,16.495c0.021,9.387,7.309,16.741,16.592,16.741
			h0.055c9.139-0.025,16.564-7.502,16.552-16.668C572.413,42.729,565.085,35.451,555.753,35.451z M562.782,61.771l-0.358-0.483
			l-1.778,0.635l0.232,0.744c0.212,0.678,0.421,1.349,0.675,2.178c-1.415,0.383-2.835,0.766-4.325,1.165
			c-0.111-0.771-0.201-1.39-0.291-2.009l-0.093-0.644l-0.649-0.047c-0.174-0.012-0.352-0.025-0.53-0.035l-0.704-0.039l-0.53,2.741
			l-0.865-0.224c-1.163-0.301-2.33-0.603-3.535-0.916l1.122-2.614l-0.828-0.51c-0.099-0.063-0.198-0.126-0.299-0.187l-0.609-0.367
			l-0.443,0.556c-0.312,0.392-0.626,0.781-1.02,1.27l-0.5,0.622l-3.105-3.309l2.278-1.867l-0.383-0.605
			c-0.077-0.121-0.148-0.247-0.248-0.425l-0.338-0.598l-2.631,0.964c-0.401-1.43-0.796-2.845-1.207-4.318l2.818-0.541v-1.862
			l-2.784-0.396l1.171-4.418l2.49,1.084l0.377-0.558c0.109-0.16,0.211-0.31,0.323-0.465l0.448-0.616l-2.441-2.024l3.287-3.157
			c0.567,0.733,0.992,1.284,1.417,1.836l0.417,0.543l0.854-0.46c0.089-0.05,0.179-0.1,0.273-0.149l0.65-0.339l-0.273-0.68
			c-0.249-0.618-0.495-1.231-0.805-2.013c1.352-0.37,2.679-0.737,4.061-1.12l0.303-0.084l0.031,0.178
			c0.129,0.735,0.237,1.353,0.344,1.975l0.11,0.648l0.657,0.025c0.16,0.006,0.318,0.014,0.475,0.024l0.725,0.044l0.492-2.848
			c1.447,0.375,2.864,0.743,4.334,1.127c-0.224,0.593-0.413,1.099-0.595,1.583l-0.421,1.122l1.693,0.927l1.906-2.381l1.131,1.103
			c0.72,0.702,1.434,1.398,2.173,2.117l-0.43,0.313c-0.57,0.415-1.001,0.727-1.427,1.042l-0.541,0.398l0.292,0.605
			c0.092,0.193,0.186,0.383,0.284,0.572l0.33,0.643l2.633-0.991l1.211,4.377l-2.659,0.363l-0.107,0.79
			c-0.012,0.094-0.023,0.188-0.04,0.283l-0.131,0.778l0.775,0.151c0.639,0.125,1.282,0.251,2.118,0.416l-1.155,4.388l-2.533-0.973
			l-1.038,1.63l2.34,1.913l-3.174,3.338l-0.232-0.317C563.484,62.725,563.134,62.246,562.782,61.771z"/>
	</g>
	<g>
		<path class="st0" d="M556.771,43.881c-0.043-0.08-0.088-0.16-0.123-0.239l-0.255-0.573l-1.863,0.304v0.688
			c0,0.584-0.004,1.169-0.008,1.753c-0.01,1.367-0.02,2.78,0.025,4.178c0.017,0.533-0.093,0.663-0.106,0.676
			c-0.042,0.043-0.19,0.094-0.468,0.094l-0.142-0.004c-0.759-0.043-1.517-0.034-2.275-0.024c-0.314,0.004-0.628,0.008-0.942,0.008
			h-0.789l-0.021,0.789c-0.008,0.311-0.012,0.622-0.016,0.937l-0.01,0.82h0.82c0.415,0,0.83,0.004,1.245,0.008
			c0.421,0.004,0.84,0.008,1.26,0.008c0.993,0,1.755-0.024,2.46-0.077c0.899-0.056,1.526-1.345,1.555-2.004
			c0.076-1.981,0.059-3.937,0.009-6.257C557.122,44.526,556.927,44.168,556.771,43.881z"/>
	</g>
	<g>
		<path class="st0" d="M956.411,81.182c0-0.725-0.59-1.314-1.314-1.314h-31.341c-0.725,0-1.314,0.59-1.314,1.314
			c0,0.725,0.59,1.314,1.314,1.314h31.341C955.822,82.496,956.411,81.907,956.411,81.182z"/>
	</g>
	<g>
		<path class="st0" d="M955.098,94.617H925.6c-0.725,0-1.314,0.59-1.314,1.314c0,0.725,0.59,1.314,1.314,1.314h29.498
			c0.725,0,1.314-0.59,1.314-1.314C956.412,95.206,955.823,94.617,955.098,94.617z"/>
	</g>
	<g>
		<path class="st0" d="M995.129,139.642V85.405v-2.953l-11.061-10.298V50.37h-23.399l-15.993-14.888
			c-1.178-1.098-2.715-1.703-4.327-1.703c-1.612,0-3.148,0.605-4.327,1.703L920.031,50.37h-23.4v21.784L885.57,82.452v60.885
			h109.559V139.642z M981.439,69.707v21.096l-18.728,14.268l-8.057,6.139h-28.611L899.26,90.802V69.707V52.999h17.947h46.286h17.946
			V69.707z M984.068,92.105L984.068,92.105l8.432-6.424v53.688l-35.233-26.845L984.068,92.105z M888.2,85.678l8.431,6.425v0.002v0
			l25.976,19.792c-0.103,0.187-0.166,0.399-0.166,0.627c0,0.228,0.063,0.44,0.167,0.627l-34.409,26.22V85.678z M926.043,113.838
			h28.611l35.268,26.87H890.78L926.043,113.838z M991.125,83.423l-7.057,5.377V75.746l7.821,7.282
			C991.617,83.114,991.358,83.244,991.125,83.423z M896.631,88.799l-7.054-5.375c-0.236-0.179-0.495-0.31-0.768-0.397l7.822-7.281
			V88.799z M942.885,37.405l13.926,12.965h-32.923l13.924-12.965C939.196,36.118,941.502,36.118,942.885,37.405z"/>
	</g>
	<g>
		<path class="st0" d="M934.692,66.843l0.107,1.266c0.013,0.146,0.03,0.298,0.063,0.505c0.236,1.096,0.737,1.941,1.491,2.511
			c0.546,0.414,1.2,0.692,1.949,0.831v1.32h2.362v-1.312c0.236-0.044,0.472-0.105,0.705-0.183c0.506-0.168,0.967-0.413,1.37-0.73
			c0.413-0.326,0.752-0.726,1.008-1.192c0.27-0.491,0.406-1.049,0.406-1.657c0-0.73-0.103-1.327-0.315-1.827
			c-0.217-0.511-0.531-0.938-0.935-1.271c-0.374-0.307-0.826-0.554-1.344-0.735c-0.278-0.097-0.578-0.191-0.896-0.281v-2.624
			c0.044,0.03,0.085,0.063,0.123,0.098c0.11,0.101,0.197,0.221,0.265,0.366c0.062,0.135,0.093,0.285,0.093,0.458v0.809h2.709
			l-0.041-0.849c-0.028-0.555-0.144-1.063-0.347-1.506c-0.209-0.462-0.502-0.857-0.869-1.174c-0.36-0.311-0.784-0.549-1.263-0.707
			c-0.215-0.07-0.439-0.125-0.67-0.162v-1.049h-2.362v1.04c-0.24,0.039-0.474,0.097-0.7,0.175c-0.485,0.169-0.921,0.419-1.292,0.744
			c-0.379,0.331-0.683,0.735-0.903,1.203c-0.222,0.473-0.335,1.002-0.335,1.572c0,0.628,0.111,1.176,0.331,1.63
			c0.22,0.453,0.526,0.838,0.911,1.144c0.356,0.284,0.777,0.517,1.249,0.692c0.232,0.086,0.474,0.166,0.724,0.24v3.1
			c-0.141-0.088-0.266-0.192-0.378-0.316c-0.151-0.166-0.265-0.354-0.349-0.578c-0.084-0.225-0.126-0.475-0.126-0.743v-0.809
			H934.692z M938.286,63.426c-0.085-0.045-0.164-0.096-0.235-0.151c-0.1-0.078-0.178-0.177-0.237-0.301
			c-0.041-0.086-0.09-0.25-0.09-0.54c0-0.187,0.032-0.346,0.096-0.486c0.067-0.147,0.157-0.269,0.272-0.372
			c0.06-0.054,0.124-0.101,0.194-0.143V63.426z M940.664,66.793c0.168,0.064,0.315,0.143,0.438,0.236
			c0.12,0.091,0.215,0.208,0.288,0.356c0.073,0.15,0.111,0.371,0.111,0.639c0,0.23-0.04,0.43-0.121,0.611
			c-0.085,0.186-0.195,0.339-0.34,0.47c-0.111,0.1-0.237,0.187-0.376,0.258V66.793z"/>
	</g>
	<g>
		<path class="st0" d="M61.223,110.423V114c-0.064,0.248-0.093,0.41-0.093,0.419l-0.005,1.245c0,0.777,0.632,1.409,1.407,1.409
			c0.718,0,1.306-0.546,1.388-1.25c0.073-0.17,0.114-0.356,0.114-0.552l-0.001-0.945c0.281-0.829,1.189-2.593,3.836-2.593
			c1.124,0,2.01,0.34,2.632,1.008c1.476,1.595,1.308,4.632,1.299,4.815v11.449c0,0.054,0.002,0.119,0.013,0.193v16.949
			c0,7.533-7.155,17.172-8.604,19.046c-2.004,1.725-4.272,4.139-3.867,5.968c0.143,0.65,0.708,1.104,1.373,1.104
			c0.116,0,0.222-0.012,0.294-0.031c0.367-0.077,0.681-0.292,0.885-0.607c0.187-0.288,0.261-0.627,0.212-0.967
			c0.149-0.47,1.372-1.998,3.074-3.468l0.098-0.101c0.382-0.469,9.347-11.59,9.347-20.943v-17.142c0-0.06-0.005-0.124-0.013-0.185
			l-0.004-11.155c0.034-0.437,0.262-4.34-2.037-6.833c-1.178-1.267-2.76-1.909-4.7-1.909c-1.667,0-2.919,0.445-3.873,1.074
			c-0.258-1.239-1.039-2.936-2.572-4.158V36.704c0-4.5-3.66-8.161-8.16-8.161H13.156C8.659,28.543,5,32.204,5,36.704v87.455
			c0,4.503,3.659,8.165,8.156,8.165h0.924v3.706c-0.348,1.711-3.983,21.876,15.861,29.65c1.808,0.621,2.328,0.995,2.328,5.368
			c0,0.776,0.631,1.408,1.407,1.408c0.775,0,1.404-0.631,1.404-1.408c0-4.635-0.584-6.773-4.169-8.007
			c-18.471-7.238-14.248-25.75-14.052-26.573c0.018-0.096,0.03-0.193,0.03-0.289v-6.029l0.187-0.643h-0.187v-16.797
			c0-0.468,0.066-0.707,0.108-0.811c2.138,0.071,8.759,7.057,8.759,11.815v8.934c0,0.775,0.631,1.406,1.405,1.406
			c0.775,0,1.406-0.631,1.406-1.406V76.586c0-2.483,2.021-4.504,4.504-4.504c2.469,0,4.483,1.97,4.511,4.402
			c-0.007,0.063-0.014,0.144-0.014,0.188c0,0.053,0.003,0.105,0.01,0.16v30.124v2.407v0c0,0.775,0.631,1.406,1.406,1.406
			c0.194,0,0.379-0.039,0.546-0.111c0.083-0.035,0.16-0.078,0.235-0.127c0.001-0.001,0.002-0.002,0.003-0.002
			c0.374-0.253,0.62-0.681,0.62-1.165v-2.266c0.107-0.512,0.865-3.37,4.507-3.37c3.381,0,4.292,2.511,4.502,3.323v3.278
			c0,0.011,0.003,0.022,0.003,0.034c0.001,0.033,0.007,0.065,0.01,0.098c0.006,0.063,0.012,0.125,0.025,0.185
			c0.004,0.015,0.01,0.028,0.014,0.043c0.092,0.343,0.307,0.635,0.599,0.823c0.008,0.005,0.017,0.008,0.025,0.013
			c0.068,0.041,0.139,0.079,0.213,0.109c0.025,0.01,0.053,0.016,0.079,0.024c0.059,0.019,0.119,0.039,0.181,0.051
			c0.009,0.002,0.017,0.006,0.026,0.007c0.036,0.006,0.07,0.003,0.106,0.006c0.041,0.004,0.081,0.013,0.123,0.013
			c0.012,0,0.022-0.003,0.034-0.003c0.034-0.001,0.067-0.007,0.101-0.01c0.062-0.006,0.124-0.012,0.184-0.026
			c0.016-0.004,0.031-0.01,0.047-0.015c0.074-0.02,0.147-0.043,0.216-0.075c0.003-0.002,0.006-0.004,0.009-0.005
			c0.079-0.037,0.154-0.08,0.224-0.13l0.002-0.001c0.071-0.051,0.138-0.109,0.198-0.172c0.007-0.008,0.013-0.017,0.02-0.024
			c0.053-0.058,0.102-0.117,0.145-0.183c0.014-0.022,0.025-0.047,0.037-0.069c0.031-0.055,0.062-0.109,0.085-0.168
			c0.017-0.042,0.028-0.087,0.041-0.131c0.013-0.043,0.028-0.084,0.036-0.127c0.002-0.01,0.006-0.019,0.008-0.028
			c0.024-0.141,0.638-3.455,4.525-3.455C60.105,107.109,61.011,109.564,61.223,110.423z M51.962,105.881
			c-0.548-1.608-2.264-4.964-7.064-4.964c-1.959,0-3.42,0.583-4.507,1.391V76.586c0-4.035-3.282-7.317-7.317-7.317
			c-3.991,0-7.186,3.139-7.303,7.159c-0.011,0.077-0.013,0.145-0.013,0.196v39.656c-2.444-3.805-6.018-7.191-8.791-7.191
			c-0.922,0-1.712,0.395-2.22,1.109c-0.448,0.624-0.666,1.447-0.666,2.515v16.797h-0.924c-2.947,0-5.344-2.4-5.344-5.35V36.704
			c0-2.947,2.397-5.344,5.344-5.344h40.108c2.949,0,5.347,2.398,5.347,5.344v67.802c-0.578-0.131-1.205-0.211-1.894-0.211
			C54.571,104.296,53.049,104.984,51.962,105.881z"/>
	</g>
	<g>
		<path class="st0" d="M32.718,53.307c-0.775,0-1.406,0.63-1.406,1.404v4.767c0,0.776,0.631,1.408,1.406,1.408
			c0.775,0,1.406-0.631,1.406-1.408v-4.767C34.124,53.937,33.494,53.307,32.718,53.307z"/>
	</g>
	<g>
		<path class="st0" d="M23.723,56.742c-0.378-0.652-1.299-0.885-1.921-0.516c-0.327,0.19-0.56,0.497-0.655,0.864
			c-0.095,0.364-0.042,0.742,0.145,1.056l2.386,4.128c0.251,0.437,0.718,0.709,1.22,0.709c0.234,0,0.47-0.062,0.707-0.191
			c0.665-0.389,0.894-1.249,0.51-1.919L23.723,56.742z"/>
	</g>
	<g>
		<path class="st0" d="M14.331,66.135l4.142,2.394c0.213,0.119,0.452,0.181,0.693,0.181c0.502,0,0.969-0.269,1.219-0.704
			c0.385-0.673,0.153-1.534-0.517-1.919l-4.135-2.39c-0.644-0.367-1.536-0.132-1.922,0.521
			C13.429,64.889,13.662,65.749,14.331,66.135z"/>
	</g>
	<g>
		<path class="st0" d="M18.475,75.131c0-0.776-0.631-1.407-1.407-1.407h-4.77c-0.775,0-1.404,0.631-1.404,1.407
			c0,0.774,0.63,1.404,1.404,1.404h4.77C17.844,76.536,18.475,75.906,18.475,75.131z"/>
	</g>
	<g>
		<path class="st0" d="M18.465,81.738l-4.132,2.381c-0.326,0.187-0.56,0.49-0.658,0.854c-0.098,0.364-0.048,0.743,0.135,1.06
			c0.249,0.439,0.716,0.711,1.22,0.711c0.25,0,0.488-0.064,0.707-0.19l4.134-2.384c0.326-0.189,0.557-0.494,0.654-0.859
			c0.096-0.364,0.044-0.742-0.141-1.059C20.009,81.599,19.076,81.372,18.465,81.738z"/>
	</g>
	<g>
		<path class="st0" d="M51.106,84.121l-4.127-2.38c-0.646-0.377-1.546-0.138-1.924,0.508c-0.189,0.324-0.239,0.704-0.141,1.068
			c0.097,0.362,0.329,0.666,0.655,0.856l4.119,2.375c0.215,0.129,0.462,0.198,0.715,0.198c0.505,0,0.974-0.273,1.218-0.703
			c0.188-0.323,0.238-0.701,0.141-1.065C51.664,84.613,51.431,84.309,51.106,84.121z"/>
	</g>
	<g>
		<path class="st0" d="M53.14,73.724h-4.771c-0.775,0-1.407,0.631-1.407,1.407c0,0.774,0.632,1.404,1.407,1.404h4.771
			c0.774,0,1.404-0.63,1.404-1.404C54.544,74.355,53.914,73.724,53.14,73.724z"/>
	</g>
	<g>
		<path class="st0" d="M46.271,68.71c0.233,0,0.468-0.06,0.703-0.185l4.13-2.386c0.67-0.386,0.903-1.246,0.514-1.928
			c-0.376-0.637-1.264-0.88-1.918-0.507l-4.13,2.382c-0.326,0.187-0.56,0.491-0.657,0.854c-0.097,0.363-0.047,0.741,0.139,1.067
			C45.302,68.441,45.769,68.71,46.271,68.71z"/>
	</g>
	<g>
		<path class="st0" d="M43.635,56.227c-0.646-0.376-1.548-0.133-1.921,0.515l-2.388,4.13c-0.387,0.668-0.158,1.53,0.533,1.933
			c0.218,0.118,0.448,0.178,0.684,0.178c0.497,0,0.963-0.269,1.219-0.706l2.386-4.131c0.188-0.326,0.237-0.705,0.14-1.069
			C44.189,56.714,43.957,56.412,43.635,56.227z"/>
	</g>
</g>
<g id="g2">
	<g>
		<path class="st0" d="M340.271,87.105c-1.001-1.003-2.746-1.005-3.752,0c-1.031,1.036-1.031,2.721,0.002,3.755L342,96.337h-20.89
			c-1.462,0-2.652,1.189-2.652,2.651c0,1.463,1.189,2.653,2.652,2.653H342l-5.478,5.476c-0.503,0.502-0.779,1.17-0.778,1.881
			c0.001,0.709,0.278,1.374,0.778,1.87c0.502,0.503,1.168,0.78,1.876,0.78c0.713,0,1.379-0.278,1.873-0.779l10.011-10.007
			c0.494-0.494,0.778-1.177,0.778-1.873c0-0.695-0.283-1.379-0.778-1.878L340.271,87.105z"/>
	</g>
	<g>
		<path class="st0" d="M845.271,87.105c-1.001-1.003-2.746-1.005-3.752,0c-1.031,1.036-1.031,2.721,0.002,3.755L847,96.337h-20.89
			c-1.462,0-2.652,1.189-2.652,2.651c0,1.463,1.189,2.653,2.652,2.653H847l-5.478,5.476c-0.503,0.502-0.779,1.17-0.779,1.881
			c0.001,0.709,0.278,1.374,0.778,1.87c0.502,0.503,1.168,0.78,1.876,0.78c0.713,0,1.379-0.278,1.873-0.779l10.01-10.007
			c0.494-0.494,0.778-1.177,0.778-1.873c0-0.695-0.283-1.379-0.778-1.878L845.271,87.105z"/>
	</g>
	<path class="st0" d="M112.421,86.325c1.536,0.946,3.781,1.733,6.144,1.733c3.505,0,5.552-1.851,5.552-4.529
		c0-2.481-1.418-3.899-5.001-5.277c-4.332-1.536-7.01-3.781-7.01-7.522c0-4.135,3.426-7.207,8.585-7.207
		c2.717,0,4.686,0.63,5.868,1.3l-0.945,2.797c-0.867-0.473-2.638-1.26-5.041-1.26c-3.623,0-5.001,2.166-5.001,3.977
		c0,2.481,1.615,3.702,5.277,5.119c4.489,1.733,6.773,3.899,6.773,7.797c0,4.096-3.032,7.641-9.294,7.641
		c-2.56,0-5.356-0.749-6.774-1.694L112.421,86.325z"/>
	<path class="st0" d="M135.851,65.965v5.474h4.962v2.638h-4.962v10.278c0,2.363,0.67,3.702,2.599,3.702
		c0.905,0,1.575-0.118,2.008-0.236l0.157,2.599c-0.669,0.275-1.733,0.473-3.071,0.473c-1.615,0-2.914-0.512-3.741-1.458
		c-0.984-1.023-1.339-2.717-1.339-4.962V74.078h-2.954v-2.638h2.954V66.87L135.851,65.965z"/>
	<path class="st0" d="M154.87,90.5l-0.276-2.402h-0.118c-1.063,1.497-3.111,2.836-5.828,2.836c-3.859,0-5.829-2.718-5.829-5.474
		c0-4.607,4.096-7.128,11.46-7.088v-0.394c0-1.575-0.433-4.411-4.332-4.411c-1.772,0-3.623,0.551-4.962,1.418l-0.787-2.284
		c1.575-1.024,3.859-1.694,6.262-1.694c5.828,0,7.246,3.977,7.246,7.797v7.129c0,1.653,0.079,3.268,0.315,4.568H154.87z
		 M154.358,80.773c-3.781-0.08-8.073,0.591-8.073,4.292c0,2.245,1.497,3.309,3.269,3.309c2.481,0,4.056-1.576,4.607-3.19
		c0.118-0.355,0.197-0.749,0.197-1.103V80.773z"/>
	<path class="st0" d="M162.901,77.386c0-2.244-0.039-4.174-0.157-5.946h3.032l0.118,3.741h0.157c0.867-2.56,2.954-4.175,5.277-4.175
		c0.394,0,0.669,0.039,0.984,0.118v3.268c-0.354-0.079-0.709-0.118-1.182-0.118c-2.442,0-4.174,1.851-4.647,4.45
		c-0.079,0.473-0.158,1.024-0.158,1.615V90.5h-3.426V77.386z"/>
	<path class="st0" d="M180.502,65.965v5.474h4.962v2.638h-4.962v10.278c0,2.363,0.669,3.702,2.6,3.702
		c0.906,0,1.575-0.118,2.008-0.236l0.158,2.599c-0.67,0.275-1.733,0.473-3.072,0.473c-1.615,0-2.915-0.512-3.741-1.458
		c-0.984-1.023-1.339-2.717-1.339-4.962V74.078h-2.954v-2.638h2.954V66.87L180.502,65.965z"/>
	<path class="st0" d="M207.474,90.5l-0.276-2.402h-0.118c-1.063,1.497-3.111,2.836-5.828,2.836c-3.859,0-5.829-2.718-5.829-5.474
		c0-4.607,4.096-7.128,11.46-7.088v-0.394c0-1.575-0.433-4.411-4.332-4.411c-1.772,0-3.623,0.551-4.962,1.418l-0.787-2.284
		c1.575-1.024,3.859-1.694,6.262-1.694c5.828,0,7.246,3.977,7.246,7.797v7.129c0,1.653,0.079,3.268,0.315,4.568H207.474z
		 M206.962,80.773c-3.781-0.08-8.073,0.591-8.073,4.292c0,2.245,1.497,3.309,3.269,3.309c2.481,0,4.056-1.576,4.607-3.19
		c0.118-0.355,0.197-0.749,0.197-1.103V80.773z"/>
	<path class="st0" d="M113.748,109.025l3.741,10.712c0.63,1.733,1.142,3.308,1.536,4.883h0.118c0.433-1.575,0.984-3.15,1.615-4.883
		l3.702-10.712h3.623l-7.483,19.06h-3.308l-7.246-19.06H113.748z"/>
	<path class="st0" d="M134.814,103.669c0.039,1.182-0.827,2.127-2.205,2.127c-1.22,0-2.087-0.946-2.087-2.127
		c0-1.221,0.906-2.166,2.166-2.166C133.987,101.503,134.814,102.448,134.814,103.669z M130.955,128.085v-19.06h3.466v19.06H130.955z
		"/>
	<path class="st0" d="M156.236,100.125v23.038c0,1.694,0.04,3.623,0.158,4.923h-3.111l-0.157-3.308h-0.079
		c-1.063,2.126-3.387,3.741-6.498,3.741c-4.608,0-8.152-3.899-8.152-9.688c-0.039-6.34,3.899-10.239,8.546-10.239
		c2.914,0,4.883,1.378,5.75,2.915h0.079v-11.381H156.236z M152.771,116.783c0-0.433-0.039-1.024-0.157-1.457
		c-0.512-2.206-2.402-4.017-5.001-4.017c-3.584,0-5.71,3.151-5.71,7.365c0,3.859,1.89,7.049,5.632,7.049
		c2.323,0,4.45-1.535,5.08-4.135c0.118-0.473,0.157-0.946,0.157-1.497V116.783z"/>
	<path class="st0" d="M163.519,119.185c0.079,4.686,3.072,6.616,6.537,6.616c2.481,0,3.978-0.433,5.277-0.984l0.591,2.481
		c-1.221,0.551-3.308,1.182-6.341,1.182c-5.868,0-9.372-3.86-9.372-9.61s3.387-10.278,8.939-10.278c6.222,0,7.876,5.474,7.876,8.979
		c0,0.709-0.079,1.26-0.118,1.615H163.519z M173.679,116.704c0.039-2.206-0.906-5.632-4.805-5.632c-3.505,0-5.041,3.229-5.317,5.632
		H173.679z"/>
	<path class="st0" d="M198.171,118.398c0,7.049-4.883,10.121-9.491,10.121c-5.159,0-9.136-3.781-9.136-9.806
		c0-6.38,4.174-10.121,9.451-10.121C194.469,108.592,198.171,112.569,198.171,118.398z M183.049,118.595
		c0,4.175,2.402,7.325,5.789,7.325c3.308,0,5.789-3.111,5.789-7.404c0-3.229-1.615-7.325-5.711-7.325
		C184.821,111.191,183.049,114.971,183.049,118.595z"/>
	<path class="st0" d="M223.685,127.377c-0.906,0.473-2.914,1.103-5.474,1.103c-5.75,0-9.491-3.899-9.491-9.728
		c0-5.868,4.017-10.121,10.239-10.121c2.048,0,3.859,0.512,4.805,0.985l-0.788,2.678c-0.827-0.473-2.127-0.905-4.017-0.905
		c-4.371,0-6.734,3.229-6.734,7.206c0,4.411,2.835,7.128,6.616,7.128c1.969,0,3.268-0.512,4.253-0.945L223.685,127.377z"/>
	<path class="st0" d="M227.345,100.125h3.466v11.892h0.079c0.551-0.984,1.418-1.85,2.481-2.441c1.024-0.591,2.245-0.985,3.545-0.985
		c2.56,0,6.655,1.576,6.655,8.152v11.342h-3.466v-10.948c0-3.072-1.142-5.671-4.411-5.671c-2.245,0-4.017,1.575-4.647,3.465
		c-0.197,0.473-0.236,0.985-0.236,1.654v11.499h-3.466V100.125z"/>
	<path class="st0" d="M259.359,128.085l-0.276-2.402h-0.118c-1.063,1.497-3.111,2.836-5.828,2.836c-3.859,0-5.829-2.718-5.829-5.474
		c0-4.607,4.096-7.128,11.46-7.088v-0.394c0-1.575-0.433-4.411-4.332-4.411c-1.772,0-3.623,0.551-4.962,1.418l-0.787-2.284
		c1.575-1.024,3.859-1.694,6.262-1.694c5.828,0,7.246,3.977,7.246,7.797v7.129c0,1.653,0.079,3.268,0.315,4.568H259.359z
		 M258.847,118.359c-3.781-0.08-8.073,0.591-8.073,4.292c0,2.245,1.497,3.309,3.269,3.309c2.481,0,4.056-1.576,4.607-3.19
		c0.118-0.355,0.197-0.749,0.197-1.103V118.359z"/>
	<path class="st0" d="M271.407,103.551v5.474h4.962v2.638h-4.962v10.278c0,2.363,0.669,3.702,2.599,3.702
		c0.906,0,1.575-0.118,2.008-0.236l0.158,2.599c-0.67,0.275-1.733,0.473-3.072,0.473c-1.615,0-2.915-0.512-3.741-1.458
		c-0.984-1.023-1.339-2.717-1.339-4.962v-10.396h-2.954v-2.638h2.954v-4.569L271.407,103.551z"/>
	<path class="st0" d="M612.686,90.834c1.536,0.946,3.781,1.733,6.144,1.733c3.505,0,5.552-1.851,5.552-4.529
		c0-2.481-1.417-3.899-5.001-5.277c-4.332-1.536-7.01-3.781-7.01-7.522c0-4.135,3.426-7.207,8.585-7.207
		c2.717,0,4.686,0.63,5.868,1.3l-0.945,2.797c-0.866-0.473-2.638-1.26-5.041-1.26c-3.623,0-5.001,2.166-5.001,3.977
		c0,2.481,1.615,3.702,5.277,5.119c4.489,1.733,6.773,3.899,6.773,7.797c0,4.096-3.032,7.641-9.294,7.641
		c-2.56,0-5.356-0.749-6.774-1.694L612.686,90.834z"/>
	<path class="st0" d="M632.059,67.048h3.466V78.94h0.079c0.551-0.984,1.418-1.85,2.481-2.441c1.024-0.591,2.245-0.985,3.545-0.985
		c2.56,0,6.655,1.576,6.655,8.152v11.342h-3.466V84.061c0-3.072-1.142-5.671-4.411-5.671c-2.245,0-4.017,1.575-4.647,3.465
		c-0.197,0.473-0.236,0.985-0.236,1.654v11.499h-3.466V67.048z"/>
	<path class="st0" d="M670.767,85.321c0,7.049-4.883,10.121-9.491,10.121c-5.159,0-9.136-3.781-9.136-9.806
		c0-6.38,4.174-10.121,9.451-10.121C667.065,75.515,670.767,79.492,670.767,85.321z M655.644,85.518
		c0,4.175,2.402,7.325,5.789,7.325c3.308,0,5.789-3.111,5.789-7.404c0-3.229-1.615-7.325-5.711-7.325
		C657.417,78.114,655.644,81.894,655.644,85.518z"/>
	<path class="st0" d="M675.844,75.948l2.52,9.687c0.551,2.126,1.063,4.096,1.417,6.065h0.118c0.433-1.93,1.064-3.978,1.694-6.026
		l3.111-9.727h2.914l2.953,9.53c0.709,2.284,1.26,4.293,1.694,6.222h0.118c0.315-1.93,0.827-3.939,1.457-6.183l2.717-9.569h3.426
		l-6.143,19.06h-3.15l-2.915-9.097c-0.669-2.127-1.22-4.017-1.693-6.262h-0.079c-0.473,2.284-1.064,4.253-1.733,6.301l-3.072,9.057
		h-3.151l-5.75-19.06H675.844z"/>
	<path class="st0" d="M726.955,89.81c0,1.969,0.039,3.702,0.157,5.198h-3.072l-0.197-3.111h-0.079
		c-0.906,1.536-2.915,3.545-6.301,3.545c-2.993,0-6.577-1.654-6.577-8.349V75.948h3.466v10.554c0,3.623,1.102,6.065,4.253,6.065
		c2.324,0,3.938-1.614,4.568-3.151c0.197-0.512,0.315-1.142,0.315-1.772V75.948h3.466V89.81z"/>
	<path class="st0" d="M731.835,91.464c1.024,0.669,2.835,1.379,4.568,1.379c2.52,0,3.702-1.26,3.702-2.836
		c0-1.654-0.984-2.56-3.544-3.505c-3.426-1.22-5.041-3.11-5.041-5.395c0-3.072,2.481-5.592,6.577-5.592
		c1.93,0,3.623,0.551,4.686,1.182l-0.866,2.52c-0.749-0.473-2.127-1.103-3.899-1.103c-2.048,0-3.19,1.182-3.19,2.599
		c0,1.576,1.142,2.284,3.623,3.229c3.308,1.26,5.001,2.915,5.001,5.75c0,3.347-2.599,5.71-7.128,5.71
		c-2.087,0-4.017-0.512-5.356-1.3L731.835,91.464z"/>
	<path class="st0" d="M618.05,113.534l4.174,11.263c0.433,1.26,0.906,2.756,1.221,3.899h0.079c0.354-1.142,0.748-2.599,1.22-3.977
		l3.781-11.184h3.663l-5.199,13.586c-2.481,6.538-4.174,9.885-6.537,11.933c-1.694,1.497-3.387,2.088-4.253,2.245l-0.866-2.915
		c0.866-0.275,2.008-0.827,3.032-1.694c0.945-0.748,2.127-2.087,2.914-3.859c0.158-0.354,0.276-0.63,0.276-0.827
		s-0.079-0.473-0.236-0.905l-7.049-17.564H618.05z"/>
	<path class="st0" d="M651.797,122.907c0,7.049-4.883,10.121-9.491,10.121c-5.159,0-9.136-3.781-9.136-9.806
		c0-6.38,4.174-10.121,9.452-10.121C648.095,113.1,651.797,117.078,651.797,122.907z M636.675,123.103
		c0,4.175,2.402,7.325,5.789,7.325c3.308,0,5.789-3.111,5.789-7.404c0-3.229-1.615-7.325-5.71-7.325
		C638.447,115.7,636.675,119.48,636.675,123.103z"/>
	<path class="st0" d="M671.721,127.396c0,1.969,0.039,3.702,0.157,5.198h-3.071l-0.197-3.111h-0.079
		c-0.906,1.536-2.915,3.545-6.301,3.545c-2.993,0-6.577-1.654-6.577-8.349v-11.144h3.466v10.554c0,3.623,1.102,6.065,4.253,6.065
		c2.324,0,3.938-1.614,4.568-3.151c0.197-0.512,0.315-1.142,0.315-1.772v-11.696h3.466V127.396z"/>
	<path class="st0" d="M677.073,119.48c0-2.244-0.039-4.174-0.157-5.946h3.032l0.118,3.741h0.157c0.867-2.56,2.954-4.175,5.277-4.175
		c0.394,0,0.669,0.039,0.984,0.118v3.268c-0.354-0.079-0.709-0.118-1.182-0.118c-2.442,0-4.174,1.851-4.647,4.45
		c-0.079,0.473-0.158,1.024-0.158,1.615v10.16h-3.426V119.48z"/>
	<path class="st0" d="M701.368,108.178c0.039,1.182-0.827,2.127-2.205,2.127c-1.22,0-2.087-0.946-2.087-2.127
		c0-1.221,0.906-2.166,2.166-2.166C700.541,106.012,701.368,106.957,701.368,108.178z M697.508,132.594v-19.06h3.466v19.06H697.508z
		"/>
	<path class="st0" d="M710.503,108.06v5.474h4.962v2.638h-4.962v10.278c0,2.363,0.669,3.702,2.599,3.702
		c0.906,0,1.575-0.118,2.008-0.236l0.158,2.599c-0.67,0.275-1.733,0.473-3.072,0.473c-1.615,0-2.915-0.512-3.741-1.458
		c-0.984-1.023-1.339-2.717-1.339-4.962v-10.396h-2.954v-2.638h2.954v-4.569L710.503,108.06z"/>
	<path class="st0" d="M720.661,123.694c0.079,4.686,3.072,6.616,6.537,6.616c2.481,0,3.978-0.433,5.277-0.984l0.591,2.481
		c-1.221,0.551-3.308,1.182-6.34,1.182c-5.868,0-9.373-3.86-9.373-9.61c0-5.75,3.386-10.278,8.939-10.278
		c6.222,0,7.876,5.474,7.876,8.979c0,0.709-0.079,1.26-0.118,1.615H720.661z M730.822,121.213c0.04-2.206-0.905-5.632-4.804-5.632
		c-3.505,0-5.041,3.229-5.317,5.632H730.822z"/>
	<path class="st0" d="M738.065,118.693c0-1.969-0.039-3.584-0.157-5.159h3.032l0.158,3.072h0.118
		c1.064-1.812,2.835-3.505,5.986-3.505c2.599,0,4.568,1.576,5.395,3.82h0.079c0.591-1.064,1.339-1.89,2.127-2.481
		c1.142-0.866,2.402-1.339,4.214-1.339c2.52,0,6.261,1.654,6.261,8.27v11.224h-3.386v-10.79c0-3.663-1.339-5.868-4.135-5.868
		c-1.969,0-3.505,1.457-4.096,3.15c-0.158,0.472-0.276,1.102-0.276,1.732v11.775h-3.387v-11.42c0-3.033-1.339-5.237-3.978-5.237
		c-2.166,0-3.741,1.732-4.292,3.465c-0.197,0.512-0.276,1.103-0.276,1.694v11.499h-3.387V118.693z"/>
	<path class="st0" d="M770.038,129.05c1.024,0.669,2.835,1.379,4.568,1.379c2.52,0,3.702-1.26,3.702-2.836
		c0-1.654-0.984-2.56-3.544-3.505c-3.426-1.22-5.041-3.11-5.041-5.395c0-3.072,2.481-5.592,6.576-5.592
		c1.93,0,3.623,0.551,4.686,1.182l-0.866,2.52c-0.749-0.473-2.127-1.103-3.899-1.103c-2.048,0-3.19,1.182-3.19,2.599
		c0,1.576,1.142,2.284,3.623,3.229c3.308,1.26,5.001,2.915,5.001,5.75c0,3.347-2.599,5.71-7.128,5.71
		c-2.087,0-4.017-0.512-5.356-1.3L770.038,129.05z"/>
	<path class="st0" d="M1052.071,105.575c-1.536,0.551-4.568,1.457-8.152,1.457c-4.017,0-7.325-1.023-9.924-3.504
		c-2.284-2.206-3.702-5.75-3.702-9.885c0.039-7.915,5.474-13.705,14.374-13.705c3.072,0,5.474,0.669,6.616,1.221l-0.827,2.797
		c-1.418-0.63-3.19-1.142-5.868-1.142c-6.459,0-10.672,4.017-10.672,10.672c0,6.734,4.056,10.712,10.239,10.712
		c2.245,0,3.781-0.315,4.568-0.709v-7.916h-5.395v-2.756h8.743V105.575z"/>
	<path class="st0" d="M1058.919,97.856c0.079,4.686,3.072,6.616,6.537,6.616c2.481,0,3.978-0.433,5.277-0.984l0.591,2.481
		c-1.221,0.551-3.308,1.182-6.341,1.182c-5.867,0-9.372-3.86-9.372-9.61c0-5.75,3.387-10.278,8.939-10.278
		c6.222,0,7.876,5.474,7.876,8.979c0,0.709-0.079,1.26-0.118,1.615H1058.919z M1069.079,95.375c0.039-2.206-0.906-5.632-4.805-5.632
		c-3.505,0-5.041,3.229-5.317,5.632H1069.079z"/>
	<path class="st0" d="M1080.496,82.222v5.474h4.962v2.638h-4.962v10.278c0,2.363,0.669,3.702,2.599,3.702
		c0.906,0,1.575-0.118,2.008-0.236l0.158,2.599c-0.67,0.275-1.733,0.473-3.072,0.473c-1.615,0-2.915-0.512-3.741-1.458
		c-0.984-1.023-1.339-2.717-1.339-4.962V90.334h-2.954v-2.638h2.954v-4.569L1080.496,82.222z"/>
	<path class="st0" d="M1107.469,106.756l-0.276-2.402h-0.118c-1.063,1.497-3.111,2.836-5.828,2.836
		c-3.859,0-5.829-2.718-5.829-5.474c0-4.607,4.096-7.128,11.46-7.088v-0.394c0-1.575-0.433-4.411-4.332-4.411
		c-1.772,0-3.623,0.551-4.962,1.418l-0.787-2.284c1.575-1.024,3.859-1.694,6.262-1.694c5.828,0,7.246,3.977,7.246,7.797v7.129
		c0,1.653,0.079,3.268,0.315,4.568H1107.469z M1106.957,97.03c-3.781-0.08-8.073,0.591-8.073,4.292c0,2.245,1.497,3.309,3.269,3.309
		c2.481,0,4.056-1.576,4.607-3.19c0.118-0.355,0.197-0.749,0.197-1.103V97.03z"/>
	<path class="st0" d="M1123.453,93.918c0-2.442-0.079-4.411-0.157-6.222h3.111l0.158,3.268h0.079
		c1.418-2.324,3.663-3.702,6.774-3.702c4.607,0,8.073,3.899,8.073,9.687c0,6.852-4.174,10.24-8.664,10.24
		c-2.52,0-4.726-1.103-5.868-2.993h-0.079v10.357h-3.426V93.918z M1126.879,98.999c0,0.511,0.079,0.984,0.157,1.418
		c0.63,2.402,2.717,4.056,5.198,4.056c3.663,0,5.789-2.992,5.789-7.364c0-3.82-2.008-7.089-5.671-7.089
		c-2.363,0-4.568,1.694-5.237,4.293c-0.118,0.433-0.236,0.946-0.236,1.418V98.999z"/>
	<path class="st0" d="M1145.463,93.642c0-2.244-0.039-4.174-0.157-5.946h3.032l0.118,3.741h0.157
		c0.867-2.56,2.954-4.175,5.277-4.175c0.394,0,0.669,0.039,0.984,0.118v3.268c-0.354-0.079-0.709-0.118-1.182-0.118
		c-2.442,0-4.174,1.851-4.647,4.45c-0.079,0.473-0.158,1.024-0.158,1.615v10.16h-3.426V93.642z"/>
	<path class="st0" d="M1161.961,82.34c0.04,1.182-0.827,2.127-2.205,2.127c-1.221,0-2.087-0.946-2.087-2.127
		c0-1.221,0.906-2.166,2.166-2.166C1161.135,80.174,1161.961,81.119,1161.961,82.34z M1158.102,106.756v-19.06h3.466v19.06H1158.102
		z"/>
	<path class="st0" d="M1180.509,106.048c-0.906,0.473-2.914,1.103-5.474,1.103c-5.75,0-9.491-3.899-9.491-9.728
		c0-5.868,4.017-10.121,10.239-10.121c2.048,0,3.859,0.512,4.805,0.985l-0.788,2.678c-0.827-0.473-2.127-0.905-4.017-0.905
		c-4.371,0-6.734,3.229-6.734,7.206c0,4.411,2.835,7.128,6.616,7.128c1.969,0,3.269-0.512,4.253-0.945L1180.509,106.048z"/>
	<path class="st0" d="M1185.862,97.856c0.079,4.686,3.072,6.616,6.537,6.616c2.481,0,3.978-0.433,5.277-0.984l0.591,2.481
		c-1.221,0.551-3.308,1.182-6.34,1.182c-5.868,0-9.373-3.86-9.373-9.61c0-5.75,3.386-10.278,8.939-10.278
		c6.222,0,7.876,5.474,7.876,8.979c0,0.709-0.079,1.26-0.118,1.615H1185.862z M1196.022,95.375c0.04-2.206-0.905-5.632-4.804-5.632
		c-3.505,0-5.041,3.229-5.317,5.632H1196.022z"/>
</g>
</svg>
