<?xml version="1.0" encoding="utf-8"?>
<!-- Generator: Adobe Illustrator 20.0.0, SVG Export Plug-In . SVG Version: 6.00 Build 0)  -->
<svg version="1.1" id="Layer_4" xmlns="http://www.w3.org/2000/svg" xmlns:xlink="http://www.w3.org/1999/xlink" x="0px" y="0px"
	 width="400px" height="600px" viewBox="0 0 400 600" style="enable-background:new 0 0 400 600;" xml:space="preserve">
<style type="text/css">
	
</style>
<g id="g1">
	<g>
		<polygon class="st0" points="155.693,521.396 153.121,521.396 153.121,468.492 55.286,468.492 55.286,521.396 52.713,521.396 
			52.713,465.918 155.693,465.918 		"/>
	</g>
	<g>
		<rect x="43.518" y="520.888" class="st0" width="121.372" height="61.183"/>
	</g>
	<g>
		<rect x="91.297" y="479.569" class="st0" width="50.688" height="2.574"/>
	</g>
	<g>
		<rect x="91.297" y="493.584" class="st0" width="50.688" height="2.572"/>
	</g>
	<g>
		<rect x="91.297" y="507.596" class="st0" width="50.688" height="2.574"/>
	</g>
	<path class="st0" d="M149.377,18.165h-39.463c-7.137,0-12.943,5.808-12.943,12.946v1.921l-10.345-7.31
		c-0.995-0.712-2.127-1.089-3.274-1.089c-1.355,0-2.61,0.526-3.528,1.48c-0.899,0.936-1.393,2.216-1.393,3.602v23.703h-16.74
		c-7.137-0.001-12.942,5.807-12.942,12.942v39.461c0,7.138,5.805,12.946,12.941,12.946h39.464c7.137,0,12.943-5.808,12.943-12.946
		V103.9l10.344,7.31c0.996,0.712,2.128,1.089,3.274,1.089c1.356,0,2.609-0.526,3.528-1.48c0.899-0.934,1.394-2.216,1.394-3.602
		V83.514h16.739c7.136,0,12.942-5.808,12.942-12.943v-39.46C162.319,23.973,156.513,18.165,149.377,18.165z M125.808,103.811
		l-13.155-9.298c-1.041-0.736-2.407-0.832-3.542-0.244c-1.134,0.587-1.845,1.757-1.845,3.033v8.52c0,3.371-2.742,6.115-6.112,6.115
		H61.69c-3.369,0-6.111-2.744-6.111-6.115V66.361c0-3.369,2.741-6.112,6.111-6.112h39.464c3.369,0,6.112,2.742,6.112,6.112v8.246
		c0,1.277,0.712,2.449,1.848,3.036c1.135,0.587,2.503,0.492,3.544-0.249l13.15-9.329V103.811z"/>
	<g>
		<path class="st0" d="M55.312,330.54h-23.21v9.284h23.21V330.54L55.312,330.54z M44.287,336.825c-1.068,0-1.934-0.866-1.934-1.933
			c0-1.069,0.867-1.934,1.934-1.934s1.934,0.866,1.934,1.934C46.221,335.959,45.354,336.825,44.287,336.825z"/>
		<path class="st0" d="M86.259,330.54h-23.21v9.284h23.21V330.54L86.259,330.54z M75.234,336.825c-1.069,0-1.934-0.866-1.934-1.933
			c0-1.069,0.866-1.934,1.934-1.934c1.067,0,1.934,0.866,1.934,1.934C77.167,335.959,76.301,336.825,75.234,336.825z"/>
		<path class="st0" d="M86.259,313.52H32.102v9.283h54.157V313.52L86.259,313.52z M58.213,319.804c-1.069,0-1.934-0.866-1.934-1.934
			c0-1.067,0.866-1.934,1.934-1.934c1.067,0,1.934,0.867,1.934,1.934C60.147,318.938,59.28,319.804,58.213,319.804z"/>
		<path class="st0" d="M93.995,350.654v-4.642v-4.641v-34.042h-69.63v34.042v4.641v4.644h4.642v-4.644h27.852v4.644h4.642v-4.644
			h27.852v4.644h4.642L93.995,350.654L93.995,350.654z M56.859,341.371H30.555v-12.378h26.305V341.371L56.859,341.371z
			 M87.806,341.371H61.501v-12.378h26.305V341.371L87.806,341.371z M87.806,324.351H30.555v-12.38h57.252L87.806,324.351
			L87.806,324.351z"/>
		<polygon class="st0" points="93.995,305.782 97.089,302.689 21.271,302.689 24.365,305.782 		"/>
		<polygon class="st0" points="50.67,293.404 50.67,298.046 41.385,298.046 41.385,301.14 76.974,301.14 76.974,298.046 
			67.69,298.046 67.69,293.404 		"/>
		<path class="st0" d="M87.806,262.457H30.555v29.4h57.252L87.806,262.457L87.806,262.457z M83.163,287.215H35.196V267.1h47.967
			V287.215z"/>
	</g>
	<g>
		<g>
			<path class="st0" d="M99.042,347.325c0,1.609,0.9,2.951,2.095,3.261c0.175,0.036,0.349,0.07,0.531,0.07h21.014
				c0.182,0,0.355-0.034,0.531-0.07c1.196-0.31,2.096-1.653,2.096-3.261c0-1.837-1.177-3.329-2.627-3.329h-7.005h-1.751h-3.502
				h-1.751h-7.004C100.218,343.996,99.042,345.488,99.042,347.325z"/>
			<polygon class="st0" points="126.43,208.542 123.75,208.542 123.12,208.542 121.906,208.542 102.444,208.542 101.231,208.542 
				100.599,208.542 97.92,208.542 91.5,245.668 132.85,245.668 			"/>
			<path class="st0" d="M116.553,264.538c0.484,0,0.876-0.498,0.876-1.11v-2.221v-2.219v-2.22c0-0.613-0.392-1.11-0.876-1.11
				c-0.483,0-0.875,0.498-0.875,1.11v2.22h-1.751v-11.1h-3.502v93.887h3.502v-80.566h1.751v2.219
				C115.677,264.04,116.069,264.538,116.553,264.538z"/>
		</g>
	</g>
	<polygon class="st0" points="154.418,329.2 145.366,329.2 143.842,329.2 132.453,329.2 133.87,338.395 153.001,338.395 	"/>
	<polygon class="st0" points="155.836,320.006 152.29,320.006 150.551,320.006 149.149,320.006 148.321,320.006 147.615,320.006 
		146.654,320.006 145.779,320.006 145.772,320.006 144.867,320.006 142.227,320.006 141.436,320.006 139.867,320.006 
		138.703,320.006 137.167,320.006 131.036,320.006 132.217,327.668 142.857,327.668 146.057,327.668 154.654,327.668 	"/>
	<polygon class="st0" points="151.112,350.656 152.766,339.927 134.107,339.927 135.759,350.656 	"/>
	<path class="st0" d="M126.313,309.279l2.362,9.195h1.18h3.068h1.73h2.402h1.63h0.99h0.791h0.858h0.905h1.055h1.493h1.004h0.045
		h1.494h0.246h0.144h0.539h1.445h0.778h0.127h1.669h5.928l2.362-9.195h-7.849c0.469-4.353,1.384-8.906,3.076-12.795
		c0,0-0.852,1.091-1.872,3.669c0.434-4.636,0.111-7.505-0.049-8.526c1.059-3.829,2.446-7.557,4.267-10.819
		c0,0-6.622,6.678-9.509,28.47h-0.392c0.067-1.869,0.186-3.833,0.371-5.839c0.536-2.954,1.322-5.872,2.462-8.49
		c0,0-0.867,1.115-1.898,3.739c0.706-4.815,1.863-9.669,3.717-13.928c0,0-5.058,6.398-6.646,24.519h-1.529
		c-0.013-0.329-0.025-0.669-0.036-1.018c0.246-7.836,1.34-17.385,4.668-25.035c0,0-2.222,2.818-4.184,9.994
		c0.616-5.989,1.85-12.29,4.184-17.655c0,0-6.73,8.512-7.101,33.714h-0.861c-0.094-0.557-0.185-1.13-0.274-1.715
		c0.194-7.985,1.248-17.95,4.694-25.87c0,0-3.603,4.562-5.682,16.88c-0.408-6.173-0.247-12.883,1.212-18.937
		c0,0-4.285,8.363-2.32,28.394c-0.029,0.408-0.055,0.829-0.08,1.249h-0.799c-0.368-1.787-0.759-3.448-1.159-5.006
		c1.711-14.67,0.001-20.689,0.001-20.689c0.438,4.978,0.132,10.52-0.479,15.739c0.548-18.393-3.753-25.758-3.753-25.758
		c2.163,7.359,2.378,15.885,1.926,23.191c-3.414-9.371-6.871-12.421-6.871-12.421c3.048,4.8,5.121,10.796,6.533,16.609
		c-0.325,3.274-0.744,6.141-1.115,8.334L126.313,309.279L126.313,309.279z M153.772,291.971c-0.103,5.635-1.264,11.336-2.815,16.511
		C151.396,303.587,152.224,297.683,153.772,291.971z"/>
	<g>
		<path class="st0" d="M79.977,495.51c-1.192-0.97-2.917-1.662-4.656-2.302v-8.636c1.356,0.297,2.577,1.037,3.34,2.153l2.124-1.453
			c-1.235-1.806-3.265-2.949-5.463-3.293v-4.548h-2.574v4.514c-0.975,0.128-1.934,0.414-2.83,0.878
			c-1.96,1.012-3.308,2.833-3.606,4.87c-0.261,1.785,0.303,3.498,1.545,4.696c1.188,1.145,3.015,1.918,4.891,2.617v10.07
			c-1.997-0.237-3.884-1.134-4.924-2.526l-2.061,1.541c1.516,2.027,4.191,3.301,6.985,3.563v3.517h2.574v-3.569
			c0.735-0.101,1.456-0.279,2.143-0.539c2.703-1.027,4.627-3.188,5.022-5.638C82.843,499.217,81.952,497.115,79.977,495.51z
			 M69.644,490.536c-0.639-0.615-0.925-1.517-0.785-2.471c0.177-1.219,1.015-2.323,2.24-2.957c0.526-0.271,1.083-0.456,1.65-0.565
			v7.705C71.471,491.742,70.323,491.192,69.644,490.536z M79.946,501.015c-0.249,1.545-1.55,2.94-3.395,3.641
			c-0.396,0.151-0.808,0.262-1.23,0.341v-9.04c1.209,0.469,2.32,0.97,3.033,1.55C79.602,498.522,80.153,499.735,79.946,501.015z"/>
	</g>
	<g>
		<polygon class="st0" points="154.702,518.021 164.89,518.021 159.171,507.06 154.702,507.06 		"/>
		<polygon class="st0" points="54.245,507.06 49.236,507.06 43.518,518.021 54.245,518.021 		"/>
	</g>
</g>
<g id="g2">
	<path class="st0" d="M102.289,180.677l12.159-12.164c0.832-0.83,1.309-2.007,1.309-3.228v-0.001c0-1.222-0.477-2.399-1.312-3.233
		c-1.781-1.773-4.679-1.772-6.459,0.004l-4.365,4.365v-22.145c0-2.517-2.048-4.565-4.565-4.565c-2.518,0-4.566,2.048-4.566,4.565
		v22.145l-4.361-4.363c-0.864-0.866-2.014-1.342-3.24-1.341c-1.222,0.002-2.367,0.479-3.219,1.338
		c-0.865,0.864-1.342,2.011-1.342,3.23c0,1.228,0.479,2.376,1.341,3.226l12.161,12.167c0.851,0.85,2.027,1.338,3.226,1.338
		C100.254,182.015,101.43,181.529,102.289,180.677z"/>
	<path class="st0" d="M102.289,435.256l12.159-12.164c0.832-0.83,1.309-2.007,1.309-3.228v-0.001c0-1.222-0.477-2.399-1.312-3.233
		c-1.781-1.773-4.679-1.772-6.459,0.004l-4.365,4.365v-22.145c0-2.517-2.048-4.565-4.565-4.565c-2.518,0-4.566,2.048-4.566,4.565
		v22.145l-4.361-4.363c-0.864-0.866-2.014-1.342-3.24-1.341c-1.222,0.002-2.367,0.479-3.219,1.338
		c-0.865,0.864-1.342,2.011-1.342,3.23c0,1.228,0.479,2.376,1.341,3.226l12.161,12.167c0.851,0.85,2.027,1.338,3.226,1.338
		C100.254,436.594,101.43,436.108,102.289,435.256z"/>
	<g>
		<g>
			<path class="st0" d="M190.948,49.448c1.575,0.906,3.939,1.693,6.42,1.693c3.112,0,4.845-1.457,4.845-3.623
				c0-2.01-1.339-3.191-4.727-4.412c-4.372-1.576-7.169-3.9-7.169-7.721c0-4.333,3.624-7.642,9.375-7.642
				c2.875,0,5.003,0.63,6.382,1.339l-1.182,3.9c-0.945-0.512-2.797-1.26-5.278-1.26c-3.073,0-4.412,1.654-4.412,3.191
				c0,2.048,1.536,2.993,5.081,4.372c4.609,1.733,6.854,4.057,6.854,7.878c0,4.254-3.23,7.957-10.084,7.957
				c-2.797,0-5.712-0.788-7.169-1.655L190.948,49.448z"/>
		</g>
		<g>
			<path class="st0" d="M216.313,30.068v5.476h4.608v3.622h-4.608v8.469c0,2.323,0.63,3.545,2.482,3.545
				c0.827,0,1.457-0.118,1.891-0.236l0.079,3.703c-0.709,0.275-1.969,0.473-3.506,0.473c-1.773,0-3.27-0.591-4.175-1.576
				c-1.024-1.103-1.497-2.836-1.497-5.357v-9.021h-2.757v-3.623h2.757V31.21L216.313,30.068z"/>
		</g>
		<g>
			<path class="st0" d="M234.982,54.726l-0.315-2.127h-0.118c-1.182,1.497-3.191,2.56-5.672,2.56c-3.86,0-6.027-2.797-6.027-5.712
				c0-4.845,4.294-7.288,11.384-7.248v-0.315c0-1.26-0.512-3.349-3.9-3.349c-1.891,0-3.86,0.591-5.16,1.419l-0.945-3.151
				c1.418-0.867,3.9-1.694,6.933-1.694c6.145,0,7.918,3.899,7.918,8.075v6.933c0,1.733,0.079,3.427,0.275,4.608h-4.373V54.726z
				 M234.351,45.351c-3.427-0.079-6.696,0.67-6.696,3.585c0,1.891,1.221,2.757,2.757,2.757c1.93,0,3.348-1.26,3.781-2.639
				c0.118-0.355,0.157-0.748,0.157-1.064L234.351,45.351L234.351,45.351z"/>
		</g>
		<g>
			<path class="st0" d="M243.802,41.727c0-2.6-0.039-4.451-0.157-6.184h4.215l0.158,3.663h0.157
				c0.945-2.718,3.191-4.096,5.239-4.096c0.472,0,0.748,0.039,1.142,0.118v4.569c-0.394-0.079-0.827-0.157-1.418-0.157
				c-2.324,0-3.9,1.497-4.333,3.663c-0.079,0.434-0.157,0.945-0.157,1.497v9.927h-4.845v-13H243.802z"/>
		</g>
		<g>
			<path class="st0" d="M263.889,30.068v5.476h4.609v3.622h-4.609v8.469c0,2.323,0.63,3.545,2.482,3.545
				c0.827,0,1.457-0.118,1.891-0.236l0.079,3.703c-0.709,0.275-1.969,0.473-3.506,0.473c-1.773,0-3.269-0.591-4.175-1.576
				c-1.024-1.103-1.497-2.836-1.497-5.357v-9.021h-2.757v-3.623h2.757V31.21L263.889,30.068z"/>
		</g>
		<g>
			<path class="st0" d="M290.316,54.726L290,52.599h-0.118c-1.182,1.497-3.191,2.56-5.672,2.56c-3.86,0-6.027-2.797-6.027-5.712
				c0-4.845,4.294-7.288,11.384-7.248v-0.315c0-1.26-0.512-3.349-3.899-3.349c-1.891,0-3.861,0.591-5.16,1.419l-0.945-3.151
				c1.418-0.867,3.9-1.694,6.933-1.694c6.145,0,7.917,3.899,7.917,8.075v6.933c0,1.733,0.079,3.427,0.276,4.608h-4.373V54.726z
				 M289.685,45.351c-3.427-0.079-6.697,0.67-6.697,3.585c0,1.891,1.221,2.757,2.757,2.757c1.93,0,3.348-1.26,3.781-2.639
				c0.118-0.355,0.158-0.748,0.158-1.064L289.685,45.351L289.685,45.351z"/>
		</g>
		<g>
			<path class="st0" d="M195.312,73.138l3.112,9.729c0.552,1.694,0.945,3.23,1.3,4.806h0.118c0.355-1.576,0.788-3.073,1.3-4.806
				l3.033-9.729h5.121l-7.327,19.183h-4.766l-7.13-19.183H195.312z"/>
		</g>
		<g>
			<path class="st0" d="M217.013,67.78c0,1.457-1.064,2.6-2.757,2.6c-1.615,0-2.679-1.142-2.679-2.6
				c0-1.497,1.103-2.639,2.718-2.639C215.949,65.141,216.973,66.284,217.013,67.78z M211.852,92.321V73.138h4.885v19.183H211.852z"
				/>
		</g>
		<g>
			<path class="st0" d="M239.227,64.354v22.57c0,1.97,0.079,4.097,0.158,5.397h-4.333l-0.197-3.033h-0.079
				c-1.142,2.128-3.466,3.467-6.263,3.467c-4.569,0-8.193-3.9-8.193-9.809c-0.039-6.42,3.979-10.241,8.587-10.241
				c2.639,0,4.53,1.103,5.396,2.521h0.079V64.354C234.382,64.354,239.227,64.354,239.227,64.354z M234.382,81.133
				c0-0.393-0.039-0.866-0.118-1.26c-0.434-1.891-1.97-3.427-4.176-3.427c-3.111,0-4.845,2.757-4.845,6.342
				c0,3.505,1.733,6.066,4.806,6.066c1.97,0,3.703-1.339,4.175-3.427c0.118-0.434,0.158-0.906,0.158-1.418L234.382,81.133
				L234.382,81.133z"/>
		</g>
		<g>
			<path class="st0" d="M247.456,84.088c0.118,3.466,2.836,4.963,5.909,4.963c2.245,0,3.86-0.316,5.318-0.867l0.709,3.349
				c-1.654,0.67-3.939,1.182-6.696,1.182c-6.224,0-9.887-3.821-9.887-9.691c0-5.317,3.23-10.32,9.375-10.32
				c6.224,0,8.272,5.121,8.272,9.336c0,0.906-0.079,1.615-0.157,2.048H247.456z M255.886,80.701
				c0.039-1.773-0.749-4.688-3.979-4.688c-2.993,0-4.254,2.718-4.451,4.688H255.886z"/>
		</g>
		<g>
			<path class="st0" d="M282.195,82.551c0,7.052-4.963,10.203-9.848,10.203c-5.436,0-9.612-3.742-9.612-9.887
				c0-6.302,4.136-10.163,9.927-10.163C278.375,72.704,282.195,76.722,282.195,82.551z M267.739,82.749
				c0,3.703,1.812,6.499,4.766,6.499c2.757,0,4.688-2.718,4.688-6.578c0-2.994-1.339-6.421-4.648-6.421
				C269.118,76.249,267.739,79.558,267.739,82.749z"/>
		</g>
		<g>
			<path class="st0" d="M307.636,91.73c-1.024,0.473-3.033,0.985-5.436,0.985c-5.987,0-9.887-3.821-9.887-9.769
				c0-5.751,3.939-10.241,10.675-10.241c1.773,0,3.585,0.394,4.688,0.906l-0.867,3.624c-0.788-0.354-1.93-0.748-3.663-0.748
				c-3.703,0-5.909,2.718-5.869,6.224c0,3.939,2.56,6.184,5.869,6.184c1.694,0,2.875-0.355,3.821-0.749L307.636,91.73z"/>
		</g>
		<g>
			<path class="st0" d="M310.824,64.354h4.885v11.423h0.079c0.591-0.906,1.379-1.655,2.403-2.206
				c0.945-0.552,2.087-0.866,3.309-0.866c3.27,0,6.696,2.166,6.696,8.311v11.305h-4.845V81.567c0-2.797-1.024-4.885-3.703-4.885
				c-1.891,0-3.23,1.26-3.742,2.719c-0.157,0.393-0.197,0.906-0.197,1.457V92.32h-4.885L310.824,64.354L310.824,64.354z"/>
		</g>
		<g>
			<path class="st0" d="M343.751,92.321l-0.316-2.127h-0.118c-1.182,1.497-3.191,2.56-5.672,2.56c-3.86,0-6.027-2.797-6.027-5.712
				c0-4.845,4.294-7.288,11.384-7.248v-0.315c0-1.26-0.512-3.349-3.899-3.349c-1.891,0-3.861,0.591-5.16,1.419l-0.945-3.151
				c1.418-0.867,3.9-1.694,6.933-1.694c6.145,0,7.917,3.899,7.917,8.075v6.933c0,1.733,0.079,3.427,0.276,4.608h-4.373V92.321z
				 M343.121,82.945c-3.427-0.079-6.697,0.67-6.697,3.585c0,1.891,1.221,2.757,2.757,2.757c1.93,0,3.348-1.26,3.781-2.639
				c0.118-0.355,0.158-0.748,0.158-1.064v-2.639H343.121z"/>
		</g>
		<g>
			<path class="st0" d="M357.889,67.662v5.476h4.608v3.623h-4.608v8.469c0,2.323,0.63,3.545,2.482,3.545
				c0.827,0,1.457-0.118,1.891-0.236l0.079,3.703c-0.709,0.275-1.969,0.473-3.506,0.473c-1.773,0-3.27-0.591-4.175-1.576
				c-1.024-1.103-1.497-2.836-1.497-5.357v-9.021h-2.757v-3.623h2.757v-4.333L357.889,67.662z"/>
		</g>
	</g>
	<g>
		<g>
			<path class="st0" d="M189.113,281.881c1.575,0.906,3.939,1.693,6.42,1.693c3.112,0,4.845-1.457,4.845-3.623
				c0-2.01-1.339-3.191-4.727-4.412c-4.372-1.576-7.169-3.9-7.169-7.721c0-4.333,3.624-7.642,9.375-7.642
				c2.875,0,5.003,0.63,6.382,1.339l-1.182,3.9c-0.945-0.512-2.797-1.26-5.278-1.26c-3.073,0-4.412,1.654-4.412,3.191
				c0,2.048,1.536,2.993,5.081,4.372c4.609,1.733,6.854,4.057,6.854,7.878c0,4.254-3.23,7.957-10.084,7.957
				c-2.797,0-5.712-0.788-7.169-1.655L189.113,281.881z"/>
		</g>
		<g>
			<path class="st0" d="M208.964,259.192h4.885v11.423h0.079c0.591-0.906,1.379-1.655,2.403-2.206
				c0.945-0.552,2.087-0.866,3.309-0.866c3.27,0,6.696,2.166,6.696,8.311v11.305h-4.845v-10.753c0-2.797-1.024-4.885-3.703-4.885
				c-1.891,0-3.23,1.26-3.742,2.719c-0.157,0.393-0.197,0.906-0.197,1.457v11.462h-4.885V259.192z"/>
		</g>
		<g>
			<path class="st0" d="M249.334,277.39c0,7.052-4.963,10.203-9.847,10.203c-5.436,0-9.612-3.742-9.612-9.887
				c0-6.302,4.136-10.163,9.927-10.163C245.514,267.543,249.334,271.56,249.334,277.39z M234.878,277.587
				c0,3.703,1.812,6.499,4.766,6.499c2.757,0,4.688-2.718,4.688-6.578c0-2.994-1.339-6.421-4.648-6.421
				C236.258,271.087,234.878,274.397,234.878,277.587z"/>
		</g>
		<g>
			<path class="st0" d="M255.516,267.976l2.009,8.705c0.433,2.049,0.867,4.136,1.221,6.224h0.079
				c0.394-2.087,1.024-4.214,1.576-6.184l2.482-8.744h3.939l2.403,8.508c0.591,2.246,1.103,4.333,1.536,6.42h0.079
				c0.315-2.087,0.748-4.175,1.26-6.42l2.127-8.508h4.766l-6.027,19.183h-4.49l-2.285-7.799c-0.591-2.01-1.024-3.821-1.457-6.145
				h-0.079c-0.394,2.364-0.906,4.254-1.457,6.145l-2.442,7.799h-4.53l-5.672-19.183h4.962V267.976z"/>
		</g>
		<g>
			<path class="st0" d="M306.639,281.408c0,2.284,0.079,4.176,0.157,5.751h-4.254l-0.236-2.915h-0.079
				c-0.827,1.379-2.718,3.349-6.145,3.349c-3.506,0-6.696-2.088-6.696-8.351v-11.266h4.845v10.438c0,3.191,1.024,5.239,3.585,5.239
				c1.93,0,3.191-1.379,3.702-2.6c0.158-0.433,0.276-0.945,0.276-1.497v-11.58h4.845L306.639,281.408L306.639,281.408z"/>
		</g>
		<g>
			<path class="st0" d="M311.243,282.708c1.103,0.67,3.191,1.379,4.924,1.379c2.127,0,3.073-0.866,3.073-2.127
				c0-1.3-0.788-1.969-3.151-2.797c-3.742-1.3-5.318-3.348-5.278-5.594c0-3.387,2.797-6.026,7.248-6.026
				c2.127,0,3.979,0.552,5.081,1.142l-0.945,3.427c-0.827-0.473-2.363-1.103-4.057-1.103c-1.733,0-2.678,0.828-2.678,2.01
				c0,1.221,0.906,1.811,3.348,2.678c3.467,1.26,5.082,3.033,5.121,5.869c0,3.467-2.718,5.988-7.799,5.988
				c-2.324,0-4.412-0.552-5.83-1.34L311.243,282.708z"/>
		</g>
		<g>
			<path class="st0" d="M191.258,305.571l3.466,10.281c0.394,1.182,0.788,2.639,1.063,3.742h0.118
				c0.315-1.103,0.67-2.521,1.024-3.781l2.993-10.241h5.2l-4.806,13.077c-2.639,7.17-4.412,10.36-6.697,12.33
				c-1.891,1.694-3.86,2.324-5.081,2.482l-1.103-4.097c0.827-0.197,1.851-0.63,2.836-1.339c0.906-0.591,1.969-1.733,2.639-3.033
				c0.197-0.354,0.315-0.63,0.315-0.866c0-0.197-0.039-0.473-0.276-0.945l-7.011-17.608h5.32V305.571z"/>
		</g>
		<g>
			<path class="st0" d="M225.25,314.984c0,7.052-4.963,10.203-9.847,10.203c-5.436,0-9.612-3.742-9.612-9.887
				c0-6.302,4.136-10.163,9.927-10.163C221.43,305.137,225.25,309.155,225.25,314.984z M210.794,315.182
				c0,3.703,1.812,6.499,4.766,6.499c2.757,0,4.688-2.718,4.688-6.578c0-2.994-1.339-6.421-4.648-6.421
				C212.173,308.682,210.794,311.991,210.794,315.182z"/>
		</g>
		<g>
			<path class="st0" d="M246.006,319.003c0,2.284,0.079,4.176,0.157,5.751h-4.254l-0.236-2.915h-0.079
				c-0.827,1.379-2.718,3.349-6.145,3.349c-3.506,0-6.696-2.088-6.696-8.351v-11.265h4.845v10.438c0,3.191,1.024,5.239,3.585,5.239
				c1.93,0,3.191-1.378,3.702-2.6c0.158-0.433,0.276-0.945,0.276-1.497v-11.58h4.845L246.006,319.003L246.006,319.003z"/>
		</g>
		<g>
			<path class="st0" d="M250.847,311.754c0-2.6-0.039-4.451-0.157-6.184h4.215l0.158,3.663h0.156
				c0.945-2.718,3.191-4.096,5.239-4.096c0.472,0,0.748,0.039,1.142,0.118v4.569c-0.394-0.079-0.827-0.157-1.418-0.157
				c-2.324,0-3.9,1.497-4.333,3.663c-0.079,0.434-0.157,0.945-0.157,1.497v9.927h-4.845L250.847,311.754L250.847,311.754z"/>
		</g>
		<g>
			<path class="st0" d="M277.392,300.213c0,1.457-1.064,2.6-2.757,2.6c-1.615,0-2.679-1.142-2.679-2.6
				c0-1.497,1.103-2.639,2.718-2.639C276.328,297.574,277.353,298.717,277.392,300.213z M272.232,324.754v-19.183h4.885v19.183
				H272.232z"/>
		</g>
		<g>
			<path class="st0" d="M287.474,300.095v5.476h4.608v3.623h-4.608v8.469c0,2.323,0.63,3.545,2.482,3.545
				c0.827,0,1.457-0.118,1.891-0.236l0.079,3.703c-0.709,0.275-1.969,0.473-3.506,0.473c-1.773,0-3.27-0.591-4.175-1.576
				c-1.024-1.103-1.497-2.836-1.497-5.357v-9.021h-2.757v-3.623h2.757v-4.333L287.474,300.095z"/>
		</g>
		<g>
			<path class="st0" d="M298.542,316.521c0.118,3.466,2.836,4.963,5.909,4.963c2.245,0,3.86-0.316,5.318-0.867l0.709,3.349
				c-1.654,0.67-3.939,1.182-6.696,1.182c-6.224,0-9.887-3.821-9.887-9.691c0-5.317,3.23-10.32,9.375-10.32
				c6.224,0,8.272,5.121,8.272,9.336c0,0.906-0.079,1.615-0.157,2.048C311.384,316.521,298.542,316.521,298.542,316.521z
				 M306.971,313.134c0.039-1.773-0.748-4.688-3.979-4.688c-2.993,0-4.254,2.718-4.451,4.688H306.971z"/>
		</g>
		<g>
			<path class="st0" d="M315.042,311.282c0-2.206-0.039-4.058-0.157-5.712h4.175l0.197,2.836h0.118
				c0.945-1.497,2.679-3.269,5.909-3.269c2.521,0,4.49,1.418,5.318,3.545h0.079c0.67-1.063,1.458-1.851,2.363-2.402
				c1.064-0.748,2.285-1.142,3.861-1.142c3.191,0,6.42,2.166,6.42,8.311v11.305h-4.727v-10.596c0-3.191-1.103-5.081-3.427-5.081
				c-1.654,0-2.875,1.182-3.388,2.56c-0.118,0.473-0.236,1.064-0.236,1.615v11.502h-4.727v-11.108c0-2.678-1.064-4.569-3.309-4.569
				c-1.812,0-3.033,1.418-3.466,2.758c-0.197,0.472-0.276,1.024-0.276,1.575v11.344h-4.727L315.042,311.282L315.042,311.282z"/>
		</g>
		<g>
			<path class="st0" d="M347.81,320.303c1.103,0.67,3.191,1.379,4.924,1.379c2.127,0,3.073-0.866,3.073-2.127
				c0-1.3-0.788-1.969-3.151-2.797c-3.742-1.3-5.318-3.348-5.278-5.594c0-3.387,2.797-6.026,7.248-6.026
				c2.127,0,3.979,0.552,5.081,1.142l-0.945,3.427c-0.827-0.473-2.363-1.103-4.057-1.103c-1.733,0-2.678,0.828-2.678,2.01
				c0,1.221,0.906,1.811,3.348,2.678c3.466,1.26,5.081,3.033,5.121,5.869c0,3.467-2.718,5.988-7.799,5.988
				c-2.324,0-4.412-0.552-5.83-1.34L347.81,320.303z"/>
		</g>
	</g>
	<g>
		<g>
			<path class="st0" d="M214.31,543.979c-1.694,0.63-5.002,1.497-8.548,1.497c-4.49,0-7.878-1.142-10.399-3.545
				c-2.363-2.246-3.742-5.751-3.702-9.769c0-8.39,5.987-13.787,14.771-13.787c3.27,0,5.83,0.67,7.051,1.26l-1.064,3.9
				c-1.457-0.63-3.23-1.142-6.027-1.142c-5.672,0-9.65,3.348-9.65,9.532c0,6.026,3.702,9.611,9.217,9.611
				c1.733,0,3.033-0.236,3.663-0.552v-6.617h-4.687v-3.821h9.375V543.979z"/>
		</g>
		<g>
			<path class="st0" d="M222.341,536.968c0.118,3.466,2.836,4.963,5.909,4.963c2.245,0,3.86-0.316,5.318-0.867l0.709,3.349
				c-1.654,0.67-3.939,1.182-6.696,1.182c-6.224,0-9.887-3.821-9.887-9.691c0-5.317,3.23-10.32,9.375-10.32
				c6.224,0,8.272,5.121,8.272,9.336c0,0.906-0.079,1.615-0.157,2.048C235.184,536.968,222.341,536.968,222.341,536.968z
				 M230.771,533.58c0.039-1.773-0.749-4.688-3.979-4.688c-2.994,0-4.254,2.718-4.451,4.688H230.771z"/>
		</g>
		<g>
			<path class="st0" d="M244.397,520.542v5.476h4.609v3.623h-4.609v8.469c0,2.323,0.63,3.545,2.482,3.545
				c0.827,0,1.457-0.118,1.891-0.236l0.079,3.703c-0.709,0.275-1.969,0.473-3.506,0.473c-1.773,0-3.269-0.591-4.175-1.576
				c-1.025-1.103-1.497-2.836-1.497-5.357v-9.021h-2.757v-3.623h2.757v-4.333L244.397,520.542z"/>
		</g>
		<g>
			<path class="st0" d="M270.824,545.2l-0.315-2.127h-0.118c-1.182,1.497-3.191,2.56-5.672,2.56c-3.86,0-6.027-2.797-6.027-5.712
				c0-4.845,4.294-7.288,11.384-7.248v-0.315c0-1.26-0.512-3.349-3.9-3.349c-1.891,0-3.86,0.591-5.16,1.419l-0.945-3.151
				c1.418-0.867,3.9-1.694,6.933-1.694c6.145,0,7.918,3.899,7.918,8.075v6.933c0,1.733,0.079,3.427,0.275,4.608h-4.373V545.2z
				 M270.194,535.825c-3.427-0.079-6.696,0.67-6.696,3.585c0,1.891,1.221,2.757,2.757,2.757c1.93,0,3.348-1.26,3.781-2.639
				c0.118-0.355,0.157-0.748,0.157-1.064v-2.639H270.194z"/>
		</g>
		<g>
			<path class="st0" d="M287.403,532.399c0-2.521-0.079-4.57-0.157-6.381h4.254l0.236,2.954h0.079
				c1.418-2.166,3.663-3.387,6.578-3.387c4.412,0,8.075,3.781,8.075,9.768c0,6.933-4.372,10.282-8.745,10.282
				c-2.403,0-4.412-1.024-5.396-2.56h-0.079v9.926h-4.845V532.399z M292.248,537.164c0,0.473,0.039,0.906,0.157,1.339
				c0.473,1.969,2.206,3.388,4.254,3.388c3.072,0,4.884-2.56,4.884-6.342c0-3.388-1.654-6.145-4.766-6.145
				c-2.009,0-3.86,1.457-4.333,3.585c-0.118,0.393-0.197,0.827-0.197,1.221L292.248,537.164L292.248,537.164z"/>
		</g>
		<g>
			<path class="st0" d="M310.049,532.201c0-2.6-0.039-4.451-0.157-6.184h4.215l0.158,3.663h0.157
				c0.945-2.718,3.191-4.096,5.239-4.096c0.473,0,0.748,0.039,1.142,0.118v4.569c-0.394-0.079-0.827-0.157-1.418-0.157
				c-2.324,0-3.9,1.497-4.333,3.663c-0.079,0.434-0.157,0.945-0.157,1.497v9.927h-4.845L310.049,532.201L310.049,532.201z"/>
		</g>
		<g>
			<path class="st0" d="M328.836,520.66c0,1.457-1.064,2.6-2.757,2.6c-1.615,0-2.679-1.142-2.679-2.6
				c0-1.497,1.103-2.639,2.718-2.639C327.772,518.021,328.797,519.163,328.836,520.66z M323.676,545.2v-19.183h4.885V545.2H323.676z
				"/>
		</g>
		<g>
			<path class="st0" d="M347.466,544.609c-1.024,0.473-3.033,0.985-5.436,0.985c-5.987,0-9.887-3.821-9.887-9.769
				c0-5.751,3.939-10.241,10.675-10.241c1.773,0,3.585,0.394,4.688,0.906l-0.867,3.624c-0.788-0.354-1.93-0.748-3.663-0.748
				c-3.703,0-5.909,2.718-5.869,6.224c0,3.939,2.56,6.184,5.869,6.184c1.694,0,2.875-0.355,3.821-0.749L347.466,544.609z"/>
		</g>
		<g>
			<path class="st0" d="M353.727,536.968c0.118,3.466,2.836,4.963,5.909,4.963c2.245,0,3.86-0.316,5.318-0.867l0.709,3.349
				c-1.654,0.67-3.939,1.182-6.696,1.182c-6.224,0-9.887-3.821-9.887-9.691c0-5.317,3.23-10.32,9.375-10.32
				c6.224,0,8.272,5.121,8.272,9.336c0,0.906-0.079,1.615-0.157,2.048C366.57,536.968,353.727,536.968,353.727,536.968z
				 M362.156,533.58c0.039-1.773-0.749-4.688-3.979-4.688c-2.994,0-4.254,2.718-4.451,4.688H362.156z"/>
		</g>
	</g>
</g>
</svg>
