<?xml version="1.0" encoding="utf-8"?>
<!-- Generator: Adobe Illustrator 20.0.0, SVG Export Plug-In . SVG Version: 6.00 Build 0)  -->
<svg version="1.1" id="Layer_1" xmlns="http://www.w3.org/2000/svg" xmlns:xlink="http://www.w3.org/1999/xlink" x="0px" y="0px"
	 width="1205px" height="200px" viewBox="0 0 1205 200" style="enable-background:new 0 0 1205 200;" xml:space="preserve">
<style type="text/css">
	.st0{fill:#2B2B2B;}
	.st1{opacity:0.25;fill:#3B3B3B;}
</style>
<g id="g1">
	<path class="st0" d="M909.532,40.909h-11.975c-4.75,0-8.614,3.864-8.614,8.614v117.531l8.352-8.352l6.739,6.737l6.738-6.737
		l6.738,6.737l6.739-6.737l6.738,6.737l6.738-6.737l6.739,6.737l6.738-6.737l6.738,6.737l6.739-6.737l8.497,8.496v-17.881h16.961
		l-0.001,0.009l1.274-0.009h0.999v-0.024l0.713-0.02v-0.126c3.993-0.796,6.901-4.278,6.901-8.442V32.801h-90.493V40.909z
		 M996.222,36.605v104.101c0,2.648-2.171,4.802-4.846,4.806c-2.636-0.02-4.775-2.166-4.775-4.806V49.523
		c0-4.411-3.334-8.053-7.613-8.551v-0.063h-65.652v-4.304H996.222z M970.285,45.689c-0.041,0.082-0.081,0.164-0.12,0.248
		c-0.157,0.34-0.298,0.689-0.41,1.051c-0.004,0.013-0.006,0.026-0.01,0.039c-0.105,0.347-0.183,0.706-0.244,1.07
		c-0.015,0.092-0.03,0.183-0.042,0.275c-0.051,0.378-0.086,0.76-0.086,1.151v99.795v8.699l-4.693-4.693l-6.739,6.738l-6.738-6.738
		l-6.738,6.738l-6.739-6.738l-6.738,6.738l-6.738-6.738l-6.739,6.738l-6.738-6.738l-6.738,6.738l-6.739-6.738l-4.549,4.549V49.523
		c0-2.652,2.158-4.811,4.811-4.811h73.287c-0.006,0.009-0.01,0.018-0.015,0.027C970.626,45.042,970.449,45.361,970.285,45.689z
		 M973.177,49.523c0-2.652,2.158-4.811,4.811-4.811s4.81,2.158,4.81,4.811v91.183c0,1.733,0.521,3.402,1.471,4.81h-11.091V49.523z"
		/>
	<path class="st0" d="M146.455,143.51c5.417,0,9.825-4.407,9.825-9.824V72.78c0-5.417-4.408-9.824-9.825-9.824H15.241
		c-5.417,0-9.825,4.407-9.825,9.824v60.905c0,5.417,4.408,9.824,9.825,9.824H146.455z M146.455,66.759
		c3.32,0,6.022,2.701,6.022,6.021v60.905c0,3.32-2.702,6.021-6.022,6.021h-15.44V66.759H146.455z M129.211,139.707H26.523V66.759
		h102.687V139.707z M24.72,139.707h-9.479c-3.32,0-6.022-2.701-6.022-6.021V72.78c0-3.32,2.702-6.021,6.022-6.021h9.479V139.707z"/>
	<path class="st0" d="M12.042,94.454v17.558c0,1.446,1.176,2.622,2.622,2.622h1.71c1.446,0,2.622-1.176,2.622-2.622V94.454
		c0-1.446-1.176-2.622-2.622-2.622h-1.71C13.219,91.832,12.042,93.008,12.042,94.454z M17.193,94.454v17.558
		c0,0.452-0.367,0.819-0.819,0.819h-1.71c-0.452,0-0.819-0.367-0.819-0.819V94.454c0-0.452,0.367-0.819,0.819-0.819h1.71
		C16.826,93.635,17.193,94.002,17.193,94.454z"/>
	<path class="st0" d="M142.861,109.379c3.633,0,6.588-2.955,6.588-6.587c0-3.633-2.955-6.588-6.588-6.588s-6.588,2.955-6.588,6.588
		C136.273,106.424,139.228,109.379,142.861,109.379z M142.861,98.007c2.638,0,4.784,2.147,4.784,4.785
		c0,2.638-2.146,4.784-4.784,4.784s-4.784-2.146-4.784-4.784C138.076,100.154,140.222,98.007,142.861,98.007z"/>
	<path class="st0" d="M49.067,122.245h6.259l-5.473,10.253c-0.672,1.259-0.348,2.743,0.788,3.609
		c0.524,0.399,1.13,0.597,1.732,0.597c0.702,0,1.399-0.269,1.957-0.799l14.379-13.66H96.27c2.001,0,3.628-1.627,3.628-3.628v-0.13
		l7.469,7.095c0.557,0.53,1.254,0.799,1.957,0.799c0.602,0,1.207-0.198,1.732-0.597c1.136-0.865,1.46-2.349,0.788-3.608
		l-5.473-10.253h6.259c2.001,0,3.628-1.627,3.628-3.628V79.863c0-2.001-1.627-3.628-3.628-3.628H65.426
		c-2.001,0-3.628,1.627-3.628,3.628v6.694H49.067c-2.001,0-3.628,1.627-3.628,3.628v28.433
		C45.439,120.618,47.066,122.245,49.067,122.245z M63.601,79.863c0-1.006,0.818-1.824,1.825-1.824h47.203
		c1.006,0,1.824,0.818,1.824,1.824v28.433c0,1.005-0.818,1.824-1.824,1.824h-9.266l6.889,12.905
		c0.309,0.579,0.053,1.064-0.289,1.324c-0.342,0.263-0.878,0.378-1.353-0.073l-8.712-8.276V90.184c0-2.001-1.628-3.628-3.628-3.628
		H63.601V79.863z M47.242,90.184c0-1.006,0.818-1.824,1.825-1.824H96.27c1.006,0,1.825,0.818,1.825,1.824v28.433
		c0,1.006-0.818,1.824-1.825,1.824H67.987l-14.901,14.156c-0.475,0.452-1.011,0.335-1.353,0.073
		c-0.343-0.261-0.598-0.745-0.289-1.324l6.889-12.905h-9.266c-1.006,0-1.825-0.819-1.825-1.824V90.184z"/>
	<path class="st0" d="M82.945,114.319c0-4.367-3.553-7.921-7.921-7.921h-0.828c2.96-0.694,5.174-3.35,5.174-6.519
		c0-3.695-3.006-6.701-6.701-6.701s-6.701,3.006-6.701,6.701c0,3.169,2.214,5.825,5.174,6.519h-0.829
		c-4.368,0-7.921,3.554-7.921,7.921v4.227h20.553V114.319z M67.771,99.879c0-2.7,2.197-4.897,4.898-4.897
		c2.701,0,4.898,2.197,4.898,4.897c0,2.701-2.197,4.898-4.898,4.898C69.968,104.777,67.771,102.58,67.771,99.879z M81.142,116.742
		H64.195v-2.423c0-3.373,2.745-6.118,6.118-6.118h4.71c3.373,0,6.118,2.745,6.118,6.118V116.742z"/>
	<path class="st0" d="M514.577,168.717l0.74,0.346l55.073-25.744c0.049-0.023,0.091-0.055,0.138-0.082
		c0.049-0.028,0.098-0.053,0.144-0.085c0.063-0.044,0.12-0.095,0.177-0.146c0.033-0.029,0.067-0.056,0.098-0.088
		c0.054-0.055,0.1-0.116,0.147-0.178c0.029-0.038,0.059-0.073,0.084-0.113c0.036-0.057,0.066-0.117,0.097-0.178
		c0.027-0.053,0.055-0.105,0.076-0.16c0.006-0.016,0.016-0.029,0.022-0.045c0.016-0.044,0.022-0.09,0.034-0.135
		c0.017-0.059,0.034-0.117,0.045-0.178c0.013-0.073,0.018-0.146,0.022-0.219c0.002-0.039,0.012-0.077,0.012-0.116v-23.24
		l19.849-9.278l-21.07-31.785l-0.679,0.317l-52.111-24.359l-19.824-29.906L439.897,50.34l19.287,29.094
		c-0.014,0.092-0.04,0.18-0.04,0.274c0,0.529,0.229,1.022,0.602,1.376v59.127c-0.171,0.16-0.318,0.353-0.422,0.578
		c-0.215,0.461-0.238,0.977-0.065,1.454c0.173,0.479,0.522,0.859,0.982,1.075l54.334,25.397
		C514.575,168.716,514.576,168.717,514.577,168.717z M496.291,28.176l16.68,25.161l-50.787,23.74l-16.679-25.16L496.291,28.176z
		 M552.345,85.669l-37.032,17.309l-49.477-23.129l48.179-22.519V97.21c0,1.049,0.853,1.901,1.901,1.901
		c1.049,0,1.902-0.853,1.902-1.901V57.609l47.276,22.099L552.345,85.669z M463.549,82.979l49.865,23.309v57.689l-49.865-23.31
		V82.979z M517.217,163.977v-52.591l16.365,24.688l34.102-15.94v20.252L517.217,163.977z M569,115.32
		c-0.167,0.055-0.327,0.124-0.471,0.22l-33.588,15.702l-16.821-25.376l2.498-1.168l48.288-22.572l16.82,25.375L569,115.32z"/>
	<path class="st0" d="M488.427,98.985c-0.498,0-0.902,0.403-0.902,0.902v47.098c0,0.498,0.404,0.902,0.902,0.902
		s0.902-0.403,0.902-0.902V99.886C489.328,99.388,488.925,98.985,488.427,98.985z"/>
	<path class="st0" d="M924.193,73.939c-0.498,0-0.902,0.403-0.902,0.902s0.404,0.902,0.902,0.902h5.549v2.377
		c0,0.498,0.404,0.902,0.902,0.902c0.498,0,0.902-0.403,0.902-0.902v-2.377h1.097c2.952,0,5.354-2.402,5.354-5.354
		c0-2.952-2.402-5.354-5.354-5.354h-1.097v-7.102h4.638c0.498,0,0.902-0.403,0.902-0.902s-0.404-0.902-0.902-0.902h-4.638v-1.693
		c0-0.499-0.404-0.902-0.902-0.902c-0.498,0-0.902,0.403-0.902,0.902v1.693h-0.957c-2.952,0-5.354,2.401-5.354,5.354
		s2.402,5.354,5.354,5.354h0.957v7.102H924.193z M928.786,65.035c-1.958,0-3.551-1.593-3.551-3.551c0-1.958,1.593-3.55,3.551-3.55
		h0.957v7.102H928.786z M931.546,66.838h1.097c1.958,0,3.551,1.593,3.551,3.55c0,1.958-1.593,3.551-3.551,3.551h-1.097V66.838z"/>
	<path class="st0" d="M894.481,85.219v26.474h71.411V85.219H894.481z M931.088,105.778v-2.309h15.599v2.309H931.088z
		 M946.687,107.581v2.309h-15.599v-2.309H946.687z M931.088,99.358h15.599v2.308h-15.599V99.358z M929.285,101.666h-33.001v-2.308
		h33.001V101.666z M948.49,99.358h15.598v2.308H948.49V99.358z M948.49,97.554v-2.309h15.598v2.309H948.49z M946.687,97.554h-15.599
		v-2.309h15.599V97.554z M929.285,97.554h-33.001v-2.309h33.001V97.554z M896.284,93.442v-2.309h33.001v2.309H896.284z
		 M896.284,103.469h33.001v2.309h-33.001V103.469z M948.49,103.469h15.598v2.309H948.49V103.469z M964.088,93.442H948.49v-2.309
		h15.598V93.442z M946.687,93.442h-15.599v-2.309h15.599V93.442z M931.088,89.33v-2.308h15.599v2.308H931.088z M929.285,87.022
		v2.308h-33.001v-2.308H929.285z M896.284,107.581h33.001v2.309h-33.001V107.581z M948.49,109.89v-2.309h15.598v2.309H948.49z
		 M964.088,89.33H948.49v-2.308h15.598V89.33z"/>
	<path class="st0" d="M964.99,116.165h-69.608c-0.498,0-0.902,0.403-0.902,0.902c0,0.498,0.404,0.902,0.902,0.902h69.608
		c0.498,0,0.902-0.403,0.902-0.902C965.891,116.568,965.488,116.165,964.99,116.165z"/>
	<path class="st0" d="M964.99,122.182h-69.608c-0.498,0-0.902,0.403-0.902,0.902c0,0.498,0.404,0.901,0.902,0.901h69.608
		c0.498,0,0.902-0.403,0.902-0.901C965.891,122.585,965.488,122.182,964.99,122.182z"/>
	<path class="st0" d="M964.99,127.319h-34.346c-0.498,0-0.902,0.403-0.902,0.902c0,0.498,0.404,0.902,0.902,0.902h34.346
		c0.498,0,0.902-0.403,0.902-0.902C965.891,127.722,965.488,127.319,964.99,127.319z"/>
	<path class="st0" d="M964.99,133.213h-19.533c-0.498,0-0.902,0.403-0.902,0.902c0,0.498,0.404,0.902,0.902,0.902h19.533
		c0.498,0,0.902-0.403,0.902-0.902C965.891,133.617,965.488,133.213,964.99,133.213z"/>
</g>
<g id="g2">
	<circle class="st1" cx="41.73" cy="84.22" r="37.73"/>
	<circle class="st1" cx="481.42" cy="87.509" r="37.73"/>
	<circle class="st1" cx="916.97" cy="88.491" r="37.73"/>
</g>
<g>
	<g>
		<path class="st0" d="M404.635,95.176c-0.835-0.837-2.293-0.839-3.132,0c-0.861,0.865-0.86,2.271,0.001,3.134l4.573,4.572h-23.75
			c-1.22,0-2.213,0.993-2.213,2.213c0,1.221,0.993,2.214,2.213,2.214h23.75l-4.573,4.571c-0.42,0.419-0.651,0.977-0.65,1.571
			c0.001,0.592,0.232,1.147,0.649,1.561c0.419,0.42,0.975,0.651,1.566,0.651c0.595,0,1.151-0.232,1.564-0.651l8.356-8.353
			c0.412-0.412,0.649-0.983,0.649-1.564c0-0.58-0.236-1.151-0.649-1.568L404.635,95.176z"/>
	</g>
	<g>
		<path class="st0" d="M836.635,95.176c-0.835-0.837-2.293-0.839-3.132,0c-0.861,0.865-0.86,2.271,0.001,3.134l4.573,4.572h-23.75
			c-1.221,0-2.213,0.993-2.213,2.213c0,1.221,0.993,2.214,2.213,2.214h23.75l-4.573,4.571c-0.42,0.419-0.651,0.977-0.65,1.571
			c0.001,0.592,0.232,1.147,0.649,1.561c0.419,0.42,0.975,0.651,1.566,0.651c0.595,0,1.151-0.232,1.564-0.651l8.356-8.353
			c0.412-0.412,0.649-0.983,0.649-1.564c0-0.58-0.236-1.151-0.649-1.568L836.635,95.176z"/>
	</g>
	<g>
		<path class="st0" d="M181.928,90.11c1.548,0.953,3.809,1.745,6.19,1.745c3.531,0,5.594-1.865,5.594-4.563
			c0-2.499-1.428-3.927-5.039-5.317c-4.364-1.548-7.063-3.809-7.063-7.578c0-4.167,3.452-7.263,8.65-7.263
			c2.738,0,4.722,0.636,5.912,1.31l-0.952,2.818c-0.873-0.477-2.658-1.27-5.079-1.27c-3.651,0-5.039,2.182-5.039,4.006
			c0,2.501,1.627,3.73,5.317,5.158c4.523,1.747,6.825,3.929,6.825,7.856c0,4.128-3.055,7.699-9.364,7.699
			c-2.579,0-5.396-0.756-6.825-1.706L181.928,90.11z"/>
	</g>
	<g>
		<path class="st0" d="M205.535,69.596v5.516h5v2.659h-5v10.355c0,2.381,0.675,3.73,2.619,3.73c0.912,0,1.587-0.118,2.023-0.238
			l0.158,2.619c-0.674,0.278-1.746,0.477-3.095,0.477c-1.627,0-2.936-0.516-3.77-1.469c-0.992-1.032-1.349-2.738-1.349-5V77.771
			h-2.976v-2.659h2.976v-4.603L205.535,69.596z"/>
	</g>
	<g>
		<path class="st0" d="M224.698,94.316l-0.278-2.42h-0.119c-1.071,1.507-3.134,2.856-5.872,2.856c-3.888,0-5.873-2.738-5.873-5.516
			c0-4.642,4.127-7.182,11.547-7.141v-0.398c0-1.587-0.437-4.443-4.365-4.443c-1.786,0-3.65,0.555-5,1.428l-0.793-2.302
			c1.587-1.032,3.888-1.706,6.309-1.706c5.872,0,7.301,4.008,7.301,7.856v7.183c0,1.666,0.079,3.293,0.317,4.602H224.698z
			 M224.182,84.516c-3.809-0.079-8.134,0.595-8.134,4.325c0,2.261,1.508,3.334,3.294,3.334c2.5,0,4.087-1.588,4.642-3.214
			c0.119-0.357,0.199-0.756,0.199-1.111V84.516z"/>
	</g>
	<g>
		<path class="st0" d="M232.79,81.103c0-2.261-0.04-4.205-0.158-5.991h3.055l0.119,3.77h0.159c0.873-2.58,2.976-4.207,5.317-4.207
			c0.397,0,0.674,0.041,0.992,0.12v3.293c-0.357-0.079-0.714-0.12-1.19-0.12c-2.46,0-4.206,1.865-4.682,4.484
			c-0.08,0.477-0.159,1.032-0.159,1.627v10.237h-3.452V81.103z"/>
	</g>
	<g>
		<path class="st0" d="M250.523,69.596v5.516h5v2.659h-5v10.355c0,2.381,0.674,3.73,2.619,3.73c0.913,0,1.587-0.118,2.023-0.238
			l0.159,2.619c-0.675,0.278-1.746,0.477-3.095,0.477c-1.627,0-2.937-0.516-3.77-1.469c-0.992-1.032-1.349-2.738-1.349-5V77.771
			h-2.976v-2.659h2.976v-4.603L250.523,69.596z"/>
	</g>
	<g>
		<path class="st0" d="M277.7,94.316l-0.278-2.42h-0.119c-1.071,1.507-3.134,2.856-5.872,2.856c-3.888,0-5.873-2.738-5.873-5.516
			c0-4.642,4.127-7.182,11.547-7.141v-0.398c0-1.587-0.437-4.443-4.365-4.443c-1.786,0-3.65,0.555-5,1.428l-0.793-2.302
			c1.587-1.032,3.888-1.706,6.309-1.706c5.872,0,7.301,4.008,7.301,7.856v7.183c0,1.666,0.079,3.293,0.317,4.602H277.7z
			 M277.184,84.516c-3.809-0.079-8.134,0.595-8.134,4.325c0,2.261,1.508,3.334,3.294,3.334c2.5,0,4.087-1.588,4.642-3.214
			c0.119-0.357,0.199-0.756,0.199-1.111V84.516z"/>
	</g>
	<g>
		<path class="st0" d="M182.023,112.981l3.77,10.794c0.635,1.745,1.151,3.332,1.548,4.919h0.119
			c0.436-1.587,0.992-3.173,1.627-4.919l3.729-10.794h3.651l-7.539,19.204h-3.333l-7.301-19.204H182.023z"/>
	</g>
	<g>
		<path class="st0" d="M203.248,107.586c0.04,1.19-0.833,2.143-2.222,2.143c-1.23,0-2.103-0.953-2.103-2.143
			c0-1.231,0.913-2.182,2.182-2.182C202.415,105.404,203.248,106.355,203.248,107.586z M199.36,132.186v-19.204h3.492v19.204H199.36
			z"/>
	</g>
	<g>
		<path class="st0" d="M224.833,104.014v23.213c0,1.706,0.04,3.651,0.159,4.959h-3.135l-0.158-3.332h-0.08
			c-1.071,2.141-3.413,3.769-6.547,3.769c-4.643,0-8.214-3.929-8.214-9.762c-0.04-6.387,3.928-10.316,8.61-10.316
			c2.936,0,4.92,1.389,5.793,2.937h0.079v-11.468H224.833z M221.341,120.799c0-0.437-0.04-1.032-0.158-1.469
			c-0.516-2.222-2.421-4.047-5.039-4.047c-3.611,0-5.753,3.173-5.753,7.419c0,3.888,1.905,7.102,5.674,7.102
			c2.341,0,4.484-1.546,5.119-4.165c0.119-0.477,0.158-0.953,0.158-1.509V120.799z"/>
	</g>
	<g>
		<path class="st0" d="M232.17,123.219c0.08,4.721,3.095,6.666,6.587,6.666c2.5,0,4.008-0.435,5.317-0.991l0.595,2.501
			c-1.23,0.555-3.333,1.19-6.389,1.19c-5.912,0-9.443-3.89-9.443-9.682c0-5.794,3.413-10.357,9.007-10.357
			c6.269,0,7.936,5.516,7.936,9.047c0,0.715-0.079,1.27-0.119,1.627H232.17z M242.408,120.72c0.04-2.222-0.913-5.674-4.841-5.674
			c-3.531,0-5.079,3.253-5.357,5.674H242.408z"/>
	</g>
	<g>
		<path class="st0" d="M267.085,122.426c0,7.102-4.92,10.197-9.563,10.197c-5.198,0-9.206-3.809-9.206-9.88
			c0-6.428,4.206-10.198,9.523-10.198C263.355,112.545,267.085,116.553,267.085,122.426z M251.848,122.623
			c0,4.207,2.421,7.381,5.833,7.381c3.333,0,5.833-3.135,5.833-7.46c0-3.253-1.627-7.381-5.754-7.381
			C253.633,115.163,251.848,118.973,251.848,122.623z"/>
	</g>
	<g>
		<path class="st0" d="M292.791,131.473c-0.913,0.475-2.936,1.111-5.515,1.111c-5.793,0-9.563-3.929-9.563-9.802
			c0-5.912,4.047-10.197,10.316-10.197c2.064,0,3.888,0.516,4.841,0.991l-0.794,2.698c-0.833-0.475-2.143-0.912-4.047-0.912
			c-4.404,0-6.785,3.254-6.785,7.261c0,4.445,2.857,7.182,6.666,7.182c1.984,0,3.293-0.516,4.285-0.951L292.791,131.473z"/>
	</g>
	<g>
		<path class="st0" d="M296.479,104.014h3.492v11.982h0.079c0.556-0.991,1.429-1.863,2.5-2.458c1.032-0.595,2.262-0.993,3.571-0.993
			c2.579,0,6.706,1.588,6.706,8.214v11.428h-3.492v-11.03c0-3.096-1.151-5.715-4.444-5.715c-2.262,0-4.047,1.587-4.682,3.492
			c-0.199,0.475-0.238,0.991-0.238,1.666v11.586h-3.492V104.014z"/>
	</g>
	<g>
		<path class="st0" d="M328.735,132.186l-0.278-2.42h-0.119c-1.071,1.507-3.135,2.856-5.872,2.856c-3.888,0-5.873-2.738-5.873-5.516
			c0-4.642,4.127-7.182,11.547-7.141v-0.398c0-1.587-0.437-4.443-4.365-4.443c-1.786,0-3.651,0.555-5,1.428l-0.793-2.302
			c1.587-1.032,3.888-1.706,6.309-1.706c5.872,0,7.301,4.008,7.301,7.856v7.183c0,1.666,0.079,3.293,0.317,4.602H328.735z
			 M328.219,122.386c-3.809-0.079-8.134,0.595-8.134,4.325c0,2.261,1.508,3.334,3.294,3.334c2.5,0,4.087-1.588,4.642-3.214
			c0.119-0.357,0.199-0.756,0.199-1.111V122.386z"/>
	</g>
	<g>
		<path class="st0" d="M340.874,107.466v5.516h5v2.659h-5v10.355c0,2.381,0.674,3.73,2.619,3.73c0.913,0,1.587-0.118,2.023-0.238
			l0.159,2.619c-0.675,0.278-1.746,0.477-3.095,0.477c-1.627,0-2.937-0.516-3.77-1.469c-0.992-1.032-1.349-2.738-1.349-5v-10.475
			h-2.976v-2.659h2.976v-4.603L340.874,107.466z"/>
	</g>
	<g>
		<path class="st0" d="M609.741,89.538c1.548,0.953,3.809,1.745,6.19,1.745c3.531,0,5.594-1.865,5.594-4.563
			c0-2.499-1.428-3.927-5.039-5.317c-4.364-1.548-7.063-3.809-7.063-7.578c0-4.167,3.452-7.263,8.65-7.263
			c2.738,0,4.722,0.636,5.912,1.31l-0.952,2.818c-0.873-0.477-2.658-1.27-5.079-1.27c-3.651,0-5.039,2.182-5.039,4.006
			c0,2.501,1.627,3.73,5.317,5.158c4.523,1.747,6.825,3.929,6.825,7.856c0,4.128-3.055,7.699-9.364,7.699
			c-2.579,0-5.396-0.755-6.825-1.706L609.741,89.538z"/>
	</g>
	<g>
		<path class="st0" d="M629.26,65.572h3.492v11.982h0.079c0.556-0.991,1.429-1.863,2.5-2.458c1.032-0.595,2.262-0.993,3.571-0.993
			c2.579,0,6.706,1.588,6.706,8.214v11.428h-3.492v-11.03c0-3.096-1.151-5.715-4.444-5.715c-2.262,0-4.047,1.587-4.682,3.492
			c-0.199,0.475-0.238,0.991-0.238,1.666v11.586h-3.492V65.572z"/>
	</g>
	<g>
		<path class="st0" d="M668.261,83.984c0,7.102-4.92,10.197-9.563,10.197c-5.198,0-9.206-3.809-9.206-9.88
			c0-6.428,4.206-10.198,9.523-10.198C664.531,74.103,668.261,78.111,668.261,83.984z M653.024,84.181
			c0,4.207,2.421,7.381,5.833,7.381c3.333,0,5.833-3.135,5.833-7.46c0-3.253-1.627-7.381-5.754-7.381
			C654.81,76.721,653.024,80.53,653.024,84.181z"/>
	</g>
	<g>
		<path class="st0" d="M673.377,74.539l2.539,9.762c0.555,2.141,1.071,4.126,1.428,6.111h0.119c0.437-1.944,1.072-4.008,1.706-6.072
			l3.135-9.8h2.936l2.976,9.603c0.714,2.3,1.27,4.325,1.706,6.269h0.119c0.317-1.944,0.833-3.969,1.468-6.231l2.738-9.642h3.452
			l-6.19,19.204h-3.174l-2.937-9.165c-0.674-2.143-1.23-4.049-1.706-6.31h-0.079c-0.476,2.302-1.072,4.285-1.746,6.349l-3.095,9.126
			h-3.174l-5.793-19.204H673.377z"/>
	</g>
	<g>
		<path class="st0" d="M724.874,88.506c0,1.985,0.04,3.73,0.159,5.237h-3.095l-0.198-3.135h-0.079
			c-0.913,1.548-2.937,3.571-6.349,3.571c-3.016,0-6.626-1.666-6.626-8.413V74.539h3.492v10.633c0,3.651,1.111,6.111,4.285,6.111
			c2.341,0,3.968-1.625,4.603-3.173c0.198-0.516,0.317-1.152,0.317-1.786V74.539h3.492V88.506z"/>
	</g>
	<g>
		<path class="st0" d="M729.791,90.172c1.032,0.674,2.857,1.389,4.603,1.389c2.539,0,3.73-1.27,3.73-2.856
			c0-1.668-0.992-2.58-3.571-3.533c-3.452-1.229-5.079-3.133-5.079-5.435c0-3.096,2.499-5.635,6.626-5.635
			c1.944,0,3.65,0.556,4.721,1.19l-0.873,2.539c-0.754-0.475-2.143-1.111-3.928-1.111c-2.063,0-3.214,1.19-3.214,2.619
			c0,1.588,1.151,2.302,3.651,3.254c3.333,1.27,5.039,2.936,5.039,5.794c0,3.372-2.619,5.753-7.182,5.753
			c-2.103,0-4.047-0.516-5.396-1.31L729.791,90.172z"/>
	</g>
	<g>
		<path class="st0" d="M609.017,112.409l4.206,11.348c0.437,1.27,0.913,2.777,1.23,3.929h0.08c0.357-1.152,0.754-2.619,1.23-4.008
			l3.809-11.269h3.69l-5.238,13.689c-2.499,6.588-4.206,9.961-6.586,12.023c-1.706,1.509-3.413,2.104-4.286,2.263l-0.873-2.937
			c0.873-0.276,2.023-0.833,3.055-1.706c0.952-0.754,2.143-2.103,2.936-3.888c0.159-0.356,0.278-0.634,0.278-0.833
			c0-0.197-0.079-0.475-0.238-0.912l-7.102-17.697H609.017z"/>
	</g>
	<g>
		<path class="st0" d="M643.019,121.854c0,7.102-4.92,10.197-9.563,10.197c-5.198,0-9.206-3.809-9.206-9.88
			c0-6.428,4.206-10.198,9.523-10.198C639.29,111.973,643.019,115.981,643.019,121.854z M627.783,122.051
			c0,4.207,2.42,7.381,5.833,7.381c3.333,0,5.833-3.135,5.833-7.46c0-3.253-1.627-7.381-5.753-7.381
			C629.568,114.591,627.783,118.401,627.783,122.051z"/>
	</g>
	<g>
		<path class="st0" d="M663.094,126.376c0,1.985,0.04,3.73,0.159,5.237h-3.095l-0.199-3.135h-0.079
			c-0.913,1.548-2.937,3.571-6.349,3.571c-3.016,0-6.626-1.666-6.626-8.413v-11.229h3.492v10.633c0,3.651,1.111,6.111,4.285,6.111
			c2.341,0,3.968-1.625,4.603-3.173c0.198-0.516,0.317-1.152,0.317-1.786v-11.785h3.492V126.376z"/>
	</g>
	<g>
		<path class="st0" d="M668.487,118.401c0-2.261-0.04-4.205-0.158-5.991h3.055l0.119,3.77h0.159c0.873-2.58,2.976-4.207,5.317-4.207
			c0.397,0,0.674,0.041,0.992,0.12v3.293c-0.357-0.079-0.714-0.12-1.19-0.12c-2.46,0-4.206,1.865-4.682,4.484
			c-0.08,0.477-0.159,1.032-0.159,1.627v10.237h-3.452V118.401z"/>
	</g>
	<g>
		<path class="st0" d="M692.965,107.013c0.04,1.19-0.833,2.143-2.222,2.143c-1.23,0-2.103-0.953-2.103-2.143
			c0-1.231,0.913-2.182,2.182-2.182C692.132,104.831,692.965,105.782,692.965,107.013z M689.076,131.614v-19.204h3.492v19.204
			H689.076z"/>
	</g>
	<g>
		<path class="st0" d="M702.169,106.894v5.516h5v2.659h-5v10.355c0,2.381,0.674,3.73,2.619,3.73c0.913,0,1.587-0.118,2.023-0.238
			l0.159,2.619c-0.675,0.278-1.746,0.477-3.095,0.477c-1.627,0-2.937-0.516-3.77-1.469c-0.992-1.032-1.349-2.738-1.349-5v-10.475
			h-2.976v-2.659h2.976v-4.603L702.169,106.894z"/>
	</g>
	<g>
		<path class="st0" d="M712.404,122.646c0.079,4.721,3.095,6.666,6.587,6.666c2.5,0,4.008-0.435,5.317-0.991l0.595,2.501
			c-1.23,0.555-3.333,1.19-6.388,1.19c-5.912,0-9.444-3.89-9.444-9.682c0-5.794,3.412-10.357,9.007-10.357
			c6.269,0,7.936,5.516,7.936,9.047c0,0.715-0.079,1.27-0.119,1.627H712.404z M722.641,120.147c0.04-2.222-0.912-5.674-4.841-5.674
			c-3.531,0-5.079,3.253-5.357,5.674H722.641z"/>
	</g>
	<g>
		<path class="st0" d="M729.939,117.608c0-1.985-0.04-3.612-0.159-5.199h3.055l0.159,3.096h0.119
			c1.072-1.826,2.857-3.533,6.031-3.533c2.619,0,4.603,1.588,5.436,3.85h0.079c0.595-1.072,1.349-1.905,2.143-2.501
			c1.151-0.872,2.421-1.349,4.246-1.349c2.539,0,6.309,1.668,6.309,8.333v11.308h-3.412v-10.871c0-3.691-1.349-5.912-4.166-5.912
			c-1.984,0-3.531,1.467-4.127,3.173c-0.159,0.475-0.278,1.111-0.278,1.745v11.864h-3.412v-11.507c0-3.055-1.349-5.276-4.008-5.276
			c-2.182,0-3.769,1.745-4.325,3.49c-0.199,0.516-0.278,1.111-0.278,1.706v11.586h-3.413V117.608z"/>
	</g>
	<g>
		<path class="st0" d="M762.154,128.042c1.032,0.674,2.857,1.389,4.603,1.389c2.539,0,3.73-1.27,3.73-2.856
			c0-1.668-0.992-2.58-3.571-3.533c-3.452-1.229-5.079-3.133-5.079-5.435c0-3.096,2.5-5.635,6.626-5.635
			c1.945,0,3.651,0.556,4.722,1.19l-0.873,2.539c-0.754-0.475-2.143-1.111-3.928-1.111c-2.063,0-3.214,1.19-3.214,2.619
			c0,1.588,1.151,2.302,3.651,3.254c3.333,1.27,5.039,2.936,5.039,5.794c0,3.372-2.619,5.753-7.182,5.753
			c-2.103,0-4.047-0.516-5.396-1.31L762.154,128.042z"/>
	</g>
	<path class="st0" d="M1048.587,103.638c-1.547,0.555-4.603,1.467-8.214,1.467c-4.047,0-7.38-1.03-9.999-3.531
		c-2.301-2.222-3.729-5.792-3.729-9.959c0.04-7.976,5.515-13.809,14.483-13.809c3.095,0,5.515,0.674,6.666,1.229l-0.833,2.818
		c-1.429-0.634-3.214-1.15-5.912-1.15c-6.508,0-10.753,4.047-10.753,10.753c0,6.785,4.087,10.792,10.317,10.792
		c2.262,0,3.809-0.317,4.603-0.713v-7.976h-5.436v-2.777h8.809V103.638z"/>
	<path class="st0" d="M1055.487,95.861c0.08,4.721,3.095,6.666,6.587,6.666c2.5,0,4.008-0.437,5.317-0.991l0.595,2.499
		c-1.23,0.556-3.333,1.19-6.389,1.19c-5.912,0-9.443-3.888-9.443-9.682c0-5.792,3.412-10.355,9.007-10.355
		c6.269,0,7.936,5.516,7.936,9.047c0,0.713-0.079,1.27-0.119,1.627H1055.487z M1065.724,93.36c0.04-2.222-0.913-5.674-4.841-5.674
		c-3.531,0-5.079,3.254-5.357,5.674H1065.724z"/>
	<path class="st0" d="M1077.228,80.108v5.516h5v2.657h-5v10.357c0,2.381,0.674,3.73,2.619,3.73c0.913,0,1.587-0.12,2.023-0.238
		l0.159,2.619c-0.675,0.276-1.746,0.475-3.095,0.475c-1.627,0-2.937-0.516-3.77-1.469c-0.992-1.03-1.349-2.737-1.349-5V88.281
		h-2.976v-2.657h2.976v-4.603L1077.228,80.108z"/>
	<path class="st0" d="M1104.404,104.828l-0.278-2.421h-0.119c-1.071,1.509-3.135,2.858-5.872,2.858
		c-3.888,0-5.873-2.738-5.873-5.516c0-4.642,4.127-7.182,11.547-7.143V92.21c0-1.587-0.437-4.445-4.365-4.445
		c-1.786,0-3.651,0.557-5,1.428l-0.793-2.3c1.587-1.032,3.888-1.706,6.309-1.706c5.872,0,7.301,4.006,7.301,7.856v7.182
		c0,1.666,0.079,3.293,0.317,4.603H1104.404z M1103.888,95.028c-3.809-0.081-8.134,0.595-8.134,4.323
		c0,2.263,1.508,3.334,3.294,3.334c2.5,0,4.087-1.587,4.642-3.214c0.119-0.357,0.198-0.754,0.198-1.111V95.028z"/>
	<path class="st0" d="M1120.509,91.893c0-2.46-0.079-4.445-0.159-6.269h3.134l0.159,3.293h0.079c1.429-2.342,3.69-3.73,6.825-3.73
		c4.642,0,8.134,3.927,8.134,9.76c0,6.905-4.206,10.318-8.729,10.318c-2.54,0-4.761-1.111-5.912-3.017h-0.079v10.436h-3.452V91.893z
		 M1123.961,97.011c0,0.516,0.079,0.991,0.158,1.428c0.635,2.421,2.738,4.087,5.238,4.087c3.69,0,5.833-3.015,5.833-7.419
		c0-3.85-2.024-7.143-5.714-7.143c-2.38,0-4.603,1.706-5.277,4.325c-0.119,0.437-0.238,0.953-0.238,1.428V97.011z"/>
	<path class="st0" d="M1142.686,91.615c0-2.261-0.04-4.205-0.158-5.991h3.055l0.119,3.769h0.158
		c0.873-2.578,2.976-4.205,5.317-4.205c0.397,0,0.674,0.039,0.992,0.118v3.293c-0.357-0.079-0.714-0.118-1.191-0.118
		c-2.46,0-4.206,1.865-4.682,4.484c-0.08,0.475-0.159,1.032-0.159,1.627v10.237h-3.452V91.615z"/>
	<path class="st0" d="M1159.309,80.226c0.04,1.19-0.833,2.143-2.222,2.143c-1.23,0-2.103-0.953-2.103-2.143
		c0-1.229,0.913-2.182,2.182-2.182C1158.476,78.044,1159.309,78.997,1159.309,80.226z M1155.42,104.828V85.624h3.492v19.204H1155.42
		z"/>
	<path class="st0" d="M1177.996,104.113c-0.913,0.477-2.936,1.111-5.515,1.111c-5.793,0-9.563-3.929-9.563-9.8
		c0-5.912,4.047-10.198,10.316-10.198c2.063,0,3.888,0.516,4.841,0.993l-0.794,2.698c-0.833-0.477-2.143-0.912-4.047-0.912
		c-4.404,0-6.785,3.253-6.785,7.261c0,4.443,2.857,7.182,6.666,7.182c1.984,0,3.293-0.516,4.285-0.953L1177.996,104.113z"/>
	<path class="st0" d="M1183.39,95.861c0.079,4.721,3.095,6.666,6.587,6.666c2.5,0,4.008-0.437,5.317-0.991l0.595,2.499
		c-1.23,0.556-3.333,1.19-6.388,1.19c-5.912,0-9.444-3.888-9.444-9.682c0-5.792,3.412-10.355,9.007-10.355
		c6.269,0,7.936,5.516,7.936,9.047c0,0.713-0.079,1.27-0.119,1.627H1183.39z M1193.627,93.36c0.04-2.222-0.912-5.674-4.841-5.674
		c-3.531,0-5.079,3.254-5.357,5.674H1193.627z"/>
</g>
</svg>
