<?xml version="1.0" encoding="utf-8"?>
<!-- Generator: Adobe Illustrator 20.0.0, SVG Export Plug-In . SVG Version: 6.00 Build 0)  -->
<svg version="1.1" id="Layer_1" xmlns="http://www.w3.org/2000/svg" xmlns:xlink="http://www.w3.org/1999/xlink" x="0px" y="0px"
	 width="175.065px" height="896.002px" viewBox="0 0 175.065 896.002" style="enable-background:new 0 0 175.065 896.002;"
	 xml:space="preserve">
<style type="text/css">
	.st0{fill:#EAC452;}
	.st1{fill:#70D0F6;}
	.st2{fill:#DC594C;}
	.st3{fill:#2B2B2B;}
	.st4{fill-rule:evenodd;clip-rule:evenodd;fill:#2B2B2B;}
	.st5{opacity:0.25;fill:#3B3B3B;}
	.st6{opacity:0.3;}
	.st7{fill:#231F20;}
	.st8{fill:#FFFFFF;}
	.st9{fill:#E2EAED;}
	.st10{fill:#3E516A;}
	.st11{fill:#2B3D51;}
	.st12{fill:#BCBEC0;}
	.st13{fill:#0A2847;}
	.st14{fill:#A0A4A7;}
	.st15{fill:#797D82;}
	.st16{fill:#E0DADB;}
	.st17{opacity:0.2;}
	.st18{fill:#F15D4E;}
	.st19{fill:#2F4955;}
	.st20{fill:#021A36;}
	.st21{fill:#F04836;}
	.st22{fill:#011F3A;}
	.st23{fill:#939598;}
	.st24{fill:#6D6E71;}
	.st25{fill:#58595B;}
	.st26{clip-path:url(#SVGID_2_);fill:#FFFFFF;}
	.st27{clip-path:url(#SVGID_2_);fill:#FEFEFE;}
	.st28{clip-path:url(#SVGID_2_);fill:#FDFDFD;}
	.st29{clip-path:url(#SVGID_2_);fill:#FCFCFC;}
	.st30{clip-path:url(#SVGID_2_);fill:#FBFBFB;}
	.st31{clip-path:url(#SVGID_2_);fill:#FAFAFA;}
	.st32{clip-path:url(#SVGID_2_);fill:#F9F9F9;}
	.st33{clip-path:url(#SVGID_2_);fill:#F8F8F8;}
	.st34{clip-path:url(#SVGID_2_);fill:#F7F7F7;}
	.st35{clip-path:url(#SVGID_2_);fill:#F6F6F6;}
	.st36{clip-path:url(#SVGID_2_);fill:#F5F5F5;}
	.st37{clip-path:url(#SVGID_2_);fill:#F4F4F4;}
	.st38{clip-path:url(#SVGID_2_);fill:#F3F3F3;}
	.st39{clip-path:url(#SVGID_2_);fill:#F2F2F2;}
	.st40{clip-path:url(#SVGID_2_);fill:#F1F1F1;}
	.st41{clip-path:url(#SVGID_2_);fill:#F0F0F0;}
	.st42{clip-path:url(#SVGID_2_);fill:#EFEFEF;}
	.st43{clip-path:url(#SVGID_2_);fill:#EEEEEE;}
	.st44{clip-path:url(#SVGID_2_);fill:#EDEDED;}
	.st45{clip-path:url(#SVGID_2_);fill:#ECECEC;}
	.st46{clip-path:url(#SVGID_2_);fill:#EBEBEB;}
	.st47{clip-path:url(#SVGID_2_);fill:#EAEAEA;}
	.st48{clip-path:url(#SVGID_2_);fill:#E9E9E9;}
	.st49{clip-path:url(#SVGID_2_);fill:#E8E8E8;}
	.st50{clip-path:url(#SVGID_2_);fill:#E7E7E7;}
	.st51{clip-path:url(#SVGID_2_);fill:#E6E6E6;}
	.st52{clip-path:url(#SVGID_2_);fill:#E5E5E5;}
	.st53{clip-path:url(#SVGID_2_);fill:#E4E4E4;}
	.st54{clip-path:url(#SVGID_2_);fill:#E3E3E3;}
	.st55{clip-path:url(#SVGID_2_);fill:#E2E2E2;}
	.st56{clip-path:url(#SVGID_2_);fill:#E1E1E1;}
	.st57{clip-path:url(#SVGID_2_);fill:#E0E0E0;}
	.st58{clip-path:url(#SVGID_2_);fill:#DFDFDF;}
	.st59{clip-path:url(#SVGID_2_);fill:#DEDEDE;}
	.st60{clip-path:url(#SVGID_2_);fill:#DDDDDD;}
	.st61{clip-path:url(#SVGID_2_);fill:#DCDCDC;}
	.st62{clip-path:url(#SVGID_2_);fill:#DBDBDB;}
	.st63{clip-path:url(#SVGID_2_);fill:#DADADA;}
	.st64{clip-path:url(#SVGID_2_);fill:#D9D9D9;}
	.st65{clip-path:url(#SVGID_2_);fill:#D8D8D9;}
	.st66{clip-path:url(#SVGID_2_);fill:#D7D7D8;}
	.st67{clip-path:url(#SVGID_2_);fill:#D6D6D7;}
	.st68{clip-path:url(#SVGID_2_);fill:#D5D5D6;}
	.st69{clip-path:url(#SVGID_2_);fill:#D4D4D5;}
	.st70{clip-path:url(#SVGID_2_);fill:#D3D3D4;}
	.st71{clip-path:url(#SVGID_2_);fill:#D2D2D3;}
	.st72{clip-path:url(#SVGID_2_);fill:#D1D1D2;}
	.st73{clip-path:url(#SVGID_2_);fill:#D0D0D1;}
	.st74{clip-path:url(#SVGID_2_);fill:#CFCFD0;}
	.st75{clip-path:url(#SVGID_2_);fill:#CECECF;}
	.st76{clip-path:url(#SVGID_2_);fill:#CDCDCE;}
	.st77{clip-path:url(#SVGID_2_);fill:#CCCCCD;}
	.st78{clip-path:url(#SVGID_2_);fill:#CBCBCC;}
	.st79{clip-path:url(#SVGID_2_);fill:#CACACB;}
	.st80{clip-path:url(#SVGID_2_);fill:#C9C9CA;}
	.st81{clip-path:url(#SVGID_2_);fill:#C8C8C9;}
	.st82{clip-path:url(#SVGID_2_);fill:#C7C7C8;}
	.st83{clip-path:url(#SVGID_2_);fill:#C6C6C7;}
	.st84{clip-path:url(#SVGID_2_);fill:#C5C5C6;}
	.st85{clip-path:url(#SVGID_2_);fill:#C4C4C5;}
	.st86{clip-path:url(#SVGID_2_);fill:#C3C3C4;}
	.st87{clip-path:url(#SVGID_2_);fill:#C2C2C3;}
	.st88{clip-path:url(#SVGID_2_);fill:#C1C1C2;}
	.st89{clip-path:url(#SVGID_2_);fill:#C0C0C1;}
	.st90{clip-path:url(#SVGID_2_);fill:#BFBFC0;}
	.st91{clip-path:url(#SVGID_2_);fill:#BEBEBF;}
	.st92{clip-path:url(#SVGID_2_);fill:#BDBDBE;}
	.st93{clip-path:url(#SVGID_2_);fill:#BCBCBD;}
	.st94{clip-path:url(#SVGID_2_);fill:#BBBBBC;}
	.st95{clip-path:url(#SVGID_2_);fill:#BABABB;}
	.st96{clip-path:url(#SVGID_2_);fill:#B9B9BA;}
	.st97{clip-path:url(#SVGID_2_);fill:#B8B8B9;}
	.st98{clip-path:url(#SVGID_2_);fill:#B7B7B8;}
	.st99{clip-path:url(#SVGID_2_);fill:#B6B6B7;}
	.st100{clip-path:url(#SVGID_2_);fill:#B5B5B6;}
	.st101{clip-path:url(#SVGID_2_);fill:#B4B4B5;}
	.st102{clip-path:url(#SVGID_2_);fill:#B3B3B4;}
	.st103{clip-path:url(#SVGID_2_);fill:#B2B2B3;}
	.st104{clip-path:url(#SVGID_2_);fill:#B0B1B2;}
	.st105{clip-path:url(#SVGID_2_);fill:#AFB0B1;}
	.st106{clip-path:url(#SVGID_2_);fill:#AEAFB0;}
	.st107{clip-path:url(#SVGID_2_);fill:#ADAEAF;}
	.st108{clip-path:url(#SVGID_2_);fill:#ACADAE;}
	.st109{clip-path:url(#SVGID_2_);fill:#ABACAD;}
	.st110{clip-path:url(#SVGID_2_);fill:#AAABAC;}
	.st111{clip-path:url(#SVGID_2_);fill:#A9AAAB;}
	.st112{clip-path:url(#SVGID_2_);fill:#A8A9AA;}
	.st113{clip-path:url(#SVGID_2_);fill:#A7A8A9;}
	.st114{clip-path:url(#SVGID_2_);fill:#A6A7A8;}
	.st115{clip-path:url(#SVGID_2_);fill:#A5A6A7;}
	.st116{clip-path:url(#SVGID_2_);fill:#A4A5A6;}
	.st117{clip-path:url(#SVGID_2_);fill:#A3A4A5;}
	.st118{clip-path:url(#SVGID_2_);fill:#A2A3A4;}
	.st119{clip-path:url(#SVGID_2_);fill:#A1A2A3;}
	.st120{clip-path:url(#SVGID_2_);fill:#A0A1A2;}
	.st121{clip-path:url(#SVGID_2_);fill:#9FA0A1;}
	.st122{clip-path:url(#SVGID_2_);fill:#9E9FA0;}
	.st123{clip-path:url(#SVGID_2_);fill:#9D9E9F;}
	.st124{clip-path:url(#SVGID_2_);fill:#9C9D9E;}
	.st125{clip-path:url(#SVGID_2_);fill:#9B9C9D;}
	.st126{clip-path:url(#SVGID_2_);fill:#9A9B9C;}
	.st127{clip-path:url(#SVGID_2_);fill:#999A9B;}
	.st128{clip-path:url(#SVGID_2_);fill:#98999A;}
	.st129{clip-path:url(#SVGID_2_);fill:#979899;}
	.st130{clip-path:url(#SVGID_2_);fill:#969798;}
	.st131{clip-path:url(#SVGID_2_);fill:#959697;}
	.st132{clip-path:url(#SVGID_2_);fill:#949596;}
	.st133{clip-path:url(#SVGID_2_);fill:#939495;}
	.st134{clip-path:url(#SVGID_2_);fill:#929394;}
	.st135{clip-path:url(#SVGID_2_);fill:#919293;}
	.st136{clip-path:url(#SVGID_2_);fill:#909192;}
	.st137{clip-path:url(#SVGID_2_);fill:#8F9091;}
	.st138{clip-path:url(#SVGID_2_);fill:#8E8F90;}
	.st139{clip-path:url(#SVGID_2_);fill:#8D8E8F;}
	.st140{clip-path:url(#SVGID_2_);fill:#8C8D8E;}
	.st141{clip-path:url(#SVGID_2_);fill:#8B8C8D;}
	.st142{clip-path:url(#SVGID_2_);fill:#8A8B8C;}
	.st143{clip-path:url(#SVGID_2_);fill:#898A8C;}
	.st144{clip-path:url(#SVGID_2_);fill:#88898B;}
	.st145{clip-path:url(#SVGID_2_);fill:#87888A;}
	.st146{clip-path:url(#SVGID_2_);fill:#868789;}
	.st147{clip-path:url(#SVGID_2_);fill:#858688;}
	.st148{clip-path:url(#SVGID_2_);fill:#848587;}
	.st149{clip-path:url(#SVGID_2_);fill:#838486;}
	.st150{clip-path:url(#SVGID_2_);fill:#828385;}
	.st151{clip-path:url(#SVGID_2_);fill:#818284;}
	.st152{clip-path:url(#SVGID_2_);fill:#808183;}
	.st153{clip-path:url(#SVGID_2_);fill:#7F8082;}
	.st154{clip-path:url(#SVGID_2_);fill:#7E7F81;}
	.st155{clip-path:url(#SVGID_2_);fill:#7D7E80;}
	.st156{clip-path:url(#SVGID_2_);fill:#7C7D7F;}
	.st157{clip-path:url(#SVGID_2_);fill:#7B7C7E;}
	.st158{clip-path:url(#SVGID_2_);fill:#7A7B7D;}
	.st159{clip-path:url(#SVGID_2_);fill:#797A7C;}
	.st160{clip-path:url(#SVGID_2_);fill:#78797B;}
	.st161{clip-path:url(#SVGID_2_);fill:#77787A;}
	.st162{clip-path:url(#SVGID_2_);fill:#767779;}
	.st163{clip-path:url(#SVGID_2_);fill:#757678;}
	.st164{clip-path:url(#SVGID_2_);fill:#747577;}
	.st165{clip-path:url(#SVGID_2_);fill:#737476;}
	.st166{clip-path:url(#SVGID_2_);fill:#727375;}
	.st167{clip-path:url(#SVGID_2_);fill:#717274;}
	.st168{clip-path:url(#SVGID_2_);fill:#707173;}
	.st169{clip-path:url(#SVGID_2_);fill:#6F7072;}
	.st170{clip-path:url(#SVGID_2_);fill:#6E6F71;}
	.st171{clip-path:url(#SVGID_2_);fill:#6D6E70;}
	.st172{clip-path:url(#SVGID_2_);fill:#6C6D6F;}
	.st173{clip-path:url(#SVGID_2_);fill:#6B6C6E;}
	.st174{clip-path:url(#SVGID_2_);fill:#6A6B6D;}
	.st175{clip-path:url(#SVGID_2_);fill:#696A6C;}
	.st176{clip-path:url(#SVGID_2_);fill:#68696B;}
	.st177{clip-path:url(#SVGID_2_);fill:#67686A;}
	.st178{clip-path:url(#SVGID_2_);fill:#666769;}
	.st179{clip-path:url(#SVGID_2_);fill:#656668;}
	.st180{clip-path:url(#SVGID_2_);fill:#646567;}
	.st181{clip-path:url(#SVGID_2_);fill:#636466;}
	.st182{clip-path:url(#SVGID_4_);}
	.st183{fill:#0A1820;}
	.st184{opacity:0.5;}
	.st185{fill:#E2E2E2;}
	.st186{fill:#010101;}
	.st187{opacity:0.37;fill:url(#SVGID_5_);}
	.st188{opacity:0.37;fill:url(#SVGID_6_);}
	.st189{opacity:0.37;fill:url(#SVGID_7_);}
	.st190{opacity:0.37;fill:url(#SVGID_8_);}
	.st191{opacity:0.37;fill:url(#SVGID_9_);}
	.st192{opacity:0.37;fill:url(#SVGID_10_);}
	.st193{fill:#DDEFF8;}
	.st194{fill:#37414B;}
	.st195{opacity:0.2;fill:#231F20;}
	.st196{fill:#EFEFEF;}
	.st197{fill:#1D396A;}
	.st198{fill:#D5DBDB;}
	.st199{fill:#DDEFF8;stroke:#1D396A;stroke-width:2;stroke-miterlimit:10;}
	.st200{fill:#44C5E1;stroke:#1D396A;stroke-width:2;stroke-miterlimit:10;}
	.st201{fill:#44C5E1;stroke:#1D396A;stroke-width:2;stroke-linecap:round;stroke-miterlimit:10;}
	.st202{fill:url(#SVGID_11_);}
	.st203{fill:#44C5E1;}
	.st204{fill:#FFFFFF;stroke:#1D396A;stroke-width:2;stroke-linecap:round;stroke-miterlimit:10;}
	.st205{fill:#D2D8D6;}
	.st206{fill:#EBF0F3;}
	.st207{fill:#F1F2F2;stroke:#1D396A;stroke-width:2;stroke-miterlimit:10;}
	.st208{fill:#F1F2F2;}
	.st209{fill:#FFFFFD;}
	.st210{fill:#D1D3D4;stroke:#1D396A;stroke-width:2;stroke-miterlimit:10;}
	.st211{fill:#D3CE24;stroke:#1D396A;stroke-width:2;stroke-miterlimit:10;}
	.st212{fill:#79B3D5;}
	.st213{fill:#26B898;}
	.st214{clip-path:url(#SVGID_13_);fill:#FFFFFF;}
	.st215{clip-path:url(#SVGID_13_);fill:#FEFEFE;}
	.st216{clip-path:url(#SVGID_13_);fill:#FCFCFC;}
	.st217{clip-path:url(#SVGID_13_);fill:#FBFBFB;}
	.st218{clip-path:url(#SVGID_13_);fill:#FAFAFA;}
	.st219{clip-path:url(#SVGID_13_);fill:#F9F9F9;}
	.st220{clip-path:url(#SVGID_13_);fill:#F8F8F8;}
	.st221{clip-path:url(#SVGID_13_);fill:#F7F7F7;}
	.st222{clip-path:url(#SVGID_13_);fill:#F6F6F6;}
	.st223{clip-path:url(#SVGID_13_);fill:#F5F5F5;}
	.st224{clip-path:url(#SVGID_13_);fill:#F4F4F4;}
	.st225{clip-path:url(#SVGID_13_);fill:#F3F3F3;}
	.st226{clip-path:url(#SVGID_13_);fill:#F2F2F2;}
	.st227{clip-path:url(#SVGID_13_);fill:#F1F1F1;}
	.st228{clip-path:url(#SVGID_13_);fill:#F0F0F0;}
	.st229{clip-path:url(#SVGID_13_);fill:#EFEFEF;}
	.st230{clip-path:url(#SVGID_13_);fill:#EEEEEE;}
	.st231{clip-path:url(#SVGID_13_);fill:#EDEDED;}
	.st232{clip-path:url(#SVGID_13_);fill:#ECECEC;}
	.st233{clip-path:url(#SVGID_13_);fill:#EBEBEB;}
	.st234{clip-path:url(#SVGID_13_);fill:#EAEAEA;}
	.st235{clip-path:url(#SVGID_13_);fill:#E9E9E9;}
	.st236{clip-path:url(#SVGID_13_);fill:#E8E8E8;}
	.st237{clip-path:url(#SVGID_13_);fill:#E7E7E7;}
	.st238{clip-path:url(#SVGID_13_);fill:#E6E6E6;}
	.st239{clip-path:url(#SVGID_13_);fill:#E5E5E5;}
	.st240{clip-path:url(#SVGID_13_);fill:#E4E4E4;}
	.st241{clip-path:url(#SVGID_13_);fill:#E3E3E3;}
	.st242{clip-path:url(#SVGID_13_);fill:#E2E2E2;}
	.st243{clip-path:url(#SVGID_13_);fill:#E1E1E1;}
	.st244{clip-path:url(#SVGID_13_);fill:#E0E0E0;}
	.st245{clip-path:url(#SVGID_13_);fill:#DFDFDF;}
	.st246{clip-path:url(#SVGID_13_);fill:#DEDEDE;}
	.st247{clip-path:url(#SVGID_13_);fill:#DDDDDD;}
	.st248{clip-path:url(#SVGID_13_);fill:#DCDCDC;}
	.st249{clip-path:url(#SVGID_13_);fill:#DBDBDB;}
	.st250{clip-path:url(#SVGID_13_);fill:#DADADA;}
	.st251{clip-path:url(#SVGID_13_);fill:#D9D9D9;}
	.st252{clip-path:url(#SVGID_13_);fill:#D8D8D8;}
	.st253{clip-path:url(#SVGID_13_);fill:#D7D7D7;}
	.st254{clip-path:url(#SVGID_13_);fill:#D6D6D6;}
	.st255{clip-path:url(#SVGID_13_);fill:#D5D5D5;}
	.st256{clip-path:url(#SVGID_13_);fill:#D4D4D5;}
	.st257{clip-path:url(#SVGID_13_);fill:#D3D3D4;}
	.st258{clip-path:url(#SVGID_13_);fill:#D2D2D3;}
	.st259{clip-path:url(#SVGID_13_);fill:#D1D1D2;}
	.st260{clip-path:url(#SVGID_13_);fill:#D0D0D1;}
	.st261{clip-path:url(#SVGID_13_);fill:#CFCFD0;}
	.st262{clip-path:url(#SVGID_13_);fill:#CECECF;}
	.st263{clip-path:url(#SVGID_13_);fill:#CDCDCE;}
	.st264{clip-path:url(#SVGID_13_);fill:#CCCCCD;}
	.st265{clip-path:url(#SVGID_13_);fill:#CBCBCC;}
	.st266{clip-path:url(#SVGID_13_);fill:#CACACB;}
	.st267{clip-path:url(#SVGID_13_);fill:#C9C9CA;}
	.st268{clip-path:url(#SVGID_13_);fill:#C8C8C9;}
	.st269{clip-path:url(#SVGID_13_);fill:#C7C7C8;}
	.st270{clip-path:url(#SVGID_13_);fill:#C6C6C7;}
	.st271{clip-path:url(#SVGID_13_);fill:#C5C5C6;}
	.st272{clip-path:url(#SVGID_13_);fill:#C4C4C5;}
	.st273{clip-path:url(#SVGID_13_);fill:#C3C3C4;}
	.st274{clip-path:url(#SVGID_13_);fill:#C2C2C3;}
	.st275{clip-path:url(#SVGID_13_);fill:#C1C1C2;}
	.st276{clip-path:url(#SVGID_13_);fill:#C0C0C1;}
	.st277{clip-path:url(#SVGID_13_);fill:#BFBFC0;}
	.st278{clip-path:url(#SVGID_13_);fill:#BEBEBF;}
	.st279{clip-path:url(#SVGID_13_);fill:#BDBDBE;}
	.st280{clip-path:url(#SVGID_13_);fill:#BCBCBD;}
	.st281{clip-path:url(#SVGID_13_);fill:#BBBBBC;}
	.st282{clip-path:url(#SVGID_13_);fill:#BABABB;}
	.st283{clip-path:url(#SVGID_13_);fill:#B9B9BA;}
	.st284{clip-path:url(#SVGID_13_);fill:#B8B8B9;}
	.st285{clip-path:url(#SVGID_13_);fill:#B7B7B8;}
	.st286{clip-path:url(#SVGID_13_);fill:#B6B6B7;}
	.st287{clip-path:url(#SVGID_13_);fill:#B5B5B6;}
	.st288{clip-path:url(#SVGID_13_);fill:#B4B4B5;}
	.st289{clip-path:url(#SVGID_13_);fill:#B3B3B4;}
	.st290{clip-path:url(#SVGID_13_);fill:#B2B2B3;}
	.st291{clip-path:url(#SVGID_13_);fill:#B1B1B2;}
	.st292{clip-path:url(#SVGID_13_);fill:#B0B0B1;}
	.st293{clip-path:url(#SVGID_13_);fill:#AFAFB0;}
	.st294{clip-path:url(#SVGID_13_);fill:#ADAEAF;}
	.st295{clip-path:url(#SVGID_13_);fill:#ACADAE;}
	.st296{clip-path:url(#SVGID_13_);fill:#ABACAD;}
	.st297{clip-path:url(#SVGID_13_);fill:#AAABAC;}
	.st298{clip-path:url(#SVGID_13_);fill:#A9AAAB;}
	.st299{clip-path:url(#SVGID_13_);fill:#A8A9AA;}
	.st300{clip-path:url(#SVGID_13_);fill:#A7A8A9;}
	.st301{clip-path:url(#SVGID_13_);fill:#A6A7A8;}
	.st302{clip-path:url(#SVGID_13_);fill:#A5A6A7;}
	.st303{clip-path:url(#SVGID_13_);fill:#A4A5A6;}
	.st304{clip-path:url(#SVGID_13_);fill:#A3A4A5;}
	.st305{clip-path:url(#SVGID_13_);fill:#A2A3A4;}
	.st306{clip-path:url(#SVGID_13_);fill:#A1A2A3;}
	.st307{clip-path:url(#SVGID_13_);fill:#A0A1A2;}
	.st308{clip-path:url(#SVGID_13_);fill:#9FA0A1;}
	.st309{clip-path:url(#SVGID_13_);fill:#9E9FA0;}
	.st310{clip-path:url(#SVGID_13_);fill:#9D9E9F;}
	.st311{clip-path:url(#SVGID_13_);fill:#9C9D9E;}
	.st312{clip-path:url(#SVGID_13_);fill:#9B9C9D;}
	.st313{clip-path:url(#SVGID_13_);fill:#9A9B9C;}
	.st314{clip-path:url(#SVGID_13_);fill:#999A9B;}
	.st315{clip-path:url(#SVGID_13_);fill:#98999A;}
	.st316{clip-path:url(#SVGID_13_);fill:#979899;}
	.st317{clip-path:url(#SVGID_13_);fill:#969798;}
	.st318{clip-path:url(#SVGID_13_);fill:#959697;}
	.st319{clip-path:url(#SVGID_13_);fill:#949596;}
	.st320{clip-path:url(#SVGID_13_);fill:#939495;}
	.st321{clip-path:url(#SVGID_13_);fill:#929394;}
	.st322{clip-path:url(#SVGID_13_);fill:#919293;}
	.st323{clip-path:url(#SVGID_13_);fill:#909192;}
	.st324{clip-path:url(#SVGID_13_);fill:#8F9091;}
	.st325{clip-path:url(#SVGID_13_);fill:#8E8F90;}
	.st326{clip-path:url(#SVGID_13_);fill:#8D8E8F;}
	.st327{clip-path:url(#SVGID_13_);fill:#8C8D8E;}
	.st328{clip-path:url(#SVGID_13_);fill:#8B8C8D;}
	.st329{clip-path:url(#SVGID_13_);fill:#8A8B8C;}
	.st330{clip-path:url(#SVGID_13_);fill:#898A8B;}
	.st331{clip-path:url(#SVGID_13_);fill:#88898B;}
	.st332{clip-path:url(#SVGID_13_);fill:#87888A;}
	.st333{clip-path:url(#SVGID_13_);fill:#868789;}
	.st334{clip-path:url(#SVGID_13_);fill:#858688;}
	.st335{clip-path:url(#SVGID_13_);fill:#848587;}
	.st336{clip-path:url(#SVGID_13_);fill:#838486;}
	.st337{clip-path:url(#SVGID_13_);fill:#828385;}
	.st338{clip-path:url(#SVGID_13_);fill:#818284;}
	.st339{clip-path:url(#SVGID_13_);fill:#808183;}
	.st340{clip-path:url(#SVGID_13_);fill:#7F8082;}
	.st341{clip-path:url(#SVGID_13_);fill:#7E7F81;}
	.st342{clip-path:url(#SVGID_13_);fill:#7D7E80;}
	.st343{clip-path:url(#SVGID_13_);fill:#7C7D7F;}
	.st344{clip-path:url(#SVGID_13_);fill:#7B7C7E;}
	.st345{clip-path:url(#SVGID_13_);fill:#7A7B7D;}
	.st346{clip-path:url(#SVGID_13_);fill:#797A7C;}
	.st347{clip-path:url(#SVGID_13_);fill:#78797B;}
	.st348{clip-path:url(#SVGID_13_);fill:#77787A;}
	.st349{clip-path:url(#SVGID_13_);fill:#767779;}
	.st350{clip-path:url(#SVGID_13_);fill:#757678;}
	.st351{clip-path:url(#SVGID_13_);fill:#747577;}
	.st352{clip-path:url(#SVGID_13_);fill:#737476;}
	.st353{clip-path:url(#SVGID_13_);fill:#727375;}
	.st354{clip-path:url(#SVGID_13_);fill:#717274;}
	.st355{clip-path:url(#SVGID_13_);fill:#707173;}
	.st356{clip-path:url(#SVGID_13_);fill:#6F7072;}
	.st357{clip-path:url(#SVGID_13_);fill:#6E6F71;}
	.st358{clip-path:url(#SVGID_13_);fill:#6D6E70;}
	.st359{clip-path:url(#SVGID_13_);fill:#6C6D6F;}
	.st360{clip-path:url(#SVGID_13_);fill:#6B6C6E;}
	.st361{clip-path:url(#SVGID_13_);fill:#6A6B6D;}
	.st362{clip-path:url(#SVGID_13_);fill:#696A6C;}
	.st363{clip-path:url(#SVGID_13_);fill:#68696B;}
	.st364{clip-path:url(#SVGID_13_);fill:#67686A;}
	.st365{clip-path:url(#SVGID_13_);fill:#666769;}
	.st366{clip-path:url(#SVGID_13_);fill:#656668;}
	.st367{clip-path:url(#SVGID_13_);fill:#646567;}
	.st368{clip-path:url(#SVGID_13_);fill:#636466;}
	.st369{clip-path:url(#SVGID_15_);}
	.st370{fill:#FEFEFE;}
	.st371{fill:#FCFCFC;}
	.st372{fill:#FBFBFB;}
	.st373{fill:#FAFAFA;}
	.st374{fill:#F9F9F9;}
	.st375{fill:#F8F8F8;}
	.st376{fill:#F7F7F7;}
	.st377{fill:#F6F6F6;}
	.st378{fill:#F5F5F5;}
	.st379{fill:#F4F4F4;}
	.st380{fill:#F3F3F3;}
	.st381{fill:#F2F2F2;}
	.st382{fill:#F1F1F1;}
	.st383{fill:#F0F0F0;}
	.st384{fill:#EEEEEE;}
	.st385{fill:#EDEDED;}
	.st386{fill:#ECECEC;}
	.st387{fill:#EBEBEB;}
	.st388{fill:#EAEAEA;}
	.st389{fill:#E9E9E9;}
	.st390{fill:#E8E8E8;}
	.st391{fill:#E7E7E7;}
	.st392{fill:#E6E6E6;}
	.st393{fill:#E5E5E5;}
	.st394{fill:#E4E4E4;}
	.st395{fill:#E3E3E3;}
	.st396{fill:#E1E1E1;}
	.st397{fill:#E0E0E0;}
	.st398{fill:#DFDFDF;}
	.st399{fill:#DEDEDE;}
	.st400{fill:#DDDDDD;}
	.st401{fill:#DCDCDC;}
	.st402{fill:#DBDBDB;}
	.st403{fill:#DADADA;}
	.st404{fill:#D9D9D9;}
	.st405{fill:#D8D8D8;}
	.st406{fill:#D7D7D7;}
	.st407{fill:#D6D6D6;}
	.st408{fill:#D5D5D5;}
	.st409{fill:#D4D4D5;}
	.st410{fill:#D3D3D4;}
	.st411{fill:#D2D2D3;}
	.st412{fill:#D1D1D2;}
	.st413{fill:#D0D0D1;}
	.st414{fill:#CFCFD0;}
	.st415{fill:#CECECF;}
	.st416{fill:#CDCDCE;}
	.st417{fill:#CCCCCD;}
	.st418{fill:#CBCBCC;}
	.st419{fill:#CACACB;}
	.st420{fill:#C9C9CA;}
	.st421{fill:#C8C8C9;}
	.st422{fill:#C7C7C8;}
	.st423{fill:#C6C6C7;}
	.st424{fill:#C5C5C6;}
	.st425{fill:#C4C4C5;}
	.st426{fill:#C3C3C4;}
	.st427{fill:#C2C2C3;}
	.st428{fill:#C1C1C2;}
	.st429{fill:#C0C0C1;}
	.st430{fill:#BFBFC0;}
	.st431{fill:#BEBEBF;}
	.st432{fill:#BDBDBE;}
	.st433{fill:#BCBCBD;}
	.st434{fill:#BBBBBC;}
	.st435{fill:#BABABB;}
	.st436{fill:#B9B9BA;}
	.st437{fill:#B8B8B9;}
	.st438{fill:#B7B7B8;}
	.st439{fill:#B6B6B7;}
	.st440{fill:#B5B5B6;}
	.st441{fill:#B4B4B5;}
	.st442{fill:#B3B3B4;}
	.st443{fill:#B2B2B3;}
	.st444{fill:#B1B1B2;}
	.st445{fill:#B0B0B1;}
	.st446{fill:#AFAFB0;}
	.st447{fill:#ADAEAF;}
	.st448{fill:#ACADAE;}
	.st449{fill:#ABACAD;}
	.st450{fill:#AAABAC;}
	.st451{fill:#A9AAAB;}
	.st452{fill:#A8A9AA;}
	.st453{fill:#A7A8A9;}
	.st454{fill:#A6A7A8;}
	.st455{fill:#A5A6A7;}
	.st456{fill:#A4A5A6;}
	.st457{fill:#A3A4A5;}
	.st458{fill:#A2A3A4;}
	.st459{fill:#A1A2A3;}
	.st460{fill:#A0A1A2;}
	.st461{fill:#9FA0A1;}
	.st462{fill:#9E9FA0;}
	.st463{fill:#9D9E9F;}
	.st464{fill:#9C9D9E;}
	.st465{fill:#9B9C9D;}
	.st466{fill:#9A9B9C;}
	.st467{fill:#999A9B;}
	.st468{fill:#98999A;}
	.st469{fill:#979899;}
	.st470{fill:#969798;}
	.st471{fill:#959697;}
	.st472{fill:#949596;}
	.st473{fill:#939495;}
	.st474{fill:#929394;}
	.st475{fill:#919293;}
	.st476{fill:#909192;}
	.st477{fill:#8F9091;}
	.st478{fill:#8E8F90;}
	.st479{fill:#8D8E8F;}
	.st480{fill:#8C8D8E;}
	.st481{fill:#8B8C8D;}
	.st482{fill:#8A8B8C;}
	.st483{fill:#898A8B;}
	.st484{fill:#88898B;}
	.st485{fill:#87888A;}
	.st486{fill:#868789;}
	.st487{fill:#858688;}
	.st488{fill:#848587;}
	.st489{fill:#838486;}
	.st490{fill:#828385;}
	.st491{fill:#818284;}
	.st492{fill:#808183;}
	.st493{fill:#7F8082;}
	.st494{fill:#7E7F81;}
	.st495{fill:#7D7E80;}
	.st496{fill:#7C7D7F;}
	.st497{fill:#7B7C7E;}
	.st498{fill:#7A7B7D;}
	.st499{fill:#797A7C;}
	.st500{fill:#78797B;}
	.st501{fill:#77787A;}
	.st502{fill:#767779;}
	.st503{fill:#757678;}
	.st504{fill:#747577;}
	.st505{fill:#737476;}
	.st506{fill:#727375;}
	.st507{fill:#717274;}
	.st508{fill:#707173;}
	.st509{fill:#6F7072;}
	.st510{fill:#6E6F71;}
	.st511{fill:#6D6E70;}
	.st512{fill:#6C6D6F;}
	.st513{fill:#6B6C6E;}
	.st514{fill:#6A6B6D;}
	.st515{fill:#696A6C;}
	.st516{fill:#68696B;}
	.st517{fill:#67686A;}
	.st518{fill:#666769;}
	.st519{fill:#656668;}
	.st520{fill:#646567;}
	.st521{fill:#636466;}
	.st522{opacity:0.6;}
	.st523{opacity:0.4;}
	.st524{fill:#FECE8C;}
	.st525{fill:#DD8D24;}
	.st526{fill:#F4EDED;}
	.st527{fill:#A05F10;}
	.st528{fill:#FFCE43;}
	.st529{fill:#FF9900;}
	.st530{fill:#FFC306;}
	.st531{fill:#7A471F;}
	.st532{fill:#DD9F76;}
	.st533{fill:#E6E7E8;}
	.st534{fill:#D1D3D4;}
	.st535{clip-path:url(#SVGID_17_);}
	.st536{fill:#FDFDFD;}
	.st537{fill:#D4D4D4;}
	.st538{fill:#D3D3D3;}
	.st539{fill:#D2D2D2;}
	.st540{fill:#D1D1D1;}
	.st541{fill:#D0D0D0;}
	.st542{fill:#CFCFCF;}
	.st543{fill:#CECECE;}
	.st544{fill:#CDCDCD;}
	.st545{fill:#CCCCCC;}
	.st546{fill:#CBCBCB;}
	.st547{fill:#CACACA;}
	.st548{fill:#CAC9C9;}
	.st549{fill:#C9C7C7;}
	.st550{fill:#C8C6C6;}
	.st551{fill:#C7C5C5;}
	.st552{fill:#C6C4C4;}
	.st553{fill:#C5C3C3;}
	.st554{fill:#C4C2C2;}
	.st555{fill:#C3C1C1;}
	.st556{fill:#C2C0C0;}
	.st557{fill:#C1BFBF;}
	.st558{fill:#C0BEBE;}
	.st559{fill:#BFBDBD;}
	.st560{fill:#BEBCBC;}
	.st561{fill:#BDBBBB;}
	.st562{fill:#BCBABA;}
	.st563{fill:#BBB9B9;}
	.st564{fill:#BAB8B8;}
	.st565{fill:#B9B7B7;}
	.st566{fill:#B8B6B6;}
	.st567{fill:#B7B5B5;}
	.st568{fill:#B6B4B4;}
	.st569{fill:#B5B3B3;}
	.st570{fill:#B4B2B2;}
	.st571{fill:#B3B1B1;}
	.st572{fill:#B2B0B0;}
	.st573{fill:#B1AFAF;}
	.st574{fill:#B0AEAE;}
	.st575{fill:#AFADAD;}
	.st576{fill:#AEACAC;}
	.st577{fill:#ADABAB;}
	.st578{fill:#ACAAAA;}
	.st579{fill:#ABA9A9;}
	.st580{fill:#AAA8A8;}
	.st581{fill:#A9A7A7;}
	.st582{fill:#A8A6A6;}
	.st583{fill:#A7A5A5;}
	.st584{fill:#A6A4A4;}
	.st585{fill:#A5A3A3;}
	.st586{fill:#A4A2A2;}
	.st587{fill:#A3A1A1;}
	.st588{fill:#A2A0A0;}
	.st589{fill:#A19F9F;}
	.st590{fill:#A09E9E;}
	.st591{fill:#9F9D9D;}
	.st592{fill:#9E9C9C;}
	.st593{fill:#9D9B9B;}
	.st594{fill:#9C9A9A;}
	.st595{fill:#9B9999;}
	.st596{fill:#9A9898;}
	.st597{fill:#999797;}
	.st598{fill:#989696;}
	.st599{fill:#979595;}
	.st600{fill:#969494;}
	.st601{fill:#959393;}
	.st602{fill:#949292;}
	.st603{fill:#5E5E5E;}
	.st604{clip-path:url(#SVGID_19_);}
	.st605{fill:#C9C9C9;}
	.st606{fill:#C8C8C8;}
	.st607{fill:#C7C7C7;}
	.st608{fill:#C6C6C6;}
	.st609{fill:#C5C5C5;}
	.st610{fill:#939191;}
	.st611{fill:#929090;}
	.st612{fill:#918F8F;}
	.st613{fill:#908E8E;}
	.st614{fill:#8F8D8D;}
	.st615{fill:#8E8C8C;}
	.st616{fill:#8D8B8B;}
	.st617{fill:#8C8A8A;}
	.st618{fill:#8B8989;}
	.st619{clip-path:url(#SVGID_21_);}
	.st620{clip-path:url(#SVGID_23_);}
	.st621{clip-path:url(#SVGID_25_);}
	.st622{clip-path:url(#SVGID_27_);}
	.st623{fill:#A4A3A3;}
	.st624{fill:#A3A2A2;}
	.st625{fill:#A2A1A1;}
	.st626{fill:#A1A0A0;}
	.st627{fill:#A09F9F;}
	.st628{fill:#9F9E9E;}
	.st629{fill:#9E9D9D;}
	.st630{fill:#9D9C9C;}
	.st631{fill:#9C9B9B;}
	.st632{fill:#9B9A9A;}
	.st633{fill:#9A9999;}
	.st634{fill:#999898;}
	.st635{fill:#989797;}
	.st636{fill:#979697;}
	.st637{fill:#969596;}
	.st638{fill:#959495;}
	.st639{fill:#949394;}
	.st640{fill:#939293;}
	.st641{fill:#929192;}
	.st642{fill:#919091;}
	.st643{fill:#908F90;}
	.st644{fill:#8F8E8F;}
	.st645{fill:#8E8D8E;}
	.st646{fill:#8D8C8D;}
	.st647{fill:#8C8B8C;}
	.st648{fill:#8B8A8B;}
	.st649{fill:#8A898A;}
	.st650{fill:#898889;}
	.st651{fill:#888788;}
	.st652{fill:#878687;}
	.st653{fill:#868586;}
	.st654{fill:#858485;}
	.st655{fill:#848384;}
	.st656{fill:#838283;}
	.st657{fill:#828182;}
	.st658{fill:#818081;}
	.st659{fill:#807F80;}
	.st660{fill:#7F7E7F;}
	.st661{fill:#7D7E7F;}
	.st662{fill:#7C7D7E;}
	.st663{fill:#7B7C7D;}
	.st664{fill:#7A7B7C;}
	.st665{fill:#797A7B;}
	.st666{fill:#78797A;}
	.st667{fill:#777879;}
	.st668{fill:#767778;}
	.st669{fill:#757677;}
	.st670{fill:#747576;}
	.st671{fill:#737475;}
	.st672{fill:#727374;}
	.st673{fill:#717273;}
	.st674{fill:#707172;}
	.st675{fill:#6F7071;}
	.st676{fill:#6E6F70;}
	.st677{fill:#6D6E6F;}
	.st678{fill:#6C6D6E;}
	.st679{fill:#6B6C6D;}
	.st680{fill:#6A6B6C;}
	.st681{fill:#696A6B;}
	.st682{fill:#68696A;}
	.st683{fill:#676869;}
	.st684{fill:#666768;}
	.st685{fill:#656667;}
	.st686{fill:#626365;}
	.st687{fill:#616264;}
	.st688{fill:#606163;}
	.st689{fill:#5F6062;}
	.st690{fill:#5E5F61;}
	.st691{fill:#5D5E60;}
	.st692{fill:#5C5D5F;}
	.st693{fill:#5B5C5E;}
	.st694{fill:#5A5B5D;}
	.st695{fill:#595A5C;}
	.st696{clip-path:url(#SVGID_29_);fill:#A4A3A3;}
	.st697{clip-path:url(#SVGID_29_);fill:#A3A2A2;}
	.st698{clip-path:url(#SVGID_29_);fill:#A2A1A1;}
	.st699{clip-path:url(#SVGID_29_);fill:#A1A0A0;}
	.st700{clip-path:url(#SVGID_29_);fill:#A09F9F;}
	.st701{clip-path:url(#SVGID_29_);fill:#9F9E9E;}
	.st702{clip-path:url(#SVGID_29_);fill:#9E9D9D;}
	.st703{clip-path:url(#SVGID_29_);fill:#9D9C9C;}
	.st704{clip-path:url(#SVGID_29_);fill:#9C9B9B;}
	.st705{clip-path:url(#SVGID_29_);fill:#9B9A9A;}
	.st706{clip-path:url(#SVGID_29_);fill:#9A9999;}
	.st707{clip-path:url(#SVGID_29_);fill:#999898;}
	.st708{clip-path:url(#SVGID_29_);fill:#989797;}
	.st709{clip-path:url(#SVGID_29_);fill:#979697;}
	.st710{clip-path:url(#SVGID_29_);fill:#969596;}
	.st711{clip-path:url(#SVGID_29_);fill:#959495;}
	.st712{clip-path:url(#SVGID_29_);fill:#949394;}
	.st713{clip-path:url(#SVGID_29_);fill:#939293;}
	.st714{clip-path:url(#SVGID_29_);fill:#929192;}
	.st715{clip-path:url(#SVGID_29_);fill:#919091;}
	.st716{clip-path:url(#SVGID_29_);fill:#908F90;}
	.st717{clip-path:url(#SVGID_29_);fill:#8F8E8F;}
	.st718{clip-path:url(#SVGID_29_);fill:#8E8D8E;}
	.st719{clip-path:url(#SVGID_29_);fill:#8D8C8D;}
	.st720{clip-path:url(#SVGID_29_);fill:#8C8B8C;}
	.st721{clip-path:url(#SVGID_29_);fill:#8B8A8B;}
	.st722{clip-path:url(#SVGID_29_);fill:#8A898A;}
	.st723{clip-path:url(#SVGID_29_);fill:#898889;}
	.st724{clip-path:url(#SVGID_29_);fill:#888788;}
	.st725{clip-path:url(#SVGID_29_);fill:#878687;}
	.st726{clip-path:url(#SVGID_29_);fill:#868586;}
	.st727{clip-path:url(#SVGID_29_);fill:#858485;}
	.st728{clip-path:url(#SVGID_29_);fill:#848384;}
	.st729{clip-path:url(#SVGID_29_);fill:#838283;}
	.st730{clip-path:url(#SVGID_29_);fill:#828182;}
	.st731{clip-path:url(#SVGID_29_);fill:#818081;}
	.st732{clip-path:url(#SVGID_29_);fill:#807F80;}
	.st733{clip-path:url(#SVGID_29_);fill:#7F7E7F;}
	.st734{clip-path:url(#SVGID_29_);fill:#7D7E7F;}
	.st735{clip-path:url(#SVGID_29_);fill:#7C7D7E;}
	.st736{clip-path:url(#SVGID_29_);fill:#7B7C7D;}
	.st737{clip-path:url(#SVGID_29_);fill:#7A7B7C;}
	.st738{clip-path:url(#SVGID_29_);fill:#797A7B;}
	.st739{clip-path:url(#SVGID_29_);fill:#78797A;}
	.st740{clip-path:url(#SVGID_29_);fill:#777879;}
	.st741{clip-path:url(#SVGID_29_);fill:#767778;}
	.st742{clip-path:url(#SVGID_29_);fill:#757677;}
	.st743{clip-path:url(#SVGID_29_);fill:#747576;}
	.st744{clip-path:url(#SVGID_29_);fill:#737475;}
	.st745{clip-path:url(#SVGID_29_);fill:#727374;}
	.st746{clip-path:url(#SVGID_29_);fill:#717273;}
	.st747{clip-path:url(#SVGID_29_);fill:#707172;}
	.st748{clip-path:url(#SVGID_29_);fill:#6F7071;}
	.st749{clip-path:url(#SVGID_29_);fill:#6E6F70;}
	.st750{clip-path:url(#SVGID_29_);fill:#6D6E6F;}
	.st751{clip-path:url(#SVGID_29_);fill:#6C6D6E;}
	.st752{clip-path:url(#SVGID_29_);fill:#6B6C6D;}
	.st753{clip-path:url(#SVGID_29_);fill:#6A6B6C;}
	.st754{clip-path:url(#SVGID_29_);fill:#696A6B;}
	.st755{clip-path:url(#SVGID_29_);fill:#68696A;}
	.st756{clip-path:url(#SVGID_29_);fill:#676869;}
	.st757{clip-path:url(#SVGID_29_);fill:#666768;}
	.st758{clip-path:url(#SVGID_29_);fill:#656667;}
	.st759{clip-path:url(#SVGID_29_);fill:#646567;}
	.st760{clip-path:url(#SVGID_29_);fill:#636466;}
	.st761{clip-path:url(#SVGID_29_);fill:#626365;}
	.st762{clip-path:url(#SVGID_29_);fill:#616264;}
	.st763{clip-path:url(#SVGID_29_);fill:#606163;}
	.st764{clip-path:url(#SVGID_29_);fill:#5F6062;}
	.st765{clip-path:url(#SVGID_29_);fill:#5E5F61;}
	.st766{clip-path:url(#SVGID_29_);fill:#5D5E60;}
	.st767{clip-path:url(#SVGID_29_);fill:#5C5D5F;}
	.st768{clip-path:url(#SVGID_29_);fill:#5B5C5E;}
	.st769{clip-path:url(#SVGID_29_);fill:#5A5B5D;}
	.st770{clip-path:url(#SVGID_29_);fill:#595A5C;}
	.st771{clip-path:url(#SVGID_29_);fill:#58595B;}
	.st772{clip-path:url(#SVGID_31_);}
	.st773{clip-path:url(#SVGID_33_);}
	.st774{clip-path:url(#SVGID_35_);}
	.st775{clip-path:url(#SVGID_37_);}
	.st776{clip-path:url(#SVGID_39_);}
</style>
<g>
	<g>
		<polygon class="st3" points="140.937,749.345 138.364,749.345 138.364,696.44 40.53,696.44 40.53,749.345 37.956,749.345 
			37.956,693.867 140.937,693.867 		"/>
	</g>
	<g>
		<rect x="28.761" y="748.837" class="st3" width="121.372" height="61.183"/>
	</g>
	<g>
		<rect x="76.541" y="707.518" class="st3" width="50.688" height="2.574"/>
	</g>
	<g>
		<rect x="76.541" y="721.532" class="st3" width="50.688" height="2.572"/>
	</g>
	<g>
		<rect x="76.541" y="735.545" class="st3" width="50.688" height="2.574"/>
	</g>
	<path class="st3" d="M130.759,24.991H91.296c-7.137,0-12.943,5.808-12.943,12.946v1.921l-10.345-7.31
		c-0.995-0.712-2.127-1.089-3.274-1.089c-1.355,0-2.61,0.526-3.528,1.48c-0.899,0.936-1.393,2.216-1.393,3.602v23.703h-16.74
		c-7.136,0-12.941,5.808-12.941,12.943v39.461c0,7.138,5.805,12.946,12.941,12.946h39.464c7.137,0,12.943-5.808,12.943-12.946
		v-1.921l10.344,7.31c0.996,0.712,2.128,1.089,3.274,1.089c1.356,0,2.609-0.526,3.528-1.48c0.899-0.934,1.394-2.216,1.394-3.602
		V90.341h16.739c7.136,0,12.942-5.808,12.942-12.943V37.937C143.702,30.799,137.896,24.991,130.759,24.991z M107.19,110.637
		l-13.155-9.298c-1.041-0.736-2.407-0.832-3.542-0.244c-1.134,0.587-1.845,1.757-1.845,3.033v8.52c0,3.371-2.742,6.115-6.112,6.115
		H43.073c-3.369,0-6.111-2.744-6.111-6.115V73.187c0-3.369,2.741-6.112,6.111-6.112h39.464c3.369,0,6.112,2.742,6.112,6.112v8.246
		c0,1.277,0.712,2.449,1.848,3.036c1.135,0.587,2.503,0.492,3.544-0.249l13.15-9.329V110.637z"/>
	<g>
		<path class="st3" d="M51.288,456.716h-23.21V466h23.21V456.716L51.288,456.716z M40.263,463c-1.068,0-1.934-0.866-1.934-1.933
			c0-1.069,0.867-1.934,1.934-1.934c1.067,0,1.934,0.866,1.934,1.934C42.197,462.135,41.33,463,40.263,463z"/>
		<path class="st3" d="M82.235,456.716h-23.21V466h23.21V456.716L82.235,456.716z M71.21,463c-1.069,0-1.934-0.866-1.934-1.933
			c0-1.069,0.866-1.934,1.934-1.934c1.067,0,1.934,0.866,1.934,1.934C73.143,462.135,72.277,463,71.21,463z"/>
		<path class="st3" d="M82.235,439.696H28.078v9.283h54.157V439.696L82.235,439.696z M54.189,445.98
			c-1.069,0-1.934-0.866-1.934-1.934c0-1.067,0.866-1.934,1.934-1.934c1.067,0,1.934,0.867,1.934,1.934
			C56.123,445.114,55.256,445.98,54.189,445.98z"/>
		<path class="st3" d="M89.97,476.83v-4.642v-4.641v-34.042h-69.63v34.042v4.641v4.644h4.642v-4.644h27.852v4.644h4.642v-4.644
			h27.852v4.644h4.642V476.83z M52.835,467.547H26.53v-12.378h26.305V467.547L52.835,467.547z M83.781,467.547H57.477v-12.378
			h26.305V467.547L83.781,467.547z M83.781,450.527H26.53v-12.38h57.252V450.527L83.781,450.527z"/>
		<polygon class="st3" points="89.97,431.958 93.065,428.864 17.246,428.864 20.341,431.958 		"/>
		<polygon class="st3" points="46.645,419.58 46.645,424.222 37.361,424.222 37.361,427.316 72.95,427.316 72.95,424.222 
			63.666,424.222 63.666,419.58 		"/>
		<path class="st3" d="M83.781,388.633H26.53v29.4h57.252V388.633L83.781,388.633z M79.139,413.391H31.172v-20.116h47.967V413.391z"
			/>
	</g>
	<g>
		<g>
			<path class="st3" d="M95.018,473.501c0,1.609,0.9,2.951,2.095,3.261c0.175,0.036,0.349,0.07,0.531,0.07h21.014
				c0.183,0,0.355-0.034,0.531-0.07c1.196-0.31,2.096-1.653,2.096-3.261c0-1.837-1.177-3.329-2.627-3.329h-7.005h-1.751h-3.502
				h-1.751h-7.004C96.194,470.172,95.018,471.663,95.018,473.501z"/>
			<polygon class="st3" points="122.405,334.717 119.725,334.717 119.095,334.717 117.882,334.717 98.42,334.717 97.206,334.717 
				96.575,334.717 93.896,334.717 87.476,371.844 128.826,371.844 			"/>
			<path class="st3" d="M112.529,390.714c0.484,0,0.876-0.498,0.876-1.11v-2.221v-2.219v-2.22c0-0.613-0.392-1.11-0.876-1.11
				c-0.483,0-0.875,0.498-0.875,1.11v2.22h-1.751v-11.1H106.4v93.887h3.502v-80.567h1.751v2.219
				C111.653,390.216,112.045,390.714,112.529,390.714z"/>
		</g>
	</g>
	<polygon class="st3" points="150.394,455.376 141.341,455.376 139.818,455.376 128.429,455.376 129.846,464.571 148.977,464.571 	
		"/>
	<polygon class="st3" points="151.811,446.181 148.266,446.181 146.527,446.181 145.125,446.181 144.297,446.181 143.59,446.181 
		142.629,446.181 141.754,446.181 141.748,446.181 140.843,446.181 138.203,446.181 137.412,446.181 135.842,446.181 
		134.678,446.181 133.142,446.181 127.012,446.181 128.193,453.844 138.832,453.844 142.033,453.844 150.63,453.844 	"/>
	<polygon class="st3" points="147.088,476.832 148.741,466.103 130.082,466.103 131.735,476.832 	"/>
	<path class="st3" d="M122.288,435.454l2.362,9.195h1.18h3.068h1.73h2.402h1.63h0.99h0.791h0.858h0.905h1.055h1.493h1.004h0.045
		h1.494h0.246h0.144h0.539h1.445h0.778h0.127h1.669h5.928l2.362-9.195h-7.849c0.469-4.353,1.384-8.906,3.076-12.795
		c0,0-0.852,1.091-1.872,3.669c0.434-4.636,0.111-7.505-0.049-8.526c1.059-3.829,2.446-7.557,4.267-10.819
		c0,0-6.622,6.678-9.509,28.47h-0.392c0.067-1.869,0.186-3.833,0.371-5.839c0.536-2.954,1.322-5.872,2.462-8.49
		c0,0-0.867,1.115-1.898,3.739c0.706-4.815,1.864-9.669,3.717-13.928c0,0-5.058,6.398-6.646,24.519h-1.529
		c-0.013-0.329-0.025-0.669-0.036-1.018c0.246-7.836,1.34-17.385,4.668-25.035c0,0-2.222,2.818-4.184,9.994
		c0.616-5.989,1.85-12.29,4.184-17.655c0,0-6.73,8.512-7.101,33.714h-0.861c-0.094-0.557-0.185-1.13-0.274-1.715
		c0.194-7.985,1.248-17.95,4.694-25.87c0,0-3.603,4.562-5.682,16.88c-0.408-6.173-0.247-12.883,1.212-18.937
		c0,0-4.285,8.363-2.32,28.394c-0.029,0.408-0.055,0.829-0.08,1.249h-0.799c-0.368-1.787-0.759-3.448-1.159-5.006
		c1.711-14.67,0.001-20.689,0.001-20.689c0.438,4.978,0.132,10.52-0.479,15.739c0.548-18.393-3.753-25.758-3.753-25.758
		c2.163,7.359,2.378,15.885,1.926,23.191c-3.414-9.371-6.871-12.421-6.871-12.421c3.048,4.8,5.121,10.796,6.533,16.609
		c-0.325,3.274-0.744,6.141-1.115,8.334H122.288L122.288,435.454z M149.748,418.146c-0.103,5.635-1.264,11.336-2.815,16.511
		C147.371,429.763,148.199,423.859,149.748,418.146z"/>
	<g>
		<path class="st3" d="M65.221,723.459c-1.192-0.97-2.916-1.662-4.656-2.302v-8.636c1.356,0.297,2.577,1.037,3.34,2.153l2.124-1.453
			c-1.235-1.806-3.265-2.949-5.463-3.294v-4.548h-2.574v4.514c-0.975,0.128-1.934,0.414-2.83,0.878
			c-1.96,1.012-3.308,2.833-3.606,4.87c-0.261,1.785,0.303,3.498,1.545,4.696c1.188,1.145,3.015,1.918,4.891,2.617v10.07
			c-1.997-0.237-3.884-1.134-4.924-2.526l-2.061,1.541c1.516,2.027,4.191,3.301,6.985,3.563v3.517h2.574v-3.568
			c0.735-0.101,1.456-0.279,2.143-0.539c2.703-1.027,4.627-3.188,5.022-5.638C68.087,727.165,67.195,725.064,65.221,723.459z
			 M54.887,718.484c-0.639-0.615-0.925-1.517-0.785-2.471c0.177-1.219,1.015-2.323,2.24-2.957c0.526-0.271,1.083-0.456,1.65-0.565
			v7.705C56.714,719.69,55.567,719.14,54.887,718.484z M65.189,728.964c-0.249,1.545-1.55,2.94-3.395,3.641
			c-0.396,0.151-0.808,0.262-1.23,0.341v-9.04c1.209,0.469,2.32,0.97,3.033,1.55C64.845,726.471,65.397,727.684,65.189,728.964z"/>
	</g>
	<g>
		<polygon class="st3" points="139.946,745.969 150.134,745.969 144.415,735.008 139.946,735.008 		"/>
		<polygon class="st3" points="39.488,735.008 34.479,735.008 28.761,745.969 39.488,745.969 		"/>
	</g>
</g>
<g>
	<path class="st3" d="M90.048,650.409l12.159-12.164c0.832-0.83,1.309-2.007,1.309-3.228v-0.001c0-1.222-0.477-2.399-1.312-3.233
		c-1.781-1.773-4.679-1.772-6.459,0.004l-4.365,4.365v-22.146c0-2.517-2.048-4.565-4.565-4.565c-2.518,0-4.566,2.048-4.566,4.565
		v22.145l-4.361-4.363c-0.864-0.866-2.014-1.342-3.24-1.341c-1.222,0.002-2.367,0.479-3.219,1.338
		c-0.865,0.864-1.342,2.011-1.342,3.23c0,1.228,0.479,2.376,1.341,3.226l12.161,12.167c0.851,0.85,2.027,1.338,3.226,1.338
		C88.012,651.747,89.189,651.261,90.048,650.409z"/>
	<path class="st3" d="M90.048,301.338l12.159-12.164c0.832-0.83,1.309-2.007,1.309-3.228v-0.001c0-1.222-0.477-2.399-1.312-3.233
		c-1.781-1.773-4.679-1.772-6.459,0.004l-4.365,4.365v-22.146c0-2.517-2.048-4.565-4.565-4.565c-2.518,0-4.566,2.048-4.566,4.565
		v22.145l-4.361-4.363c-0.864-0.866-2.014-1.342-3.24-1.341c-1.222,0.002-2.367,0.479-3.219,1.338
		c-0.865,0.864-1.342,2.011-1.342,3.23c0,1.228,0.479,2.376,1.341,3.226l12.161,12.167c0.851,0.85,2.027,1.338,3.226,1.338
		C88.012,302.676,89.189,302.19,90.048,301.338z"/>
	<g>
		<g>
			<path class="st3" d="M36.379,185.048c1.575,0.906,3.939,1.693,6.42,1.693c3.112,0,4.845-1.457,4.845-3.623
				c0-2.01-1.339-3.191-4.727-4.412c-4.372-1.576-7.169-3.9-7.169-7.721c0-4.333,3.624-7.642,9.375-7.642
				c2.875,0,5.003,0.63,6.382,1.339l-1.182,3.9c-0.945-0.512-2.797-1.26-5.278-1.26c-3.073,0-4.412,1.654-4.412,3.191
				c0,2.048,1.536,2.993,5.081,4.372c4.609,1.733,6.854,4.057,6.854,7.878c0,4.254-3.23,7.957-10.084,7.957
				c-2.797,0-5.712-0.788-7.169-1.655L36.379,185.048z"/>
		</g>
		<g>
			<path class="st3" d="M61.744,165.668v5.476h4.608v3.623h-4.608v8.469c0,2.323,0.63,3.545,2.482,3.545
				c0.827,0,1.457-0.118,1.891-0.236l0.079,3.703c-0.709,0.275-1.969,0.473-3.506,0.473c-1.773,0-3.27-0.591-4.175-1.576
				c-1.024-1.103-1.497-2.836-1.497-5.357v-9.021h-2.757v-3.623h2.757v-4.333L61.744,165.668z"/>
		</g>
		<g>
			<path class="st3" d="M80.412,190.326l-0.315-2.127h-0.118c-1.182,1.497-3.191,2.56-5.672,2.56c-3.86,0-6.027-2.797-6.027-5.712
				c0-4.845,4.294-7.288,11.384-7.248v-0.315c0-1.26-0.512-3.349-3.899-3.349c-1.891,0-3.86,0.591-5.16,1.419l-0.945-3.151
				c1.418-0.867,3.9-1.694,6.933-1.694c6.145,0,7.918,3.899,7.918,8.075v6.933c0,1.733,0.079,3.427,0.275,4.608H80.412z
				 M79.782,180.951c-3.427-0.079-6.696,0.67-6.696,3.585c0,1.891,1.221,2.757,2.757,2.757c1.93,0,3.348-1.26,3.781-2.639
				c0.118-0.355,0.157-0.748,0.157-1.064V180.951z"/>
		</g>
		<g>
			<path class="st3" d="M89.233,177.327c0-2.6-0.039-4.451-0.157-6.184h4.215l0.158,3.663h0.157
				c0.945-2.718,3.191-4.096,5.239-4.096c0.472,0,0.748,0.039,1.142,0.118v4.569c-0.394-0.079-0.827-0.157-1.418-0.157
				c-2.324,0-3.9,1.497-4.333,3.663c-0.079,0.434-0.157,0.945-0.157,1.497v9.927h-4.845V177.327z"/>
		</g>
		<g>
			<path class="st3" d="M109.319,165.668v5.476h4.609v3.623h-4.609v8.469c0,2.323,0.63,3.545,2.482,3.545
				c0.827,0,1.457-0.118,1.891-0.236l0.079,3.703c-0.709,0.275-1.969,0.473-3.506,0.473c-1.773,0-3.269-0.591-4.175-1.576
				c-1.024-1.103-1.497-2.836-1.497-5.357v-9.021h-2.757v-3.623h2.757v-4.333L109.319,165.668z"/>
		</g>
		<g>
			<path class="st3" d="M135.747,190.326l-0.316-2.127h-0.118c-1.182,1.497-3.191,2.56-5.672,2.56c-3.86,0-6.027-2.797-6.027-5.712
				c0-4.845,4.294-7.288,11.384-7.248v-0.315c0-1.26-0.512-3.349-3.899-3.349c-1.891,0-3.861,0.591-5.16,1.419l-0.945-3.151
				c1.418-0.867,3.9-1.694,6.933-1.694c6.145,0,7.917,3.899,7.917,8.075v6.933c0,1.733,0.079,3.427,0.276,4.608H135.747z
				 M135.116,180.951c-3.427-0.079-6.697,0.67-6.697,3.585c0,1.891,1.221,2.757,2.757,2.757c1.93,0,3.348-1.26,3.781-2.639
				c0.118-0.355,0.158-0.748,0.158-1.064V180.951z"/>
		</g>
		<g>
			<path class="st3" d="M6.742,208.738l3.112,9.729c0.552,1.694,0.945,3.23,1.3,4.806h0.118c0.355-1.576,0.788-3.073,1.3-4.806
				l3.033-9.729h5.121l-7.327,19.183H8.633l-7.13-19.183H6.742z"/>
		</g>
		<g>
			<path class="st3" d="M28.444,203.38c0,1.457-1.064,2.6-2.757,2.6c-1.615,0-2.679-1.142-2.679-2.6
				c0-1.497,1.103-2.639,2.718-2.639C27.38,200.741,28.404,201.884,28.444,203.38z M23.283,227.921v-19.183h4.885v19.183H23.283z"/>
		</g>
		<g>
			<path class="st3" d="M50.658,199.954v22.57c0,1.97,0.079,4.097,0.158,5.397h-4.333l-0.197-3.033h-0.079
				c-1.142,2.128-3.466,3.467-6.263,3.467c-4.569,0-8.193-3.9-8.193-9.809c-0.039-6.42,3.979-10.241,8.587-10.241
				c2.639,0,4.53,1.103,5.396,2.521h0.079v-10.872H50.658z M45.813,216.733c0-0.393-0.039-0.866-0.118-1.26
				c-0.434-1.891-1.97-3.427-4.176-3.427c-3.111,0-4.845,2.757-4.845,6.342c0,3.505,1.733,6.066,4.806,6.066
				c1.97,0,3.703-1.339,4.175-3.427c0.118-0.434,0.158-0.906,0.158-1.418V216.733z"/>
		</g>
		<g>
			<path class="st3" d="M58.887,219.688c0.118,3.466,2.836,4.963,5.909,4.963c2.245,0,3.86-0.316,5.318-0.867l0.709,3.349
				c-1.654,0.67-3.939,1.182-6.696,1.182c-6.224,0-9.887-3.821-9.887-9.691c0-5.317,3.23-10.32,9.375-10.32
				c6.224,0,8.272,5.121,8.272,9.336c0,0.906-0.079,1.615-0.157,2.048H58.887z M67.317,216.301c0.039-1.773-0.749-4.688-3.979-4.688
				c-2.993,0-4.254,2.718-4.451,4.688H67.317z"/>
		</g>
		<g>
			<path class="st3" d="M93.626,218.151c0,7.052-4.963,10.203-9.848,10.203c-5.436,0-9.612-3.742-9.612-9.887
				c0-6.302,4.136-10.163,9.927-10.163C89.805,208.304,93.626,212.322,93.626,218.151z M79.17,218.349
				c0,3.703,1.812,6.499,4.766,6.499c2.757,0,4.688-2.718,4.688-6.578c0-2.994-1.339-6.421-4.648-6.421
				C80.549,211.849,79.17,215.158,79.17,218.349z"/>
		</g>
		<g>
			<path class="st3" d="M119.067,227.33c-1.024,0.473-3.033,0.985-5.436,0.985c-5.987,0-9.887-3.821-9.887-9.769
				c0-5.751,3.939-10.241,10.675-10.241c1.773,0,3.585,0.394,4.688,0.906l-0.867,3.624c-0.788-0.354-1.93-0.748-3.663-0.748
				c-3.703,0-5.909,2.718-5.869,6.224c0,3.939,2.56,6.184,5.869,6.184c1.694,0,2.875-0.355,3.821-0.749L119.067,227.33z"/>
		</g>
		<g>
			<path class="st3" d="M122.255,199.954h4.885v11.423h0.079c0.591-0.906,1.379-1.655,2.403-2.206
				c0.945-0.552,2.087-0.866,3.309-0.866c3.27,0,6.696,2.166,6.696,8.311v11.305h-4.845v-10.754c0-2.797-1.024-4.885-3.703-4.885
				c-1.891,0-3.23,1.26-3.742,2.719c-0.157,0.393-0.197,0.906-0.197,1.457v11.462h-4.885V199.954z"/>
		</g>
		<g>
			<path class="st3" d="M155.182,227.921l-0.316-2.127h-0.118c-1.182,1.497-3.191,2.56-5.672,2.56c-3.86,0-6.027-2.797-6.027-5.712
				c0-4.845,4.294-7.288,11.384-7.248v-0.315c0-1.26-0.512-3.349-3.9-3.349c-1.891,0-3.861,0.591-5.16,1.419l-0.945-3.151
				c1.418-0.867,3.9-1.694,6.933-1.694c6.145,0,7.917,3.9,7.917,8.075v6.933c0,1.733,0.079,3.427,0.276,4.608H155.182z
				 M154.552,218.546c-3.427-0.079-6.697,0.67-6.697,3.585c0,1.891,1.221,2.757,2.757,2.757c1.93,0,3.348-1.26,3.781-2.639
				c0.118-0.355,0.158-0.748,0.158-1.064V218.546z"/>
		</g>
		<g>
			<path class="st3" d="M169.32,203.262v5.476h4.608v3.623h-4.608v8.469c0,2.323,0.63,3.545,2.482,3.545
				c0.827,0,1.457-0.118,1.891-0.236l0.079,3.703c-0.709,0.275-1.969,0.473-3.506,0.473c-1.773,0-3.27-0.591-4.175-1.576
				c-1.024-1.103-1.497-2.836-1.497-5.357v-9.021h-2.757v-3.623h2.757v-4.333L169.32,203.262z"/>
		</g>
	</g>
	<g>
		<g>
			<path class="st3" d="M17.063,528.199c1.575,0.906,3.939,1.693,6.42,1.693c3.112,0,4.845-1.457,4.845-3.623
				c0-2.01-1.339-3.191-4.727-4.412c-4.372-1.576-7.169-3.9-7.169-7.721c0-4.333,3.624-7.642,9.375-7.642
				c2.875,0,5.003,0.63,6.382,1.339l-1.182,3.9c-0.945-0.512-2.797-1.26-5.278-1.26c-3.073,0-4.412,1.654-4.412,3.191
				c0,2.048,1.536,2.993,5.081,4.372c4.609,1.733,6.854,4.057,6.854,7.878c0,4.254-3.23,7.957-10.084,7.957
				c-2.797,0-5.712-0.789-7.169-1.655L17.063,528.199z"/>
		</g>
		<g>
			<path class="st3" d="M36.913,505.51h4.885v11.423h0.079c0.591-0.906,1.379-1.655,2.403-2.206
				c0.945-0.552,2.087-0.866,3.309-0.866c3.27,0,6.696,2.166,6.696,8.311v11.305h-4.845v-10.754c0-2.797-1.024-4.885-3.703-4.885
				c-1.891,0-3.23,1.26-3.742,2.719c-0.157,0.393-0.197,0.906-0.197,1.457v11.463h-4.885V505.51z"/>
		</g>
		<g>
			<path class="st3" d="M77.284,523.707c0,7.052-4.963,10.203-9.848,10.203c-5.436,0-9.611-3.742-9.611-9.887
				c0-6.302,4.136-10.163,9.927-10.163C73.463,513.86,77.284,517.878,77.284,523.707z M62.828,523.905
				c0,3.703,1.812,6.499,4.766,6.499c2.757,0,4.688-2.718,4.688-6.578c0-2.994-1.339-6.421-4.648-6.421
				C64.207,517.405,62.828,520.714,62.828,523.905z"/>
		</g>
		<g>
			<path class="st3" d="M83.466,514.294l2.009,8.705c0.433,2.049,0.867,4.136,1.221,6.224h0.079
				c0.394-2.087,1.024-4.214,1.576-6.185l2.482-8.744h3.939l2.403,8.508c0.591,2.246,1.103,4.333,1.536,6.421h0.079
				c0.315-2.087,0.748-4.175,1.26-6.421l2.127-8.508h4.766l-6.027,19.183h-4.49l-2.285-7.799c-0.59-2.01-1.024-3.821-1.457-6.145
				h-0.079c-0.394,2.364-0.906,4.254-1.457,6.145l-2.442,7.799h-4.53l-5.672-19.183H83.466z"/>
		</g>
		<g>
			<path class="st3" d="M134.588,527.726c0,2.284,0.079,4.176,0.157,5.751h-4.254l-0.236-2.915h-0.079
				c-0.827,1.379-2.718,3.349-6.145,3.349c-3.506,0-6.696-2.088-6.696-8.351v-11.265h4.845v10.438c0,3.191,1.024,5.239,3.585,5.239
				c1.93,0,3.191-1.378,3.702-2.6c0.158-0.433,0.276-0.945,0.276-1.497v-11.58h4.845V527.726z"/>
		</g>
		<g>
			<path class="st3" d="M139.193,529.026c1.103,0.67,3.191,1.379,4.924,1.379c2.127,0,3.073-0.866,3.073-2.127
				c0-1.3-0.788-1.969-3.151-2.797c-3.742-1.3-5.318-3.348-5.278-5.594c0-3.387,2.797-6.026,7.248-6.026
				c2.127,0,3.979,0.552,5.081,1.143l-0.945,3.427c-0.827-0.473-2.363-1.103-4.057-1.103c-1.733,0-2.678,0.828-2.678,2.01
				c0,1.221,0.906,1.811,3.348,2.678c3.467,1.26,5.082,3.033,5.121,5.869c0,3.467-2.718,5.988-7.799,5.988
				c-2.324,0-4.412-0.552-5.83-1.34L139.193,529.026z"/>
		</g>
		<g>
			<path class="st3" d="M5.208,551.888l3.466,10.281c0.394,1.182,0.788,2.639,1.063,3.742h0.118c0.315-1.103,0.67-2.521,1.024-3.781
				l2.993-10.241h5.2l-4.806,13.077c-2.639,7.17-4.412,10.36-6.697,12.33c-1.891,1.694-3.86,2.324-5.081,2.482l-1.103-4.097
				c0.827-0.197,1.851-0.63,2.836-1.339c0.906-0.591,1.969-1.733,2.639-3.033c0.197-0.354,0.315-0.63,0.315-0.866
				c0-0.197-0.039-0.473-0.276-0.945l-7.011-17.608H5.208z"/>
		</g>
		<g>
			<path class="st3" d="M39.2,561.302c0,7.052-4.963,10.203-9.848,10.203c-5.436,0-9.612-3.742-9.612-9.887
				c0-6.302,4.136-10.163,9.927-10.163C35.379,551.455,39.2,555.472,39.2,561.302z M24.744,561.5c0,3.703,1.812,6.499,4.766,6.499
				c2.757,0,4.688-2.718,4.688-6.578c0-2.994-1.339-6.421-4.648-6.421C26.123,555,24.744,558.309,24.744,561.5z"/>
		</g>
		<g>
			<path class="st3" d="M59.956,565.32c0,2.284,0.079,4.176,0.157,5.751h-4.254l-0.236-2.915h-0.079
				c-0.827,1.379-2.718,3.349-6.145,3.349c-3.506,0-6.696-2.088-6.696-8.351v-11.265h4.845v10.438c0,3.191,1.024,5.239,3.585,5.239
				c1.93,0,3.191-1.378,3.702-2.6c0.158-0.433,0.276-0.945,0.276-1.497v-11.58h4.845V565.32z"/>
		</g>
		<g>
			<path class="st3" d="M64.797,558.072c0-2.6-0.039-4.451-0.157-6.184h4.215l0.158,3.663h0.157
				c0.945-2.718,3.191-4.096,5.239-4.096c0.472,0,0.748,0.039,1.142,0.118v4.569c-0.394-0.079-0.827-0.157-1.418-0.157
				c-2.324,0-3.9,1.497-4.333,3.664c-0.079,0.434-0.157,0.945-0.157,1.497v9.927h-4.845V558.072z"/>
		</g>
		<g>
			<path class="st3" d="M91.342,546.531c0,1.457-1.064,2.6-2.757,2.6c-1.615,0-2.679-1.143-2.679-2.6
				c0-1.497,1.103-2.639,2.718-2.639C90.278,543.892,91.303,545.034,91.342,546.531z M86.182,571.071v-19.183h4.885v19.183H86.182z"
				/>
		</g>
		<g>
			<path class="st3" d="M101.424,546.413v5.476h4.608v3.623h-4.608v8.469c0,2.323,0.63,3.545,2.482,3.545
				c0.827,0,1.457-0.118,1.891-0.236l0.079,3.703c-0.709,0.275-1.969,0.473-3.506,0.473c-1.773,0-3.27-0.591-4.175-1.576
				c-1.024-1.103-1.497-2.836-1.497-5.357v-9.021H93.94v-3.623h2.757v-4.333L101.424,546.413z"/>
		</g>
		<g>
			<path class="st3" d="M112.491,562.839c0.118,3.466,2.836,4.963,5.909,4.963c2.245,0,3.86-0.316,5.318-0.867l0.709,3.349
				c-1.654,0.67-3.939,1.182-6.696,1.182c-6.224,0-9.887-3.821-9.887-9.691c0-5.317,3.23-10.32,9.375-10.32
				c6.224,0,8.272,5.121,8.272,9.336c0,0.906-0.079,1.615-0.157,2.048H112.491z M120.921,559.451
				c0.039-1.773-0.748-4.688-3.979-4.688c-2.993,0-4.254,2.718-4.451,4.688H120.921z"/>
		</g>
		<g>
			<path class="st3" d="M128.992,557.6c0-2.206-0.039-4.058-0.157-5.712h4.175l0.197,2.836h0.118
				c0.945-1.496,2.679-3.269,5.909-3.269c2.521,0,4.49,1.418,5.318,3.545h0.079c0.67-1.063,1.458-1.851,2.363-2.402
				c1.064-0.748,2.285-1.143,3.861-1.143c3.191,0,6.42,2.166,6.42,8.311v11.305h-4.727v-10.596c0-3.191-1.103-5.081-3.427-5.081
				c-1.654,0-2.875,1.182-3.388,2.56c-0.118,0.473-0.236,1.064-0.236,1.615v11.502h-4.727v-11.108c0-2.678-1.064-4.569-3.309-4.569
				c-1.812,0-3.033,1.418-3.466,2.758c-0.197,0.472-0.276,1.024-0.276,1.575v11.344h-4.727V557.6z"/>
		</g>
		<g>
			<path class="st3" d="M161.76,566.62c1.103,0.67,3.191,1.379,4.924,1.379c2.127,0,3.073-0.866,3.073-2.127
				c0-1.3-0.788-1.969-3.151-2.797c-3.742-1.3-5.318-3.348-5.278-5.594c0-3.387,2.797-6.026,7.248-6.026
				c2.127,0,3.979,0.552,5.081,1.143l-0.945,3.427c-0.827-0.473-2.363-1.103-4.057-1.103c-1.733,0-2.678,0.828-2.678,2.01
				c0,1.221,0.906,1.811,3.348,2.678c3.466,1.26,5.081,3.033,5.121,5.869c0,3.467-2.718,5.988-7.799,5.988
				c-2.324,0-4.412-0.552-5.83-1.34L161.76,566.62z"/>
		</g>
	</g>
	<g>
		<g>
			<path class="st3" d="M22.65,879.825c-1.694,0.63-5.002,1.497-8.548,1.497c-4.49,0-7.878-1.142-10.399-3.545
				c-2.363-2.246-3.742-5.751-3.702-9.769c0-8.39,5.987-13.787,14.771-13.787c3.27,0,5.83,0.67,7.051,1.26l-1.064,3.9
				c-1.457-0.63-3.23-1.143-6.027-1.143c-5.672,0-9.65,3.348-9.65,9.532c0,6.026,3.702,9.611,9.217,9.611
				c1.733,0,3.033-0.236,3.663-0.552v-6.617h-4.687v-3.821h9.375V879.825z"/>
		</g>
		<g>
			<path class="st3" d="M30.681,872.814c0.118,3.466,2.836,4.963,5.909,4.963c2.245,0,3.86-0.316,5.318-0.867l0.709,3.349
				c-1.654,0.67-3.939,1.182-6.696,1.182c-6.224,0-9.887-3.821-9.887-9.691c0-5.317,3.23-10.32,9.375-10.32
				c6.224,0,8.272,5.121,8.272,9.336c0,0.906-0.079,1.615-0.157,2.048H30.681z M39.111,869.426c0.039-1.773-0.749-4.688-3.979-4.688
				c-2.993,0-4.254,2.718-4.451,4.688H39.111z"/>
		</g>
		<g>
			<path class="st3" d="M52.737,856.388v5.476h4.609v3.623h-4.609v8.469c0,2.323,0.63,3.545,2.482,3.545
				c0.827,0,1.457-0.118,1.891-0.236l0.079,3.703c-0.709,0.275-1.969,0.473-3.506,0.473c-1.773,0-3.269-0.591-4.175-1.576
				c-1.024-1.103-1.497-2.836-1.497-5.357v-9.021h-2.757v-3.623h2.757v-4.333L52.737,856.388z"/>
		</g>
		<g>
			<path class="st3" d="M79.164,881.046l-0.315-2.127h-0.118c-1.182,1.497-3.191,2.56-5.672,2.56c-3.86,0-6.027-2.797-6.027-5.712
				c0-4.845,4.294-7.288,11.384-7.248v-0.315c0-1.26-0.512-3.349-3.899-3.349c-1.891,0-3.86,0.591-5.16,1.419l-0.945-3.151
				c1.418-0.867,3.9-1.694,6.933-1.694c6.145,0,7.918,3.899,7.918,8.075v6.933c0,1.733,0.079,3.427,0.275,4.608H79.164z
				 M78.534,871.671c-3.427-0.079-6.696,0.67-6.696,3.585c0,1.891,1.221,2.757,2.757,2.757c1.93,0,3.348-1.26,3.781-2.639
				c0.118-0.355,0.157-0.748,0.157-1.064V871.671z"/>
		</g>
		<g>
			<path class="st3" d="M95.742,868.245c0-2.521-0.079-4.57-0.157-6.381h4.254l0.236,2.954h0.079
				c1.418-2.166,3.663-3.387,6.578-3.387c4.412,0,8.075,3.781,8.075,9.768c0,6.933-4.372,10.282-8.745,10.282
				c-2.403,0-4.412-1.024-5.396-2.56h-0.079v9.926h-4.845V868.245z M100.587,873.01c0,0.473,0.039,0.906,0.157,1.339
				c0.473,1.969,2.206,3.388,4.254,3.388c3.072,0,4.884-2.56,4.884-6.342c0-3.388-1.654-6.145-4.766-6.145
				c-2.009,0-3.86,1.457-4.333,3.585c-0.118,0.393-0.197,0.827-0.197,1.221V873.01z"/>
		</g>
		<g>
			<path class="st3" d="M118.388,868.047c0-2.6-0.039-4.451-0.157-6.184h4.215l0.158,3.663h0.157
				c0.945-2.718,3.191-4.096,5.239-4.096c0.472,0,0.748,0.039,1.142,0.118v4.569c-0.394-0.079-0.827-0.157-1.418-0.157
				c-2.324,0-3.9,1.497-4.333,3.664c-0.079,0.434-0.157,0.945-0.157,1.496v9.927h-4.845V868.047z"/>
		</g>
		<g>
			<path class="st3" d="M137.175,856.506c0,1.457-1.064,2.6-2.757,2.6c-1.615,0-2.679-1.142-2.679-2.6
				c0-1.497,1.103-2.639,2.718-2.639C136.112,853.867,137.136,855.009,137.175,856.506z M132.015,881.046v-19.183h4.885v19.183
				H132.015z"/>
		</g>
		<g>
			<path class="st3" d="M155.805,880.455c-1.024,0.473-3.033,0.985-5.436,0.985c-5.987,0-9.887-3.821-9.887-9.769
				c0-5.751,3.939-10.241,10.675-10.241c1.773,0,3.585,0.394,4.688,0.906l-0.867,3.624c-0.788-0.354-1.93-0.748-3.663-0.748
				c-3.703,0-5.909,2.718-5.869,6.224c0,3.939,2.56,6.185,5.869,6.185c1.694,0,2.875-0.355,3.821-0.749L155.805,880.455z"/>
		</g>
		<g>
			<path class="st3" d="M162.066,872.814c0.118,3.466,2.836,4.963,5.909,4.963c2.245,0,3.86-0.316,5.318-0.867l0.709,3.349
				c-1.654,0.67-3.939,1.182-6.696,1.182c-6.224,0-9.887-3.821-9.887-9.691c0-5.317,3.23-10.32,9.375-10.32
				c6.224,0,8.272,5.121,8.272,9.336c0,0.906-0.079,1.615-0.157,2.048H162.066z M170.496,869.426
				c0.039-1.773-0.749-4.688-3.979-4.688c-2.993,0-4.254,2.718-4.451,4.688H170.496z"/>
		</g>
	</g>
</g>
</svg>
